<?xml version="1.0" encoding="utf-8"?>
<!-- Generator: Adobe Illustrator 15.1.0, SVG Export Plug-In . SVG Version: 6.00 Build 0)  -->
<!DOCTYPE svg PUBLIC "-//W3C//DTD SVG 1.1//EN" "http://www.w3.org/Graphics/SVG/1.1/DTD/svg11.dtd">
<svg version="1.1" id="Laag_1" xmlns="http://www.w3.org/2000/svg" xmlns:xlink="http://www.w3.org/1999/xlink" x="0px" y="0px"
	 width="24px" height="24px" viewBox="0 0 24 24" enable-background="new 0 0 24 24" xml:space="preserve">
<linearGradient id="SVGID_1_" gradientUnits="userSpaceOnUse" x1="12.0005" y1="22.9453" x2="12.0005" y2="3.4541">
	<stop  offset="0" style="stop-color:#39517B"/>
	<stop  offset="1" style="stop-color:#5F7AB2"/>
</linearGradient>
<path fill="url(#SVGID_1_)" d="M24,22.016C24,23.107,23.108,24,22.016,24H1.984C0.893,24,0,23.107,0,22.016V1.984
	C0,0.893,0.893,0,1.984,0h20.032C23.108,0,24,0.893,24,1.984V22.016z"/>
<path fill="#39517B" d="M18.764,7.518h1.363V4.76h-2.955c-1.794,0-3.249,1.455-3.249,3.249v1.65h-2.331v2.758h2.331v8.492h3.625
	v-8.492h2.579V9.659h-2.579V8.733C17.548,8.062,18.092,7.518,18.764,7.518"/>
<path fill="#FFFFFF" d="M18.264,7.101h1.363V4.343h-2.955c-1.794,0-3.249,1.455-3.249,3.249v1.65h-2.331V12h2.331v8.492h3.625V12
	h2.579V9.242h-2.579V8.316C17.048,7.645,17.592,7.101,18.264,7.101"/>
</svg>
