<?xml version="1.0" encoding="utf-8"?>
<!-- Generator: Adobe Illustrator 15.1.0, SVG Export Plug-In . SVG Version: 6.00 Build 0)  -->
<!DOCTYPE svg PUBLIC "-//W3C//DTD SVG 1.1//EN" "http://www.w3.org/Graphics/SVG/1.1/DTD/svg11.dtd">
<svg version="1.1" id="Laag_1" xmlns="http://www.w3.org/2000/svg" xmlns:xlink="http://www.w3.org/1999/xlink" x="0px" y="0px"
	 width="24px" height="24px" viewBox="0 0 24 24" enable-background="new 0 0 24 24" xml:space="preserve">
<g>
	<path fill="#0680AB" d="M24,22.016C24,23.107,23.108,24,22.016,24H1.984C0.893,24,0,23.107,0,22.016V1.984C0,0.893,0.893,0,1.984,0
		h20.032C23.108,0,24,0.893,24,1.984V22.016z"/>
</g>
<g>
	<path fill-rule="evenodd" clip-rule="evenodd" fill="#FFFFFF" d="M5.615,7.715c1.255,0,2.037-0.833,2.037-1.872
		C7.629,4.781,6.871,3.972,5.639,3.972S3.602,4.781,3.602,5.844c0,1.039,0.782,1.872,1.99,1.872H5.615L5.615,7.715L5.615,7.715z
		 M7.415,20.027V9.194H3.814v10.833H7.415L7.415,20.027L7.415,20.027z"/>
	<path fill-rule="evenodd" clip-rule="evenodd" fill="#FFFFFF" d="M9.408,20.027h3.601v-6.051c0-0.322,0.025-0.648,0.119-0.877
		c0.26-0.647,0.852-1.317,1.848-1.317c1.303,0,1.824,0.994,1.824,2.45v5.795h3.6v-6.213c0-3.326-1.775-4.874-4.145-4.874
		c-1.943,0-2.795,1.085-3.27,1.825h0.023V9.194H9.408C9.455,10.21,9.408,20.027,9.408,20.027L9.408,20.027L9.408,20.027z"/>
</g>
</svg>
