<svg xmlns="http://www.w3.org/2000/svg" xmlns:xlink="http://www.w3.org/1999/xlink" viewBox="0 0 650 150"><defs><style>.a{fill:none;}.b,.c{fill:#fff;}.c{opacity:0.4;}.c,.d,.e{isolation:isolate;}.d{opacity:0.2;}.e{opacity:0.5;}.f{clip-path:url(#a);}</style><clipPath id="a"><rect class="a" x="550" y="50" width="50" height="50"/></clipPath></defs><title>icon-set-10</title><circle class="b" cx="210.88" cy="25" r="4.02"/><circle class="b" cx="225" cy="25" r="4.02"/><circle class="b" cx="239.12" cy="25" r="4.02"/><polygon class="b" points="225 65.9 213.01 53.91 207.62 59.29 225 76.67 242.38 59.29 236.99 53.91 225 65.9"/><polygon class="c" points="225 85.33 213.01 73.33 207.62 78.72 225 96.09 242.38 78.72 236.99 73.33 225 85.33"/><polygon class="b" points="275 84.11 287.01 96.13 292.41 90.73 275 73.33 257.59 90.73 262.99 96.13 275 84.11"/><polygon class="c" points="275 64.66 287.01 76.67 292.41 71.28 275 53.87 257.59 71.28 262.99 76.67 275 64.66"/><path class="b" d="M222,119.5h2l4,5.5-4,5.5h-2l3.69-5.5Z"/><path d="M272,119.5h2l4,5.5-4,5.5h-2l3.69-5.5Z"/><path class="d" d="M372,119.5h2l4,5.5-4,5.5h-2l3.69-5.5Z"/><path class="e" d="M322,119.5h2l4,5.5-4,5.5h-2l3.69-5.5Z"/><rect class="b" x="323.82" y="19.11" width="2.36" height="11.78" transform="translate(77.5 237.12) rotate(-45)"/><rect class="b" x="319.11" y="23.82" width="11.78" height="2.36" transform="translate(77.5 237.12) rotate(-45)"/><rect class="b" x="273.5" y="17.5" width="3" height="15"/><rect class="b" x="267.5" y="23.5" width="15" height="3"/><polygon class="b" points="119 117 119 133 131 125 119 117"/><polygon class="b" points="31 117 31 133 19 125 31 117"/><polygon class="b" points="83 131 67 131 75 119 83 131"/><polygon class="b" points="167 119 183 119 175 131 167 119"/><path class="b" d="M117,21v8h3.52L126,32V18l-5.51,3Zm11.2.68L126.88,23a2.59,2.59,0,0,1,.9,2,2.63,2.63,0,0,1-.9,2l1.34,1.33a4.9,4.9,0,0,0,0-6.66Zm2.55-2.54-1.41,1.41a6.73,6.73,0,0,1,0,8.9l1.41,1.41a8.7,8.7,0,0,0,0-11.72Z"/><polygon class="b" points="171 21 167.49 21 167.49 29 171.02 29 176.5 32 176.5 18 171 21"/><path class="b" d="M25,71.68A3.32,3.32,0,1,0,28.32,75,3.32,3.32,0,0,0,25,71.68Zm12,4.49V73.82l-3.4-1.26a8.65,8.65,0,0,0-.82-2l1.53-3.27-1.66-1.65-3.26,1.53a8.21,8.21,0,0,0-1.95-.82L26.17,63H23.83l-1.27,3.4a8.21,8.21,0,0,0-1.95.82l-3.26-1.53-1.66,1.65,1.53,3.27a8.65,8.65,0,0,0-.82,2L13,73.82v2.35l3.4,1.27a8.65,8.65,0,0,0,.82,2l-1.53,3.27,1.66,1.65,3.26-1.53a8.21,8.21,0,0,0,1.95.82L23.83,87h2.34l1.27-3.4a8.21,8.21,0,0,0,1.95-.82l3.26,1.53,1.66-1.65-1.53-3.27a8.65,8.65,0,0,0,.82-2ZM25,80.36A5.36,5.36,0,1,1,30.36,75,5.36,5.36,0,0,1,25,80.36Z"/><rect class="b" x="320" y="74" width="10" height="2"/><polygon class="b" points="424.68 129.5 416 121.97 416.44 120.51 424.69 127.68 433.59 120.5 434 121.98 424.68 129.5"/><polygon points="474.68 129.5 466 121.97 466.44 120.51 474.69 127.68 483.59 120.5 484 121.98 474.68 129.5"/><polygon class="b" points="575.32 120.5 584 128.03 583.56 129.49 575.31 122.32 566.41 129.5 566 128.02 575.32 120.5"/><polygon points="525.32 120.5 534 128.03 533.56 129.49 525.31 122.32 516.41 129.5 516 128.02 525.32 120.5"/><path class="b" d="M537.75,76.14a1.66,1.66,0,0,1-1.22.5,1.63,1.63,0,0,1-1.2-.49l-.39-.39V86.6a1.62,1.62,0,0,1-.48,1.17,1.57,1.57,0,0,1-1.18.49h-5V80.81a.84.84,0,0,0-.82-.83h-5a.79.79,0,0,0-.59.25.78.78,0,0,0-.24.58v7.45h-5a1.57,1.57,0,0,1-1.18-.49,1.62,1.62,0,0,1-.48-1.17V75.76l-.39.39a1.6,1.6,0,0,1-1.2.49,1.62,1.62,0,0,1-1.21-.5,1.71,1.71,0,0,1,0-2.42l11.49-11.49a1.89,1.89,0,0,1,2.54,0l11.49,11.49a1.73,1.73,0,0,1,0,2.42Z"/><polygon class="b" points="385.45 67.82 375 78.27 364.55 67.83 362.6 69.78 375 82.18 387.4 69.78 385.45 67.82"/><polygon class="b" points="437.4 80.22 425 67.82 412.6 80.22 414.55 82.17 425 71.73 435.45 82.17 437.4 80.22"/><polygon class="b" points="441.5 31.95 425 15.45 408.5 31.95 411.1 34.55 425 20.65 438.9 34.55 441.5 31.95"/><polygon class="b" points="388.9 15.45 375 29.35 361.1 15.45 358.5 18.05 375 34.55 375 34.55 391.5 18.05 388.9 15.45"/><polygon class="b" points="518.05 41.5 534.55 25 518.05 8.5 515.45 11.1 529.35 25 515.45 38.9 518.05 41.5"/><polygon class="b" points="484.55 38.9 470.64 25 484.55 11.1 481.95 8.5 465.45 25 465.45 25 481.95 41.5 484.55 38.9"/><path class="b" d="M565.5,13.5v20h16v-20Zm14.57,18.65H566.93V14.85h13.14Z"/><path class="b" d="M568.5,33.5v3h16v-20h-3v1.35h1.57v17.3H569.93V33.5Z"/><rect class="b" x="569.08" y="16.83" width="9.08" height="1.42"/><rect class="b" x="569.08" y="19.83" width="9.08" height="1.42"/><rect class="b" x="569.08" y="22.83" width="9.08" height="1.42"/><rect class="b" x="569.08" y="25.83" width="9.08" height="1.42"/><rect class="b" x="569.08" y="28.83" width="9.08" height="1.42"/><polygon class="b" points="625 14.99 628.25 21.58 635.52 22.64 630.26 27.77 631.5 35.01 625 31.59 618.5 35.01 619.74 27.77 614.48 22.64 621.75 21.58 625 14.99"/><path class="b" d="M477.85,68.46a6.64,6.64,0,1,0-.91,10.13,1.38,1.38,0,0,0,.38.71l3.76,3.76a1.4,1.4,0,0,0,2-2l-3.76-3.76a1.38,1.38,0,0,0-.71-.38,6.65,6.65,0,0,0-.74-8.48Zm-1.2,8.2a5,5,0,1,1,0-7,5,5,0,0,1,0,7Z"/><polygon class="b" points="34.83 13.65 15.17 25 34.83 36.35 34.83 13.65"/><polygon class="b" points="113.64 65.17 125 84.83 136.35 65.17 113.64 65.17"/><polygon class="b" points="186.35 84.83 175 65.17 163.65 84.83 186.35 84.83"/><polygon class="b" points="65.17 13.65 84.83 25 65.17 36.35 65.17 13.65"/><path class="b" d="M70.78,83.45H87.67v3.37H70.78Zm0-10.14H87.67v3.38H70.78Zm0-10.13H87.67v3.38H70.78Zm-5.07-1.69v6.76H64V63.18H62.33V61.49ZM64,75.37v1.32H67.4v1.69H62.33V74.53l3.38-1.59V71.62H62.33V69.93H67.4v3.86Zm3.38,4.7v8.44H62.33V86.82h3.38V85.13H62.33V83.45h3.38V81.76H62.33V80.07Z"/><g class="f"><path class="b" d="M583.44,80.38a4,4,0,0,0-2.92,1.24l-10.95-5.48a3.39,3.39,0,0,0,0-.64,3.32,3.32,0,0,0,0-.64l10.95-5.48a4,4,0,0,0,2.92,1.24,4.06,4.06,0,1,0-4.06-4.06,3.32,3.32,0,0,0,0,.64l-10.95,5.48a4,4,0,0,0-2.92-1.24,4.06,4.06,0,1,0,2.92,6.88l10.95,5.47a3.49,3.49,0,0,0,0,.65,4.06,4.06,0,1,0,4.06-4.06"/></g><path class="b" d="M632,111.63a12.3,12.3,0,0,0-7.4-2.13,10.31,10.31,0,0,0-5.71,1.5c-2.46,1.56-3.76,4.21-3.92,7.94h5.69a5.83,5.83,0,0,1,1-3.15,3.53,3.53,0,0,1,3.23-1.51,3.66,3.66,0,0,1,3.19,1.23,4.55,4.55,0,0,1,.88,2.72,4.18,4.18,0,0,1-1,2.38,5,5,0,0,1-1.14,1.17,25.6,25.6,0,0,0-4.44,3.57c-.79.92-.86,2.3-.93,4.28,0,.15,0,.44.54.44h4.43a.49.49,0,0,0,.54-.47,5.27,5.27,0,0,1,.24-1.51,4.63,4.63,0,0,1,1.69-2.06L630.5,125a17.49,17.49,0,0,0,3-2.72,7.2,7.2,0,0,0,1.45-4.31A7.28,7.28,0,0,0,632,111.63Zm-7.49,21.85a3.51,3.51,0,1,0-.2,7,3.37,3.37,0,0,0,3.68-3.38A3.41,3.41,0,0,0,624.55,133.48Z"/><path class="b" d="M614,64.38V85.62a.38.38,0,0,0,.38.38h21.24a.38.38,0,0,0,.38-.38V64.38a.38.38,0,0,0-.38-.38H614.38A.38.38,0,0,0,614,64.38Zm18.16,3.79-14,14a.2.2,0,0,1-.35-.14V68.27a.45.45,0,0,1,.45-.45H632A.21.21,0,0,1,632.16,68.17Z"/></svg>