<svg xmlns="http://www.w3.org/2000/svg" xmlns:xlink="http://www.w3.org/1999/xlink" viewBox="0 0 650 150"><defs><style>.a,.d,.e,.f,.i,.m{fill:none;}.b{fill:#e6333f;}.c{fill:#fff;}.d,.e,.m{stroke:#fff;}.d,.e,.f,.i,.m{stroke-linecap:round;}.d,.m{stroke-linejoin:round;}.d,.e,.f,.i{stroke-width:2px;}.e,.f,.i{stroke-miterlimit:10;}.f{stroke:#e6333f;}.g{opacity:0.5;}.h{clip-path:url(#a);}.i{stroke:#000;}.j{opacity:0.2;}.k{clip-path:url(#b);}.l{clip-path:url(#c);}.m{stroke-width:4.36px;}</style><clipPath id="a"><rect class="a" x="321.94" y="116.52" width="6.12" height="16.97"/></clipPath><clipPath id="b"><rect class="a" x="371.94" y="116.52" width="6.12" height="16.97"/></clipPath><clipPath id="c"><rect class="a" x="512.69" y="61.28" width="24.61" height="27.44"/></clipPath></defs><title>icon-set-11</title><path class="b" d="M37.64,25A12.64,12.64,0,1,1,25,12.36,12.64,12.64,0,0,1,37.64,25"/><path class="b" d="M37.64,75A12.64,12.64,0,1,1,25,62.36,12.64,12.64,0,0,1,37.64,75"/><path class="b" d="M87.64,75A12.64,12.64,0,1,1,75,62.36,12.64,12.64,0,0,1,87.64,75"/><path class="b" d="M125,87.64A12.64,12.64,0,1,1,137.64,75,12.64,12.64,0,0,1,125,87.64"/><path class="b" d="M175,87.64A12.64,12.64,0,1,1,187.64,75,12.64,12.64,0,0,1,175,87.64"/><path class="b" d="M225,87.64A12.64,12.64,0,1,1,237.64,75,12.64,12.64,0,0,1,225,87.64"/><path class="b" d="M87.64,25A12.64,12.64,0,1,1,75,12.36,12.64,12.64,0,0,1,87.64,25"/><path class="b" d="M137.64,25A12.64,12.64,0,1,1,125,12.36,12.64,12.64,0,0,1,137.64,25"/><path class="b" d="M187.64,25A12.64,12.64,0,1,1,175,12.36,12.64,12.64,0,0,1,187.64,25"/><path class="b" d="M284.91,25A9.91,9.91,0,1,1,275,15.09,9.91,9.91,0,0,1,284.91,25"/><path class="b" d="M34.91,125A9.91,9.91,0,1,1,25,115.09,9.91,9.91,0,0,1,34.91,125"/><path class="b" d="M84.91,125A9.91,9.91,0,1,1,75,115.09,9.91,9.91,0,0,1,84.91,125"/><path class="b" d="M134.91,125a9.91,9.91,0,1,1-9.91-9.91,9.91,9.91,0,0,1,9.91,9.91"/><path class="b" d="M184.91,125a9.91,9.91,0,1,1-9.91-9.91,9.91,9.91,0,0,1,9.91,9.91"/><path class="b" d="M334.91,25A9.91,9.91,0,1,1,325,15.09,9.91,9.91,0,0,1,334.91,25"/><path class="b" d="M334.91,75A9.91,9.91,0,1,1,325,65.09,9.91,9.91,0,0,1,334.91,75"/><path class="c" d="M67.49,70.5h15v-3h-15Zm0,6h15v-3h-15Zm0,6h15v-3h-15Z"/><path class="c" d="M125.38,17.08A1,1,0,0,0,125,17a1,1,0,0,0-.71.29L120.49,21H118a1,1,0,0,0-1,1v6a1,1,0,0,0,1,1h2.52l3.78,3.71A1,1,0,0,0,125,33a1,1,0,0,0,1-1V18a1,1,0,0,0-.62-.92m2.82,4.6L126.88,23a2.59,2.59,0,0,1,.9,2,2.63,2.63,0,0,1-.9,2l1.34,1.33a4.91,4.91,0,0,0,0-6.66m2.54-2.54-1.41,1.41a6.73,6.73,0,0,1,0,8.9l1.41,1.41a8.7,8.7,0,0,0,0-11.72"/><path class="c" d="M178.89,17.08a1.08,1.08,0,0,0-.38-.08,1,1,0,0,0-.71.29L174,21h-2.5a1,1,0,0,0-1,1v6a1,1,0,0,0,1,1H174l3.78,3.71a1,1,0,0,0,.71.29,1.08,1.08,0,0,0,.38-.08,1,1,0,0,0,.62-.92V18a1,1,0,0,0-.62-.92"/><path class="c" d="M32.89,73.33l-1.65-.1a6.35,6.35,0,0,0-.59-1.42l1.11-1.21a.82.82,0,0,0,0-1.16l-1.21-1.2a.81.81,0,0,0-1.15,0l-1.21,1.11a6.35,6.35,0,0,0-1.42-.59l-.1-1.65a.82.82,0,0,0-.82-.82h-1.7a.82.82,0,0,0-.82.82l-.1,1.65a6.35,6.35,0,0,0-1.42.59L20.6,68.24a.81.81,0,0,0-1.15,0l-1.21,1.2a.82.82,0,0,0,0,1.16l1.11,1.21a6.35,6.35,0,0,0-.59,1.42l-1.65.1a.81.81,0,0,0-.82.82v1.7a.82.82,0,0,0,.82.82l1.65.1a6.35,6.35,0,0,0,.59,1.42L18.24,79.4a.82.82,0,0,0,0,1.16l1.21,1.2a.81.81,0,0,0,1.15,0l1.21-1.11a6.35,6.35,0,0,0,1.42.59l.1,1.65a.82.82,0,0,0,.82.82h1.7a.82.82,0,0,0,.82-.82l.1-1.65a6.35,6.35,0,0,0,1.42-.59l1.21,1.11a.81.81,0,0,0,1.15,0l1.21-1.2a.82.82,0,0,0,0-1.16l-1.11-1.21a6.35,6.35,0,0,0,.59-1.42l1.65-.1a.82.82,0,0,0,.82-.82v-1.7a.82.82,0,0,0-.82-.82M25,78.89A3.89,3.89,0,1,1,28.89,75,3.89,3.89,0,0,1,25,78.89m0-6.3A2.41,2.41,0,1,0,27.41,75,2.41,2.41,0,0,0,25,72.59"/><path class="c" d="M24.24,25l5.58-5.55a1.42,1.42,0,0,0,0-2l-.51-.51a1.46,1.46,0,0,0-2,0l-6.56,6.54,0,0-.5.51a1.34,1.34,0,0,0-.42,1,1.36,1.36,0,0,0,.42,1l.5.5,0,0,6.56,6.54a1.44,1.44,0,0,0,2,0l.51-.5a1.44,1.44,0,0,0,0-2Z"/><path class="c" d="M75.76,25l-5.58,5.55a1.42,1.42,0,0,0,0,2l.51.51a1.44,1.44,0,0,0,2,0l6.56-6.54,0,0,.5-.5a1.45,1.45,0,0,0,0-2l-.5-.5,0,0-6.56-6.54a1.46,1.46,0,0,0-2,0l-.51.51a1.42,1.42,0,0,0,0,2Z"/><path class="c" d="M125.58,125l-4.27,4.25a1.08,1.08,0,0,0,0,1.54l.39.39a1.11,1.11,0,0,0,1.55,0l5-5,0,0,.39-.38a1.11,1.11,0,0,0,0-1.56l-.39-.38,0,0-5-5a1.11,1.11,0,0,0-1.55,0l-.39.39a1.09,1.09,0,0,0,0,1.55Z"/><path class="c" d="M24.42,125l4.27-4.24a1.09,1.09,0,0,0,0-1.55l-.39-.39a1.11,1.11,0,0,0-1.55,0l-5,5,0,0-.39.38a1.11,1.11,0,0,0,0,1.56l.39.38,0,0,5,5a1.11,1.11,0,0,0,1.55,0l.39-.39a1.09,1.09,0,0,0,0-1.55Z"/><path class="c" d="M125,75.76l-5.55-5.58a1.42,1.42,0,0,0-2,0l-.51.51a1.44,1.44,0,0,0,0,2l6.54,6.56s0,0,0,0l.5.5a1.45,1.45,0,0,0,2,0l.5-.5s0,0,0,0l6.54-6.56a1.46,1.46,0,0,0,0-2l-.51-.51a1.42,1.42,0,0,0-2,0Z"/><path class="c" d="M425,71.71l9.67,9.69a1.08,1.08,0,0,0,1.54,0l.39-.39a1.09,1.09,0,0,0,0-1.55L426.18,69a0,0,0,0,1,0,0l-.39-.4a1.08,1.08,0,0,0-.78-.31,1,1,0,0,0-.78.32l-.38.39s0,0,0,0L413.4,79.46a1.09,1.09,0,0,0,0,1.55l.38.39a1.09,1.09,0,0,0,1.55,0Z"/><path class="c" d="M375,78.29l-9.67-9.69a1.08,1.08,0,0,0-1.54,0l-.39.39a1.09,1.09,0,0,0,0,1.55L373.82,81a0,0,0,0,1,0,0l.39.39a1.11,1.11,0,0,0,1.56,0l.38-.39s0,0,0,0L386.6,70.54a1.09,1.09,0,0,0,0-1.55l-.38-.39a1.09,1.09,0,0,0-1.55,0Z"/><path class="c" d="M175,74.24l5.55,5.58a1.42,1.42,0,0,0,2,0l.51-.51a1.44,1.44,0,0,0,0-2l-6.54-6.56s0,0,0,0l-.5-.5a1.37,1.37,0,0,0-1-.42,1.36,1.36,0,0,0-1,.42l-.5.5s0,0,0,0l-6.54,6.56a1.44,1.44,0,0,0,0,2l.51.51a1.42,1.42,0,0,0,2,0Z"/><path class="c" d="M225,72.67l-4.91-4.93a1.26,1.26,0,0,0-1.79,0l-.44.45a1.27,1.27,0,0,0,0,1.79l5.78,5.81v0l.45.44a1.23,1.23,0,0,0,.9.37,1.22,1.22,0,0,0,.9-.37l.44-.44,0,0L232.14,70a1.27,1.27,0,0,0,0-1.79l-.44-.45a1.26,1.26,0,0,0-1.79,0Z"/><path class="c" d="M225,81.21l-4.91-4.93a1.26,1.26,0,0,0-1.79,0l-.44.45a1.27,1.27,0,0,0,0,1.79l5.78,5.81s0,0,0,0l.45.45a1.27,1.27,0,0,0,.9.37,1.26,1.26,0,0,0,.9-.37l.44-.45,0,0,5.77-5.81a1.27,1.27,0,0,0,0-1.79l-.44-.45a1.26,1.26,0,0,0-1.79,0Z"/><path class="b" d="M275,62.36A12.64,12.64,0,1,1,262.36,75,12.64,12.64,0,0,1,275,62.36"/><path class="c" d="M275,78.64l4.91,4.93a1.26,1.26,0,0,0,1.78,0l.45-.45a1.29,1.29,0,0,0,0-1.8l-5.78-5.8,0,0-.45-.45a1.23,1.23,0,0,0-.89-.37,1.26,1.26,0,0,0-.9.37l-.44.45s0,0,0,0l-5.77,5.8a1.29,1.29,0,0,0,0,1.8l.44.45a1.27,1.27,0,0,0,1.79,0Z"/><path class="c" d="M275,70.33l4.91,4.93a1.24,1.24,0,0,0,1.78,0l.45-.45a1.27,1.27,0,0,0,0-1.79l-5.78-5.81,0,0-.45-.45a1.22,1.22,0,0,0-.89-.36,1.25,1.25,0,0,0-.9.36l-.44.45s0,0,0,0L267.86,73a1.27,1.27,0,0,0,0,1.79l.44.45a1.26,1.26,0,0,0,1.79,0Z"/><path class="b" d="M227.6,25a2.6,2.6,0,1,1-2.6-2.6,2.59,2.59,0,0,1,2.6,2.6"/><path class="b" d="M237.6,25a2.6,2.6,0,1,1-2.6-2.6,2.59,2.59,0,0,1,2.6,2.6"/><path class="b" d="M217.6,25a2.6,2.6,0,1,1-2.6-2.6,2.59,2.59,0,0,1,2.6,2.6"/><path class="c" d="M327.48,25l2.69-2.69a1.46,1.46,0,0,0,0-2l-.43-.43a1.46,1.46,0,0,0-2.05,0L325,22.52l-2.69-2.69a1.46,1.46,0,0,0-2.05,0l-.43.43a1.46,1.46,0,0,0,0,2L322.52,25l-2.69,2.69a1.46,1.46,0,0,0,0,2l.43.43a1.46,1.46,0,0,0,2.05,0L325,27.48l2.69,2.69a1.46,1.46,0,0,0,2.05,0l.43-.43a1.46,1.46,0,0,0,0-2Z"/><path class="c" d="M331.5,75.05a1.71,1.71,0,0,1-1.7,1.7h-9.6a1.7,1.7,0,0,1-1.7-1.7V75a1.71,1.71,0,0,1,1.7-1.7h9.6a1.7,1.7,0,0,1,1.7,1.7Z"/><path class="c" d="M279.94,27H277v2.92a2,2,0,1,1-4,0V27h-2.93a2,2,0,0,1,0-4H273V20.06a2,2,0,1,1,4,0V23h2.93a2,2,0,0,1,0,4"/><path class="b" d="M580.07,78a3,3,0,0,0-1.85.63l-5.29-3.17a4,4,0,0,0,0-.5,4.21,4.21,0,0,0,0-.5l5.29-3.17A3,3,0,1,0,577,68.92a4.21,4.21,0,0,0,0,.5l-5.29,3.17A3,3,0,1,0,569.93,78a3,3,0,0,0,1.85-.63l5.29,3.18a3.89,3.89,0,0,0,0,.49,3,3,0,1,0,3-3"/><path class="c" d="M75,124.42l4.24,4.27a1.09,1.09,0,0,0,1.55,0l.38-.39a1.09,1.09,0,0,0,0-1.55l-5-5,0,0-.39-.39A1.05,1.05,0,0,0,75,121a1.09,1.09,0,0,0-.78.32l-.38.39,0,0-5,5a1.11,1.11,0,0,0,0,1.55l.39.39a1.08,1.08,0,0,0,1.54,0Z"/><path class="c" d="M175,125.58l-4.25-4.27a1.08,1.08,0,0,0-1.54,0l-.39.39a1.11,1.11,0,0,0,0,1.55l5,5,0,0,.38.39a1.11,1.11,0,0,0,1.56,0l.38-.39,0,0,5-5a1.09,1.09,0,0,0,0-1.55l-.38-.39a1.09,1.09,0,0,0-1.55,0Z"/><path class="c" d="M425,20.45l13.38,13.41a1.51,1.51,0,0,0,2.14,0l.53-.54a1.51,1.51,0,0,0,0-2.15L426.63,16.71s0,0,0,0l-.53-.54a1.55,1.55,0,0,0-2.16,0l-.53.54,0,0L408.94,31.17a1.53,1.53,0,0,0,0,2.15l.54.54a1.51,1.51,0,0,0,2.14,0Z"/><path class="c" d="M375,29.55,361.62,16.14a1.51,1.51,0,0,0-2.14,0l-.54.54a1.53,1.53,0,0,0,0,2.15l14.43,14.46,0,0,.53.54a1.52,1.52,0,0,0,2.16,0l.53-.54s0,0,0,0l14.42-14.46a1.53,1.53,0,0,0,0-2.15l-.54-.54a1.51,1.51,0,0,0-2.14,0Z"/><path class="c" d="M529.55,25,516.14,38.38a1.51,1.51,0,0,0,0,2.14l.54.54a1.53,1.53,0,0,0,2.15,0l14.46-14.43,0,0,.54-.53a1.55,1.55,0,0,0,0-2.16l-.54-.53s0,0,0,0L518.83,8.94a1.53,1.53,0,0,0-2.15,0l-.54.54a1.51,1.51,0,0,0,0,2.14Z"/><path class="c" d="M470.45,25l13.41-13.38a1.51,1.51,0,0,0,0-2.14L483.32,9a1.51,1.51,0,0,0-2.15,0L466.71,23.37l0,0-.54.53a1.55,1.55,0,0,0,0,2.16l.54.53,0,0,14.46,14.42a1.53,1.53,0,0,0,2.15,0l.54-.54a1.51,1.51,0,0,0,0-2.14Z"/><path class="d" d="M624.56,15.81c.24-.5.64-.5.88,0l2.37,4.79a2.15,2.15,0,0,0,1.43,1l5.29.77c.55.08.67.46.28.84L631,27a2.08,2.08,0,0,0-.55,1.68l.9,5.27c.1.54-.23.77-.71.52L625.89,32a2.13,2.13,0,0,0-1.78,0l-4.73,2.49c-.48.25-.81,0-.71-.52l.9-5.27A2.12,2.12,0,0,0,619,27l-3.83-3.74c-.39-.38-.27-.76.28-.84l5.29-.77a2.15,2.15,0,0,0,1.43-1Z"/><polyline class="e" points="416.11 121.38 424.49 128.62 433.89 121.38"/><polyline class="f" points="466.11 121.38 474.48 128.62 483.89 121.38"/><polyline class="e" points="583.89 128.62 575.52 121.38 566.11 128.62"/><polyline class="f" points="533.89 128.62 525.51 121.38 516.11 128.62"/><polyline class="e" points="223.01 132.48 226.99 125.43 223.01 117.52"/><polyline class="f" points="273.01 132.48 276.99 125.43 273.01 117.52"/><g class="g"><g class="h"><polyline class="i" points="322.94 132.48 326.93 125.43 322.94 117.52"/></g></g><g class="j"><g class="k"><polyline class="i" points="372.94 132.48 376.93 125.43 372.94 117.52"/></g></g><g class="l"><path class="b" d="M534.53,88.72H526.1V80.78a2.42,2.42,0,0,0-4.84,0v7.94h-5.79a2.79,2.79,0,0,1-2.78-2.78V72.85a2.76,2.76,0,0,1,.9-2L523.12,62a2.76,2.76,0,0,1,3.76,0l9.53,8.79a2.77,2.77,0,0,1,.89,2V85.94a2.77,2.77,0,0,1-2.77,2.78m-6.91-1.52h6.91a1.26,1.26,0,0,0,1.25-1.26V72.85a1.24,1.24,0,0,0-.4-.92l-9.53-8.79a1.28,1.28,0,0,0-1.7,0l-9.53,8.79a1.28,1.28,0,0,0-.4.92V85.94a1.26,1.26,0,0,0,1.25,1.26h4.26V80.78a4,4,0,0,1,7.9,0V87.2Z"/></g><path class="c" d="M577,19.43h-4a.76.76,0,0,1-.76-.76V14.74a.76.76,0,0,1,1.29-.54l4,3.93a.76.76,0,0,1-.53,1.3m-3.24-1.52h1.38l-1.38-1.36Z"/><path class="c" d="M581.63,36.67h-13.2a2.11,2.11,0,0,1-2.19-2.15V15.45a2.25,2.25,0,0,1,2.24-2.12H579a.76.76,0,0,1,0,1.52H568.48a.74.74,0,0,0-.72.71v19a.59.59,0,0,0,.67.63h13.2a.63.63,0,0,0,.48-.14.65.65,0,0,0,.13-.36V18a.76.76,0,1,1,1.52,0v16.6a2.1,2.1,0,0,1-.56,1.45,2.08,2.08,0,0,1-1.57.6"/><path class="c" d="M580.23,26.61H570.14a.76.76,0,1,1,0-1.52h10.09a.76.76,0,0,1,0,1.52"/><path class="c" d="M580.23,23.56H570.14a.76.76,0,1,1,0-1.52h10.09a.76.76,0,0,1,0,1.52"/><path class="c" d="M580.23,29.67H570.14a.76.76,0,1,1,0-1.52h10.09a.76.76,0,0,1,0,1.52"/><path class="c" d="M580.23,32.72H570.14a.76.76,0,1,1,0-1.52h10.09a.76.76,0,0,1,0,1.52"/><path class="c" d="M630.86,114.05a10.34,10.34,0,0,0-6.16-1.77,8.59,8.59,0,0,0-4.75,1.25q-3.06,1.95-3.26,6.61h4.73a4.84,4.84,0,0,1,.8-2.62,2.92,2.92,0,0,1,2.69-1.26,3.08,3.08,0,0,1,2.66,1,3.88,3.88,0,0,1,.72,2.27,3.5,3.5,0,0,1-.79,2,4.34,4.34,0,0,1-1,1,21.15,21.15,0,0,0-3.7,3c-.65.76-.71,1.91-.77,3.57,0,.11,0,.35.45.35h3.69a.4.4,0,0,0,.44-.38,4.47,4.47,0,0,1,.21-1.26,4,4,0,0,1,1.4-1.72l1.3-.9a13.62,13.62,0,0,0,2.53-2.26,6,6,0,0,0,1.21-3.58A6,6,0,0,0,630.86,114.05Zm-6.23,18.18a2.86,2.86,0,0,0-3,2.86,3,3,0,1,0,3-2.86Z"/><circle class="m" cx="471.57" cy="71.14" r="7.29"/><path class="m" d="M476.29,76.71c4.54,4.65,5.35,4.66,9.43,9.43"/><path class="b" d="M614,64.38V85.62a.38.38,0,0,0,.38.38h21.24a.38.38,0,0,0,.38-.38V64.38a.38.38,0,0,0-.38-.38H614.38A.38.38,0,0,0,614,64.38Zm18.16,3.79-14,14a.2.2,0,0,1-.35-.14V68.27a.45.45,0,0,1,.45-.45H632A.21.21,0,0,1,632.16,68.17Z"/></svg>