<svg xmlns="http://www.w3.org/2000/svg" xmlns:xlink="http://www.w3.org/1999/xlink" viewBox="0 0 650 50"><defs><style>.cls-1,.cls-2{fill:none;}.cls-1{clip-rule:evenodd;}.cls-3{fill:#1da1f2;}.cls-4{fill:#0680ab;}.cls-5,.cls-9{fill:#fff;}.cls-6{fill:#00abc8;}.cls-7{fill:#25d366;}.cls-8{fill:#005a5f;}.cls-9{fill-rule:evenodd;}.cls-10{fill:#3e5193;}.cls-11{fill:#dd4b39;}.cls-12{clip-path:url(#clip-path);}.cls-13{clip-path:url(#clip-path-2);}.cls-14{clip-path:url(#clip-path-3);}</style><clipPath id="clip-path"><path class="cls-1" d="M127.24,26.18a5.41,5.41,0,0,1-5.68,4.75,5.93,5.93,0,1,1,0-11.86,5.71,5.71,0,0,1,4,1.55l-1.72,1.7a3.17,3.17,0,0,0-2.3-.89A3.58,3.58,0,0,0,118,25a3.54,3.54,0,0,0,3.52,3.53,3,3,0,0,0,3.22-2.35h-3.22V23.8h5.66a6.9,6.9,0,0,1,.1,1.2A7.76,7.76,0,0,1,127.24,26.18Z"/></clipPath><clipPath id="clip-path-2"><rect class="cls-2" x="106.18" y="6.69" width="36.67" height="36.67"/></clipPath><clipPath id="clip-path-3"><polygon class="cls-1" points="134.42 25.44 132.33 25.44 132.33 27.52 130.84 27.52 130.84 25.44 128.74 25.44 128.74 23.96 130.84 23.96 130.84 21.89 132.33 21.89 132.33 23.96 134.42 23.96 134.42 25.44"/></clipPath></defs><title>-</title><g id="layer-set-4"><path class="cls-3" d="M87.07,17.51a9.86,9.86,0,0,1-2.85.78,5,5,0,0,0,2.18-2.74,9.9,9.9,0,0,1-3.15,1.2,5,5,0,0,0-8.44,4.52A14.08,14.08,0,0,1,64.61,16.1a5,5,0,0,0,1.53,6.61,5,5,0,0,1-2.24-.62s0,0,0,.06a5,5,0,0,0,4,4.86,5,5,0,0,1-2.24.08,5,5,0,0,0,4.63,3.44,9.94,9.94,0,0,1-6.15,2.12,10.26,10.26,0,0,1-1.18-.07A14.09,14.09,0,0,0,84.61,20.72c0-.21,0-.43,0-.64a10,10,0,0,0,2.47-2.56Z"/><path class="cls-4" d="M187,35a2,2,0,0,1-2,2H165a2,2,0,0,1-2-2V15a2,2,0,0,1,2-2h20a2,2,0,0,1,2,2Z"/><path class="cls-5" d="M168.62,20.71a1.88,1.88,0,1,0-2-1.87,1.88,1.88,0,0,0,2,1.87ZM170.42,33V22.19h-3.6V33Z"/><path class="cls-5" d="M172.41,33H176V27a2.49,2.49,0,0,1,.12-.88A2,2,0,0,1,178,24.78c1.3,0,1.82,1,1.82,2.45V33h3.6V26.81c0-3.33-1.77-4.87-4.15-4.87A3.59,3.59,0,0,0,176,23.76h0V22.19h-3.6c0,1,0,10.83,0,10.83Z"/><path class="cls-6" d="M237,35a2,2,0,0,1-2,2H215a2,2,0,0,1-2-2V15a2,2,0,0,1,2-2h20a2,2,0,0,1,2,2Z"/><path class="cls-5" d="M217.06,20.41l7.08,3.92a1.81,1.81,0,0,0,.85.19,1.77,1.77,0,0,0,.85-.2l7.08-3.92c.46-.26.9-1.06.05-1.06H217C216.16,19.35,216.6,20.15,217.06,20.41Zm16.07,1.95-7.28,3.92a2,2,0,0,1-1.71,0l-7.28-3.92c-.37-.2-.37,0-.37.21v7.14a1.12,1.12,0,0,0,.94.94h15.13a1.12,1.12,0,0,0,.94-.93V22.57C233.5,22.39,233.5,22.16,233.13,22.36Z"/><path class="cls-7" d="M287,35a2,2,0,0,1-2,2H265a2,2,0,0,1-2-2V15a2,2,0,0,1,2-2h20a2,2,0,0,1,2,2Z"/><path class="cls-8" d="M337,35a2,2,0,0,1-2,2H315a2,2,0,0,1-2-2V15a2,2,0,0,1,2-2h20a2,2,0,0,1,2,2Z"/><path class="cls-9" d="M280.79,19.17A8.14,8.14,0,0,0,268,29l-1.15,4.22,4.31-1.13a8.13,8.13,0,0,0,3.89,1h0a8.14,8.14,0,0,0,5.76-13.9M275,31.7h0a6.75,6.75,0,0,1-3.44-.94l-.25-.15-2.56.67.68-2.5-.16-.26A6.76,6.76,0,1,1,275,31.7m3.71-5.07c-.2-.1-1.2-.59-1.39-.66s-.32-.1-.46.1-.52.66-.64.8-.24.15-.44.05a5.6,5.6,0,0,1-1.64-1A6.13,6.13,0,0,1,273,24.5c-.12-.2,0-.31.09-.41s.2-.24.3-.36a1.42,1.42,0,0,0,.2-.34.37.37,0,0,0,0-.36c-.05-.1-.46-1.1-.63-1.51s-.33-.34-.46-.35h-.39a.75.75,0,0,0-.54.25,2.28,2.28,0,0,0-.71,1.7,4,4,0,0,0,.83,2.1,9.07,9.07,0,0,0,3.47,3.07,11.93,11.93,0,0,0,1.16.43,2.81,2.81,0,0,0,1.28.08,2.1,2.1,0,0,0,1.37-1,1.7,1.7,0,0,0,.12-1c-.05-.09-.19-.14-.39-.24"/><path id="path19359" class="cls-5" d="M319.27,20a.36.36,0,0,0-.32.15.37.37,0,0,0,0,.36l1.6,2.78a0,0,0,0,1,0,0L318,27.77a.37.37,0,0,0,0,.36.35.35,0,0,0,.31.16h2.37a.73.73,0,0,0,.65-.46l2.56-4.53-1.63-2.84a.73.73,0,0,0-.66-.44Z"/><path id="path19375" class="cls-5" d="M329.24,16.77a.7.7,0,0,0-.64.45l-5.28,9.36,3.37,6.18a.74.74,0,0,0,.66.45h2.37a.35.35,0,0,0,.31-.15.37.37,0,0,0,0-.37L326.7,26.6a0,0,0,0,1,0,0l5.25-9.29a.37.37,0,0,0,0-.37.35.35,0,0,0-.32-.15Z"/><path class="cls-10" d="M37,35a2,2,0,0,1-2,2H15a2,2,0,0,1-2-2V15a2,2,0,0,1,2-2H35a2,2,0,0,1,2,2Z"/><path id="f" class="cls-5" d="M29.57,37V27.72h3.11l.47-3.62H29.57V21.8c0-1,.29-1.76,1.79-1.76h1.91V16.8a25.63,25.63,0,0,0-2.79-.14c-2.76,0-4.65,1.68-4.65,4.78v2.67H22.72v3.62h3.12V37Z"/><path class="cls-11" d="M137,35a2,2,0,0,1-2,2H115a2,2,0,0,1-2-2V15a2,2,0,0,1,2-2h20a2,2,0,0,1,2,2Z"/><g class="cls-12"><g class="cls-13"><rect class="cls-5" x="110.99" y="14.49" width="20.92" height="21.03"/></g></g><g class="cls-14"><g class="cls-13"><rect class="cls-5" x="124.16" y="17.3" width="14.85" height="14.8"/></g></g></g></svg>