<svg xmlns="http://www.w3.org/2000/svg" viewBox="0 0 650 150"><defs><style>.a,.c{fill:none;stroke-miterlimit:10;}.a{stroke:#000;}.b{opacity:0.5;}.c{stroke:#fff;}.d{opacity:0.2;}</style></defs><title>icon-set-17</title><polyline class="a" points="30.1 14.8 19.9 25 30.1 35.2"/><polyline class="a" points="69.9 35.2 80.1 25 69.9 14.8"/><polyline class="a" points="114.8 69.9 125 80.1 135.2 69.9"/><polyline class="a" points="185.2 80.1 175 69.9 164.8 80.1"/><polygon class="a" points="161 25 161 19 167 19 176 10 176 25 176 40 167 31 161 31 161 25"/><line class="a" x1="180" y1="20.5" x2="189" y2="29.5"/><line class="a" x1="180" y1="29.5" x2="189" y2="20.5"/><polygon class="a" points="110.5 25 110.5 19 116.5 19 125.5 10 125.5 25 125.5 40 116.5 31 110.5 31 110.5 25"/><path class="a" d="M129.5,30a5,5,0,0,0,0-10"/><path class="a" d="M129.5,15a10,10,0,0,1,0,20"/><polygon class="a" points="25 59.5 22 59.5 22 64 19 65 16 62 12 66 15 69 14 72 9.5 72 9.5 78 14 78 15 81 12 84 16 88 19 85 22 86 22 90.5 25 90.5 28 90.5 28 86 31 85 34 88 38 84 35 81 36 78 40.5 78 40.5 72 36 72 35 69 38 66 34 62 31 65 28 64 28 59.5 25 59.5"/><circle class="a" cx="25" cy="75" r="3"/><polygon class="a" points="525 60 510 75 514.5 75 514.5 90 520.5 90 520.5 82 528.5 82 528.5 90 534.5 90 534.5 75 540 75 525 60"/><path class="a" d="M636,114A15.5,15.5,0,1,1,614,114,15.51,15.51,0,0,1,636,114Z"/><line class="a" x1="624" y1="130.5" x2="624" y2="132.5"/><path class="a" d="M621,119.5c0-1.5,1-2.5,4-2.5,2.5,0,4,1.5,4,3.5s-3,3.5-3,3.5a4.33,4.33,0,0,0-2,4v.5"/><circle class="a" cx="584.5" cy="65.5" r="6"/><circle class="a" cx="564.5" cy="80" r="5"/><circle class="a" cx="583" cy="86.5" r="4"/><line class="a" x1="579" y1="86" x2="569" y2="82"/><line class="a" x1="568.5" y1="76.5" x2="579.5" y2="69.5"/><polygon class="a" points="625 32.75 615 40.25 619 28.25 610 21.25 621 21.25 625 9.75 629 21.25 640 21.25 631 28.25 635 40.25 625 32.75"/><rect class="a" x="559.5" y="16.5" width="27" height="21"/><polyline class="a" points="564.5 15 564.5 12.5 590.5 12.5 590.5 34 588 34"/><line class="a" x1="559.5" y1="20.5" x2="586.5" y2="20.5"/><line class="a" x1="564" y1="18.5" x2="562" y2="18.5"/><line class="a" x1="568" y1="18.5" x2="566" y2="18.5"/><line class="a" x1="572" y1="18.5" x2="570" y2="18.5"/><line class="a" x1="63" y1="75.05" x2="87" y2="75.05"/><line class="a" x1="63" y1="65.05" x2="87" y2="65.05"/><line class="a" x1="63" y1="84.95" x2="87" y2="84.95"/><line class="a" x1="275" y1="31.75" x2="275" y2="18.25"/><line class="a" x1="268.25" y1="25" x2="281.75" y2="25"/><line class="a" x1="318.25" y1="75.07" x2="331.75" y2="75.07"/><polyline class="a" points="235.2 69.9 225 80.1 214.8 69.9"/><polyline class="a" points="235.2 69.9 225 80.1 214.8 69.9"/><polyline class="a" points="264.8 80.1 275 69.9 285.2 80.1"/><polyline class="a" points="264.8 80.1 275 69.9 285.2 80.1"/><polygon class="a" points="479.62 128.36 475 121.64 470.38 128.36 479.62 128.36"/><polygon class="a" points="420.38 121.64 425 128.36 429.62 121.64 420.38 121.64"/><g class="b"><polygon class="a" points="579.62 128.36 575 121.64 570.38 128.36 579.62 128.36"/></g><g class="b"><polygon class="a" points="520.38 121.64 525 128.36 529.62 121.64 520.38 121.64"/></g><line class="a" x1="320.11" y1="20.35" x2="329.89" y2="30.06"/><line class="a" x1="320.14" y1="30.1" x2="329.86" y2="20.31"/><polyline class="a" points="81.38 128.19 75 121.81 68.63 128.19"/><polyline class="a" points="28.19 118.63 21.81 125 28.19 131.38"/><polyline class="a" points="168.63 121.81 175 128.19 181.38 121.81"/><polyline class="a" points="121.81 131.38 128.19 125 121.81 118.63"/><path class="a" d="M211.22,20.67A4.33,4.33,0,1,0,215.55,25,4.33,4.33,0,0,0,211.22,20.67Zm13.78,0A4.33,4.33,0,1,0,229.33,25,4.33,4.33,0,0,0,225,20.67Zm13.78,0A4.33,4.33,0,1,0,243.11,25,4.33,4.33,0,0,0,238.78,20.67Z"/><polygon class="a" points="383.5 20.75 375 29.25 366.5 20.75 383.5 20.75"/><polygon class="a" points="416.5 29.25 425 20.75 433.5 29.25 416.5 29.25"/><polygon class="a" points="479.25 33.5 470.75 25 479.25 16.5 479.25 33.5"/><polygon class="a" points="520.75 16.5 529.25 25 520.75 33.5 520.75 16.5"/><polyline class="a" points="366.5 70.75 375 79.25 383.5 70.75"/><polyline class="a" points="433.5 79.25 425 70.75 416.5 79.25"/><line class="a" x1="465.25" y1="69.64" x2="474.03" y2="69.64"/><line class="a" x1="469.64" y1="65.25" x2="469.64" y2="74.03"/><path class="a" d="M469.64,59.89a9.75,9.75,0,1,1-9.75,9.75A9.75,9.75,0,0,1,469.64,59.89Z"/><line class="a" x1="476.46" y1="76.46" x2="479.38" y2="79.39"/><rect class="a" x="481.95" y="77.47" width="4.14" height="13.09" transform="translate(82.36 366.86) rotate(-45)"/><polygon class="a" points="221.64 120.38 228.36 125 221.64 129.62 221.64 120.38"/><polygon class="c" points="271.64 129.62 278.36 125 271.64 120.38 271.64 129.62"/><g class="d"><polygon class="a" points="371.64 120.38 378.36 125 371.64 129.62 371.64 120.38"/></g><g class="b"><polygon class="a" points="321.64 129.69 328.36 125.07 321.64 120.45 321.64 129.69"/></g><path d="M636.1,86H613.9a.9.9,0,0,1-.9-.9V62.9a.9.9,0,0,1,.9-.9h22.2a.9.9,0,0,1,.9.9V85.1A.9.9,0,0,1,636.1,86ZM614,85h22V63H614Zm3.67-2.92a.81.81,0,0,1-.27,0,.71.71,0,0,1-.44-.66V67a1,1,0,0,1,1-1h14.41a.72.72,0,0,1,.51,1.22L618.17,81.87A.69.69,0,0,1,617.67,82.08ZM617.92,67l0,13.69L631.64,67Z"/></svg>