<svg xmlns="http://www.w3.org/2000/svg" viewBox="0 0 650 150"><defs><style>.a,.b,.c,.d{fill:none;stroke:#fff;stroke-linecap:round;stroke-linejoin:round;}.a{stroke-width:3px;}.b{stroke-width:4.36px;}.c{stroke-width:2px;}.e{fill:#fff;}.f{opacity:0.2;}.f,.g{isolation:isolate;}.g{opacity:0.5;}</style></defs><title>icon-set-5</title><path class="a" d="M517.18,39.21c2.77-2.82,14.07-10.82,17.06-13.5-7-5.63-11.37-10-18.48-14.92"/><path class="a" d="M482.82,39.21c-2.77-2.82-14.07-10.82-17.06-13.5,7-5.63,11.37-10,18.48-14.92"/><path class="a" d="M410.79,32.82c2.82-2.77,10.82-14.07,13.5-17.06,5.63,7,9.95,11.37,14.92,18.48"/><path class="a" d="M360.79,17.18c2.83,2.77,10.82,14.07,13.5,17.06,5.63-7,9.95-11.37,14.92-18.48"/><path class="a" d="M410.79,82.82c2.82-2.77,10.82-14.07,13.5-17.06,5.63,7,9.95,11.37,14.92,18.48"/><path class="a" d="M267.82,79c1.43-1.4,5.47-7.11,6.82-8.62,2.85,3.53,5,5.75,7.54,9.34"/><path class="a" d="M167.82,79c1.43-1.4,5.47-7.11,6.82-8.62,2.84,3.53,5,5.75,7.54,9.34"/><path class="a" d="M117.82,71.05c1.43,1.4,5.47,7.11,6.82,8.62,2.84-3.53,5-5.75,7.54-9.34"/><path class="a" d="M29,17.82c-1.4,1.43-7.11,5.47-8.62,6.82,3.53,2.84,5.75,5,9.34,7.54"/><path class="a" d="M28.31,119c-1.17,1.19-5.95,4.57-7.22,5.71,3,2.38,4.81,4.21,7.82,6.31"/><path class="a" d="M81,128.31c-1.2-1.17-4.58-6-5.71-7.22-2.38,3-4.21,4.81-6.31,7.82"/><path class="a" d="M121.69,119c1.17,1.2,6,4.57,7.22,5.71-3,2.38-4.81,4.21-7.82,6.31"/><path class="a" d="M181,121.69c-1.19,1.17-4.58,6-5.71,7.22-2.38-3-4.21-4.81-6.31-7.82"/><path class="a" d="M71.05,17.82c1.4,1.43,7.11,5.47,8.62,6.82-3.53,2.84-5.75,5-9.34,7.54"/><path class="a" d="M267.82,79c1.43-1.4,5.47-7.11,6.82-8.62,2.85,3.53,5,5.75,7.54,9.34"/><path class="a" d="M217.82,71.05c1.43,1.4,5.47,7.11,6.82,8.62,2.84-3.53,5-5.75,7.54-9.34"/><path class="a" d="M217.82,71.05c1.43,1.4,5.47,7.11,6.82,8.62,2.84-3.53,5-5.75,7.54-9.34"/><path class="a" d="M360.79,67.18c2.83,2.77,10.82,14.07,13.5,17.06,5.63-7,9.95-11.37,14.92-18.48"/><circle class="b" cx="471.57" cy="71.14" r="7.29"/><path class="b" d="M476.29,76.71c4.54,4.65,5.35,4.66,9.43,9.43"/><path class="a" d="M69.4,69.87c7.57.08,3.9-.37,11.2.2"/><path class="a" d="M69.4,75.05c7.57.08,3.9-.38,11.2.2"/><path class="a" d="M69.4,80c7.57.09,3.9-.37,11.2.2"/><path class="a" d="M74,69.87c.78.08,1.31-.37,2.06.2"/><path class="a" d="M74,75.05c.78.08,1.31-.38,2.06.2"/><path class="a" d="M74,80c.78.08,1.31-.37,2.06.2"/><path class="a" d="M224.3,25.1c1.06.11.38-.71,1.4.07"/><path class="a" d="M230.3,25.1c1.06.11.38-.71,1.4.07"/><path class="a" d="M218.3,25.1c1.06.11.38-.71,1.4.07"/><path class="c" d="M535.57,87.05l-6.73-.17c-.84,0,.1-8.11-.94-8.15-.65,0-4.58,0-5.77,0-1.62-.1-.28,8-.87,8l-6.82-.17c.13-1.82,0-13.27,0-15.28,2.13-.3,18.45.45,20.59.3C535.07,73.66,535.31,85,535.57,87.05Z"/><path class="c" d="M512.39,72.25c.63-1.39,2.7-3,3.94-3.9s2.57-1.65,3.76-2.6c.69-.54,1.32-1.15,2-1.66A10,10,0,0,1,524,63a.78.78,0,0,1,.4-.08,1,1,0,0,1,.34.16A65.54,65.54,0,0,0,532,68.07c.53.3,2.38,1.62,2.89,2a12.76,12.76,0,0,1,2.77,2.46"/><path class="d" d="M577.37,17.78c-.39-.27-4.52.13-5.35.14a20,20,0,0,1-2.19-.05c-.08.67-.08,5.43-.08,6.54s-.23,7,0,7.38c2.38.25,6.46.42,7.47.38.59,0,2.8.43,3-.16a19.83,19.83,0,0,0,0-3.53c0-.7-.1-5.92-.15-6.62"/><path class="d" d="M577.34,18.2a12.25,12.25,0,0,0-.48,1.24,5.74,5.74,0,0,0-.76,2.42c.23.07,2.92.07,3.62.07"/><path class="d" d="M577.47,17.89c.4.51,2,3,2.59,3.87"/><path class="d" d="M571.16,24.4c.37,0,2.42-.09,2.91-.14s2.46.11,2.88.19.57,0,.85,0a10.14,10.14,0,0,1,1.1,0"/><path class="d" d="M571.16,26.85a1.32,1.32,0,0,0,1.18-.11,2.74,2.74,0,0,1,1.28-.14,2.68,2.68,0,0,0,1.29.29,5.89,5.89,0,0,1,.84,0,5.8,5.8,0,0,1,1.25,0h1.9"/><path class="d" d="M571.4,29.33c.06-.22,1.25,0,1.63,0a4.19,4.19,0,0,0,.87,0h1.71"/><path class="d" d="M571.16,22.06a11,11,0,0,1,2.08-.11,2,2,0,0,0,1.31.11"/><path class="d" d="M569.83,27.41c0,1.1-.31,4-.08,4.38,2.37.25,6.45.42,7.46.38.59,0,2.8.43,3-.16a19.83,19.83,0,0,0,0-3.53c0-.7-.1-5.92-.15-6.62"/><path class="d" d="M577.36,17.78c-.38-.27-3.5.13-4.33.14"/><path class="d" d="M577.33,18.2a12.25,12.25,0,0,0-.48,1.24,5.7,5.7,0,0,0-.76,2.42c.23.07,2.92.07,3.62.07"/><path class="d" d="M577.46,17.89c.4.51,2,3,2.59,3.87"/><path class="d" d="M573,24.35c.5,0,3.49,0,3.91.1s.57,0,.85,0a10.1,10.1,0,0,1,1.1,0"/><path class="d" d="M573.61,26.6a2.68,2.68,0,0,0,1.29.29,5.89,5.89,0,0,1,.84,0,5.8,5.8,0,0,1,1.25,0h1.9"/><path class="d" d="M571.39,29.33c.06-.22,1.25,0,1.63,0a4.2,4.2,0,0,0,.87,0h1.71"/><path class="d" d="M573.23,22a2,2,0,0,0,1.31.11"/><path class="c" d="M580.26,67.2c-1.48,2.07-8.47,4.08-10.44,6.46"/><path class="c" d="M580.23,82.71c-2.71-.92-7.88-5.5-10.38-6.56"/><path class="e" d="M582,63.94a2.54,2.54,0,1,1-2.57,2.54A2.56,2.56,0,0,1,582,63.94Z"/><path class="e" d="M581,80.8a2.63,2.63,0,1,1-2.67,2.63A2.65,2.65,0,0,1,581,80.8Z"/><path class="e" d="M568,72.81a2.62,2.62,0,1,1-2.65,2.62A2.64,2.64,0,0,1,568,72.81Z"/><polygon class="c" points="617.5 22.9 622.87 22.9 625.23 17.66 627.33 22.25 632.5 23.23 628.64 26.97 630.08 32.34 625.73 29.46 620.38 32.06 621.87 27.02 617.5 22.9"/><polygon class="a" points="121.9 22.69 124.57 22.69 128.53 18.84 128.53 31.16 125.25 27.9 121.47 28.64 121.9 22.69"/><polygon class="a" points="171.9 22.69 174.57 22.69 178.53 18.84 178.53 31.16 175.25 27.9 171.47 28.64 171.9 22.69"/><path class="a" d="M132.3,22.55a3.59,3.59,0,0,1,1.4,2.52,3,3,0,0,1-1.35,2.38"/><path class="a" d="M136,19.32A10.2,10.2,0,0,1,138,25a8.12,8.12,0,0,1-2,5.66"/><path class="e" d="M327.48,25l2.69-2.69a1.46,1.46,0,0,0,0-2l-.43-.43a1.46,1.46,0,0,0-2.05,0L325,22.52l-2.69-2.69a1.46,1.46,0,0,0-2.05,0l-.43.43a1.46,1.46,0,0,0,0,2L322.52,25l-2.69,2.69a1.46,1.46,0,0,0,0,2l.43.43a1.46,1.46,0,0,0,2.05,0L325,27.48l2.69,2.69a1.46,1.46,0,0,0,2.05,0l.43-.43a1.46,1.46,0,0,0,0-2Z"/><path class="e" d="M279.94,27H277v2.92a2,2,0,1,1-4,0V27h-2.92a2,2,0,1,1,0-4H273V20.06a2,2,0,1,1,4,0V23h2.92a2,2,0,0,1,0,4Z"/><path class="e" d="M331.5,75.05a1.71,1.71,0,0,1-1.7,1.7h-9.6a1.71,1.71,0,0,1-1.7-1.7V75a1.71,1.71,0,0,1,1.7-1.7h9.6a1.71,1.71,0,0,1,1.7,1.7Z"/><path class="e" d="M225.43,125l-3.19,5.62a2.29,2.29,0,0,0,0,2l.29.52a.61.61,0,0,0,1.16,0l3.76-6.62,0,0,.29-.51a2.17,2.17,0,0,0,.24-1,2.15,2.15,0,0,0-.24-1l-.29-.51,0,0-3.76-6.62a.61.61,0,0,0-1.16,0l-.29.51a2.31,2.31,0,0,0,0,2Z"/><path class="f" d="M375.43,125l-3.19,5.62a2.29,2.29,0,0,0,0,2l.29.52a.61.61,0,0,0,1.16,0l3.76-6.62,0,0,.29-.51a2.17,2.17,0,0,0,.24-1,2.15,2.15,0,0,0-.24-1l-.29-.51,0,0-3.76-6.62a.61.61,0,0,0-1.16,0l-.29.51a2.31,2.31,0,0,0,0,2Z"/><path d="M275.43,125l-3.19,5.62a2.29,2.29,0,0,0,0,2l.29.52a.61.61,0,0,0,1.16,0l3.76-6.62,0,0,.29-.51a2.17,2.17,0,0,0,.24-1,2.15,2.15,0,0,0-.24-1l-.29-.51,0,0-3.76-6.62a.61.61,0,0,0-1.16,0l-.29.51a2.31,2.31,0,0,0,0,2Z"/><path class="g" d="M325.43,125l-3.19,5.62a2.29,2.29,0,0,0,0,2l.29.52a.61.61,0,0,0,1.16,0l3.76-6.62,0,0,.29-.51a2.17,2.17,0,0,0,.24-1,2.15,2.15,0,0,0-.24-1l-.29-.51,0,0-3.76-6.62a.61.61,0,0,0-1.16,0l-.29.51a2.31,2.31,0,0,0,0,2Z"/><polygon class="e" points="424.68 129.5 416 121.97 416.44 120.51 424.69 127.68 433.59 120.5 434 121.98 424.68 129.5"/><polygon points="474.68 129.5 466 121.97 466.44 120.51 474.69 127.68 483.59 120.5 484 121.98 474.68 129.5"/><polygon class="e" points="575.32 120.5 584 128.03 583.57 129.49 575.31 122.32 566.41 129.5 566 128.02 575.32 120.5"/><polygon points="525.32 120.5 534 128.03 533.57 129.49 525.31 122.32 516.41 129.5 516 128.02 525.32 120.5"/><path class="e" d="M629.09,117.23a7.17,7.17,0,0,0-4.3-1.23,6,6,0,0,0-3.32.87,5.32,5.32,0,0,0-2.27,4.61h3.3a3.41,3.41,0,0,1,.56-1.83,2,2,0,0,1,1.88-.87,2.12,2.12,0,0,1,1.85.71,2.66,2.66,0,0,1,.51,1.58,2.36,2.36,0,0,1-.56,1.38,2.82,2.82,0,0,1-.66.68,15.19,15.19,0,0,0-2.58,2.07,4,4,0,0,0-.54,2.49c0,.08,0,.25.32.25h2.57a.28.28,0,0,0,.31-.27,3.43,3.43,0,0,1,.14-.88,2.75,2.75,0,0,1,1-1.19l.91-.63a10.07,10.07,0,0,0,1.77-1.58,4.51,4.51,0,0,0-.87-6.16Zm-4.35,12.69a2,2,0,0,0-2.12,2,2.07,2.07,0,1,0,2.12-2Z"/><path class="e" d="M25,71.68A3.32,3.32,0,1,0,28.32,75,3.32,3.32,0,0,0,25,71.68Zm12,4.49V73.82l-3.4-1.26a8.65,8.65,0,0,0-.82-2l1.53-3.27-1.66-1.65-3.26,1.53a8.21,8.21,0,0,0-1.95-.82L26.17,63H23.83l-1.27,3.4a8.21,8.21,0,0,0-1.95.82l-3.26-1.53-1.66,1.65,1.53,3.27a8.65,8.65,0,0,0-.82,2L13,73.82v2.35l3.4,1.27a8.65,8.65,0,0,0,.82,2l-1.53,3.27,1.66,1.65,3.26-1.53a8.21,8.21,0,0,0,1.95.82L23.83,87h2.34l1.27-3.4a8.21,8.21,0,0,0,1.95-.82l3.26,1.53,1.66-1.65-1.53-3.27a8.65,8.65,0,0,0,.82-2ZM25,80.36A5.36,5.36,0,1,1,30.36,75,5.36,5.36,0,0,1,25,80.36Z"/><path class="e" d="M616,66.31V83.69a.31.31,0,0,0,.31.31h17.38a.31.31,0,0,0,.31-.31V66.31a.31.31,0,0,0-.31-.31H616.31A.31.31,0,0,0,616,66.31Zm14.85,3.1L619.38,80.88a.16.16,0,0,1-.28-.11V69.49a.37.37,0,0,1,.36-.37h11.28A.17.17,0,0,1,630.85,69.41Z"/></svg>