<?xml version="1.0" encoding="utf-8"?>
<!-- Generator: Adobe Illustrator 16.0.4, SVG Export Plug-In . SVG Version: 6.00 Build 0)  -->
<!DOCTYPE svg PUBLIC "-//W3C//DTD SVG 1.1//EN" "http://www.w3.org/Graphics/SVG/1.1/DTD/svg11.dtd">
<svg version="1.1" xmlns="http://www.w3.org/2000/svg" xmlns:xlink="http://www.w3.org/1999/xlink" x="0px" y="0px" width="650px"
	 height="50px" viewBox="0 0 650 50" enable-background="new 0 0 650 50" xml:space="preserve">
<g id="red-bg" display="none">
	<rect x="-15.187" y="-307.673" display="inline" opacity="0.27" fill="#FF0000" width="2149.996" height="449.673"/>
</g>
<g id="layer-set-12">
</g>
<g id="layer-set-11">
</g>
<g id="layer-set-10">
	<g>
		<path fill="#00ABC8" d="M89.001,16.314c-1.03,0.457-2.138,0.766-3.3,0.904c1.186-0.709,2.097-1.836,2.525-3.178
			c-1.109,0.658-2.34,1.137-3.648,1.395c-1.047-1.117-2.54-1.814-4.191-1.814c-3.172,0-5.746,2.572-5.746,5.746
			c0,0.451,0.051,0.889,0.149,1.309c-4.774-0.242-9.008-2.527-11.842-6.002c-0.494,0.848-0.777,1.834-0.777,2.889
			c0,1.994,1.015,3.75,2.556,4.783c-0.942-0.033-1.828-0.291-2.603-0.721c-0.001,0.025-0.001,0.049-0.001,0.074
			c0,2.781,1.981,5.102,4.609,5.633c-0.482,0.129-0.99,0.199-1.514,0.199c-0.37,0-0.73-0.037-1.081-0.102
			c0.731,2.281,2.852,3.941,5.367,3.988c-1.966,1.541-4.443,2.461-7.135,2.461c-0.463,0-0.921-0.031-1.37-0.082
			c2.541,1.629,5.561,2.582,8.806,2.582c10.566,0,16.345-8.752,16.345-16.346c0-0.248-0.007-0.496-0.018-0.744
			C87.257,18.479,88.231,17.467,89.001,16.314L89.001,16.314z"/>
	</g>
	<g>
		<g>
			<path fill="#0680AB" d="M190,37.52c0,1.365-1.116,2.48-2.48,2.48H162.48c-1.364,0-2.48-1.116-2.48-2.48V12.48
				c0-1.364,1.116-2.48,2.48-2.48h25.039c1.365,0,2.48,1.116,2.48,2.48V37.52L190,37.52z"/>
		</g>
		<g>
			<path fill="#FFFFFF" d="M167.02,19.645c1.568,0,2.545-1.041,2.545-2.34c-0.028-1.328-0.976-2.339-2.516-2.339
				s-2.546,1.011-2.546,2.341c0,1.297,0.978,2.338,2.487,2.338H167.02L167.02,19.645L167.02,19.645z M169.27,35.034V21.492h-4.502
				v13.542H169.27L169.27,35.034L169.27,35.034z"/>
			<path fill="#FFFFFF" d="M171.76,35.034h4.5v-7.563c0-0.402,0.032-0.811,0.149-1.096c0.325-0.809,1.065-1.646,2.312-1.646
				c1.627,0,2.278,1.242,2.278,3.062v7.244h4.5V27.27c0-4.158-2.22-6.094-5.183-6.094c-2.428,0-3.492,1.356-4.088,2.282h0.029
				v-1.964h-4.5C171.818,22.764,171.76,35.034,171.76,35.034L171.76,35.034L171.76,35.034z"/>
		</g>
	</g>
	<g>
		
			<linearGradient id="SVGID_1_" gradientUnits="userSpaceOnUse" x1="226.0552" y1="-424.6792" x2="226.0552" y2="-449.0432" gradientTransform="matrix(1 0 0 1 -101.0552 463.3594)">
			<stop  offset="0" style="stop-color:#034892"/>
			<stop  offset="1" style="stop-color:#098FFF"/>
		</linearGradient>
		<path fill="url(#SVGID_1_)" d="M140,37.52c0,1.365-1.116,2.48-2.48,2.48h-25.04c-1.364,0-2.48-1.116-2.48-2.48V12.48
			c0-1.364,1.116-2.48,2.48-2.48h25.04c1.365,0,2.48,1.116,2.48,2.48V37.52z"/>
		<path fill="#F70F40" d="M117.5,10h-5.02c-1.364,0-2.48,1.116-2.48,2.48v1.514h7.5V10z"/>
		<rect x="117.5" y="10" fill="#138FFB" width="7.5" height="3.994"/>
		<rect x="125" y="10" fill="#2DBE10" width="7.5" height="3.994"/>
		<path fill="#F7C511" d="M137.52,10h-5.02v3.994h7.5V12.48C140,11.116,138.884,10,137.52,10z"/>
		<g>
			<polygon fill="#FFFFFF" points="123.472,27.438 120.515,27.438 120.515,24.479 118.541,24.479 118.541,27.438 115.583,27.438 
				115.583,29.407 118.541,29.407 118.541,32.368 120.515,32.368 120.515,29.407 123.472,29.407 			"/>
			<path fill="#FFFFFF" d="M134.418,20.209h-1.688c0,0-4.19,3.775-5.541,3.555l-0.471,2.572c0.874,0.085,3.848-1.693,3.848-1.693
				l-1.909,9.728h2.818L134.418,20.209z"/>
		</g>
	</g>
	<g>
		
			<linearGradient id="SVGID_2_" gradientUnits="userSpaceOnUse" x1="126.0552" y1="-424.6792" x2="126.0552" y2="-449.0432" gradientTransform="matrix(1 0 0 1 -101.0552 463.3594)">
			<stop  offset="0" style="stop-color:#39517B"/>
			<stop  offset="1" style="stop-color:#5F7AB2"/>
		</linearGradient>
		<path fill="url(#SVGID_2_)" d="M40,37.52c0,1.365-1.116,2.48-2.48,2.48H12.48C11.116,40,10,38.884,10,37.52V12.48
			c0-1.364,1.116-2.48,2.48-2.48h25.04c1.365,0,2.48,1.116,2.48,2.48V37.52z"/>
		<path fill="#39517B" d="M33.455,19.396h1.704V15.95h-3.694c-2.242,0-4.062,1.817-4.062,4.061v2.063H24.49v3.447h2.914v10.615
			h4.531V25.521h3.224v-3.447h-3.224v-1.158C31.935,20.078,32.615,19.396,33.455,19.396"/>
		<path fill="#FFFFFF" d="M32.83,18.876h1.704V15.43H30.84c-2.242,0-4.062,1.817-4.062,4.061v2.062h-2.914V25h2.914v10.615h4.531V25
			h3.224v-3.447H31.31v-1.158C31.31,19.557,31.99,18.876,32.83,18.876"/>
	</g>
	<g>
		<path fill="#00ABC8" d="M240,37.5c0,1.381-1.119,2.5-2.5,2.5h-25c-1.381,0-2.5-1.119-2.5-2.5v-25c0-1.381,1.119-2.5,2.5-2.5h25
			c1.381,0,2.5,1.119,2.5,2.5V37.5z"/>
		<path fill="#FFFFFF" d="M215.076,19.264c0.576,0.32,8.559,4.739,8.855,4.902c0.295,0.165,0.682,0.244,1.067,0.244
			c0.388,0,0.772-0.079,1.069-0.245c0.298-0.164,8.277-4.583,8.854-4.901c0.577-0.32,1.123-1.322,0.064-1.322h-19.975
			C213.955,17.941,214.499,18.943,215.076,19.264z M235.168,21.698c-0.656,0.352-8.697,4.686-9.1,4.901
			c-0.4,0.217-0.68,0.244-1.068,0.244c-0.387,0-0.667-0.027-1.068-0.244c-0.4-0.217-8.443-4.552-9.098-4.901
			c-0.462-0.249-0.458,0.042-0.458,0.266s0,8.927,0,8.927c0,0.51,0.66,1.168,1.171,1.168h18.909c0.512,0,1.169-0.658,1.169-1.168
			c0,0,0-8.701,0-8.925C235.625,21.74,235.63,21.449,235.168,21.698z"/>
	</g>
	<g>
		<path fill="#25D366" d="M290.02,37.517c0,1.382-1.122,2.503-2.503,2.503h-25.032c-1.381,0-2.503-1.121-2.503-2.503V12.483
			c0-1.381,1.122-2.503,2.503-2.503h25.032c1.381,0,2.503,1.122,2.503,2.503V37.517z"/>
		<path fill-rule="evenodd" clip-rule="evenodd" fill="#FFFFFF" d="M282.249,17.71c-1.923-1.926-4.481-2.987-7.207-2.989
			c-5.614,0-10.184,4.571-10.187,10.187c-0.001,1.797,0.468,3.549,1.36,5.095l-1.445,5.277l5.4-1.418
			c1.488,0.812,3.164,1.242,4.869,1.242h0.004l0,0c5.613,0,10.184-4.571,10.187-10.187C285.23,22.193,284.172,19.634,282.249,17.71
			 M275.043,33.383h-0.004c-1.52,0-3.009-0.408-4.31-1.182l-0.309-0.183l-3.205,0.841l0.855-3.124l-0.202-0.32
			c-0.847-1.348-1.295-2.907-1.294-4.506c0.002-4.669,3.801-8.468,8.471-8.468c2.261,0,4.388,0.883,5.986,2.483
			c1.598,1.602,2.478,3.729,2.477,5.992C283.508,29.583,279.709,33.383,275.043,33.383 M279.687,27.041
			c-0.254-0.127-1.506-0.743-1.739-0.828c-0.233-0.086-0.403-0.128-0.573,0.127c-0.17,0.256-0.657,0.828-0.806,1
			c-0.148,0.168-0.296,0.19-0.551,0.063c-0.254-0.13-1.074-0.398-2.047-1.265c-0.756-0.674-1.268-1.508-1.416-1.765
			c-0.148-0.254-0.015-0.391,0.112-0.519c0.114-0.114,0.254-0.298,0.381-0.444c0.127-0.149,0.169-0.257,0.255-0.426
			c0.085-0.171,0.042-0.32-0.021-0.444c-0.064-0.13-0.572-1.382-0.785-1.893c-0.207-0.496-0.416-0.428-0.573-0.436
			c-0.148-0.007-0.317-0.01-0.487-0.01s-0.446,0.064-0.679,0.318s-0.891,0.87-0.891,2.124c0,1.252,0.913,2.465,1.039,2.633
			c0.128,0.171,1.795,2.74,4.349,3.843c0.607,0.265,1.082,0.418,1.45,0.538c0.61,0.193,1.166,0.164,1.604,0.101
			c0.489-0.073,1.506-0.616,1.718-1.21c0.212-0.597,0.212-1.105,0.148-1.21C280.111,27.231,279.942,27.168,279.687,27.041"/>
	</g>
</g>
<g id="layer-set-9">
</g>
<g id="layer-set-8">
</g>
<g id="layer-set-7">
</g>
<g id="layer-set-6">
</g>
<g id="layer-set-5">
</g>
<g id="layer-set-4">
</g>
<g id="layer-set-3">
</g>
<g id="layer-set-2">
</g>
<g id="layer-set-1">
</g>
</svg>
