<?xml version="1.0" encoding="utf-8"?>
<!-- Generator: Adobe Illustrator 15.0.0, SVG Export Plug-In  -->
<!DOCTYPE svg PUBLIC "-//W3C//DTD SVG 1.1//EN" "http://www.w3.org/Graphics/SVG/1.1/DTD/svg11.dtd" [
	<!ENTITY ns_flows "http://ns.adobe.com/Flows/1.0/">
]>
<svg version="1.1"
	 xmlns="http://www.w3.org/2000/svg" xmlns:xlink="http://www.w3.org/1999/xlink" xmlns:a="http://ns.adobe.com/AdobeSVGViewerExtensions/3.0/"
	 x="0px" y="0px" width="650px" height="150px" viewBox="49.675 649.673 650 150"
	 overflow="visible" enable-background="new 49.675 649.673 650 150" xml:space="preserve">
<defs>
</defs>
<circle fill="#FFFFFF" cx="260.554" cy="674.673" r="4.021"/>
<circle fill="#FFFFFF" cx="274.675" cy="674.673" r="4.021"/>
<circle fill="#FFFFFF" cx="288.796" cy="674.673" r="4.021"/>
<polygon id="prev_13_" fill="#FFFFFF" points="274.675,715.573 262.682,703.579 257.297,708.964 274.675,726.341 292.053,708.964 
	286.667,703.579 "/>
<polygon id="prev_12_" opacity="0.4" fill="#FFFFFF" enable-background="new    " points="274.675,734.998 262.682,723.005 
	257.297,728.389 274.675,745.767 292.053,728.389 286.667,723.005 "/>
<polygon id="prev_11_" fill="#FFFFFF" points="324.675,733.788 336.689,745.801 342.082,740.407 324.675,723.002 307.269,740.407 
	312.664,745.801 "/>
<polygon id="prev_10_" opacity="0.4" fill="#FFFFFF" enable-background="new    " points="324.675,714.331 336.689,726.344 
	342.082,720.95 324.675,703.545 307.269,720.95 312.664,726.344 "/>
<path fill="#FFFFFF" d="M271.675,769.173h2l4,5.5l-4,5.5h-2l3.688-5.5L271.675,769.173z"/>
<path d="M321.675,769.173h2l4,5.5l-4,5.5h-2l3.688-5.5L321.675,769.173z"/>
<path opacity="0.2" enable-background="new    " d="M421.675,769.173h2l4,5.5l-4,5.5h-2l3.688-5.5L421.675,769.173z"/>
<path opacity="0.5" enable-background="new    " d="M371.675,769.173h2l4,5.5l-4,5.5h-2l3.688-5.5L371.675,769.173z"/>
<rect x="368.781" y="673.494" transform="matrix(-0.7071 -0.7071 0.7071 -0.7071 162.4981 1416.6602)" fill="#FFFFFF" width="11.784" height="2.357"/>
<rect x="368.784" y="673.495" transform="matrix(0.7071 -0.7071 0.7071 0.7071 -367.3138 462.5)" fill="#FFFFFF" width="11.784" height="2.357"/>
<rect x="323.175" y="667.173" fill="#FFFFFF" width="3" height="15"/>
<rect x="317.175" y="673.173" fill="#FFFFFF" width="15" height="3"/>
<polygon id="small_right_2_" fill="#FFFFFF" points="168.675,766.673 168.675,782.673 180.675,774.673 "/>
<polygon id="small_left_8_" fill="#FFFFFF" points="80.675,766.673 80.675,782.673 68.675,774.673 "/>
<polygon id="small_left_7_" fill="#FFFFFF" points="132.675,780.673 116.675,780.673 124.675,768.673 "/>
<polygon id="small_left_6_" fill="#FFFFFF" points="216.675,768.673 232.675,768.673 224.675,780.673 "/>
<path fill="#FFFFFF" d="M166.665,670.673v8h3.521l5.489,3v-14l-5.507,3H166.665z M177.87,671.355l-1.319,1.317
	c0.54,0.451,0.904,1.168,0.904,2s-0.359,1.553-0.899,2.006l1.336,1.334c0.789-0.821,1.289-2.012,1.289-3.34
	C179.18,673.343,178.662,672.177,177.87,671.355z M180.414,668.814l-1.413,1.411c1.027,1.095,1.682,2.675,1.682,4.447
	s-0.654,3.354-1.681,4.448l1.412,1.41c1.39-1.457,2.271-3.533,2.271-5.858C182.684,672.347,181.803,670.271,180.414,668.814z"/>
<polygon fill="#FFFFFF" points="220.673,670.673 217.169,670.673 217.169,678.673 220.691,678.673 226.181,681.673 226.181,667.673 
	"/>
<path fill="#FFFFFF" d="M74.675,721.354c-1.833,0-3.318,1.486-3.318,3.319s1.485,3.318,3.318,3.318s3.318-1.485,3.318-3.318
	S76.508,721.354,74.675,721.354z M86.675,725.848v-2.351l-3.4-1.266c-0.195-0.688-0.471-1.344-0.817-1.951l1.532-3.264l-1.66-1.658
	l-3.264,1.531c-0.606-0.348-1.261-0.623-1.95-0.816l-1.267-3.4h-2.348l-1.268,3.4c-0.688,0.193-1.343,0.47-1.949,0.816l-3.264-1.531
	l-1.66,1.658l1.532,3.264c-0.347,0.607-0.622,1.263-0.817,1.951l-3.4,1.266v2.351l3.4,1.267c0.195,0.688,0.471,1.344,0.817,1.951
	l-1.532,3.264l1.66,1.658l3.264-1.531c0.606,0.347,1.261,0.623,1.949,0.816l1.268,3.4h2.348l1.267-3.4
	c0.689-0.193,1.344-0.471,1.95-0.816l3.264,1.531l1.66-1.658l-1.532-3.264c0.347-0.607,0.622-1.263,0.817-1.951L86.675,725.848z
	 M74.675,730.034c-2.962,0-5.361-2.399-5.361-5.361s2.399-5.362,5.361-5.362c2.961,0,5.361,2.4,5.361,5.362
	S77.636,730.034,74.675,730.034z"/>
<rect x="369.675" y="723.673" fill="#FFFFFF" width="10" height="2"/>
<polygon fill="#FFFFFF" points="474.355,779.173 465.675,771.639 466.111,770.183 474.369,777.353 483.264,770.173 483.675,771.649 
	"/>
<polygon points="524.355,779.173 515.675,771.639 516.111,770.183 524.369,777.353 533.264,770.173 533.675,771.649 "/>
<polygon fill="#FFFFFF" points="624.996,770.173 633.675,777.707 633.24,779.163 624.982,771.993 616.086,779.173 615.675,777.696 
	"/>
<polygon points="574.996,770.173 583.675,777.707 583.24,779.163 574.982,771.993 566.086,779.173 565.675,777.696 "/>
<path fill="#FFFFFF" d="M587.422,725.811c-0.337,0.338-0.742,0.504-1.217,0.504s-0.875-0.162-1.203-0.49l-0.389-0.389v10.842
	c0,0.449-0.16,0.836-0.479,1.166c-0.318,0.328-0.711,0.49-1.178,0.49h-4.969v-7.451c0-0.226-0.082-0.418-0.246-0.584
	c-0.164-0.164-0.357-0.246-0.582-0.246h-4.969c-0.224,0-0.418,0.082-0.582,0.246s-0.246,0.358-0.246,0.584v7.451h-4.969
	c-0.466,0-0.859-0.164-1.178-0.49c-0.319-0.328-0.479-0.717-0.479-1.166v-10.842l-0.39,0.389c-0.327,0.328-0.728,0.49-1.202,0.49
	s-0.88-0.166-1.216-0.504c-0.337-0.336-0.505-0.74-0.505-1.216c0-0.474,0.164-0.875,0.492-1.202l11.488-11.488
	c0.346-0.346,0.769-0.51,1.269-0.492c0.5-0.018,0.923,0.146,1.269,0.492l11.488,11.488c0.328,0.327,0.492,0.729,0.492,1.202
	C587.927,725.068,587.758,725.475,587.422,725.811z"/>
<polygon fill="#FFFFFF" points="435.123,717.497 424.675,727.944 414.228,717.498 412.277,719.45 424.675,731.849 437.074,719.448 
	"/>
<polygon fill="#FFFFFF" points="487.074,729.895 474.675,717.497 462.277,729.896 464.228,731.848 474.675,721.4 485.123,731.847 
	"/>
<polygon fill="#FFFFFF" points="491.175,681.624 474.675,665.124 458.175,681.625 460.773,684.222 474.675,670.319 488.577,684.222 
	"/>
<polygon fill="#FFFFFF" points="438.577,665.124 424.675,679.026 410.773,665.125 408.175,667.722 424.675,684.222 424.675,684.221 
	441.175,667.722 "/>
<polygon fill="#FFFFFF" points="567.724,691.173 584.224,674.673 567.724,658.173 565.126,660.771 579.029,674.673 565.126,688.575 
	"/>
<polygon fill="#FFFFFF" points="534.224,688.575 520.321,674.673 534.222,660.771 531.626,658.173 515.126,674.673 515.126,674.673 
	531.626,691.173 "/>
<path fill="#FFFFFF" d="M615.175,663.173v20h16v-20H615.175z M629.747,681.827h-13.143v-17.309h13.143V681.827z"/>
<path fill="#FFFFFF" d="M618.175,683.173v3h16v-20h-3v1.346h1.571v17.309h-13.143v-1.654H618.175z"/>
<rect x="618.758" y="666.506" fill="#FFFFFF" width="9.083" height="1.417"/>
<rect x="618.758" y="669.506" fill="#FFFFFF" width="9.083" height="1.417"/>
<rect x="618.758" y="672.506" fill="#FFFFFF" width="9.083" height="1.417"/>
<rect x="618.758" y="675.506" fill="#FFFFFF" width="9.083" height="1.417"/>
<rect x="618.758" y="678.506" fill="#FFFFFF" width="9.083" height="1.417"/>
<polygon fill="#FFFFFF" points="674.675,664.666 677.927,671.254 685.197,672.312 679.936,677.438 681.178,684.68 674.675,681.261 
	668.172,684.68 669.414,677.438 664.154,672.312 671.423,671.254 "/>
<path fill="#FFFFFF" d="M527.521,718.136c-2.586-2.586-6.797-2.586-9.383,0c-2.584,2.587-2.584,6.794,0,9.382
	c2.305,2.301,5.89,2.547,8.474,0.75c0.056,0.258,0.181,0.504,0.381,0.703l3.763,3.766c0.551,0.549,1.438,0.549,1.981,0
	c0.551-0.547,0.551-1.434,0-1.981l-3.765-3.767c-0.199-0.199-0.445-0.322-0.702-0.377
	C530.069,724.023,529.823,720.438,527.521,718.136L527.521,718.136z M526.33,726.329c-1.93,1.93-5.072,1.93-7.002,0
	c-1.929-1.933-1.929-5.072,0-7.005c1.93-1.93,5.072-1.93,7.002,0C528.259,721.257,528.259,724.396,526.33,726.329L526.33,726.329z"
	/>
<polygon fill="#FFFFFF" points="84.508,663.319 64.842,674.673 84.508,686.026 "/>
<polygon fill="#FFFFFF" points="163.321,714.84 174.676,734.506 186.03,714.84 "/>
<polygon fill="#FFFFFF" points="236.029,734.506 224.675,714.84 213.321,734.506 "/>
<polygon fill="#FFFFFF" points="114.842,663.319 134.509,674.673 114.842,686.026 "/>
<path fill="#FFFFFF" d="M120.453,733.118h16.889v3.378h-16.889V733.118z M120.453,722.983h16.889v3.379h-16.889V722.983z
	 M120.453,712.851h16.889v3.379h-16.889V712.851z M115.386,711.162v6.756h-1.689v-5.067h-1.688v-1.689L115.386,711.162
	L115.386,711.162z M113.697,725.043v1.319h3.378v1.688h-5.066v-3.853l3.377-1.584v-1.318h-3.377v-1.689h5.066v3.854L113.697,725.043
	z M117.075,729.739v8.444h-5.066v-1.688h3.377v-1.689h-3.377v-1.688h3.377v-1.689h-3.377v-1.689H117.075L117.075,729.739z"/>
<g>
	<defs>
		<rect id="SVGID_2_" x="599.675" y="699.673" width="50" height="50"/>
	</defs>
	<clipPath id="SVGID_4_">
		<use xlink:href="#SVGID_2_"  overflow="visible"/>
	</clipPath>
	<path clip-path="url(#SVGID_4_)" fill="#FFFFFF" d="M633.112,730.048c-1.146,0-2.181,0.477-2.921,1.24l-10.942-5.473
		c0.033-0.209,0.052-0.424,0.052-0.644s-0.019-0.435-0.052-0.644l10.942-5.472c0.74,0.763,1.773,1.239,2.921,1.239
		c2.243,0,4.062-1.818,4.062-4.062c0-2.242-1.818-4.062-4.062-4.062c-2.242,0-4.062,1.819-4.062,4.062
		c0,0.219,0.018,0.435,0.051,0.644l-10.943,5.473c-0.738-0.764-1.773-1.239-2.92-1.239c-2.242,0-4.062,1.818-4.062,4.062
		s1.82,4.062,4.062,4.062c1.146,0,2.182-0.476,2.92-1.24l10.943,5.473c-0.033,0.209-0.051,0.424-0.051,0.645
		c0,2.242,1.819,4.062,4.062,4.062c2.243,0,4.062-1.819,4.062-4.062C637.173,731.866,635.355,730.048,633.112,730.048"/>
</g>
<path fill="#FFFFFF" d="M681.714,761.301c-1.962-1.416-4.429-2.126-7.396-2.126c-2.261,0-4.164,0.501-5.715,1.497
	c-2.455,1.557-3.762,4.207-3.918,7.944h5.692c0-1.09,0.318-2.137,0.954-3.148c0.636-1.009,1.712-1.514,3.231-1.514
	c1.546,0,2.612,0.41,3.193,1.228c0.584,0.824,0.875,1.732,0.875,2.725c0,0.867-0.434,1.661-0.957,2.381
	c-0.287,0.421-0.669,0.808-1.139,1.161c0,0-3.087,1.98-4.442,3.571c-0.787,0.922-0.858,2.304-0.927,4.288
	c-0.005,0.142,0.049,0.431,0.541,0.431c0.495,0,3.989,0,4.43,0c0.438,0,0.53-0.326,0.537-0.468c0.031-0.72,0.112-1.09,0.243-1.507
	c0.251-0.786,0.927-1.473,1.687-2.064l1.566-1.08c1.416-1.103,2.544-2.008,3.042-2.718c0.853-1.163,1.451-2.6,1.451-4.305
	C684.66,764.812,683.679,762.717,681.714,761.301z M674.226,783.152c-1.962-0.061-3.582,1.298-3.645,3.427
	c-0.062,2.126,1.48,3.532,3.441,3.589c2.048,0.061,3.625-1.255,3.686-3.38C677.769,784.662,676.276,783.213,674.226,783.152z"/>
<path fill="#FFFFFF" d="M682.75,722.722h3.646v-8.24c0-0.513-0.458-0.934-1.013-0.934h-21.411c-0.558,0-1.016,0.421-1.016,0.934
	v8.24h3.649c3.826,0,7.053,2.358,8.07,5.583C675.697,725.08,678.922,722.722,682.75,722.722z"/>
<path fill="#FFFFFF" d="M680.53,726.314c-2.381,0-4.491,1.033-5.854,2.638c-1.36-1.604-3.474-2.638-5.852-2.638h-5.868v8.55
	c0,0.513,0.455,0.934,1.013,0.934h21.411c0.558,0,1.013-0.421,1.013-0.934v-8.55H680.53z"/>
</svg>
