<?xml version="1.0" encoding="utf-8"?>
<!-- Generator: Adobe Illustrator 16.0.0, SVG Export Plug-In . SVG Version: 6.00 Build 0)  -->
<!DOCTYPE svg PUBLIC "-//W3C//DTD SVG 1.1//EN" "http://www.w3.org/Graphics/SVG/1.1/DTD/svg11.dtd">
<svg version="1.1" xmlns="http://www.w3.org/2000/svg" xmlns:xlink="http://www.w3.org/1999/xlink" x="0px" y="0px" width="650px"
	 height="150px" viewBox="0 0 650 150" enable-background="new 0 0 650 150" xml:space="preserve">
<g id="layer-set-12">
</g>
<g id="layer-set-11">
</g>
<g id="layer-set-10">
</g>
<g id="layer-set-9">
</g>
<g id="layer-set-8">
</g>
<g id="layer-set-7">
</g>
<g id="layer-set-6">
</g>
<g id="layer-set-5">
</g>
<g id="layer-set-4">
	<g>
		<g>
			<path d="M67.49,67.501v2.998h15.02v-2.998H67.49z M67.49,76.499h15.02v-2.998H67.49V76.499z M67.49,82.501h15.02v-3.002H67.49
				V82.501z"/>
		</g>
	</g>
	<path d="M125.383,17.076C125.259,17.025,125.129,17,125,17c-0.262,0-0.518,0.102-0.709,0.293L120.495,21h-2.504
		c-0.554,0-1.002,0.447-1.002,1v6c0,0.553,0.448,1,1.002,1h2.521l3.779,3.707C124.483,32.898,124.739,33,125,33
		c0.129,0,0.259-0.025,0.383-0.076C125.757,32.77,126,32.404,126,32V18C126,17.596,125.757,17.23,125.383,17.076z M128.196,21.682
		L126.875,23c0.541,0.451,0.904,1.168,0.904,2s-0.358,1.553-0.898,2.006l1.336,1.334c0.789-0.822,1.289-2.012,1.289-3.34
		C129.506,23.67,128.989,22.504,128.196,21.682z M130.741,19.141l-1.414,1.412c1.027,1.094,1.683,2.674,1.683,4.447
		s-0.654,3.354-1.681,4.449l1.412,1.41c1.39-1.458,2.271-3.534,2.271-5.859C133.01,22.674,132.129,20.598,130.741,19.141z"/>
	<g>
		<g>
			<path d="M175.89,17.076c-0.125-0.051-0.255-0.076-0.384-0.076c-0.262,0-0.518,0.102-0.709,0.293L171,21h-2.504
				c-0.553,0-1.002,0.447-1.002,1v6c0,0.553,0.449,1,1.002,1h2.521l3.779,3.707c0.191,0.191,0.447,0.293,0.709,0.293
				c0.129,0,0.259-0.025,0.384-0.076c0.373-0.154,0.616-0.52,0.616-0.924V18C176.506,17.596,176.263,17.23,175.89,17.076z"/>
		</g>
	</g>
	<g id="Cog_3_">
		<g>
			<path d="M35.877,72.702L33.6,72.561c-0.195-0.689-0.471-1.345-0.816-1.951l1.531-1.676c0.438-0.438,0.438-1.148,0-1.588
				l-1.66-1.658c-0.438-0.439-1.147-0.439-1.588,0l-1.676,1.53c-0.605-0.348-1.261-0.622-1.949-0.815l-0.144-2.277
				c0-0.623-0.501-1.124-1.124-1.124h-2.348c-0.623,0-1.124,0.501-1.124,1.124l-0.144,2.277c-0.688,0.193-1.344,0.469-1.949,0.815
				l-1.676-1.53c-0.439-0.439-1.148-0.439-1.588,0l-1.66,1.658c-0.438,0.438-0.438,1.148,0,1.588l1.531,1.676
				c-0.347,0.606-0.621,1.262-0.816,1.951l-2.277,0.143c-0.623,0-1.123,0.5-1.123,1.123v2.35c0,0.623,0.5,1.123,1.123,1.123
				l2.277,0.141c0.195,0.689,0.471,1.345,0.816,1.951l-1.531,1.674c-0.438,0.439-0.438,1.15,0,1.59l1.66,1.658
				c0.438,0.439,1.147,0.439,1.588,0l1.676-1.53c0.605,0.347,1.261,0.622,1.949,0.815l0.144,2.277c0,0.623,0.501,1.124,1.124,1.124
				h2.348c0.623,0,1.124-0.501,1.124-1.124l0.144-2.277c0.688-0.193,1.344-0.47,1.949-0.815l1.676,1.53
				c0.439,0.439,1.148,0.439,1.588,0l1.66-1.658c0.438-0.438,0.438-1.149,0-1.59l-1.531-1.674c0.347-0.606,0.621-1.262,0.816-1.951
				l2.277-0.143c0.622,0,1.123-0.5,1.123-1.123v-2.35C37,73.202,36.499,72.702,35.877,72.702z M25,80.361
				c-2.962,0-5.361-2.399-5.361-5.361s2.399-5.361,5.361-5.361c2.961,0,5.361,2.399,5.361,5.361S27.961,80.361,25,80.361z
				 M25,71.682c-1.833,0-3.318,1.485-3.318,3.318s1.485,3.318,3.318,3.318s3.318-1.485,3.318-3.318S26.833,71.682,25,71.682z"/>
		</g>
	</g>
	<path d="M75.756,24.998l-5.578,5.553c-0.561,0.56-0.561,1.464,0,2.021l0.508,0.505c0.562,0.559,1.471,0.559,2.031,0l6.564-6.535
		c0.012-0.009,0.023-0.012,0.033-0.021l0.508-0.506c0.283-0.28,0.422-0.649,0.42-1.017c0.002-0.366-0.137-0.734-0.42-1.016
		l-0.508-0.504c-0.01-0.011-0.023-0.014-0.033-0.023l-6.564-6.533c-0.562-0.559-1.471-0.559-2.031,0l-0.508,0.504
		c-0.561,0.559-0.561,1.463,0,2.021L75.756,24.998z"/>
	<path d="M24.244,25l5.578-5.551c0.562-0.56,0.562-1.464,0-2.021l-0.508-0.505c-0.562-0.559-1.471-0.559-2.03,0l-6.565,6.536
		c-0.012,0.008-0.023,0.011-0.033,0.02l-0.509,0.506c-0.28,0.281-0.421,0.649-0.419,1.016c-0.002,0.367,0.139,0.735,0.419,1.017
		l0.509,0.503c0.01,0.012,0.023,0.014,0.033,0.024l6.565,6.534c0.562,0.557,1.47,0.557,2.03,0l0.508-0.504
		c0.562-0.56,0.562-1.464,0-2.023L24.244,25z"/>
	<path d="M75.757,24.999l-5.578,5.552c-0.562,0.56-0.562,1.464,0,2.021l0.508,0.505c0.562,0.559,1.471,0.559,2.03,0l6.565-6.535
		c0.012-0.009,0.023-0.012,0.033-0.021l0.509-0.506c0.28-0.28,0.421-0.649,0.419-1.016c0.002-0.367-0.139-0.735-0.419-1.017
		l-0.509-0.503c-0.01-0.012-0.023-0.014-0.033-0.024l-6.565-6.533c-0.562-0.558-1.47-0.558-2.03,0l-0.508,0.504
		c-0.562,0.559-0.562,1.463,0,2.022L75.757,24.999z"/>
	<path fill="#FFFFFF" d="M125.58,125l-4.266,4.244c-0.43,0.428-0.43,1.119,0,1.545l0.389,0.387c0.429,0.428,1.124,0.428,1.552,0
		l5.021-4.996c0.009-0.008,0.019-0.01,0.025-0.018l0.389-0.387c0.215-0.213,0.321-0.496,0.319-0.775
		c0.001-0.281-0.104-0.562-0.319-0.777l-0.389-0.385c-0.007-0.008-0.02-0.01-0.025-0.018l-5.021-4.996
		c-0.429-0.426-1.124-0.426-1.552,0l-0.389,0.385c-0.43,0.428-0.43,1.119,0,1.547L125.58,125z"/>
	<path fill="#FFFFFF" d="M24.42,125l4.266-4.244c0.43-0.428,0.43-1.119,0-1.545l-0.389-0.387c-0.429-0.428-1.124-0.428-1.552,0
		l-5.021,4.996c-0.009,0.008-0.019,0.01-0.025,0.018l-0.389,0.387c-0.215,0.213-0.321,0.496-0.319,0.775
		c-0.001,0.281,0.104,0.562,0.319,0.777l0.389,0.385c0.007,0.01,0.02,0.012,0.025,0.02l5.021,4.994c0.429,0.428,1.124,0.428,1.552,0
		l0.389-0.385c0.43-0.428,0.43-1.119,0-1.547L24.42,125z"/>
	<path fill="#FFFFFF" d="M125,75.758l-5.551-5.578c-0.561-0.562-1.465-0.562-2.021,0l-0.505,0.508c-0.56,0.561-0.56,1.47,0,2.029
		l6.536,6.565c0.008,0.013,0.012,0.024,0.02,0.034l0.506,0.508c0.281,0.281,0.649,0.421,1.017,0.419
		c0.367,0.002,0.735-0.138,1.017-0.419l0.504-0.508c0.012-0.01,0.014-0.024,0.023-0.034l6.534-6.565c0.558-0.561,0.558-1.47,0-2.029
		l-0.504-0.508c-0.56-0.562-1.464-0.562-2.023,0L125,75.758z"/>
	<path fill="#FFFFFF" d="M425.001,71.713l9.667,9.688c0.429,0.431,1.122,0.432,1.548,0l0.387-0.39c0.428-0.429,0.428-1.125,0-1.555
		l-10.422-10.444c-0.005-0.009-0.008-0.019-0.016-0.027l-0.387-0.389c-0.215-0.215-0.497-0.322-0.778-0.32
		c-0.281-0.002-0.562,0.106-0.778,0.322l-0.385,0.387c-0.008,0.009-0.011,0.02-0.02,0.027l-10.42,10.444
		c-0.426,0.429-0.426,1.125,0,1.554l0.388,0.391c0.427,0.43,1.12,0.43,1.549,0L425.001,71.713z"/>
	<path fill="#FFFFFF" d="M375,78.287l-9.667-9.688c-0.429-0.431-1.122-0.432-1.548,0l-0.387,0.39c-0.428,0.429-0.428,1.125,0,1.555
		l10.422,10.445c0.005,0.008,0.008,0.018,0.016,0.026l0.387,0.389c0.215,0.215,0.498,0.322,0.778,0.32
		c0.281,0.002,0.562-0.106,0.778-0.322l0.385-0.387c0.008-0.009,0.011-0.02,0.02-0.026l10.42-10.445
		c0.426-0.429,0.426-1.125,0-1.554l-0.388-0.391c-0.427-0.43-1.12-0.43-1.549,0L375,78.287z"/>
	<path fill="#FFFFFF" d="M174.999,74.243l5.552,5.578c0.56,0.562,1.464,0.562,2.021,0l0.506-0.508c0.559-0.561,0.559-1.471,0-2.03
		l-6.537-6.565c-0.008-0.012-0.01-0.023-0.02-0.033l-0.506-0.508c-0.281-0.281-0.648-0.422-1.016-0.42
		c-0.367-0.002-0.735,0.139-1.018,0.42l-0.503,0.508c-0.012,0.01-0.014,0.023-0.024,0.033l-6.533,6.565
		c-0.557,0.562-0.557,1.47,0,2.03l0.504,0.508c0.559,0.562,1.464,0.562,2.023,0L174.999,74.243z"/>
	<g>
		<path fill="#FFFFFF" d="M275,78.743l5.551,5.578c0.561,0.562,1.465,0.562,2.021,0l0.505-0.508c0.559-0.562,0.559-1.471,0-2.03
			l-6.536-6.565c-0.008-0.012-0.012-0.023-0.02-0.033l-0.506-0.509c-0.281-0.28-0.649-0.421-1.017-0.419
			c-0.367-0.002-0.735,0.139-1.017,0.419l-0.504,0.509c-0.012,0.01-0.014,0.023-0.023,0.033l-6.534,6.565
			c-0.557,0.562-0.557,1.47,0,2.03l0.504,0.508c0.56,0.562,1.464,0.562,2.023,0L275,78.743z"/>
		<path fill="#FFFFFF" d="M275,69.744l5.551,5.578c0.561,0.562,1.465,0.562,2.021,0l0.505-0.509c0.559-0.561,0.559-1.469,0-2.029
			l-6.536-6.564c-0.008-0.013-0.012-0.025-0.02-0.035l-0.506-0.508c-0.281-0.281-0.649-0.421-1.017-0.419
			c-0.367-0.002-0.735,0.138-1.017,0.419l-0.504,0.508c-0.012,0.01-0.014,0.024-0.023,0.035l-6.534,6.564
			c-0.557,0.561-0.557,1.47,0,2.029l0.504,0.509c0.56,0.562,1.464,0.562,2.023,0L275,69.744z"/>
	</g>
	<g id="XMLID_1_">
		<path fill="#FFFFFF" d="M225,71.258l-5.551-5.578c-0.561-0.562-1.465-0.562-2.021,0l-0.505,0.508c-0.56,0.562-0.56,1.471,0,2.03
			l6.536,6.565c0.008,0.012,0.012,0.023,0.02,0.033l0.506,0.508c0.281,0.281,0.649,0.422,1.017,0.42
			c0.367,0.002,0.735-0.139,1.017-0.42l0.504-0.508c0.012-0.01,0.014-0.023,0.023-0.033l6.534-6.565c0.558-0.562,0.558-1.47,0-2.03
			l-0.504-0.508c-0.56-0.562-1.464-0.562-2.022,0L225,71.258z"/>
		<path fill="#FFFFFF" d="M225,80.257l-5.551-5.578c-0.561-0.562-1.465-0.562-2.021,0l-0.505,0.508c-0.56,0.562-0.56,1.47,0,2.03
			l6.536,6.564c0.008,0.013,0.012,0.024,0.02,0.035l0.506,0.508c0.281,0.281,0.649,0.42,1.017,0.418
			c0.367,0.002,0.735-0.137,1.017-0.418l0.504-0.508c0.012-0.011,0.014-0.024,0.023-0.035l6.534-6.564
			c0.558-0.561,0.558-1.471,0-2.03l-0.504-0.508c-0.56-0.562-1.464-0.562-2.022,0L225,80.257z"/>
	</g>
	<g id="more_3_">
		<circle cx="216.125" cy="25" r="2.604"/>
		<circle cx="225.267" cy="25" r="2.604"/>
		<circle cx="233.874" cy="25" r="2.604"/>
	</g>
	<path fill="#FFFFFF" d="M327.476,25l2.689-2.689c0.566-0.566,0.566-1.486,0-2.053l-0.423-0.424c-0.567-0.567-1.486-0.567-2.054,0
		L325,22.522l-2.688-2.688c-0.567-0.567-1.486-0.567-2.054,0l-0.423,0.424c-0.566,0.566-0.566,1.486,0,2.053L322.524,25
		l-2.689,2.688c-0.566,0.567-0.566,1.486,0,2.054l0.423,0.423c0.567,0.567,1.486,0.567,2.054,0.001L325,27.478l2.688,2.689
		c0.566,0.566,1.485,0.566,2.054-0.001l0.423-0.423c0.566-0.567,0.566-1.486,0-2.054L327.476,25z"/>
	<path d="M225.433,124.998l-3.191,5.621c-0.322,0.566-0.322,1.48,0,2.045l0.291,0.512c0.32,0.566,0.84,0.566,1.16,0l3.758-6.615
		c0.006-0.01,0.015-0.012,0.021-0.021l0.291-0.512c0.161-0.283,0.24-0.658,0.239-1.029c0.001-0.371-0.078-0.744-0.239-1.027
		l-0.291-0.51c-0.006-0.012-0.015-0.014-0.021-0.023l-3.758-6.613c-0.32-0.564-0.84-0.564-1.16,0l-0.291,0.508
		c-0.322,0.566-0.322,1.482,0,2.049L225.433,124.998z"/>
	<path opacity="0.2" enable-background="new    " d="M375.434,124.998l-3.191,5.621c-0.322,0.566-0.322,1.48,0,2.045l0.291,0.512
		c0.32,0.566,0.84,0.566,1.16,0l3.758-6.615c0.006-0.01,0.014-0.012,0.02-0.021l0.291-0.512c0.16-0.283,0.24-0.658,0.238-1.029
		c0.001-0.371-0.079-0.744-0.238-1.029l-0.291-0.508c-0.006-0.012-0.015-0.014-0.02-0.023l-3.758-6.613
		c-0.32-0.564-0.84-0.564-1.16,0l-0.291,0.508c-0.322,0.566-0.322,1.482,0,2.049L375.434,124.998z"/>
	<path d="M275.434,124.998l-3.191,5.621c-0.322,0.566-0.322,1.48,0,2.045l0.291,0.512c0.32,0.566,0.84,0.566,1.16,0l3.758-6.615
		c0.006-0.01,0.014-0.012,0.02-0.021l0.291-0.512c0.16-0.283,0.24-0.658,0.238-1.029c0.001-0.371-0.079-0.744-0.238-1.027
		l-0.291-0.51c-0.006-0.012-0.015-0.014-0.02-0.023l-3.758-6.613c-0.32-0.564-0.84-0.564-1.16,0l-0.291,0.508
		c-0.322,0.566-0.322,1.482,0,2.049L275.434,124.998z"/>
	<path opacity="0.5" enable-background="new    " d="M325.433,124.998l-3.19,5.621c-0.322,0.566-0.322,1.48,0,2.045l0.291,0.512
		c0.319,0.566,0.839,0.566,1.159,0l3.758-6.615c0.006-0.01,0.014-0.012,0.019-0.021l0.291-0.512
		c0.161-0.283,0.241-0.658,0.239-1.029c0.001-0.371-0.079-0.744-0.239-1.029l-0.291-0.508c-0.005-0.012-0.015-0.014-0.019-0.023
		l-3.758-6.613c-0.32-0.564-0.84-0.564-1.159,0l-0.291,0.508c-0.322,0.566-0.322,1.482,0,2.049L325.433,124.998z"/>
	<path fill="#FFFFFF" d="M331.5,75.05c0,0.935-0.766,1.7-1.7,1.7h-9.6c-0.935,0-1.7-0.766-1.7-1.7v-0.1c0-0.935,0.766-1.7,1.7-1.7
		h9.6c0.935,0,1.7,0.766,1.7,1.7V75.05z"/>
	<path fill="#FFFFFF" d="M279.943,27.015h-2.928v2.928c0,1.113-0.902,2.015-2.016,2.015s-2.016-0.902-2.016-2.015v-2.928h-2.928
		c-1.113,0-2.015-0.902-2.015-2.015s0.901-2.015,2.015-2.015h2.928v-2.928c0-1.113,0.902-2.015,2.016-2.015s2.016,0.902,2.016,2.015
		v2.928h2.928c1.113,0,2.015,0.902,2.015,2.015S281.057,27.015,279.943,27.015z"/>
	<polygon fill="#FFFFFF" points="424.68,129.5 416,121.967 416.436,120.51 424.693,127.68 433.589,120.5 434,121.977 	"/>
	<polygon fill="#FFFFFF" points="474.68,129.5 466,121.967 466.436,120.51 474.693,127.68 483.589,120.5 484,121.977 	"/>
	<polygon fill="#FFFFFF" points="575.32,120.5 584,128.035 583.564,129.49 575.307,122.32 566.411,129.5 566,128.023 	"/>
	<polygon fill="#FFFFFF" points="525.32,120.5 534,128.035 533.564,129.49 525.307,122.32 516.411,129.5 516,128.023 	"/>
	<path d="M537.747,76.139c-0.337,0.338-0.742,0.504-1.217,0.504s-0.875-0.162-1.203-0.49l-0.389-0.389v10.842
		c0,0.449-0.16,0.836-0.479,1.166c-0.318,0.328-0.711,0.49-1.178,0.49h-4.969v-7.451c0-0.226-0.082-0.418-0.246-0.584
		c-0.164-0.164-0.357-0.246-0.582-0.246h-4.969c-0.224,0-0.418,0.082-0.582,0.246s-0.246,0.358-0.246,0.584v7.451h-4.969
		c-0.466,0-0.859-0.164-1.178-0.49c-0.319-0.328-0.479-0.717-0.479-1.166V75.764l-0.39,0.389c-0.327,0.328-0.728,0.49-1.202,0.49
		s-0.88-0.166-1.216-0.504c-0.337-0.336-0.505-0.74-0.505-1.216c0-0.474,0.164-0.875,0.492-1.202l11.488-11.488
		c0.346-0.346,0.769-0.51,1.269-0.492c0.5-0.018,0.923,0.146,1.269,0.492l11.488,11.488c0.328,0.327,0.492,0.729,0.492,1.202
		C538.252,75.396,538.083,75.803,537.747,76.139z"/>
	<path d="M580.071,78.04c-0.698,0-1.338,0.235-1.85,0.631l-5.293-3.174c0.025-0.162,0.043-0.329,0.043-0.498
		c0-0.17-0.018-0.335-0.043-0.498l5.293-3.174c0.512,0.396,1.15,0.631,1.85,0.631c1.679,0,3.041-1.362,3.041-3.042
		s-1.362-3.042-3.041-3.042c-1.68,0-3.043,1.362-3.043,3.042c0,0.169,0.019,0.336,0.045,0.498l-5.292,3.175
		c-0.513-0.396-1.152-0.631-1.851-0.631c-1.681,0-3.043,1.36-3.043,3.042c0,1.68,1.362,3.042,3.043,3.042
		c0.697,0,1.338-0.235,1.851-0.63l5.292,3.174c-0.026,0.163-0.045,0.328-0.045,0.498c0,1.68,1.363,3.042,3.043,3.042
		c1.679,0,3.041-1.362,3.041-3.042C583.112,79.402,581.75,78.04,580.071,78.04z"/>
	<path fill="#FFFFFF" d="M75,124.422l4.244,4.266c0.428,0.43,1.119,0.43,1.545,0l0.387-0.391c0.428-0.428,0.428-1.123,0-1.551
		l-4.996-5.021c-0.008-0.008-0.01-0.018-0.017-0.025l-0.388-0.387c-0.213-0.217-0.496-0.322-0.775-0.32
		c-0.281-0.002-0.562,0.104-0.777,0.32l-0.385,0.387c-0.009,0.008-0.011,0.018-0.02,0.025l-4.994,5.021
		c-0.428,0.428-0.428,1.123,0,1.551l0.385,0.391c0.428,0.43,1.119,0.43,1.547,0L75,124.422z"/>
	<path fill="#FFFFFF" d="M175,125.58l-4.244-4.266c-0.428-0.43-1.119-0.43-1.545,0l-0.387,0.389c-0.428,0.428-0.428,1.123,0,1.551
		l4.996,5.021c0.008,0.008,0.01,0.018,0.017,0.025l0.388,0.389c0.213,0.215,0.496,0.32,0.775,0.318
		c0.281,0.002,0.562-0.104,0.777-0.318l0.385-0.389c0.009-0.008,0.011-0.02,0.02-0.025l4.994-5.021c0.428-0.428,0.428-1.123,0-1.551
		l-0.385-0.389c-0.428-0.43-1.119-0.43-1.547,0L175,125.58z"/>
	<path fill="#FFFFFF" d="M425.001,20.45l13.379,13.408c0.592,0.595,1.551,0.596,2.143,0l0.533-0.541c0.594-0.594,0.592-1.557,0-2.15
		l-14.422-14.455c-0.006-0.011-0.01-0.025-0.021-0.036l-0.533-0.538c-0.299-0.298-0.689-0.447-1.078-0.443
		c-0.391-0.004-0.779,0.146-1.078,0.445l-0.533,0.536c-0.01,0.011-0.014,0.026-0.025,0.036l-14.422,14.456
		c-0.59,0.595-0.59,1.558,0,2.151l0.535,0.539c0.592,0.596,1.551,0.596,2.145,0L425.001,20.45z"/>
	<path fill="#FFFFFF" d="M374.999,29.55l-13.377-13.408c-0.594-0.595-1.553-0.596-2.145,0l-0.533,0.541
		c-0.594,0.594-0.592,1.557,0,2.15l14.422,14.455c0.008,0.011,0.012,0.025,0.021,0.036l0.535,0.538
		c0.297,0.298,0.688,0.447,1.078,0.443c0.389,0.004,0.777-0.146,1.076-0.445l0.533-0.536c0.012-0.011,0.016-0.026,0.025-0.036
		l14.422-14.456c0.59-0.595,0.59-1.558,0-2.151l-0.535-0.539c-0.592-0.596-1.551-0.596-2.145,0L374.999,29.55z"/>
	<path fill="#FFFFFF" d="M529.55,25l-13.408,13.378c-0.596,0.593-0.596,1.552,0,2.144l0.541,0.533c0.594,0.594,1.557,0.592,2.15,0
		l14.455-14.421c0.01-0.007,0.025-0.011,0.035-0.021l0.539-0.534c0.297-0.298,0.447-0.688,0.443-1.078
		c0.004-0.39-0.146-0.778-0.445-1.077l-0.537-0.533c-0.01-0.011-0.025-0.015-0.035-0.025L518.831,8.942
		c-0.594-0.59-1.557-0.59-2.15,0l-0.539,0.535c-0.596,0.592-0.596,1.551,0,2.145L529.55,25z"/>
	<path fill="#FFFFFF" d="M470.45,25l13.408-13.378c0.594-0.593,0.596-1.552,0-2.144l-0.541-0.533c-0.594-0.594-1.557-0.592-2.15,0
		l-14.455,14.422c-0.012,0.007-0.025,0.011-0.035,0.021l-0.539,0.534c-0.299,0.298-0.447,0.688-0.443,1.078
		c-0.004,0.39,0.146,0.778,0.445,1.077l0.537,0.533c0.01,0.011,0.025,0.015,0.035,0.025l14.455,14.422
		c0.596,0.59,1.559,0.59,2.152,0l0.539-0.536c0.596-0.591,0.596-1.551,0-2.145L470.45,25z"/>
	<g>
		<g>
			<g>
				<path d="M579.521,18.33c0-0.723-0.586-1.307-1.307-1.307h-8.979c-0.692,0-1.254,0.562-1.254,1.254v10.895
					c0,0.723,0.584,1.307,1.307,1.307h8.925c0.722,0,1.308-0.584,1.308-1.307V18.33L579.521,18.33z M578.219,28.184
					c0,0.549-0.443,0.993-0.992,0.993h-6.949c-0.549,0-0.993-0.444-0.993-0.993v-8.9c0-0.549,0.444-0.993,0.993-0.993h6.949
					c0.547,0,0.992,0.444,0.992,0.993V28.184L578.219,28.184z"/>
				<path d="M580.034,19.523v1.301c0.396,0,0.718,0.322,0.718,0.718v9.45c0,0.396-0.32,0.718-0.718,0.718h-7.566
					c-0.378,0-0.685-0.306-0.685-0.685h-1.268v0.645c0,0.723,0.584,1.307,1.307,1.307h8.89c0.722,0,1.306-0.584,1.306-1.307V20.829
					c0-0.722-0.584-1.306-1.306-1.306H580.034z"/>
				<path d="M570.927,21.234h5.765c0.354,0,0.641-0.279,0.641-0.633c0-0.354-0.287-0.635-0.641-0.635h-5.765
					c-0.354,0-0.64,0.28-0.64,0.635C570.287,20.955,570.573,21.234,570.927,21.234z"/>
				<path d="M570.927,23.355h5.765c0.354,0,0.641-0.279,0.641-0.633s-0.287-0.634-0.641-0.634h-5.765
					c-0.354,0-0.64,0.279-0.64,0.634C570.287,23.076,570.573,23.355,570.927,23.355z"/>
				<path d="M570.927,25.479h5.765c0.354,0,0.641-0.279,0.641-0.633s-0.287-0.633-0.641-0.633h-5.765
					c-0.354,0-0.64,0.279-0.64,0.633S570.573,25.479,570.927,25.479z"/>
				<path d="M570.927,27.533h5.765c0.354,0,0.641-0.279,0.641-0.633s-0.287-0.635-0.641-0.635h-5.765
					c-0.354,0-0.64,0.281-0.64,0.635S570.573,27.533,570.927,27.533z"/>
			</g>
		</g>
	</g>
	<g>
		<path d="M624.559,15.805c0.242-0.492,0.642-0.492,0.885,0l2.367,4.795c0.242,0.493,0.888,0.961,1.432,1.041l5.291,0.77
			c0.544,0.079,0.667,0.458,0.273,0.842l-3.83,3.732c-0.394,0.385-0.64,1.142-0.547,1.685l0.904,5.271
			c0.093,0.541-0.229,0.775-0.716,0.521l-4.731-2.487c-0.488-0.257-1.285-0.257-1.771,0l-4.732,2.487
			c-0.486,0.256-0.809,0.022-0.716-0.521l0.903-5.271c0.093-0.542-0.153-1.3-0.547-1.685l-3.83-3.731
			c-0.394-0.384-0.271-0.763,0.274-0.842l5.291-0.769c0.544-0.08,1.189-0.547,1.433-1.041L624.559,15.805z"/>
	</g>
	<g>
		<path d="M630.855,73.465h2.645V66.98c0-0.404-0.332-0.735-0.734-0.735h-15.529c-0.404,0-0.736,0.331-0.736,0.735v6.484h2.646
			c2.775,0,5.115,1.855,5.854,4.393C625.74,75.32,628.08,73.465,630.855,73.465z"/>
		<path d="M629.246,76.292c-1.727,0-3.258,0.813-4.246,2.075c-0.986-1.262-2.52-2.075-4.244-2.075H616.5v6.728
			c0,0.404,0.33,0.735,0.734,0.735h15.529c0.404,0,0.734-0.331,0.734-0.735v-6.728H629.246z"/>
	</g>
	<path d="M477.846,68.464c-2.586-2.586-6.796-2.586-9.383,0c-2.584,2.587-2.584,6.794,0,9.382c2.305,2.301,5.891,2.547,8.475,0.75
		c0.056,0.258,0.181,0.504,0.381,0.703l3.763,3.766c0.55,0.549,1.438,0.549,1.981,0c0.551-0.547,0.551-1.434,0-1.981l-3.765-3.767
		c-0.2-0.199-0.446-0.322-0.702-0.377C480.395,74.352,480.148,70.766,477.846,68.464L477.846,68.464z M476.654,76.657
		c-1.93,1.93-5.072,1.93-7.002,0c-1.928-1.933-1.928-5.072,0-7.005c1.931-1.93,5.072-1.93,7.002,0
		C478.585,71.585,478.585,74.725,476.654,76.657L476.654,76.657z"/>
</g>
<g id="layer-set-3">
</g>
<g id="layer-set-2">
	<g>
		<path d="M629.088,117.234c-1.14-0.822-2.572-1.234-4.295-1.234c-1.312,0-2.418,0.291-3.318,0.869
			c-1.426,0.904-2.185,2.443-2.275,4.613h3.306c0-0.633,0.185-1.24,0.554-1.828c0.369-0.586,0.994-0.879,1.877-0.879
			c0.897,0,1.517,0.238,1.854,0.713c0.339,0.479,0.508,1.006,0.508,1.582c0,0.504-0.252,0.965-0.556,1.383
			c-0.167,0.244-0.389,0.469-0.661,0.674c0,0-1.793,1.15-2.58,2.074c-0.457,0.535-0.498,1.338-0.538,2.49
			c-0.003,0.082,0.028,0.25,0.314,0.25c0.287,0,2.316,0,2.572,0c0.254,0,0.308-0.189,0.312-0.271
			c0.019-0.418,0.065-0.633,0.142-0.875c0.146-0.457,0.538-0.855,0.979-1.199l0.909-0.627c0.822-0.641,1.478-1.166,1.767-1.578
			c0.495-0.676,0.843-1.51,0.843-2.5C630.798,119.273,630.229,118.057,629.088,117.234z M624.739,129.924
			c-1.14-0.035-2.08,0.754-2.116,1.99c-0.036,1.234,0.859,2.051,1.998,2.084c1.189,0.035,2.105-0.729,2.141-1.963
			S625.93,129.959,624.739,129.924z"/>
	</g>
</g>
<g id="layer-set-1">
</g>
</svg>
