<?xml version="1.0" encoding="utf-8"?>
<!-- Generator: Adobe Illustrator 16.0.4, SVG Export Plug-In . SVG Version: 6.00 Build 0)  -->
<!DOCTYPE svg PUBLIC "-//W3C//DTD SVG 1.1//EN" "http://www.w3.org/Graphics/SVG/1.1/DTD/svg11.dtd">
<svg version="1.1" xmlns="http://www.w3.org/2000/svg" xmlns:xlink="http://www.w3.org/1999/xlink" x="0px" y="0px" width="650px"
	 height="50px" viewBox="0 0 650 50" enable-background="new 0 0 650 50" xml:space="preserve">
<g id="red-bg" display="none">
	<rect x="-15.187" y="-7.673" display="inline" opacity="0.27" fill="#FF0000" width="2149.996" height="449.673"/>
</g>
<g id="layer-set-12">
</g>
<g id="layer-set-11">
</g>
<g id="layer-set-10">
</g>
<g id="layer-set-9">
</g>
<g id="layer-set-8">
</g>
<g id="layer-set-7">
</g>
<g id="layer-set-6">
</g>
<g id="layer-set-5">
</g>
<g id="layer-set-4">
</g>
<g id="layer-set-3">
</g>
<g id="layer-set-2">
</g>
<g id="layer-set-1">
	<g>
		<path fill="#00ABC8" d="M87.072,17.512c-0.889,0.396-1.844,0.66-2.846,0.78c1.022-0.612,1.81-1.583,2.178-2.74
			c-0.955,0.567-2.018,0.98-3.146,1.202c-0.903-0.963-2.19-1.564-3.614-1.564c-2.734,0-4.955,2.219-4.955,4.954
			c0,0.39,0.044,0.767,0.129,1.128c-4.116-0.208-7.767-2.179-10.211-5.175c-0.426,0.731-0.67,1.581-0.67,2.49
			c0,1.719,0.875,3.234,2.204,4.124c-0.812-0.028-1.576-0.25-2.244-0.621c-0.001,0.021-0.001,0.041-0.001,0.062
			c0,2.399,1.708,4.4,3.975,4.857c-0.416,0.112-0.854,0.172-1.306,0.172c-0.318,0-0.63-0.031-0.932-0.088
			c0.63,1.967,2.459,3.399,4.627,3.439c-1.695,1.328-3.831,2.121-6.152,2.121c-0.398,0-0.794-0.025-1.181-0.07
			c2.191,1.405,4.795,2.227,7.593,2.227c9.111,0,14.094-7.547,14.094-14.094c0-0.215-0.006-0.429-0.016-0.642
			C85.568,19.378,86.409,18.506,87.072,17.512L87.072,17.512z"/>
	</g>
	<g>
		<g>
			<path fill="#0680AB" d="M187,35.016c0,1.092-0.893,1.984-1.984,1.984h-20.031c-1.092,0-1.984-0.893-1.984-1.984V14.984
				c0-1.091,0.893-1.984,1.984-1.984h20.031c1.092,0,1.984,0.893,1.984,1.984V35.016z"/>
		</g>
		<g>
			<path fill="#FFFFFF" d="M168.615,20.715c1.255,0,2.037-0.833,2.037-1.872c-0.023-1.062-0.781-1.871-2.014-1.871
				c-1.231,0-2.037,0.809-2.037,1.872c0,1.039,0.782,1.872,1.99,1.872L168.615,20.715L168.615,20.715L168.615,20.715z
				 M170.415,33.027V22.194h-3.601v10.833H170.415L170.415,33.027L170.415,33.027z"/>
			<path fill="#FFFFFF" d="M172.408,33.027h3.601v-6.051c0-0.322,0.025-0.648,0.119-0.877c0.261-0.647,0.853-1.318,1.849-1.318
				c1.303,0,1.823,0.994,1.823,2.451v5.795h3.601v-6.213c0-3.327-1.774-4.875-4.146-4.875c-1.942,0-2.795,1.085-3.271,1.825h0.022
				v-1.571h-3.6C172.455,23.21,172.408,33.027,172.408,33.027L172.408,33.027L172.408,33.027z"/>
		</g>
	</g>
	<g>
		
			<linearGradient id="SVGID_1_" gradientUnits="userSpaceOnUse" x1="226.0552" y1="-427.415" x2="226.0552" y2="-446.9062" gradientTransform="matrix(1 0 0 1 -101.0552 463.3594)">
			<stop  offset="0" style="stop-color:#034892"/>
			<stop  offset="1" style="stop-color:#098FFF"/>
		</linearGradient>
		<path fill="url(#SVGID_1_)" d="M137,35.016c0,1.092-0.893,1.984-1.984,1.984h-20.032c-1.091,0-1.984-0.893-1.984-1.984V14.984
			c0-1.091,0.893-1.984,1.984-1.984h20.032c1.092,0,1.984,0.893,1.984,1.984V35.016z"/>
		<path fill="#F70F40" d="M119,13h-4.016c-1.091,0-1.984,0.893-1.984,1.984v1.211h6V13z"/>
		<rect x="119" y="13" fill="#138FFB" width="6" height="3.195"/>
		<rect x="125" y="13" fill="#2DBE10" width="6" height="3.195"/>
		<path fill="#F7C511" d="M135.016,13H131v3.195h6v-1.211C137,13.893,136.107,13,135.016,13z"/>
		<g>
			<polygon fill="#FFFFFF" points="123.777,26.95 121.412,26.95 121.412,24.583 119.833,24.583 119.833,26.95 117.467,26.95 
				117.467,28.525 119.833,28.525 119.833,30.895 121.412,30.895 121.412,28.525 123.777,28.525 			"/>
			<path fill="#FFFFFF" d="M132.534,21.167h-1.351c0,0-3.354,3.02-4.434,2.843l-0.377,2.058c0.699,0.068,3.078-1.354,3.078-1.354
				l-1.527,7.781h2.256L132.534,21.167z"/>
		</g>
	</g>
	<g>
		
			<linearGradient id="SVGID_2_" gradientUnits="userSpaceOnUse" x1="126.0552" y1="-427.415" x2="126.0552" y2="-446.9062" gradientTransform="matrix(1 0 0 1 -101.0552 463.3594)">
			<stop  offset="0" style="stop-color:#39517B"/>
			<stop  offset="1" style="stop-color:#5F7AB2"/>
		</linearGradient>
		<path fill="url(#SVGID_2_)" d="M37,35.016C37,36.108,36.107,37,35.016,37H14.984C13.893,37,13,36.107,13,35.016V14.984
			C13,13.893,13.893,13,14.984,13h20.032C36.108,13,37,13.893,37,14.984V35.016z"/>
		<path fill="#39517B" d="M31.764,20.518h1.363V17.76h-2.955c-1.794,0-3.249,1.455-3.249,3.249v1.65h-2.331v2.758h2.331v8.492h3.625
			v-8.492h2.579v-2.758h-2.579v-0.926C30.548,21.062,31.092,20.518,31.764,20.518"/>
		<path fill="#FFFFFF" d="M31.264,20.101h1.363v-2.758h-2.955c-1.794,0-3.249,1.455-3.249,3.249v1.65h-2.331V25h2.331v8.492h3.625
			V25h2.579v-2.758h-2.579v-0.926C30.048,20.645,30.592,20.101,31.264,20.101"/>
	</g>
	<g>
		<path fill="#00ABC8" d="M237,35c0,1.104-0.896,2-2,2h-20c-1.104,0-2-0.896-2-2V15c0-1.104,0.896-2,2-2h20c1.104,0,2,0.896,2,2V35z
			"/>
		<path fill="#FFFFFF" d="M217.061,20.411c0.461,0.256,6.848,3.791,7.084,3.922c0.237,0.131,0.545,0.195,0.854,0.195
			c0.312,0,0.619-0.063,0.854-0.196c0.238-0.131,6.623-3.666,7.084-3.922c0.461-0.255,0.897-1.057,0.051-1.057h-15.979
			C216.164,19.354,216.6,20.155,217.061,20.411z M233.135,22.358c-0.523,0.282-6.958,3.749-7.279,3.922
			c-0.32,0.173-0.545,0.195-0.854,0.195s-0.533-0.022-0.854-0.195c-0.32-0.173-6.756-3.641-7.278-3.922
			c-0.37-0.199-0.367,0.034-0.367,0.213c0,0.179,0,7.141,0,7.141c0,0.408,0.528,0.935,0.937,0.935h15.127
			c0.41,0,0.937-0.526,0.937-0.934c0,0,0-6.961,0-7.14C233.5,22.392,233.504,22.159,233.135,22.358z"/>
	</g>
	<g>
		<path fill="#25D366" d="M287,35c0,1.104-0.896,2-2,2h-20c-1.104,0-2-0.896-2-2V15c0-1.104,0.896-2,2-2h20c1.104,0,2,0.896,2,2V35z
			"/>
		<path fill-rule="evenodd" clip-rule="evenodd" fill="#FFFFFF" d="M280.792,19.175c-1.537-1.539-3.58-2.387-5.758-2.388
			c-4.486,0-8.137,3.651-8.139,8.139c-0.001,1.435,0.374,2.835,1.086,4.069l-1.155,4.218l4.314-1.133
			c1.189,0.648,2.527,0.991,3.89,0.991h0.003l0,0c4.485,0,8.137-3.651,8.139-8.139C283.174,22.758,282.328,20.713,280.792,19.175
			 M275.035,31.697h-0.003c-1.214,0-2.404-0.327-3.443-0.943l-0.247-0.146l-2.561,0.671l0.684-2.496l-0.161-0.256
			c-0.677-1.076-1.035-2.322-1.034-3.6c0.001-3.73,3.037-6.765,6.768-6.765c1.807,0,3.505,0.705,4.783,1.983
			c1.277,1.279,1.98,2.979,1.979,4.787C281.798,28.662,278.763,31.697,275.035,31.697 M278.745,26.631
			c-0.203-0.103-1.203-0.595-1.389-0.662c-0.187-0.068-0.322-0.102-0.458,0.102c-0.136,0.204-0.525,0.662-0.644,0.798
			c-0.119,0.136-0.237,0.152-0.44,0.051c-0.203-0.103-0.858-0.317-1.636-1.01c-0.604-0.539-1.013-1.205-1.131-1.409
			c-0.118-0.203-0.012-0.313,0.09-0.414c0.091-0.092,0.203-0.238,0.305-0.356c0.102-0.119,0.135-0.204,0.204-0.34
			c0.068-0.136,0.034-0.255-0.017-0.355c-0.051-0.103-0.458-1.104-0.627-1.511c-0.165-0.396-0.333-0.343-0.458-0.349
			c-0.118-0.006-0.253-0.008-0.389-0.008s-0.356,0.051-0.542,0.255c-0.187,0.203-0.712,0.695-0.712,1.696s0.729,1.969,0.83,2.104
			c0.102,0.136,1.434,2.189,3.475,3.07c0.485,0.21,0.864,0.334,1.159,0.429c0.488,0.154,0.931,0.132,1.282,0.08
			c0.391-0.059,1.203-0.492,1.373-0.967c0.169-0.476,0.169-0.883,0.119-0.967C279.083,26.783,278.948,26.732,278.745,26.631"/>
	</g>
</g>
</svg>
