<?xml version="1.0" encoding="utf-8"?>
<!-- Generator: Adobe Illustrator 15.0.0, SVG Export Plug-In  -->
<!DOCTYPE svg PUBLIC "-//W3C//DTD SVG 1.1//EN" "http://www.w3.org/Graphics/SVG/1.1/DTD/svg11.dtd" [
	<!ENTITY ns_flows "http://ns.adobe.com/Flows/1.0/">
]>
<svg version="1.1"
	 xmlns="http://www.w3.org/2000/svg" xmlns:xlink="http://www.w3.org/1999/xlink" xmlns:a="http://ns.adobe.com/AdobeSVGViewerExtensions/3.0/"
	 x="0px" y="0px" width="650px" height="150px" viewBox="749.675 49.673 650 150"
	 overflow="visible" enable-background="new 749.675 49.673 650 150" xml:space="preserve">
<defs>
</defs>
<rect x="811.175" y="122.673" fill="#FFFFFF" width="4" height="4"/>
<rect x="817.175" y="122.673" fill="#FFFFFF" width="21" height="4"/>
<rect x="811.175" y="130.673" fill="#FFFFFF" width="4" height="4"/>
<rect x="817.175" y="130.673" fill="#FFFFFF" width="21" height="4"/>
<rect x="811.175" y="114.673" fill="#FFFFFF" width="4" height="4"/>
<rect x="817.175" y="114.673" fill="#FFFFFF" width="21" height="4"/>
<circle fill="#FFFFFF" cx="960.554" cy="74.673" r="4.022"/>
<circle fill="#FFFFFF" cx="974.675" cy="74.673" r="4.022"/>
<circle fill="#FFFFFF" cx="988.796" cy="74.673" r="4.022"/>
<polygon id="prev_15_" fill="#FFFFFF" points="774.199,74.673 783.533,65.338 779.342,61.148 765.818,74.673 779.342,88.198 
	783.533,84.007 "/>
<polygon id="prev_14_" fill="#FFFFFF" points="874.675,125.15 865.339,115.815 861.15,120.006 874.675,133.531 888.201,120.006 
	884.009,115.815 "/>
<polygon id="prev_13_" fill="#FFFFFF" points="974.675,116.136 963.424,104.885 958.373,109.937 974.675,126.238 990.978,109.937 
	985.924,104.885 "/>
<polygon id="prev_12_" opacity="0.4" fill="#FFFFFF" enable-background="new    " points="974.675,134.359 963.424,123.108 
	958.373,128.159 974.675,144.46 990.978,128.159 985.924,123.108 "/>
<polygon id="prev_11_" fill="#FFFFFF" points="1024.675,133.567 1036.397,145.289 1041.661,140.026 1024.675,123.042 
	1007.69,140.026 1012.955,145.289 "/>
<polygon id="prev_10_" opacity="0.4" fill="#FFFFFF" enable-background="new    " points="1024.675,114.582 1036.397,126.304 
	1041.661,121.041 1024.675,104.057 1007.69,121.041 1012.955,126.304 "/>
<polygon id="next_3_" fill="#FFFFFF" points="825.152,74.673 815.818,84.008 820.008,88.198 833.533,74.673 820.008,61.148 
	815.818,65.339 "/>
<path fill="#FFFFFF" d="M971.675,169.173h2l4,5.5l-4,5.5h-2l3.688-5.5L971.675,169.173z"/>
<path d="M1021.675,169.173h2l4,5.5l-4,5.5h-2l3.688-5.5L1021.675,169.173z"/>
<path opacity="0.2" enable-background="new    " d="M1121.675,169.173h2l4,5.5l-4,5.5h-2l3.688-5.5L1121.675,169.173z"/>
<path opacity="0.5" enable-background="new    " d="M1071.675,169.173h2l4,5.5l-4,5.5h-2l3.688-5.5L1071.675,169.173z"/>
<polygon id="next_2_" fill="#FFFFFF" points="924.675,124.196 934.009,133.531 938.201,129.34 924.675,115.815 911.15,129.34 
	915.341,133.531 "/>
<rect x="1068.782" y="73.494" transform="matrix(-0.7071 -0.7071 0.7071 -0.7071 1781.7349 887.4246)" fill="#FFFFFF" width="11.784" height="2.356"/>
<rect x="1068.785" y="73.495" transform="matrix(0.7071 -0.7071 0.7071 0.7071 261.9637 781.7829)" fill="#FFFFFF" width="11.785" height="2.357"/>
<rect x="1023.175" y="67.173" fill="#FFFFFF" width="3" height="15"/>
<rect x="1017.175" y="73.173" fill="#FFFFFF" width="15" height="3"/>
<polygon id="small_right_2_" fill="#FFFFFF" points="868.675,166.673 868.675,182.673 880.675,174.673 "/>
<polygon id="small_left_8_" fill="#FFFFFF" points="780.675,166.673 780.675,182.673 768.675,174.673 "/>
<polygon id="small_left_7_" fill="#FFFFFF" points="832.675,180.673 816.675,180.673 824.675,168.673 "/>
<polygon id="small_left_6_" fill="#FFFFFF" points="916.675,168.673 932.675,168.673 924.675,180.673 "/>
<path fill="#FFFFFF" d="M866.665,70.673v8h3.521l5.488,3v-14l-5.506,3H866.665z M877.87,71.355l-1.318,1.318
	c0.539,0.451,0.904,1.168,0.904,2s-0.359,1.553-0.899,2.006l1.336,1.334c0.789-0.822,1.289-2.012,1.289-3.34
	C879.18,73.343,878.663,72.177,877.87,71.355z M880.415,68.814L879,70.226c1.027,1.094,1.683,2.674,1.683,4.447
	s-0.654,3.354-1.681,4.449l1.412,1.41c1.39-1.457,2.271-3.534,2.271-5.859C882.684,72.347,881.803,70.271,880.415,68.814z"/>
<polygon fill="#FFFFFF" points="920.673,70.673 917.169,70.673 917.169,78.673 920.692,78.673 926.181,81.673 926.181,67.673 "/>
<path fill="#FFFFFF" d="M774.675,121.354c-1.834,0-3.318,1.486-3.318,3.319s1.484,3.319,3.318,3.319
	c1.832,0,3.318-1.486,3.318-3.319S776.507,121.354,774.675,121.354z M786.675,125.848v-2.35l-3.4-1.266
	c-0.195-0.689-0.471-1.344-0.816-1.951l1.531-3.264l-1.66-1.658l-3.264,1.531c-0.605-0.348-1.262-0.623-1.949-0.816l-1.268-3.401
	h-2.348l-1.268,3.401c-0.689,0.193-1.344,0.469-1.949,0.816l-3.264-1.531l-1.66,1.658l1.531,3.264
	c-0.348,0.607-0.621,1.262-0.816,1.951l-3.4,1.266v2.35l3.4,1.266c0.195,0.689,0.471,1.344,0.816,1.951l-1.531,3.264l1.66,1.658
	l3.264-1.531c0.605,0.347,1.26,0.623,1.949,0.816l1.268,3.401h2.348l1.268-3.401c0.688-0.193,1.344-0.47,1.949-0.816l3.264,1.531
	l1.66-1.658l-1.531-3.264c0.346-0.607,0.621-1.262,0.816-1.951L786.675,125.848z M774.675,130.034c-2.963,0-5.361-2.399-5.361-5.361
	s2.398-5.362,5.361-5.362c2.961,0,5.361,2.4,5.361,5.362S777.636,130.034,774.675,130.034z"/>
<rect x="1069.675" y="123.673" fill="#FFFFFF" width="10" height="2"/>
<polygon fill="#FFFFFF" points="1174.355,179.173 1165.675,171.639 1166.111,170.183 1174.369,177.353 1183.264,170.173 
	1183.675,171.65 "/>
<polygon points="1224.355,179.173 1215.675,171.639 1216.111,170.183 1224.369,177.353 1233.263,170.173 1233.675,171.65 "/>
<polygon fill="#FFFFFF" points="1324.996,170.173 1333.675,177.707 1333.24,179.163 1324.982,171.993 1316.086,179.173 
	1315.675,177.696 "/>
<polygon points="1274.996,170.173 1283.675,177.707 1283.24,179.163 1274.982,171.993 1266.085,179.173 1265.675,177.696 "/>
<path fill="#FFFFFF" d="M1287.421,125.812c-0.338,0.337-0.742,0.504-1.217,0.504s-0.875-0.163-1.203-0.491l-0.389-0.388v10.842
	c0,0.449-0.16,0.836-0.479,1.165c-0.318,0.328-0.711,0.491-1.178,0.491h-4.969v-7.452c0-0.225-0.082-0.418-0.246-0.583
	c-0.164-0.164-0.357-0.246-0.582-0.246h-4.969c-0.225,0-0.418,0.082-0.582,0.246s-0.246,0.358-0.246,0.583v7.452h-4.969
	c-0.467,0-0.859-0.164-1.178-0.491c-0.32-0.328-0.479-0.716-0.479-1.165v-10.842l-0.391,0.388c-0.326,0.328-0.727,0.491-1.201,0.491
	s-0.881-0.167-1.217-0.504c-0.336-0.336-0.504-0.741-0.504-1.216c0-0.474,0.164-0.875,0.492-1.203l11.488-11.488
	c0.346-0.345,0.768-0.51,1.268-0.492c0.5-0.018,0.924,0.147,1.27,0.492l11.488,11.488c0.328,0.328,0.492,0.729,0.492,1.203
	C1287.925,125.069,1287.757,125.475,1287.421,125.812z"/>
<path fill="#FFFFFF" d="M1329.747,127.713c-0.699,0-1.338,0.236-1.85,0.631l-5.293-3.174c0.025-0.162,0.043-0.329,0.043-0.498
	c0-0.17-0.018-0.335-0.043-0.498l5.293-3.174c0.512,0.395,1.15,0.631,1.85,0.631c1.678,0,3.041-1.362,3.041-3.042
	s-1.363-3.042-3.041-3.042c-1.68,0-3.043,1.362-3.043,3.042c0,0.169,0.018,0.336,0.045,0.498l-5.293,3.175
	c-0.512-0.395-1.152-0.631-1.85-0.631c-1.682,0-3.043,1.361-3.043,3.042c0,1.679,1.361,3.042,3.043,3.042
	c0.697,0,1.338-0.236,1.85-0.63l5.293,3.174c-0.027,0.163-0.045,0.328-0.045,0.498c0,1.679,1.363,3.042,3.043,3.042
	c1.678,0,3.041-1.363,3.041-3.042C1332.788,129.075,1331.424,127.713,1329.747,127.713z"/>
<polygon fill="#FFFFFF" points="1135.123,117.497 1124.675,127.944 1114.228,117.498 1112.277,119.45 1124.675,131.849 
	1137.074,119.449 "/>
<polygon fill="#FFFFFF" points="1187.074,129.896 1174.675,117.498 1162.277,129.896 1164.228,131.848 1174.675,121.401 
	1185.123,131.847 "/>
<polygon fill="#FFFFFF" points="1191.175,81.624 1174.675,65.124 1158.175,81.625 1160.773,84.222 1174.675,70.32 1188.578,84.222 
	"/>
<polygon fill="#FFFFFF" points="1138.578,65.124 1124.675,79.027 1110.773,65.125 1108.175,67.722 1124.675,84.222 1124.675,84.221 
	1141.175,67.722 "/>
<polygon fill="#FFFFFF" points="1267.724,91.173 1284.224,74.673 1267.724,58.173 1265.126,60.771 1279.029,74.673 1265.126,88.574 
	"/>
<polygon fill="#FFFFFF" points="1234.224,88.574 1220.322,74.673 1234.222,60.771 1231.626,58.173 1215.126,74.673 1215.126,74.673 
	1231.626,91.173 "/>
<path fill="#FFFFFF" d="M1315.175,63.173v20h16v-20H1315.175z M1329.748,81.827h-13.145V64.519h13.145V81.827z"/>
<path fill="#FFFFFF" d="M1318.175,83.173v3h16v-20h-3v1.346h1.572v17.308h-13.145v-1.654H1318.175z"/>
<rect x="1318.758" y="66.506" fill="#FFFFFF" width="9.083" height="1.417"/>
<rect x="1318.758" y="69.506" fill="#FFFFFF" width="9.083" height="1.417"/>
<rect x="1318.758" y="72.506" fill="#FFFFFF" width="9.083" height="1.417"/>
<rect x="1318.758" y="75.506" fill="#FFFFFF" width="9.083" height="1.417"/>
<rect x="1318.758" y="78.506" fill="#FFFFFF" width="9.083" height="1.417"/>
<polygon fill="#FFFFFF" points="1374.675,64.666 1377.927,71.254 1385.197,72.311 1379.936,77.439 1381.178,84.68 1374.675,81.261 
	1368.172,84.68 1369.414,77.439 1364.154,72.311 1371.423,71.254 "/>
<path fill="#FFFFFF" d="M1227.521,118.136c-2.586-2.586-6.797-2.586-9.383,0c-2.584,2.588-2.584,6.795,0,9.383
	c2.305,2.301,5.891,2.547,8.475,0.75c0.055,0.258,0.18,0.504,0.381,0.703l3.762,3.766c0.551,0.549,1.439,0.549,1.982,0
	c0.551-0.547,0.551-1.434,0-1.982l-3.766-3.766c-0.199-0.199-0.445-0.322-0.701-0.377
	C1230.07,124.025,1229.824,120.439,1227.521,118.136L1227.521,118.136z M1226.33,126.33c-1.93,1.93-5.072,1.93-7.002,0
	c-1.928-1.932-1.928-5.072,0-7.004c1.93-1.93,5.072-1.93,7.002,0C1228.259,121.257,1228.259,124.398,1226.33,126.33L1226.33,126.33z
	"/>
<path fill="#FFFFFF" d="M1380.531,123.138h2.645v-6.485c0-0.404-0.332-0.735-0.734-0.735h-15.529c-0.404,0-0.734,0.331-0.734,0.735
	v6.485h2.645c2.777,0,5.115,1.855,5.855,4.392C1375.416,124.994,1377.755,123.138,1380.531,123.138z"/>
<path fill="#FFFFFF" d="M1378.921,125.965c-1.727,0-3.258,0.814-4.246,2.075c-0.986-1.261-2.52-2.075-4.244-2.075h-4.256v6.728
	c0,0.404,0.332,0.735,0.734,0.735h15.529c0.404,0,0.736-0.331,0.736-0.735v-6.728H1378.921z"/>
<path fill="#FFFFFF" d="M1378.763,166.908c-1.14-0.823-2.572-1.234-4.295-1.234c-1.312,0-2.418,0.29-3.318,0.868
	c-1.426,0.905-2.185,2.444-2.275,4.614h3.306c0-0.633,0.185-1.241,0.554-1.828c0.369-0.586,0.994-0.879,1.877-0.879
	c0.897,0,1.517,0.238,1.854,0.713c0.339,0.478,0.508,1.005,0.508,1.582c0,0.504-0.252,0.964-0.556,1.383
	c-0.167,0.244-0.389,0.468-0.661,0.674c0,0-1.793,1.15-2.58,2.074c-0.457,0.535-0.498,1.338-0.538,2.49
	c-0.003,0.082,0.028,0.25,0.314,0.25c0.287,0,2.316,0,2.572,0c0.254,0,0.308-0.189,0.312-0.271c0.019-0.419,0.065-0.633,0.142-0.875
	c0.146-0.457,0.538-0.855,0.979-1.199l0.909-0.628c0.822-0.64,1.478-1.165,1.767-1.577c0.495-0.677,0.843-1.511,0.843-2.5
	C1380.473,168.947,1379.904,167.73,1378.763,166.908z M1374.415,179.596c-1.14-0.034-2.08,0.754-2.116,1.99
	c-0.036,1.235,0.859,2.052,1.998,2.085c1.189,0.035,2.105-0.729,2.141-1.963C1376.472,180.473,1375.605,179.631,1374.415,179.596z"
	/>
</svg>
