<?xml version="1.0" encoding="utf-8"?>
<!-- Generator: Adobe Illustrator 15.0.0, SVG Export Plug-In  -->
<!DOCTYPE svg PUBLIC "-//W3C//DTD SVG 1.1//EN" "http://www.w3.org/Graphics/SVG/1.1/DTD/svg11.dtd" [
	<!ENTITY ns_flows "http://ns.adobe.com/Flows/1.0/">
]>
<svg version="1.1"
	 xmlns="http://www.w3.org/2000/svg" xmlns:xlink="http://www.w3.org/1999/xlink" xmlns:a="http://ns.adobe.com/AdobeSVGViewerExtensions/3.0/"
	 x="0px" y="0px" width="650px" height="150px" viewBox="1449.675 49.673 650 150"
	 overflow="visible" enable-background="new 1449.675 49.673 650 150" xml:space="preserve">
<defs>
</defs>
<path fill="#FFFFFF" d="M1474.675,65.673c-4.968,0-9,4.032-9,9s4.032,9,9,9s9-4.032,9-9S1479.643,65.673,1474.675,65.673
	L1474.675,65.673z M1474.675,82.472c-4.301,0-7.799-3.498-7.799-7.799s3.498-7.799,7.799-7.799s7.799,3.498,7.799,7.799
	S1478.976,82.472,1474.675,82.472L1474.675,82.472z"/>
<path fill="#FFFFFF" d="M1476.597,70.355c-0.234-0.234-0.615-0.234-0.85,0l-3.891,3.891c-0.117,0.117-0.177,0.274-0.177,0.428
	c0,0.154,0.06,0.311,0.177,0.428l3.891,3.891c0.234,0.234,0.615,0.234,0.85,0c0.235-0.233,0.235-0.615,0-0.851l-3.469-3.469
	l3.469-3.468C1476.833,70.97,1476.833,70.588,1476.597,70.355L1476.597,70.355z"/>
<path fill="#FFFFFF" d="M1474.675,165.673c-4.968,0-9,4.032-9,9s4.032,9,9,9s9-4.032,9-9S1479.643,165.673,1474.675,165.673
	L1474.675,165.673z M1474.675,182.472c-4.301,0-7.799-3.498-7.799-7.799s3.498-7.799,7.799-7.799s7.799,3.498,7.799,7.799
	S1478.976,182.472,1474.675,182.472L1474.675,182.472z"/>
<path fill="#FFFFFF" d="M1476.597,170.355c-0.234-0.234-0.615-0.234-0.85,0l-3.891,3.891c-0.117,0.117-0.177,0.274-0.177,0.428
	s0.06,0.311,0.177,0.428l3.891,3.891c0.234,0.234,0.615,0.234,0.85,0c0.235-0.233,0.235-0.615,0-0.851l-3.469-3.468l3.469-3.468
	C1476.833,170.97,1476.833,170.588,1476.597,170.355L1476.597,170.355z"/>
<path fill="#FFFFFF" d="M1533.675,174.673c0-4.968-4.031-9-9-9c-4.967,0-9,4.032-9,9s4.033,9,9,9
	C1529.644,183.673,1533.675,179.641,1533.675,174.673L1533.675,174.673z M1516.876,174.673c0-4.301,3.498-7.799,7.799-7.799
	s7.799,3.498,7.799,7.799s-3.498,7.799-7.799,7.799S1516.876,178.974,1516.876,174.673L1516.876,174.673z"/>
<path fill="#FFFFFF" d="M1528.994,176.595c0.234-0.234,0.234-0.615,0-0.85l-3.891-3.891c-0.117-0.117-0.275-0.176-0.428-0.176
	c-0.154,0-0.312,0.059-0.43,0.176l-3.891,3.891c-0.234,0.234-0.234,0.615,0,0.85c0.234,0.235,0.615,0.235,0.852,0l3.469-3.469
	l3.467,3.469C1528.378,176.83,1528.761,176.83,1528.994,176.595L1528.994,176.595z"/>
<path fill="#FFFFFF" d="M1574.675,183.673c4.967,0,9-4.032,9-9s-4.033-9-9-9c-4.969,0-9,4.032-9,9
	S1569.707,183.673,1574.675,183.673L1574.675,183.673z M1574.675,166.874c4.301,0,7.799,3.498,7.799,7.799s-3.498,7.799-7.799,7.799
	s-7.799-3.498-7.799-7.799S1570.375,166.874,1574.675,166.874L1574.675,166.874z"/>
<path fill="#FFFFFF" d="M1572.753,178.991c0.234,0.234,0.615,0.234,0.85,0l3.891-3.891c0.117-0.117,0.176-0.274,0.176-0.428
	s-0.059-0.311-0.176-0.428l-3.891-3.891c-0.234-0.234-0.615-0.234-0.85,0c-0.236,0.233-0.236,0.615,0,0.851l3.469,3.468
	l-3.469,3.468C1572.517,178.376,1572.517,178.758,1572.753,178.991L1572.753,178.991z"/>
<path fill="#FFFFFF" d="M1674.674,181.873c3.975,0,7.201-3.226,7.201-7.2s-3.227-7.2-7.201-7.2c-3.974,0-7.199,3.226-7.199,7.2
	S1670.701,181.873,1674.674,181.873L1674.674,181.873z M1674.674,168.434c3.44,0,6.24,2.799,6.24,6.239s-2.8,6.239-6.24,6.239
	c-3.439,0-6.238-2.799-6.238-6.239S1671.235,168.434,1674.674,168.434L1674.674,168.434z"/>
<path fill="#FFFFFF" d="M1673.137,178.128c0.188,0.188,0.492,0.188,0.681,0l3.112-3.112c0.095-0.094,0.142-0.22,0.142-0.342
	s-0.047-0.249-0.142-0.342l-3.112-3.112c-0.188-0.188-0.492-0.188-0.681,0c-0.188,0.187-0.188,0.492,0,0.68l2.775,2.774
	l-2.775,2.774C1672.95,177.635,1672.95,177.941,1673.137,178.128L1673.137,178.128z"/>
<path d="M1724.675,181.873c3.975,0,7.201-3.226,7.201-7.2s-3.227-7.2-7.201-7.2s-7.199,3.226-7.199,7.2
	S1720.701,181.873,1724.675,181.873L1724.675,181.873z M1724.675,168.434c3.439,0,6.24,2.799,6.24,6.239s-2.801,6.239-6.24,6.239
	s-6.238-2.799-6.238-6.239S1721.236,168.434,1724.675,168.434L1724.675,168.434z"/>
<path d="M1723.138,178.128c0.188,0.188,0.492,0.188,0.68,0l3.113-3.112c0.094-0.094,0.141-0.22,0.141-0.342
	s-0.047-0.249-0.141-0.342l-3.113-3.112c-0.188-0.188-0.492-0.188-0.68,0c-0.188,0.187-0.188,0.492,0,0.68l2.775,2.774l-2.775,2.774
	C1722.951,177.635,1722.951,177.941,1723.138,178.128L1723.138,178.128z"/>
<path d="M1774.674,181.873c3.975,0,7.201-3.226,7.201-7.2s-3.227-7.2-7.201-7.2c-3.974,0-7.199,3.226-7.199,7.2
	S1770.701,181.873,1774.674,181.873L1774.674,181.873z M1774.674,168.434c3.44,0,6.24,2.799,6.24,6.239s-2.8,6.239-6.24,6.239
	c-3.439,0-6.238-2.799-6.238-6.239S1771.235,168.434,1774.674,168.434L1774.674,168.434z"/>
<path d="M1773.137,178.128c0.188,0.188,0.492,0.188,0.681,0l3.112-3.112c0.095-0.094,0.142-0.22,0.142-0.342
	s-0.047-0.249-0.142-0.342l-3.112-3.112c-0.188-0.188-0.492-0.188-0.681,0c-0.188,0.187-0.188,0.492,0,0.68l2.775,2.774
	l-2.775,2.774C1772.95,177.635,1772.95,177.941,1773.137,178.128L1773.137,178.128z"/>
<path d="M1824.674,181.873c3.975,0,7.201-3.226,7.201-7.2s-3.227-7.2-7.201-7.2c-3.974,0-7.199,3.226-7.199,7.2
	S1820.701,181.873,1824.674,181.873L1824.674,181.873z M1824.674,168.434c3.44,0,6.24,2.799,6.24,6.239s-2.8,6.239-6.24,6.239
	c-3.439,0-6.238-2.799-6.238-6.239S1821.235,168.434,1824.674,168.434L1824.674,168.434z"/>
<path d="M1823.137,178.128c0.188,0.188,0.492,0.188,0.681,0l3.112-3.112c0.095-0.094,0.142-0.22,0.142-0.342
	s-0.047-0.249-0.142-0.342l-3.112-3.112c-0.188-0.188-0.492-0.188-0.681,0c-0.188,0.187-0.188,0.492,0,0.68l2.775,2.774
	l-2.775,2.774C1822.95,177.635,1822.95,177.941,1823.137,178.128L1823.137,178.128z"/>
<path fill="#FFFFFF" d="M1867.475,174.673c0,3.974,3.226,7.2,7.2,7.2s7.2-3.226,7.2-7.2s-3.226-7.2-7.2-7.2
	S1867.475,170.699,1867.475,174.673L1867.475,174.673z M1880.914,174.673c0,3.44-2.799,6.239-6.238,6.239s-6.238-2.799-6.238-6.239
	s2.799-6.239,6.238-6.239S1880.914,171.233,1880.914,174.673L1880.914,174.673z"/>
<path fill="#FFFFFF" d="M1871.22,173.135c-0.188,0.188-0.188,0.492,0,0.68l3.112,3.113c0.094,0.094,0.22,0.141,0.342,0.141
	s0.249-0.047,0.342-0.141l3.112-3.113c0.188-0.188,0.188-0.492,0-0.68s-0.492-0.188-0.68,0l-2.774,2.775l-2.774-2.775
	C1871.713,172.947,1871.408,172.947,1871.22,173.135L1871.22,173.135z"/>
<path d="M1917.474,174.673c0,3.974,3.227,7.2,7.201,7.2s7.199-3.226,7.199-7.2s-3.225-7.2-7.199-7.2
	S1917.474,170.699,1917.474,174.673L1917.474,174.673z M1930.914,174.673c0,3.44-2.799,6.239-6.238,6.239s-6.238-2.799-6.238-6.239
	s2.799-6.239,6.238-6.239S1930.914,171.233,1930.914,174.673L1930.914,174.673z"/>
<path d="M1921.22,173.135c-0.188,0.188-0.188,0.492,0,0.68l3.111,3.113c0.094,0.094,0.221,0.141,0.342,0.141
	c0.123,0,0.25-0.047,0.342-0.141l3.113-3.113c0.188-0.188,0.188-0.492,0-0.68s-0.492-0.188-0.68,0l-2.775,2.775l-2.773-2.775
	C1921.712,172.947,1921.408,172.947,1921.22,173.135L1921.22,173.135z"/>
<path fill="#FFFFFF" d="M2031.875,174.673c0-3.974-3.226-7.2-7.2-7.2s-7.2,3.226-7.2,7.2s3.226,7.2,7.2,7.2
	S2031.875,178.647,2031.875,174.673L2031.875,174.673z M2018.437,174.673c0-3.44,2.799-6.239,6.238-6.239s6.238,2.799,6.238,6.239
	s-2.799,6.239-6.238,6.239S2018.437,178.113,2018.437,174.673L2018.437,174.673z"/>
<path fill="#FFFFFF" d="M2028.13,176.211c0.188-0.188,0.188-0.492,0-0.68l-3.112-3.113c-0.094-0.094-0.22-0.141-0.342-0.141
	s-0.249,0.047-0.342,0.141l-3.112,3.113c-0.188,0.188-0.188,0.492,0,0.68s0.492,0.188,0.68,0l2.774-2.775l2.774,2.775
	C2027.637,176.399,2027.943,176.399,2028.13,176.211L2028.13,176.211z"/>
<path d="M1981.875,174.673c0-3.974-3.226-7.2-7.2-7.2s-7.2,3.226-7.2,7.2s3.226,7.2,7.2,7.2S1981.875,178.647,1981.875,174.673
	L1981.875,174.673z M1968.437,174.673c0-3.44,2.799-6.239,6.238-6.239s6.238,2.799,6.238,6.239s-2.799,6.239-6.238,6.239
	S1968.437,178.113,1968.437,174.673L1968.437,174.673z"/>
<path d="M1978.13,176.211c0.188-0.188,0.188-0.492,0-0.68l-3.112-3.113c-0.094-0.094-0.22-0.141-0.342-0.141
	s-0.249,0.047-0.342,0.141l-3.112,3.113c-0.188,0.188-0.188,0.492,0,0.68s0.492,0.188,0.68,0l2.774-2.775l2.774,2.775
	C1977.637,176.399,1977.943,176.399,1978.13,176.211L1978.13,176.211z"/>
<path fill="#FFFFFF" d="M1615.675,174.673c0,4.968,4.032,9,9,9s9-4.032,9-9s-4.032-9-9-9S1615.675,169.705,1615.675,174.673
	L1615.675,174.673z M1632.474,174.673c0,4.301-3.498,7.799-7.799,7.799s-7.799-3.498-7.799-7.799s3.498-7.799,7.799-7.799
	S1632.474,170.372,1632.474,174.673L1632.474,174.673z"/>
<path fill="#FFFFFF" d="M1620.357,172.751c-0.233,0.234-0.233,0.615,0,0.85l3.892,3.891c0.116,0.117,0.274,0.176,0.428,0.176
	s0.312-0.059,0.429-0.176l3.891-3.891c0.234-0.234,0.234-0.615,0-0.85c-0.233-0.235-0.615-0.235-0.852,0l-3.468,3.469l-3.468-3.469
	C1620.972,172.516,1620.59,172.516,1620.357,172.751L1620.357,172.751z"/>
<path fill="#FFFFFF" d="M1814.959,69.34c-0.527,0.527-0.527,1.385,0,1.912l8.754,8.754c0.264,0.264,0.618,0.396,0.962,0.396
	s0.699-0.133,0.962-0.396l8.754-8.754c0.527-0.527,0.527-1.384,0-1.912c-0.524-0.529-1.384-0.529-1.914,0l-7.802,7.805l-7.803-7.805
	C1816.343,68.811,1815.484,68.811,1814.959,69.34L1814.959,69.34z"/>
<path fill="#FFFFFF" d="M1884.391,80.005c0.527-0.527,0.527-1.385,0-1.912l-8.754-8.754c-0.264-0.264-0.618-0.396-0.962-0.396
	s-0.699,0.133-0.962,0.396l-8.754,8.754c-0.527,0.527-0.527,1.384,0,1.912c0.524,0.529,1.384,0.529,1.914,0l7.802-7.805l7.803,7.805
	C1883.007,80.535,1883.867,80.535,1884.391,80.005L1884.391,80.005z"/>
<path fill="#FFFFFF" d="M1930.007,64.957c-0.527-0.527-1.383-0.527-1.912,0l-8.754,8.754c-0.264,0.264-0.396,0.618-0.396,0.962
	s0.133,0.699,0.396,0.962l8.754,8.754c0.527,0.527,1.385,0.527,1.912,0c0.529-0.524,0.529-1.384,0-1.914l-7.805-7.802l7.805-7.803
	C1930.537,66.341,1930.537,65.481,1930.007,64.957L1930.007,64.957z"/>
<path fill="#FFFFFF" d="M1969.342,84.389c0.527,0.527,1.384,0.527,1.912,0l8.754-8.754c0.264-0.264,0.396-0.618,0.396-0.962
	s-0.133-0.699-0.396-0.962l-8.754-8.754c-0.527-0.527-1.385-0.527-1.912,0c-0.529,0.524-0.529,1.384,0,1.914l7.805,7.803
	l-7.805,7.804C1968.813,83.005,1968.813,83.864,1969.342,84.389L1969.342,84.389z"/>
<path fill="#FFFFFF" d="M1818.197,121.118c-0.352,0.352-0.352,0.923,0,1.274l5.836,5.836c0.177,0.176,0.412,0.264,0.643,0.264
	s0.466-0.088,0.643-0.264l5.836-5.836c0.352-0.352,0.352-0.923,0-1.274c-0.351-0.353-0.924-0.353-1.276,0l-5.202,5.203l-5.202-5.203
	C1819.121,120.765,1818.548,120.765,1818.197,121.118L1818.197,121.118z"/>
<path fill="#FFFFFF" d="M1881.154,128.228c0.352-0.352,0.352-0.923,0-1.274l-5.836-5.836c-0.177-0.176-0.412-0.264-0.643-0.264
	s-0.466,0.088-0.643,0.264l-5.836,5.836c-0.352,0.352-0.352,0.923,0,1.274c0.351,0.353,0.924,0.353,1.276,0l5.202-5.203l5.202,5.203
	C1880.23,128.581,1880.802,128.581,1881.154,128.228L1881.154,128.228z"/>
<path fill="#FFFFFF" d="M1661.175,124.673c0,7.452,6.048,13.5,13.5,13.5s13.5-6.048,13.5-13.5s-6.048-13.5-13.5-13.5
	S1661.175,117.221,1661.175,124.673L1661.175,124.673z M1686.374,124.673c0,6.451-5.247,11.698-11.698,11.698
	s-11.698-5.247-11.698-11.698s5.247-11.698,11.698-11.698S1686.374,118.222,1686.374,124.673L1686.374,124.673z"/>
<path fill="#FFFFFF" d="M1668.197,121.79c-0.352,0.352-0.352,0.923,0,1.274l5.836,5.836c0.177,0.176,0.412,0.264,0.643,0.264
	s0.466-0.088,0.643-0.264l5.836-5.836c0.352-0.352,0.352-0.923,0-1.274c-0.351-0.353-0.924-0.353-1.276,0l-5.202,5.203l-5.202-5.203
	C1669.121,121.437,1668.548,121.437,1668.197,121.79L1668.197,121.79z"/>
<path fill="#FFFFFF" d="M1738.175,124.673c0-7.452-6.047-13.5-13.5-13.5c-7.451,0-13.5,6.048-13.5,13.5s6.049,13.5,13.5,13.5
	C1732.128,138.173,1738.175,132.125,1738.175,124.673L1738.175,124.673z M1712.978,124.673c0-6.451,5.246-11.698,11.697-11.698
	s11.699,5.247,11.699,11.698s-5.248,11.698-11.699,11.698S1712.978,131.124,1712.978,124.673L1712.978,124.673z"/>
<path fill="#FFFFFF" d="M1731.154,127.556c0.352-0.352,0.352-0.923,0-1.274l-5.836-5.836c-0.176-0.176-0.412-0.264-0.643-0.264
	s-0.465,0.088-0.643,0.264l-5.836,5.836c-0.352,0.352-0.352,0.923,0,1.274c0.352,0.353,0.924,0.353,1.277,0l5.201-5.203l5.203,5.203
	C1730.23,127.909,1730.802,127.909,1731.154,127.556L1731.154,127.556z"/>
<path fill="#FFFFFF" d="M1624.676,115.714c-4.946,0-8.96,4.013-8.96,8.958c0,4.952,4.014,8.959,8.96,8.959
	c4.949,0,8.957-4.008,8.957-8.959S1629.625,115.714,1624.676,115.714L1624.676,115.714z M1624.676,132.43
	c-4.278,0-7.759-3.475-7.759-7.758c0-4.277,3.48-7.758,7.759-7.758c4.282,0,7.763,3.481,7.763,7.758
	C1632.439,128.95,1628.958,132.43,1624.676,132.43L1624.676,132.43z"/>
<path fill="#FFFFFF" d="M1625.062,121.813c-0.117-0.117-0.27-0.176-0.429-0.176c-0.151,0-0.304,0.059-0.421,0.176l-3.893,3.891
	c-0.232,0.234-0.232,0.615,0,0.849c0.236,0.234,0.611,0.234,0.846,0l3.468-3.468l3.478,3.468c0.228,0.234,0.607,0.234,0.842,0
	s0.234-0.615,0-0.849L1625.062,121.813z"/>
<path fill="#FFFFFF" d="M1524.679,65.717c-4.951,0-8.959,4.007-8.959,8.958c0,4.946,4.008,8.954,8.959,8.954
	c4.945,0,8.951-4.008,8.951-8.954C1533.63,69.724,1529.625,65.717,1524.679,65.717L1524.679,65.717z M1524.679,82.427
	c-4.277,0-7.758-3.475-7.758-7.752c0-4.276,3.48-7.758,7.758-7.758s7.752,3.481,7.752,7.758
	C1532.431,78.953,1528.957,82.427,1524.679,82.427L1524.679,82.427z"/>
<path fill="#FFFFFF" d="M1523.56,70.31c-0.234-0.234-0.609-0.234-0.844,0c-0.234,0.234-0.234,0.615,0,0.85l3.469,3.468l-3.469,3.469
	c-0.234,0.234-0.234,0.615,0,0.849c0.232,0.234,0.607,0.234,0.844,0l3.896-3.891c0.117-0.117,0.176-0.275,0.172-0.428
	c0-0.153-0.055-0.305-0.172-0.422L1523.56,70.31z"/>
<path fill="#FFFFFF" d="M1774.675,65.673c-4.968,0-9,4.032-9,9s4.032,9,9,9s9-4.032,9-9S1779.643,65.673,1774.675,65.673
	L1774.675,65.673z M1774.675,82.472c-4.301,0-7.799-3.498-7.799-7.799s3.498-7.799,7.799-7.799s7.799,3.498,7.799,7.799
	S1778.976,82.472,1774.675,82.472L1774.675,82.472z"/>
<path fill="#FFFFFF" d="M1777.998,70.501l-3.299,3.299l-2.959-3.299c-0.233-0.235-0.615-0.235-0.85,0
	c-0.236,0.234-0.236,0.615,0,0.85l2.958,3.298l-3.339,3.347c-0.236,0.234-0.236,0.615,0,0.85c0.229,0.235,0.607,0.235,0.843,0
	l3.298-3.299l2.961,3.299c0.232,0.235,0.614,0.235,0.849,0c0.235-0.234,0.235-0.615,0-0.85l-2.958-3.298l3.346-3.347
	c0.235-0.234,0.235-0.615,0-0.85C1778.613,70.266,1778.232,70.266,1777.998,70.501L1777.998,70.501z"/>
<path fill="#FFFFFF" d="M1574.679,115.717c-4.952,0-8.96,4.008-8.96,8.957c0,4.946,4.008,8.954,8.96,8.954
	c4.944,0,8.951-4.008,8.951-8.954C1583.63,119.725,1579.624,115.717,1574.679,115.717L1574.679,115.717z M1574.679,132.433
	c-4.278,0-7.759-3.48-7.759-7.759c0-4.276,3.48-7.756,7.759-7.756c4.276,0,7.752,3.479,7.752,7.756
	C1582.431,128.952,1578.956,132.433,1574.679,132.433L1574.679,132.433z"/>
<path fill="#FFFFFF" d="M1578.1,122.713l-3.47,3.468l-3.468-3.468c-0.233-0.234-0.615-0.234-0.852,0
	c-0.234,0.233-0.234,0.614,0,0.849l3.896,3.891c0.117,0.117,0.271,0.176,0.422,0.176c0.158,0,0.311-0.059,0.43-0.176l3.889-3.891
	c0.236-0.234,0.236-0.615,0-0.849C1578.715,122.479,1578.334,122.479,1578.1,122.713L1578.1,122.713z"/>
<path fill="#FFFFFF" d="M1524.675,115.673c-4.967,0-9,4.032-9,9s4.033,9,9,9c4.969,0,9-4.032,9-9S1529.644,115.673,1524.675,115.673
	L1524.675,115.673z M1524.675,132.472c-4.301,0-7.799-3.498-7.799-7.799s3.498-7.799,7.799-7.799s7.799,3.498,7.799,7.799
	S1528.976,132.472,1524.675,132.472L1524.675,132.472z"/>
<path fill="#FFFFFF" d="M1529.474,124.076h-9.598c-0.334,0-0.604,0.262-0.604,0.597c0,0.328,0.271,0.597,0.604,0.597h9.598
	c0.334,0,0.604-0.269,0.604-0.597C1530.078,124.338,1529.808,124.076,1529.474,124.076L1529.474,124.076z"/>
<path fill="#FFFFFF" d="M1529.474,120.472h-9.598c-0.334,0-0.604,0.27-0.604,0.604c0,0.326,0.271,0.597,0.604,0.597h9.598
	c0.334,0,0.604-0.271,0.604-0.597C1530.078,120.741,1529.808,120.472,1529.474,120.472L1529.474,120.472z"/>
<path fill="#FFFFFF" d="M1529.474,127.673h-9.598c-0.334,0-0.604,0.271-0.604,0.597c0,0.335,0.271,0.604,0.604,0.604h9.598
	c0.334,0,0.604-0.27,0.604-0.604C1530.078,127.944,1529.808,127.673,1529.474,127.673L1529.474,127.673z"/>
<path fill="#FFFFFF" d="M1624.86,69.555l-0.047-0.003c-0.105,0-0.227,0.031-0.367,0.116c0,0-2.668,2.328-2.783,2.443h-1.467
	c-0.354,0-0.641,0.288-0.641,0.641v3.922c0,0.354,0.287,0.641,0.641,0.641h1.467c0.115,0.113,2.783,2.359,2.783,2.359
	c0.141,0.084,0.26,0.119,0.367,0.119l0.047-0.003c0.236-0.022,0.406-0.219,0.455-0.428v-9.378
	C1625.266,69.773,1625.096,69.576,1624.86,69.555L1624.86,69.555z M1624.674,79.03c-0.998-0.841-2.443-2.062-2.562-2.172
	c-0.117-0.119-0.281-0.185-0.449-0.185h-1.465v-3.921h1.465c0.162,0,0.328-0.069,0.447-0.182c0.115-0.109,1.562-1.375,2.564-2.252
	V79.03z"/>
<path fill="#FFFFFF" d="M1628.577,74.67l1.104-1.102c0.154-0.154,0.154-0.4,0-0.554c-0.152-0.153-0.398-0.153-0.553,0l-1.104,1.107
	l-1.105-1.107c-0.148-0.153-0.4-0.153-0.549,0c-0.154,0.154-0.154,0.4,0,0.554l1.102,1.102l-1.102,1.106
	c-0.154,0.153-0.154,0.4,0,0.553c0.148,0.15,0.4,0.15,0.549,0l1.105-1.106l1.104,1.106c0.152,0.15,0.4,0.15,0.553,0
	c0.154-0.153,0.154-0.4,0-0.553L1628.577,74.67z"/>
<path fill="#FFFFFF" d="M1724.675,65.673c-4.967,0-9,4.032-9,9s4.033,9,9,9c4.969,0,9-4.032,9-9S1729.644,65.673,1724.675,65.673
	L1724.675,65.673z M1724.675,82.472c-4.301,0-7.799-3.498-7.799-7.799s3.498-7.799,7.799-7.799s7.799,3.498,7.799,7.799
	S1728.976,82.472,1724.675,82.472L1724.675,82.472z"/>
<path fill="#FFFFFF" d="M1729.474,74.076h-4.201v-4.202c0-0.334-0.27-0.604-0.598-0.604c-0.334,0-0.598,0.271-0.598,0.604v4.202
	h-4.201c-0.334,0-0.604,0.262-0.604,0.597c0,0.328,0.271,0.597,0.604,0.597h4.201v4.202c0,0.334,0.264,0.604,0.598,0.604
	c0.328,0,0.598-0.271,0.598-0.604V75.27h4.201c0.334,0,0.604-0.269,0.604-0.597C1730.078,74.338,1729.808,74.076,1729.474,74.076
	L1729.474,74.076z"/>
<path fill="#FFFFFF" d="M1774.675,115.673c-4.968,0-9,4.032-9,9s4.032,9,9,9s9-4.032,9-9S1779.643,115.673,1774.675,115.673
	L1774.675,115.673z M1774.675,132.472c-4.301,0-7.799-3.498-7.799-7.799s3.498-7.799,7.799-7.799s7.799,3.498,7.799,7.799
	S1778.976,132.472,1774.675,132.472L1774.675,132.472z"/>
<path fill="#FFFFFF" d="M1779.474,124.076h-9.598c-0.334,0-0.604,0.262-0.604,0.597c0,0.328,0.271,0.597,0.604,0.597h9.598
	c0.334,0,0.604-0.269,0.604-0.597C1780.078,124.338,1779.808,124.076,1779.474,124.076L1779.474,124.076z"/>
<path fill="#FFFFFF" d="M1575.02,69.555l-0.047-0.003c-0.105,0-0.226,0.031-0.367,0.116c0,0-2.668,2.328-2.783,2.443h-1.467
	c-0.354,0-0.641,0.288-0.641,0.641v3.922c0,0.354,0.287,0.641,0.641,0.641h1.467c0.115,0.113,2.783,2.359,2.783,2.359
	c0.142,0.084,0.261,0.119,0.367,0.119l0.047-0.003c0.236-0.022,0.406-0.219,0.455-0.428v-9.378
	C1575.426,69.773,1575.256,69.576,1575.02,69.555L1575.02,69.555z M1574.834,79.03c-0.997-0.841-2.443-2.062-2.562-2.172
	c-0.117-0.119-0.28-0.185-0.448-0.185h-1.466v-3.921h1.466c0.161,0,0.327-0.069,0.446-0.182c0.115-0.109,1.562-1.375,2.564-2.252
	V79.03z"/>
<path fill="#FFFFFF" d="M1576.463,75.789c-0.16,0.081-0.223,0.272-0.145,0.431c0.057,0.109,0.17,0.175,0.287,0.175
	c0.047,0,0.098-0.013,0.145-0.035c0.646-0.325,1.047-0.972,1.047-1.691c0-0.715-0.4-1.362-1.047-1.69
	c-0.159-0.078-0.35-0.015-0.432,0.144c-0.078,0.156-0.016,0.35,0.145,0.428c0.428,0.218,0.697,0.647,0.697,1.118
	C1577.161,75.145,1576.891,75.574,1576.463,75.789L1576.463,75.789z"/>
<path fill="#FFFFFF" d="M1576.397,70.745c-0.172-0.035-0.344,0.082-0.375,0.253c-0.033,0.175,0.078,0.34,0.254,0.375
	c1.574,0.31,2.722,1.694,2.722,3.297c0,1.604-1.147,2.991-2.722,3.3c-0.176,0.031-0.289,0.2-0.254,0.375
	c0.031,0.153,0.164,0.256,0.312,0.256l0.062-0.006c1.879-0.365,3.237-2.016,3.237-3.925
	C1579.634,72.764,1578.276,71.111,1576.397,70.745L1576.397,70.745z"/>
<path fill="#FFFFFF" d="M1974.676,115.714c-4.946,0-8.96,4.013-8.96,8.958c0,4.952,4.014,8.96,8.96,8.96
	c4.95,0,8.958-4.008,8.958-8.96C1983.634,119.721,1979.626,115.714,1974.676,115.714L1974.676,115.714z M1974.676,132.431
	c-4.278,0-7.759-3.475-7.759-7.759c0-4.276,3.48-7.758,7.759-7.758c4.282,0,7.763,3.481,7.763,7.758
	C1982.439,128.95,1978.958,132.431,1974.676,132.431L1974.676,132.431z"/>
<path fill="#FFFFFF" d="M1624.676,65.714c-4.946,0-8.96,4.013-8.96,8.958c0,4.952,4.014,8.96,8.96,8.96
	c4.95,0,8.958-4.008,8.958-8.96C1633.634,69.721,1629.626,65.714,1624.676,65.714L1624.676,65.714z M1624.676,82.431
	c-4.278,0-7.759-3.475-7.759-7.759c0-4.276,3.48-7.758,7.759-7.758c4.282,0,7.763,3.481,7.763,7.758
	C1632.439,78.95,1628.958,82.431,1624.676,82.431L1624.676,82.431z"/>
<path fill="#FFFFFF" d="M1674.676,65.714c-4.946,0-8.96,4.013-8.96,8.958c0,4.952,4.014,8.96,8.96,8.96
	c4.95,0,8.958-4.008,8.958-8.96C1683.634,69.721,1679.626,65.714,1674.676,65.714L1674.676,65.714z M1674.676,82.431
	c-4.278,0-7.759-3.475-7.759-7.759c0-4.276,3.48-7.758,7.759-7.758c4.282,0,7.763,3.481,7.763,7.758
	C1682.439,78.95,1678.958,82.431,1674.676,82.431L1674.676,82.431z"/>
<path fill="#FFFFFF" d="M1574.675,65.714c-4.945,0-8.959,4.013-8.959,8.958c0,4.952,4.014,8.96,8.959,8.96
	c4.951,0,8.959-4.008,8.959-8.96C1583.634,69.721,1579.626,65.714,1574.675,65.714L1574.675,65.714z M1574.675,82.431
	c-4.277,0-7.758-3.475-7.758-7.759c0-4.276,3.48-7.758,7.758-7.758c4.283,0,7.764,3.481,7.764,7.758
	C1582.439,78.95,1578.958,82.431,1574.675,82.431L1574.675,82.431z"/>
<path fill="#FFFFFF" d="M1474.676,115.714c-4.946,0-8.96,4.013-8.96,8.958c0,4.952,4.014,8.96,8.96,8.96
	c4.95,0,8.958-4.008,8.958-8.96C1483.634,119.721,1479.626,115.714,1474.676,115.714L1474.676,115.714z M1474.676,132.431
	c-4.278,0-7.759-3.475-7.759-7.759c0-4.276,3.48-7.758,7.759-7.758c4.282,0,7.763,3.481,7.763,7.758
	C1482.439,128.95,1478.958,132.431,1474.676,132.431L1474.676,132.431z"/>
<path fill="#FFFFFF" d="M2028.193,70.515h-0.637v-0.641c0-0.354-0.288-0.641-0.641-0.641h-6.4c-0.354,0-0.641,0.287-0.641,0.641
	v7.678c0,0.354,0.287,0.641,0.641,0.641h0.641v0.642c0,0.353,0.285,0.641,0.638,0.641h6.399c0.354,0,0.642-0.288,0.642-0.641v-7.683
	C2028.834,70.799,2028.547,70.515,2028.193,70.515L2028.193,70.515z M2020.515,77.552v-7.678h6.4v7.678H2020.515z M2028.193,78.834
	h-6.399v-0.642h5.122c0.353,0,0.641-0.287,0.641-0.641v-6.4h0.637V78.834z"/>
<path fill="#FFFFFF" d="M2025.957,71.151h-3.2c-0.179,0-0.322,0.145-0.322,0.322c0,0.176,0.144,0.318,0.322,0.318h3.2
	c0.174,0,0.318-0.145,0.318-0.318C2026.275,71.296,2026.131,71.151,2025.957,71.151L2025.957,71.151z"/>
<path fill="#FFFFFF" d="M2025.957,73.073h-4.481c-0.179,0-0.317,0.145-0.317,0.318c0,0.18,0.14,0.322,0.317,0.322h4.481
	c0.174,0,0.318-0.145,0.318-0.322C2026.275,73.217,2026.131,73.073,2025.957,73.073L2025.957,73.073z"/>
<path fill="#FFFFFF" d="M2025.957,74.353h-4.481c-0.179,0-0.317,0.144-0.317,0.321c0,0.175,0.14,0.317,0.317,0.317h4.481
	c0.174,0,0.318-0.143,0.318-0.317C2026.275,74.496,2026.131,74.353,2025.957,74.353L2025.957,74.353z"/>
<path fill="#FFFFFF" d="M2025.957,75.633h-4.481c-0.179,0-0.317,0.144-0.317,0.317c0,0.179,0.14,0.322,0.317,0.322h4.481
	c0.174,0,0.318-0.144,0.318-0.322C2026.275,75.776,2026.131,75.633,2025.957,75.633L2025.957,75.633z"/>
<path fill="#FFFFFF" d="M2024.676,65.714c-4.946,0-8.96,4.014-8.96,8.958c0,4.952,4.014,8.96,8.96,8.96
	c4.95,0,8.958-4.008,8.958-8.96C2033.634,69.721,2029.626,65.714,2024.676,65.714L2024.676,65.714z M2024.676,82.431
	c-4.278,0-7.759-3.475-7.759-7.759c0-4.276,3.48-7.758,7.759-7.758c4.282,0,7.763,3.481,7.763,7.758
	C2032.439,78.95,2028.958,82.431,2024.676,82.431L2024.676,82.431z"/>
<path fill="#FFFFFF" d="M1474.675,123.291c-0.764,0-1.383,0.619-1.383,1.383s0.619,1.383,1.383,1.383s1.383-0.619,1.383-1.383
	S1475.439,123.291,1474.675,123.291z M1479.208,123.716l-0.949-0.059c-0.081-0.288-0.196-0.56-0.34-0.813l0.638-0.698
	c0.184-0.183,0.184-0.479,0-0.662l-0.691-0.691c-0.183-0.183-0.479-0.183-0.662,0l-0.697,0.638c-0.253-0.145-0.525-0.259-0.812-0.34
	l-0.06-0.949c0-0.259-0.209-0.468-0.468-0.468h-0.979c-0.26,0-0.469,0.209-0.469,0.468l-0.061,0.949
	c-0.287,0.081-0.56,0.195-0.812,0.34l-0.698-0.638c-0.183-0.183-0.479-0.183-0.662,0l-0.69,0.691c-0.183,0.183-0.183,0.479,0,0.662
	l0.638,0.698c-0.145,0.253-0.259,0.526-0.34,0.813l-0.949,0.059c-0.259,0-0.468,0.208-0.468,0.468v0.979
	c0,0.26,0.208,0.468,0.468,0.468l0.949,0.059c0.081,0.288,0.195,0.56,0.34,0.813l-0.638,0.697c-0.183,0.183-0.183,0.479,0,0.662
	l0.69,0.691c0.184,0.183,0.479,0.183,0.662,0l0.698-0.638c0.253,0.145,0.524,0.259,0.812,0.34l0.061,0.949
	c0,0.259,0.209,0.468,0.469,0.468h0.979c0.259,0,0.468-0.209,0.468-0.468l0.06-0.949c0.287-0.081,0.56-0.196,0.812-0.34l0.697,0.638
	c0.184,0.183,0.479,0.183,0.662,0l0.691-0.691c0.184-0.183,0.184-0.479,0-0.662l-0.638-0.697c0.146-0.253,0.259-0.526,0.34-0.813
	l0.949-0.059c0.259,0,0.468-0.208,0.468-0.468v-0.979C1479.675,123.925,1479.466,123.716,1479.208,123.716z M1474.675,126.908
	c-1.234,0-2.234-1-2.234-2.234s1-2.234,2.234-2.234s2.234,1,2.234,2.234S1475.91,126.908,1474.675,126.908z"/>
<circle fill="#FFFFFF" cx="1669.822" cy="74.673" r="1.424"/>
<circle fill="#FFFFFF" cx="1674.822" cy="74.673" r="1.424"/>
<circle fill="#FFFFFF" cx="1679.529" cy="74.673" r="1.424"/>
<path fill="#FFFFFF" d="M1979.674,124.101l-4.8-3.84c-0.115-0.091-0.281-0.091-0.4,0l-1.718,1.378v-0.806
	c0-0.353-0.287-0.64-0.641-0.64c-0.354,0-0.642,0.287-0.642,0.64v1.829l-1.8,1.44c-0.137,0.113-0.159,0.313-0.049,0.451
	c0.113,0.137,0.312,0.162,0.449,0.049l0.761-0.605v4.519c0,0.354,0.287,0.637,0.64,0.637h1.922c0.354,0,0.639-0.285,0.639-0.637
	v-2.562h1.281v2.562c0,0.354,0.287,0.637,0.641,0.637h1.918c0.354,0,0.641-0.285,0.641-0.637v-4.519l0.76,0.605
	c0.06,0.047,0.131,0.072,0.199,0.072c0.094,0,0.188-0.041,0.25-0.121C1979.834,124.414,1979.811,124.214,1979.674,124.101
	L1979.674,124.101z M1977.875,128.514h-1.918v-3.2h-2.56v3.2h-1.923v-5.031l3.2-2.56l3.2,2.56V128.514z"/>
<path fill="#FFFFFF" d="M2026.453,126.339c-0.383,0-0.732,0.13-1.014,0.346l-2.898-1.739c0.014-0.089,0.023-0.18,0.023-0.272
	s-0.01-0.184-0.023-0.272l2.898-1.739c0.281,0.216,0.631,0.346,1.014,0.346c0.92,0,1.666-0.746,1.666-1.667
	c0-0.92-0.746-1.666-1.666-1.666s-1.666,0.746-1.666,1.666c0,0.093,0.01,0.184,0.023,0.272l-2.898,1.74
	c-0.28-0.217-0.631-0.346-1.014-0.346c-0.921,0-1.666,0.745-1.666,1.666c0,0.92,0.746,1.666,1.666,1.666
	c0.383,0,0.732-0.129,1.014-0.345l2.898,1.738c-0.015,0.09-0.023,0.18-0.023,0.273c0,0.92,0.746,1.666,1.666,1.666
	s1.666-0.746,1.666-1.666S2027.373,126.339,2026.453,126.339z"/>
<path fill="#FFFFFF" d="M2024.676,115.714c-4.946,0-8.96,4.013-8.96,8.958c0,4.952,4.014,8.96,8.96,8.96
	c4.95,0,8.958-4.008,8.958-8.96C2033.634,119.721,2029.626,115.714,2024.676,115.714L2024.676,115.714z M2024.676,132.431
	c-4.278,0-7.759-3.475-7.759-7.759c0-4.276,3.48-7.758,7.759-7.758c4.282,0,7.763,3.481,7.763,7.758
	C2032.439,128.95,2028.958,132.431,2024.676,132.431L2024.676,132.431z"/>
<path fill="#FFFFFF" d="M1926.347,120.836c-1.52-1.519-3.99-1.519-5.51,0c-1.518,1.519-1.518,3.989,0,5.508
	c1.354,1.351,3.459,1.496,4.975,0.44c0.033,0.15,0.107,0.296,0.225,0.412l2.209,2.211c0.322,0.322,0.844,0.322,1.162,0
	c0.324-0.321,0.324-0.842,0-1.164l-2.209-2.211c-0.117-0.116-0.262-0.188-0.412-0.221
	C1927.843,124.292,1927.697,122.187,1926.347,120.836L1926.347,120.836z M1925.648,125.646c-1.133,1.133-2.979,1.133-4.111,0
	c-1.133-1.134-1.133-2.978,0-4.111c1.133-1.133,2.979-1.133,4.111,0C1926.781,122.668,1926.781,124.511,1925.648,125.646
	L1925.648,125.646z"/>
<path fill="#FFFFFF" d="M1924.675,115.714c-4.945,0-8.959,4.014-8.959,8.958c0,4.952,4.014,8.96,8.959,8.96
	c4.951,0,8.959-4.008,8.959-8.96C1933.634,119.721,1929.626,115.714,1924.675,115.714L1924.675,115.714z M1924.675,132.431
	c-4.277,0-7.758-3.475-7.758-7.759c0-4.276,3.48-7.758,7.758-7.758c4.283,0,7.764,3.481,7.764,7.758
	C1932.439,128.95,1928.958,132.431,1924.675,132.431L1924.675,132.431z"/>
<path fill="#FFFFFF" d="M2074.676,65.714c-4.946,0-8.96,4.014-8.96,8.958c0,4.952,4.014,8.96,8.96,8.96
	c4.95,0,8.958-4.008,8.958-8.96C2083.634,69.721,2079.626,65.714,2074.676,65.714L2074.676,65.714z M2074.676,82.431
	c-4.278,0-7.759-3.475-7.759-7.759c0-4.276,3.48-7.758,7.759-7.758c4.282,0,7.763,3.481,7.763,7.758
	C2082.439,78.95,2078.958,82.431,2074.676,82.431L2074.676,82.431z"/>
<polygon fill="#FFFFFF" points="2074.675,69.459 2076.369,72.892 2080.158,73.442 2077.417,76.114 2078.064,79.887 2074.675,78.106 
	2071.287,79.887 2071.934,76.114 2069.193,73.442 2072.982,72.892 "/>
<path fill="#FFFFFF" d="M2088.175,124.673c0-7.452-6.047-13.5-13.5-13.5c-7.451,0-13.5,6.048-13.5,13.5s6.049,13.5,13.5,13.5
	C2082.128,138.173,2088.175,132.125,2088.175,124.673L2088.175,124.673z M2062.978,124.673c0-6.451,5.246-11.698,11.697-11.698
	s11.699,5.247,11.699,11.698s-5.248,11.698-11.699,11.698S2062.978,131.124,2062.978,124.673L2062.978,124.673z"/>
<path fill="#FFFFFF" d="M2078.912,123.562h1.914v-4.692c0-0.292-0.24-0.532-0.531-0.532h-11.236c-0.293,0-0.531,0.24-0.531,0.532
	v4.692h1.913c2.01,0,3.701,1.342,4.237,3.178C2075.21,124.905,2076.904,123.562,2078.912,123.562z"/>
<path fill="#FFFFFF" d="M2077.748,125.607c-1.249,0-2.357,0.589-3.072,1.502c-0.714-0.913-1.823-1.502-3.07-1.502h-3.08v4.868
	c0,0.292,0.24,0.532,0.531,0.532h11.236c0.293,0,0.533-0.24,0.533-0.532v-4.868H2077.748z"/>
<path fill="#FFFFFF" d="M2088.175,174.314c0-7.452-6.047-13.5-13.5-13.5c-7.451,0-13.5,6.048-13.5,13.5s6.049,13.5,13.5,13.5
	C2082.128,187.814,2088.175,181.767,2088.175,174.314L2088.175,174.314z M2062.978,174.314c0-6.451,5.246-11.698,11.697-11.698
	s11.699,5.247,11.699,11.698s-5.248,11.698-11.699,11.698S2062.978,180.766,2062.978,174.314L2062.978,174.314z"/>
<path fill="#FFFFFF" d="M2078.763,166.908c-1.14-0.823-2.572-1.234-4.295-1.234c-1.312,0-2.418,0.29-3.318,0.868
	c-1.426,0.905-2.185,2.444-2.275,4.614h3.306c0-0.633,0.185-1.241,0.554-1.828c0.369-0.586,0.994-0.879,1.877-0.879
	c0.897,0,1.517,0.238,1.854,0.713c0.339,0.478,0.508,1.005,0.508,1.582c0,0.504-0.252,0.964-0.556,1.383
	c-0.167,0.244-0.389,0.468-0.661,0.674c0,0-1.793,1.15-2.58,2.074c-0.457,0.535-0.498,1.338-0.538,2.49
	c-0.003,0.082,0.028,0.25,0.314,0.25c0.287,0,2.316,0,2.572,0c0.254,0,0.308-0.189,0.312-0.271c0.019-0.419,0.065-0.633,0.142-0.875
	c0.146-0.457,0.538-0.855,0.979-1.199l0.909-0.628c0.822-0.64,1.478-1.165,1.767-1.577c0.495-0.677,0.843-1.511,0.843-2.5
	C2080.473,168.947,2079.904,167.73,2078.763,166.908z M2074.415,179.596c-1.14-0.034-2.08,0.754-2.116,1.99
	c-0.036,1.235,0.859,2.052,1.998,2.085c1.189,0.035,2.105-0.729,2.141-1.963C2076.472,180.473,2075.605,179.631,2074.415,179.596z"
	/>
</svg>
