<?xml version="1.0" encoding="utf-8"?>
<!-- Generator: Adobe Illustrator 15.0.0, SVG Export Plug-In  -->
<!DOCTYPE svg PUBLIC "-//W3C//DTD SVG 1.1//EN" "http://www.w3.org/Graphics/SVG/1.1/DTD/svg11.dtd" [
	<!ENTITY ns_flows "http://ns.adobe.com/Flows/1.0/">
]>
<svg version="1.1"
	 xmlns="http://www.w3.org/2000/svg" xmlns:xlink="http://www.w3.org/1999/xlink" xmlns:a="http://ns.adobe.com/AdobeSVGViewerExtensions/3.0/"
	 x="0px" y="0px" width="650px" height="150px" viewBox="749.675 249.673 650 150"
	 overflow="visible" enable-background="new 749.675 249.673 650 150" xml:space="preserve">
<defs>
</defs>
<path fill="none" stroke="#FFFFFF" stroke-width="3" stroke-linecap="round" stroke-linejoin="round" d="M1266.859,288.886
	c2.762-2.828,14.066-10.822,17.055-13.502c-6.984-5.63-11.371-9.949-18.477-14.923"/>
<path fill="none" stroke="#FFFFFF" stroke-width="3" stroke-linecap="round" stroke-linejoin="round" d="M1232.492,288.886
	c-2.762-2.828-14.066-10.822-17.055-13.502c6.984-5.63,11.369-9.949,18.477-14.923"/>
<path fill="none" stroke="#FFFFFF" stroke-width="3" stroke-linecap="round" stroke-linejoin="round" d="M1160.463,282.49
	c2.826-2.764,10.82-14.067,13.502-17.056c5.63,6.984,9.949,11.37,14.923,18.478"/>
<path fill="none" stroke="#FFFFFF" stroke-width="3" stroke-linecap="round" stroke-linejoin="round" d="M1110.463,266.857
	c2.827,2.762,10.821,14.066,13.502,17.055c5.63-6.984,9.948-11.37,14.923-18.478"/>
<path fill="none" stroke="#FFFFFF" stroke-width="3" stroke-linecap="round" stroke-linejoin="round" d="M1160.463,332.489
	c2.826-2.763,10.82-14.067,13.502-17.056c5.63,6.984,9.949,11.371,14.923,18.478"/>
<path fill="none" stroke="#FFFFFF" stroke-width="3" stroke-linecap="round" stroke-linejoin="round" d="M1017.498,328.621
	c1.428-1.396,5.465-7.104,6.82-8.614c2.844,3.527,5.023,5.743,7.535,9.332"/>
<path fill="none" stroke="#FFFFFF" stroke-width="3" stroke-linecap="round" stroke-linejoin="round" d="M917.498,328.62
	c1.428-1.396,5.463-7.104,6.818-8.613c2.844,3.527,5.023,5.742,7.537,9.332"/>
<path fill="none" stroke="#FFFFFF" stroke-width="3" stroke-linecap="round" stroke-linejoin="round" d="M867.498,320.726
	c1.428,1.396,5.463,7.104,6.818,8.613c2.844-3.527,5.023-5.742,7.537-9.332"/>
<path fill="none" stroke="#FFFFFF" stroke-width="3" stroke-linecap="round" stroke-linejoin="round" d="M778.622,267.495
	c-1.395,1.428-7.104,5.465-8.611,6.819c3.525,2.844,5.742,5.024,9.33,7.537"/>
<path fill="none" stroke="#FFFFFF" stroke-width="3" stroke-linecap="round" stroke-linejoin="round" d="M777.981,368.661
	c-1.169,1.195-5.949,4.576-7.213,5.711c2.954,2.381,4.809,4.207,7.814,6.311"/>
<path fill="none" stroke="#FFFFFF" stroke-width="3" stroke-linecap="round" stroke-linejoin="round" d="M830.686,377.979
	c-1.197-1.168-4.576-5.949-5.711-7.213c-2.381,2.953-4.208,4.809-6.311,7.814"/>
<path fill="none" stroke="#FFFFFF" stroke-width="3" stroke-linecap="round" stroke-linejoin="round" d="M871.369,368.661
	c1.169,1.197,5.949,4.576,7.213,5.711c-2.954,2.381-4.81,4.207-7.813,6.312"/>
<path fill="none" stroke="#FFFFFF" stroke-width="3" stroke-linecap="round" stroke-linejoin="round" d="M930.686,371.366
	c-1.195,1.17-4.576,5.949-5.71,7.213c-2.381-2.953-4.208-4.809-6.312-7.814"/>
<path fill="none" stroke="#FFFFFF" stroke-width="3" stroke-linecap="round" stroke-linejoin="round" d="M820.728,267.495
	c1.396,1.428,7.104,5.465,8.612,6.819c-3.526,2.844-5.741,5.024-9.331,7.537"/>
<path fill="none" stroke="#FFFFFF" stroke-width="3" stroke-linecap="round" stroke-linejoin="round" d="M1017.498,328.62
	c1.428-1.396,5.465-7.104,6.82-8.613c2.844,3.527,5.023,5.742,7.535,9.332"/>
<path fill="none" stroke="#FFFFFF" stroke-width="3" stroke-linecap="round" stroke-linejoin="round" d="M967.498,320.725
	c1.428,1.396,5.465,7.104,6.818,8.614c2.844-3.527,5.024-5.742,7.537-9.332"/>
<path fill="none" stroke="#FFFFFF" stroke-width="3" stroke-linecap="round" stroke-linejoin="round" d="M967.498,320.725
	c1.428,1.396,5.465,7.104,6.818,8.614c2.844-3.526,5.024-5.741,7.537-9.332"/>
<path fill="none" stroke="#FFFFFF" stroke-width="3" stroke-linecap="round" stroke-linejoin="round" d="M1110.463,316.856
	c2.827,2.763,10.821,14.066,13.502,17.055c5.63-6.984,9.949-11.37,14.923-18.477"/>
<circle fill="none" stroke="#FFFFFF" stroke-width="4.36" stroke-linecap="round" stroke-linejoin="round" cx="1221.246" cy="320.815" r="7.287"/>
<path fill="none" stroke="#FFFFFF" stroke-width="4.36" stroke-linecap="round" stroke-linejoin="round" d="M1225.96,326.387
	c4.543,4.642,5.354,4.655,9.432,9.431"/>
<path fill="none" stroke="#FFFFFF" stroke-width="3" stroke-linecap="round" stroke-linejoin="round" d="M819.072,319.545
	c7.574,0.082,3.906-0.375,11.207,0.201"/>
<path fill="none" stroke="#FFFFFF" stroke-width="3" stroke-linecap="round" stroke-linejoin="round" d="M819.072,324.722
	c7.574,0.082,3.906-0.377,11.207,0.199"/>
<path fill="none" stroke="#FFFFFF" stroke-width="3" stroke-linecap="round" stroke-linejoin="round" d="M819.072,329.696
	c7.574,0.082,3.906-0.376,11.207,0.2"/>
<path fill="none" stroke="#FFFFFF" stroke-width="3" stroke-linecap="round" stroke-linejoin="round" d="M823.649,319.545
	c0.775,0.082,1.305-0.375,2.053,0.199"/>
<path fill="none" stroke="#FFFFFF" stroke-width="3" stroke-linecap="round" stroke-linejoin="round" d="M823.649,324.722
	c0.775,0.082,1.305-0.375,2.053,0.199"/>
<path fill="none" stroke="#FFFFFF" stroke-width="3" stroke-linecap="round" stroke-linejoin="round" d="M823.649,329.695
	c0.775,0.082,1.305-0.375,2.053,0.2"/>
<path fill="none" stroke="#FFFFFF" stroke-width="3" stroke-linecap="round" stroke-linejoin="round" d="M973.979,274.772
	c1.053,0.111,0.379-0.709,1.394,0.071"/>
<path fill="none" stroke="#FFFFFF" stroke-width="3" stroke-linecap="round" stroke-linejoin="round" d="M979.979,274.772
	c1.053,0.111,0.379-0.709,1.394,0.071"/>
<path fill="none" stroke="#FFFFFF" stroke-width="3" stroke-linecap="round" stroke-linejoin="round" d="M967.978,274.772
	c1.053,0.111,0.379-0.709,1.395,0.071"/>
<path fill="none" stroke="#FFFFFF" stroke-width="2" stroke-linecap="round" stroke-linejoin="round" d="M1285.243,336.721
	c-0.812-0.021-3.507-0.09-6.723-0.169c-0.84-0.021,0.1-8.113-0.945-8.147c-0.646-0.021-4.583,0.041-5.766-0.033
	c-1.619-0.103-0.286,8.007-0.877,7.992c-3.785-0.094-5.894-0.146-6.816-0.172c0.125-1.818-0.04-13.268,0-15.283
	c2.126-0.293,18.454,0.453,20.594,0.307C1284.748,323.328,1284.986,334.625,1285.243,336.721z"/>
<path fill="none" stroke="#FFFFFF" stroke-width="2" stroke-linecap="round" stroke-linejoin="round" d="M1262.065,321.925
	c0.627-1.391,2.703-3.006,3.936-3.902c1.234-0.897,2.574-1.647,3.77-2.596c0.684-0.543,1.316-1.149,2.023-1.66
	c0.578-0.418,1.201-0.771,1.857-1.049c0.127-0.055,0.264-0.107,0.402-0.088c0.127,0.019,0.234,0.094,0.34,0.168
	c2.844,2.012,4.184,3.252,7.229,4.947c0.537,0.299,2.387,1.619,2.898,1.956c0.816,0.535,2.195,1.668,2.766,2.461"/>
<path fill="none" stroke="#FFFFFF" stroke-linecap="round" stroke-linejoin="round" d="M1327.042,267.451
	c-0.383-0.271-4.514,0.136-5.344,0.144c-0.73,0.008-1.459,0.023-2.188-0.054c-0.08,0.676-0.085,5.437-0.083,6.538
	c0.001,1.107-0.228,6.992,0.003,7.388c2.372,0.243,6.456,0.412,7.465,0.373c0.59-0.022,2.797,0.435,3.029-0.153
	c0.221-0.562,0.002-3.011,0.012-3.531c0.012-0.703-0.098-5.922-0.152-6.622"/>
<path fill="none" stroke="#FFFFFF" stroke-linecap="round" stroke-linejoin="round" d="M1327.02,267.872
	c-0.229,0.289-0.303,0.919-0.488,1.236c-0.49,0.841-0.819,2.125-0.754,2.425c0.227,0.071,2.918,0.067,3.619,0.067"/>
<path fill="none" stroke="#FFFFFF" stroke-linecap="round" stroke-linejoin="round" d="M1327.145,267.559
	c0.398,0.51,2.037,3.017,2.588,3.873"/>
<path fill="none" stroke="#FFFFFF" stroke-linecap="round" stroke-linejoin="round" d="M1320.833,274.072
	c0.368-0.015,2.418-0.091,2.914-0.14c0.495,0.049,2.46,0.115,2.875,0.188c0.284-0.02,0.571-0.028,0.856-0.027
	c0.562-0.025,0.534-0.033,1.096-0.021"/>
<path fill="none" stroke="#FFFFFF" stroke-linecap="round" stroke-linejoin="round" d="M1320.833,276.524
	c0.422,0.145,0.817,0.107,1.184-0.108c0.234-0.114,1.083-0.244,1.28-0.138c0.413,0.203,0.841,0.299,1.284,0.285
	c0.28-0.027,0.561-0.033,0.843-0.018c0.414-0.05,0.829-0.055,1.246-0.014c0.832-0.014,1.072-0.01,1.904-0.008"/>
<path fill="none" stroke="#FFFFFF" stroke-linecap="round" stroke-linejoin="round" d="M1321.073,279.006
	c0.062-0.219,1.25,0.01,1.637,0.028c0.291,0.022,0.581,0.017,0.869-0.021c0.57-0.006,1.139-0.009,1.709-0.009"/>
<path fill="none" stroke="#FFFFFF" stroke-linecap="round" stroke-linejoin="round" d="M1320.833,271.731
	c0.217-0.078,1.823-0.157,2.083-0.11c0.416,0.188,0.851,0.226,1.308,0.11"/>
<path fill="none" stroke="#FFFFFF" stroke-linecap="round" stroke-linejoin="round" d="M1319.502,277.079
	c0.001,1.107-0.311,3.992-0.082,4.388c2.372,0.243,6.456,0.412,7.465,0.373c0.59-0.022,2.799,0.435,3.029-0.153
	c0.221-0.562,0.002-3.011,0.011-3.531c0.013-0.703-0.097-5.922-0.151-6.623"/>
<path fill="none" stroke="#FFFFFF" stroke-linecap="round" stroke-linejoin="round" d="M1327.032,267.45
	c-0.381-0.271-3.494,0.137-4.324,0.145"/>
<path fill="none" stroke="#FFFFFF" stroke-linecap="round" stroke-linejoin="round" d="M1327.01,267.872
	c-0.229,0.289-0.302,0.919-0.486,1.236c-0.492,0.84-0.82,2.125-0.754,2.424c0.226,0.072,2.918,0.068,3.617,0.068"/>
<path fill="none" stroke="#FFFFFF" stroke-linecap="round" stroke-linejoin="round" d="M1327.134,267.559
	c0.399,0.51,2.038,3.016,2.589,3.872"/>
<path fill="none" stroke="#FFFFFF" stroke-linecap="round" stroke-linejoin="round" d="M1322.708,274.026
	c0.496,0.051,3.49,0.022,3.904,0.094c0.285-0.02,0.57-0.027,0.856-0.026c0.562-0.026,0.534-0.033,1.097-0.021"/>
<path fill="none" stroke="#FFFFFF" stroke-linecap="round" stroke-linejoin="round" d="M1323.288,276.278
	c0.413,0.203,0.841,0.299,1.285,0.285c0.281-0.027,0.561-0.033,0.842-0.018c0.414-0.051,0.83-0.055,1.246-0.014
	c0.832-0.014,1.072-0.01,1.904-0.008"/>
<path fill="none" stroke="#FFFFFF" stroke-linecap="round" stroke-linejoin="round" d="M1321.063,279.006
	c0.063-0.219,1.25,0.01,1.637,0.027c0.291,0.023,0.58,0.018,0.869-0.02c0.569-0.006,1.139-0.009,1.709-0.009"/>
<path fill="none" stroke="#FFFFFF" stroke-linecap="round" stroke-linejoin="round" d="M1322.907,271.62
	c0.416,0.188,0.852,0.226,1.309,0.111"/>
<path fill="none" stroke="#FFFFFF" stroke-width="2" stroke-linecap="round" stroke-linejoin="round" d="M1329.936,316.874
	c-1.477,2.07-8.47,4.078-10.439,6.455"/>
<path fill="none" stroke="#FFFFFF" stroke-width="2" stroke-linecap="round" stroke-linejoin="round" d="M1329.906,332.378
	c-2.709-0.914-7.879-5.498-10.379-6.553"/>
<ellipse fill="#FFFFFF" cx="1331.716" cy="316.152" rx="2.573" ry="2.536"/>
<ellipse fill="#FFFFFF" cx="1330.715" cy="333.102" rx="2.668" ry="2.628"/>
<ellipse fill="#FFFFFF" cx="1317.717" cy="325.102" rx="2.655" ry="2.618"/>
<polygon fill="none" stroke="#FFFFFF" stroke-width="2" stroke-linecap="round" stroke-linejoin="round" points="1367.171,272.575 
	1372.544,272.575 1374.9,267.334 1377.001,271.92 1382.179,272.903 1378.312,276.639 1379.753,282.012 1375.4,279.133 
	1370.057,281.731 1371.548,276.695 "/>
<polygon fill="none" stroke="#FFFFFF" stroke-width="3" stroke-linecap="round" stroke-linejoin="round" points="871.575,272.365 
	874.248,272.365 878.202,268.518 878.202,280.828 874.925,277.573 871.148,278.309 "/>
<polygon fill="none" stroke="#FFFFFF" stroke-width="3" stroke-linecap="round" stroke-linejoin="round" points="921.575,272.365 
	924.249,272.365 928.204,268.518 928.204,280.828 924.926,277.573 921.147,278.309 "/>
<path fill="none" stroke="#FFFFFF" stroke-width="3" stroke-linecap="round" stroke-linejoin="round" d="M881.971,272.219
	c0.734,0.55,1.436,1.679,1.406,2.52c-0.037,1.037-0.502,1.669-1.351,2.387"/>
<path fill="none" stroke="#FFFFFF" stroke-width="3" stroke-linecap="round" stroke-linejoin="round" d="M885.649,268.99
	c1.216,1.652,1.988,3.653,2.048,5.704c0.06,2.05-0.626,4.14-2.002,5.662"/>
<path fill="#FFFFFF" d="M1077.151,274.673l2.689-2.689c0.566-0.566,0.566-1.486,0-2.053l-0.423-0.424
	c-0.567-0.567-1.486-0.567-2.054,0l-2.688,2.688l-2.688-2.688c-0.567-0.567-1.486-0.567-2.054,0l-0.423,0.424
	c-0.566,0.566-0.566,1.486,0,2.053l2.689,2.689l-2.689,2.688c-0.566,0.567-0.566,1.486,0,2.054l0.423,0.423
	c0.567,0.567,1.486,0.567,2.054,0.001l2.688-2.689l2.688,2.689c0.566,0.566,1.485,0.566,2.054-0.001l0.423-0.423
	c0.566-0.567,0.566-1.486,0-2.054L1077.151,274.673z"/>
<path fill="#FFFFFF" d="M1029.619,276.688h-2.928v2.928c0,1.113-0.902,2.015-2.016,2.015s-2.016-0.902-2.016-2.015v-2.928h-2.928
	c-1.113,0-2.016-0.902-2.016-2.015s0.902-2.015,2.016-2.015h2.928v-2.928c0-1.113,0.902-2.015,2.016-2.015s2.016,0.902,2.016,2.015
	v2.928h2.928c1.113,0,2.014,0.902,2.014,2.015S1030.732,276.688,1029.619,276.688z"/>
<path fill="#FFFFFF" d="M1081.175,324.723c0,0.935-0.766,1.7-1.7,1.7h-9.6c-0.935,0-1.7-0.766-1.7-1.7v-0.1
	c0-0.935,0.766-1.7,1.7-1.7h9.6c0.935,0,1.7,0.766,1.7,1.7V324.723z"/>
<path fill="#FFFFFF" d="M975.108,374.671l-3.191,5.621c-0.322,0.566-0.322,1.48,0,2.045l0.291,0.512c0.32,0.566,0.84,0.566,1.16,0
	l3.758-6.615c0.006-0.01,0.015-0.012,0.021-0.021l0.291-0.512c0.161-0.283,0.24-0.658,0.239-1.029
	c0.001-0.371-0.078-0.744-0.239-1.027l-0.291-0.51c-0.006-0.012-0.015-0.014-0.021-0.023l-3.758-6.613
	c-0.32-0.564-0.84-0.564-1.16,0l-0.291,0.508c-0.322,0.566-0.322,1.482,0,2.049L975.108,374.671z"/>
<path opacity="0.2" enable-background="new    " d="M1125.109,374.671l-3.191,5.621c-0.322,0.566-0.322,1.48,0,2.045l0.291,0.512
	c0.32,0.566,0.84,0.566,1.16,0l3.758-6.615c0.006-0.01,0.014-0.012,0.02-0.021l0.291-0.512c0.16-0.283,0.24-0.658,0.238-1.029
	c0.001-0.371-0.079-0.744-0.238-1.029l-0.291-0.508c-0.006-0.012-0.015-0.014-0.02-0.023l-3.758-6.613
	c-0.32-0.564-0.84-0.564-1.16,0l-0.291,0.508c-0.322,0.566-0.322,1.482,0,2.049L1125.109,374.671z"/>
<path d="M1025.109,374.671l-3.191,5.621c-0.322,0.566-0.322,1.48,0,2.045l0.291,0.512c0.32,0.566,0.84,0.566,1.16,0l3.758-6.615
	c0.006-0.01,0.014-0.012,0.02-0.021l0.291-0.512c0.16-0.283,0.24-0.658,0.238-1.029c0-0.371-0.08-0.744-0.238-1.027l-0.291-0.51
	c-0.006-0.012-0.016-0.014-0.02-0.023l-3.758-6.613c-0.32-0.564-0.84-0.564-1.16,0l-0.291,0.508c-0.322,0.566-0.322,1.482,0,2.049
	L1025.109,374.671z"/>
<path opacity="0.5" enable-background="new    " d="M1075.109,374.671l-3.191,5.621c-0.322,0.566-0.322,1.48,0,2.045l0.291,0.512
	c0.319,0.566,0.84,0.566,1.16,0l3.758-6.615c0.006-0.01,0.014-0.012,0.019-0.021l0.291-0.512c0.161-0.283,0.241-0.658,0.239-1.029
	c0.001-0.371-0.079-0.744-0.239-1.029l-0.291-0.508c-0.005-0.012-0.015-0.014-0.019-0.023l-3.758-6.613
	c-0.32-0.564-0.841-0.564-1.16,0l-0.291,0.508c-0.322,0.566-0.322,1.482,0,2.049L1075.109,374.671z"/>
<polygon fill="#FFFFFF" points="1174.355,379.173 1165.675,371.64 1166.111,370.183 1174.369,377.353 1183.264,370.173 
	1183.675,371.649 "/>
<polygon points="1224.355,379.173 1215.675,371.64 1216.111,370.183 1224.369,377.353 1233.263,370.173 1233.675,371.649 "/>
<polygon fill="#FFFFFF" points="1324.996,370.173 1333.675,377.708 1333.24,379.163 1324.982,371.993 1316.086,379.173 
	1315.675,377.696 "/>
<polygon points="1274.996,370.173 1283.675,377.708 1283.24,379.163 1274.982,371.993 1266.085,379.173 1265.675,377.696 "/>
<path fill="#FFFFFF" d="M1378.763,366.907c-1.14-0.822-2.572-1.234-4.295-1.234c-1.312,0-2.418,0.291-3.318,0.869
	c-1.426,0.904-2.185,2.443-2.275,4.613h3.306c0-0.633,0.185-1.24,0.554-1.828c0.369-0.586,0.994-0.879,1.877-0.879
	c0.897,0,1.517,0.238,1.854,0.713c0.339,0.479,0.508,1.006,0.508,1.582c0,0.504-0.252,0.965-0.556,1.383
	c-0.167,0.244-0.389,0.469-0.661,0.674c0,0-1.793,1.15-2.58,2.074c-0.457,0.535-0.498,1.338-0.538,2.49
	c-0.003,0.082,0.028,0.25,0.314,0.25c0.287,0,2.316,0,2.572,0c0.254,0,0.308-0.189,0.312-0.271c0.019-0.418,0.065-0.633,0.142-0.875
	c0.146-0.457,0.538-0.855,0.979-1.199l0.909-0.627c0.822-0.641,1.478-1.166,1.767-1.578c0.495-0.676,0.843-1.51,0.843-2.5
	C1380.473,368.946,1379.904,367.729,1378.763,366.907z M1374.415,379.597c-1.14-0.035-2.08,0.754-2.116,1.99
	c-0.036,1.234,0.859,2.051,1.998,2.084c1.189,0.035,2.105-0.729,2.141-1.963S1375.605,379.632,1374.415,379.597z"/>
<path fill="#FFFFFF" d="M1380.531,323.138h2.645v-6.484c0-0.404-0.332-0.735-0.734-0.735h-15.529c-0.404,0-0.736,0.331-0.736,0.735
	v6.484h2.646c2.775,0,5.115,1.855,5.854,4.393C1375.416,324.993,1377.755,323.138,1380.531,323.138z"/>
<path fill="#FFFFFF" d="M1378.921,325.965c-1.727,0-3.258,0.813-4.246,2.075c-0.986-1.262-2.52-2.075-4.244-2.075h-4.256v6.728
	c0,0.404,0.33,0.735,0.734,0.735h15.529c0.404,0,0.734-0.331,0.734-0.735v-6.728H1378.921z"/>
<path fill="#FFFFFF" d="M774.675,321.354c-1.834,0-3.318,1.486-3.318,3.319s1.484,3.318,3.318,3.318
	c1.832,0,3.318-1.485,3.318-3.318S776.507,321.354,774.675,321.354z M786.675,325.848v-2.351l-3.4-1.266
	c-0.195-0.688-0.471-1.344-0.816-1.951l1.531-3.264l-1.66-1.658l-3.264,1.531c-0.605-0.348-1.262-0.623-1.949-0.816l-1.268-3.4
	h-2.348l-1.268,3.4c-0.689,0.193-1.344,0.47-1.949,0.816l-3.264-1.531l-1.66,1.658l1.531,3.264
	c-0.348,0.607-0.621,1.263-0.816,1.951l-3.4,1.266v2.351l3.4,1.267c0.195,0.688,0.471,1.344,0.816,1.951l-1.531,3.264l1.66,1.658
	l3.264-1.531c0.605,0.347,1.26,0.623,1.949,0.816l1.268,3.4h2.348l1.268-3.4c0.688-0.193,1.344-0.471,1.949-0.816l3.264,1.531
	l1.66-1.658l-1.531-3.264c0.346-0.607,0.621-1.263,0.816-1.951L786.675,325.848z M774.675,330.034c-2.963,0-5.361-2.399-5.361-5.361
	s2.398-5.362,5.361-5.362c2.961,0,5.361,2.4,5.361,5.362S777.636,330.034,774.675,330.034z"/>
</svg>
