<?xml version="1.0" encoding="utf-8"?>
<!-- Generator: Adobe Illustrator 15.0.0, SVG Export Plug-In  -->
<!DOCTYPE svg PUBLIC "-//W3C//DTD SVG 1.1//EN" "http://www.w3.org/Graphics/SVG/1.1/DTD/svg11.dtd" [
	<!ENTITY ns_flows "http://ns.adobe.com/Flows/1.0/">
]>
<svg version="1.1"
	 xmlns="http://www.w3.org/2000/svg" xmlns:xlink="http://www.w3.org/1999/xlink" xmlns:a="http://ns.adobe.com/AdobeSVGViewerExtensions/3.0/"
	 x="0px" y="0px" width="650px" height="150px" viewBox="1449.675 449.673 650 150"
	 overflow="visible" enable-background="new 1449.675 449.673 650 150" xml:space="preserve">
<defs>
</defs>
<polyline fill="none" stroke="#000000" stroke-miterlimit="10" points="1479.776,464.472 1469.575,474.673 1479.776,484.874 "/>
<polyline fill="none" stroke="#000000" stroke-miterlimit="10" points="1519.576,484.874 1529.775,474.673 1519.576,464.472 "/>
<polyline fill="none" stroke="#000000" stroke-miterlimit="10" points="1564.474,519.572 1574.675,529.773 1584.875,519.572 "/>
<polyline fill="none" stroke="#000000" stroke-miterlimit="10" points="1634.875,529.773 1624.675,519.572 1614.475,529.773 "/>
<polygon fill="none" stroke="#000000" stroke-miterlimit="10" points="1610.675,474.674 1610.675,468.674 1616.675,468.674 
	1625.675,459.674 1625.675,474.674 1625.675,489.674 1616.675,480.674 1610.675,480.674 "/>
<line fill="none" stroke="#000000" stroke-miterlimit="10" x1="1629.675" y1="470.174" x2="1638.675" y2="479.174"/>
<line fill="none" stroke="#000000" stroke-miterlimit="10" x1="1629.675" y1="479.174" x2="1638.675" y2="470.174"/>
<polygon fill="none" stroke="#000000" stroke-miterlimit="10" points="1560.175,474.674 1560.175,468.674 1566.175,468.674 
	1575.175,459.674 1575.175,474.674 1575.175,489.674 1566.175,480.674 1560.175,480.674 "/>
<path fill="none" stroke="#000000" stroke-miterlimit="10" d="M1579.175,479.674c2.76,0,5-2.24,5-5c0-2.761-2.24-5-5-5"/>
<path fill="none" stroke="#000000" stroke-miterlimit="10" d="M1579.175,464.674c5.521,0,10,4.478,10,10s-4.479,10-10,10"/>
<polygon fill="none" stroke="#000000" stroke-miterlimit="10" points="1474.676,509.173 1471.675,509.173 1471.675,513.673 
	1468.675,514.673 1465.675,511.673 1461.675,515.673 1464.676,518.673 1463.675,521.673 1459.175,521.673 1459.175,527.673 
	1463.675,527.673 1464.676,530.673 1461.675,533.673 1465.675,537.673 1468.675,534.673 1471.675,535.673 1471.675,540.173 
	1474.676,540.173 1477.675,540.173 1477.675,535.673 1480.675,534.673 1483.675,537.673 1487.675,533.673 1484.676,530.673 
	1485.675,527.673 1490.175,527.673 1490.175,521.673 1485.675,521.673 1484.676,518.673 1487.675,515.673 1483.675,511.673 
	1480.675,514.673 1477.675,513.673 1477.675,509.173 "/>
<circle fill="none" stroke="#000000" stroke-miterlimit="10" cx="1474.676" cy="524.673" r="3"/>
<polygon fill="none" stroke="#000000" stroke-miterlimit="10" points="1974.675,509.673 1959.675,524.673 1964.175,524.673 
	1964.175,539.673 1970.175,539.673 1970.175,531.673 1978.175,531.673 1978.175,539.673 1984.175,539.673 1984.175,524.673 
	1989.675,524.673 "/>
<path fill="none" stroke="#000000" stroke-miterlimit="10" d="M2085.635,563.715c6.054,6.052,6.054,15.865,0,21.918
	c-6.053,6.055-15.867,6.055-21.92,0c-6.054-6.052-6.054-15.866,0-21.918C2069.768,557.66,2079.582,557.66,2085.635,563.715z"/>
<line fill="none" stroke="#000000" stroke-miterlimit="10" x1="2073.675" y1="580.173" x2="2073.675" y2="582.174"/>
<path fill="none" stroke="#000000" stroke-miterlimit="10" d="M2070.675,569.174c0-1.501,1-2.5,4-2.5c2.5,0,4,1.5,4,3.499
	c0,2.001-3,3.501-3,3.501s-2,1-2,3.999v0.501"/>
<circle fill="none" stroke="#000000" stroke-miterlimit="10" cx="2034.175" cy="515.172" r="6"/>
<circle fill="none" stroke="#000000" stroke-miterlimit="10" cx="2014.175" cy="529.673" r="5"/>
<circle fill="none" stroke="#000000" stroke-miterlimit="10" cx="2032.675" cy="536.173" r="4"/>
<line fill="none" stroke="#000000" stroke-miterlimit="10" x1="2028.675" y1="535.673" x2="2018.675" y2="531.673"/>
<line fill="none" stroke="#000000" stroke-miterlimit="10" x1="2018.175" y1="526.172" x2="2029.175" y2="519.173"/>
<polygon fill="none" stroke="#000000" stroke-miterlimit="10" points="2074.675,482.423 2064.675,489.923 2068.675,477.924 
	2059.675,470.923 2070.675,470.923 2074.675,459.424 2078.675,470.923 2089.675,470.923 2080.675,477.924 2084.675,489.923 "/>
<rect x="2009.175" y="466.173" fill="none" stroke="#000000" stroke-miterlimit="10" width="27" height="21"/>
<polyline fill="none" stroke="#000000" stroke-miterlimit="10" points="2014.175,464.673 2014.175,462.173 2040.175,462.173 
	2040.175,483.673 2037.675,483.673 "/>
<line fill="none" stroke="#000000" stroke-miterlimit="10" x1="2009.175" y1="470.173" x2="2036.175" y2="470.173"/>
<line fill="none" stroke="#000000" stroke-miterlimit="10" x1="2013.675" y1="468.173" x2="2011.675" y2="468.173"/>
<line fill="none" stroke="#000000" stroke-miterlimit="10" x1="2017.675" y1="468.173" x2="2015.675" y2="468.173"/>
<line fill="none" stroke="#000000" stroke-miterlimit="10" x1="2021.675" y1="468.173" x2="2019.675" y2="468.173"/>
<line fill="none" stroke="#000000" stroke-miterlimit="10" x1="1512.675" y1="524.723" x2="1536.675" y2="524.723"/>
<line fill="none" stroke="#000000" stroke-miterlimit="10" x1="1512.675" y1="514.723" x2="1536.675" y2="514.723"/>
<line fill="none" stroke="#000000" stroke-miterlimit="10" x1="1512.675" y1="534.623" x2="1536.675" y2="534.623"/>
<line fill="none" stroke="#000000" stroke-miterlimit="10" x1="1724.675" y1="481.424" x2="1724.675" y2="467.922"/>
<line fill="none" stroke="#000000" stroke-miterlimit="10" x1="1717.925" y1="474.674" x2="1731.425" y2="474.674"/>
<line fill="none" stroke="#000000" stroke-miterlimit="10" x1="1767.925" y1="524.743" x2="1781.425" y2="524.743"/>
<polyline fill="none" stroke="#000000" stroke-miterlimit="10" points="1684.875,519.573 1674.675,529.772 1664.475,519.573 "/>
<polyline fill="none" stroke="#000000" stroke-miterlimit="10" points="1684.875,519.573 1674.675,529.772 1664.475,519.573 "/>
<polyline fill="none" stroke="#000000" stroke-miterlimit="10" points="1714.476,529.772 1724.675,519.573 1734.876,529.772 "/>
<polyline fill="none" stroke="#000000" stroke-miterlimit="10" points="1714.476,529.772 1724.675,519.573 1734.876,529.772 "/>
<polygon fill="none" stroke="#000000" stroke-miterlimit="10" points="1929.294,578.033 1924.675,571.314 1920.054,578.033 "/>
<polygon fill="none" stroke="#000000" stroke-miterlimit="10" points="1870.055,571.314 1874.675,578.033 1879.295,571.314 "/>
<polygon fill="none" stroke="#000000" stroke-miterlimit="10" points="2029.295,578.033 2024.675,571.314 2020.055,578.033 "/>
<polygon fill="none" stroke="#000000" stroke-miterlimit="10" points="1970.055,571.314 1974.675,578.033 1979.295,571.314 "/>
<line fill="none" stroke="#000000" stroke-miterlimit="10" x1="1769.782" y1="470.019" x2="1779.569" y2="479.733"/>
<line fill="none" stroke="#000000" stroke-miterlimit="10" x1="1769.819" y1="479.769" x2="1779.532" y2="469.983"/>
<polyline fill="none" stroke="#000000" stroke-miterlimit="10" points="1531.05,577.86 1524.675,571.485 1518.3,577.86 "/>
<polyline fill="none" stroke="#000000" stroke-miterlimit="10" points="1477.863,568.299 1471.488,574.674 1477.863,581.049 "/>
<polyline fill="none" stroke="#000000" stroke-miterlimit="10" points="1618.3,571.486 1624.675,577.861 1631.05,571.486 "/>
<polyline fill="none" stroke="#000000" stroke-miterlimit="10" points="1571.488,581.049 1577.863,574.674 1571.488,568.299 "/>
<path fill="none" stroke="#000000" stroke-miterlimit="10" d="M1660.893,470.342c-2.393,0-4.33,1.938-4.33,4.331
	s1.938,4.331,4.33,4.331s4.331-1.938,4.331-4.331S1663.286,470.342,1660.893,470.342z M1674.674,470.342
	c-2.393,0-4.331,1.938-4.331,4.331s1.938,4.331,4.331,4.331s4.331-1.938,4.331-4.331S1677.065,470.342,1674.674,470.342z
	 M1688.456,470.342c-2.393,0-4.33,1.938-4.33,4.331s1.938,4.331,4.33,4.331c2.392,0,4.332-1.938,4.332-4.331
	S1690.846,470.342,1688.456,470.342z"/>
<polygon fill="none" stroke="#000000" stroke-miterlimit="10" points="1833.175,470.423 1824.675,478.923 1816.174,470.423 "/>
<polygon fill="none" stroke="#000000" stroke-miterlimit="10" points="1866.175,478.923 1874.675,470.423 1883.175,478.923 "/>
<polygon fill="none" stroke="#000000" stroke-miterlimit="10" points="1928.925,483.174 1920.425,474.673 1928.925,466.173 "/>
<polygon fill="none" stroke="#000000" stroke-miterlimit="10" points="1970.425,466.173 1978.925,474.673 1970.425,483.174 "/>
<polyline fill="none" stroke="#000000" stroke-miterlimit="10" points="1816.175,520.423 1824.675,528.923 1833.175,520.423 "/>
<polyline fill="none" stroke="#000000" stroke-miterlimit="10" points="1883.175,528.923 1874.675,520.423 1866.174,528.923 "/>
<line fill="none" stroke="#000000" stroke-miterlimit="10" x1="1914.929" y1="519.313" x2="1923.701" y2="519.313"/>
<line fill="none" stroke="#000000" stroke-miterlimit="10" x1="1919.316" y1="514.928" x2="1919.316" y2="523.699"/>
<circle fill="none" stroke="#000000" stroke-miterlimit="10" cx="1919.316" cy="519.313" r="9.746"/>
<line fill="none" stroke="#000000" stroke-miterlimit="10" x1="1926.136" y1="526.136" x2="1929.06" y2="529.06"/>
<rect x="1931.622" y="527.141" transform="matrix(-0.7071 0.7071 -0.7071 -0.7071 3678.3892 -456.2637)" fill="none" stroke="#000000" stroke-miterlimit="10" width="4.135" height="13.093"/>
<path fill="none" stroke="#000000" stroke-miterlimit="10" d="M2082.581,522.601h3.57v-8.755c0-0.546-0.447-0.991-0.994-0.991
	h-20.963c-0.547,0-0.994,0.445-0.994,0.991v8.755h3.572c3.747,0,6.905,2.506,7.902,5.93
	C2075.674,525.106,2078.833,522.601,2082.581,522.601z"/>
<path fill="none" stroke="#000000" stroke-miterlimit="10" d="M2080.407,526.417c-2.33,0-4.398,1.099-5.731,2.801
	c-1.332-1.702-3.399-2.801-5.729-2.801h-5.744v9.082c0,0.546,0.447,0.992,0.992,0.992h20.965c0.545,0,0.992-0.446,0.992-0.992
	v-9.082H2080.407z"/>
<polygon fill="none" stroke="#000000" stroke-miterlimit="10" points="1671.316,570.053 1678.035,574.674 1671.316,579.293 "/>
<polygon fill="none" stroke="#FFFFFF" stroke-miterlimit="10" points="1721.315,579.293 1728.036,574.674 1721.315,570.053 "/>
<polygon fill="none" stroke="#000000" stroke-miterlimit="10" points="1821.316,570.053 1828.035,574.674 1821.316,579.293 "/>
<polygon fill="none" stroke="#000000" stroke-miterlimit="10" points="1771.315,579.362 1778.036,574.743 1771.315,570.122 "/>
</svg>
