<?xml version="1.0" encoding="utf-8"?>
<!-- Generator: Adobe Illustrator 16.0.4, SVG Export Plug-In . SVG Version: 6.00 Build 0)  -->
<!DOCTYPE svg PUBLIC "-//W3C//DTD SVG 1.1//EN" "http://www.w3.org/Graphics/SVG/1.1/DTD/svg11.dtd">
<svg version="1.1" xmlns="http://www.w3.org/2000/svg" xmlns:xlink="http://www.w3.org/1999/xlink" x="0px" y="0px" width="650px"
	 height="50px" viewBox="0 0 650 50" enable-background="new 0 0 650 50" xml:space="preserve">
<g id="red-bg" display="none">
	<rect x="-715.187" y="-7.673" display="inline" opacity="0.27" fill="#FF0000" width="2149.996" height="449.673"/>
</g>
<g id="layer-set-12">
</g>
<g id="layer-set-11">
</g>
<g id="layer-set-10">
</g>
<g id="layer-set-9">
</g>
<g id="layer-set-8">
</g>
<g id="layer-set-7">
</g>
<g id="layer-set-6">
</g>
<g id="layer-set-5">
</g>
<g id="layer-set-4">
</g>
<g id="layer-set-3">
</g>
<g id="layer-set-2">
	<g>
		<path fill="#00ABC8" d="M89.001,16.314c-1.029,0.458-2.139,0.766-3.3,0.905c1.187-0.71,2.097-1.836,2.524-3.178
			c-1.108,0.658-2.34,1.137-3.647,1.394c-1.048-1.117-2.54-1.814-4.19-1.814c-3.173,0-5.746,2.573-5.746,5.746
			c0,0.452,0.051,0.889,0.148,1.308c-4.773-0.241-9.008-2.526-11.842-6.001c-0.494,0.848-0.777,1.833-0.777,2.888
			c0,1.994,1.016,3.751,2.557,4.783c-0.942-0.033-1.828-0.29-2.604-0.72c-0.001,0.025-0.001,0.048-0.001,0.073
			c0,2.782,1.981,5.103,4.608,5.633c-0.481,0.13-0.989,0.2-1.514,0.2c-0.369,0-0.73-0.037-1.08-0.102
			c0.73,2.281,2.852,3.942,5.366,3.989c-1.966,1.54-4.442,2.46-7.135,2.46c-0.464,0-0.921-0.03-1.37-0.082
			c2.541,1.629,5.561,2.582,8.807,2.582c10.565,0,16.344-8.752,16.344-16.345c0-0.249-0.006-0.497-0.018-0.744
			C87.257,18.479,88.231,17.467,89.001,16.314L89.001,16.314z"/>
	</g>
	<g>
		<g>
			<path fill="#0680AB" d="M190,37.52c0,1.365-1.116,2.48-2.48,2.48H162.48c-1.364,0-2.48-1.116-2.48-2.48V12.48
				c0-1.364,1.116-2.48,2.48-2.48h25.039c1.365,0,2.48,1.116,2.48,2.48V37.52L190,37.52z"/>
		</g>
		<g>
			<path fill="#FFFFFF" d="M167.02,19.644c1.568,0,2.545-1.041,2.545-2.339c-0.028-1.328-0.976-2.339-2.516-2.339
				s-2.546,1.011-2.546,2.34c0,1.298,0.978,2.339,2.487,2.339L167.02,19.644L167.02,19.644L167.02,19.644z M169.27,35.034V21.492
				h-4.502v13.542H169.27L169.27,35.034L169.27,35.034z"/>
			<path fill="#FFFFFF" d="M171.76,35.034h4.5v-7.563c0-0.403,0.032-0.811,0.149-1.096c0.325-0.809,1.065-1.647,2.312-1.647
				c1.627,0,2.278,1.242,2.278,3.063v7.244h4.5v-7.766c0-4.158-2.22-6.093-5.183-6.093c-2.428,0-3.492,1.356-4.088,2.282h0.029
				v-1.964h-4.5C171.818,22.763,171.76,35.034,171.76,35.034L171.76,35.034L171.76,35.034z"/>
		</g>
	</g>
	<g>
		
			<linearGradient id="SVGID_1_" gradientUnits="userSpaceOnUse" x1="226.0557" y1="-424.6787" x2="226.0557" y2="-449.0427" gradientTransform="matrix(1 0 0 1 -101.0552 463.3594)">
			<stop  offset="0" style="stop-color:#034892"/>
			<stop  offset="1" style="stop-color:#098FFF"/>
		</linearGradient>
		<path fill="url(#SVGID_1_)" d="M140,37.52c0,1.365-1.116,2.48-2.48,2.48H112.48c-1.364,0-2.48-1.116-2.48-2.48V12.48
			c0-1.364,1.116-2.48,2.48-2.48h25.039c1.365,0,2.48,1.116,2.48,2.48V37.52z"/>
		<path fill="#F70F40" d="M117.5,10h-5.02c-1.364,0-2.48,1.116-2.48,2.48v1.514h7.5V10z"/>
		<rect x="117.5" y="10" fill="#138FFB" width="7.5" height="3.994"/>
		<rect x="125" y="10" fill="#2DBE10" width="7.5" height="3.994"/>
		<path fill="#F7C511" d="M137.52,10h-5.02v3.994h7.5V12.48C140,11.116,138.884,10,137.52,10z"/>
		<g>
			<polygon fill="#FFFFFF" points="123.473,27.438 120.516,27.438 120.516,24.479 118.541,24.479 118.541,27.438 115.583,27.438 
				115.583,29.407 118.541,29.407 118.541,32.368 120.516,32.368 120.516,29.407 123.473,29.407 			"/>
			<path fill="#FFFFFF" d="M134.418,20.209h-1.688c0,0-4.19,3.775-5.541,3.554l-0.472,2.573c0.874,0.085,3.849-1.693,3.849-1.693
				l-1.909,9.727h2.817L134.418,20.209z"/>
		</g>
	</g>
	<g>
		
			<linearGradient id="SVGID_2_" gradientUnits="userSpaceOnUse" x1="126.0557" y1="-424.6787" x2="126.0557" y2="-449.0427" gradientTransform="matrix(1 0 0 1 -101.0552 463.3594)">
			<stop  offset="0" style="stop-color:#39517B"/>
			<stop  offset="1" style="stop-color:#5F7AB2"/>
		</linearGradient>
		<path fill="url(#SVGID_2_)" d="M40,37.52c0,1.365-1.116,2.48-2.48,2.48H12.48C11.116,40,10,38.884,10,37.52V12.48
			c0-1.364,1.116-2.48,2.48-2.48H37.52c1.365,0,2.48,1.116,2.48,2.48V37.52z"/>
		<path fill="#39517B" d="M33.455,19.397h1.704V15.95h-3.694c-2.242,0-4.062,1.818-4.062,4.061v2.063H24.49v3.447h2.914v10.615
			h4.531V25.521h3.224v-3.447h-3.224v-1.158C31.936,20.078,32.615,19.397,33.455,19.397"/>
		<path fill="#FFFFFF" d="M32.83,18.876h1.704v-3.447H30.84c-2.242,0-4.062,1.818-4.062,4.061v2.063h-2.914V25h2.914v10.615h4.531
			V25h3.225v-3.447h-3.223v-1.158C31.311,19.556,31.99,18.876,32.83,18.876"/>
	</g>
	<path fill="#00ABC8" d="M240,37.5c0,1.381-1.119,2.5-2.5,2.5h-25c-1.381,0-2.5-1.119-2.5-2.5v-25c0-1.381,1.119-2.5,2.5-2.5h25
		c1.381,0,2.5,1.119,2.5,2.5V37.5z"/>
	<path fill="#FFFFFF" d="M215.076,19.264c0.576,0.32,8.559,4.739,8.855,4.902c0.295,0.165,0.682,0.244,1.067,0.244
		c0.388,0,0.772-0.079,1.069-0.245c0.298-0.164,8.277-4.583,8.854-4.902c0.577-0.319,1.123-1.321,0.064-1.321h-19.975
		C213.955,17.942,214.499,18.943,215.076,19.264z M235.168,21.698c-0.656,0.352-8.697,4.686-9.1,4.902
		c-0.4,0.216-0.68,0.244-1.068,0.244c-0.387,0-0.667-0.028-1.068-0.244c-0.4-0.217-8.443-4.552-9.098-4.902
		c-0.462-0.249-0.458,0.042-0.458,0.266c0,0.224,0,8.926,0,8.926c0,0.511,0.66,1.168,1.171,1.168h18.909
		c0.512,0,1.169-0.658,1.169-1.167c0,0,0-8.701,0-8.925C235.625,21.74,235.63,21.449,235.168,21.698z"/>
	<path fill="#00ABC8" d="M290,37.5c0,1.381-1.119,2.5-2.5,2.5h-25c-1.381,0-2.5-1.119-2.5-2.5v-25c0-1.381,1.119-2.5,2.5-2.5h25
		c1.381,0,2.5,1.119,2.5,2.5V37.5z"/>
	<path fill-rule="evenodd" clip-rule="evenodd" fill="#FFFFFF" d="M282.31,17.649c-1.94-1.942-4.519-3.012-7.267-3.013
		c-5.661,0-10.269,4.608-10.271,10.271c-0.003,1.811,0.471,3.578,1.37,5.135l-1.456,5.323l5.444-1.43
		c1.5,0.818,3.189,1.251,4.908,1.251h0.004l0,0c5.66,0,10.269-4.608,10.271-10.271C285.315,22.17,284.248,19.59,282.31,17.649
		 M275.043,33.452h-0.002c-1.533,0-3.034-0.413-4.346-1.19l-0.313-0.185l-3.23,0.847l0.862-3.15l-0.202-0.323
		c-0.855-1.358-1.307-2.931-1.307-4.542c0.003-4.708,3.833-8.537,8.542-8.537c2.28,0,4.423,0.89,6.035,2.503
		c1.611,1.614,2.499,3.759,2.498,6.041C283.579,29.622,279.748,33.452,275.043,33.452 M279.727,27.058
		c-0.257-0.129-1.519-0.75-1.754-0.835c-0.235-0.086-0.407-0.128-0.578,0.128c-0.171,0.258-0.663,0.835-0.813,1.007
		c-0.149,0.171-0.298,0.192-0.555,0.064c-0.256-0.13-1.084-0.401-2.065-1.274c-0.762-0.68-1.276-1.521-1.427-1.778
		c-0.149-0.256-0.015-0.396,0.113-0.522c0.115-0.116,0.256-0.301,0.385-0.45c0.128-0.15,0.17-0.257,0.256-0.429
		s0.043-0.322-0.021-0.449c-0.065-0.129-0.578-1.393-0.792-1.906c-0.208-0.5-0.42-0.433-0.577-0.44
		c-0.149-0.007-0.321-0.01-0.491-0.01c-0.172,0-0.449,0.064-0.685,0.321c-0.235,0.256-0.898,0.877-0.898,2.141
		s0.92,2.485,1.047,2.656c0.13,0.171,1.811,2.763,4.386,3.875c0.612,0.265,1.09,0.421,1.462,0.541
		c0.615,0.194,1.175,0.166,1.617,0.101c0.493-0.074,1.519-0.621,1.733-1.22c0.213-0.6,0.213-1.114,0.148-1.22
		C280.152,27.25,279.982,27.186,279.727,27.058"/>
</g>
<g id="layer-set-1">
</g>
</svg>
