<?xml version="1.0" encoding="utf-8"?>
<!-- Generator: Adobe Illustrator 15.0.0, SVG Export Plug-In  -->
<!DOCTYPE svg PUBLIC "-//W3C//DTD SVG 1.1//EN" "http://www.w3.org/Graphics/SVG/1.1/DTD/svg11.dtd" [
	<!ENTITY ns_flows "http://ns.adobe.com/Flows/1.0/">
]>
<svg version="1.1"
	 xmlns="http://www.w3.org/2000/svg" xmlns:xlink="http://www.w3.org/1999/xlink" xmlns:a="http://ns.adobe.com/AdobeSVGViewerExtensions/3.0/"
	 x="0px" y="0px" width="650px" height="150px" viewBox="1449.675 249.673 650 150"
	 overflow="visible" enable-background="new 1449.675 249.673 650 150" xml:space="preserve">
<defs>
</defs>
<polygon opacity="0.2" fill="#404040" enable-background="new    " points="1820.045,367.022 1819.999,366.978 1820.664,366.288 
	1829.304,374.628 1829.352,374.673 1820.709,383.015 1820.664,383.058 1819.999,382.368 1827.973,374.673 "/>
<path fill="#404040" d="M1580.81,281.072l-0.586-0.681c1.613-1.39,2.541-3.477,2.541-5.727s-0.928-4.337-2.541-5.727l0.586-0.681
	c1.812,1.56,2.854,3.896,2.854,6.408C1583.664,277.176,1582.623,279.511,1580.81,281.072z"/>
<path fill="#404040" d="M1579.23,279.506l-0.574-0.692c1.268-1.049,2.086-2.678,2.086-4.15c0-1.476-0.818-3.104-2.084-4.149
	l0.572-0.694c1.463,1.209,2.41,3.11,2.41,4.843C1581.64,276.392,1580.695,278.293,1579.23,279.506z"/>
<path fill="#404040" d="M1577.882,277.706l-0.574-0.692c0.541-0.449,1.186-1.221,1.186-2.351c0-1.129-0.645-1.901-1.186-2.351
	l0.574-0.691c0.975,0.809,1.512,1.889,1.512,3.042C1579.394,275.817,1578.857,276.898,1577.882,277.706z"/>
<path fill="#404040" d="M1575.574,282.767l-5.564-4.957h-4.322v-5.393h4.301l5.586-5.839V282.767z M1566.585,276.911h3.766
	l4.322,3.852v-11.945l-4.301,4.498h-3.787V276.911z"/>
<rect x="1613.554" y="264.557" fill="none" width="20.242" height="20.232"/>
<polygon fill="#404040" points="1625.583,282.943 1622.276,279.931 1622.769,279.298 1624.817,281.166 1624.817,275.895 
	1625.583,275.895 "/>
<polygon fill="#404040" points="1619.461,277.547 1616.019,277.547 1616.019,272.173 1619.698,272.173 1625.583,266.402 
	1625.583,270.933 1624.817,270.933 1624.817,268.27 1619.993,273 1616.784,273 1616.784,276.721 1619.461,276.721 "/>
<polygon fill="#404040" points="1617.559,282.792 1617.004,282.226 1630.774,266.514 1631.331,267.083 "/>
<rect x="1662.029" y="272.143" fill="none" width="25.293" height="5.059"/>
<path fill="#404040" d="M1669.243,276.031c-0.75,0-1.359-0.609-1.359-1.358c0-0.749,0.609-1.358,1.359-1.358
	c0.748,0,1.357,0.609,1.357,1.358C1670.6,275.421,1669.991,276.031,1669.243,276.031z M1669.243,273.994
	c-0.375,0-0.68,0.305-0.68,0.679c0,0.374,0.305,0.679,0.68,0.679c0.373,0,0.678-0.305,0.678-0.679
	C1669.92,274.299,1669.618,273.994,1669.243,273.994z"/>
<path fill="#404040" d="M1680.11,276.031c-0.75,0-1.359-0.609-1.359-1.358c0-0.749,0.609-1.358,1.359-1.358
	c0.748,0,1.357,0.609,1.357,1.358C1681.467,275.421,1680.858,276.031,1680.11,276.031z M1680.11,273.994
	c-0.375,0-0.68,0.305-0.68,0.679c0,0.374,0.305,0.679,0.68,0.679c0.373,0,0.678-0.305,0.678-0.679
	C1680.788,274.299,1680.485,273.994,1680.11,273.994z"/>
<path fill="#404040" d="M1674.676,276.031c-0.75,0-1.357-0.609-1.357-1.358c0-0.749,0.607-1.358,1.357-1.358
	c0.748,0,1.357,0.609,1.357,1.358C1676.034,275.421,1675.424,276.031,1674.676,276.031z M1674.676,273.994
	c-0.375,0-0.68,0.305-0.68,0.679c0,0.374,0.305,0.679,0.68,0.679s0.68-0.305,0.68-0.679
	C1675.356,274.299,1675.051,273.994,1674.676,273.994z"/>
<rect x="1717.718" y="274.268" fill="#FFFFFF" width="13.916" height="0.696"/>
<rect x="1724.328" y="267.715" fill="#FFFFFF" width="0.695" height="13.916"/>
<rect x="1766.97" y="274.263" transform="matrix(-0.7071 0.7071 -0.7071 -0.7071 3223.7456 -785.9824)" fill="#FFFFFF" width="15.36" height="0.768"/>
<rect x="1774.316" y="267.018" transform="matrix(-0.7074 0.7068 -0.7068 -0.7074 3224.3203 -785.3105)" fill="#FFFFFF" width="0.768" height="15.36"/>
<rect x="1767.717" y="316.325" fill="#FFFFFF" width="13.916" height="0.695"/>
<rect x="1717.718" y="267.715" fill="none" width="13.916" height="13.916"/>
<g>
	<defs>
		<rect id="SVGID_8_" x="1470.045" y="266.296" width="9.261" height="16.753"/>
	</defs>
	<clipPath id="SVGID_10_">
		<use xlink:href="#SVGID_8_"  overflow="visible"/>
	</clipPath>
	<polygon clip-path="url(#SVGID_10_)" fill="#404040" points="1478.725,283.049 1479.306,282.447 1471.25,274.673 1479.306,266.899 
		1478.725,266.296 1470.045,274.673 	"/>
</g>
<polygon fill="#FFFFFF" points="1478.285,368.71 1478.321,368.675 1477.802,368.138 1471.068,374.638 1471.031,374.673 
	1477.767,381.173 1477.802,381.208 1478.321,380.671 1472.105,374.673 "/>
<polygon fill="#FFFFFF" points="1530.638,378.282 1530.673,378.317 1531.21,377.8 1524.712,371.065 1524.675,371.028 
	1518.175,377.765 1518.14,377.8 1518.677,378.317 1524.675,372.103 "/>
<polygon fill="#FFFFFF" points="1571.066,368.71 1571.03,368.675 1571.548,368.138 1578.283,374.638 1578.32,374.673 
	1571.583,381.173 1571.548,381.208 1571.03,380.671 1577.246,374.673 "/>
<polygon fill="#FFFFFF" points="1670.044,367.022 1669.999,366.978 1670.663,366.288 1679.303,374.628 1679.352,374.673 
	1670.708,383.013 1670.663,383.058 1669.999,382.368 1677.973,374.673 "/>
<polygon fill="#404040" points="1720.046,367.022 1720,366.978 1720.664,366.288 1729.304,374.628 1729.353,374.673 
	1720.71,383.013 1720.664,383.058 1720,382.368 1727.974,374.673 "/>
<polygon opacity="0.5" fill="#404040" enable-background="new    " points="1770.044,367.022 1769.999,366.978 1770.663,366.288 
	1779.303,374.628 1779.352,374.673 1770.708,383.015 1770.663,383.058 1769.999,382.368 1777.973,374.673 "/>
<polygon fill="#FFFFFF" points="1630.637,371.065 1630.673,371.028 1631.21,371.548 1624.71,378.28 1624.674,378.317 
	1618.174,371.583 1618.139,371.548 1618.677,371.028 1624.675,377.245 "/>
<rect x="1471.102" y="368.208" fill="none" width="7.146" height="12.93"/>
<g>
	<defs>
		<rect id="SVGID_6_" x="1520.044" y="266.296" width="9.262" height="16.753"/>
	</defs>
	<clipPath id="SVGID_12_">
		<use xlink:href="#SVGID_6_"  overflow="visible"/>
	</clipPath>
	<polygon clip-path="url(#SVGID_12_)" fill="#404040" points="1520.626,283.049 1520.044,282.447 1528.101,274.673 
		1520.044,266.899 1520.626,266.296 1529.306,274.673 	"/>
</g>
<g>
	<defs>
		<rect id="SVGID_4_" x="1812.917" y="318.174" width="23.518" height="13"/>
	</defs>
	<clipPath id="SVGID_14_">
		<use xlink:href="#SVGID_4_"  overflow="visible"/>
	</clipPath>
	<polygon clip-path="url(#SVGID_14_)" fill="#404040" points="1812.917,318.988 1813.762,318.174 1824.675,329.481 
		1835.588,318.174 1836.435,318.988 1824.675,331.174 	"/>
</g>
<polygon fill="#404040" points="1574.675,329.491 1566.248,320.429 1566.863,319.854 1574.675,328.254 1582.488,319.854 
	1583.103,320.429 "/>
<polygon fill="#404040" points="1924.675,379.491 1916.246,370.429 1916.863,369.854 1924.675,378.255 1932.486,369.854 
	1933.103,370.429 "/>
<polygon fill="#FFFFFF" points="1874.675,379.491 1866.247,370.429 1866.864,369.854 1874.675,378.255 1882.487,369.854 
	1883.104,370.429 "/>
<polygon fill="#404040" points="1974.675,369.854 1983.104,378.917 1982.487,379.491 1974.675,371.091 1966.864,379.491 
	1966.247,378.917 "/>
<polygon fill="#FFFFFF" points="2024.675,369.854 2033.104,378.917 2032.487,379.491 2024.675,371.091 2016.864,379.491 
	2016.247,378.917 "/>
<polygon fill="#404040" points="1624.675,319.854 1616.248,328.917 1616.863,329.491 1624.675,321.093 1632.488,329.491 
	1633.103,328.917 "/>
<rect x="1519.6" y="319.439" fill="#404040" width="10.15" height="0.967"/>
<rect x="1523.952" y="319.439" fill="#404040" width="1.449" height="0.967"/>
<rect x="1519.6" y="324.106" fill="#404040" width="10.15" height="0.966"/>
<rect x="1523.952" y="324.106" fill="#404040" width="1.449" height="0.966"/>
<rect x="1519.6" y="328.939" fill="#404040" width="10.15" height="0.967"/>
<rect x="1523.952" y="328.939" fill="#404040" width="1.449" height="0.967"/>
<path fill="#404040" d="M1476.872,335.666h-4.396v-3.036c-0.086-0.042-0.187-0.089-0.293-0.142
	c-0.405-0.193-0.889-0.426-1.303-0.655l-2.842,2.334l-2.924-3.002l2.284-2.347c-0.29-0.535-0.65-1.313-0.863-2.185h-2.853v-4.485
	h2.953c0.043-0.09,0.088-0.192,0.138-0.302c0.194-0.427,0.426-0.937,0.655-1.366l-1.715-2.349l2.916-2.995l2.293,2.354
	c0.414-0.227,0.893-0.457,1.268-0.637c0.104-0.05,0.201-0.096,0.287-0.138v-3.036h4.396v3.036c0.086,0.042,0.184,0.088,0.288,0.138
	c0.375,0.18,0.853,0.41,1.267,0.637l2.293-2.354l2.916,2.995l-1.724,2.359c0.132,0.289,0.263,0.638,0.388,0.978
	c0.078,0.208,0.182,0.487,0.265,0.681h3.103v4.484h-2.814c-0.192,1.23-0.549,1.739-0.87,2.191c-0.015,0.021-0.03,0.043-0.044,0.063
	l1.697,2.325l-2.916,2.995l-2.291-2.354c-0.404,0.223-0.869,0.445-1.26,0.633c-0.107,0.052-0.207,0.1-0.295,0.142v3.038H1476.872z
	 M1473.574,334.566h2.198v-2.595l0.281-0.157c0.127-0.072,0.358-0.184,0.638-0.316c0.475-0.229,1.125-0.54,1.536-0.799l0.377-0.235
	l2.115,2.171l1.48-1.521l-1.589-2.176l0.187-0.312c0.092-0.156,0.189-0.294,0.286-0.434c0.323-0.457,0.603-0.853,0.738-2.164
	l0.051-0.494h2.694v-2.286h-2.02c-0.074,0.032-0.154,0.049-0.236,0.049c-0.506,0-0.674-0.453-1.043-1.445
	c-0.155-0.419-0.332-0.894-0.473-1.131l-0.186-0.312l1.589-2.176l-1.481-1.521l-2.113,2.171l-0.377-0.235
	c-0.414-0.26-1.067-0.572-1.543-0.802c-0.275-0.132-0.504-0.243-0.631-0.313l-0.281-0.156v-2.596h-2.198v2.596l-0.282,0.156
	c-0.126,0.07-0.355,0.182-0.63,0.312c-0.478,0.229-1.129,0.542-1.544,0.803l-0.375,0.234l-2.115-2.171l-1.48,1.521l1.589,2.176
	l-0.187,0.312c-0.252,0.424-0.556,1.092-0.776,1.58c-0.13,0.286-0.239,0.523-0.31,0.654l-0.154,0.293h-2.529v2.287h2.661
	l0.079,0.455c0.193,1.113,0.728,2.129,1.029,2.636l0.217,0.362l-2.119,2.177l1.472,1.513l2.664-2.189l0.335,0.211
	c0.414,0.26,1.062,0.57,1.538,0.799c0.278,0.133,0.51,0.244,0.638,0.316l0.28,0.157V334.566z"/>
<path fill="#404040" d="M1474.674,328.893c-2.273,0-4.123-1.893-4.123-4.218c0-2.326,1.85-4.219,4.123-4.219
	c2.272,0,4.121,1.893,4.121,4.219S1476.947,328.893,1474.674,328.893z M1474.674,321.555c-1.668,0-3.022,1.398-3.022,3.12
	s1.356,3.119,3.022,3.119s3.021-1.399,3.021-3.119S1476.34,321.555,1474.674,321.555z"/>
<polygon fill="#404040" points="1674.675,332.996 1666.375,325.385 1666.937,324.771 1674.675,331.869 1682.414,324.771 
	1682.975,325.385 "/>
<polygon fill="#404040" points="1674.675,325.25 1666.363,316.937 1666.949,316.35 1674.675,324.076 1682.402,316.35 
	1682.988,316.937 "/>
<polygon fill="#404040" points="1724.675,316.35 1716.376,323.961 1716.937,324.574 1724.675,317.477 1732.414,324.574 
	1732.976,323.961 "/>
<polygon fill="#404040" points="1724.675,324.096 1716.363,332.408 1716.949,332.996 1724.675,325.271 1732.402,332.996 
	1732.988,332.408 "/>
<polygon fill="#404040" points="1966.463,291.212 1965.101,289.748 1981.312,274.672 1965.101,259.597 1966.463,258.133 
	1984.249,274.672 "/>
<polygon fill="#404040" points="1932.886,291.212 1934.248,289.748 1918.039,274.672 1934.248,259.598 1932.886,258.133 
	1915.101,274.672 "/>
<polygon fill="#404040" points="1858.135,282.885 1859.6,284.246 1874.675,268.036 1889.75,284.246 1891.215,282.885 
	1874.675,265.1 "/>
<polygon fill="#404040" points="1808.135,266.461 1809.6,265.1 1824.675,281.31 1839.75,265.1 1841.215,266.461 1824.675,284.246 
	"/>
<rect x="1965.371" y="258.397" fill="none" width="18.609" height="32.551"/>
<polygon fill="#404040" points="1984.656,338.776 1976.671,338.776 1976.671,330.792 1972.678,330.792 1972.678,338.776 
	1964.695,338.776 1964.695,322.14 1966.025,322.14 1966.025,337.446 1971.348,337.446 1971.348,329.462 1978.002,329.462 
	1978.002,337.446 1983.326,337.446 1983.326,322.14 1984.656,322.14 "/>
<polygon fill="#404040" points="1962.294,324.349 1961.371,323.392 1974.675,310.569 1987.98,323.392 1987.055,324.349 
	1974.675,312.417 "/>
<polygon fill="#404040" points="1977.003,324.452 1975.673,324.452 1975.673,321.124 1972.347,321.124 1972.347,319.794 
	1977.003,319.794 "/>
<rect x="2021.377" y="327.003" transform="matrix(-0.9123 -0.4094 0.4094 -0.9123 3737.7808 1455.1904)" fill="#404040" width="6.595" height="0.893"/>
<rect x="2024.166" y="318.512" transform="matrix(-0.4507 -0.8927 0.8927 -0.4507 2649.8599 2274.1572)" fill="#404040" width="0.893" height="6.587"/>
<path fill="#404040" d="M2019.112,328.049c-1.859,0-3.374-1.515-3.374-3.375c0-1.861,1.515-3.375,3.374-3.375
	c1.861,0,3.375,1.514,3.375,3.375C2022.487,326.534,2020.973,328.049,2019.112,328.049z M2019.112,322.193
	c-1.368,0-2.48,1.113-2.48,2.48c0,1.369,1.113,2.481,2.48,2.481c1.368,0,2.48-1.112,2.48-2.481
	C2021.592,323.307,2020.48,322.193,2019.112,322.193z"/>
<path fill="#404040" d="M2030.238,322.485c-1.86,0-3.375-1.515-3.375-3.375s1.515-3.375,3.375-3.375s3.375,1.515,3.375,3.375
	S2032.098,322.485,2030.238,322.485z M2030.238,316.631c-1.368,0-2.479,1.112-2.479,2.48s1.112,2.48,2.479,2.48
	c1.368,0,2.481-1.112,2.481-2.48S2031.606,316.631,2030.238,316.631z"/>
<path fill="#404040" d="M2030.238,333.611c-1.86,0-3.375-1.514-3.375-3.375s1.515-3.375,3.375-3.375s3.375,1.514,3.375,3.375
	S2032.098,333.611,2030.238,333.611z M2030.238,327.756c-1.368,0-2.479,1.112-2.479,2.48s1.112,2.48,2.479,2.48
	c1.368,0,2.481-1.112,2.481-2.48S2031.606,327.756,2030.238,327.756z"/>
<path fill="#404040" d="M2071.126,277.442l0.167-0.625l-0.501-0.41l-3.346-2.737h4.217h0.695l0.244-0.651l2.073-5.527l2.073,5.527
	l0.244,0.651h0.697h4.215l-3.346,2.737l-0.501,0.41l0.167,0.625l1.305,4.895l-4.281-2.965l-0.574-0.397l-0.572,0.396l-4.281,2.965
	L2071.126,277.442z M2074.675,264.63l-3.014,8.034h-7.03l5.524,4.519l-2.01,7.533l6.528-4.52l6.528,4.52l-2.008-7.533l5.523-4.519
	h-7.03L2074.675,264.63z"/>
<path fill="#404040" d="M2025.083,282.84h-0.816c0-0.835-2.617-2.042-7.35-2.042h-0.408v-14.292h0.408
	c3.295,0,6.623,0.647,7.758,1.895c1.135-1.247,4.463-1.895,7.758-1.895h0.408v14.292h-0.408
	C2027.701,280.798,2025.083,282.005,2025.083,282.84z M2017.326,279.984c3.158,0.053,6.261,0.697,7.35,1.893
	c1.088-1.195,4.191-1.84,7.35-1.893v-12.657c-4.475,0.067-6.94,1.229-6.94,2.039h-0.816c0-0.81-2.467-1.972-6.94-2.039v12.657
	H2017.326z"/>
<rect x="2024.266" y="268.957" fill="#404040" width="0.815" height="13.883"/>
<path fill="#404040" d="M2075.574,379.917c0,0.496-0.403,0.898-0.899,0.898c-0.495,0-0.899-0.402-0.899-0.898
	s0.404-0.898,0.899-0.898C2075.17,379.019,2075.574,379.421,2075.574,379.917"/>
<path fill="#404040" d="M2075.273,377.519h-1.197v-2.996h0.599c1.322,0,2.397-1.076,2.397-2.396c0-1.322-1.075-2.398-2.397-2.398
	c-1.321,0-2.397,1.076-2.397,2.398h-1.197c0-1.984,1.613-3.598,3.596-3.598c1.983,0,3.596,1.613,3.596,3.598
	c0,1.777-1.297,3.26-2.996,3.545v1.848H2075.273z"/>
<path fill="#404040" d="M2085.462,385.46h-21.574v-21.574h21.574V385.46z M2086.662,362.687h-23.973v23.973h23.973V362.687z"/>
<rect x="2062.689" y="362.687" fill="none" width="23.973" height="23.973"/>
<g>
	<defs>
		<rect id="SVGID_2_" x="1862.917" y="318.173" width="23.518" height="13"/>
	</defs>
	<clipPath id="SVGID_16_">
		<use xlink:href="#SVGID_2_"  overflow="visible"/>
	</clipPath>
	<polygon clip-path="url(#SVGID_16_)" fill="#404040" points="1886.434,330.358 1885.588,331.173 1874.675,319.865 
		1863.762,331.173 1862.916,330.358 1874.675,318.173 	"/>
</g>
<path fill="none" stroke="#000000" stroke-miterlimit="10" d="M2082.581,322.601h3.57v-8.755c0-0.546-0.447-0.991-0.994-0.991
	h-20.963c-0.547,0-0.994,0.445-0.994,0.991v8.755h3.572c3.747,0,6.905,2.506,7.902,5.93
	C2075.674,325.106,2078.833,322.601,2082.581,322.601z"/>
<path fill="none" stroke="#000000" stroke-miterlimit="10" d="M2080.407,326.417c-2.33,0-4.398,1.099-5.731,2.801
	c-1.332-1.702-3.399-2.801-5.729-2.801h-5.744v9.082c0,0.546,0.447,0.992,0.992,0.992h20.965c0.545,0,0.992-0.446,0.992-0.992
	v-9.082H2080.407z"/>
<ellipse fill="none" stroke="#000000" stroke-miterlimit="10" cx="1921.089" cy="321.153" rx="6.52" ry="6.4"/>
<line fill="none" stroke="#000000" stroke-miterlimit="10" x1="1925.653" y1="325.634" x2="1927.609" y2="327.554"/>
<polygon fill="none" stroke="#000000" stroke-miterlimit="10" points="1926.631,328.513 1928.587,326.593 1934.781,332.673 
	1932.825,334.593 "/>
</svg>
