<?xml version="1.0" encoding="utf-8"?>
<!-- Generator: Adobe Illustrator 16.0.0, SVG Export Plug-In . SVG Version: 6.00 Build 0)  -->
<!DOCTYPE svg PUBLIC "-//W3C//DTD SVG 1.1//EN" "http://www.w3.org/Graphics/SVG/1.1/DTD/svg11.dtd">
<svg version="1.1" xmlns="http://www.w3.org/2000/svg" xmlns:xlink="http://www.w3.org/1999/xlink" x="0px" y="0px" width="650px"
	 height="150px" viewBox="0 0 650 150" enable-background="new 0 0 650 150" xml:space="preserve">
<g id="layer-set-12">
</g>
<g id="layer-set-11">
	<path fill="#E6333F" d="M37.641,25c0,6.981-5.658,12.64-12.64,12.64S12.359,31.981,12.359,25c0-6.98,5.66-12.64,12.641-12.64
		S37.641,18.02,37.641,25"/>
	<path fill="#E6333F" d="M37.641,75c0,6.981-5.66,12.64-12.641,12.64S12.359,81.981,12.359,75S18.02,62.36,25,62.36
		S37.641,68.019,37.641,75"/>
	<path fill="#E6333F" d="M87.641,75c0,6.981-5.659,12.64-12.641,12.64c-6.98,0-12.641-5.658-12.641-12.64S68.02,62.36,75,62.36
		C81.981,62.36,87.641,68.019,87.641,75"/>
	<path fill="#E6333F" d="M125.001,87.64c-6.981,0-12.641-5.658-12.641-12.64s5.659-12.642,12.641-12.642
		c6.98,0,12.639,5.66,12.639,12.642S131.981,87.64,125.001,87.64"/>
	<path fill="#E6333F" d="M174.999,87.64c-6.98,0-12.639-5.658-12.639-12.64s5.658-12.642,12.639-12.642
		c6.982,0,12.641,5.66,12.641,12.642S181.981,87.64,174.999,87.64"/>
	<path fill="#E6333F" d="M225,87.64c-6.98,0-12.641-5.658-12.641-12.64S218.02,62.358,225,62.358s12.641,5.66,12.641,12.642
		S231.98,87.64,225,87.64"/>
	<path fill="#E6333F" d="M87.641,25c0,6.981-5.66,12.64-12.641,12.64S62.359,31.981,62.359,25c0-6.98,5.66-12.64,12.641-12.64
		S87.641,18.02,87.641,25"/>
	<path fill="#E6333F" d="M137.641,25c0,6.98-5.66,12.641-12.641,12.641S112.359,31.98,112.359,25S118.02,12.359,125,12.359
		S137.641,18.02,137.641,25"/>
	<path fill="#E6333F" d="M187.64,25c0,6.98-5.658,12.641-12.639,12.641c-6.982,0-12.641-5.66-12.641-12.641
		s5.66-12.641,12.641-12.641C181.983,12.359,187.64,18.02,187.64,25"/>
	<path fill="#E6333F" d="M284.91,25c0,5.473-4.438,9.91-9.91,9.91s-9.91-4.438-9.91-9.91s4.438-9.91,9.91-9.91
		S284.91,19.527,284.91,25"/>
	<path fill="#E6333F" d="M34.91,125c0,5.473-4.438,9.91-9.91,9.91s-9.91-4.438-9.91-9.91s4.438-9.91,9.91-9.91
		S34.91,119.527,34.91,125"/>
	<path fill="#E6333F" d="M84.91,125c0,5.473-4.438,9.91-9.91,9.91c-5.474,0-9.91-4.438-9.91-9.91s4.437-9.91,9.91-9.91
		C80.473,115.09,84.91,119.527,84.91,125"/>
	<path fill="#E6333F" d="M134.91,125c0,5.473-4.438,9.91-9.91,9.91s-9.91-4.438-9.91-9.91s4.438-9.91,9.91-9.91
		S134.91,119.527,134.91,125"/>
	<path fill="#E6333F" d="M184.91,125c0,5.473-4.438,9.91-9.91,9.91c-5.474,0-9.91-4.438-9.91-9.91s4.437-9.91,9.91-9.91
		C180.473,115.09,184.91,119.527,184.91,125"/>
	<path fill="#E6333F" d="M334.91,25c0,5.473-4.438,9.91-9.91,9.91s-9.91-4.438-9.91-9.91s4.438-9.91,9.91-9.91
		S334.91,19.527,334.91,25"/>
	<path fill="#E6333F" d="M334.91,75c0,5.473-4.438,9.91-9.91,9.91s-9.91-4.438-9.91-9.91s4.438-9.91,9.91-9.91
		S334.91,69.527,334.91,75"/>
	<path fill="#FFFFFF" d="M67.49,70.499h15.02V67.5H67.49V70.499z M67.49,76.499h15.02V73.5H67.49V76.499z M67.49,82.5h15.02v-3.001
		H67.49V82.5z"/>
	<path fill="#FFFFFF" d="M125.384,17.077C125.26,17.025,125.13,17,125,17c-0.26,0-0.516,0.102-0.707,0.293L120.494,21h-2.504
		c-0.554,0-1.002,0.448-1.002,1v6c0,0.553,0.448,1,1.002,1h2.521l3.779,3.707C124.482,32.898,124.738,33,125,33
		c0.129,0,0.259-0.025,0.383-0.076C125.757,32.77,126,32.404,126,32V18C126,17.596,125.758,17.23,125.384,17.077 M128.195,21.682
		L126.875,23c0.541,0.452,0.904,1.168,0.904,2s-0.358,1.553-0.898,2.006l1.336,1.334c0.789-0.822,1.289-2.012,1.289-3.34
		C129.507,23.669,128.988,22.503,128.195,21.682 M130.74,19.141l-1.414,1.412c1.027,1.094,1.683,2.674,1.683,4.447
		s-0.655,3.354-1.681,4.45l1.412,1.409c1.39-1.457,2.271-3.533,2.271-5.859S132.13,20.598,130.74,19.141"/>
	<path fill="#FFFFFF" d="M178.89,17.076c-0.125-0.051-0.255-0.076-0.384-0.076c-0.262,0-0.516,0.102-0.709,0.293L174,21h-2.504
		c-0.552,0-1.002,0.447-1.002,1v6c0,0.553,0.45,1,1.002,1h2.521l3.779,3.707c0.193,0.191,0.447,0.293,0.709,0.293
		c0.129,0,0.259-0.025,0.384-0.076c0.373-0.154,0.616-0.52,0.616-0.924V18C179.506,17.596,179.263,17.23,178.89,17.076"/>
	<path fill="#FFFFFF" d="M32.893,73.332l-1.652-0.103c-0.141-0.502-0.342-0.976-0.594-1.416l1.112-1.215
		c0.318-0.32,0.318-0.836,0-1.154l-1.204-1.203c-0.32-0.319-0.834-0.319-1.152,0l-1.217,1.111c-0.439-0.252-0.914-0.453-1.414-0.593
		l-0.104-1.653c0-0.451-0.362-0.814-0.815-0.814h-1.703c-0.453,0-0.815,0.363-0.815,0.814l-0.104,1.653
		c-0.5,0.14-0.975,0.341-1.414,0.593l-1.217-1.111c-0.318-0.319-0.832-0.319-1.152,0l-1.204,1.203c-0.318,0.318-0.318,0.834,0,1.154
		l1.112,1.215c-0.252,0.44-0.453,0.914-0.594,1.416l-1.652,0.103c-0.453,0-0.815,0.362-0.815,0.815v1.705
		c0,0.451,0.362,0.814,0.815,0.814l1.652,0.104c0.141,0.5,0.342,0.976,0.594,1.416l-1.112,1.215c-0.318,0.318-0.318,0.834,0,1.154
		l1.204,1.202c0.32,0.319,0.834,0.319,1.152,0l1.217-1.11c0.439,0.25,0.914,0.451,1.414,0.592l0.104,1.652
		c0,0.453,0.362,0.816,0.815,0.816h1.703c0.453,0,0.815-0.363,0.815-0.816l0.104-1.652c0.5-0.141,0.975-0.342,1.414-0.592
		l1.217,1.11c0.318,0.319,0.832,0.319,1.152,0l1.204-1.202c0.318-0.32,0.318-0.836,0-1.154l-1.112-1.215
		c0.252-0.44,0.453-0.916,0.594-1.416l1.652-0.104c0.451,0,0.815-0.363,0.815-0.814v-1.705
		C33.708,73.694,33.344,73.332,32.893,73.332 M25,78.89c-2.148,0-3.891-1.742-3.891-3.891c0-2.15,1.742-3.891,3.891-3.891
		s3.891,1.74,3.891,3.891C28.891,77.147,27.148,78.89,25,78.89 M25,72.59c-1.33,0-2.408,1.079-2.408,2.409S23.67,77.407,25,77.407
		s2.408-1.078,2.408-2.408S26.33,72.59,25,72.59"/>
	<path fill="#FFFFFF" d="M24.243,25.001l5.578-5.551c0.562-0.559,0.562-1.465,0-2.021l-0.508-0.505c-0.561-0.559-1.469-0.559-2.03,0
		l-6.565,6.536c-0.012,0.008-0.025,0.011-0.035,0.02l-0.507,0.506c-0.282,0.281-0.421,0.649-0.419,1.016
		c-0.002,0.367,0.137,0.734,0.419,1.018l0.507,0.502c0.01,0.012,0.025,0.014,0.035,0.024l6.565,6.534c0.562,0.557,1.47,0.557,2.03,0
		l0.508-0.504c0.562-0.559,0.562-1.465,0-2.023L24.243,25.001z"/>
	<path fill="#FFFFFF" d="M75.757,24.999l-5.578,5.552c-0.562,0.558-0.562,1.464,0,2.021l0.508,0.505c0.561,0.559,1.471,0.559,2.03,0
		l6.565-6.535c0.012-0.009,0.025-0.012,0.035-0.02l0.507-0.506c0.282-0.281,0.421-0.65,0.419-1.017
		c0.002-0.367-0.137-0.735-0.419-1.017l-0.507-0.504c-0.01-0.011-0.025-0.013-0.035-0.023l-6.565-6.533
		c-0.56-0.558-1.47-0.558-2.03,0l-0.508,0.504c-0.562,0.559-0.562,1.463,0,2.022L75.757,24.999z"/>
	<path fill="#FFFFFF" d="M125.578,125l-4.266,4.245c-0.429,0.427-0.429,1.118,0,1.545l0.39,0.386c0.428,0.428,1.123,0.428,1.552,0
		l5.02-4.996c0.01-0.008,0.019-0.01,0.026-0.016l0.388-0.389c0.215-0.213,0.322-0.496,0.32-0.775
		c0.002-0.281-0.105-0.562-0.32-0.777l-0.388-0.385c-0.008-0.009-0.019-0.01-0.026-0.02l-5.02-4.994
		c-0.429-0.426-1.124-0.426-1.552,0l-0.39,0.386c-0.429,0.427-0.429,1.118,0,1.546L125.578,125z"/>
	<path fill="#FFFFFF" d="M24.421,125l4.266-4.244c0.43-0.428,0.43-1.119,0-1.545l-0.389-0.387c-0.428-0.428-1.123-0.428-1.553,0
		l-5.02,4.996c-0.01,0.008-0.018,0.01-0.025,0.017l-0.389,0.388c-0.215,0.213-0.322,0.496-0.32,0.775
		c-0.002,0.281,0.105,0.562,0.32,0.777l0.389,0.385c0.008,0.009,0.018,0.011,0.025,0.02l5.02,4.994c0.43,0.428,1.125,0.428,1.553,0
		l0.389-0.385c0.43-0.428,0.43-1.119,0-1.547L24.421,125z"/>
	<path fill="#FFFFFF" d="M125,75.757l-5.551-5.578c-0.559-0.562-1.465-0.562-2.021,0l-0.505,0.508c-0.56,0.56-0.56,1.469,0,2.029
		l6.536,6.565c0.008,0.013,0.012,0.024,0.02,0.035l0.506,0.507c0.281,0.282,0.649,0.421,1.016,0.419
		c0.367,0.002,0.734-0.137,1.018-0.419l0.502-0.507c0.012-0.011,0.014-0.025,0.024-0.035l6.534-6.565
		c0.557-0.561,0.557-1.47,0-2.029l-0.504-0.508c-0.559-0.562-1.465-0.562-2.023,0L125,75.757z"/>
	<path fill="#FFFFFF" d="M425,71.712l9.667,9.688c0.429,0.431,1.122,0.432,1.548,0l0.387-0.39c0.43-0.429,0.428-1.125,0-1.554
		L426.18,69.011c-0.005-0.009-0.008-0.018-0.015-0.025l-0.388-0.391c-0.215-0.214-0.496-0.32-0.778-0.318
		c-0.281-0.002-0.562,0.105-0.778,0.32l-0.385,0.389c-0.008,0.008-0.01,0.019-0.02,0.025l-10.42,10.445
		c-0.427,0.429-0.427,1.125,0,1.554l0.388,0.39c0.427,0.431,1.12,0.431,1.549,0L425,71.712z"/>
	<path fill="#FFFFFF" d="M375,78.287l-9.667-9.688c-0.429-0.431-1.122-0.432-1.548,0l-0.387,0.39c-0.428,0.429-0.428,1.125,0,1.554
		l10.422,10.445c0.005,0.009,0.008,0.018,0.015,0.025l0.388,0.391c0.215,0.214,0.496,0.32,0.777,0.318
		c0.282,0.002,0.562-0.105,0.779-0.32l0.385-0.389c0.008-0.008,0.01-0.019,0.02-0.025l10.42-10.445c0.426-0.429,0.426-1.125,0-1.554
		l-0.388-0.39c-0.427-0.431-1.12-0.431-1.549,0L375,78.287z"/>
	<path fill="#FFFFFF" d="M174.999,74.243l5.552,5.578c0.56,0.562,1.464,0.562,2.021,0l0.506-0.508c0.559-0.561,0.559-1.469,0-2.03
		l-6.537-6.565c-0.008-0.012-0.01-0.024-0.02-0.034l-0.505-0.507c-0.282-0.282-0.649-0.422-1.017-0.42
		c-0.366-0.002-0.734,0.138-1.016,0.42l-0.504,0.507c-0.011,0.01-0.013,0.024-0.023,0.034l-6.534,6.565
		c-0.558,0.562-0.558,1.47,0,2.03l0.504,0.508c0.558,0.562,1.464,0.562,2.022,0L174.999,74.243z"/>
	<path fill="#FFFFFF" d="M225,72.668l-4.908-4.932c-0.494-0.496-1.294-0.496-1.787,0l-0.445,0.449c-0.494,0.496-0.494,1.3,0,1.795
		l5.779,5.805c0.006,0.01,0.008,0.021,0.016,0.03l0.447,0.448c0.25,0.25,0.574,0.373,0.898,0.371
		c0.325,0.002,0.65-0.121,0.898-0.371l0.444-0.448c0.011-0.009,0.013-0.021,0.022-0.03l5.777-5.805c0.491-0.495,0.491-1.299,0-1.795
		l-0.445-0.449c-0.494-0.496-1.295-0.496-1.789,0L225,72.668z"/>
	<path fill="#FFFFFF" d="M225,81.213l-4.908-4.933c-0.494-0.496-1.294-0.496-1.787,0l-0.445,0.449c-0.494,0.495-0.494,1.3,0,1.795
		l5.779,5.805c0.006,0.011,0.008,0.021,0.016,0.03l0.447,0.449c0.25,0.248,0.574,0.371,0.898,0.369
		c0.325,0.002,0.65-0.121,0.898-0.369l0.444-0.449c0.011-0.01,0.013-0.021,0.022-0.03l5.777-5.805c0.491-0.495,0.491-1.3,0-1.795
		l-0.445-0.449c-0.494-0.496-1.295-0.496-1.789,0L225,81.213z"/>
	<path fill="#E6333F" d="M275,62.358c6.98,0,12.641,5.66,12.641,12.641S281.982,87.64,275,87.64s-12.641-5.66-12.641-12.641
		S268.02,62.358,275,62.358"/>
	<path fill="#FFFFFF" d="M274.998,78.637l4.908,4.932c0.492,0.496,1.295,0.496,1.785,0l0.447-0.449c0.494-0.496,0.494-1.3,0-1.795
		l-5.779-5.805c-0.006-0.01-0.01-0.021-0.018-0.03l-0.447-0.449c-0.248-0.249-0.572-0.372-0.896-0.37
		c-0.324-0.002-0.65,0.121-0.898,0.37l-0.443,0.449c-0.012,0.009-0.014,0.021-0.021,0.03l-5.777,5.805
		c-0.49,0.495-0.49,1.299,0,1.795l0.445,0.449c0.494,0.496,1.295,0.496,1.789,0L274.998,78.637z"/>
	<path fill="#FFFFFF" d="M274.998,70.33l4.908,4.933c0.492,0.496,1.295,0.496,1.785,0l0.447-0.449c0.494-0.496,0.494-1.3,0-1.795
		l-5.779-5.805c-0.006-0.011-0.01-0.021-0.018-0.03l-0.447-0.449c-0.248-0.248-0.572-0.371-0.896-0.369
		c-0.324-0.002-0.65,0.121-0.898,0.369l-0.443,0.449c-0.012,0.009-0.014,0.021-0.021,0.03l-5.777,5.805
		c-0.49,0.495-0.49,1.299,0,1.795l0.445,0.449c0.494,0.496,1.295,0.496,1.789,0L274.998,70.33z"/>
	<g>
		<path fill="#E6333F" d="M227.604,25c0,1.438-1.166,2.604-2.604,2.604c-1.437,0-2.603-1.166-2.603-2.604s1.166-2.604,2.603-2.604
			C226.438,22.396,227.604,23.562,227.604,25"/>
		<path fill="#E6333F" d="M237.604,25c0,1.438-1.166,2.604-2.604,2.604c-1.439,0-2.604-1.166-2.604-2.604s1.164-2.604,2.604-2.604
			C236.438,22.396,237.604,23.562,237.604,25"/>
		<path fill="#E6333F" d="M217.604,25c0,1.438-1.166,2.604-2.603,2.604c-1.439,0-2.605-1.166-2.605-2.604s1.166-2.604,2.605-2.604
			C216.438,22.396,217.604,23.562,217.604,25"/>
	</g>
	<path fill="#FFFFFF" d="M327.479,25.001l2.688-2.689c0.566-0.566,0.566-1.486-0.001-2.053l-0.423-0.424
		c-0.567-0.566-1.486-0.566-2.055,0L325,22.522l-2.688-2.688c-0.567-0.566-1.486-0.566-2.055,0l-0.424,0.424
		c-0.566,0.566-0.566,1.486,0,2.053l2.689,2.689l-2.689,2.689c-0.566,0.566-0.566,1.485,0,2.053l0.424,0.423
		c0.567,0.567,1.486,0.567,2.055,0.001L325,27.478l2.688,2.689c0.567,0.566,1.486,0.566,2.055-0.001l0.423-0.423
		c0.567-0.567,0.567-1.486,0.001-2.053L327.479,25.001z"/>
	<path fill="#FFFFFF" d="M331.5,75.05c0,0.935-0.766,1.7-1.7,1.7h-9.6c-0.937,0-1.7-0.766-1.7-1.7v-0.1c0-0.935,0.766-1.7,1.7-1.7
		h9.6c0.937,0,1.7,0.766,1.7,1.7V75.05z"/>
	<path fill="#FFFFFF" d="M279.943,27.016h-2.93v2.928c0,1.113-0.9,2.015-2.014,2.015c-1.115,0-2.016-0.901-2.016-2.015v-2.928h-2.93
		c-1.111,0-2.014-0.902-2.014-2.016s0.9-2.016,2.014-2.016h2.93v-2.928c0-1.113,0.9-2.015,2.016-2.015
		c1.113,0,2.014,0.901,2.014,2.015v2.928h2.93c1.111,0,2.016,0.902,2.016,2.016S281.057,27.016,279.943,27.016"/>
	<path fill="#E6333F" d="M580.068,78.042c-0.696,0-1.336,0.235-1.85,0.631l-5.291-3.175c0.025-0.162,0.043-0.328,0.043-0.498
		c0-0.169-0.018-0.335-0.043-0.497l5.291-3.175c0.514,0.395,1.152,0.631,1.85,0.631c1.681,0,3.043-1.361,3.043-3.042
		s-1.362-3.042-3.043-3.042c-1.68,0-3.041,1.361-3.041,3.042c0,0.169,0.019,0.336,0.046,0.498l-5.292,3.175
		c-0.514-0.395-1.152-0.631-1.852-0.631c-1.68,0-3.041,1.361-3.041,3.041s1.361,3.042,3.041,3.042c0.698,0,1.338-0.235,1.852-0.63
		l5.292,3.174c-0.027,0.162-0.046,0.328-0.046,0.498c0,1.68,1.361,3.041,3.041,3.041c1.681,0,3.043-1.361,3.043-3.041
		S581.749,78.042,580.068,78.042"/>
	<path fill="#FFFFFF" d="M74.999,124.421l4.244,4.266c0.428,0.429,1.119,0.429,1.545,0l0.387-0.39c0.428-0.428,0.428-1.123,0-1.552
		l-4.996-5.02c-0.008-0.01-0.01-0.019-0.017-0.026l-0.388-0.388c-0.213-0.217-0.496-0.322-0.775-0.32
		c-0.281-0.002-0.562,0.104-0.777,0.32l-0.385,0.388c-0.009,0.008-0.011,0.018-0.02,0.026l-4.994,5.02
		c-0.426,0.429-0.426,1.124,0,1.552l0.385,0.39c0.428,0.429,1.119,0.429,1.547,0L74.999,124.421z"/>
	<path fill="#FFFFFF" d="M174.999,125.578l-4.244-4.266c-0.428-0.429-1.119-0.429-1.545,0l-0.387,0.39
		c-0.426,0.428-0.426,1.123,0,1.552l4.996,5.02c0.008,0.01,0.01,0.019,0.017,0.026l0.388,0.388c0.213,0.215,0.496,0.322,0.775,0.32
		c0.281,0.002,0.562-0.105,0.777-0.32l0.385-0.388c0.009-0.008,0.011-0.019,0.02-0.026l4.994-5.02c0.428-0.429,0.428-1.124,0-1.552
		l-0.385-0.39c-0.428-0.429-1.119-0.429-1.547,0L174.999,125.578z"/>
	<path fill="#FFFFFF" d="M425,20.451l13.378,13.408c0.593,0.595,1.554,0.595,2.144,0l0.533-0.541c0.594-0.594,0.594-1.557,0-2.15
		l-14.422-14.455c-0.007-0.012-0.011-0.025-0.021-0.036l-0.534-0.538c-0.298-0.298-0.688-0.447-1.078-0.443
		c-0.39-0.004-0.778,0.147-1.077,0.445l-0.531,0.536c-0.013,0.011-0.016,0.026-0.027,0.036l-14.422,14.455
		c-0.588,0.594-0.588,1.557,0,2.15l0.537,0.541c0.59,0.595,1.549,0.595,2.144,0L425,20.451z"/>
	<path fill="#FFFFFF" d="M374.999,29.55l-13.377-13.408c-0.594-0.595-1.555-0.595-2.145,0l-0.533,0.541
		c-0.594,0.594-0.592,1.557,0,2.15l14.422,14.455c0.008,0.012,0.012,0.025,0.021,0.036l0.535,0.538
		c0.297,0.298,0.688,0.447,1.078,0.443c0.389,0.004,0.777-0.147,1.076-0.445l0.531-0.536c0.014-0.011,0.016-0.026,0.027-0.036
		l14.422-14.455c0.59-0.594,0.59-1.557,0-2.15l-0.535-0.541c-0.592-0.595-1.551-0.595-2.145,0L374.999,29.55z"/>
	<path fill="#FFFFFF" d="M529.549,25.001l-13.408,13.378c-0.595,0.593-0.595,1.554,0,2.144l0.541,0.533
		c0.594,0.594,1.555,0.592,2.15,0l14.455-14.422c0.011-0.007,0.025-0.011,0.035-0.021l0.539-0.534
		c0.298-0.298,0.447-0.688,0.443-1.077c0.004-0.391-0.147-0.779-0.445-1.078l-0.537-0.531c-0.01-0.013-0.025-0.016-0.035-0.027
		L518.832,8.942c-0.596-0.588-1.557-0.588-2.15,0l-0.541,0.537c-0.595,0.59-0.595,1.549,0,2.144L529.549,25.001z"/>
	<path fill="#FFFFFF" d="M470.451,25l13.408-13.378c0.594-0.593,0.594-1.554,0-2.144l-0.541-0.533c-0.594-0.594-1.557-0.592-2.15,0
		l-14.455,14.422c-0.012,0.007-0.025,0.011-0.035,0.021l-0.539,0.534c-0.299,0.298-0.447,0.688-0.443,1.077
		c-0.004,0.391,0.146,0.779,0.445,1.078l0.537,0.531c0.01,0.013,0.025,0.016,0.035,0.027l14.455,14.422
		c0.594,0.588,1.557,0.588,2.15,0l0.541-0.537c0.594-0.59,0.594-1.549,0-2.144L470.451,25z"/>
	<path fill="none" stroke="#FFFFFF" stroke-width="2" stroke-linecap="round" stroke-linejoin="round" stroke-miterlimit="10" d="
		M624.558,15.808c0.242-0.494,0.643-0.494,0.885,0l2.367,4.795c0.242,0.492,0.889,0.961,1.432,1.041l5.293,0.768
		c0.543,0.08,0.666,0.458,0.271,0.842l-3.83,3.732c-0.393,0.385-0.641,1.142-0.547,1.684l0.904,5.27
		c0.094,0.543-0.23,0.776-0.717,0.521l-4.73-2.488c-0.488-0.257-1.285-0.257-1.771,0l-4.73,2.488
		c-0.488,0.255-0.811,0.021-0.717-0.521l0.902-5.27c0.094-0.542-0.152-1.299-0.547-1.684l-3.828-3.732
		c-0.395-0.384-0.271-0.762,0.273-0.842l5.291-0.768c0.543-0.08,1.188-0.549,1.432-1.041L624.558,15.808z"/>
	<polyline fill="none" stroke="#FFFFFF" stroke-width="2" stroke-linecap="round" stroke-miterlimit="10" points="416.107,121.383 
		424.485,128.617 433.894,121.383 	"/>
	<polyline fill="none" stroke="#E6333F" stroke-width="2" stroke-linecap="round" stroke-miterlimit="10" points="466.107,121.383 
		474.484,128.617 483.893,121.383 	"/>
	<polyline fill="none" stroke="#FFFFFF" stroke-width="2" stroke-linecap="round" stroke-miterlimit="10" points="583.893,128.617 
		575.516,121.382 566.107,128.617 	"/>
	<polyline fill="none" stroke="#E6333F" stroke-width="2" stroke-linecap="round" stroke-miterlimit="10" points="533.893,128.617 
		525.515,121.382 516.106,128.617 	"/>
	<polyline fill="none" stroke="#FFFFFF" stroke-width="2" stroke-linecap="round" stroke-miterlimit="10" points="223.008,132.483 
		226.992,125.433 223.008,117.515 	"/>
	<polyline fill="none" stroke="#E6333F" stroke-width="2" stroke-linecap="round" stroke-miterlimit="10" points="273.008,132.483 
		276.992,125.433 273.008,117.515 	"/>
	<g opacity="0.5">
		<g>
			<g>
				<defs>
					<rect id="SVGID_3_" x="321.941" y="116.516" width="6.118" height="16.969"/>
				</defs>
				<clipPath id="SVGID_2_">
					<use xlink:href="#SVGID_3_"  overflow="visible"/>
				</clipPath>
				
					<polyline clip-path="url(#SVGID_2_)" fill="none" stroke="#000000" stroke-width="2" stroke-linecap="round" stroke-miterlimit="10" points="
					322.941,132.484 326.926,125.434 322.941,117.516 				"/>
			</g>
		</g>
	</g>
	<g opacity="0.2">
		<g>
			<g>
				<defs>
					<rect id="SVGID_5_" x="371.941" y="116.516" width="6.118" height="16.969"/>
				</defs>
				<clipPath id="SVGID_4_">
					<use xlink:href="#SVGID_5_"  overflow="visible"/>
				</clipPath>
				
					<polyline clip-path="url(#SVGID_4_)" fill="none" stroke="#000000" stroke-width="2" stroke-linecap="round" stroke-miterlimit="10" points="
					372.941,132.484 376.927,125.434 372.941,117.516 				"/>
			</g>
		</g>
	</g>
	<g>
		<g>
			<defs>
				<rect id="SVGID_7_" x="512.693" y="61.281" width="24.611" height="27.437"/>
			</defs>
			<clipPath id="SVGID_6_">
				<use xlink:href="#SVGID_7_"  overflow="visible"/>
			</clipPath>
			<path clip-path="url(#SVGID_6_)" fill="#E6333F" d="M534.533,88.719h-8.432v-7.936c0-1.335-1.088-2.422-2.424-2.422
				s-2.422,1.087-2.422,2.422v7.936h-5.787c-1.531,0-2.775-1.246-2.775-2.775V72.848c0-0.773,0.326-1.517,0.896-2.039l9.527-8.793
				c0.516-0.474,1.186-0.734,1.885-0.734c0.697,0,1.365,0.261,1.881,0.734l9.531,8.795c0.566,0.524,0.891,1.267,0.891,2.037v13.096
				C537.307,87.473,536.062,88.719,534.533,88.719 M527.625,87.195h6.908c0.688,0,1.25-0.562,1.25-1.252V72.848
				c0-0.348-0.146-0.683-0.402-0.918l-9.531-8.793c-0.463-0.429-1.232-0.428-1.697,0l-9.529,8.793
				c-0.258,0.236-0.404,0.57-0.404,0.918v13.096c0,0.689,0.562,1.252,1.252,1.252h4.264v-6.412c0-2.176,1.771-3.945,3.945-3.945
				c2.176,0,3.947,1.771,3.947,3.945v6.412H527.625z"/>
		</g>
	</g>
	<path fill="#FFFFFF" d="M577,19.429h-4.001c-0.42,0-0.76-0.342-0.76-0.762v-3.928c0-0.306,0.183-0.583,0.465-0.701
		c0.284-0.119,0.608-0.056,0.828,0.158l4.001,3.93c0.22,0.215,0.288,0.543,0.171,0.83C577.587,19.241,577.309,19.429,577,19.429
		 M573.76,17.907h1.381l-1.381-1.355V17.907z"/>
	<g>
		<path fill="#FFFFFF" d="M581.635,36.673h-13.204c-1.609,0-2.193-1.29-2.193-2.156V15.521c0-0.022,0.002-0.045,0.005-0.069
			c0.067-0.734,0.622-2.123,2.241-2.123h10.519c0.42,0,0.76,0.34,0.76,0.76s-0.34,0.761-0.76,0.761h-10.519
			c-0.588,0-0.703,0.543-0.725,0.713v18.955c0.014,0.418,0.239,0.635,0.672,0.635h13.204c0.224,0,0.384-0.045,0.472-0.137
			c0.127-0.131,0.138-0.363,0.137-0.365V18.017c0-0.42,0.34-0.761,0.76-0.761s0.76,0.341,0.76,0.761v16.608
			c0.004,0.063,0.012,0.853-0.564,1.446C582.935,36.347,582.448,36.673,581.635,36.673"/>
		<line fill="none" x1="570.144" y1="25.853" x2="580.226" y2="25.853"/>
		<path fill="#FFFFFF" d="M580.226,26.612h-10.082c-0.42,0-0.761-0.342-0.761-0.76c0-0.42,0.341-0.762,0.761-0.762h10.082
			c0.42,0,0.76,0.342,0.76,0.762C580.985,26.271,580.646,26.612,580.226,26.612"/>
		<line fill="none" x1="570.144" y1="22.796" x2="580.226" y2="22.796"/>
		<path fill="#FFFFFF" d="M580.226,23.556h-10.082c-0.42,0-0.761-0.341-0.761-0.76c0-0.42,0.341-0.761,0.761-0.761h10.082
			c0.42,0,0.76,0.341,0.76,0.761C580.985,23.215,580.646,23.556,580.226,23.556"/>
		<line fill="none" x1="570.144" y1="28.907" x2="580.226" y2="28.907"/>
		<path fill="#FFFFFF" d="M580.226,29.668h-10.082c-0.42,0-0.761-0.341-0.761-0.76c0-0.421,0.341-0.761,0.761-0.761h10.082
			c0.42,0,0.76,0.34,0.76,0.761C580.985,29.326,580.646,29.668,580.226,29.668"/>
		<line fill="none" x1="570.144" y1="31.962" x2="580.226" y2="31.962"/>
		<path fill="#FFFFFF" d="M580.226,32.724h-10.082c-0.42,0-0.761-0.342-0.761-0.761c0-0.42,0.341-0.761,0.761-0.761h10.082
			c0.42,0,0.76,0.341,0.76,0.761C580.985,32.382,580.646,32.724,580.226,32.724"/>
	</g>
	<g>
		<path fill="#E6333F" d="M631.94,73.359h3.135v-7.686c0-0.479-0.394-0.87-0.87-0.87h-18.407c-0.479,0-0.87,0.391-0.87,0.87v7.686
			h3.134c3.293,0,6.063,2.198,6.941,5.205C625.877,75.561,628.65,73.359,631.94,73.359z"/>
		<path fill="#E6333F" d="M630.033,76.709c-2.046,0-3.861,0.966-5.033,2.461c-1.17-1.495-2.986-2.461-5.029-2.461h-5.046v7.977
			c0,0.477,0.394,0.87,0.87,0.87h18.407c0.479,0,0.873-0.394,0.873-0.87v-7.977H630.033z"/>
	</g>
	<g>
		<path fill="#FFFFFF" d="M630.857,114.053c-1.633-1.178-3.686-1.769-6.153-1.769c-1.882,0-3.466,0.417-4.756,1.245
			c-2.042,1.296-3.13,3.501-3.26,6.61h4.736c0-0.907,0.265-1.777,0.793-2.619c0.529-0.841,1.425-1.26,2.69-1.26
			c1.286,0,2.173,0.341,2.657,1.021c0.484,0.686,0.728,1.441,0.728,2.267c0,0.722-0.361,1.383-0.797,1.981
			c-0.239,0.35-0.557,0.672-0.947,0.966c0,0-2.568,1.648-3.697,2.973c-0.654,0.766-0.714,1.916-0.771,3.568
			c-0.005,0.117,0.04,0.357,0.45,0.357c0.412,0,3.32,0,3.686,0c0.364,0,0.441-0.271,0.447-0.389
			c0.026-0.599,0.093-0.907,0.203-1.254c0.208-0.655,0.771-1.227,1.402-1.719l1.303-0.898c1.179-0.918,2.118-1.671,2.532-2.262
			c0.71-0.967,1.207-2.163,1.207-3.581C633.309,116.975,632.492,115.23,630.857,114.053z M624.627,132.234
			c-1.634-0.05-2.981,1.081-3.033,2.853c-0.052,1.769,1.231,2.938,2.864,2.986c1.703,0.051,3.017-1.045,3.066-2.812
			C627.575,133.492,626.332,132.285,624.627,132.234z"/>
	</g>
	<g>
		
			<circle fill="none" stroke="#FFFFFF" stroke-width="4.36" stroke-linecap="round" stroke-linejoin="round" cx="471.57" cy="71.143" r="7.287"/>
		<path fill="none" stroke="#FFFFFF" stroke-width="4.36" stroke-linecap="round" stroke-linejoin="round" d="M476.285,76.714
			c4.543,4.642,5.354,4.655,9.432,9.431"/>
	</g>
</g>
<g id="layer-set-10">
</g>
<g id="layer-set-9">
</g>
<g id="layer-set-8">
</g>
<g id="layer-set-7">
</g>
<g id="layer-set-6">
</g>
<g id="layer-set-5">
</g>
<g id="layer-set-4">
</g>
<g id="layer-set-3">
</g>
<g id="layer-set-2">
</g>
<g id="layer-set-1">
</g>
</svg>
