<?xml version="1.0" encoding="utf-8"?>
<!-- Generator: Adobe Illustrator 16.0.4, SVG Export Plug-In . SVG Version: 6.00 Build 0)  -->
<!DOCTYPE svg PUBLIC "-//W3C//DTD SVG 1.1//EN" "http://www.w3.org/Graphics/SVG/1.1/DTD/svg11.dtd">
<svg version="1.1" xmlns="http://www.w3.org/2000/svg" xmlns:xlink="http://www.w3.org/1999/xlink" x="0px" y="0px" width="650px"
	 height="50px" viewBox="0 0 650 50" enable-background="new 0 0 650 50" xml:space="preserve">
<g id="red-bg" display="none">
	<rect x="-1415.187" y="-7.673" display="inline" opacity="0.27" fill="#FF0000" width="2149.996" height="449.673"/>
</g>
<g id="layer-set-12">
</g>
<g id="layer-set-11">
</g>
<g id="layer-set-10">
</g>
<g id="layer-set-9">
</g>
<g id="layer-set-8">
</g>
<g id="layer-set-7">
</g>
<g id="layer-set-6">
</g>
<g id="layer-set-5">
</g>
<g id="layer-set-4">
</g>
<g id="layer-set-3">
	<g>
		<path fill="#FFFFFF" d="M24.995,13.479c-6.355,0-11.516,5.16-11.516,11.516c0,6.364,5.16,11.525,11.516,11.525
			c6.365,0,11.525-5.161,11.525-11.525C36.521,18.633,31.36,13.479,24.995,13.479L24.995,13.479z M27.978,24.996h-1.893v6.912
			h-2.588v-6.912h-1.729V22.62l1.729-0.007l-0.008-1.398c0-1.941,0.527-3.129,2.82-3.129h1.906v2.383h-1.197
			c-0.885,0-0.936,0.337-0.936,0.956v1.188h2.145L27.978,24.996z"/>
	</g>
	<g>
		<path fill="#FFFFFF" d="M174.995,13.479c-6.355,0-11.516,5.16-11.516,11.516c0,6.364,5.16,11.525,11.516,11.525
			c6.365,0,11.525-5.161,11.525-11.525C186.521,18.633,181.36,13.479,174.995,13.479L174.995,13.479z M172.12,30.58h-2.883V20.496
			h2.883V30.58z M170.771,19.886c-0.746,0-1.35-0.604-1.35-1.357c0-0.745,0.604-1.35,1.35-1.35c0.744,0.007,1.35,0.613,1.35,1.35
			C172.12,19.281,171.515,19.886,170.771,19.886L170.771,19.886z M182.194,30.58h-2.875v-6.23c0-0.731-0.209-1.245-1.102-1.245
			c-1.492,0-1.781,1.245-1.781,1.245v6.23h-2.875V20.496h2.875v0.964c0.416-0.31,1.441-0.957,2.883-0.957
			c0.936,0,2.875,0.556,2.875,3.931V30.58z"/>
	</g>
	<g>
		<path fill="#FFFFFF" d="M74.995,13.479c-6.355,0-11.516,5.16-11.516,11.516c0,6.364,5.16,11.525,11.516,11.525
			c6.365,0,11.525-5.161,11.525-11.525C86.521,18.633,81.36,13.479,74.995,13.479L74.995,13.479z M80.733,22.417l0.008,0.366
			c0,3.748-2.854,8.071-8.074,8.071c-1.602,0-3.092-0.47-4.344-1.279c0.217,0.029,0.445,0.043,0.674,0.043
			c1.332,0,2.553-0.457,3.523-1.216c-1.244-0.022-2.285-0.845-2.65-1.97c0.176,0.036,0.354,0.05,0.535,0.05
			c0.26,0,0.514-0.036,0.746-0.098c-1.295-0.261-2.271-1.406-2.271-2.777v-0.036c0.379,0.212,0.814,0.338,1.279,0.353
			c-0.76-0.506-1.258-1.379-1.258-2.356c0-0.521,0.139-1.012,0.387-1.427c1.393,1.715,3.486,2.84,5.844,2.961
			c-0.053-0.205-0.07-0.423-0.07-0.648c0-1.561,1.266-2.833,2.832-2.833c0.814,0,1.555,0.346,2.074,0.893
			c0.641-0.125,1.25-0.358,1.801-0.682c-0.211,0.663-0.662,1.216-1.252,1.568c0.578-0.07,1.125-0.225,1.631-0.45
			C81.767,21.517,81.282,22.015,80.733,22.417L80.733,22.417z"/>
	</g>
	<g>
		<path fill="#FFFFFF" d="M124.995,13.479c-6.355,0-11.516,5.16-11.516,11.516c0,6.364,5.16,11.525,11.516,11.525
			c6.365,0,11.525-5.161,11.525-11.525C136.521,18.633,131.36,13.479,124.995,13.479L124.995,13.479z M121.782,32.753
			c-2.545,0-4.695-1.041-4.695-2.7c0-1.682,1.961-3.306,4.506-3.306l0.801-0.007c-0.352-0.336-0.625-0.759-0.625-1.272
			c0-0.302,0.098-0.598,0.23-0.857l-0.42,0.013c-2.096,0-3.502-1.491-3.502-3.332c0-1.807,1.941-3.368,3.992-3.368h4.6l-1.033,0.738
			h-1.457c0.963,0.373,1.484,1.498,1.484,2.657c0,0.971-0.541,1.8-1.301,2.397c-0.738,0.578-0.879,0.825-0.879,1.316
			c0,0.421,0.793,1.132,1.209,1.427c1.217,0.856,1.604,1.652,1.604,2.979C126.298,31.1,124.692,32.753,121.782,32.753
			L121.782,32.753z M130.763,23.583v2.876h-1.443v-2.876h-2.883v-1.462h2.883v-2.883h1.443v2.883h2.875v1.462H130.763z"/>
		<path fill="#FFFFFF" d="M123.224,27.36c-0.342-0.113-0.73-0.184-1.141-0.184c-1.764-0.02-3.338,1.077-3.338,2.391
			c0,1.337,1.271,2.455,3.029,2.455c2.482,0,3.34-1.048,3.34-2.391c0-0.155-0.014-0.316-0.055-0.471
			C124.868,28.401,124.179,28.02,123.224,27.36L123.224,27.36z"/>
		<path fill="#FFFFFF" d="M124.013,21.404c-0.207-1.546-1.332-2.798-2.512-2.833c-1.182-0.035-1.977,1.154-1.771,2.708
			c0.203,1.553,1.328,2.847,2.51,2.883C123.421,24.195,124.216,22.965,124.013,21.404L124.013,21.404z"/>
	</g>
	<path fill="#FFFFFF" d="M225.001,13.479c-6.363,0-11.521,5.158-11.521,11.521c0,6.363,5.158,11.521,11.521,11.521
		c6.361,0,11.52-5.158,11.52-11.521C236.521,18.637,231.362,13.479,225.001,13.479z M231.399,29c0,0.441-0.359,0.801-0.801,0.801
		h-11.199c-0.441,0-0.801-0.36-0.801-0.801v-5.352l6.398,2.559l6.402-2.559V29L231.399,29z M231.399,22.344l-6.402,2.558
		l-6.396-2.558V21c0-0.442,0.357-0.801,0.801-0.801h11.199c0.439,0,0.801,0.359,0.801,0.801v1.344H231.399z"/>
	<g>
		<path fill="#FFFFFF" d="M275.031,19.175c-3.178,0-5.764,2.584-5.766,5.763c0,1.087,0.305,2.148,0.882,3.065l0.137,0.218
			l-0.582,2.126l2.181-0.572l0.212,0.273c0.885,0.525,1.898,0.951,2.933,0.951h0.002c3.176,0,5.762-2.733,5.762-5.909
			c0.001-1.541-0.599-3.062-1.686-4.151C278.018,19.851,276.571,19.175,275.031,19.175z M278.422,27.416
			c-0.146,0.403-0.838,0.773-1.17,0.823c-0.299,0.044-0.677,0.062-1.092-0.068c-0.251-0.081-0.574-0.188-0.986-0.366
			c-1.738-0.751-2.873-2.5-2.961-2.615c-0.086-0.116-0.706-0.94-0.706-1.792c0-0.854,0.447-1.272,0.606-1.445
			c0.158-0.174,0.346-0.217,0.461-0.217s0.231,0.002,0.332,0.007c0.106,0.004,0.25-0.041,0.39,0.297
			c0.145,0.347,0.49,1.199,0.535,1.287c0.042,0.085,0.071,0.188,0.014,0.302c-0.059,0.116-0.086,0.188-0.173,0.29
			s-0.182,0.226-0.26,0.304c-0.087,0.086-0.178,0.18-0.076,0.353c0.102,0.174,0.449,0.741,0.963,1.201
			c0.662,0.589,1.222,0.772,1.395,0.859c0.173,0.086,0.272,0.073,0.374-0.043c0.101-0.116,0.434-0.505,0.549-0.68
			c0.115-0.173,0.231-0.144,0.39-0.086c0.159,0.058,1.012,0.477,1.185,0.565c0.173,0.086,0.287,0.129,0.331,0.202
			C278.565,26.662,278.565,27.009,278.422,27.416z"/>
		<path fill="#FFFFFF" d="M275,13.621c-6.284,0-11.379,5.095-11.379,11.379S268.716,36.379,275,36.379S286.379,31.284,286.379,25
			S281.284,13.621,275,13.621z M275.029,32h-0.003c-1.16,0-2.301-0.354-3.312-0.907l-3.675,0.934l0.982-3.609
			c-0.606-1.05-0.926-2.25-0.925-3.473c0.002-3.822,3.111-6.935,6.933-6.935c1.854,0,3.595,0.721,4.904,2.031
			c1.309,1.311,2.029,3.114,2.027,4.967C281.96,28.829,278.85,32,275.029,32z"/>
	</g>
</g>
<g id="layer-set-2">
</g>
<g id="layer-set-1">
</g>
</svg>
