<svg xmlns="http://www.w3.org/2000/svg" viewBox="0 0 650 150"><defs><style>.cls-1,.cls-2,.cls-3,.cls-4{fill:none;stroke:#fff;stroke-linecap:round;stroke-linejoin:round;}.cls-1{stroke-width:3px;}.cls-2{stroke-width:4.36px;}.cls-3{stroke-width:2px;}.cls-5{fill:#fff;}.cls-6{opacity:0.2;}.cls-6,.cls-7{isolation:isolate;}.cls-7{opacity:0.5;}</style></defs><title>-</title><g id="layer-set-5"><path class="cls-1" d="M517.18,39.21c2.76-2.83,14.07-10.82,17.05-13.5-7-5.63-11.37-9.95-18.48-14.92"/><path class="cls-1" d="M482.82,39.21c-2.76-2.83-14.07-10.82-17.05-13.5,7-5.63,11.37-9.95,18.48-14.92"/><path class="cls-1" d="M410.79,32.82c2.83-2.76,10.82-14.07,13.5-17.06,5.63,7,9.95,11.37,14.92,18.48"/><path class="cls-1" d="M360.79,17.18c2.83,2.76,10.82,14.07,13.5,17.05,5.63-7,9.95-11.37,14.92-18.48"/><path class="cls-1" d="M410.79,82.82c2.83-2.76,10.82-14.07,13.5-17.06,5.63,7,9.95,11.37,14.92,18.48"/><path class="cls-1" d="M267.82,78.95c1.43-1.4,5.46-7.1,6.82-8.61,2.84,3.53,5,5.74,7.54,9.33"/><path class="cls-1" d="M167.82,78.95c1.43-1.4,5.46-7.1,6.82-8.61,2.84,3.53,5,5.74,7.54,9.33"/><path class="cls-1" d="M117.82,71.05c1.43,1.4,5.46,7.1,6.82,8.61,2.84-3.53,5-5.74,7.54-9.33"/><path class="cls-1" d="M28.95,17.82c-1.39,1.43-7.1,5.46-8.61,6.82,3.53,2.84,5.74,5,9.33,7.54"/><path class="cls-1" d="M28.31,119c-1.17,1.2-5.95,4.58-7.21,5.71,3,2.38,4.81,4.21,7.81,6.31"/><path class="cls-1" d="M81,128.31c-1.2-1.17-4.58-5.95-5.71-7.21-2.38,3-4.21,4.81-6.31,7.81"/><path class="cls-1" d="M121.69,119c1.17,1.2,5.95,4.58,7.21,5.71-3,2.38-4.81,4.21-7.81,6.31"/><path class="cls-1" d="M181,121.69c-1.2,1.17-4.58,5.95-5.71,7.21-2.38-3-4.21-4.81-6.31-7.81"/><path class="cls-1" d="M71.05,17.82c1.4,1.43,7.1,5.46,8.61,6.82-3.53,2.84-5.74,5-9.33,7.54"/><path class="cls-1" d="M267.82,78.95c1.43-1.4,5.46-7.1,6.82-8.61,2.84,3.53,5,5.74,7.54,9.33"/><path class="cls-1" d="M217.82,71.05c1.43,1.4,5.46,7.1,6.82,8.61,2.84-3.53,5-5.74,7.54-9.33"/><path class="cls-1" d="M217.82,71.05c1.43,1.4,5.46,7.1,6.82,8.61,2.84-3.53,5-5.74,7.54-9.33"/><path class="cls-1" d="M360.79,67.18c2.83,2.76,10.82,14.07,13.5,17.05,5.63-7,9.95-11.37,14.92-18.48"/><circle class="cls-2" cx="471.57" cy="71.14" r="7.29"/><path class="cls-2" d="M476.29,76.71c4.54,4.64,5.35,4.66,9.43,9.43"/><path class="cls-1" d="M69.4,69.87c7.57.08,3.91-.37,11.21.2"/><path class="cls-1" d="M69.4,75c7.57.08,3.91-.38,11.21.2"/><path class="cls-1" d="M69.4,80c7.57.08,3.91-.38,11.21.2"/><path class="cls-1" d="M74,69.87c.78.08,1.3-.37,2.05.2"/><path class="cls-1" d="M74,75c.78.08,1.3-.37,2.05.2"/><path class="cls-1" d="M74,80c.78.08,1.3-.37,2.05.2"/><path class="cls-1" d="M224.3,25.1c1.05.11.38-.71,1.39.07"/><path class="cls-1" d="M230.3,25.1c1.05.11.38-.71,1.39.07"/><path class="cls-1" d="M218.3,25.1c1.05.11.38-.71,1.39.07"/><path class="cls-3" d="M535.57,87l-6.72-.17c-.84,0,.1-8.11-.95-8.15-.65,0-4.58,0-5.77,0-1.62-.1-.29,8-.88,8l-6.82-.17c.13-1.82,0-13.27,0-15.28,2.13-.29,18.45.45,20.59.31C535.07,73.66,535.31,85,535.57,87Z"/><path class="cls-3" d="M512.39,72.25c.63-1.39,2.7-3,3.94-3.9s2.57-1.65,3.77-2.6c.68-.54,1.32-1.15,2-1.66A9.5,9.5,0,0,1,524,63a.77.77,0,0,1,.4-.09.82.82,0,0,1,.34.17,68.32,68.32,0,0,0,7.23,4.95c.54.3,2.39,1.62,2.9,2a12.9,12.9,0,0,1,2.77,2.46"/><path class="cls-4" d="M577.37,17.78c-.38-.27-4.51.14-5.34.14a18.81,18.81,0,0,1-2.19-.05c-.08.68-.09,5.44-.08,6.54s-.23,7,0,7.39c2.37.24,6.46.41,7.46.37.59,0,2.8.43,3-.15a19.75,19.75,0,0,0,0-3.53c0-.7-.1-5.92-.15-6.62"/><path class="cls-4" d="M577.34,18.2a11.72,11.72,0,0,0-.49,1.24,5.65,5.65,0,0,0-.75,2.42c.23.07,2.92.07,3.62.07"/><path class="cls-4" d="M577.47,17.89c.4.51,2,3,2.59,3.87"/><path class="cls-4" d="M571.16,24.4c.37,0,2.42-.09,2.91-.14s2.46.12,2.88.19.57,0,.86,0a10.52,10.52,0,0,1,1.1,0"/><path class="cls-4" d="M571.16,26.85a1.36,1.36,0,0,0,1.18-.11,2.6,2.6,0,0,1,1.28-.14,2.68,2.68,0,0,0,1.28.29,5.51,5.51,0,0,1,.84,0,5.72,5.72,0,0,1,1.25,0c.83,0,1.07,0,1.9,0"/><path class="cls-4" d="M571.4,29.33c.06-.22,1.25,0,1.64,0a4.23,4.23,0,0,0,.87,0h1.71"/><path class="cls-4" d="M571.16,22.06a11.43,11.43,0,0,1,2.08-.11,1.93,1.93,0,0,0,1.31.11"/><path class="cls-4" d="M569.83,27.41c0,1.11-.31,4-.08,4.39,2.37.24,6.46.41,7.46.37.59,0,2.8.43,3-.15a19.67,19.67,0,0,0,0-3.53c0-.7-.1-5.92-.15-6.62"/><path class="cls-4" d="M577.36,17.78c-.38-.27-3.49.14-4.32.14"/><path class="cls-4" d="M577.34,18.2a11.48,11.48,0,0,0-.49,1.24,5.6,5.6,0,0,0-.75,2.42c.23.07,2.92.07,3.62.07"/><path class="cls-4" d="M577.46,17.89c.4.51,2,3,2.59,3.87"/><path class="cls-4" d="M573,24.35c.5.05,3.49,0,3.9.09s.57,0,.86,0a10.26,10.26,0,0,1,1.1,0"/><path class="cls-4" d="M573.61,26.61a2.69,2.69,0,0,0,1.29.29,5.5,5.5,0,0,1,.84,0,5.66,5.66,0,0,1,1.25,0c.83,0,1.07,0,1.9,0"/><path class="cls-4" d="M571.39,29.33c.06-.22,1.25,0,1.64,0a4.17,4.17,0,0,0,.87,0h1.71"/><path class="cls-4" d="M573.23,21.95a1.94,1.94,0,0,0,1.31.11"/><path class="cls-3" d="M580.26,67.2c-1.48,2.07-8.47,4.08-10.44,6.46"/><path class="cls-3" d="M580.23,82.71c-2.71-.91-7.88-5.5-10.38-6.55"/><ellipse class="cls-5" cx="582.04" cy="66.48" rx="2.57" ry="2.54"/><ellipse class="cls-5" cx="581.04" cy="83.43" rx="2.67" ry="2.63"/><ellipse class="cls-5" cx="568.04" cy="75.43" rx="2.66" ry="2.62"/><polygon class="cls-3" points="617.5 22.9 622.87 22.9 625.23 17.66 627.33 22.25 632.5 23.23 628.64 26.97 630.08 32.34 625.73 29.46 620.38 32.06 621.87 27.02 617.5 22.9"/><polygon class="cls-1" points="121.9 22.69 124.57 22.69 128.53 18.84 128.53 31.16 125.25 27.9 121.47 28.64 121.9 22.69"/><polygon class="cls-1" points="171.9 22.69 174.57 22.69 178.53 18.84 178.53 31.16 175.25 27.9 171.47 28.64 171.9 22.69"/><path class="cls-1" d="M132.3,22.55a3.58,3.58,0,0,1,1.41,2.52,3.06,3.06,0,0,1-1.35,2.39"/><path class="cls-1" d="M136,19.32a10.24,10.24,0,0,1,2,5.7,8.15,8.15,0,0,1-2,5.66"/><path class="cls-5" d="M327.48,25l2.69-2.69a1.45,1.45,0,0,0,0-2.05l-.42-.42a1.45,1.45,0,0,0-2.05,0L325,22.52l-2.69-2.69a1.45,1.45,0,0,0-2.05,0l-.42.42a1.45,1.45,0,0,0,0,2.05L322.52,25l-2.69,2.69a1.45,1.45,0,0,0,0,2.05l.42.42a1.45,1.45,0,0,0,2.05,0L325,27.48l2.69,2.69a1.45,1.45,0,0,0,2.05,0l.42-.42a1.45,1.45,0,0,0,0-2.05Z"/><path class="cls-5" d="M279.94,27H277v2.93a2,2,0,0,1-4,0V27h-2.93a2,2,0,1,1,0-4H273V20.06a2,2,0,0,1,4,0V23h2.93a2,2,0,0,1,0,4Z"/><path class="cls-5" d="M331.5,75a1.71,1.71,0,0,1-1.7,1.7h-9.6a1.71,1.71,0,0,1-1.7-1.7V75a1.71,1.71,0,0,1,1.7-1.7h9.6a1.71,1.71,0,0,1,1.7,1.7Z"/><path class="cls-5" d="M225.43,125l-3.19,5.62a2.28,2.28,0,0,0,0,2l.29.51c.32.57.84.57,1.16,0l3.76-6.62,0,0,.29-.51a2.33,2.33,0,0,0,0-2.06l-.29-.51,0,0-3.76-6.61c-.32-.56-.84-.56-1.16,0l-.29.51a2.29,2.29,0,0,0,0,2Z"/><path class="cls-6" d="M375.43,125l-3.19,5.62a2.28,2.28,0,0,0,0,2l.29.51c.32.57.84.57,1.16,0l3.76-6.62,0,0,.29-.51a2.12,2.12,0,0,0,.24-1,2.15,2.15,0,0,0-.24-1l-.29-.51,0,0-3.76-6.61c-.32-.56-.84-.56-1.16,0l-.29.51a2.29,2.29,0,0,0,0,2Z"/><path d="M275.43,125l-3.19,5.62a2.28,2.28,0,0,0,0,2l.29.51c.32.57.84.57,1.16,0l3.76-6.62,0,0,.29-.51a2.12,2.12,0,0,0,.24-1,2.16,2.16,0,0,0-.24-1l-.29-.51,0,0-3.76-6.61c-.32-.56-.84-.56-1.16,0l-.29.51a2.29,2.29,0,0,0,0,2Z"/><path class="cls-7" d="M325.43,125l-3.19,5.62a2.28,2.28,0,0,0,0,2l.29.51c.32.57.84.57,1.16,0l3.76-6.62,0,0,.29-.51a2.11,2.11,0,0,0,.24-1,2.14,2.14,0,0,0-.24-1l-.29-.51,0,0-3.76-6.61c-.32-.56-.84-.56-1.16,0l-.29.51a2.29,2.29,0,0,0,0,2Z"/><polygon class="cls-5" points="424.68 129.5 416 121.97 416.44 120.51 424.69 127.68 433.59 120.5 434 121.98 424.68 129.5"/><polygon points="474.68 129.5 466 121.97 466.44 120.51 474.69 127.68 483.59 120.5 484 121.98 474.68 129.5"/><polygon class="cls-5" points="575.32 120.5 584 128.03 583.57 129.49 575.31 122.32 566.41 129.5 566 128.02 575.32 120.5"/><polygon points="525.32 120.5 534 128.03 533.57 129.49 525.31 122.32 516.41 129.5 516 128.02 525.32 120.5"/><path class="cls-5" d="M629.09,117.23a7.15,7.15,0,0,0-4.29-1.23,6,6,0,0,0-3.32.87,5.32,5.32,0,0,0-2.28,4.61h3.31a3.39,3.39,0,0,1,.55-1.83,2,2,0,0,1,1.88-.88,2.13,2.13,0,0,1,1.85.71,2.68,2.68,0,0,1,.51,1.58,2.42,2.42,0,0,1-.56,1.38,2.91,2.91,0,0,1-.66.67,15,15,0,0,0-2.58,2.07,4,4,0,0,0-.54,2.49c0,.08,0,.25.31.25h2.57a.28.28,0,0,0,.31-.27,3,3,0,0,1,.14-.87,2.71,2.71,0,0,1,1-1.2l.91-.63a9.85,9.85,0,0,0,1.77-1.58,4.17,4.17,0,0,0,.84-2.5A4.22,4.22,0,0,0,629.09,117.23Zm-4.35,12.69a2,2,0,1,0-.12,4.07,2,2,0,0,0,2.14-2A2,2,0,0,0,624.74,129.92Z"/><path class="cls-5" d="M630.86,73.46h2.64V67a.74.74,0,0,0-.73-.74H617.24a.74.74,0,0,0-.74.74v6.48h2.65A6.1,6.1,0,0,1,625,77.86,6.1,6.1,0,0,1,630.86,73.46Z"/><path class="cls-5" d="M629.25,76.29A5.38,5.38,0,0,0,625,78.37a5.38,5.38,0,0,0-4.24-2.08H616.5V83a.74.74,0,0,0,.73.74h15.53a.74.74,0,0,0,.73-.74V76.29Z"/><g id="Cog"><path class="cls-5" d="M25,71.68A3.32,3.32,0,1,0,28.32,75,3.32,3.32,0,0,0,25,71.68Zm12,4.49V73.82l-3.4-1.27a8.8,8.8,0,0,0-.82-2l1.53-3.26-1.66-1.66-3.26,1.53a8.59,8.59,0,0,0-1.95-.82L26.17,63H23.83l-1.27,3.4a8.59,8.59,0,0,0-1.95.82l-3.26-1.53-1.66,1.66,1.53,3.26a8.71,8.71,0,0,0-.82,2L13,73.82v2.35l3.4,1.27a8.8,8.8,0,0,0,.82,2l-1.53,3.26,1.66,1.66,3.26-1.53a8.59,8.59,0,0,0,1.95.82L23.83,87h2.35l1.27-3.4a8.67,8.67,0,0,0,1.95-.82l3.26,1.53,1.66-1.66-1.53-3.26a8.8,8.8,0,0,0,.82-2ZM25,80.36A5.36,5.36,0,1,1,30.36,75,5.36,5.36,0,0,1,25,80.36Z"/></g></g></svg>