<svg xmlns="http://www.w3.org/2000/svg" viewBox="0 0 650 150"><defs><style>.cls-1{fill:#f4f4f4;}.cls-2,.cls-7{opacity:0.5;}.cls-3{opacity:0.2;}.cls-11,.cls-4{fill:#4b4b4b;}.cls-4{opacity:0.15;}.cls-12,.cls-16,.cls-4,.cls-5,.cls-6,.cls-7{isolation:isolate;}.cls-5{opacity:0.05;}.cls-13,.cls-20,.cls-6,.cls-7{fill:none;}.cls-6,.cls-7{stroke:#ecf0f1;stroke-width:1.14px;}.cls-20,.cls-6,.cls-7{stroke-miterlimit:10;}.cls-12,.cls-6{opacity:0.75;}.cls-8{fill:#dfc325;}.cls-9{fill:#d0d3d6;}.cls-10,.cls-12{fill:#ecf0f1;}.cls-14{fill:#a5a5a5;}.cls-15,.cls-16{fill:#e8bc43;}.cls-16{opacity:0.08;}.cls-17{fill:#dcdee0;}.cls-18{fill:#e56053;}.cls-19{fill:#bdc3c7;}.cls-20{stroke:#d0d3d6;stroke-width:2.63px;}.cls-21{fill:#f1f1f1;}.cls-22{fill:#fff;}</style></defs><title>-</title><g id="layer-set-7"><polygon class="cls-1" points="281.68 23.9 281.68 26.1 276.1 26.1 276.1 31.68 273.9 31.68 273.9 26.1 268.32 26.1 268.32 23.9 273.9 23.9 273.9 18.32 276.1 18.32 276.1 23.9 281.68 23.9"/><rect class="cls-1" x="318.32" y="73.9" width="13.36" height="2.19"/><polygon class="cls-1" points="330.5 28.95 328.95 30.5 325 26.55 321.05 30.5 319.5 28.95 323.45 25 319.5 21.05 321.05 19.5 325 23.45 328.95 19.5 330.5 21.05 326.55 25 330.5 28.95"/><path class="cls-1" d="M220.92,120l5,5-5,5,1.55,1.55,6.6-6.6-6.6-6.6Z"/><path d="M270.92,120l5,5-5,5,1.55,1.55,6.6-6.6-6.6-6.6Z"/><path class="cls-1" d="M430,120.92l-5,5-5-5-1.55,1.55,6.6,6.6,6.6-6.6Z"/><path d="M480,120.92l-5,5-5-5-1.55,1.55,6.6,6.6,6.6-6.6Z"/><path class="cls-2" d="M320.92,120l5,5-5,5,1.55,1.55,6.6-6.6-6.6-6.6Z"/><path class="cls-3" d="M370.92,130l5-5-5-5,1.55-1.55,6.6,6.6-6.6,6.6Z"/><path d="M520,129.08l5-5,5,5,1.55-1.55-6.6-6.6-6.6,6.6Z"/><path class="cls-1" d="M570,129.08l5-5,5,5,1.55-1.55-6.6-6.6-6.6,6.6Z"/><path class="cls-4" d="M225,44a19,19,0,1,0-19-19,19,19,0,0,0,19,19"/><path class="cls-1" d="M215.7,22.34a2.92,2.92,0,1,0,2.92,2.92A2.93,2.93,0,0,0,215.7,22.34Zm9.3,0a2.92,2.92,0,1,0,2.92,2.92A2.92,2.92,0,0,0,225,22.34Zm9.3,0a2.92,2.92,0,1,0,2.92,2.92A2.92,2.92,0,0,0,234.3,22.34Z"/><path class="cls-4" d="M75,44A19,19,0,1,0,56,25,19,19,0,0,0,75,44"/><path class="cls-5" d="M91.21,31.09l-.31-.31-1.23-1.23L88.52,28.4l-.32-.32L88.13,28,88,27.86,87,26.93l-1.32-1.32-.85-.85-.62-.62L78.4,18.28,78,17.89l-.15-.15-.93-.93-.46-.46L76.08,16l-.15-.15-.16-.16-.39-.38L75.08,15h0L75,14.88l-1.78,1.78.08.08,5.52,5.53,1.46,1.47H64.88v2.53H65v.08H65v.08h.08v.08h.08v.08h.08v.08h.08v.08h.08v.08h.08v.08h.08V27h.08V27h.08v.08h.08v.08h.08v.08H66v.08H66v.08h.08v.08h.08v.08h.08v.08h.08v.08h.08v.08h.08v.08h.08V28h.08V28h.08v.08h.08v.08h.08v.08H67v.08H67v.08h.08v.08h.08v.08h.08v.08h.08v.08h.08v.08h.08v.08h.08V29h.08V29h.08v.08h.08v.08h.08v.08H68v.08H68v.08h.08v.08h.08v.08h.08v.08h.08v.08h.08v.08h.08v.08h.08V30h.08V30h.08v.08h.08v.08h.08v.08H69v.08H69v.08h.08v.08h.08v.08h.08v.07h.08v.08h.08v.08h.08v.08h.08V31h.08V31h.08v.08h.08v.07h.08v.08H70v.08H70v.08h.08v.08h.08v.08h.08v.08h.08v.08h.08v.08h.08v.08h.08V32h.08V32h.08v.08h.08v.07h.08v.08H71v.08H71v.08h.08v.08h.08v.08h.08v.08h.08v.08h.08v.08h.08v.08h.08V33h.08V33h.08v.08h.08v.08h.08v.08H72v.08H72v.08h.08v.08h.08v.08h.08v.08h.08v.07h.08v.08h.08v.08h.08V34h.08V34h.08v.08h.08v.08h.08v.08H73v.08H73v.08h.08v.08h.08v.08h.08v.08h.08v.08h.08v.08h.08v.08h.08V35h.08V35h.08v.08h.08v.08h.08v.07H74v.08H74v.08h.08v.08h.08v.08h.08v.08h.08v.08h.08v.08h.08v.08h.08V36h.08V36h.08v.08h.08v.08h.08v.08H75v.08H75v.08h.08v.08h.08v.08h.08v.08h.08v.08h.08v.08h.08v.08h.08V37h.08v.08h.08v.08h.08v.08h.08v.08H76v.08h.08v.08h.08v.08h.08v.08h.08v.08h.08v.08h.08v.08h.08v.08h.08V38h.08v.08h.08v.08h.08v.08h.08v.08H77v.08h.08v.08h.08v.08h.08v.08h.08v.08h.08v.08h.08v.08h.08v.08h.08V39h.08v.1h.08v.08h.08v.08h.08v.08H78v.08h.08v.08h.08v.08h.08v.08h.08v.08h.08v.08h.08v.08h.08v.08h.08V40h.1v.08h.08v.08h.08v.07h.08v.08H79v.08h.08v.08h.08v.08h.08v.08h.08v.08h.08v.08h.08v.08h.08v.08h.08V41h.08v.08h.08v.08h.08v.08h.08v.08H80v.08h.08v.08h.08v.08h.08v.08h.08v.08h.08v.08h.08v.08h.08v.08h.08V42h.08v.08h.08v.08h.08v.08h.08v.08H81v.08h.08v.08h.08v.08h.08v.08h.08v.08h.08v.08h.08v0a19,19,0,0,0,11-10.45Z"/><path class="cls-1" d="M75,14.88l-1.78,1.78,7.06,7.07H64.88v2.53H80.27l-7.06,7.07L75,35.12,85.12,25Z"/><path class="cls-4" d="M125,44a19,19,0,1,0-19-19,19,19,0,0,0,19,19"/><path class="cls-5" d="M143,31l0,0-.08-.08-.08-.08-.08-.08-.08-.08-.08-.08-.08-.08-.08-.08-.08-.08-.08-.08-.07-.08-.08-.08-.08-.08L142,30l-.08-.08-.08-.08-.08-.08-.08-.08-.08-.08-.08-.08-.08-.08-.08-.08-.08-.08-.08-.08-.07-.08-.08-.08L141,29l-.08-.08-.08-.08-.08-.08-.08-.08-.08-.08-.08-.08-.08-.07-.08-.08-.08-.08-.08-.08-.08-.08-.08-.08L140,28l-.08-.08-.08-.08-.08-.08-.08-.08-.08-.08-.08-.08-.08-.08-.08-.08-.08-.08-.08-.08-.08-.08-.08-.08L139,27l-.08-.08-.08-.08-.08-.08-.08-.08-.08-.08-.08-.08-.08-.08-.08-.08-.08-.08-.08-.08-.08-.08-.08-.08L138,26l-.08-.08-.08-.08-.08-.08-.08-.08-.08-.08-.08-.08-.08-.08-.08-.08-.08-.08-.08-.08-.08-.08-.08-.08L137,25l-.08-.08-.08-.07-.08-.08-.08-.08-.08-.08-.08-.08-.08-.08-.08-.08-.08-.08-.08-.08-.08-.08-.07-.08L136,24l-.08-.08-.08-.08-.08-.08-.08-.08-.08-.08-.08-.08-.08-.08-.08-.08-.08-.08-.08-.08-.08-.08-.08-.08L135,23l-.08-.08-.08-.08-.07-.07-.08-.08-.08-.08-.08-.08-.08-.08-.08-.08-.08-.08-.08-.08-.08-.08-.08-.08L134,22l-.08-.08-.08-.08-.08-.08-.07-.07-.08-.08-.08-.08-.08-.08-.08-.08-.08-.08-.08-.08-.08-.08-.08-.08L133,21l-.08-.08-.08-.08-.08-.08-.08-.08-.08-.08-.08-.08-.08-.08-.08-.08-.08-.08-.08-.08-.08-.08-.08-.08L132,20l-.08-.08-.08-.07-.08-.08-.08-.08-.07-.08-.08-.08-.08-.08-.08-.08-.08-.08-.08-.08-.08-.08-.08-.08-.08-.08-.08-.08-.08-.08-.08-.08-.08-.08-.08-.08-.08-.08-.08-.08-.08-.08-.08-.08-.08-.08-.08-.08-.08-.08-.08-.08-.08-.08-.08-.08-.08-.08-.08-.08-.08-.08-.08-.08-.08-.08-.08-.08-.08-.08-.08-.08-.08-.08-.08-.08-.08-.08-.08-.08-.08-.08-.08-.08-.07-.07-.08-.08-.08-.08-.08-.08-.08-.08-.08-.08-.08-.08-.08-.08-.08-.08-.08-.08-.08-.08-.08-.08-.08-.08-.08-.08-.08-.08-.08-.08-.08-.08-.08-.08-.08-.08-.08-.08-.08-.08a.88.88,0,0,0-.65-.29.86.86,0,0,0-.71.37c-1.28.93-4.55,3.74-6.23,5.35H114a.86.86,0,0,0-.82.88v7.64a.89.89,0,0,0,.29.66l.08.08.08.08.08.08.08.08.08.08.08.08.08.08.08.07.08.08.08.08.08.08.08.08.08.08.08.08.08.08.08.08.08.08.08.08.08.08.08.08.08.08.08.08.08.08.07.07.08.08.08.08.08.08.08.08.08.08.08.08.08.08.08.08.08.08.08.08.08.08.08.08.08.08.08.08.08.08.08.08.07.08.08.08.08.08.08.08.08.08.08.08.08.08.08.07.08.08.08.08.08.08.08.08.08.08.08.08.08.08.08.08.07.08.08.08.08.08.08.08.08.07.08.08.08.08.08.08.08.08.08.08.08.08.08.08.08.08.08.08.08.08.08.08.08.08.08.08.08.08.08.08.08.08.08.08.08.08.08.08.08.08.08.08.08.08.08.08.08.08.08.08.08.08.08.08.08.08.08.08.08.08.08.08.08.08.08.08.08.08.08.08.08.08.08.08.08.08.08.07.08.08.08.08.08.08.08.08.08.08.08.08.08.08.08.08.08.08.08.08.08.08.08.08.08.08.08.08.08.08.08.08.08.08.08.08.08.08.08.08.08.08.08.08.08.08.08.08.08.08.08.08.08.08.08.08.08.08.08.08.08.07.08.08.08.08.08.08.08.08.08.08.08.08.08.08.08.08.08.08.08.08.08.08.08.08.08.08.08.08.08.08.08.08.08.08.08.08.08.08.08.08.08.08.08.07.08.08.08.08.08.08.08.08.08.08.08.08.08.07.08.08.08.08.08.08.08.08.08.08.08.07.08.08.08.08.08.07.08.08.08.08.07.07.08.08.08.08.08.08.08.08.08.08.08.08.08.08.08.08.08.08.08.08,0,0A19,19,0,0,0,143,31Z"/><path class="cls-6" d="M132.12,15.57s4.81,4.38,4.81,9.79-4.81,9.81-4.81,9.81"/><path class="cls-7" d="M129.22,19.95a8.14,8.14,0,0,1,2.58,5.41s.43,2.73-2.42,5.58"/><path class="cls-8" d="M120.61,20.52h-5.33a.86.86,0,0,0-.82.88v7.64a.86.86,0,0,0,.82.88h5.33Z"/><path class="cls-9" d="M117.77,20.52h-3.84a.86.86,0,0,0-.82.88v7.64a.86.86,0,0,0,.82.88h3.84Z"/><path class="cls-9" d="M126.22,14.86c-.34,0-4.73,3.73-6.75,5.67V29.9c2,2,6.4,5.79,6.75,5.79a.8.8,0,0,0,.8-.8V15.67A.81.81,0,0,0,126.22,14.86Z"/><path class="cls-10" d="M127,25V15.67a.8.8,0,0,0-.8-.8c-.34,0-4.73,3.73-6.75,5.67V25Z"/><path class="cls-10" d="M113.1,25v-3.6a.86.86,0,0,1,.82-.88h3.84V25Z"/><path class="cls-11" d="M127.28,34.94a.84.84,0,0,1-.87.81h0a.84.84,0,0,1-.87-.81V15.62a.84.84,0,0,1,.87-.81h0a.84.84,0,0,1,.87.81Z"/><path class="cls-4" d="M175,44a19,19,0,1,0-19-19,19,19,0,0,0,19,19"/><path class="cls-5" d="M193,31l0,0-.08-.08-.08-.08-.08-.08-.08-.08-.08-.08-.08-.08-.08-.08-.08-.08-.08-.08-.07-.08-.08-.08-.08-.08L192,30l-.08-.08-.08-.08-.08-.08-.08-.08-.08-.08-.08-.08-.08-.08-.08-.08-.08-.08-.08-.08-.07-.08-.08-.08L191,29l-.08-.08-.08-.08-.08-.08-.08-.08-.08-.08-.08-.08-.08-.07-.08-.08-.08-.08-.08-.08-.08-.08-.08-.08L190,28l-.08-.08-.08-.08-.08-.08-.08-.08-.08-.08-.08-.08-.08-.08-.08-.08-.08-.08-.08-.08-.08-.08-.08-.08L189,27l-.08-.08-.08-.08-.08-.08-.08-.08-.08-.08-.08-.08-.08-.08-.08-.08-.08-.08-.08-.08-.08-.08-.08-.08L188,26l-.08-.08-.08-.08-.08-.08-.08-.08-.08-.08-.08-.08-.08-.08-.08-.08-.08-.08-.08-.08-.08-.08-.08-.08L187,25l-.08-.08-.08-.07-.08-.08-.08-.08-.08-.08-.08-.08-.08-.08-.08-.08-.08-.08-.08-.08-.08-.08-.07-.08L186,24l-.08-.08-.08-.08-.08-.08-.08-.08-.08-.08-.08-.08-.08-.08-.08-.08-.08-.08-.08-.08-.08-.08-.08-.08L185,23l-.08-.08-.08-.08-.07-.07-.08-.08-.08-.08-.08-.08-.08-.08-.08-.08-.08-.08-.08-.08-.08-.08-.08-.08L184,22l-.08-.08-.08-.08-.08-.08-.07-.07-.08-.08-.08-.08-.08-.08-.08-.08-.08-.08-.08-.08-.08-.08-.08-.08L183,21l-.08-.08-.08-.08-.08-.08-.08-.08-.08-.08-.08-.08-.08-.08-.08-.08-.08-.08-.08-.08-.08-.08-.08-.08L182,20l-.08-.08-.08-.07-.08-.08-.08-.08-.07-.08-.08-.08-.08-.08-.08-.08-.08-.08-.08-.08-.08-.08-.08-.08-.08-.08-.08-.08-.08-.08-.08-.08-.08-.08-.08-.08-.08-.08-.08-.08-.08-.08-.08-.08-.08-.08-.08-.08-.08-.08-.08-.08-.08-.08-.08-.08-.08-.08-.08-.08-.08-.08-.08-.08-.08-.08-.08-.08-.08-.08-.08-.08-.08-.08-.08-.08-.08-.08-.08-.08-.08-.08-.08-.08-.07-.07-.08-.08-.08-.08-.08-.08-.08-.08-.08-.08-.08-.08-.08-.08-.08-.08-.08-.08-.08-.08-.08-.08-.08-.08-.08-.08-.08-.08-.08-.08-.08-.08-.08-.08-.08-.08-.08-.08-.08-.08a.88.88,0,0,0-.65-.29.86.86,0,0,0-.71.37c-1.28.93-4.55,3.74-6.23,5.35H164a.86.86,0,0,0-.82.88v7.64a.89.89,0,0,0,.29.66l.08.08.08.08.08.08.08.08.08.08.08.08.08.08.08.07.08.08.08.08.08.08.08.08.08.08.08.08.08.08.08.08.08.08.08.08.08.08.08.08.08.08.08.08.08.08.08.07.08.08.08.08.08.08.08.08.08.08.08.08.08.08.08.08.08.08.08.08.08.08.08.08.08.08.08.08.08.08.08.08.08.08.08.08.08.08.08.08.08.08.08.08.08.08.08.07.08.08.08.08.08.08.07.08.08.08.08.08.08.08.08.08.08.08.08.08.08.08.08.08.08.07.08.08.08.08.08.08.08.08.08.08.08.08.08.08.08.08.08.08.08.08.08.08.08.08.08.08.08.08.08.08.08.08.08.08.08.08.08.08.08.08.08.08.08.08.08.08.08.08.08.08.08.08.08.08.08.08.08.08.08.08.08.08.08.08.08.08.08.08.08.08.08.08.08.08.08.08.08.07.08.08.08.08.08.08.08.08.08.08.08.08.08.08.08.08.08.08.08.08.08.08.08.08.08.08.08.08.08.08.08.08.08.08.08.08.08.08.08.08.08.08.08.08.08.08.08.08.08.08.08.08.08.08.08.08.08.08.08.08.08.07.08.08.08.08.08.08.08.08.08.08.08.08.08.08.08.08.08.08.08.08.08.08.08.08.08.08.08.08.08.08.08.08.08.08.08.08.08.08.08.08.08.08.08.07.08.08.08.08.08.08.08.08.08.08.08.08.08.07.08.08.08.08.08.08.08.08.08.08.08.07.08.08.08.08.08.07.08.08.08.08.07.07.08.08.08.08.08.08.08.08.08.08.08.08.08.08.08.08.08.08.08.08,0,0A19,19,0,0,0,193,31Z"/><path class="cls-12" d="M188.88,21.48l-.93-.94-3.71,3.7-3.7-3.7-.94.94,3.71,3.7-3.71,3.71.94.94,3.7-3.71,3.71,3.71.93-.94-3.7-3.71Z"/><path class="cls-8" d="M170.51,20.52h-5.34a.86.86,0,0,0-.82.88v7.64a.86.86,0,0,0,.82.88h5.34Z"/><path class="cls-9" d="M167.67,20.52h-3.84a.86.86,0,0,0-.82.88v7.64a.86.86,0,0,0,.82.88h3.84Z"/><path class="cls-9" d="M176.12,14.86c-.34,0-4.73,3.73-6.75,5.67V29.9c2,2,6.4,5.79,6.75,5.79a.8.8,0,0,0,.8-.8V15.67A.81.81,0,0,0,176.12,14.86Z"/><path class="cls-10" d="M176.93,25V15.67a.81.81,0,0,0-.8-.8c-.34,0-4.73,3.73-6.75,5.67V25Z"/><path class="cls-10" d="M163,25v-3.6a.86.86,0,0,1,.82-.88h3.84V25Z"/><path class="cls-11" d="M177.18,34.94a.84.84,0,0,1-.87.81h0a.84.84,0,0,1-.87-.81V15.62a.84.84,0,0,1,.87-.81h0a.84.84,0,0,1,.87.81Z"/><path class="cls-4" d="M24.61,44a19,19,0,1,0-19-19,19,19,0,0,0,19,19"/><path class="cls-5" d="M42.43,31.46h0V31.4h-.07v-.07h-.07v-.07h-.07v-.07h-.07v-.07h-.07v-.07H42V31h-.07v-.07h-.07v-.07h-.07v-.07h-.07v-.07h-.07v-.07h-.07v-.07h-.07v-.07h-.07v-.07h-.07v-.07h-.07v-.07h-.07v-.07h-.07v-.07h-.07v-.07H41v-.07H41V30h-.07v-.07h-.07v-.07h-.07v-.07h-.07v-.07h-.07v-.07h-.07v-.07h-.07v-.07h-.07v-.07h-.07v-.07h-.07v-.07h-.07v-.07h-.07v-.07h-.07v-.07H40V29H40V29H39.9v-.07h-.07v-.07h-.07v-.07H39.7v-.07h-.07v-.07h-.07v-.07H39.5v-.07h-.07v-.07h-.07v-.07H39.3V28.3h-.07v-.07h-.07v-.07H39.1V28.1H39V28H39V28H38.9V27.9h-.07v-.07h-.07v-.07H38.7V27.7h-.07v-.07h-.07v-.07H38.5V27.5h-.07v-.07h-.07v-.07H38.3v-.07h-.07v-.07h-.07v-.07H38.1v-.07H38V27H38V27h-.07v-.07h-.07v-.07h-.07v-.07h-.07v-.07h-.07v-.07h-.07v-.07h-.07v-.07h-.07v-.07h-.07v-.07h-.07v-.07h-.07v-.07h-.07v-.07h-.07v-.07H37V26h-.07V26h-.07v-.07h-.07v-.07h-.07v-.07h-.07v-.07h-.07v-.07h-.07v-.07h-.07v-.07h-.07v-.07h-.07v-.07h-.07v-.07h-.07v-.07h-.07v-.07h-.07v-.07H36V25h-.07v-.07h-.07v-.07h-.07v-.07h-.07v-.07h-.07v-.07H35.6v-.07h-.07v-.07h-.07v-.07H35.4V24.4h-.07v-.07h-.07v-.07H35.2v-.07h-.07v-.07h-.07v-.07H35V24h-.07v-.07h-.07v-.07H34.8V23.8h-.07v-.07H33.47l-.52-.52L32.72,23l-.34-.34L32,22.28l-1-1-.1-.1-.34-.34-1-1-.31-.3L27.77,18l0,0,0,0L26,16.22,25.68,16l-.2-.2h0L24.74,15h0l-.07-.07-.07-.07L14.49,25l.07.07.2.2h0l.07.07.47.47.47.47.4.4.47.47,8.94,8.94,1.18,1.18,0,0,1.08,1.08.67.67,2.3,2.3L32,42.48A19,19,0,0,0,42.43,31.46Z"/><path class="cls-1" d="M24.61,35.12l1.79-1.78-7.06-7.07h15.4V23.73H19.33l7.06-7.07-1.79-1.78L14.49,25Z"/><rect class="cls-13" x="-2.68" y="-2.68" width="55.37" height="55.37"/><path class="cls-4" d="M24.62,94.13a19,19,0,1,0-19-19,19,19,0,0,0,19,19"/><path class="cls-5" d="M43.35,78.08l-.14-.14h0l-.08-.08h0L43,77.78,43,77.71h0l-.08-.08h0l-.08-.08h0l-.08-.08-.08-.08-.08-.08h0l-.16-.16h0l-.08-.08L42.27,77h0l-.08-.08h0l-.08-.08L42,76.77,42,76.69h0l-.08-.08h0l-.08-.08h0l-.08-.08h0l-.08-.08h0l-.08-.08h0l-.08-.08h0l-.08-.08h0l-.08-.08h0l-.16-.15h0l-.08-.08L41,75.75h0l-.08-.08h0l-.08-.08-.08-.08h0l-.08-.08h0l-.08-.08h0l-.08-.08-.08-.08-.08-.08h0l-.08-.08h0L40.24,75h0l-.08-.08-.08-.08h0L40,74.74h0l-.08-.08-.08-.08-.08-.08h0l-.08-.08h0l-.08-.08h0l-.08-.08h0l-.08-.08h0l-.08-.08h0L39.3,74,39.22,74h0l-.08-.08h0l-.08-.08L39,73.72h0l-.08-.08h0l-.08-.08h0l-.08-.08-.08-.08h0l-.08-.08h0l-.08-.08h0l-.08-.08h0l-.08-.08L38.29,73h0l-.08-.08h0l-.08-.08-.08-.08h0L38,72.71h0l-.08-.08h0l-.08-.08h0l-.08-.08h0l-.08-.08h0l-.08-.08h0l-.08-.08h0l-.08-.08h0l-.08-.08L37.27,72h0l-.08-.08-.08-.08h0L37,71.78,37,71.7h0l-.08-.08h0l-.08-.08h0l-.08-.08h0l-.08-.08-.08-.08h0l-.08-.08h0l-.08-.08h0l-.08-.08h0L36.26,71h0l-.08-.08h0l-.08-.08L36,70.76h0l-.08-.08-.08-.08h0l-.08-.08h0l-.08-.08h0l-.08-.08-.08-.08-.08-.08h0l-.08-.08-.08-.08h0L35.25,70l-.08-.08h0l-.08-.08h0L35,69.75h0l-.08-.08-.08-.08h0l-.08-.08h0l-.08-.08-.08-.08h0l-.08-.08-.08-.08h0l-.08-.08h0L34.31,69h0L34.23,69l-.08-.08h0l-.08-.08h0L34,68.73l-.08-.08h0l-.08-.08h0l-.08-.08h0l-.08-.08-.08-.08h0l-.08-.08h0l-1.1-1.09-1.1-1.09a7.91,7.91,0,0,1-2.43.68v0h0l0-.08h0l0-.08h0l0-.08H28.6l0-.08h0l0-.08h-.05l0-.08h0l0-.08h-.05l0-.08h-.05l0-.08h0l0-.08h0l0-.08H28l0-.08h0l0-.08h0l0-.08h-.05l0-.08h-.05l0-.08h0l0-.08h0l0-.08h0l0-.08h0l0-.08h-.05l0-.08h0l0-.08h-.05l0-.08H27l0-.08h0l0-.08h0l0-.08h-.05l0-.08h0l0-.08h0l0-.08h-.05l0-.08h0l0-.08h0l0-.08h0l0-.08h0l0-.08h0l0-.08h-.05l0-.08H26l0-.08H22.92s-.77,2.24-2,2.89l-.11.05-.06,0a6.62,6.62,0,0,1-3.08-.65l-1.09,1.09-1.09,1.09a6.55,6.55,0,0,1,.65,3.11c-.05.12-.06.24-.11.37a6.44,6.44,0,0,1-2.67,1.79v3.09l.08,0v0l.08,0v0l.08,0v0l.08,0v0l.08,0v0l.08,0v0l.08,0v0l.08,0v0l.08,0v0l.08,0v0l.08,0v0l.08,0v0l.08,0v0l.08,0v0l.08,0v0l.08,0v0l.08,0v0l.08,0v0l.08,0v0l.08,0v0l.08,0v0l.08,0v.05l.08,0v.05l.08,0v0l.08,0v0l.08,0v.05l.08,0v0l.08,0v0l.08,0v0l.08,0V79l.08,0v0l.08,0v0l.08,0v0l.08,0v.05l.08,0v0l.07,0a7.69,7.69,0,0,1-.7,2.56l1.08,1.09,1.06,1.12h0l.08.08h0l.07.08h0l.08.08h0l.08.08h0l.07.08h0l.07.08h0l.08.08h0l.08.08h0l.07.08h0l.07.08h0l.08.08h0l.08.08h0l.07.08h0l.07.08h0l.08.08h0l.08.08h0l.07.08h0l.07.08h0l.08.08h0l.08.08h0l.07.08h0l.08.08h0l.08.08h0l.08.08h0l.07.08h0l.08.08h0l.08.08h0l.08.08h0l.07.08h0l.08.08h0l.08.08h0l.08.08h0l.07.08h0l.08.08h0l.08.08h0l.07.08h0l.07.08h0l.08.08h0l.08.08h0l.07.08h0l.07.08h0l.08.08h0l.08.08h0l.07.08h0l.07.08h0l.08.08h0l.08.08h0l.08.08h0l.08.08h0l.08.08h0l.08.08h0l.08.08h0l.08.08h0l.08.08h0l.08.08h0l.07.08h0l.08.08h0l.07.08h0l.08.08h0l.07.08h0l.07.08h0l.08.08h0l.08.08h0l.07.08h0l.08.08h0l.08.08h0l.07.08h0l.07.08h0l.07.08h0l.08.08h0l.08.08h0l.07.08h0l.08.08h0l.08.08h0l.08.08h0l.07.08h0l.08.08h0l.08.08h0l.07.08h0l.07.08h0l.08.08h0l.08.08h0l.07.08h0l.07.08h0l.08.08h0l.08.08h0l.07.08h0l.08.08h0l.07.08h0l.07.08h0l.07.08h0l.08.08h0l.08.08h0l.08.08h0l.08.08h0l.08.08h0l.08.08h0l.07.08h0l.07.08h0l.08.08h0l.08.08h0l.07.08h0l.07.08h0l.08.08h0l.08.08h0l.07.08h0l.08.09h0l.08.08h0l.08.08h0l.07.08h0l.08.08h0l.08.08h0l.08.08h0l.07.08h0l.08.08h0l.08.08h0l.07.08h0l.07.08h0l.08.08h0l.08.08h0l.07.08h0l.07.08h0l.08.08h0l.08.08h0l0,0A19,19,0,0,0,43.35,78.08Z"/><path class="cls-9" d="M28.26,75A3.63,3.63,0,0,1,21,75,.27.27,0,0,1,21,75H13.32v1.54s2.17.75,2.86,2c.38,1.34-.64,3.42-.64,3.42L16.62,83l1.09,1.09a6.42,6.42,0,0,1,3.36-.61c1.25.65,2,3,2,3h3.09s.85-2.55,2.21-3A6.78,6.78,0,0,1,31.5,84l1.09-1.1,1.09-1.1a6.3,6.3,0,0,1-.64-3.3l0,0c.67-1.23,2.86-2,2.86-2V75H28.25a.19.19,0,0,1,0,0"/><path class="cls-10" d="M33,71.41,33,71.3l0-.06a6.63,6.63,0,0,1,.65-3.08l-1.09-1.09L31.43,66a6.55,6.55,0,0,1-3.11.65c-.12-.05-.24-.06-.37-.11a6.43,6.43,0,0,1-1.79-2.67H23.07a6.39,6.39,0,0,1-1.81,2.69L21,66.6a6.33,6.33,0,0,1-3.27-.66L16.66,67l-1.12,1.06s1,2.06.63,3.4c-.69,1.21-2.85,2-2.85,2V75H21a3.63,3.63,0,0,1,7.25,0h7.67V73.43s-2.24-.77-2.88-2"/><path class="cls-14" d="M24.62,70.13a4.76,4.76,0,1,0,4.76,4.76,4.76,4.76,0,0,0-4.76-4.76m0,8.17A3.41,3.41,0,1,1,28,74.89a3.4,3.4,0,0,1-3.4,3.41"/><path class="cls-4" d="M144,75a19,19,0,1,0-19,19,19,19,0,0,0,19-19"/><path class="cls-5" d="M142.82,81.46h0V81.4h-.06v-.07h-.07v-.06h-.06V81.2h-.06v-.06h-.06v-.06h-.07V81h-.07v-.06h-.06v-.07h-.07v-.06h-.06v-.06h-.07v-.06H142v-.06h-.07v-.06h-.06v-.07h-.06v-.07h-.07v-.06h-.06v-.06h-.07v-.07h-.06v-.06h-.07v-.06h-.06V80h-.07V80h-.07V79.9h-.06v-.07h-.07v-.06h-.06V79.7H141v-.06H141v-.06h-.07v-.06h-.06v-.06h-.07v-.06h-.06v-.06h-.07v-.07h-.07v-.06h-.06v-.07h-.07V79h-.06V79h-.06v-.07h-.06v-.06h-.08v-.07h-.06v-.06H140v-.06H140v-.06h-.07v-.06h-.06v-.06h-.07V78.4h-.06v-.07h-.07v-.06h-.07v-.07h-.07v-.07h-.06v-.06h-.06V78h-.06v-.06h-.06v-.06h-.07v-.06h-.06v-.06h-.07v-.06H139v-.06h-.06v-.07h-.06v-.06h-.07v-.06h-.07v-.06h-.06v-.06h-.06v-.07h-.06v-.07h-.07v-.07h-.06V77h-.06V77h-.06v-.06h-.07v-.06h-.07v-.06h-.06V76.7H138v-.07H138v-.06h-.07v-.06h-.06v-.06h-.07v-.06h-.07v-.07h-.06v-.06h-.07v-.07h-.06v-.06h-.07V76h-.06V76h-.07v-.06h-.06v-.07h-.07v-.07h-.06v-.06h-.07v-.06H137v-.06h-.06v-.06h-.06v-.07h-.06v-.07h-.07v-.06h-.06v-.06h-.07V75.2h-.07v-.06h-.06v-.06h-.07V75h-.06v-.06h-.06v-.07h-.07V74.8h-.07v-.06h-.06v-.06H136v-.07H136v-.06h-.06v-.06h-.07v-.07h-.06v-.06h-.07v-.06h-.06v-.07h-.07v-.06h-.1v-.06h-.06V74h-.07V74h-.07v-.06h-.06v-.07h-.07v-.06h-.07v-.07H135v-.06H135v-.06h-.06V73.5h-.07v-.06h-.06v-.06h-.07V73.3h-.06v-.06h-.07v-.06h-.07v-.06h-.06V73h-.06V73h-.07v-.06h-.07v-.07h-.06v-.06h-.06v-.06H134v-.06H134v-.07h-.06v-.06h-.07v-.06h-.07v-.06h-.07v-.07h-.06v-.07h-.06v-.06h-.07v-.07h-.06v-.06h-.07V72h-.06v-.06h-.06v-.06h-.07V71.8h-.06v-.06h-.07v-.06H133v-.06h-.07v-.07h-.07v-.06h-.06v-.07h-.07v-.07h-.06v-.07h-.07v-.06h-.06v-.06h-.07v-.06h-.06V71h-.06V71h-.06v-.06h-.07v-.06h-.07v-.07h-.06V70.7H132v-.06H132v-.06h-.07V70.5h-.06v-.07h-.07v-.06h-.06V70.3h-.07v-.06h-.07v-.06h-.06V70.1h-.07V70h-.06V70h-.06v-.06h-.06v-.06h-.07v-.06h-.06v-.06h-.07v-.06H131v-.07h-.06v-.07h-.07v-.06h-.06v-.06h-.06v-.06h-.06v-.06h-.07V69.2h-.06v-.07h-.07v-.06h-.06V69h-.07v-.07h-.07v-.06h-.06V68.8h-.07v-.06h-.06v-.07H130V68.6H130v-.06h-.06v-.07h-.07v-.06h-.06v-.07h-.07v-.06h-.06v-.07h-.06v-.06h-.07v-.06h-.07V68h-.06v-.07h-.06v-.06h-.07v-.06h-.06v-.06h-.07v-.06h-.06v-.06H129v-.07h-.06v-.06h-.06v-.06h-.06v-.06h-.07V67.3h-.06v-.06h-.06v-.07h-.07v-.06h-.06V67h-.07V67h-.06V66.9h-.07v-.07h-.06v-.06h-.06v-.06h-.07v-.06H128v-.07h-.07v-.06h-.07v-.06h-.07v-.06h-.06v-.06h-.07v-.07h-.12v-.06h-.06v-.07h-.07v-.06h-.06V66h-.07v-.07h-.06v-.06h-.06v-.06h-.07v-.06h-.06v-.06H127V65.6h-.06v-.07h-.07v-.06h-.06V65.4h-.07v-.06h-.07v-.06h-.06v-.07h-.06v-.06h-.06v-.06h-.07V65h-.06v-.06h-.06v-.06h-2.53V80.28l-7-7-.06-.06L114.89,75l.06.06.2.2.2.2.91.91.91.91,1.76,1.76,1.24,1.24.33.33.59.59.59.59,2,2,.06.07.59.59.33.33.46.46.39.39h0l.06.06.33.33.06.06.46.46.39.39.52.52.26.26.06.06.85.85.59.59,1.24,1.24.32.33.59.59.39.39.2.2.58.58A19,19,0,0,0,142.82,81.46Z"/><path class="cls-1" d="M135.12,75l-1.78-1.78-7.07,7.06V64.88h-2.53V80.28l-7.07-7.06L114.88,75,125,85.12Z"/><path class="cls-4" d="M156,75a19,19,0,1,0,19-19,19,19,0,0,0-19,19"/><path class="cls-5" d="M192.49,82.37l-.09-.09-.2-.2,0,0-.2-.2,0,0-.13-.13-.33-.33-.26-.26L190,79.84l-.56-.56,0,0-.07-.07-.29-.29-.43-.43-.53-.53,0,0,0,0-1.61-1.61-.56-.56-.33-.33-.59-.59-.2-.2-.4-.4-.33-.33-.2-.2-.06-.06-1.06-1.06-.59-.59-.2-.2-2.57-2.57-.4-.4-1-1-1.65-1.65-.2-.2-.07-.06-.13-.13-.2-.2-.07-.07-.07-.07-.06-.07-.07-.07-.07-.07-.06-.07-.07-.06-.13-.13-.07-.07L164.89,75l.13.13.13.13.53.53.13.13.5.5.1.1.07.07.17.17.16.16h0l.19.19.66.66.46.46.53.53.14.14.65.65h0l.46.46.53.53.79.79.06.06.19.19h0l.06.06.07.07.17.17.17.17.1.1,0,0,.13.13.4.4.2.2.53.53.42.42v1.26h.06v.07h.07v.07h.07v.06H174v.07h.06v.06h.06v.07h.07v.07h.06v.07h.06v.06h.07v.07h.06v.07h.07v.07h.07V86h.06V86h.06v.07h.07v.06h.06v.07h.07v.07H175v.07H175v.06h.07v.07h.06v.06h.06v.07h.06v.07h.07v.06h.06v.06h.07v.07h.06V87h.07V87h.06v.07h.07v.07h.06v.07h.07v.07H176v.07H176v.06h.06v.07h.07v.06h.06v.07h.07v.07h.06v.07h.06v.07h.07v.06h.06v.06h.06V88h.06v.06h.07v.07h.07v.07h.07v.06h.06v.07H177v.08h.06v.07h.06v.07h.06v.07h.07v.07h.07v.07h.07v.07h.06v.07h.06v.07h.07V89h.06v.06h.06v.07h.07v.07h.07v.06h.06v.07H178v.06h.06v.07h.06v.07h.07v.07h.07v.07h.07v.07h.07v.07h.06v.07h.07v.07h.06V90h.06v.07h.07v.07h.06v.06h.06v.07h.07v.07H179v.07H179v.07h.07v.07h.06v.07h.07v.07h.07v.07h.06v.07h.06v.06h.07v.07h.06V91h.07V91h.07v.07h.06v.06h.07v.06h.06v.08H180v.07H180v.07h.06v.07h.07v.07h.06v.07h.06v.07h.06v.07h.07v.07h.06v.07h.06V92h.07V92h.07v.07h.07v.06h.06v.07h.06v.06h.06v.06H181v.07h.07v.06h.07v.07h.06v.07h.07v.06h.06v.07h.06v.06A18.94,18.94,0,0,0,192.49,82.37Z"/><path class="cls-1" d="M164.88,75l1.78,1.78,7.07-7.06v15.4h2.53V69.72l7.07,7.06L185.12,75,175,64.88Z"/><path class="cls-4" d="M75,94A19,19,0,1,0,56,75,19,19,0,0,0,75,94"/><path class="cls-5" d="M93.91,76.22h-.06v-.08h-.08v-.08H93.7V76h-.08v-.08h-.08v-.08h-.08v-.08h-.08v-.08h-.08V75.6h-.08v-.08h-.08v-.08h-.08v-.08H93v-.08h-.08v-.08h-.08v-.08h-.08v-.08h-.08V75h-.08V74.9h-.08v-.08h-.08v-.08h-.08v-.08H92.3v-.08h-.08v-.08h-.08v-.08h-.08v-.08H92v-.08H91.9V74.2h-.08v-.08h-.08V74h-.08V74h-.08v-.08h-.08v-.08h-.08v-.08h-.08v-.08h-.08v-.08H91.2v-.08h-.08v-.08H91v-.08H91v-.08h-.08v-.08h-.08V73.1h-.08V73h-.08v-.08h-.08v-.08H90.5v-.08h-.08v-.08h-.08v-.08h-.08v-.08h-.08v-.08h-.08V72.4H90v-.08H90v-.08h-.08v-.08H89.8v-.08h-.08V72h-.08v-.08h-.08v-.08h-.08v-.08h-.08V71.7h-.08v-.08h-.08v-.08h-.08v-.08H89.1v-.08H89v-.08h-.08v-.08h-.08v-.08h-.08v-.08h-.08V71h-.08v-.08h-.08v-.08h-.08v-.08H88.4v-.08h-.08v-.08h-.08v-.08h-.08v-.08h-.08v-.08H88V70.3h-.08v-.08h-.08v-.08h-.08v-.08h-.08V70h-.08v-.08h-.08v-.08h-.08v-.08h-.08v-.08H87.3v-.08h-.08v-.08h-.08v-.08h-.08v-.08H87v-.08h-.08V69.2h-.08v-.08h-.08V69h-.08V69H86.6v-.08h-.08v-.08h-.08v-.08h-.08v-.08h-.08v-.08h-.08V68.5h-.08v-.08h-.08v-.08H86v-.08H85.9v-.08h-.08v-.08h-.08V68h-.08V68h-.08v-.08h-.08V67.8h-.08v-.08h-.08v-.08h-.08v-.08H85.2v-.08h-.08v-.08H64.88v2.53H65V70H65v.08h.08v.08h.08v.08h.08v.08h.08v.08h.08v.08h.08v.08h.08v.08h.08v.08h.08v.08h.08v.08h.08V71H66V71H66v.08h.08v.08h.08v.08h.08v.08h.08v.08h.08v.08h.08v.08h.08v.08h.08v.08h.08v.08h.08v.08h.08V72H67V72h.08v.08h.08v.08h.08v.08h.08v.08h.08v.08h.08v.08h.08v.08h.08v.08h.08v.08h.08v.08h.08v.08h.08V73H68v.08h.08v.08h.08v.08h.08v.08h.08v.08h.08v.08h.08v.08h.08v.08h.08v.08h.08v.05H64.87v2.53H65v.08H65v.08h.08v.08h.08v.08h.08v.08h.08v.08h.08v.08h.08v.08h.08V77h.08V77h.08v.08h.08v.08h.08v.08H66v.08H66v.08h.08v.08h.08v.08h.08v.08h.08v.08h.08v.08h.08v.08h.08V78h.08v.08h.08v.08h.08v.08h.08v.08H67v.08h.08v.08h.08v.08h.08v.08h.08v.08h.08v.08h.08v.08h.08v.08h.08V79h.08v.08h.08v.08h.08v.08h.08v.08H68v.08h.08v.08h.08v.08h.08v.08h.08v.08h.08v.08h.08v.08h.08v.08h.08V80h.08v.05H64.87v2.53h.08v.08H65v.08h.08v.08h.08v.08h.08V83h.08v.08h.08v.08h.08v.08h.08v.08h.08v.08h.08v.08h.08v.08h.08v.08H66v.08H66v.08h.08v.08h.08v.08h.08V84h.08v.08h.08v.08h.08v.08h.08v.08h.08v.08h.08v.08h.08v.08h.08v.08H67v.08H67v.08h.08v.08h.08v.08h.08V85h.08v.08h.08v.08h.08v.08h.08v.08h.08v.08h.08v.08h.08v.08h.08v.08H68v.08h.08v.08h.08v.08h.08v.08h.08V86h.08v.08h.08v.08h.08v.08h.08v.08h.08v.08h.08v.08h.08v.08h.08v.08H69v.08h.08v.08h.08v.08h.08V87h.08V87h.08v.08h.08v.08h.08v.08h.08v.08h.08v.08h.08v.08h.08v.08h.08v.08H70v.08h.08v.08h.08v.08h.08V88h.08V88h.08v.08h.08v.08h.08v.08h.08v.08h.08v.08h.08v.08h.08v.08h.08v.08H71v.08h.08v.08h.08v.08h.08V89h.08v.08h.08v.08h.08v.08h.08v.08h.08v.08h.08v.08h.08v.08h.08v.08H72v.08H72v.08h.08v.08h.08v.08h.08V90h.1v.08h.08v.08h.08v.08h.08v.08h.08v.08h.08v.08h.08v.08h.08v.08H73v.08h.08v.08h.08v.08h.08v.08h.08V91h.08v.08h.08v.08h.08v.08h.08v.08h.08v.08h.08v.08h.08v.08h.08v.08H74v.08h.08v.08h.08v.08h.08v.08h.08V92h.08v.08h.08v.08h.08v.08h.08v.08h.08v.08h.08v.08h.08v.08h.08v.08H75v.08h.08v.08h.08v.08h.08v.08h.08V93h.08v.08h.08v.08h.08v.08h.08v.08h.08v.08h.08v.08h.08v.08h.08v.08H76v.08h.08v.08h.08v.08h.08A18.92,18.92,0,0,0,93.91,76.22Z"/><path class="cls-1" d="M64.88,82.59H85.12V80.06H64.88Zm0-6.33H85.12V73.73H64.88Zm0-8.85v2.53H85.12V67.41Z"/><path class="cls-4" d="M275,94.07A19.07,19.07,0,1,0,255.93,75,19.08,19.08,0,0,0,275,94.07Z"/><path class="cls-5" d="M291.57,84.41l-.4-.4-.31-.31-.42-.42-.13-.13-.33-.33-.46-.46-.77-.77-.4-.4-.61-.62-.13-.13-.59-.6-.18-.17-.55-.55-1.06-1.06-.86-.86-.06-.07-.26-.27-.73-.73-.33-.33-.6-.59-.66-.66-.13-.13-.26-.26-.66-.66-.06-.06-.13-.13-.2-.2-.86-.86-2.11-2.11-.4-.4-1.52-1.52-.26-.26-.13-.13L263.56,79.28l.06.06.53.53.27.27.2.2.53.53.27.27.27.27.13.13.56.56.23.23,0,0,0,0,.07.07.06.06.21.21h0l.79.79,1.65,1.65.25.25,0,0,.78.77.41.41,1.06,1.06.18.18.09.08.18.18.68.68.2.2.13.13.18.18.15.15.13.13.33.33.26.27.18.18.15.15.12.11.86.86.2.2,0,0,.12.12.33.33.13.13.33.33.26.26.28.28,0,0,.28.28.33.32A19.08,19.08,0,0,0,291.57,84.41Z"/><path class="cls-1" d="M266.25,82,275,73.24,283.75,82l2.69-2.69L275,67.84,263.56,79.29Z"/><path class="cls-4" d="M225,55.93A19.07,19.07,0,1,0,244.07,75,19.08,19.08,0,0,0,225,55.93Z"/><path class="cls-5" d="M243.8,78.07l-.15-.15-.08-.08-.08-.08-.08-.08,0,0-.48-.48-.2-.2-.9-.9h0l-.08-.08-.08-.08-.08-.08-.18-.18-.22-.22L240.7,75l-.1-.1-.08-.08-.3-.3-.24-.24-.18-.18-.14-.14-1-1-.8-.8-.08-.08-.72-.72-.56-.56-.7-.7-1.21-1.22-.8-.8-.08-.08L225,76.76,219.18,71l-2.69-2.69-.24-.24-2.69,2.69.08.08.08.08.08.08h0l.08.08.64.64,2.23,2.23.48.48.08.08,1.28,1.28.08.08,2.55,2.55L225,82.13l1,1,2.23,2.23.48.48.08.08L229.83,87l.19.19.08.08,2.56,2.55,1.75,1.75A19.08,19.08,0,0,0,243.8,78.07Z"/><path class="cls-1" d="M233.75,68,225,76.76,216.25,68l-2.69,2.69L225,82.16l11.44-11.44Z"/><path class="cls-4" d="M35,125a10,10,0,1,0-10,10A10,10,0,0,0,35,125Z"/><path class="cls-5" d="M34.86,126.61h0l-.08-.07-.07-.08-.34-.34-.36-.36-.71-.71-.08-.08-.19-.19-.05-.05-.11-.11-.49-.49-.52-.53-.4-.4-.49-.49-.52-.52-.15-.15-.36-.36-.9-.9-.08-.08-.43-.43-.9-.9-.08-.08-.22-.22,0,0,0,0-6,6,.11.11.15.15,0,0,.15.15.22.22.23.23.6.6.41.41,1,1,.15.15.15.15.15.15,0,0,.11.11.15.15.23.23.15.15,0,0,.26.26,0,0,.07.08,0,0,0,0,0,0,0,0,.07.07,0,0,.15.15,0,0,0,0,.11.11.08.08.07.07.11.11.23.23,0,0,.08.08.08.08.19.19.07.08.15.15.11.11.07.07.19.19.08.08.19.19.08.08,0,0,.12.12h0l1.28,1.28.39.4A10,10,0,0,0,34.86,126.61Z"/><path class="cls-1" d="M28.66,129.59,24.08,125l4.58-4.59L27.25,119l-6,6,6,6Z"/><path class="cls-4" d="M75,133a10,10,0,1,0-10-10A10,10,0,0,0,75,133Z"/><path class="cls-5" d="M83.69,127.89l-.21-.21-.16-.16-.22-.22-.07-.07-.17-.17-.24-.24-.4-.4L82,126.2l-.32-.32-.07-.07-.31-.31-.09-.09-.29-.29-.55-.55-.45-.45,0,0-.14-.14-.38-.38-.17-.17-.31-.31-.35-.35-.07-.07-.14-.14-.35-.35,0,0-.07-.07-.1-.1-.45-.45-1.11-1.11L76,120.2l-.8-.8-.14-.14L75,119.2l-6,6,0,0,.28.28.14.14.1.1.28.28.14.14.14.14.07.07.29.29.12.12,0,0h0l0,0,0,0,.11.11h0l.42.42.87.86.13.13h0l.41.41.22.22.55.55.1.1,0,0,.09.1.36.36.1.1.07.07.09.1.08.08.07.07.17.17.14.14.1.09.08.08.06.06.45.45.1.1h0l.06.06.17.17.07.07.17.17.14.14.15.15,0,0,.15.15.17.17A10,10,0,0,0,83.69,127.89Z"/><path class="cls-1" d="M70.41,126.61,75,122l4.59,4.58L81,125.2l-6-6-6,6Z"/><path class="cls-4" d="M175,115a10,10,0,1,0,10,10A10,10,0,0,0,175,115Z"/><path class="cls-5" d="M184.86,126.61l-.08-.08,0,0,0,0,0,0h0l-.25-.25-.1-.1-.47-.47h0l0,0,0,0,0,0-.1-.1-.11-.11-.25-.25-.05-.05,0,0-.16-.16-.12-.12-.1-.1-.07-.07-.5-.5-.42-.42,0,0-.38-.38-.29-.29-.37-.37-.64-.64-.42-.42,0,0L175,125.92l-3.05-3-1.41-1.41-.13-.12L169,122.75l0,0,0,0,0,0h0l0,0,.33.33,1.17,1.17.25.25,0,0,.67.67,0,0,1.34,1.34,2,2,.52.52,1.17,1.17.25.25,0,0,.57.57.1.1,0,0,1.34,1.34.92.92A10,10,0,0,0,184.86,126.61Z"/><path class="cls-1" d="M179.59,121.34,175,125.92l-4.59-4.58L169,122.75l6,6,6-6Z"/><path class="cls-4" d="M115,125a10,10,0,1,0,10-10A10,10,0,0,0,115,125Z"/><path class="cls-5" d="M133.69,129.93l-.94-.94-.21-.21,0,0-.49-.49-.21-.21-.15-.15-.49-.49-.71-.71-.21-.21-.15-.15-1-1-.25-.25,0,0-.21-.21-.29-.29-.21-.21L126.75,123l-.21-.21,0,0-.49-.49-.21-.21-1.36-1.36-.21-.21-.33-.33-1.07-1.07-.08-.08-1.41,1.41.86.86,3.72,3.73-4.58,4.59,0,0,.49.49.08.08.08.08.08.08.16.16.08.08.27.27.27.27,0,0,.09.09.16.16h0l.1.1.11.11.06.06.26.26h0l0,0,0,0,0,0,.11.11.09.09.08.08.08.08.82.82.5.5.08.08.4.4.42.42.19.19A10,10,0,0,0,133.69,129.93Z"/><path class="cls-1" d="M121.34,120.41l4.58,4.59-4.58,4.59,1.41,1.41,6-6-6-6Z"/><path class="cls-4" d="M394,24.28a19,19,0,1,0-19,19,19,19,0,0,0,19-19"/><path class="cls-5" d="M392.82,30.75h0v-.07h-.06v-.06h-.07v-.07h-.06v-.07h-.06v-.07h-.07v-.06h-.06v-.07h-.06v-.07h-.06v-.06h-.07v-.07h-.06V30h-.06V30H392V29.9h-.06v-.07h-.06v-.07h-.06V29.7h-.06v-.06h-.06v-.07h-.07V29.5h-.06v-.07h-.06v-.06h-.07v-.07h-.06v-.06h-.06v-.06h-.07v-.07h-.07v-.06h-.06V29H391v-.06H391v-.06h-.06v-.06h-.06v-.07h-.06v-.06h-.07V28.6h-.07v-.07h-.06v-.06h-.07V28.4h-.06v-.06h-.06v-.06h-.06v-.07h-.06v-.06h-.06v-.07h-.06V28H390v-.07H390v-.06h-.06v-.07h-.06v-.06h-.06v-.06h-.07v-.07h-.06v-.06h-.06V27.5h-.07v-.07h-.06v-.06h-.06V27.3h-.06v-.06h-.06v-.07h-.06v-.07h-.06V27h-.07V27H389v-.07h-.07v-.07h-.06v-.06h-.06v-.07h-.08v-.06h-.07v-.07h-.06v-.07h-.06v-.06h-.06v-.06h-.07v-.06h-.06v-.07h-.06V26.2h-.06v-.06h-.06v-.06h-.07V26H388v-.07H388v-.06h-.06v-.06h-.07v-.06h-.07v-.06h-.06v-.07h-.07v-.06h-.06v-.07h-.06v-.06h-.06v-.07h-.07v-.06h-.06v-.06h-.07v-.06h-.06v-.07h-.06V25H387V25H387V24.9h-.07v-.06h-.06v-.06h-.07v-.07h-.06v-.07h-.06v-.07h-.07v-.06h-.07v-.07h-.06v-.06h-.06v-.07h-.07v-.06h-.06v-.06h-.06v-.06h-.06v-.06h-.06V24H386v-.07h-.06v-.06h-.07V23.8h-.06v-.06h-.06v-.07h-.06V23.6h-.07v-.07h-.06v-.07h-.06v-.06h-.06v-.07h-.07v-.06h-.06v-.07h-.06v-.06h-.06v-.07h-.07V23H385V23H385v-.07h-.06v-.06h-.06v-.06h-.07V22.7h-.06v-.06h-.06v-.06h-.07V22.5h-.06v-.07h-.06v-.06h-.07v-.06h-.08v-.06h-.06v-.07h-.06v-.07h-.06V22H384V22H384v-.06h-.07V21.8h-.06v-.06h-.07v-.07h-.06v-.07h-.06v-.06h-.06v-.06h-.06v-.07h-.07v-.07h-.06v-.06h-.06v-.07h-.06v-.07h-.06v-.06h-.07V21h-.06V21H383v-.07h-.06v-.07h-.06v-.06h-.06V20.7h-.07v-.07h-.06v-.06h-.06V20.5h-.07v-.06h-.06v-.07h-.06v-.06h-.06v-.07h-.06v-.06h-.08v-.07h-.06V20h-.06V20H382v-.06h-.07v-.06h-.06v-.07h-.06v-.07h-.07v-.06h-.06v-.07h-.06v-.06h-.06v-.07h-.06V19.4h-.06v-.07h-.07v-.07h-.07v-.06h-.06v-.06h-.07v-.07h-.06V19H381v-.06H381v-.07h-.06v-.07h-.07v-.07h-.06v-.06h-.07v-.07h-.06v-.07h-.06v-.06h-.07v-.07h-.06v-.07h-.07V18.3h-.06v-.06h-.07v-.07h-.06V18.1h-.07V18h-.06V18H380v-.07h-.06v-.07h-.07v-.07h-.06v-.06h-.07v-.07h-.06v-.06h-.06v-.07h-.06v-.06h-.06v-.06h-.07v-.07h-.06v-.06h-.06V17.2h-.07v-.1h-.06V17h-.06V17H379v-.07H379v-.07h-.08v-.06h-.06v-.06h-.07v-.07h-.06v-.06h-.06v-.06h-.06v-.06h-.07v-.07h-.07v-.06h-.06v-.07h-.06v-.07h-.06v-.07h-.06v-.06h-.06V16H378v-.07H378v-.06h-.07V15.8h-.06v-.07h-.06v-.06h-.06v-.07h-.07v-.06h-.06v-.07h-.06v-.06h-.06v-.07h-.07v-.06h-.06v-.06h-.06v-.07h-.07v-.06h-.06V15H377V15H377v-.07h-.07v-.06h-.06v-.06h-.06V14.7h-.06v-.06h-.06v-.07h-.06V14.5h-.06v-.07h-.06v-.06h-.07v-.07h-.07v-.07h-.06v-.06h-2.54V29.58l-7-7-.06-.07-1.78,1.79.06.06.2.2.19.2.91.91.91.91,1.76,1.76,1.24,1.24.33.33.59.59.59.59,2,2,.06.06.59.59.33.33.46.46.39.39h0l.06.06.33.33.06.06.46.46.39.39.52.52.26.26.06.06.85.85.59.59,1.24,1.24.33.33.59.59.39.39.2.2.58.58A19.1,19.1,0,0,0,392.82,30.75Z"/><path class="cls-1" d="M385.12,24.28l-1.79-1.78-7.07,7.06V14.16h-2.53v15.4l-7.07-7.06-1.78,1.78L375,34.4Z"/><path class="cls-4" d="M406,25A19,19,0,1,0,425,6a19,19,0,0,0-19,19"/><path class="cls-5" d="M442.49,32.37l-.09-.09-.2-.2,0,0-.2-.2,0,0-.13-.13-.33-.33-.26-.26L440,29.84l-.56-.56,0,0-.07-.07-.29-.29-.43-.43-.53-.53,0,0,0,0-1.61-1.61-.56-.56-.33-.33-.59-.59-.2-.2-.4-.4-.33-.33-.2-.2-.07-.06-1.06-1.05-.59-.59-.2-.2-2.57-2.57-.4-.4-1-1-1.65-1.65-.2-.2-.07-.06-.13-.13-.2-.2-.07-.07-.07-.06-.06-.07-.07-.06-.07-.07-.06-.06-.07-.06-.13-.13-.07-.07L414.89,25l.13.13.13.13.53.53.13.13.5.5.1.1.06.07.17.17.16.16h0l.19.19.66.66.46.46.53.53.14.14.65.65h0l.46.46.53.53.79.79.06.06.19.19h0l.06.06.07.07.17.17.17.17.1.1,0,0,.13.13.4.39.2.2.53.53.42.42v1.26h.07v.07h.07v.06h.07v.06H424v.07h.06v.06h.07v.06h.07v.07h.07v.06h.07v.07h.06v.07h.07v.06h.06v.07h.07V36h.07V36h.06v.06h.07v.07h.06v.06h.06v.06H425v.07h.07v.06h.06v.07h.07v.06h.07v.06h.07v.07h.07v.06h.07v.06h.06v.07h.07V37h.07V37h.07v.07h.07v.07h.07v.06h.07v.07H426v.07H426v.06h.06v.06h.07v.07h.06v.07h.07v.06h.06v.07h.07v.06h.07v.07h.06v.06h.06V38h.07v.07h.07v.06h.07v.07h.07v.06h.07v.07H427v.06h.06v.07h.07v.06h.07v.07h.07v.07h.06v.06h.07v.06h.07v.07h.07v.06h.07V39h.07v.07h.06v.06h.07v.06h.07v.07h.07v.06H428v.07h.06v.07h.07v.06h.07v.07h.07v.06h.06v.07h.07v.06h.07v.07h.07v.07h.07V40h.07V40h.07v.06h.07v.07h.07v.06h.07v.07H429v.06H429v.06h.07v.07h.06v.06h.07v.06h.06v.07h.06v.06h.07v.07h.06v.06h.06V41h.07V41h.06v.07h.07v.06h.06v.07h.07v.07H430v.06H430v.06h.07v.07h.07v.07h.07v.06h.07v.07h.07v.06h.07v.07h.07v.06h.07v.06h.07V42h.06v.06h.07v.06h.06v.07h.07v.06h.07v.07H431v.06h.06v.07h.07v.06h.07v.07h.07v.07h.07v.06h.07v.06A18.77,18.77,0,0,0,442.49,32.37Z"/><path class="cls-1" d="M414.88,25l1.78,1.78,7.07-7.06v15.4h2.53V19.72l7.07,7.06L435.12,25,425,14.88Z"/><path class="cls-4" d="M625,44a19,19,0,1,0-19-19,19,19,0,0,0,19,19"/><path class="cls-5" d="M643.63,28.56h0v0h-.09l.05-.05-.13,0,.06-.05-.13,0,.05-.05-.13,0,.06-.05-.13,0,.05-.05-.12,0,.05-.05-.13,0,.05-.05-.13,0,.05-.05-.13,0,.06-.05-.12,0,.05-.05-.13,0,.05-.05-.13,0,.05-.05-.12,0,.05-.05-.12,0,.05-.05-.13,0,.05-.05-.13,0,.05-.05-.13,0,.06-.05-.13,0,.06-.05-.13,0,.05-.05-.13,0,.05-.05-.13,0,.05-.05-.12,0,.06-.05-.13,0,.05-.05-.13,0,.05-.05-.12,0,.05-.05-.13,0,.05-.05-.13,0,.05-.05-.12,0,.05-.05-.13,0,.06-.05-.13,0,.05-.05-.12,0,.05-.05-.13,0,.05-.05-.13,0,.05-.05-.12,0,.05-.05-.13,0,.05-.05-.12,0,.05-.05-.12,0,.05-.05-.13,0,.05-.05-.13,0,.06-.05-.12,0,.05-.05-.13,0,.05-.05-.13,0,.06-.05-.13,0,.05-.05-.13,0,.06-.05-.13,0,.05-.05-.12,0,.05-.05-.12,0,.05-.05-.13,0,.05-.05-.12,0,.05-.05-.13,0,.05-.05-.12,0,.05-.05-.13,0,.05-.05-.13,0,.06-.05-.13,0,.06-.05-.12,0,.05-.05-.13,0,.05-.05-.13,0,.05-.05-.12,0,.05-.05-.13,0,.06-.05-.13,0,.05-.05-.12,0,.06-.05-.13,0,.05-.05-.13,0,.05-.05-.12,0,.05-.05-.13,0,.05-.05-.12,0,.05-.05-.12,0,.05-.05-.13,0,.06-.05-.13,0,.05-.05-.13,0,.06-.05-.12,0,.05-.05-.13,0,.06-.05-.13,0,.05-.05-.13,0,.06-.05-.13,0,.05-.05-.12,0,.05-.05-.13,0,.05-.05-.13,0,.05-.05-.12,0,.05-.05-.13,0,.05-.05-.13,0,.06-.05-.12,0,.05-.05-.13,0,.05-.05-.13,0,.05-.05-.12,0,.05-.05-.13,0,.05-.05-.13,0,.06-.05-.13,0,.06-.05-.13,0,.05-.05-.13,0,.05-.05-.12,0,.05-.05-.13,0,.05-.05-.13,0,.05-.05-.13,0,.05-.05-.12,0,.05-.05-.13,0,.05-.05-.13,0,.05-.05-.13,0,.05-.05-.13,0,.06-.05-.13,0,.05-.05-.13,0,.05-.05-.12,0,.05-.05-3.63-.53v0h0l0-.09,0,0-.05-.11,0,0-.05-.11,0,0-.05-.11,0,0-.05-.11,0,0-.05-.11,0,0-.05-.11,0,0-.05-.11,0,0-.05-.11,0,0-.05-.11,0,0-.05-.11,0,0-.05-.11,0,0-.05-.11,0,0-.05-.11,0,0-.05-.11,0,0-.05-.11,0,0-.05-.11,0,0-.05-.11,0,0-.05-.11,0,0-.05-.11,0,0-.05-.11,0,0-.05-.11,0,0-.05-.11,0,0-.05-.11,0,0-.05-.11,0,0-.05-.11,0,0-.05-.11,0,0-.05-.11,0,0-.05-.11,0,0-.05-.11,0,0-.05-.11,0,0-.05-.11,0,0-.05-.11,0,0-.05-.11,0,0-.05-.11,0,0-.05-.11,0,0-.05-.11,0,0-.05-.11,0,0-.05-.11,0,0-.05-.11,0,0-.05-.11,0,0-.05-.11,0,0-.05-.11,0,0-.05-.11,0,0-.05-.11,0,0-.05-.11,0,0-.05-.11,0,0-.05-.11,0,0-.05-.11,0,0-.05-.11,0,0-.05-.11,0,0-.05-.11,0,0-.05-.11,0,0-.05-.11,0,0-.05-.11,0,0-.05-.11,0,0-.05-.11,0,0-.05-.11,0,0-.05-.11,0,0-.05-.11,0,0-.05-.11,0,0-.05-.11,0,0-.05-.11,0,0-.05-.11,0,0-.05-.11,0,0-.05-.11,0,0-.05-.11,0,0-.05-.11,0,0-.05-.11,0,0-.05-.11,0,0-.05-.11,0,0-.05-.11,0,0-.05-.11,0,0-.05-.11,0,0-.05-.11,0,0-.05-.11,0,0-.05-.11,0,0-.05-.11,0,0-.05-.11,0,0-.05-.11,0,0-.05-.11,0,0-.05-.11,0,0-.05-.11,0,0-.05-.11,0,0-.05-.11,0,0-.05-.11,0,0-.05-.11,0,0-.05-.11,0,0-.05-.11,0,0-.05-.11,0,0-.05-.11,0,0-.05-.11,0,0-.05-.11,0,0-.05-.11,0,0-.05-.11,0,0-.05-.11,0,0-.05-.11,0,0-.05-.11,0,0-.05-.11,0,0-.05-.11,0,0-.05-.11,0,0-.05-.11,0,0-.05-.11,0,0-.05-.11,0,0-.05-.11,0,0-.05-.11,0,0-.05-.11L621.53,20l-7.81,1.14.07.07h0l.07.07h0l.07.07h0l.07.07h0l.07.07h0l.07.07h0l.07.07h0l.07.07h0l.07.07h0l.07.07h0l.07.07h0l.07.07h0l.07.07h0l.07.07h0l.07.07h0l.07.07h0l.07.07h0l.07.07h0l.07.07h0l.07.07h0l.07.07h0l.07.07h0l.07.07h0l.07.07h0l.07.07h0l.07.07h0l.07.07h0l.07.07h0l.07.07h0l.07.07h0l.07.07h0l.07.07h0l.07.07h0l.07.07h0l.07.07h0l.07.07h0l.07.07h0l.07.07h0l.07.07h0l.07.07h0l.07.07h0l.07.07h0l.07.07h0l.07.07h0l.07.07h0l.07.07h0l.07.07h0l.07.07h0l.07.07h0l.07.07h0l.07.07h0l.07.07h0l.07.07h0l.07.07h0l.07.07h0l.07.07h0l.07.07h0l.07.07h0l.07.07h0l.07.07h0l.07.07h0l.07.07h0l.07.07h0l.07.07h.07l.07.07h0l.07.07h0l.07.07h0l.07.07h0l.07.07h0l.07.07h0l.07.07h0l.07.07h0l.07.07h0l.07.07h0l.07.07h0l.07.07h0l.07.07h0l.07.07h0l0,0-1.31,7.65.09,0,0,.12.09,0,0,.12.09,0,0,.12.09,0,0,.12.09,0,0,.12.09,0,0,.12.09,0,0,.12.09,0,0,.12.09,0,0,.12.09,0,0,.12.09-.05,0,.12.09,0,0,.12.09,0,0,.12.09,0,0,.12.09,0,0,.12.09,0,0,.12.09,0,0,.12.09,0,0,.12.09,0,0,.12.09,0,0,.12.09,0,0,.12.09,0,0,.12.09,0,0,.12.09,0,0,.12.09,0,0,.12.09-.05,0,.12.09,0,0,.12.09,0,0,.12.09,0,0,.12.09,0,0,.12.09,0,0,.12.09,0,0,.12.09,0,0,.12.09,0,0,.12.09,0,0,.12.09,0,0,.12.09,0,0,.12.09,0,0,.12.09,0,0,.12.09,0,0,.12.09,0,0,.12.09,0,0,.12.09,0,0,.12.09,0,0,.12.09,0,0,.12.09,0,0,.12.09,0,0,.12.09,0,0,.12.09,0,0,.12.09,0,0,.12.09,0,0,.12.09,0,0,.12.09,0,0,.12.09,0,0,.12.09,0,0,.12.09,0,0,.12.09,0,0,.12.09,0,0,.12.09,0,0,.12.09,0,0,.12.09,0,0,.12.09,0,0,.12.09-.05,0,.12.09,0,0,.12.09,0,0,.12.09,0,0,.12.09,0,0,.12.09,0,0,.12.09,0,0,.12.09,0,0,.12.09,0,0,.12.09,0,0,.12.09,0,0,.12.09,0,0,.12.09,0,0,.12.09,0,0,.12.09,0,0,.12.09,0,0,.12.09,0,0,.12.09,0,0,.12.09,0,0,.12.09,0,0,.12.09,0,0,.12.09-.05,0,.12.09,0,0,.12.09,0,0,.12.09,0,0,.12.09,0,0,.12.09,0,0,.12.09,0,0,.12.09,0,0,.12.09,0,0,.12.09,0,0,.12.09,0,0,.12.09,0,0,.12.09,0,0,.12.09,0,0,.12.09,0,0,.12.09-.05,0,.12.09,0,0,.12.09,0,0,.12.09,0,0,.12.09,0,0,.12.09,0,0,.12.09,0,0,.12.09,0,0,.12.09,0,0,.12.09,0,0,.12.09,0,0,.12.09,0,0,.12.09-.05,0,.12.09,0,0,.12.09,0,0,.12.09,0,0,.12.09,0,0,.12.09,0,0,.12.09,0,0,.12.09,0,0,.12.09-.05,0,.12.09,0,0,.12.09,0,0,.12.09,0,0,.12.09,0,0,.12.09,0,0,.12.09,0,0,.12.09,0,0,.12.09,0,0,.12.09,0,0,.12.09,0,0,.12.09,0,0,.12.09,0v.05A18.75,18.75,0,0,0,643.63,28.56Z"/><polygon class="cls-15" points="625.07 12.99 628.56 20.06 636.37 21.2 633.77 23.74 630.72 26.71 632.06 34.48 625.07 30.81 618.09 34.48 619.42 26.71 616.38 23.74 613.77 21.2 621.58 20.06 625.07 12.99"/><polyline class="cls-16" points="625.07 12.99 628.56 20.06 636.37 21.2 633.77 23.74 630.72 26.71 632.06 34.48 625.07 30.81"/><path class="cls-4" d="M493.83,25A18.83,18.83,0,1,0,475,43.83,18.84,18.84,0,0,0,493.83,25Z"/><path class="cls-5" d="M493.57,28l0,0-.14-.14-.14-.14-.64-.64-.67-.67-1.35-1.35-.14-.14-.35-.35-.1-.1-.21-.21-.92-.92-1-1-.75-.75-.92-.92-1-1-.28-.28-.67-.67-1.7-1.7-.14-.14-.82-.82-1.7-1.7-.14-.14-.42-.42-.07-.07-.07-.07L467.93,25l.21.21.28.28.07.07.28.29.43.42.42.43,1.13,1.13.78.78,1.91,1.91.28.28.28.28.28.28.07.07.21.21.28.28.43.43.28.28.07.07.5.5.07.07.14.14.07.07.07.07.07.07.07.07.14.14.07.07.28.28.07.07.07.07.21.21.14.14.14.14L478,35l.43.43.07.07.14.14.14.14.35.35.14.14.28.28.21.21.14.14.35.35.14.14.35.35.14.14.06.06.22.22h0l2.4,2.4.74.74A18.84,18.84,0,0,0,493.57,28Z"/><path class="cls-1" d="M481.89,33.64,473.26,25l8.63-8.65-2.66-2.65L467.93,25l11.3,11.3Z"/><path class="cls-4" d="M506.17,25A18.83,18.83,0,1,0,525,6.17,18.84,18.84,0,0,0,506.17,25Z"/><path class="cls-5" d="M541.36,34.29l-1.77-1.77-.39-.39-.08-.08-.93-.93-.39-.39-.29-.29-.93-.93-1.34-1.34-.39-.39-.29-.29-1.86-1.86-.46-.46-.08-.08-.39-.39-.54-.54-.39-.39-2.56-2.56-.39-.39-.08-.08-.93-.93-.39-.39-2.56-2.56-.39-.39-.62-.62-2-2-.16-.16-2.65,2.66L519.73,18l7,7-8.62,8.65.08.08.93.93.16.16.15.16.16.15.31.31.16.15.51.51.51.52.06.06.16.16.3.3h0l.19.19.2.2.11.11.49.49h0l.06.06,0,0,.05,0,.21.21.17.17.15.14.16.16L525,40.54l1,.95.16.16.75.75.79.79.36.37A18.83,18.83,0,0,0,541.36,34.29Z"/><path class="cls-1" d="M518.11,16.36,526.74,25l-8.62,8.65,2.66,2.65L532.07,25l-11.3-11.3Z"/><path class="cls-4" d="M575,44a19,19,0,1,0-19-19,19,19,0,0,0,19,19"/><path class="cls-5" d="M593.88,26.94h0l-.09-.09-.09-.09-.09-.09-.09-.09-.09-.09-.09-.09a.49.49,0,0,0-.09-.09l-.09-.09a.52.52,0,0,0-.09-.09A.52.52,0,0,0,593,26l-.09-.09-.09-.09-.09-.09-.09-.09-.09-.09-.09-.09a.55.55,0,0,0-.09-.09.49.49,0,0,0-.09-.09.5.5,0,0,0-.09-.09l-.09-.09L592,25l-.09-.09-.09-.09-.09-.09-.09-.09-.09-.09-.09-.09a.5.5,0,0,0-.09-.09l-.09-.09-.09-.09a.56.56,0,0,0-.09-.09l-.09-.09L590.9,24l-.09-.09-.09-.09-.09-.09-.09-.09-.09-.09a.47.47,0,0,0-.09-.09l-.09-.09-.09-.09a.49.49,0,0,0-.09-.09l-.09-.09-.09-.09-.09-.09a.49.49,0,0,0-.09-.09l-.09-.09-.09-.09a.5.5,0,0,0-.09-.09l-.09-.09-.09-.09-.09-.09-.09-.09-.09-.09a.5.5,0,0,0-.09-.09l-.09-.09-.09-.09-.09-.09-.09-.09a.56.56,0,0,0-.26-.18l-3-.85-.06-.05-.09-.09a.44.44,0,0,0-.09-.09l-.09-.09a.45.45,0,0,0-.09-.09.56.56,0,0,0-.09-.09l-.09-.09-.09-.09a.55.55,0,0,0-.09-.09l-.09-.09a.48.48,0,0,0-.09-.09.53.53,0,0,0-.09-.09l-.09-.09-.09-.09a.58.58,0,0,0-.09-.09.63.63,0,0,0-.09-.09l-.09-.09a.51.51,0,0,0-.09-.09.5.5,0,0,0-.09-.09l-.09-.09-.09-.09-.09-.09-.09-.09a.58.58,0,0,0-.09-.09l-.09-.09a.51.51,0,0,0-.09-.09.53.53,0,0,0-.09-.09l-.09-.09a.45.45,0,0,0-.09-.09.61.61,0,0,0-.09-.09l-.09-.09a.5.5,0,0,0-.09-.09.57.57,0,0,0-.09-.09.49.49,0,0,0-.09-.09.55.55,0,0,0-.09-.09l-.09-.09a11.47,11.47,0,0,1-.18-.18.5.5,0,0,0-.09-.09l-.09-.09-.09-.09a.5.5,0,0,0-.09-.09l-.09-.09-.09-.09a.62.62,0,0,0-.09-.09l-.09-.09-.09-.09a.55.55,0,0,0-.09-.09.53.53,0,0,0-.09-.09.48.48,0,0,0-.09-.09.49.49,0,0,0-.09-.09l-.09-.09a.54.54,0,0,0-.09-.09l-.09-.09-.09-.09a.48.48,0,0,0-.09-.09l-.09-.09a.54.54,0,0,0-.09-.09l-.09-.09a.47.47,0,0,0-.09-.09.44.44,0,0,0-.09-.09l-.09-.09-.09-.09-.09-.09a.61.61,0,0,0-.09-.09l-.09-.09-.09-.09a.5.5,0,0,0-.09-.09.59.59,0,0,0-.09-.09l-.09-.09-.09-.09-.09-.09a20,20,0,0,1-.18-.18.55.55,0,0,0-.09-.09.5.5,0,0,0-.09-.09.61.61,0,0,0-.09-.09l-.09-.09-.09-.09a.5.5,0,0,0-.09-.09.58.58,0,0,0-.09-.09.51.51,0,0,0-.09-.09.44.44,0,0,0-.09-.09.48.48,0,0,0-.09-.09.52.52,0,0,0-.09-.09.48.48,0,0,0-.09-.09.52.52,0,0,0-.09-.09.48.48,0,0,0-.09-.09.55.55,0,0,0-.09-.09l-.09-.09a.45.45,0,0,0-.09-.09.53.53,0,0,0-.09-.09l-.09-.09-.09-.09a.56.56,0,0,0-.09-.09l-.09-.09a.54.54,0,0,0-.09-.09l-.09-.09a.53.53,0,0,0-.09-.09.46.46,0,0,0-.09-.09.59.59,0,0,0-.09-.09l-.09-.09-.09-.09a.56.56,0,0,0-.09-.09l-.09-.09a.56.56,0,0,0-.6-.22l-13.33,3.56a.56.56,0,0,0-.4.69l4.4,16.46a.56.56,0,0,0,.18.27l.09.09a.44.44,0,0,0,.09.09.68.68,0,0,0,.09.09l.09.09a.47.47,0,0,0,.09.09l.09.09a.59.59,0,0,0,.09.09.52.52,0,0,0,.09.09l.09.09.09.09a.47.47,0,0,0,.09.09.43.43,0,0,0,.09.09.48.48,0,0,0,.09.09.52.52,0,0,0,.09.09.49.49,0,0,0,.09.09l.09.09.09.09a.56.56,0,0,0,.09.09l.09.09.09.09a.44.44,0,0,0,.09.09l.09.09.09.09.09.09.09.09a.44.44,0,0,0,.09.09l.09.09.09.09a.45.45,0,0,0,.09.09.6.6,0,0,0,.09.09l.09.09.09.09a.44.44,0,0,0,.09.09.6.6,0,0,0,.09.09.51.51,0,0,0,.09.09.45.45,0,0,0,.09.09.52.52,0,0,0,.09.09.45.45,0,0,0,.09.09.57.57,0,0,0,.09.09l.09.09a.45.45,0,0,0,.09.09.61.61,0,0,0,.09.09.56.56,0,0,0,.09.09.45.45,0,0,0,.09.09.56.56,0,0,0,.09.09l.09.09.09.09a.48.48,0,0,0,.09.09l.09.09.09.09a.49.49,0,0,0,.09.09.57.57,0,0,0,.09.09l.09.09.09.09a.58.58,0,0,0,.09.09.44.44,0,0,0,.09.09.53.53,0,0,0,.09.09l.09.09.09.09a.46.46,0,0,0,.09.09.56.56,0,0,0,.09.09.51.51,0,0,0,.09.09.47.47,0,0,0,.09.09.56.56,0,0,0,.09.09.5.5,0,0,0,.09.09l.09.09.09.09a.47.47,0,0,0,.09.09.57.57,0,0,0,.09.09l.09.09.09.09.09.09a.59.59,0,0,0,.09.09.47.47,0,0,0,.09.09.53.53,0,0,0,.09.09l.09.09a.48.48,0,0,0,.09.09l.09.09.09.09.09.09a.52.52,0,0,0,.09.09.61.61,0,0,0,.09.09l.09.09a.51.51,0,0,0,.09.09.53.53,0,0,0,.09.09l.09.09a.51.51,0,0,0,.09.09l.09.09.09.09a.53.53,0,0,0,.09.09l.09.09a.48.48,0,0,0,.09.09.49.49,0,0,0,.09.09,5.85,5.85,0,0,1,.18.18l.09.09a.51.51,0,0,0,.09.09.53.53,0,0,0,.09.09.5.5,0,0,0,.09.09l.09.09a.49.49,0,0,0,.09.09.52.52,0,0,0,.09.09l.09.09a.54.54,0,0,0,.09.09l.09.09.09.09a.45.45,0,0,0,.09.09.53.53,0,0,0,.09.09l.09.09a.44.44,0,0,0,.09.09.48.48,0,0,0,.09.09l.09.09a.53.53,0,0,0,.09.09l.09.09.09.09.09.09a.59.59,0,0,0,.09.09.45.45,0,0,0,.09.09l.09.09.09.09.09.09a8.16,8.16,0,0,1,.18.18.54.54,0,0,0,.09.09l.09.09.09.09a.49.49,0,0,0,.09.09l.09.09.09.09a.44.44,0,0,0,.09.09.42.42,0,0,0,.08.08A19,19,0,0,0,593.88,26.94Z"/><path class="cls-10" d="M575,17.77l13.29,3.7a.56.56,0,0,1,.39.69l-4.56,16.41a.56.56,0,0,1-.69.39l-13.29-3.7a.56.56,0,0,1-.39-.69l4.56-16.41a.56.56,0,0,1,.69-.39"/><path class="cls-17" d="M586.76,24.18l-3.05-.85a.28.28,0,0,0-.35.19l-3.62,13a.28.28,0,0,0,.19.35l3.05.85a.28.28,0,0,0,.35-.2l3.62-13a.28.28,0,0,0-.2-.35M582.35,23,575,20.89a.28.28,0,0,0-.35.2l-3.62,13a.28.28,0,0,0,.19.35l7.39,2.05a.28.28,0,0,0,.35-.2l3.62-13a.28.28,0,0,0-.2-.35"/><path class="cls-10" d="M562,14.6,575.3,11a.56.56,0,0,1,.69.4l4.4,16.46a.56.56,0,0,1-.4.69l-13.33,3.56a.56.56,0,0,1-.69-.4l-4.4-16.45a.56.56,0,0,1,.4-.69"/><path class="cls-17" d="M577.26,21.37l-11.83,3.16a.28.28,0,0,0-.2.34l1.56,5.85a.28.28,0,0,0,.35.2L579,27.76a.28.28,0,0,0,.2-.34l-1.56-5.85a.28.28,0,0,0-.35-.2m-1.93-7.21L563.5,17.33a.28.28,0,0,0-.2.35l1.56,5.85a.28.28,0,0,0,.35.2L577,20.55a.28.28,0,0,0,.2-.35l-1.56-5.85a.28.28,0,0,0-.34-.2"/><path class="cls-4" d="M625,144a19,19,0,1,0-19-19,19,19,0,0,0,19,19"/><path class="cls-5" d="M643.21,130.28l0,0h0l-.06-.07,0,0-.06-.06h0l-.06-.07h0l-.06-.07,0,0-.06-.06h0l-.06-.07h0l-.06-.06h0l-.06-.07h0l-.06-.07h0l-.06-.07,0,0-.06-.06h0l-.06-.07h0l-.06-.07h0l-.06-.07h0L642,129h0l-.06-.07h0l-.06-.07h0l-.06-.07h0l-.06-.07h0l-.06-.07h0l-.06-.07h0l-.06-.07h0l-.06-.06h0l-.06-.07h0l-.06-.07h0l-.06-.07h0l-.06-.07h0l-.06-.07,0,0-.06-.06h0l-.06-.07,0,0-.06-.06h0l-.06-.07h0l-.06-.07,0,0-.06-.06h0l-.06-.07h0l-.06-.07h0l-.06-.06h0l-.06-.07h0l-.06-.07h0L640,127h0l-.06-.07h0l-.06-.07h0l-.06-.07h0l-.06-.06h0l-.06-.07h0l-.06-.06h0l-.06-.07h0l-.06-.07h0l-.06-.07h0l-.06-.07h0l-.06-.07,0,0-.06-.06h0l-.06-.07h0l-.06-.07h0l-.06-.07h0l-.06-.07h0l-.06-.07h0l-.06-.06h0l-.06-.07h0l-.06-.07h0l-.06-.07h0l-.06-.07,0,0-.06-.06h0l-.06-.07h0L638,125l0,0-.06-.06h0l-.06-.07h0l-.06-.07h0l-.06-.07h0l-.06-.07h0l-.06-.07h0l-.06-.07h0l-.06-.07h0l-.06-.06h0l-.06-.07h0l-.06-.07h0l-.06-.07h0l-.06-.07h0l-.06-.07h0l-.06-.07h0l-.06-.07h0l-.06-.07h0l-.06-.07h0l-.06-.07h0l-.06-.07h0l-.06-.07h0l-.06-.07h0l-.06-.07,0,0-.06-.06h0l-.06-.07h0l-.06-.07h0l-.06-.07h0l-.06-.07h0l-.06-.07h0l-.06-.07h0l-.06-.07h0l-.06-.07h0l-.06-.07h0l-.06-.07,0,0-.06-.06h0l-.06-.07h0l-.06-.07h0l-.06-.07h0l-.06-.07h0l-.06-.07h0l-.06-.07h0l-.06-.07,0,0-.06-.06h0l-.06-.07h0l-.06-.07h0l-.06-.07h0l-.06-.07h0l-.06-.07h0l-.06-.07h0l-.06-.07h0l-.06-.07h0l-.06-.07,0,0-.06-.06h0l-.06-.07h0l-.06-.07h0l-.06-.07h0l-.06-.07h0l-.06-.07h0l-.06-.07h0l-.06-.07h0l-.06-.07h0l-.06-.07h0l-.06-.07h0l-.06-.07h0l-.06-.07h0l-.06-.07,0,0-.06-.06h0l-.06-.07h0l-.06-.07h0l-.06-.07h0l-.06-.07,0,0-.06-.06h0l-.06-.07h0l-.06-.07h0l-.06-.07h0l-.06-.07h0l-.06-.07h0l-.06-.06h0l-.06-.07h0l-.06-.07h0l-.06-.07h0l-.06-.07h0l-.06-.07h0l-.06-.07,0,0-.06-.06h0l-.06-.07h0l-.06-.07,0,0-.06-.06h0l-.06-.07h0l-.06-.07h0l-.06-.07,0,0-.06-.06h0l-.06-.07h0l-.06-.07h0l-.06-.07h0l-.06-.07h0l-.06-.07h0l-.06-.07,0,0-.06-.06h0l-.06-.07h0l-.06-.07h0l-.06-.07h0l-.06-.07h0l-.06-.07h0l-.06-.07h0l-.06-.06h0l-.06-.07h0l-.06-.07h0l-.06-.07a6,6,0,0,0-4-1.35,6.18,6.18,0,0,0-4.14,1.41,5.71,5.71,0,0,0-1.94,3.89h.1l0,.08h.1s0,.05,0,.08h.1s0,.05,0,.08h.09s0,.05,0,.08h.1s0,.05,0,.08h.1s0,.05,0,.08h.1s0,.05,0,.08h.1s0,.05,0,.08h.09s0,.05,0,.08h.1l0,.08h.1s0,.05,0,.08h.1l0,.08h.09s0,.05,0,.08h.1a.77.77,0,0,0,0,.08h.1l0,.08h.1s0,.05,0,.08h.09l0,.08h.1l0,.08h.1l0,.08h.1l0,.08h.09s0,.05,0,.08h.1l0,.08h.1s0,0,0,.08h.1l0,.08h.09s0,.05,0,.08h.09l0,.08h.1s0,.05,0,.08h.1a.74.74,0,0,0,0,.08h.09s0,.05,0,.08h.09s0,.05,0,.08h.09s0,.05,0,.08h.1l0,.08h.1l0,.08h.1l0,.08h.1l0,.08h.1s0,.05,0,.08h.09s0,.05,0,.08h.1l0,.08h.1s0,.05,0,.08h.09l0,.08h.1s0,.05,0,.08h.1l0,.08h.1s0,.05,0,.08h.1s0,.05,0,.08h.1s0,.05,0,.08h.09s0,.05,0,.08h.1l0,.08h.1s0,.05,0,.08h.1l0,.08h.1s0,.05,0,.08h.1s0,.05,0,.08h.1s0,.05,0,.08h.1a.62.62,0,0,0,0,.08h.09s0,.05,0,.08h.1s0,.05,0,.08h.1l0,.08h.1l0,.08h.1l0,.08h.1s0,.05,0,.08h.1v.05a2.82,2.82,0,0,0-.27.43,4,4,0,0,0-.26,1.66v1.7h.08v.08h.08V129h.08v.08h.08v.08h.08v.08h.08v.08h.08v.08H624v.08h.08v.08h.08v.08h.08v.08h.08v.08h.08v.08h.08V130h.08V130h.08v.08h.08v.08h.08v.08h.08v.08h.08v.08H625v.08h.08v.08h.08v.08h.08v.08h.08v.08h.08v.08h.08V131a2.23,2.23,0,0,0-.56-.07,2.07,2.07,0,0,0-1.5.61,2,2,0,0,0-.63,1.46,1.91,1.91,0,0,0,.64,1.45l0,0,0,.06,0,0,.05.06,0,0,.05.06,0,0,.05.06,0,0,0,.06,0,0,.05.06,0,0,.05.06,0,0,0,.05,0,0,.05.06,0,0,0,.06,0,0,.05.06,0,0,0,.06,0,0,.05.06,0,0,0,.05,0,0,.05.06,0,0,.05.06,0,0,.05.06,0,0,.05.06,0,0,.05.06,0,0,.05.06,0,0,.05.06,0,0,0,.06,0,0,.05.06,0,0,.05.06,0,0,.05.06,0,0,0,.05,0,0,.05.06,0,0,0,.06,0,0,.05.06,0,0,.05.06,0,0,.05.06,0,0,.05.06,0,0,.05.06,0,0,0,.06,0,0,0,.06,0,0,.05.06,0,0,.05.06,0,0,.05.06,0,0,.05.06,0,0,.05.06,0,0,0,.05,0,0,.05.06,0,0,0,.06,0,0,.05.06,0,0,0,.06,0,0,.05.06,0,0,0,.05,0,0,.05.06,0,0,.05.06,0,0,.05.06,0,0,0,.05,0,0,.05.06,0,0,.05.06,0,0,.05.06,0,0,0,.05,0,0,.05.06,0,0,.05.06,0,0,.05.06,0,0,0,.05,0,0,.05.06,0,0,.05.06,0,0,.05.06,0,0,0,.05,0,0,.05.06,0,0,0,.06,0,0,.05.06,0,0,.05.06,0,0,.05.06,0,0,.05.06,0,0,0,.06,0,0,.05.06,0,0,0,.05,0,0,.05.06,0,0,0,.05,0,0,.05.06,0,0,0,.05,0,0,.05.06,0,0,0,.05,0,0,.06.06,0,0,0,.05,0,0,.05.06,0,0,.05.06,0,0,.05.06,0,0,0,.06,0,0,.05.06,0,0,0,.05,0,0,.05.06,0,0,.05.06,0,0,.05.06,0,0,0,.06,0,0,.05.06,0,0,0,.05,0,0,.05.06,0,0,.05.06,0,0,.05.06,0,0,0,.05,0,0,.05.06,0,0,0,.06,0,0,.05.06,0,0,.05.06,0,0,0,.05,0,0,0,.06,0,0,.05.06,0,0,0,0A19,19,0,0,0,643.21,130.28Zm-17.55.71h0Z"/><path class="cls-1" d="M626.57,128.83h-3.15v-1.7a4,4,0,0,1,.26-1.66,6.19,6.19,0,0,1,1.16-1.44l2-2a2.45,2.45,0,0,0,.64-1.73,2.35,2.35,0,0,0-.67-1.71,2.31,2.31,0,0,0-1.73-.68,2.52,2.52,0,0,0-1.77.66,2.63,2.63,0,0,0-.82,1.74h-3.37a5.71,5.71,0,0,1,1.94-3.89,6.17,6.17,0,0,1,4.14-1.41,5.94,5.94,0,0,1,4,1.35,4.73,4.73,0,0,1,1.56,3.77,4.23,4.23,0,0,1-.92,2.79,12,12,0,0,1-.81.95l-.74.71-.78.75c-.21.21-.38.4-.52.54a2.66,2.66,0,0,0-.5,1.73v1.25ZM625.06,135a2.15,2.15,0,0,1-1.52-.6,1.91,1.91,0,0,1-.64-1.45,2,2,0,0,1,.63-1.46,2.07,2.07,0,0,1,1.5-.61,2.16,2.16,0,0,1,1.52.6,1.91,1.91,0,0,1,.64,1.45,2,2,0,0,1-.63,1.46A2.07,2.07,0,0,1,625.06,135Z"/><path class="cls-4" d="M394,75a19,19,0,1,0-19,19,19,19,0,0,0,19-19"/><path class="cls-5" d="M392.82,81.46h0V81.4h-.06v-.07h-.06v-.06h-.07V81.2h-.06v-.07h-.06v-.07h-.06V81h-.06v-.06h-.06v-.07h-.07v-.07h-.06v-.06h-.06v-.07H392v-.07h-.07v-.06h-.06v-.06h-.06v-.07h-.06v-.06h-.07V80.3h-.06v-.07h-.06v-.07h-.06V80.1h-.06V80h-.06V80h-.06v-.06h-.07v-.06h-.06v-.06h-.06v-.07H391v-.07H391v-.06h-.07v-.06h-.06v-.07h-.06v-.06h-.06v-.06h-.07v-.07h-.06v-.06h-.06v-.07h-.06v-.06h-.06V79h-.07v-.06h-.06v-.06h-.06V78.8h-.06v-.07h-.07v-.07H390v-.06h-.06v-.07h-.06v-.07h-.06v-.06h-.07v-.07h-.06v-.06h-.06v-.07h-.06v-.06h-.06v-.07h-.07V78h-.06v-.07h-.07v-.06h-.06v-.07h-.07v-.06h-.06v-.06H389v-.06H389v-.07h-.06v-.07h-.07v-.06h-.06v-.06h-.06v-.06h-.06v-.06h-.06v-.06h-.06V77.1h-.07V77h-.06V77h-.06V76.9h-.1v-.06h-.06v-.06h-.06v-.06H388v-.07H388v-.07h-.07v-.06h-.06v-.07h-.06v-.06h-.06v-.06h-.06v-.06h-.06v-.07h-.07v-.07h-.06v-.07h-.06V76h-.07v-.06h-.06v-.07h-.06V75.8h-.06v-.07H387v-.07H387V75.6h-.06v-.07h-.06v-.06h-.06v-.06h-.07v-.06h-.06v-.07h-.06v-.06h-.06v-.07h-.06v-.06h-.07V75h-.06V75h-.07v-.06h-.06V74.8h-.06v-.06h-.07v-.07H386v-.07h-.06v-.06h-.06v-.06h-.07v-.07h-.06v-.06h-.07v-.06h-.06v-.07h-.06v-.07h-.07v-.06h-.06V74h-.07V74h-.06v-.07h-.06v-.06h-.06v-.07h-.07V73.7H385v-.07H385v-.06h-.06v-.07h-.06v-.07h-.07v-.06h-.06v-.06h-.06v-.06h-.06v-.07h-.06v-.07h-.07v-.06h-.06V73h-.07v-.06h-.07v-.07h-.06v-.07h-.06v-.06h-.07v-.06H384V72.6h-.06v-.07h-.07v-.06h-.06V72.4h-.06v-.06h-.06v-.07h-.06v-.06h-.06v-.07h-.07v-.07h-.06V72h-.06v-.07h-.07v-.06h-.07v-.07h-.06v-.06h-.06v-.06H383v-.06H383v-.07h-.07V71.5h-.06v-.06h-.07v-.07h-.06V71.3h-.06v-.07h-.06v-.06h-.07v-.07h-.07V71h-.06V71h-.06v-.06h-.06v-.07h-.07v-.06h-.06v-.07h-.06v-.06H382v-.07h-.06v-.06h-.06v-.06h-.06v-.06h-.07v-.06h-.06v-.07h-.06V70.2h-.06v-.06h-.06v-.07h-.07V70h-.06v-.06h-.07v-.07h-.06v-.06h-.06v-.06h-.06v-.07H381v-.07H381v-.06h-.06v-.06h-.07v-.07h-.06v-.06h-.07v-.06h-.06v-.06h-.06v-.07h-.07v-.06h-.06V69h-.12V69h-.06V68.9h-.06v-.06h-.06v-.07h-.06v-.06H380v-.07h-.06v-.07h-.06v-.06h-.06v-.07h-.07v-.06h-.06v-.06h-.07v-.06h-.06v-.07h-.06v-.07h-.07v-.06h-.06V68h-.06v-.06h-.06v-.07h-.07V67.8h-.06v-.07H379v-.06H379V67.6h-.06v-.07h-.06v-.06h-.06v-.07h-.07v-.07h-.06v-.06h-.06v-.06h-.06v-.07h-.07v-.07h-.07V67h-.06V67h-.07v-.06h-.06v-.07h-.06v-.06H378V66.7H378v-.07h-.06v-.06h-.07V66.5h-.06v-.06h-.06v-.06h-.06v-.06h-.06v-.07h-.06v-.07h-.07v-.07h-.06V66h-.06V66h-.06v-.07h-.07v-.06h-.06v-.07h-.06v-.06H377v-.07h-.06v-.07h-.06v-.06h-.07v-.06h-.06V65.4h-.07v-.06h-.06v-.07h-.06V65.2h-.06v-.06h-.06v-.07h-.07V65h-.06v-.06h-2.53V80.34l-7-7-.06-.07-1.79,1.78.07.06.2.2.19.2.91.91.91.91L369,79.11l1.24,1.24.33.33.59.59.59.59,2,2,.07.06.59.59.33.33.46.46.39.39h0l.06.06.33.33.06.06.46.46.39.39.52.52.26.26.07.06.85.85.59.59,1.24,1.24.32.33.59.59.39.39.2.2.58.58A19.35,19.35,0,0,0,392.82,81.46Z"/><path class="cls-1" d="M385.12,75l-1.79-1.78-7.07,7.06V64.88h-2.53V80.27l-7.07-7.06L364.88,75,375,85.12Z"/><path class="cls-4" d="M406,75a19,19,0,1,0,19-19,19,19,0,0,0-19,19"/><path class="cls-5" d="M442.49,82.37l-.09-.09-.2-.2,0,0-.2-.2,0,0-.13-.13-.33-.33-.26-.26L440,79.84l-.56-.56,0,0-.06-.06-.29-.29-.43-.43-.53-.53,0,0,0,0-1.61-1.61-.56-.56-.33-.33-.59-.59-.2-.2-.4-.4-.33-.33-.2-.2-.06-.07-1.06-1.05-.59-.59-.2-.2-2.57-2.57-.4-.4-1-1-1.65-1.65-.2-.2-.07-.07-.13-.13-.2-.2-.07-.07-.07-.07-.06-.06-.07-.07-.07-.07-.07-.06-.07-.07-.13-.13-.07-.07L414.89,75l.13.13.13.13.53.53.13.13.5.5.1.1.06.07.17.17.16.16h0l.19.19.66.66.46.46.53.53.14.14.65.66h0l.46.46.53.53.79.79.06.06.2.2h0l.06.06.07.07.17.17.17.17.1.1,0,0,.13.13.4.4.2.2.53.53.42.42v1.26h.06v.07h.07v.07h.07v.07H424v.07h.07v.07h.07v.07h.07v.07h.07v.06h.06v.07h.06v.07h.07v.06h.07v.07h.07V86h.07V86h.06v.07h.07v.07h.06v.07h.07v.06H425v.07H425v.06h.06v.06h.07v.07h.07v.07h.07v.06h.07v.07h.06v.06h.06v.07h.07V87h.07V87h.06v.07h.07v.07h.06v.07h.07v.07H426v.07H426v.07h.07v.06h.07v.07h.07v.07h.07v.06h.07v.07h.07v.06h.07v.06h.07v.07h.07V88h.07v.07h.07v.06h.06v.06h.07v.07h.06v.06H427v.07h.07v.07h.06v.07h.06v.07h.07v.07h.06v.07h.07v.07h.06v.07h.07v.07h.07V89h.06v.07h.07v.07h.07v.06h.07v.07h.07v.06H428v.07h.07v.07h.07v.07h.07v.07h.07v.07h.06v.06h.07v.07h.06v.07h.07v.07h.07V90h.06V90h.07v.07h.06v.06h.07v.07h.07v.07H429v.07H429v.06h.07v.07h.06v.07h.07v.07h.07v.07h.07v.07h.06v.06h.07v.07h.07V91h.07V91h.07v.07h.06v.06h.07v.07h.06v.07H430v.07H430v.07h.07v.07h.07v.06h.06v.07h.06v.07h.07v.07h.07v.07h.07v.07h.07v.06h.07V92h.07v.07h.07v.07h.07v.07h.07v.06h.06v.06H431v.07h.07v.07h.07v.06h.07v.07h.07v.06h.07v.07h.06v.06A18.77,18.77,0,0,0,442.49,82.37Z"/><path class="cls-1" d="M414.88,75l1.78,1.78,7.07-7.06v15.4h2.53V69.72l7.07,7.06L435.12,75,425,64.88Z"/><path class="cls-4" d="M525,94a19,19,0,1,0-19-19,19,19,0,0,0,19,19"/><path class="cls-5" d="M543.69,78.18l-.06,0v0l-.07-.05v0l-.08-.05v0l-.08-.05v0l-.07-.05v0l-.07-.05v0l-.07-.06v0l-.08-.05v0l-.08-.05v0l-.07-.05v0l-.08-.05v0l-.07-.05v0l-.08-.05v0l-.08-.05v0l-.08-.06v0L542.5,77v0l-.07-.05v0l-.07-.05v0l-.08-.06v0l-.08-.06v0l-.07-.05v0l-.07-.05v0l-.08-.05v0l-.08-.05v0l-.07-.05v0l-.07-.05v0l-.08-.05v0l-.08-.05v0l-.07-.05v0l-.07-.05v0l-.07-.05v0l-.08-.06v0l-.08-.06v0l-.07-.06v0l-.07-.05v0L541,75.5v0l-.07-.06v0l-.07-.05v0l-.08-.06v0l-.07-.05v0l-.07-.05v0l-.08-.05v0l-.07-.06v0l-.08-.05v0l-.07-.06v0l-.07-.05v0l-.07-.06v0l-.08-.06v0l-.07-.05v0l-.07-.05v0l-.07-.05v0l-.08-.06v0l-.07-.06v0l-.07-.05v0l-.07-.06v0l-.08-.05v0l-.07-.05v0l-.08-.06v0l-.07-.05v0l-.08-.05v0l-.07-.05v0l-.07-.05v0l-.08-.05v0l-.08-.05v0l-.07-.05v0l-.07-.05v0l-.07-.05v0l-.08-.06v0l-.07-.06v0l-.07-.05v0l-.08-.05v0l-.08-.05v0l-.07-.06v0l-.07-.05v0l-.07-.05v0l-.08-.06v0L538,72.4v0l-.07-.05v0l-.07-.05v0l-.08-.06v0l-.07-.06v0l-.08-.05v0L537.5,72v0l-.08-.05v0l-.07-.05v0l-.07-.05v0l-.08-.05v0l-.08-.06v0l-.07-.06v0l-.07-.05v0l-.07-.05v0l-.08-.05v0l-.08-.05v0l-.07-.05v0l-.07-.05v0l-.08-.05v0l-.07-.05v0l-.08-.05v0l-.07-.05v0l-.08-.05v0l-.07-.06v0l-.07-.05v0l-.08-.05v0l-.08-.06v0l-.07-.06v0l-.07-.06v0L525,62.38h0l-10.6,7.7v8.31l.07-.05v.13l.08-.06v.13l.08-.05v.13l.08-.05v.13l.07-.05v.13l.08-.05v.13l.07-.05v.13l.07-.05V79l.08-.05v.13l.07-.05v.13l.08-.05v.13l.08-.05v.13l.07-.05v.13l.07-.05v.13l.08-.05v.13l.07-.05v.13l.07-.05v.13l.08-.05v.13l.08-.05v.13l.07-.05v.13l0,0v3.6a1.5,1.5,0,0,0,.49,1.1l.08.07.07.07.08.08.07.07.08.08.07.07.07.07.07.08.08.08.07.07.08.08.07.07.07.07.08.08.08.08.08.07.07.07.08.08.07.07.07.08.08.07.07.07.07.08.07.08.08.07.07.07.08.08.07.07.07.08.08.08.07.07.08.08.07.07.08.08.07.07.07.08.07.07.08.08.07.07.08.08.07.07.08.07.07.08.07.07.08.07.08.08.07.07.07.07.08.08.07.07.08.08.07.08.07.07.08.07.07.07.08.07.07.08.08.08.07.07.08.07.07.08.08.08.07.07.07.07.08.08.07.08.08.07.07.07.08.08.07.07.07.08.07.08.08.07.07.07.08.08.07.08.07.07.07.07.08.08.08.07.07.07.08.07.07.07.08.08.08.07.08.08.07.07.07.08.07.07.08.07.08.08.07.07.08.08.07.07.08.08.08.08.07.07.07.07.08.08.07.07.07.08.07.07.08.08.07.07.07.08.08.07.07.07.07.08.08.07.07.08.08.07.07.07.07.08.08.07.08.08.07.07.07.08.08.07.07.08.08.08.07.07.07.07.08.08.07.07,0,0A18.78,18.78,0,0,0,543.69,78.18Z"/><path class="cls-10" d="M534.14,83.53A1.51,1.51,0,0,1,532.63,85H517.42a1.51,1.51,0,0,1-1.51-1.51v-13A1.51,1.51,0,0,1,517.42,69h15.21a1.51,1.51,0,0,1,1.51,1.51Z"/><polygon class="cls-18" points="514.38 78.45 525 70.74 535.76 78.56 535.76 70.26 525.01 62.44 525 62.43 525 62.44 524.99 62.43 524.99 62.44 514.38 70.15 514.38 78.45"/><rect class="cls-19" x="523.5" y="79.38" width="3.05" height="5.65"/><path class="cls-4" d="M575,94a19,19,0,1,0-19-19,19,19,0,0,0,19,19"/><path class="cls-5" d="M593.92,76.14l0,0-.07-.07-.07-.07-.07-.07-.07-.07-.07-.07-.07-.07-.07-.07-.07-.07-.07-.07-.07-.07-.07-.07-.07-.07-.07-.07-.07-.07-.07-.07-.07-.07-.07-.07-.07-.07-.07-.07-.07-.07-.07-.07-.07-.07-.07-.07-.07-.07-.07-.07-.07-.07-.07-.07-.07-.07-.07-.07-.07-.07-.07-.07-.07-.07-.07-.07-.07-.07-.07-.07-.07-.07-.07-.07-.07-.07-.07-.07-.07-.07-.07-.07-.07-.07-.07-.07-.07-.07-.07-.07-.07-.07-.07-.07-.07-.07-.07-.07-.07-.07-.07-.07-.07-.07-.07-.07-.07-.07-.07-.07-.07-.07-.07-.07-.07-.07-.07-.07-.07-.07-.07-.07-.07-.07-.07-.07-.07-.07-.07-.07-.07-.07-.07-.07-.07-.07-.07-.07-.07-.07-.07-.07-.07-.07-.07-.07-.07-.08-.07-.07-.08-.07-.07-.07-.07-.07-.07-.07-.07-.07-.07-.07-.07-.07-.07-.07-.07-.07L587.8,70l-.07-.07-.07-.07-.07-.07-.07-.07-.07-.07-.07-.07-.07-.07-.07-.07-.07-.07-.07-.07-.07-.07-.07-.07-.07-.07L586.8,69l-.07-.07-.07-.07-.07-.07-.07-.07-.07-.07-.07-.07-.07-.07-.07-.07-.07-.07-.07-.07-.07-.07-.07-.07-.07-.07L585.8,68l-.07-.07-.07-.07-.07-.07-.07-.07-.07-.07-.07-.07-.07-.07-.07-.07-.07-.07-.07-.07-.07-.07-.07-.07-.07-.07-.07-.07-.07-.07-.07-.07-.07-.07-.07-.07-.07-.07-.07-.07-.07-.07-.07-.07-.07-.07-.07-.08-.07-.07-.07-.07-.07-.07-.07-.07-.07-.07-.07-.07-.07-.07-.07-.07-.07-.07-.07-.07-.07-.07-.07-.07-.07-.07-.07-.07a3.67,3.67,0,0,0-6.31,2.56,3.6,3.6,0,0,0,.06.64l-6.18,3.71a3.64,3.64,0,0,0-2.25-.79,3.67,3.67,0,0,0-2.56,6.31l.07.07.07.07.07.07.07.07.07.07.08.08.07.07.07.07.07.07.07.07.07.07.07.07.07.07.07.07.07.07.07.07.07.07.07.07.07.07.07.07.07.07.07.07.07.07.07.07.07.07.07.07.07.07.07.07.07.07.07.07.07.07.07.07.07.07.07.07.07.07.07.07.07.07.07.07.07.07.07.07.07.07.07.07.07.07.07.07.07.07.07.07.07.07.07.07.07.07.07.07.07.07.07.07.07.07.07.07.07.07.07.07.07.07.07.07.07.07.07.07.07.07.07.07.07.07.07.07.07.07.08.07.07.07.07.07.07.07.07.07.07.07.07.07.07.07.07.07.07.07.07.07.07.07.07.07.07.07.07.07.07.07.07.07.07.07.07.07.07.07.07.07.08.07.07.07.07.07.07.07.07.07.07.07.07.07.07.07.07.07.07.07.07.07.07.07.07.07.07.07.07.07.07.07.07.07.07.07.07.07.07.07.07.07.07.07.07.07.07.07.07.07.07.07.07.07.08.08.07.07.07.07.07.07.07.07.07.07.08.08.07.07.07.07.07.07.07.07.07.07.07.07.07.07.07.07.07.07.07.07.07.07.07.07.07.07.07.07.07.07.07.07.07.07.07.07.07.07.07.07.07.07.07.07.07.07.07.07.07.07.07.07.08.07.07.07.07.07.07.07.07.07.07.07.07.07.07.07.07.07.07.07.07.07.07.07.07.07.07.07.07.07.07.07.07.07.07.07.07.07.07.07.07.07.07.07.07.07.07.07.07.07.07.07.07.07.07.07.07.07.08.07.07.07.07.07.07.07.07.07.07.07.07.07.07.07.07.08.07.07.07.07.07.07.07.07.07.07.07.07.07.07.07.07.07.07.07.07.07.07.07.07.07.07.07.07.07.07.07.07.07.07.07.07.08.07.07.07.07.07.07.07.07.07.07.07.08.07.07.07.07.07.07.07,0,0A18.91,18.91,0,0,0,593.92,76.14Z"/><polyline class="cls-20" points="580.4 67.81 568.35 75.05 580.4 82.28"/><circle class="cls-21" cx="580.4" cy="67.81" r="3.68"/><circle class="cls-21" cx="568.35" cy="75.05" r="3.68"/><circle class="cls-21" cx="580.4" cy="82.29" r="3.68"/><path class="cls-4" d="M625,94a19,19,0,1,0-19-19,19,19,0,0,0,19,19"/><path class="cls-5" d="M643.91,76.22h-.06v-.08h-.08v-.08h-.08V76h-.08v-.08h-.08v-.08h-.08v-.08h-.08v-.08h-.08V75.6h-.08v-.08h-.08v-.08h-.08v-.08H643v-.08h-.08v-.08h-.08v-.08h-.08v-.08h-.08V75h-.08V74.9h-.08v-.08h-.08v-.08h-.08v-.08h-.08v-.08h-.08v-.08h-.08v-.08h-.08v-.08H642v-.08h-.08V74.2h-.08v-.08h-.08V74h-.08V74h-.08v-.08h-.08v-.08h-.08v-.08h-.08v-.08h-.08v-.08h-.08v-.08h-.08v-.08H641v-.08H641v-.08h-.08v-.08h-.08V73.1h-.08V73h-.08v-.08h-.08v-.08h-.08v-.08h-.08v-.08h-.08v-.08h-.08v-.08h-.08v-.08h-.08V72.4H640v-.08H640v-.08h-.08v-.08h-.08v-.08h-.08V72h-.08v-.08h-.08v-.08h-.08v-.08h-.08V71.7h-.08v-.08h-.08v-.08h-.08v-.08h-.08v-.08H639v-.08h-.08v-.08h-.08v-.08h-.08v-.08h-.08V71h-.08v-.08h-.08v-.08h-.08v-.08h-.08v-.08h-.08v-.08h-.08v-.08h-.08v-.08h-.08v-.08H638V70.3h-.08v-.08h-.08v-.08h-.08v-.08h-.08V70h-.08v-.08h-.08v-.08h-.08v-.08h-.08v-.08h-.08v-.08h-.08v-.08h-.08v-.08h-.08v-.08H637v-.08h-.08V69.2h-.08v-.08h-.08V69h-.08V69h-.08v-.08h-.08v-.08h-.08v-.08h-.08v-.08h-.08v-.08h-.08V68.5h-.08v-.08h-.08v-.08H636v-.08h-.08v-.08h-.08v-.08h-.08V68h-.08V68h-.08v-.08h-.08V67.8h-.08v-.08h-.08v-.08h-.08v-.08h-.08v-.08h-.08v-.08H614.88v2.53H615V70H615v.08h.08v.08h.08v.08h.08v.08h.08v.08h.08v.08h.08v.08h.08v.08h.08v.08h.08v.08h.08v.08h.08V71H616V71H616v.08h.08v.08h.08v.08h.08v.08h.08v.08h.08v.08h.08v.08h.08v.08h.08v.08h.08v.08h.08v.08h.08V72H617V72h.08v.08h.08v.08h.08v.08h.08v.08h.08v.08h.08v.08h.08v.08h.08v.08h.08v.08h.08v.08h.08v.08h.08V73H618v.08h.08v.08h.08v.08h.08v.08h.08v.08h.08v.08h.08v.08h.08v.08h.08v.08h.08v.05h-3.82v2.53H615v.08H615v.08h.08v.08h.08v.08h.08v.08h.08v.08h.08v.08h.08v.08h.08V77h.08V77h.08v.08h.08v.08h.08v.08H616v.08H616v.08h.08v.08h.08v.08h.08v.08h.08v.08h.08v.08h.08v.08h.08V78h.08v.08h.08v.08h.08v.08h.08v.08H617v.08h.08v.08h.08v.08h.08v.08h.08v.08h.08v.08h.08v.08h.08v.08h.08V79h.08v.08h.08v.08h.08v.08h.08v.08H618v.08h.08v.08h.08v.08h.08v.08h.08v.08h.08v.08h.08v.08h.08v.08h.08V80h.08v.05h-3.82v2.53h.08v.08H615v.08h.08v.08h.08v.08h.08V83h.08v.08h.08v.08h.08v.08h.08v.08h.08v.08h.08v.08h.08v.08h.08v.08H616v.08H616v.08h.08v.08h.08v.08h.08V84h.08v.08h.08v.08h.08v.08h.08v.08h.08v.08h.08v.08h.08v.08h.08v.08H617v.08H617v.08h.08v.08h.08v.08h.08V85h.08v.08h.08v.08h.08v.08h.08v.08h.08v.08h.08v.08h.08v.08h.08v.08H618v.08h.08v.08h.08v.08h.08v.08h.08V86h.08v.08h.08v.08h.08v.08h.08v.08h.08v.08h.08v.08h.08v.08h.08v.08H619v.08h.08v.08h.08v.08h.08V87h.08V87h.08v.08h.08v.08h.08v.08h.08v.08h.08v.08h.08v.08h.08v.08h.08v.08H620v.08h.08v.08h.08v.08h.08V88h.08V88h.08v.08h.08v.08h.08v.08h.08v.08h.08v.08h.08v.08h.08v.08h.08v.08H621v.08h.08v.08h.08v.08h.08V89h.08v.08h.08v.08h.08v.08h.08v.08h.08v.08h.08v.08h.08v.08h.08v.08H622v.08H622v.08h.08v.08h.08v.08h.08V90h.1v.08h.08v.08h.08v.08h.08v.08h.08v.08h.08v.08h.08v.08h.08v.08H623v.08h.08v.08h.08v.08h.08v.08h.08V91h.08v.08h.08v.08h.08v.08h.08v.08h.08v.08h.08v.08h.08v.08h.08v.08H624v.08h.08v.08h.08v.08h.08v.08h.08V92h.08v.08h.08v.08h.08v.08h.08v.08h.08v.08h.08v.08h.08v.08h.08v.08H625v.08h.08v.08h.08v.08h.08v.08h.08V93h.08v.08h.08v.08h.08v.08h.08v.08h.08v.08h.08v.08h.08v.08h.08v.08H626v.08h.08v.08h.08v.08h.08A18.92,18.92,0,0,0,643.91,76.22Z"/><path class="cls-22" d="M632.24,73.1h3.27v-8a.91.91,0,0,0-.91-.91H615.4a.91.91,0,0,0-.91.91v8h3.27A7.54,7.54,0,0,1,625,78.53,7.55,7.55,0,0,1,632.24,73.1Z"/><path class="cls-22" d="M630.25,76.6A6.65,6.65,0,0,0,625,79.16a6.65,6.65,0,0,0-5.25-2.57h-5.26v8.32a.91.91,0,0,0,.91.91h19.2a.91.91,0,0,0,.91-.91V76.6Z"/><path class="cls-4" d="M494,75a19,19,0,1,0-19,19,19,19,0,0,0,19-19"/><path class="cls-5" d="M493.31,80.58h0l0,0,0-.05,0,0,0,0,0,0,0-.05,0,0,0,0,0,0,0,0,0,0,0-.05,0,0,0-.05,0,0,0-.05,0,0,0,0,0,0,0-.05,0,0,0,0,0,0,0,0,0,0,0,0,0,0,0-.05,0,0,0-.05,0,0,0,0,0,0,0-.05,0,0,0,0,0,0,0-.05,0,0,0,0,0,0,0-.05,0,0,0,0,0,0,0,0,0,0,0-.06,0,0,0-.05,0,0,0-.05,0,0,0,0,0,0,0-.05-.05,0,0,0,0,0-.05-.06,0,0,0,0,0,0,0-.05,0,0,0,0,0,0,0,0,0,0-.05-.06-.05,0,0,0,0,0,0-.05,0,0,0,0,0,0,0-.05,0,0,0-.05,0,0,0-.05,0,0,0-.05,0,0,0,0,0,0,0-.05,0,0,0-.05,0,0,0,0,0,0,0,0,0,0,0-.05-.05,0,0,0,0,0-.05-.06,0,0,0,0-.05,0,0,0,0,0,0-.05,0,0,0,0,0,0-.05-.06-.05,0,0,0,0,0,0-.05,0,0,0,0,0,0,0-.05,0,0-.05-.06,0,0,0-.05,0,0,0,0,0,0,0,0,0,0,0-.05-.05,0,0,0,0,0,0-.06,0,0,0,0,0,0,0-.05,0,0,0,0,0,0,0,0,0,0,0-.06-.05,0,0,0,0,0,0-.05,0,0,0,0,0,0,0,0,0,0,0-.05,0,0-.05-.05,0,0,0,0,0,0,0,0,0,0,0-.05,0,0,0-.05,0,0,0,0,0,0,0,0,0,0,0-.05-.05,0,0,0,0,0-.05-.06,0,0,0-.05-.05,0,0,0,0,0,0-.05,0,0,0,0,0,0-.05-.06-.05,0,0,0,0,0,0-.05,0,0,0,0,0,0,0,0,0,0-.05-.05,0,0,0,0,0,0,0,0,0,0,0,0,0,0,0-.05,0,0,0-.05,0,0,0,0,0,0,0,0,0,0,0-.05,0,0,0-.05,0,0,0-.05,0,0,0,0,0,0,0,0,0,0,0-.05,0,0,0,0,0,0,0-.05,0,0,0,0,0,0,0-.05,0,0,0-.05,0,0,0,0,0,0,0-.05,0,0,0,0,0,0,0-.05,0,0,0-.05,0,0,0,0,0,0,0,0,0,0,0-.05,0,0,0-.05,0,0,0,0,0,0,0,0,0,0,0,0,0,0,0-.05,0,0,0,0,0,0,0,0,0,0,0,0,0,0,0-.05,0,0,0,0,0,0,0,0,0,0,0,0,0,0,0,0,0,0-.05-.05,0,0,0,0,0,0,0,0,0,0,0-.05,0,0,0-.05,0,0,0,0,0,0,0,0,0,0,0-.05,0,0,0-.05,0,0,0,0,0,0,0,0,0,0,0,0,0,0,0-.05,0,0,0,0,0,0,0,0,0,0,0-.05,0,0,0-.05,0,0,0-.05,0,0,0,0,0,0,0,0,0,0-.05-.06,0,0,0,0,0,0,0,0,0,0,0,0,0,0,0,0,0,0-.05-.05,0,0,0,0,0,0,0-.05,0,0,0,0,0,0,0-.05,0,0,0-.05,0,0,0-.05,0,0,0,0,0,0,0,0a8.91,8.91,0,0,0-12.61,12.6l0,0,0,0,.05,0,0,0,0,0,0,.05.05,0,0,0,.05,0,0,0,0,0,0,0,.05,0,0,0,0,0,0,0,0,0,0,.05.05,0,0,0,.05,0,0,0,0,0,0,.05.05.05,0,0,0,0,0,.05.05,0,0,0,0,0,0,0,0,0,0,0,.05,0,0,0,.05,0,0,0,0,0,0,0,.05,0,0,0,.05,0,0,0,0,0,0,.05.05,0,0,0,0,0,0,0,0,0,0,0,.05,0,0,0,.05,0,0,0,.05,0,0,0,0,0,0,0,.05,0,0,0,0,0,0,0,0,0,0,0,0,0,0,0,.05,0,0,0,0,0,0,0,0,0,0,0,.05,0,0,0,.05,0,0,0,.05,0,0,0,.05,0,0,0,0,0,0,0,0,0,0,0,.05,0,0,0,0,0,0,0,0,0,0,0,0,0,0,0,.05,0,0,0,0,0,0,0,0,0,0,0,0,0,0,0,.05,0,0,0,0,0,0,0,.05,0,0,0,0,0,0,0,0,0,0,0,.05,0,0,0,.05,0,0,0,.05,0,0,0,0,0,0,0,0,0,0,0,.05,0,0,0,0,0,0,0,0,0,0,0,0,0,0,0,0,0,0,0,.05,0,0,0,0,0,0,0,.05,0,0,0,.05,0,0,0,0,0,0,0,0,0,0,0,.05,0,0,0,0,0,0,0,0,0,0,0,.05.05,0,0,0,0,0,.05.05,0,0,0,0,0,0,0,0,0,0,.05.05,0,0,0,0,0,0,0,0,0,0,0,0,0,0,0,0,0,0,0,.05,0,0,0,.05,0,0,0,0,0,0,0,0,0,0,0,0,0,0,0,0,0,0,0,.05.05,0,0,0,0,0,0,.05,0,0,0,0,0,0,.05.05.05,0,0,0,0,0,0,.05,0,0,0,0,0,0,.05.05,0,0,0,0,0,0,0,.05,0,0,0,.05,0,0,0,0,0,0,.05.05,0,0,0,0,0,0,0,.05,0,0,0,0,0,0,0,0,0,0,0,.05,0,0,0,0,0,0,0,.05,0,0,0,0,0,0,0,0,0,0,0,0,0,0,0,.05,0,0,0,0,0,0,0,.05.05,0,0,0,0,0,0,0,0,0,0,.05,0,0,0,0,0,0,0,.05,0,0,0,.05,0,0,0,0,0,0,0,.05,0,0,0,0,0,0,.05.05.05,0,0,0,0,0,0,.05,0,0,0,0,0,0,0,.05,0,0,0,0,0,0,.05.06,0,0,0,0,0,0,0,0,0,0,0,.05,0,0,0,0,0,0,0,0,0,0,0,0,0,0,0,0,0,0,0,0,0,0,0,.05,0,0,0,.05,0,0,0,0,0,0,0,0,0,0,0,0,0,0,0,.05,0,0,0,0,0,0,.05.05,0,0,0,0,0,0,.05.05,0,0,0,0,0,0,.05.05,0,0,0,.05,0,0,0,.05,0,0,0,.05,0,0,0,0,0,0,0,.05,0,0,0,0,0,0,0,.05,0,0,0,0,0,0,0,0,0,0,0,0,0,0,0,.05,0,0,0,.05,0,0,0,0,0,0,.05.06,0,0,0,0,0,0,.05.05,0,0,0,.05,0,0,0,.05,0,0,0,0,0h0A18.94,18.94,0,0,0,493.31,80.58Z"/><path class="cls-21" d="M487,83.9l-5.94-6.13c-.42-.44-1-.61-1.19-.39s-.76,0-1.19-.39l-.09-.09a8.88,8.88,0,1,0-1.53,1.58l0,0c.42.44.58,1,.35,1.2s-.07.76.35,1.2l5.93,6.13a1.11,1.11,0,0,0,1.57,0L487,85.47a1.11,1.11,0,0,0,0-1.56Zm-11.14-8a6.14,6.14,0,1,1,0-8.69,6.15,6.15,0,0,1,0,8.69Z"/><path class="cls-21" d="M477.15,78.52c.42.44.58,1,.35,1.2s-.07.76.35,1.2l5.93,6.13a1.11,1.11,0,0,0,1.57,0L487,85.47a1.11,1.11,0,0,0,0-1.57h0l-5.94-6.13c-.42-.44-1-.61-1.19-.39s-.76,0-1.19-.39"/><path class="cls-17" d="M478,77.71l-.83.81c.42.44.58,1,.35,1.2s-.07.76.35,1.2l5.93,6.13a1.11,1.11,0,0,0,1.57,0l.93-.9Z"/></g></svg>