<svg xmlns="http://www.w3.org/2000/svg" viewBox="0 0 650 50"><defs><style>.cls-1{fill:none;stroke:#2891e1;stroke-miterlimit:10;}.cls-2,.cls-3{fill:#2891e1;}.cls-3{fill-rule:evenodd;}</style></defs><title>im-icon-social</title><g id="layer-set-1"><circle class="cls-1" cx="25" cy="25" r="20"/><path class="cls-2" d="M22.43,37.64h4.74V25h4.3l.44-4.35H27.17V18.48a2.44,2.44,0,0,1,.29-1.38c.2-.26.68-.4,1.44-.4h3V12.36H27.56q-3,0-4,1.41a7,7,0,0,0-1.08,4.32v2.56H19.27V25h3.16Z"/><circle class="cls-1" cx="75" cy="25" r="20"/><path class="cls-2" d="M88.12,15.52a10.59,10.59,0,0,1-3.3,1.23,5.21,5.21,0,0,0-9,3.56A4.77,4.77,0,0,0,76,21.49a14.53,14.53,0,0,1-10.67-5.43,4.87,4.87,0,0,0-.74,2.62A4.85,4.85,0,0,0,66.89,23a4.49,4.49,0,0,1-2.32-.64v.1a5.06,5.06,0,0,0,1.16,3.26,5.18,5.18,0,0,0,3,1.82,6.48,6.48,0,0,1-1.38.15,4.75,4.75,0,0,1-1-.1,5.46,5.46,0,0,0,1.85,2.6,4.8,4.8,0,0,0,3,1,10.08,10.08,0,0,1-6.42,2.22c-.39,0-.8,0-1.23,0a14.51,14.51,0,0,0,7.94,2.32,14.8,14.8,0,0,0,6.33-1.33,13.3,13.3,0,0,0,4.66-3.48,16.4,16.4,0,0,0,2.79-4.75,14.44,14.44,0,0,0,1-5.2v-.65a10.68,10.68,0,0,0,2.57-2.71,10.81,10.81,0,0,1-3,.84A5.09,5.09,0,0,0,88.12,15.52Z"/><circle class="cls-1" cx="125" cy="25" r="20"/><circle class="cls-1" cx="175" cy="25" r="20"/><path class="cls-2" d="M166.84,15.32a2.17,2.17,0,0,0,3.71,1.54,2.2,2.2,0,0,0,0-3.08,2.17,2.17,0,0,0-3.71,1.54ZM180,19a4,4,0,0,0-.61,0,3.39,3.39,0,0,0-.57.14l-.45.15-.46.23-.33.2s-.16.13-.34.28l-.28.22V19h-4.3V34.89H177V24.65a2,2,0,0,1,.12-.5,1.85,1.85,0,0,1,.31-.61,2.27,2.27,0,0,1,.69-.48,2.66,2.66,0,0,1,1.1-.22,2.11,2.11,0,0,1,1.61.55,2,2,0,0,1,.52,1.44V34.89h4.58V25a6.89,6.89,0,0,0-.5-2.73,5.18,5.18,0,0,0-1.16-1.77,5.4,5.4,0,0,0-1.53-1,6.55,6.55,0,0,0-1.5-.47A8.28,8.28,0,0,0,180,19ZM166.88,34.89h4.3V19h-4.3Z"/><circle class="cls-1" cx="225" cy="25" r="20"/><path class="cls-2" d="M235.9,21.84q-.27.12-1.77.9l-3.22,1.68-3.18,1.65c-1,.51-1.5.79-1.61.86a1.78,1.78,0,0,1-.57.2,3.25,3.25,0,0,1-.57,0,3.32,3.32,0,0,1-.57,0,1.73,1.73,0,0,1-.56-.2l-1.62-.86-3.16-1.65-3.2-1.68c-1-.52-1.57-.82-1.75-.9s-.39-.15-.43-.05a.7.7,0,0,0-.06.32v9.21a1.22,1.22,0,0,0,.43.83,1.2,1.2,0,0,0,.83.43h20.24a1.2,1.2,0,0,0,.83-.43,1.22,1.22,0,0,0,.43-.83V22.11a.87.87,0,0,0-.06-.32C236.29,21.69,236.14,21.71,235.9,21.84Zm-21.54-2.79,1.7.91,3.16,1.7,3.1,1.66c.93.51,1.44.78,1.53.82a1.8,1.8,0,0,0,.51.18,3.23,3.23,0,0,0,1.24,0,1.87,1.87,0,0,0,.52-.18l1.53-.82,3.1-1.66,3.16-1.7,1.69-.91a1.53,1.53,0,0,0,.7-.94q.24-.69-.63-.69H214.29q-.87,0-.63.69A1.57,1.57,0,0,0,214.36,19.05Z"/><circle class="cls-1" cx="275" cy="25" r="20"/><circle class="cls-1" cx="325" cy="25" r="20"/><path class="cls-3" d="M128.48,26.84c-.72,4.7-4.26,7.39-8.83,7.39a9.23,9.23,0,1,1,0-18.46,8.84,8.84,0,0,1,6.25,2.41l-2.67,2.65a4.92,4.92,0,0,0-3.58-1.39A5.57,5.57,0,0,0,114.16,25a5.51,5.51,0,0,0,5.49,5.49c2.54,0,4.46-1.22,5-3.65h-5V23.13h8.81a11.32,11.32,0,0,1,.16,1.87A12.15,12.15,0,0,1,128.48,26.84Z"/><polygon class="cls-3" points="139.67 25.69 136.4 25.69 136.4 28.92 134.09 28.92 134.09 25.69 130.82 25.69 130.82 23.39 134.09 23.39 134.09 20.15 136.4 20.15 136.4 23.39 139.67 23.39 139.67 25.69"/><path class="cls-3" d="M283.33,16.63a11.71,11.71,0,0,0-18.42,14.12l-1.66,6.06,6.2-1.63A11.72,11.72,0,0,0,275,36.6h0a11.7,11.7,0,0,0,8.28-20m-8.28,18h0a9.65,9.65,0,0,1-4.95-1.36l-.36-.21-3.68,1,1-3.59-.23-.37a9.73,9.73,0,0,1,15.12-12,9.74,9.74,0,0,1-6.88,16.61m5.33-7.29c-.29-.14-1.73-.85-2-.95s-.47-.14-.66.15-.76.95-.93,1.15-.34.22-.63.07a8.15,8.15,0,0,1-2.35-1.45,8.76,8.76,0,0,1-1.63-2,.42.42,0,0,1,.13-.59c.13-.14.29-.35.44-.52a2.36,2.36,0,0,0,.29-.48.53.53,0,0,0,0-.51c-.08-.15-.66-1.59-.91-2.18s-.47-.49-.65-.5h-.56a1,1,0,0,0-.78.37,3.26,3.26,0,0,0-1,2.44,5.64,5.64,0,0,0,1.2,3,12.89,12.89,0,0,0,5,4.41,15.91,15.91,0,0,0,1.67.62,4.12,4.12,0,0,0,1.84.12,3,3,0,0,0,2-1.39,2.32,2.32,0,0,0,.17-1.39c-.07-.13-.26-.2-.56-.35"/><path id="path19359" class="cls-2" d="M315.36,16.62a.61.61,0,0,0-.55.25.63.63,0,0,0,0,.61l2.71,4.68v0l-4.25,7.49a.62.62,0,0,0,0,.62.59.59,0,0,0,.52.27h4a1.22,1.22,0,0,0,1.09-.77l4.31-7.63s-2.74-4.79-2.74-4.79a1.23,1.23,0,0,0-1.12-.75Z"/><path id="path19375" class="cls-2" d="M332.15,11.15a1.16,1.16,0,0,0-1.07.76l-8.9,15.77s5.68,10.41,5.68,10.41a1.25,1.25,0,0,0,1.12.76h4a.6.6,0,0,0,.53-.25.62.62,0,0,0,0-.62l-5.63-10.29a0,0,0,0,1,0,0L336.71,12a.62.62,0,0,0,0-.62.6.6,0,0,0-.53-.25Z"/></g></svg>