<svg xmlns="http://www.w3.org/2000/svg" xmlns:xlink="http://www.w3.org/1999/xlink" viewBox="0 0 650 150"><defs><style>.cls-1{fill:none;}.cls-2{clip-path:url(#clip-path);}.cls-3{opacity:0.27;}.cls-4{fill:#fff;}.cls-5{opacity:0.2;}.cls-5,.cls-6{isolation:isolate;}.cls-6{opacity:0.5;}</style><clipPath id="clip-path"><rect class="cls-1" x="5" y="-200" width="650" height="150"/></clipPath></defs><title>-</title><g id="layer-set-1"><path class="cls-4" d="M67.49,67.5v3h15v-3Zm0,9h15v-3h-15Zm0,6h15v-3h-15Z"/><path class="cls-4" d="M125.38,17.08a1,1,0,0,0-1.09.22L120.49,21H118a1,1,0,0,0-1,1v6a1,1,0,0,0,1,1h2.52l3.78,3.71A1,1,0,0,0,126,32V18A1,1,0,0,0,125.38,17.08Zm2.81,4.61L126.88,23a2.68,2.68,0,0,1,0,4l1.34,1.33A4.82,4.82,0,0,0,129.51,25,4.76,4.76,0,0,0,128.2,21.68Zm2.54-2.54-1.41,1.41a6.73,6.73,0,0,1,0,8.9l1.41,1.41a8.69,8.69,0,0,0,0-11.72Z"/><path class="cls-4" d="M174.89,17.08a1,1,0,0,0-1.09.22L170,21h-2.5a1,1,0,0,0-1,1v6a1,1,0,0,0,1,1H170l3.78,3.71a1,1,0,0,0,1.71-.71V18A1,1,0,0,0,174.89,17.08Z"/><g id="Cog"><path class="cls-4" d="M25,71.68A3.32,3.32,0,1,0,28.32,75,3.32,3.32,0,0,0,25,71.68Zm10.88,1-2.28-.14a8.78,8.78,0,0,0-.82-2l1.53-1.67a1.12,1.12,0,0,0,0-1.59l-1.66-1.66a1.12,1.12,0,0,0-1.59,0l-1.68,1.53a8.57,8.57,0,0,0-2-.82l-.14-2.28A1.12,1.12,0,0,0,26.17,63H23.83a1.12,1.12,0,0,0-1.12,1.12l-.14,2.28a8.63,8.63,0,0,0-1.95.82l-1.68-1.53a1.12,1.12,0,0,0-1.59,0l-1.66,1.66a1.12,1.12,0,0,0,0,1.59l1.53,1.67a8.74,8.74,0,0,0-.82,2l-2.28.14A1.12,1.12,0,0,0,13,73.83v2.35a1.12,1.12,0,0,0,1.12,1.12l2.28.14a8.78,8.78,0,0,0,.82,2l-1.53,1.67a1.13,1.13,0,0,0,0,1.59l1.66,1.66a1.12,1.12,0,0,0,1.59,0l1.68-1.53a8.63,8.63,0,0,0,1.95.82l.14,2.28A1.12,1.12,0,0,0,23.83,87h2.35a1.12,1.12,0,0,0,1.12-1.12l.14-2.28a8.66,8.66,0,0,0,2-.82l1.68,1.53a1.12,1.12,0,0,0,1.59,0l1.66-1.66a1.13,1.13,0,0,0,0-1.59l-1.53-1.67a8.74,8.74,0,0,0,.82-2l2.28-.14A1.12,1.12,0,0,0,37,76.17V73.82A1.12,1.12,0,0,0,35.88,72.7ZM25,80.36A5.36,5.36,0,1,1,30.36,75,5.36,5.36,0,0,1,25,80.36Z"/></g><path class="cls-1" d="M75.76,25l-5.58,5.55a1.43,1.43,0,0,0,0,2l.51.5a1.44,1.44,0,0,0,2,0l6.56-6.54,0,0,.51-.51a1.44,1.44,0,0,0,0-2l-.51-.5,0,0-6.56-6.53a1.44,1.44,0,0,0-2,0l-.51.5a1.43,1.43,0,0,0,0,2Z"/><path class="cls-4" d="M24.24,25l5.58-5.55a1.42,1.42,0,0,0,0-2l-.51-.5a1.44,1.44,0,0,0-2,0l-6.57,6.54,0,0-.51.51a1.44,1.44,0,0,0,0,2l.51.5,0,0,6.57,6.53a1.44,1.44,0,0,0,2,0l.51-.5a1.42,1.42,0,0,0,0-2Z"/><path class="cls-4" d="M75.76,25l-5.58,5.55a1.42,1.42,0,0,0,0,2l.51.5a1.44,1.44,0,0,0,2,0l6.56-6.54,0,0,.51-.51a1.44,1.44,0,0,0,0-2l-.51-.5,0,0-6.56-6.53a1.44,1.44,0,0,0-2,0l-.51.5a1.42,1.42,0,0,0,0,2Z"/><path class="cls-4" d="M125.58,125l-4.27,4.25a1.09,1.09,0,0,0,0,1.54l.39.39a1.1,1.1,0,0,0,1.55,0l5-5,0,0,.39-.39a1.1,1.1,0,0,0,0-1.55l-.39-.38,0,0-5-5a1.1,1.1,0,0,0-1.55,0l-.39.38a1.09,1.09,0,0,0,0,1.55Z"/><path class="cls-4" d="M24.42,125l4.27-4.24a1.09,1.09,0,0,0,0-1.55l-.39-.39a1.1,1.1,0,0,0-1.55,0l-5,5,0,0-.39.39a1.1,1.1,0,0,0,0,1.55l.39.39,0,0,5,5a1.1,1.1,0,0,0,1.55,0l.39-.38a1.09,1.09,0,0,0,0-1.55Z"/><path class="cls-4" d="M125,75.76l-5.55-5.58a1.42,1.42,0,0,0-2,0l-.51.51a1.44,1.44,0,0,0,0,2l6.54,6.56,0,0,.51.51a1.44,1.44,0,0,0,2,0l.5-.51,0,0,6.53-6.56a1.44,1.44,0,0,0,0-2l-.5-.51a1.42,1.42,0,0,0-2,0Z"/><path class="cls-4" d="M425,71.71l9.67,9.69a1.09,1.09,0,0,0,1.55,0l.39-.39a1.1,1.1,0,0,0,0-1.55L426.18,69l0,0-.39-.39a1.11,1.11,0,0,0-1.56,0l-.38.39,0,0L413.4,79.46a1.1,1.1,0,0,0,0,1.55l.39.39a1.09,1.09,0,0,0,1.55,0Z"/><path class="cls-4" d="M375,78.29l-9.67-9.69a1.09,1.09,0,0,0-1.55,0l-.39.39a1.1,1.1,0,0,0,0,1.55L373.82,81l0,0,.39.39a1.11,1.11,0,0,0,1.56,0l.38-.39,0,0L386.6,70.54a1.1,1.1,0,0,0,0-1.55l-.39-.39a1.09,1.09,0,0,0-1.55,0Z"/><path class="cls-4" d="M175,74.24l5.55,5.58a1.42,1.42,0,0,0,2,0l.5-.51a1.44,1.44,0,0,0,0-2l-6.54-6.56,0,0-.51-.51a1.44,1.44,0,0,0-2,0l-.5.51,0,0-6.53,6.56a1.44,1.44,0,0,0,0,2l.5.51a1.42,1.42,0,0,0,2,0Z"/><path class="cls-4" d="M275,78.74l5.55,5.58a1.42,1.42,0,0,0,2,0l.5-.51a1.44,1.44,0,0,0,0-2l-6.54-6.57,0,0-.51-.51a1.44,1.44,0,0,0-2,0l-.5.51,0,0-6.53,6.57a1.44,1.44,0,0,0,0,2l.5.51a1.43,1.43,0,0,0,2,0Z"/><path class="cls-4" d="M275,69.74l5.55,5.58a1.42,1.42,0,0,0,2,0l.5-.51a1.44,1.44,0,0,0,0-2l-6.54-6.56,0,0-.51-.51a1.44,1.44,0,0,0-2,0l-.5.51,0,0-6.53,6.56a1.44,1.44,0,0,0,0,2l.5.51a1.43,1.43,0,0,0,2,0Z"/><g id="_Group_" data-name="&lt;Group&gt;"><path class="cls-4" d="M225,71.26l-5.55-5.58a1.42,1.42,0,0,0-2,0l-.5.51a1.44,1.44,0,0,0,0,2l6.54,6.56,0,0,.51.51a1.44,1.44,0,0,0,2,0l.5-.51,0,0,6.53-6.56a1.44,1.44,0,0,0,0-2l-.5-.51a1.42,1.42,0,0,0-2,0Z"/><path class="cls-4" d="M225,80.26l-5.55-5.58a1.42,1.42,0,0,0-2,0l-.5.51a1.44,1.44,0,0,0,0,2l6.54,6.56,0,0,.51.51a1.44,1.44,0,0,0,2,0l.5-.51,0,0,6.53-6.56a1.44,1.44,0,0,0,0-2l-.5-.51a1.42,1.42,0,0,0-2,0Z"/></g><g id="more"><circle class="cls-4" cx="216.13" cy="25" r="2.6"/><circle class="cls-4" cx="225.27" cy="25" r="2.6"/><circle class="cls-4" cx="233.87" cy="25" r="2.6"/></g><path class="cls-4" d="M327.48,25l2.69-2.69a1.45,1.45,0,0,0,0-2.05l-.42-.42a1.45,1.45,0,0,0-2.05,0L325,22.52l-2.69-2.69a1.45,1.45,0,0,0-2.05,0l-.42.42a1.45,1.45,0,0,0,0,2.05L322.52,25l-2.69,2.69a1.45,1.45,0,0,0,0,2.05l.42.42a1.45,1.45,0,0,0,2.05,0L325,27.48l2.69,2.69a1.45,1.45,0,0,0,2.05,0l.42-.42a1.45,1.45,0,0,0,0-2.05Z"/><path class="cls-4" d="M225.43,125l-3.19,5.62a2.29,2.29,0,0,0,0,2l.29.51c.32.57.84.57,1.16,0l3.76-6.61,0,0,.29-.51a2.33,2.33,0,0,0,0-2.06l-.29-.51,0,0-3.76-6.61c-.32-.56-.84-.56-1.16,0l-.29.51a2.29,2.29,0,0,0,0,2Z"/><path class="cls-5" d="M375.43,125l-3.19,5.62a2.28,2.28,0,0,0,0,2l.29.51c.32.57.84.57,1.16,0l3.76-6.61,0,0,.29-.51a2.12,2.12,0,0,0,.24-1,2.15,2.15,0,0,0-.24-1l-.29-.51,0,0-3.76-6.61c-.32-.56-.84-.56-1.16,0l-.29.51a2.29,2.29,0,0,0,0,2Z"/><path d="M275.43,125l-3.19,5.62a2.28,2.28,0,0,0,0,2l.29.51c.32.57.84.57,1.16,0l3.76-6.61,0,0,.29-.51a2.11,2.11,0,0,0,.24-1,2.14,2.14,0,0,0-.24-1l-.29-.51,0,0-3.76-6.61c-.32-.56-.84-.56-1.16,0l-.29.51a2.29,2.29,0,0,0,0,2Z"/><path class="cls-6" d="M325.43,125l-3.19,5.62a2.28,2.28,0,0,0,0,2l.29.51c.32.57.84.57,1.16,0l3.76-6.61,0,0,.29-.51a2.11,2.11,0,0,0,.24-1,2.14,2.14,0,0,0-.24-1l-.29-.51,0,0-3.76-6.61c-.32-.56-.84-.56-1.16,0l-.29.51a2.29,2.29,0,0,0,0,2Z"/><path class="cls-4" d="M331.5,75a1.71,1.71,0,0,1-1.7,1.7h-9.6a1.71,1.71,0,0,1-1.7-1.7V75a1.71,1.71,0,0,1,1.7-1.7h9.6a1.71,1.71,0,0,1,1.7,1.7Z"/><path class="cls-4" d="M279.94,27H277v2.93a2,2,0,0,1-4,0V27h-2.93a2,2,0,0,1,0-4H273V20.06a2,2,0,0,1,4,0V23h2.93a2,2,0,0,1,0,4Z"/><polygon class="cls-4" points="424.68 129.5 416 121.97 416.44 120.51 424.69 127.68 433.59 120.5 434 121.98 424.68 129.5"/><polygon points="474.68 129.5 466 121.97 466.44 120.51 474.69 127.68 483.59 120.5 484 121.98 474.68 129.5"/><polygon class="cls-4" points="575.32 120.5 584 128.03 583.56 129.49 575.31 122.32 566.41 129.5 566 128.02 575.32 120.5"/><polygon points="525.32 120.5 534 128.03 533.57 129.49 525.31 122.32 516.41 129.5 516 128.02 525.32 120.5"/><path class="cls-4" d="M537.75,76.14a1.66,1.66,0,0,1-1.22.5,1.64,1.64,0,0,1-1.2-.49l-.39-.39V86.61a1.62,1.62,0,0,1-.48,1.16,1.58,1.58,0,0,1-1.18.49h-5V80.81a.84.84,0,0,0-.83-.83h-5a.84.84,0,0,0-.83.83v7.45h-5a1.58,1.58,0,0,1-1.18-.49,1.62,1.62,0,0,1-.48-1.16V75.76l-.39.39a1.63,1.63,0,0,1-1.2.49,1.72,1.72,0,0,1-1.23-2.92l11.49-11.49a1.88,1.88,0,0,1,2.54,0l11.49,11.49a1.72,1.72,0,0,1,0,2.42Z"/><path class="cls-4" d="M580.07,78a3,3,0,0,0-1.85.63l-5.29-3.17a2.91,2.91,0,0,0,0-1l5.29-3.17a3,3,0,0,0,1.85.63,3,3,0,1,0-3-3,3.23,3.23,0,0,0,0,.5l-5.29,3.17a3,3,0,1,0,0,4.82l5.29,3.17a3.24,3.24,0,0,0,0,.5,3,3,0,1,0,3-3Z"/><path class="cls-4" d="M75,124.42l4.24,4.27a1.09,1.09,0,0,0,1.55,0l.39-.39a1.1,1.1,0,0,0,0-1.55l-5-5,0,0-.39-.39a1.1,1.1,0,0,0-1.55,0l-.39.39,0,0-5,5a1.1,1.1,0,0,0,0,1.55l.38.39a1.09,1.09,0,0,0,1.55,0Z"/><path class="cls-4" d="M175,125.58l-4.24-4.27a1.09,1.09,0,0,0-1.54,0l-.39.39a1.1,1.1,0,0,0,0,1.55l5,5,0,0,.39.39a1.1,1.1,0,0,0,1.55,0l.39-.39,0,0,5-5a1.1,1.1,0,0,0,0-1.55l-.38-.39a1.09,1.09,0,0,0-1.55,0Z"/><path class="cls-4" d="M425,20.45l13.38,13.41a1.51,1.51,0,0,0,2.14,0l.53-.54a1.52,1.52,0,0,0,0-2.15L426.63,16.71l0,0-.54-.54a1.53,1.53,0,0,0-2.15,0l-.53.54,0,0L408.94,31.17a1.53,1.53,0,0,0,0,2.15l.54.54a1.51,1.51,0,0,0,2.14,0Z"/><path class="cls-4" d="M375,29.55,361.62,16.14a1.51,1.51,0,0,0-2.14,0l-.53.54a1.52,1.52,0,0,0,0,2.15l14.42,14.46,0,0,.53.54a1.53,1.53,0,0,0,2.16,0l.53-.54,0,0,14.42-14.46a1.53,1.53,0,0,0,0-2.15l-.54-.54a1.51,1.51,0,0,0-2.14,0Z"/><path class="cls-4" d="M529.55,25,516.14,38.38a1.51,1.51,0,0,0,0,2.14l.54.53a1.52,1.52,0,0,0,2.15,0l14.46-14.42,0,0,.54-.53a1.53,1.53,0,0,0,0-2.16l-.54-.53,0,0L518.83,8.94a1.53,1.53,0,0,0-2.15,0l-.54.54a1.51,1.51,0,0,0,0,2.14Z"/><path class="cls-4" d="M470.45,25l13.41-13.38a1.51,1.51,0,0,0,0-2.14l-.54-.53a1.52,1.52,0,0,0-2.15,0L466.71,23.37l0,0-.54.53a1.53,1.53,0,0,0,0,2.16l.54.53,0,0,14.46,14.42a1.53,1.53,0,0,0,2.15,0l.54-.54a1.51,1.51,0,0,0,0-2.14Z"/><path class="cls-4" d="M579.52,18.33A1.31,1.31,0,0,0,578.21,17h-9A1.26,1.26,0,0,0,568,18.28v10.9a1.31,1.31,0,0,0,1.31,1.31h8.92a1.31,1.31,0,0,0,1.31-1.31V18.33Zm-1.3,9.85a1,1,0,0,1-1,1h-7a1,1,0,0,1-1-1v-8.9a1,1,0,0,1,1-1h7a1,1,0,0,1,1,1v8.9Z"/><path class="cls-4" d="M580,19.52v1.3a.72.72,0,0,1,.72.72V31a.72.72,0,0,1-.72.72h-7.57a.68.68,0,0,1-.68-.69h-1.27v.64A1.31,1.31,0,0,0,571.82,33h8.89A1.31,1.31,0,0,0,582,31.67V20.83a1.31,1.31,0,0,0-1.31-1.31Z"/><path class="cls-4" d="M570.93,21.23h5.76a.63.63,0,1,0,0-1.27h-5.76a.63.63,0,1,0,0,1.27Z"/><path class="cls-4" d="M570.93,23.36h5.76a.63.63,0,1,0,0-1.27h-5.76a.63.63,0,1,0,0,1.27Z"/><path class="cls-4" d="M570.93,25.48h5.76a.63.63,0,1,0,0-1.27h-5.76a.63.63,0,1,0,0,1.27Z"/><path class="cls-4" d="M570.93,27.53h5.76a.63.63,0,1,0,0-1.27h-5.76a.63.63,0,1,0,0,1.27Z"/><path class="cls-4" d="M624.56,15.81c.24-.49.64-.49.88,0l2.37,4.79a2.14,2.14,0,0,0,1.43,1l5.29.77c.54.08.67.46.27.84L631,27a2.14,2.14,0,0,0-.55,1.68l.9,5.27c.09.54-.23.78-.72.52L625.89,32a2.14,2.14,0,0,0-1.77,0l-4.73,2.49c-.49.26-.81,0-.72-.52l.9-5.27A2.14,2.14,0,0,0,619,27l-3.83-3.73c-.39-.38-.27-.76.27-.84l5.29-.77a2.14,2.14,0,0,0,1.43-1Z"/><path class="cls-4" d="M630.86,73.46h2.64V67a.74.74,0,0,0-.73-.73H617.24a.74.74,0,0,0-.74.73v6.48h2.65A6.1,6.1,0,0,1,625,77.86,6.1,6.1,0,0,1,630.86,73.46Z"/><path class="cls-4" d="M629.25,76.29A5.38,5.38,0,0,0,625,78.37a5.38,5.38,0,0,0-4.24-2.08H616.5V83a.74.74,0,0,0,.73.73h15.53a.74.74,0,0,0,.74-.73V76.29Z"/><path class="cls-4" d="M477.85,68.46a6.63,6.63,0,1,0-.91,10.13,1.42,1.42,0,0,0,.38.7l3.76,3.77a1.4,1.4,0,0,0,2-2l-3.76-3.77a1.4,1.4,0,0,0-.7-.38,6.64,6.64,0,0,0-.75-8.48Zm-1.19,8.19a5,5,0,1,1,0-7,5,5,0,0,1,0,7Z"/><path class="cls-4" d="M629.09,117.23a7.15,7.15,0,0,0-4.29-1.23,6,6,0,0,0-3.32.87,5.32,5.32,0,0,0-2.28,4.61h3.31a3.38,3.38,0,0,1,.55-1.83,2,2,0,0,1,1.88-.88,2.13,2.13,0,0,1,1.85.71,2.67,2.67,0,0,1,.51,1.58,2.42,2.42,0,0,1-.56,1.38,2.93,2.93,0,0,1-.66.67,15,15,0,0,0-2.58,2.07,4,4,0,0,0-.54,2.49c0,.08,0,.25.31.25h2.57a.28.28,0,0,0,.31-.27,3,3,0,0,1,.14-.87,2.71,2.71,0,0,1,1-1.2l.91-.63a9.82,9.82,0,0,0,1.77-1.58,4.18,4.18,0,0,0,.84-2.5A4.22,4.22,0,0,0,629.09,117.23Zm-4.35,12.69a2,2,0,1,0-.12,4.08,2,2,0,0,0,2.14-2A2,2,0,0,0,624.74,129.92Z"/></g></svg>