<svg id="Layer-set-18" xmlns="http://www.w3.org/2000/svg" viewBox="0 0 650 50"><defs><style>.cls-1{fill:#fb5e35;}.cls-2,.cls-3{fill:#fff;}.cls-3{fill-rule:evenodd;}</style></defs><title>icon-social-18</title><circle class="cls-1" cx="25" cy="25" r="20"/><path class="cls-2" d="M22.43,37.64h4.74V25h4.3l.44-4.34H27.17V18.48a2.41,2.41,0,0,1,.29-1.38c.2-.26.68-.39,1.43-.39h3V12.36H27.56q-3,0-4,1.41a7,7,0,0,0-1.09,4.32v2.57H19.27V25h3.16Z"/><circle class="cls-1" cx="75" cy="25" r="20"/><path class="cls-2" d="M88.13,15.52a10.52,10.52,0,0,1-3.3,1.23,5.21,5.21,0,0,0-9,3.56A4.93,4.93,0,0,0,76,21.49a14.5,14.5,0,0,1-10.67-5.43,4.86,4.86,0,0,0-.74,2.62A4.86,4.86,0,0,0,66.89,23a4.5,4.5,0,0,1-2.32-.64v.1a5,5,0,0,0,1.16,3.26,5.12,5.12,0,0,0,3,1.83,6.45,6.45,0,0,1-1.38.15,5.13,5.13,0,0,1-1-.1,5.45,5.45,0,0,0,1.85,2.59,4.74,4.74,0,0,0,3,1,10.06,10.06,0,0,1-6.42,2.22c-.39,0-.8,0-1.23,0a14.54,14.54,0,0,0,7.95,2.32,14.78,14.78,0,0,0,6.32-1.33,13.26,13.26,0,0,0,4.66-3.48,16.34,16.34,0,0,0,2.79-4.74,14.47,14.47,0,0,0,1-5.21v-.64a10.59,10.59,0,0,0,2.57-2.72,10.48,10.48,0,0,1-3,.84A5.11,5.11,0,0,0,88.13,15.52Z"/><circle class="cls-1" cx="125" cy="25" r="20"/><circle class="cls-1" cx="175" cy="25" r="20"/><path class="cls-2" d="M166.84,15.32a2.17,2.17,0,1,0,.63-1.54A2.09,2.09,0,0,0,166.84,15.32ZM180,18.95a4.19,4.19,0,0,0-.61,0,3.07,3.07,0,0,0-.57.14l-.45.16a3.27,3.27,0,0,0-.46.23l-.34.2-.34.27-.27.23V18.95h-4.3V34.89H177V24.65a2.13,2.13,0,0,1,.11-.5,1.86,1.86,0,0,1,.31-.61,2,2,0,0,1,.68-.48,2.61,2.61,0,0,1,1.11-.22,2.13,2.13,0,0,1,1.61.54,2,2,0,0,1,.52,1.45V34.89h4.58V25a6.85,6.85,0,0,0-.5-2.74,5.15,5.15,0,0,0-1.16-1.77,5.46,5.46,0,0,0-1.54-1,6,6,0,0,0-1.5-.47A8.16,8.16,0,0,0,180,18.95ZM166.88,34.89h4.3V18.95h-4.3Z"/><circle class="cls-1" cx="225" cy="25" r="20"/><path class="cls-2" d="M235.9,21.84c-.18.08-.77.38-1.77.9l-3.22,1.68-3.17,1.65-1.62.86a1.73,1.73,0,0,1-.57.21,3.45,3.45,0,0,1-.57,0,3.36,3.36,0,0,1-.57,0,1.73,1.73,0,0,1-.57-.21l-1.62-.86-3.16-1.65-3.2-1.68q-1.48-.78-1.75-.9c-.25-.13-.39-.15-.43-.05a.83.83,0,0,0-.06.32v9.21a1.56,1.56,0,0,0,1.26,1.26h20.24a1.56,1.56,0,0,0,1.26-1.26V22.11a.89.89,0,0,0-.06-.32C236.29,21.69,236.14,21.71,235.9,21.84Zm-21.53-2.79,1.69.91,3.16,1.69,3.1,1.66c.94.51,1.45.78,1.53.81a1.81,1.81,0,0,0,.52.19,3.2,3.2,0,0,0,1.23,0,1.89,1.89,0,0,0,.52-.19c.08,0,.59-.3,1.53-.81l3.1-1.66L233.91,20l1.69-.91a1.56,1.56,0,0,0,.7-.94q.23-.69-.63-.69H214.29q-.86,0-.63.69A1.57,1.57,0,0,0,214.37,19.05Z"/><circle class="cls-1" cx="275" cy="25" r="20"/><circle class="cls-1" cx="325" cy="25" r="20"/><path class="cls-3" d="M128.48,26.84c-.72,4.7-4.26,7.39-8.83,7.39a9.23,9.23,0,1,1,0-18.46,8.88,8.88,0,0,1,6.26,2.41l-2.67,2.65a4.94,4.94,0,0,0-3.58-1.39A5.57,5.57,0,0,0,114.16,25a5.5,5.5,0,0,0,5.48,5.49c2.54,0,4.46-1.22,5-3.65h-5V23.13h8.81a10.73,10.73,0,0,1,.16,1.87A12.07,12.07,0,0,1,128.48,26.84Z"/><polygon class="cls-3" points="139.67 25.69 136.4 25.69 136.4 28.92 134.09 28.92 134.09 25.69 130.82 25.69 130.82 23.39 134.09 23.39 134.09 20.15 136.4 20.15 136.4 23.39 139.67 23.39 139.67 25.69"/><path class="cls-3" d="M283.33,16.63a11.7,11.7,0,0,0-18.42,14.12l-1.66,6.06,6.2-1.63A11.69,11.69,0,0,0,275,36.6h0a11.71,11.71,0,0,0,8.28-20m-8.28,18h0a9.68,9.68,0,0,1-4.95-1.36l-.36-.21-3.68,1,1-3.59-.23-.37a9.73,9.73,0,1,1,8.24,4.56m5.33-7.28c-.29-.15-1.73-.85-2-1s-.46-.15-.66.15-.75,1-.93,1.15-.34.22-.63.07a8.12,8.12,0,0,1-2.35-1.45,8.76,8.76,0,0,1-1.63-2c-.17-.29,0-.45.13-.6s.29-.34.44-.51a2.05,2.05,0,0,0,.29-.49.53.53,0,0,0,0-.51c-.07-.15-.66-1.59-.9-2.17s-.48-.49-.66-.5h-.56a1.08,1.08,0,0,0-.78.37,3.28,3.28,0,0,0-1,2.44,5.69,5.69,0,0,0,1.19,3,13,13,0,0,0,5,4.41,17.14,17.14,0,0,0,1.67.62,4.05,4.05,0,0,0,1.84.12,3,3,0,0,0,2-1.39,2.45,2.45,0,0,0,.17-1.39c-.07-.12-.27-.2-.56-.34"/><path id="path19359" class="cls-2" d="M315.36,16.62a.61.61,0,0,0-.54.25.62.62,0,0,0,0,.61l2.7,4.68a0,0,0,0,1,0,0l-4.25,7.49a.62.62,0,0,0,0,.61.59.59,0,0,0,.52.27h4a1.22,1.22,0,0,0,1.09-.77l4.31-7.63-2.75-4.79a1.23,1.23,0,0,0-1.11-.75Z"/><path id="path19375" class="cls-2" d="M332.15,11.15a1.17,1.17,0,0,0-1.07.76l-8.89,15.77,5.68,10.42a1.25,1.25,0,0,0,1.12.76h4a.59.59,0,0,0,.53-.26.62.62,0,0,0,0-.62l-5.63-10.29a0,0,0,0,1,0,0L336.71,12a.63.63,0,0,0,0-.62.59.59,0,0,0-.53-.26Z"/></svg>