<?xml version="1.0" encoding="utf-8"?>
<!-- Generator: Adobe Illustrator 15.1.0, SVG Export Plug-In . SVG Version: 6.00 Build 0)  -->
<!DOCTYPE svg PUBLIC "-//W3C//DTD SVG 1.1//EN" "http://www.w3.org/Graphics/SVG/1.1/DTD/svg11.dtd">
<svg version="1.1" id="Laag_1" xmlns="http://www.w3.org/2000/svg" xmlns:xlink="http://www.w3.org/1999/xlink" x="0px" y="0px"
	 width="25px" height="21px" viewBox="0 0 25 21" enable-background="new 0 0 25 21" xml:space="preserve">
<g>
	<path fill="#00ABC8" d="M24.572,3.268c-0.889,0.395-1.843,0.66-2.845,0.78c1.022-0.612,1.808-1.583,2.178-2.74
		c-0.957,0.567-2.018,0.98-3.146,1.202c-0.903-0.963-2.191-1.564-3.615-1.564c-2.735,0-4.954,2.218-4.954,4.954
		c0,0.389,0.044,0.766,0.129,1.128C8.202,6.82,4.552,4.849,2.108,1.853c-0.426,0.731-0.67,1.581-0.67,2.49
		c0,1.719,0.875,3.234,2.204,4.124C2.83,8.439,2.066,8.217,1.398,7.846C1.397,7.867,1.397,7.887,1.397,7.908
		c0,2.4,1.708,4.401,3.974,4.857c-0.416,0.113-0.854,0.173-1.305,0.173c-0.319,0-0.63-0.031-0.932-0.089
		c0.63,1.968,2.459,3.4,4.627,3.44c-1.695,1.328-3.831,2.121-6.152,2.121c-0.399,0-0.794-0.025-1.181-0.07
		c2.191,1.405,4.795,2.226,7.593,2.226c9.111,0,14.094-7.547,14.094-14.093c0-0.215-0.006-0.429-0.015-0.642
		C23.068,5.134,23.908,4.262,24.572,3.268L24.572,3.268z"/>
</g>
</svg>
