<svg xmlns="http://www.w3.org/2000/svg" xmlns:xlink="http://www.w3.org/1999/xlink" viewBox="0 0 650 150"><defs><style>.cls-1,.cls-12{fill:none;}.cls-2{clip-path:url(#clip-path);}.cls-3{opacity:0.27;}.cls-4,.cls-5,.cls-8{fill:#404040;}.cls-4{opacity:0.2;}.cls-4,.cls-8{isolation:isolate;}.cls-6{fill:#fff;}.cls-7{clip-path:url(#clip-path-2);}.cls-8{opacity:0.5;}.cls-9{clip-path:url(#clip-path-3);}.cls-10{clip-path:url(#clip-path-4);}.cls-11{clip-path:url(#clip-path-5);}.cls-12{stroke:#000;stroke-miterlimit:10;}</style><clipPath id="clip-path"><rect class="cls-1" x="705" y="-200" width="650" height="150"/></clipPath><clipPath id="clip-path-2"><rect id="SVGID" class="cls-1" x="20.37" y="16.62" width="9.26" height="16.75"/></clipPath><clipPath id="clip-path-3"><rect id="SVGID-2" data-name="SVGID" class="cls-1" x="70.37" y="16.62" width="9.26" height="16.75"/></clipPath><clipPath id="clip-path-4"><rect id="SVGID-3" data-name="SVGID" class="cls-1" x="363.24" y="68.5" width="23.52" height="13"/></clipPath><clipPath id="clip-path-5"><rect id="SVGID-4" data-name="SVGID" class="cls-1" x="413.24" y="68.5" width="23.52" height="13"/></clipPath></defs><title>-</title><g id="layer-set-6"><polygon class="cls-4" points="370.37 117.35 370.32 117.31 370.99 116.61 379.63 124.95 379.68 125 371.03 133.34 370.99 133.38 370.32 132.69 378.3 125 370.37 117.35"/><path class="cls-5" d="M131.13,31.4l-.59-.68a7.72,7.72,0,0,0,0-11.45l.59-.68a8.62,8.62,0,0,1,0,12.82Z"/><path class="cls-5" d="M129.55,29.83l-.57-.69A5.68,5.68,0,0,0,131.07,25,5.67,5.67,0,0,0,129,20.84l.57-.69A6.61,6.61,0,0,1,132,25,6.61,6.61,0,0,1,129.55,29.83Z"/><path class="cls-5" d="M128.21,28l-.57-.69a2.92,2.92,0,0,0,0-4.7l.57-.69a3.82,3.82,0,0,1,0,6.09Z"/><path class="cls-5" d="M125.9,33.09l-5.56-5H116V22.74h4.3l5.59-5.84Zm-9-5.86h3.77L125,31.09V19.15l-4.3,4.5h-3.79Z"/><rect class="cls-1" x="163.88" y="14.88" width="20.24" height="20.23"/><polygon class="cls-5" points="175.91 33.27 172.6 30.26 173.09 29.63 175.14 31.49 175.14 26.22 175.91 26.22 175.91 33.27"/><polygon class="cls-5" points="169.79 27.87 166.34 27.87 166.34 22.5 170.02 22.5 175.91 16.73 175.91 21.26 175.14 21.26 175.14 18.6 170.32 23.33 167.11 23.33 167.11 27.05 169.79 27.05 169.79 27.87"/><polygon class="cls-5" points="167.88 33.12 167.33 32.55 181.1 16.84 181.66 17.41 167.88 33.12"/><rect class="cls-1" x="212.35" y="22.47" width="25.29" height="5.06"/><path class="cls-5" d="M219.57,26.36A1.36,1.36,0,1,1,220.92,25,1.36,1.36,0,0,1,219.57,26.36Zm0-2a.68.68,0,1,0,.68.68A.68.68,0,0,0,219.57,24.32Z"/><path class="cls-5" d="M230.43,26.36A1.36,1.36,0,1,1,231.79,25,1.36,1.36,0,0,1,230.43,26.36Zm0-2a.68.68,0,1,0,.68.68A.68.68,0,0,0,230.43,24.32Z"/><path class="cls-5" d="M225,26.36A1.36,1.36,0,1,1,226.36,25,1.36,1.36,0,0,1,225,26.36Zm0-2a.68.68,0,1,0,.68.68A.68.68,0,0,0,225,24.32Z"/><rect class="cls-6" x="268.04" y="24.6" width="13.92" height="0.7"/><rect class="cls-6" x="274.65" y="18.04" width="0.7" height="13.92"/><rect class="cls-6" x="317.29" y="24.59" width="15.36" height="0.77" transform="translate(77.52 237.1) rotate(-45)"/><rect class="cls-6" x="324.64" y="17.35" width="0.77" height="15.36" transform="translate(77.42 237.07) rotate(-44.98)"/><rect class="cls-6" x="318.04" y="66.65" width="13.92" height="0.7"/><rect class="cls-1" x="268.04" y="18.04" width="13.92" height="13.92"/><g class="cls-7"><polygon class="cls-5" points="29.05 33.38 29.63 32.77 21.57 25 29.63 17.23 29.05 16.62 20.37 25 29.05 33.38"/></g><polygon class="cls-6" points="28.61 119.04 28.65 119 28.13 118.47 21.39 124.97 21.36 125 28.09 131.5 28.13 131.53 28.65 131 22.43 125 28.61 119.04"/><polygon class="cls-6" points="80.96 128.61 81 128.65 81.53 128.13 75.04 121.39 75 121.36 68.5 128.09 68.47 128.13 69 128.65 75 122.43 80.96 128.61"/><polygon class="cls-6" points="121.39 119.04 121.35 119 121.87 118.47 128.61 124.97 128.65 125 121.91 131.5 121.87 131.53 121.35 131 127.57 125 121.39 119.04"/><polygon class="cls-6" points="220.37 117.35 220.32 117.31 220.99 116.61 229.63 124.95 229.68 125 221.03 133.34 220.99 133.38 220.32 132.69 228.3 125 220.37 117.35"/><polygon class="cls-5" points="270.37 117.35 270.32 117.31 270.99 116.61 279.63 124.95 279.68 125 271.04 133.34 270.99 133.38 270.32 132.69 278.3 125 270.37 117.35"/><polygon class="cls-8" points="320.37 117.35 320.32 117.31 320.99 116.61 329.63 124.95 329.68 125 321.03 133.34 320.99 133.38 320.32 132.69 328.3 125 320.37 117.35"/><polygon class="cls-6" points="180.96 121.39 181 121.36 181.53 121.88 175.03 128.61 175 128.65 168.5 121.91 168.46 121.88 169 121.36 175 127.57 180.96 121.39"/><rect class="cls-1" x="21.43" y="118.54" width="7.15" height="12.93"/><g class="cls-9"><polygon class="cls-5" points="70.95 33.38 70.37 32.77 78.43 25 70.37 17.23 70.95 16.62 79.63 25 70.95 33.38"/></g><g class="cls-10"><polygon class="cls-5" points="363.24 69.31 364.09 68.5 375 79.81 385.91 68.5 386.76 69.31 375 81.5 363.24 69.31"/></g><polygon class="cls-5" points="125 79.82 116.57 70.76 117.19 70.18 125 78.58 132.81 70.18 133.43 70.76 125 79.82"/><polygon class="cls-5" points="475 129.82 466.57 120.76 467.19 120.18 475 128.58 482.81 120.18 483.43 120.76 475 129.82"/><polygon class="cls-6" points="425 129.82 416.57 120.76 417.19 120.18 425 128.58 432.81 120.18 433.43 120.76 425 129.82"/><polygon class="cls-5" points="525 120.18 533.43 129.24 532.81 129.82 525 121.42 517.19 129.82 516.57 129.24 525 120.18"/><polygon class="cls-6" points="575 120.18 583.43 129.24 582.81 129.82 575 121.42 567.19 129.82 566.57 129.24 575 120.18"/><polygon class="cls-5" points="175 70.18 166.57 79.24 167.19 79.82 175 71.42 182.81 79.82 183.43 79.24 175 70.18"/><rect class="cls-5" x="69.92" y="69.77" width="10.15" height="0.97"/><rect class="cls-5" x="74.28" y="69.77" width="1.45" height="0.97"/><rect class="cls-5" x="69.92" y="74.43" width="10.15" height="0.97"/><rect class="cls-5" x="74.28" y="74.43" width="1.45" height="0.97"/><rect class="cls-5" x="69.92" y="79.27" width="10.15" height="0.97"/><rect class="cls-5" x="74.28" y="79.27" width="1.45" height="0.97"/><path class="cls-5" d="M27.2,86H22.8V83l-.29-.14c-.41-.19-.89-.43-1.3-.66l-2.84,2.33-2.92-3,2.28-2.35A9.38,9.38,0,0,1,16.86,77H14V72.48h3l.14-.3c.19-.43.43-.94.66-1.37L16,68.46l2.92-3,2.29,2.35c.41-.23.89-.46,1.27-.64L22.8,67V64h4.4v3l.29.14c.38.18.85.41,1.27.64L31,65.46l2.92,3-1.72,2.36c.13.29.26.64.39,1s.18.49.26.68H36V77H33.18a4.43,4.43,0,0,1-.87,2.19l0,.06L34,81.54l-2.92,3-2.29-2.35c-.4.22-.87.45-1.26.63L27.2,83v3Zm-3.3-1.1h2.2V82.3l.28-.16.64-.32c.47-.23,1.13-.54,1.54-.8l.38-.24L31,83l1.48-1.52-1.59-2.18.19-.31c.09-.16.19-.29.29-.43a3.71,3.71,0,0,0,.74-2.16l.05-.49h2.69V73.57h-2a.59.59,0,0,1-.24,0c-.51,0-.67-.45-1-1.45A8.78,8.78,0,0,0,31.12,71l-.19-.31,1.59-2.18L31,67l-2.11,2.17L28.55,69c-.41-.26-1.07-.57-1.54-.8l-.63-.31-.28-.16v-2.6H23.9v2.6l-.28.16-.63.31c-.48.23-1.13.54-1.54.8l-.37.23L19,67l-1.48,1.52,1.59,2.18-.19.31c-.25.42-.56,1.09-.78,1.58-.13.29-.24.52-.31.65l-.15.29H15.1v2.29h2.66l.08.45a8.2,8.2,0,0,0,1,2.64l.22.36L17,81.49,18.44,83l2.66-2.19.34.21c.41.26,1.06.57,1.54.8l.64.32.28.16Z"/><path class="cls-5" d="M25,79.22A4.22,4.22,0,1,1,29.12,75,4.18,4.18,0,0,1,25,79.22Zm0-7.34A3.12,3.12,0,1,0,28,75,3.07,3.07,0,0,0,25,71.88Z"/><polygon class="cls-5" points="225 83.32 216.7 75.71 217.26 75.1 225 82.2 232.74 75.1 233.3 75.71 225 83.32"/><polygon class="cls-5" points="225 75.58 216.69 67.26 217.27 66.68 225 74.4 232.73 66.68 233.31 67.26 225 75.58"/><polygon class="cls-5" points="275 66.68 266.7 74.29 267.26 74.9 275 67.8 282.74 74.9 283.3 74.29 275 66.68"/><polygon class="cls-5" points="275 74.42 266.69 82.73 267.27 83.32 275 75.6 282.73 83.32 283.31 82.73 275 74.42"/><polygon class="cls-5" points="516.79 41.54 515.43 40.08 531.64 25 515.43 9.92 516.79 8.46 534.57 25 516.79 41.54"/><polygon class="cls-5" points="483.21 41.54 484.57 40.08 468.36 25 484.57 9.93 483.21 8.46 465.43 25 483.21 41.54"/><polygon class="cls-5" points="408.46 33.21 409.93 34.57 425 18.36 440.07 34.57 441.54 33.21 425 15.43 408.46 33.21"/><polygon class="cls-5" points="358.46 16.79 359.93 15.43 375 31.64 390.07 15.43 391.54 16.79 375 34.57 358.46 16.79"/><rect class="cls-1" x="515.7" y="8.72" width="18.61" height="32.55"/><polygon class="cls-5" points="534.98 89.1 527 89.1 527 81.12 523 81.12 523 89.1 515.02 89.1 515.02 72.47 516.35 72.47 516.35 87.77 521.67 87.77 521.67 79.79 528.33 79.79 528.33 87.77 533.65 87.77 533.65 72.47 534.98 72.47 534.98 89.1"/><polygon class="cls-5" points="512.62 74.68 511.69 73.72 525 60.9 538.3 73.72 537.38 74.68 525 62.74 512.62 74.68"/><polygon class="cls-5" points="527.33 74.78 526 74.78 526 71.45 522.67 71.45 522.67 70.12 527.33 70.12 527.33 74.78"/><rect class="cls-5" x="574.55" y="74.48" width="0.89" height="6.59" transform="translate(268.61 570.52) rotate(-65.83)"/><rect class="cls-5" x="571.64" y="71.69" width="6.59" height="0.89" transform="translate(29.19 266.84) rotate(-26.79)"/><path class="cls-5" d="M569.44,78.38A3.38,3.38,0,1,1,572.81,75,3.38,3.38,0,0,1,569.44,78.38Zm0-5.86A2.48,2.48,0,1,0,571.92,75,2.48,2.48,0,0,0,569.44,72.52Z"/><path class="cls-5" d="M580.56,72.81a3.38,3.38,0,1,1,3.38-3.37A3.38,3.38,0,0,1,580.56,72.81Zm0-5.85A2.48,2.48,0,1,0,583,69.44,2.48,2.48,0,0,0,580.56,67Z"/><path class="cls-5" d="M580.56,83.94a3.38,3.38,0,1,1,3.38-3.37A3.38,3.38,0,0,1,580.56,83.94Zm0-5.86A2.48,2.48,0,1,0,583,80.56,2.48,2.48,0,0,0,580.56,78.08Z"/><path class="cls-5" d="M621.45,27.77l.17-.62-.5-.41L617.77,24h4.91l.24-.65L625,17.82l2.07,5.53.24.65h4.91l-3.35,2.74-.5.41.17.63,1.3,4.89-4.28-3-.57-.4-.57.4-4.28,3ZM625,15l-3,8h-7l5.52,4.52-2,7.53L625,30.52,631.53,35l-2-7.53L635,23h-7Z"/><path class="cls-5" d="M575.41,33.17h-.82c0-.84-2.62-2-7.35-2h-.41V16.83h.41c3.29,0,6.62.65,7.76,1.89,1.13-1.25,4.46-1.89,7.76-1.89h.41V31.13h-.41C578,31.13,575.41,32.33,575.41,33.17Zm-7.76-2.86c3.16.05,6.26.7,7.35,1.89,1.09-1.2,4.19-1.84,7.35-1.89V17.65c-4.47.07-6.94,1.23-6.94,2h-.82c0-.81-2.47-2-6.94-2V30.31Z"/><rect class="cls-5" x="574.59" y="19.28" width="0.82" height="13.88"/><path class="cls-5" d="M625.9,130.24a.9.9,0,1,1-.9-.9.9.9,0,0,1,.9.9"/><path class="cls-5" d="M625.6,127.85h-1.2v-3h.6a2.4,2.4,0,1,0-2.4-2.4h-1.2a3.6,3.6,0,1,1,4.2,3.54v1.85Z"/><path class="cls-5" d="M635.79,135.79H614.21V114.21h21.57ZM637,113H613v24h24Z"/><rect class="cls-1" x="613.01" y="113.01" width="23.97" height="23.97"/><g class="cls-11"><polygon class="cls-5" points="436.76 80.69 435.91 81.5 425 70.19 414.09 81.5 413.24 80.69 425 68.5 436.76 80.69"/></g><path class="cls-12" d="M632.91,72.93h3.57V64.17a1,1,0,0,0-1-1h-21a1,1,0,0,0-1,1v8.75h3.57a8.24,8.24,0,0,1,7.9,5.93A8.24,8.24,0,0,1,632.91,72.93Z"/><path class="cls-12" d="M630.73,76.74a7.26,7.26,0,0,0-5.73,2.8,7.26,7.26,0,0,0-5.73-2.8h-5.74v9.08a1,1,0,0,0,1,1h21a1,1,0,0,0,1-1V76.74Z"/><ellipse class="cls-12" cx="471.41" cy="71.48" rx="6.52" ry="6.4"/><line class="cls-12" x1="475.98" y1="75.96" x2="477.93" y2="77.88"/><polygon class="cls-12" points="476.96 78.84 478.91 76.92 485.11 83 483.15 84.92 476.96 78.84"/></g></svg>