<svg xmlns="http://www.w3.org/2000/svg" xmlns:xlink="http://www.w3.org/1999/xlink" viewBox="0 0 650 50"><defs><style>.cls-1,.cls-2,.cls-4,.cls-7{fill:none;stroke:#000;stroke-miterlimit:10;}.cls-1{clip-rule:evenodd;}.cls-3,.cls-7{fill-rule:evenodd;}.cls-4{stroke-width:0.7px;}.cls-5{clip-path:url(#clip-path);}.cls-6{clip-path:url(#clip-path-2);}.cls-8{clip-path:url(#clip-path-3);}</style><clipPath id="clip-path"><path class="cls-1" d="M128.35,26.77c-.69,4.52-4.09,7.11-8.49,7.11a8.87,8.87,0,1,1,0-17.75,8.54,8.54,0,0,1,6,2.31L123.3,21a4.75,4.75,0,0,0-3.44-1.33A5.35,5.35,0,0,0,114.58,25a5.29,5.29,0,0,0,5.27,5.27c2.44,0,4.29-1.17,4.82-3.51h-4.82V23.2h8.47a10.31,10.31,0,0,1,.15,1.8A11.6,11.6,0,0,1,128.35,26.77Z"/></clipPath><clipPath id="clip-path-2"><rect class="cls-2" x="96.84" y="-2.39" width="54.86" height="54.86"/></clipPath><clipPath id="clip-path-3"><polygon class="cls-1" points="139.1 25.66 135.96 25.66 135.96 28.77 133.73 28.77 133.73 25.66 130.6 25.66 130.6 23.45 133.73 23.45 133.73 20.34 135.96 20.34 135.96 23.45 139.1 23.45 139.1 25.66"/></clipPath></defs><title>-</title><g id="layer-set-9"><rect class="cls-2" x="212.6" y="17.6" width="24.8" height="14.8"/><polyline class="cls-2" points="212.6 17.6 225 25.6 237.4 17.6"/><path class="cls-2" d="M83.16,19.14a6.12,6.12,0,0,0,2.37-.64s-.16.58-2.2,2.43c0,0,.69,9.94-9.75,12.38,0,0-5.29,1.13-9.12-1.75,0,0,4,.71,6.27-1.78a4.11,4.11,0,0,1-3.83-2.94,3.5,3.5,0,0,0,1.75-.06,4.2,4.2,0,0,1-3.24-4.28,2.77,2.77,0,0,0,1.69.54s-3-2.53-1.13-5.68c0,0,4,4.71,8.92,4.43a4.15,4.15,0,0,1-.13-1.05,4.24,4.24,0,0,1,7.26-3,4.86,4.86,0,0,0,2.88-.92S85,17.73,83.16,19.14Z"/><path class="cls-2" d="M31,14.71H27.64A4.57,4.57,0,0,0,23,18.21a11,11,0,0,0-.3,3.41H19v2.87h3.9v10.8h3.9V24.5h3.91V21.63H26.85V19.9a2.2,2.2,0,0,1,2.48-2.2H31v-3Z"/><path class="cls-2" d="M181.19,35V27.19c0-1.79-.91-3-2.47-3a2.78,2.78,0,0,0-2.5,1.62,3.15,3.15,0,0,0-.14,1.08V35h-4v-9.6c0-1.73,0-3.25,0-4.5l3.68-.07.2,2.07H176a5,5,0,0,1,4.29-2.25c2.84,0,4.9,1.91,4.9,6V35h-4ZM167.09,19.29a2.16,2.16,0,1,1,2.33-2.16A2.15,2.15,0,0,1,167.09,19.29ZM169,35h-4V20.85h4Z"/><path class="cls-3" d="M282.31,17.65A10.27,10.27,0,0,0,266.14,30l-1.46,5.32,5.44-1.43A10.26,10.26,0,0,0,275,35.19h0a10.28,10.28,0,0,0,7.27-17.54M275,34.54h0a9.6,9.6,0,0,1-4.9-1.34l-4.39,1.18L266.89,30A9.62,9.62,0,1,1,275,34.54"/><path d="M277.71,30.22h0a3.67,3.67,0,0,1-1.11-.17,15.55,15.55,0,0,1-1.5-.55,11.23,11.23,0,0,1-4.5-3.94,5.39,5.39,0,0,1-1.16-2.94,3.21,3.21,0,0,1,1-2.34,1.37,1.37,0,0,1,1-.49h.51a.9.9,0,0,1,.91.67l.28.68c.21.52.45,1.11.5,1.2a.84.84,0,0,1,0,.79,2.07,2.07,0,0,1-.31.5l-.14.16c-.09.11-.19.23-.27.31l-.08.09a8.85,8.85,0,0,0,1.38,1.67A6.28,6.28,0,0,0,276,27l.2.09.11,0c.15-.2.62-.75.78-1a.83.83,0,0,1,1-.27c.28.1,1.65.78,1.79.85l.13.06a1.09,1.09,0,0,1,.51.37,2.29,2.29,0,0,1-.12,1.54,3,3,0,0,1-2,1.47A4.66,4.66,0,0,1,277.71,30.22Zm-6.3-9.68a.57.57,0,0,0-.41.2,2.55,2.55,0,0,0-.8,1.89,4.55,4.55,0,0,0,1,2.43l.06.08a10.48,10.48,0,0,0,4.18,3.68,14.76,14.76,0,0,0,1.43.53,2.87,2.87,0,0,0,.88.13h0a3.89,3.89,0,0,0,.57,0,2.33,2.33,0,0,0,1.44-1,2.35,2.35,0,0,0,.16-.94s-.1,0-.17,0l-.14-.07c-.36-.18-1.52-.75-1.71-.82l-.15,0a9.92,9.92,0,0,1-.83,1.07.75.75,0,0,1-1,.15l-.16-.07a7.07,7.07,0,0,1-2-1.26,8.17,8.17,0,0,1-1.5-1.87.74.74,0,0,1,.17-1l.22-.25.15-.18a1.11,1.11,0,0,0,.17-.27c0-.1.06-.12,0-.19s-.3-.7-.52-1.25l-.28-.68a.52.52,0,0,0-.12-.21h-.6Z"/><path id="path19359" class="cls-4" d="M317.64,18.6a.47.47,0,0,0-.42.19.47.47,0,0,0,0,.47l2.06,3.57a0,0,0,0,1,0,0l-3.24,5.72a.47.47,0,0,0,0,.47.45.45,0,0,0,.4.21h3.05a.93.93,0,0,0,.83-.59l3.29-5.82-2.1-3.66a.94.94,0,0,0-.85-.57Z"/><path id="path19375" class="cls-4" d="M330.45,14.42a.89.89,0,0,0-.82.58l-6.79,12,4.33,8a1,1,0,0,0,.85.58h3a.45.45,0,0,0,.4-.19.48.48,0,0,0,0-.47l-4.3-7.86a0,0,0,0,1,0,0l6.75-11.94a.48.48,0,0,0,0-.47.45.45,0,0,0-.41-.19Z"/><g class="cls-5"><g class="cls-6"><rect class="cls-2" x="104.04" y="9.27" width="31.29" height="31.46"/></g><rect class="cls-2" x="96.84" y="-2.39" width="54.86" height="54.86"/></g><path class="cls-7" d="M128.35,26.77c-.69,4.52-4.09,7.11-8.49,7.11a8.87,8.87,0,1,1,0-17.75,8.54,8.54,0,0,1,6,2.31L123.3,21a4.75,4.75,0,0,0-3.44-1.33A5.35,5.35,0,0,0,114.58,25a5.29,5.29,0,0,0,5.27,5.27c2.44,0,4.29-1.17,4.82-3.51h-4.82V23.2h8.47a10.31,10.31,0,0,1,.15,1.8A11.6,11.6,0,0,1,128.35,26.77Z"/><g class="cls-8"><g class="cls-6"><rect class="cls-2" x="123.74" y="13.48" width="22.22" height="22.14"/></g><rect class="cls-2" x="96.84" y="-2.39" width="54.86" height="54.86"/></g><polygon class="cls-7" points="139.1 25.66 135.96 25.66 135.96 28.77 133.73 28.77 133.73 25.66 130.6 25.66 130.6 23.45 133.73 23.45 133.73 20.34 135.96 20.34 135.96 23.45 139.1 23.45 139.1 25.66"/></g></svg>