<svg xmlns="http://www.w3.org/2000/svg" viewBox="0 0 650 50"><defs><style>.cls-1{fill:#fff;}</style></defs><title>-</title><g id="layer-set-12"><path class="cls-1" d="M225,10.6A14.4,14.4,0,1,0,239.4,25,14.4,14.4,0,0,0,225,10.6ZM216.23,19h17.55c.93,0,.45.86-.05,1.13l-7.78,4.18a2.23,2.23,0,0,1-1.88,0l-7.78-4.18C215.78,19.84,215.3,19,216.23,19Zm17.08,12H216.69a1.21,1.21,0,0,1-1-1V22.41c0-.19,0-.44.4-.23l8,4.18a2.24,2.24,0,0,0,1.88,0l8-4.18c.41-.21.4,0,.4.23V30A1.21,1.21,0,0,1,233.31,31Z"/><path class="cls-1" d="M25,10.6A14.4,14.4,0,1,0,39.4,25,14.4,14.4,0,0,0,25,10.6Zm3.41,10H26.25c-.26,0-.54.34-.54.79V22.9h2.71v2.23H25.71v6.69H23.15V25.13H20.83V22.9h2.32V21.59a3.21,3.21,0,0,1,3.1-3.41h2.17Z"/><path class="cls-1" d="M75,10.6A14.4,14.4,0,1,0,89.4,25,14.4,14.4,0,0,0,75,10.6Zm5.86,11.8c0,.12,0,.24,0,.37a8.07,8.07,0,0,1-12.42,6.79,5.74,5.74,0,0,0,4.2-1.17,2.84,2.84,0,0,1-2.65-2,2.85,2.85,0,0,0,1.28,0A2.84,2.84,0,0,1,69,23.58v0a2.81,2.81,0,0,0,1.29.35,2.84,2.84,0,0,1-.88-3.79,8.05,8.05,0,0,0,5.85,3,2.84,2.84,0,0,1,4.83-2.59,5.68,5.68,0,0,0,1.8-.69,2.84,2.84,0,0,1-1.25,1.57,5.66,5.66,0,0,0,1.63-.45A5.77,5.77,0,0,1,80.86,22.4Z"/><path class="cls-1" d="M175,10.6A14.4,14.4,0,1,0,189.4,25,14.4,14.4,0,0,0,175,10.6ZM171.48,31h-2.92V21.59h2.92ZM170,20.43A1.46,1.46,0,1,1,171.57,19,1.45,1.45,0,0,1,170,20.43ZM182.12,31h-2.92v-5.2c0-1.21-.42-2-1.48-2a1.6,1.6,0,0,0-1.5,1.09,2.11,2.11,0,0,0-.1.73V31h-2.92V24.58c0-1.17,0-2.15-.08-3h2.53l.13,1.3h.06a3.37,3.37,0,0,1,2.9-1.52c1.92,0,3.36,1.29,3.36,4V31Z"/><path class="cls-1" d="M275,17.63a7.29,7.29,0,0,0-6.18,11.17l.17.28-.74,2.69,2.76-.72.27,0A7.18,7.18,0,0,0,275,32h0a7.21,7.21,0,0,0,7.29-7.18A7.2,7.2,0,0,0,275,17.63Zm4.29,10.43a2.27,2.27,0,0,1-1.48,1,3,3,0,0,1-1.38-.09,13.17,13.17,0,0,1-1.25-.46,9.8,9.8,0,0,1-3.75-3.31,4.28,4.28,0,0,1-.89-2.27,2.45,2.45,0,0,1,.77-1.83.8.8,0,0,1,.58-.27h.42c.13,0,.32-.05.49.38s.62,1.52.68,1.63a.4.4,0,0,1,0,.38,1.53,1.53,0,0,1-.22.37c-.11.13-.23.29-.33.38s-.22.23-.1.45A6.65,6.65,0,0,0,274.11,26a6,6,0,0,0,1.76,1.09c.22.11.35.09.47-.05s.55-.64.69-.86.29-.18.49-.11,1.28.6,1.5.71.36.16.42.25A1.84,1.84,0,0,1,279.33,28.06Z"/><path class="cls-1" d="M275,10.6A14.4,14.4,0,1,0,289.4,25,14.4,14.4,0,0,0,275,10.6ZM275,34h0a8.92,8.92,0,0,1-4.19-1.22l-4.65,1.15,1.24-4.58A8.8,8.8,0,0,1,275,16.16a8.71,8.71,0,0,1,6.21,2.57,9.06,9.06,0,0,1,2.57,6.35A8.91,8.91,0,0,1,275,34Z"/><path class="cls-1" d="M325,10.6A14.4,14.4,0,1,0,339.4,25,14.4,14.4,0,0,0,325,10.6Zm-4.27,17.73h-2.37a.35.35,0,0,1-.31-.16.37.37,0,0,1,0-.36l2.52-4.45a0,0,0,0,0,0,0L319,20.56a.37.37,0,0,1,0-.36.36.36,0,0,1,.32-.15h2.37a.73.73,0,0,1,.66.44l1.63,2.84-2.56,4.53A.72.72,0,0,1,320.73,28.33Zm11.22-11-5.25,9.29a0,0,0,0,0,0,0L330,32.74a.37.37,0,0,1,0,.37.35.35,0,0,1-.31.15h-2.37a.74.74,0,0,1-.66-.45l-3.37-6.18,5.28-9.36a.7.7,0,0,1,.64-.45h2.4A.35.35,0,0,1,332,17,.37.37,0,0,1,331.95,17.32Z"/><path class="cls-1" d="M125,10.6A14.4,14.4,0,1,0,139.4,25,14.4,14.4,0,0,0,125,10.6Zm2.6,15.77A6.14,6.14,0,0,1,124,31.25a7.29,7.29,0,0,1-3,.64,6.88,6.88,0,1,1,3-13.08,6.24,6.24,0,0,1,1.65,1.11L124,21.55l-.34.34a3.68,3.68,0,0,0-2.67-1A4.15,4.15,0,0,0,116.92,25,4.1,4.1,0,0,0,121,29.09a3.78,3.78,0,0,0,3-1.24,3.47,3.47,0,0,0,.73-1.48H121V23.6h6.57A8,8,0,0,1,127.7,25,9,9,0,0,1,127.6,26.37Zm5.91-.86v2.41h-1.73V25.51h-2.43V23.8h2.43V21.39h1.73V23.8h2.43v1.71Z"/></g></svg>