<svg xmlns="http://www.w3.org/2000/svg" viewBox="0 0 650 50"><defs><style>.cls-1{fill:#fff;}</style></defs><title>-</title><g id="layer-set-3"><path class="cls-1" d="M25,13.48A11.52,11.52,0,1,0,36.52,25,11.52,11.52,0,0,0,25,13.48ZM28,25H26.09v6.91H23.5V25H21.77V22.62H23.5v-1.4c0-1.94.53-3.13,2.82-3.13h1.91v2.38H27c-.88,0-.94.34-.94,1v1.19h2.14Z"/><path class="cls-1" d="M175,13.48A11.52,11.52,0,1,0,186.52,25,11.52,11.52,0,0,0,175,13.48Zm-2.87,17.1h-2.88V20.5h2.88Zm-1.35-10.69a1.35,1.35,0,1,1,1.35-1.36,1.35,1.35,0,0,1-1.35,1.36Zm11.42,10.69h-2.87V24.35c0-.73-.21-1.25-1.1-1.25a1.74,1.74,0,0,0-1.78,1.25v6.23h-2.87V20.5h2.88v1a4.88,4.88,0,0,1,2.88-1c.94,0,2.88.56,2.88,3.93Z"/><path class="cls-1" d="M75,13.48A11.52,11.52,0,1,0,86.52,25,11.52,11.52,0,0,0,75,13.48Zm5.74,8.94v.37a8.06,8.06,0,0,1-12.42,6.79,5.16,5.16,0,0,0,.67,0,5.7,5.7,0,0,0,3.52-1.22,2.84,2.84,0,0,1-2.65-2,2.64,2.64,0,0,0,.54.05,2.91,2.91,0,0,0,.75-.1,2.84,2.84,0,0,1-2.27-2.78v0a2.8,2.8,0,0,0,1.28.35,2.83,2.83,0,0,1-1.26-2.36,2.78,2.78,0,0,1,.39-1.43,8,8,0,0,0,5.84,3,2.61,2.61,0,0,1-.07-.65,2.83,2.83,0,0,1,2.83-2.83,2.86,2.86,0,0,1,2.07.89,5.71,5.71,0,0,0,1.8-.68,2.83,2.83,0,0,1-1.25,1.57,5.7,5.7,0,0,0,1.63-.45,5.93,5.93,0,0,1-1.41,1.47Z"/><path class="cls-1" d="M225,13.48A11.52,11.52,0,1,0,236.52,25,11.52,11.52,0,0,0,225,13.48ZM231.4,29a.8.8,0,0,1-.8.8H219.4a.8.8,0,0,1-.8-.8V23.65l6.4,2.56,6.4-2.56V29Zm0-6.66L225,24.9l-6.4-2.56V21a.8.8,0,0,1,.8-.8h11.2a.8.8,0,0,1,.8.8v1.34Z"/><path class="cls-1" d="M275,19.18A5.76,5.76,0,0,0,270.15,28l.14.22-.58,2.13,2.18-.57.21.27A5.91,5.91,0,0,0,275,31h0a5.92,5.92,0,0,0,4.08-10.06A5.79,5.79,0,0,0,275,19.18Zm3.39,8.24a1.8,1.8,0,0,1-1.17.82,2.41,2.41,0,0,1-1.09-.07,10.35,10.35,0,0,1-1-.37,7.74,7.74,0,0,1-3-2.62,3.38,3.38,0,0,1-.71-1.79,1.94,1.94,0,0,1,.61-1.45.63.63,0,0,1,.46-.22h.33c.11,0,.25,0,.39.3s.49,1.2.54,1.29a.32.32,0,0,1,0,.3,1.2,1.2,0,0,1-.17.29c-.09.1-.18.23-.26.3s-.18.18-.08.35a5.26,5.26,0,0,0,1,1.2,4.76,4.76,0,0,0,1.39.86c.17.09.27.07.37,0s.43-.51.55-.68.23-.14.39-.09,1,.48,1.18.56.29.13.33.2A1.45,1.45,0,0,1,278.42,27.42Z"/><path class="cls-1" d="M275,13.62A11.38,11.38,0,1,0,286.38,25,11.38,11.38,0,0,0,275,13.62ZM275,32h0a7,7,0,0,1-3.31-.91L268,32l1-3.61A6.94,6.94,0,0,1,279.93,20,7,7,0,0,1,275,32Z"/><path class="cls-1" d="M325,13.48A11.52,11.52,0,1,0,336.52,25,11.52,11.52,0,0,0,325,13.48Zm-3.63,14.33h-2a.3.3,0,0,1-.26-.14.31.31,0,0,1,0-.31l2.15-3.79a0,0,0,0,0,0,0l-1.37-2.36a.31.31,0,0,1,0-.31.31.31,0,0,1,.28-.13h2a.62.62,0,0,1,.56.38l1.39,2.42-2.18,3.85A.62.62,0,0,1,321.37,27.81Zm9.55-9.37-4.47,7.9a0,0,0,0,0,0,0l2.85,5.2a.32.32,0,0,1,0,.31A.3.3,0,0,1,329,32h-2a.63.63,0,0,1-.56-.38l-2.87-5.26,4.49-8a.59.59,0,0,1,.54-.38h2a.3.3,0,0,1,.27.13A.32.32,0,0,1,330.91,18.44Z"/><path class="cls-1" d="M125,13.48A11.52,11.52,0,1,0,136.52,25,11.52,11.52,0,0,0,125,13.48Zm2.08,12.62a4.91,4.91,0,0,1-2.86,3.9,5.83,5.83,0,0,1-2.41.51A5.51,5.51,0,1,1,124.22,20a5,5,0,0,1,1.32.89l-1.32,1.31-.27.27a3,3,0,0,0-2.14-.83A3.32,3.32,0,0,0,118.54,25a3.28,3.28,0,0,0,3.27,3.27,3,3,0,0,0,2.41-1,2.78,2.78,0,0,0,.58-1.19h-3V23.88h5.26a6.41,6.41,0,0,1,.09,1.12A7.21,7.21,0,0,1,127.08,26.1Zm4.73-.69v1.93h-1.38V25.41h-1.95V24h1.95V22.11h1.38V24h1.95v1.37Z"/></g></svg>