<svg xmlns="http://www.w3.org/2000/svg" xmlns:xlink="http://www.w3.org/1999/xlink" viewBox="0 0 650 150"><defs><style>.cls-1{fill:none;}.cls-2,.cls-3{fill:#fff;}.cls-3{opacity:0.4;}.cls-3,.cls-4,.cls-5{isolation:isolate;}.cls-4{opacity:0.2;}.cls-5{opacity:0.5;}.cls-6{clip-path:url(#clip-path);}</style><clipPath id="clip-path"><rect id="SVGID" class="cls-1" x="550" y="50" width="50" height="50"/></clipPath></defs><title>-</title><g id="layer-set-10"><g id="more"><circle class="cls-2" cx="210.88" cy="25" r="4.02"/><circle class="cls-2" cx="225" cy="25" r="4.02"/><circle class="cls-2" cx="239.12" cy="25" r="4.02"/></g><g id="arrow_down_big" data-name="arrow down big"><polygon id="prev" class="cls-2" points="225 65.9 213.01 53.91 207.62 59.29 225 76.67 242.38 59.29 236.99 53.91 225 65.9"/><polygon id="prev-2" data-name="prev" class="cls-3" points="225 85.33 213.01 73.33 207.62 78.72 225 96.09 242.38 78.72 236.99 73.33 225 85.33"/></g><g id="arrow_down_big-2" data-name="arrow down big"><polygon id="prev-3" data-name="prev" class="cls-2" points="275 84.11 287.01 96.13 292.41 90.73 275 73.33 257.59 90.73 262.99 96.13 275 84.11"/><polygon id="prev-4" data-name="prev" class="cls-3" points="275 64.66 287.01 76.67 292.41 71.28 275 53.87 257.59 71.28 262.99 76.67 275 64.66"/></g><path class="cls-2" d="M222,119.5h2l4,5.5-4,5.5h-2l3.69-5.5Z"/><path d="M272,119.5h2l4,5.5-4,5.5h-2l3.69-5.5Z"/><path class="cls-4" d="M372,119.5h2l4,5.5-4,5.5h-2l3.69-5.5Z"/><path class="cls-5" d="M322,119.5h2l4,5.5-4,5.5h-2l3.69-5.5Z"/><g id="close_White" data-name="close White"><rect class="cls-2" x="323.82" y="19.11" width="2.36" height="11.78" transform="translate(77.5 237.12) rotate(-45)"/><rect class="cls-2" x="319.11" y="23.82" width="11.78" height="2.36" transform="translate(77.5 237.12) rotate(-45)"/></g><g id="plus"><rect class="cls-2" x="273.5" y="17.5" width="3" height="15"/><rect class="cls-2" x="267.5" y="23.5" width="15" height="3"/></g><polygon id="small_right" data-name="small right" class="cls-2" points="119 117 119 133 131 125 119 117"/><polygon id="small_left" data-name="small left" class="cls-2" points="31 117 31 133 19 125 31 117"/><polygon id="small_left-2" data-name="small left" class="cls-2" points="83 131 67 131 75 119 83 131"/><polygon id="small_left-3" data-name="small left" class="cls-2" points="167 119 183 119 175 131 167 119"/><path class="cls-2" d="M117,21v8h3.52L126,32V18l-5.51,3Zm11.21.68L126.88,23a2.68,2.68,0,0,1,0,4l1.34,1.33A4.82,4.82,0,0,0,129.51,25,4.76,4.76,0,0,0,128.19,21.68Zm2.54-2.54-1.41,1.41a6.72,6.72,0,0,1,0,8.9l1.41,1.41a8.69,8.69,0,0,0,0-11.72Z"/><polygon class="cls-2" points="171 21 167.49 21 167.49 29 171.02 29 176.5 32 176.5 18 171 21"/><g id="Cog"><path class="cls-2" d="M25,71.68A3.32,3.32,0,1,0,28.32,75,3.32,3.32,0,0,0,25,71.68Zm12,4.49V73.82l-3.4-1.27a8.8,8.8,0,0,0-.82-2l1.53-3.26-1.66-1.66-3.26,1.53a8.57,8.57,0,0,0-2-.82L26.17,63H23.83l-1.27,3.4a8.63,8.63,0,0,0-1.95.82l-3.26-1.53-1.66,1.66,1.53,3.26a8.76,8.76,0,0,0-.82,2L13,73.82v2.35l3.4,1.27a8.8,8.8,0,0,0,.82,2l-1.53,3.26,1.66,1.66,3.26-1.53a8.63,8.63,0,0,0,1.95.82L23.83,87h2.35l1.27-3.4a8.66,8.66,0,0,0,2-.82l3.26,1.53,1.66-1.66-1.53-3.26a8.76,8.76,0,0,0,.82-2ZM25,80.36A5.36,5.36,0,1,1,30.36,75,5.36,5.36,0,0,1,25,80.36Z"/></g><rect class="cls-2" x="320" y="74" width="10" height="2"/><polygon class="cls-2" points="424.68 129.5 416 121.97 416.44 120.51 424.69 127.68 433.59 120.5 434 121.98 424.68 129.5"/><polygon points="474.68 129.5 466 121.97 466.44 120.51 474.69 127.68 483.59 120.5 484 121.98 474.68 129.5"/><polygon class="cls-2" points="575.32 120.5 584 128.03 583.56 129.49 575.31 122.32 566.41 129.5 566 128.02 575.32 120.5"/><polygon points="525.32 120.5 534 128.03 533.56 129.49 525.31 122.32 516.41 129.5 516 128.02 525.32 120.5"/><path class="cls-2" d="M537.75,76.14a1.65,1.65,0,0,1-1.22.5,1.63,1.63,0,0,1-1.2-.49l-.39-.39V86.6a1.62,1.62,0,0,1-.48,1.17,1.57,1.57,0,0,1-1.18.49h-5V80.81a.84.84,0,0,0-.83-.83h-5a.84.84,0,0,0-.83.83v7.45h-5a1.58,1.58,0,0,1-1.18-.49,1.62,1.62,0,0,1-.48-1.17V75.76l-.39.39a1.63,1.63,0,0,1-1.2.49,1.72,1.72,0,0,1-1.23-2.92l11.49-11.49a1.88,1.88,0,0,1,2.54,0l11.49,11.49a1.72,1.72,0,0,1,0,2.42Z"/><polygon class="cls-2" points="385.45 67.82 375 78.27 364.55 67.83 362.6 69.78 375 82.18 387.4 69.78 385.45 67.82"/><polygon class="cls-2" points="437.4 80.22 425 67.82 412.6 80.22 414.55 82.17 425 71.73 435.45 82.17 437.4 80.22"/><polygon class="cls-2" points="441.5 31.95 425 15.45 408.5 31.95 411.1 34.55 425 20.65 438.9 34.55 441.5 31.95"/><polygon class="cls-2" points="388.9 15.45 375 29.35 361.1 15.45 358.5 18.05 375 34.55 375 34.55 391.5 18.05 388.9 15.45"/><polygon class="cls-2" points="518.05 41.5 534.55 25 518.05 8.5 515.45 11.1 529.35 25 515.45 38.9 518.05 41.5"/><polygon class="cls-2" points="484.55 38.9 470.64 25 484.55 11.1 481.95 8.5 465.45 25 465.45 25 481.95 41.5 484.55 38.9"/><path class="cls-2" d="M565.5,13.5v20h16v-20Zm14.57,18.65H566.93V14.85h13.14Z"/><path class="cls-2" d="M568.5,33.5v3h16v-20h-3v1.35h1.57V35.15H569.93V33.5Z"/><rect class="cls-2" x="569.08" y="16.83" width="9.08" height="1.42"/><rect class="cls-2" x="569.08" y="19.83" width="9.08" height="1.42"/><rect class="cls-2" x="569.08" y="22.83" width="9.08" height="1.42"/><rect class="cls-2" x="569.08" y="25.83" width="9.08" height="1.42"/><rect class="cls-2" x="569.08" y="28.83" width="9.08" height="1.42"/><polygon class="cls-2" points="625 14.99 628.25 21.58 635.52 22.64 630.26 27.77 631.5 35.01 625 31.59 618.5 35.01 619.74 27.77 614.48 22.64 621.75 21.58 625 14.99"/><path class="cls-2" d="M477.85,68.46a6.63,6.63,0,1,0-.91,10.13,1.4,1.4,0,0,0,.38.7l3.76,3.77a1.4,1.4,0,0,0,2-2l-3.76-3.77a1.4,1.4,0,0,0-.7-.38,6.64,6.64,0,0,0-.75-8.48Zm-1.19,8.19a5,5,0,1,1,0-7,5,5,0,0,1,0,7Z"/><polygon class="cls-2" points="34.83 13.65 15.17 25 34.83 36.35 34.83 13.65"/><polygon class="cls-2" points="113.64 65.17 125 84.83 136.35 65.17 113.64 65.17"/><polygon class="cls-2" points="186.35 84.83 175 65.17 163.65 84.83 186.35 84.83"/><polygon class="cls-2" points="65.17 13.65 84.83 25 65.17 36.35 65.17 13.65"/><path class="cls-2" d="M70.78,83.45H87.67v3.38H70.78Zm0-10.13H87.67v3.38H70.78Zm0-10.13H87.67v3.38H70.78Zm-5.07-1.69v6.76H64V63.18H62.33V61.49h3.38ZM64,75.37v1.32H67.4v1.69H62.33V74.53l3.38-1.58V71.62H62.33V69.93H67.4v3.85Zm3.38,4.7v8.44H62.33V86.82h3.38V85.13H62.33V83.45h3.38V81.76H62.33V80.07Z"/><g class="cls-6"><path class="cls-2" d="M583.44,80.38a4.06,4.06,0,0,0-2.92,1.24l-10.94-5.47a4,4,0,0,0,0-1.29l10.94-5.47a4.06,4.06,0,1,0-1.14-2.82,4.11,4.11,0,0,0,.05.64l-10.94,5.47a4.06,4.06,0,1,0,0,5.64l10.94,5.47a4.06,4.06,0,1,0,4-3.42"/></g><path class="cls-2" d="M632,111.63a12.32,12.32,0,0,0-7.4-2.13,10.36,10.36,0,0,0-5.71,1.5q-3.68,2.34-3.92,7.94h5.69a5.83,5.83,0,0,1,1-3.15,3.52,3.52,0,0,1,3.23-1.51,3.67,3.67,0,0,1,3.19,1.23,4.61,4.61,0,0,1,.88,2.72,4.16,4.16,0,0,1-1,2.38,5,5,0,0,1-1.14,1.16,25.79,25.79,0,0,0-4.44,3.57c-.79.92-.86,2.3-.93,4.29,0,.14,0,.43.54.43h4.43a.49.49,0,0,0,.54-.47,5.22,5.22,0,0,1,.24-1.51,4.67,4.67,0,0,1,1.69-2.06l1.57-1.08a16.93,16.93,0,0,0,3-2.72,7.19,7.19,0,0,0,1.45-4.3A7.27,7.27,0,0,0,632,111.63Zm-7.49,21.85a3.51,3.51,0,1,0-.2,7,3.38,3.38,0,0,0,3.69-3.38A3.41,3.41,0,0,0,624.55,133.48Z"/><path class="cls-2" d="M633.07,73h3.65V64.81a1,1,0,0,0-1-.93H614.3a1,1,0,0,0-1,.93V73h3.65A8.34,8.34,0,0,1,625,78.63,8.35,8.35,0,0,1,633.07,73Z"/><path class="cls-2" d="M630.85,76.64A7.65,7.65,0,0,0,625,79.28a7.65,7.65,0,0,0-5.85-2.64h-5.87v8.55a1,1,0,0,0,1,.93H635.7a1,1,0,0,0,1-.93V76.64Z"/></g></svg>