<svg id="layer-set-12" xmlns="http://www.w3.org/2000/svg" xmlns:xlink="http://www.w3.org/1999/xlink" viewBox="0 0 650 150"><defs><style>.cls-1{fill:none;}.cls-2{fill:#fff;}.cls-3{opacity:0.5;}.cls-4{opacity:0.2;}.cls-5{clip-path:url(#clip-path);}</style><clipPath id="clip-path"><rect id="SVGID" class="cls-1" x="57.05" y="62.27" width="35.89" height="25.46"/></clipPath></defs><title>-</title><path class="cls-2" d="M119.4,20.26c-1.12,1.12-6,8.11-1.79,12.35s11.23-.67,12.35-1.79-.33-4.39-3.25-7.31S120.52,19.14,119.4,20.26Zm9.26,9.59c-.33.33-2.89-.46-5.36-2.93s-3.25-5-2.92-5.37,2.9.46,5.36,2.93S129,29.52,128.66,29.85Zm.15-7.88a1,1,0,0,0,.71-.29l1.9-1.91A1,1,0,0,0,130,18.36l-1.9,1.91a1,1,0,0,0,.71,1.71Zm-3.6-2.47a1,1,0,0,0,.49.13,1,1,0,0,0,.87-.51l1.08-1.93a1,1,0,1,0-1.74-1l-1.08,1.93A1,1,0,0,0,125.21,19.49Zm8.75,3a1,1,0,0,0-1.36-.38l-1.93,1.08a1,1,0,0,0,1,1.75l1.93-1.08A1,1,0,0,0,134,22.51Z"/><path class="cls-2" d="M27.15,16.77c-.63.61-6.75,7-6.75,7a1.65,1.65,0,0,0,0,2.36s6.13,6.43,6.75,7a1.79,1.79,0,0,0,2.42,0,1.6,1.6,0,0,0,0-2.36L24,25l5.62-5.86a1.6,1.6,0,0,0,0-2.36A1.79,1.79,0,0,0,27.15,16.77Z"/><path class="cls-2" d="M72.85,33.23c.63-.61,6.75-7,6.75-7a1.65,1.65,0,0,0,0-2.36s-6.13-6.43-6.75-7a1.79,1.79,0,0,0-2.42,0,1.6,1.6,0,0,0,0,2.36L76,25l-5.62,5.86a1.6,1.6,0,0,0,0,2.36A1.79,1.79,0,0,0,72.85,33.23Z"/><path class="cls-2" d="M181.52,18.48a1,1,0,0,0-1.41,0L164.48,34.11a1,1,0,1,0,1.41,1.41l15.63-15.63A1,1,0,0,0,181.52,18.48Zm-4.32,7.71c1.39,1.88,1.82,3.52,1.56,3.78s-1.89-.17-3.78-1.56l-5.53,5.53c4.19,1.84,9.63-2,10.61-3s.1-3.31-1.86-5.75Zm-5.53-1.25c-1.1-1.66-1.43-3-1.19-3.26s1.6.1,3.26,1.2l1-1c-2.26-1.67-4.39-2.33-5.26-1.47s-4.45,5.88-3.23,10Z"/><path class="cls-2" d="M214.5,21.7a3.3,3.3,0,1,0,3.3,3.3A3.3,3.3,0,0,0,214.5,21.7Zm10.5,0a3.3,3.3,0,1,0,3.3,3.3A3.3,3.3,0,0,0,225,21.7Zm10.5,0a3.3,3.3,0,1,0,3.3,3.3A3.3,3.3,0,0,0,235.5,21.7Z"/><path class="cls-2" d="M280.2,24H276V19.8c0-.55-.45-.6-1-.6s-1,0-1,.6V24h-4.2c-.55,0-.6.45-.6,1s0,1,.6,1H274v4.2c0,.55.45.6,1,.6s1,0,1-.6V26h4.2c.55,0,.6-.45.6-1S280.75,24,280.2,24Z"/><path class="cls-2" d="M329.35,28.15,326.59,25l2.76-3.15a1.2,1.2,0,1,0-1.7-1.7l-2.65,3-2.65-3a1.2,1.2,0,0,0-1.7,1.7L323.41,25l-2.76,3.15a1.2,1.2,0,1,0,1.7,1.7l2.65-3,2.65,3a1.2,1.2,0,1,0,1.7-1.7Z"/><path class="cls-2" d="M35.18,75a4.29,4.29,0,0,1,2.42-3.66,13.22,13.22,0,0,0-1-2.51A4.06,4.06,0,0,1,32.5,67.5a3.92,3.92,0,0,1-1-4.07,13.29,13.29,0,0,0-2.51-1,4.75,4.75,0,0,1-4,2.42,4.75,4.75,0,0,1-4-2.42,13.22,13.22,0,0,0-2.51,1,3.92,3.92,0,0,1-1,4.07,4.06,4.06,0,0,1-4.07,1.32,13.35,13.35,0,0,0-1,2.51A4.29,4.29,0,0,1,14.83,75a4.75,4.75,0,0,1-2.42,4,13.36,13.36,0,0,0,1,2.51,4.09,4.09,0,0,1,5.09,5.09,13.26,13.26,0,0,0,2.51,1,4.75,4.75,0,0,1,4-2.42,4.75,4.75,0,0,1,4,2.42,13.23,13.23,0,0,0,2.51-1,3.92,3.92,0,0,1,1-4.07,4.06,4.06,0,0,1,4.07-1.32,13.22,13.22,0,0,0,1-2.51A4.29,4.29,0,0,1,35.18,75ZM25,80.48A5.48,5.48,0,1,1,30.48,75,5.48,5.48,0,0,1,25,80.48Z"/><path class="cls-2" d="M133.22,72.84c-.61.63-7,6.75-7,6.75a1.64,1.64,0,0,1-2.36,0s-6.43-6.12-7-6.75a1.79,1.79,0,0,1,0-2.42,1.6,1.6,0,0,1,2.36,0L125,76l5.86-5.62a1.6,1.6,0,0,1,2.36,0A1.78,1.78,0,0,1,133.22,72.84Z"/><path class="cls-2" d="M166.77,77.15c.61-.63,7-6.75,7-6.75a1.64,1.64,0,0,1,2.36,0s6.43,6.13,7,6.75a1.79,1.79,0,0,1,0,2.42,1.6,1.6,0,0,1-2.36,0L175,74l-5.86,5.62a1.6,1.6,0,0,1-2.36,0A1.78,1.78,0,0,1,166.77,77.15Z"/><path class="cls-2" d="M233.23,72.84c-.61.63-7,6.75-7,6.75a1.64,1.64,0,0,1-2.36,0s-6.43-6.12-7-6.75a1.79,1.79,0,0,1,0-2.42,1.6,1.6,0,0,1,2.36,0L225,76l5.86-5.62a1.6,1.6,0,0,1,2.36,0A1.79,1.79,0,0,1,233.23,72.84Z"/><path class="cls-2" d="M233.23,72.84c-.61.63-7,6.75-7,6.75a1.64,1.64,0,0,1-2.36,0s-6.43-6.13-7-6.75a1.79,1.79,0,0,1,0-2.42,1.6,1.6,0,0,1,2.36,0L225,76l5.86-5.62a1.6,1.6,0,0,1,2.36,0A1.79,1.79,0,0,1,233.23,72.84Z"/><path class="cls-2" d="M266.78,77.15c.61-.63,7-6.75,7-6.75a1.64,1.64,0,0,1,2.36,0s6.43,6.13,7,6.75a1.79,1.79,0,0,1,0,2.42,1.6,1.6,0,0,1-2.36,0L275,74l-5.86,5.62a1.6,1.6,0,0,1-2.36,0A1.78,1.78,0,0,1,266.78,77.15Z"/><path class="cls-2" d="M266.78,77.16c.61-.63,7-6.75,7-6.75a1.64,1.64,0,0,1,2.36,0s6.43,6.13,7,6.75a1.79,1.79,0,0,1,0,2.42,1.6,1.6,0,0,1-2.36,0L275,74l-5.86,5.62a1.6,1.6,0,0,1-2.36,0A1.78,1.78,0,0,1,266.78,77.16Z"/><path class="cls-2" d="M580,78a3,3,0,0,0-1.82.62L573,75.49a2.83,2.83,0,0,0,0-1l5.22-3.13A3,3,0,1,0,577,69a3.15,3.15,0,0,0,0,.49l-5.22,3.13a3,3,0,1,0,0,4.75L577,80.51a3.14,3.14,0,0,0,0,.49,3,3,0,1,0,3-3Z"/><path class="cls-2" d="M535,75.34l-9.15-9.15a1.17,1.17,0,0,0-1.7,0L515,75.34c-.47.48-.29.88.39.88h1.91v7c0,.51,0,.92.94.92h4.44v-7h4.64v7H532c.7,0,.72-.41.72-.92v-7h1.91C535.29,76.22,535.46,75.83,535,75.34Z"/><polygon class="cls-2" points="31 118.1 31 131.9 19 125 31 118.1"/><polygon class="cls-2" points="119 118.1 119 131.9 131 125 119 118.1"/><polygon class="cls-2" points="68.1 131 81.9 131 75 119 68.1 131"/><polygon class="cls-2" points="181.9 119 168.1 119 175 131 181.9 119"/><polygon class="cls-2" points="625 11.8 628.58 21.88 638.2 21.88 630.35 27.8 633.16 38.2 625 31.97 616.84 38.2 619.65 27.8 611.8 21.88 621.42 21.88 625 11.8"/><path class="cls-2" d="M589.1,21.12l-11.17-3-2-7.29a1.17,1.17,0,0,0-1.46-.79L560.9,13.69a1.17,1.17,0,0,0-.87,1.41l4.84,18.08a1.18,1.18,0,0,0,1.46.79l5.42-1.45L571,35.28a1.18,1.18,0,0,0,.87,1.42L584.05,40a1.17,1.17,0,0,0,1.46-.79L590,22.54A1.18,1.18,0,0,0,589.1,21.12Zm-26.65-5.67,11.74-3.14,4.35,16.23L566.8,31.67ZM583.52,37.7,573.29,34.9l.8-3L580,30.33a1.17,1.17,0,0,0,.87-1.42l-2.26-8.44,8.92,2.45Z"/><path class="cls-2" d="M629.09,117.23a7.15,7.15,0,0,0-4.29-1.23,6,6,0,0,0-3.32.87,5.32,5.32,0,0,0-2.28,4.61h3.31a3.38,3.38,0,0,1,.55-1.83,2,2,0,0,1,1.88-.88,2.13,2.13,0,0,1,1.85.71,2.67,2.67,0,0,1,.51,1.58,2.42,2.42,0,0,1-.56,1.38,2.93,2.93,0,0,1-.66.67,15,15,0,0,0-2.58,2.07,4,4,0,0,0-.54,2.49c0,.08,0,.25.31.25h2.57a.28.28,0,0,0,.31-.27,3,3,0,0,1,.14-.87,2.71,2.71,0,0,1,1-1.2l.91-.63a9.82,9.82,0,0,0,1.77-1.58,4.18,4.18,0,0,0,.84-2.5A4.22,4.22,0,0,0,629.09,117.23Zm-4.35,12.69a2,2,0,1,0-.12,4.08,2,2,0,0,0,2.14-2A2,2,0,0,0,624.74,129.92Z"/><path class="cls-2" d="M330.2,74H319.8c-.55,0-.6.45-.6,1s0,1,.6,1h10.4c.55,0,.6-.45.6-1S330.75,74,330.2,74Z"/><path class="cls-2" d="M481.6,36.13a1,1,0,0,1,0,1.47,1,1,0,0,1-1.45,0L468.4,25.73a1,1,0,0,1,0-1.47L480.15,12.4a1,1,0,0,1,1.45,0,1,1,0,0,1,0,1.47L470.89,25Z"/><path class="cls-2" d="M518.4,13.87a1,1,0,0,1,0-1.47,1,1,0,0,1,1.45,0L531.6,24.27a1,1,0,0,1,0,1.47L519.85,37.6a1,1,0,0,1-1.45,0,1,1,0,0,1,0-1.47L529.11,25Z"/><path class="cls-2" d="M386.13,18.4a1,1,0,0,1,1.47,0,1,1,0,0,1,0,1.45L375.73,31.6a1,1,0,0,1-1.47,0L362.4,19.86a1,1,0,0,1,0-1.45,1,1,0,0,1,1.47,0L375,29.11Z"/><path class="cls-2" d="M413.87,31.6a1,1,0,0,1-1.47,0,1,1,0,0,1,0-1.45L424.27,18.4a1,1,0,0,1,1.47,0L437.6,30.15a1,1,0,0,1,0,1.45,1,1,0,0,1-1.47,0L425,20.89Z"/><path class="cls-2" d="M381.84,70.2a1.39,1.39,0,0,1,2,0,1.36,1.36,0,0,1,0,1.94L376,79.8a1.39,1.39,0,0,1-2,0l-7.82-7.66a1.36,1.36,0,0,1,0-1.94,1.39,1.39,0,0,1,2,0L375,76.48Z"/><path class="cls-2" d="M418.16,79.8a1.39,1.39,0,0,1-2,0,1.36,1.36,0,0,1,0-1.94L424,70.2a1.39,1.39,0,0,1,2,0l7.81,7.66a1.36,1.36,0,0,1,0,1.94,1.39,1.39,0,0,1-2,0L425,73.52Z"/><path class="cls-2" d="M215.8,125a9.2,9.2,0,1,0,9.2-9.2A9.2,9.2,0,0,0,215.8,125Zm16.4,0a7.2,7.2,0,1,1-7.2-7.2A7.2,7.2,0,0,1,232.2,125Zm-11-1.8v3.6h4.09V129l3.81-4-3.81-4v2.25Z"/><g class="cls-3"><path d="M315.8,125a9.2,9.2,0,1,0,9.2-9.2A9.2,9.2,0,0,0,315.8,125Zm16.4,0a7.2,7.2,0,1,1-7.2-7.2A7.2,7.2,0,0,1,332.2,125Zm-11-1.8v3.6h4.09V129l3.81-4L325.24,121v2.25Z"/></g><path d="M265.8,125a9.2,9.2,0,1,0,9.2-9.2A9.2,9.2,0,0,0,265.8,125Zm16.4,0a7.2,7.2,0,1,1-7.2-7.2A7.2,7.2,0,0,1,282.2,125Zm-11-1.8v3.6h4.09V129l3.81-4-3.81-4v2.25Z"/><g class="cls-4"><path d="M365.8,125a9.2,9.2,0,1,0,9.2-9.2A9.2,9.2,0,0,0,365.8,125Zm16.4,0a7.2,7.2,0,1,1-7.2-7.2A7.2,7.2,0,0,1,382.2,125Zm-11-1.8v3.6h4.09V129l3.81-4-3.81-4v2.25Z"/></g><path class="cls-2" d="M425,115.8a9.2,9.2,0,1,0,9.2,9.2A9.2,9.2,0,0,0,425,115.8Zm0,16.4a7.2,7.2,0,1,1,7.2-7.2A7.2,7.2,0,0,1,425,132.2Zm1.8-11h-3.6v4.09H421l4,3.81,4-3.81H426.8Z"/><path d="M475,134.2a9.2,9.2,0,1,0-9.2-9.2A9.2,9.2,0,0,0,475,134.2Zm0-16.4a7.2,7.2,0,1,1-7.2,7.2A7.2,7.2,0,0,1,475,117.8Zm-1.8,11h3.6v-4.09H479L475,121l-4,3.81h2.25Z"/><path class="cls-2" d="M575,134.2a9.2,9.2,0,1,0-9.2-9.2A9.2,9.2,0,0,0,575,134.2Zm0-16.4a7.2,7.2,0,1,1-7.2,7.2A7.2,7.2,0,0,1,575,117.8Zm-1.8,11.05h3.6v-4.09h2.25l-4-3.81L571,124.76h2.25Z"/><path d="M525,115.8a9.2,9.2,0,1,0,9.2,9.2A9.2,9.2,0,0,0,525,115.8Zm0,16.4a7.2,7.2,0,1,1,7.2-7.2A7.2,7.2,0,0,1,525,132.2Zm1.8-11.05h-3.6v4.09h-2.25L525,129l4-3.81H526.8Z"/><path class="cls-2" d="M486.41,83.27l-5.72-5.72a9.32,9.32,0,0,0,1.36-4.86A9.86,9.86,0,0,0,472.41,63,9.36,9.36,0,0,0,463,72.41a9.86,9.86,0,0,0,9.65,9.65,9.32,9.32,0,0,0,4.71-1.27l5.75,5.75a1.44,1.44,0,0,0,2,0l1.43-1.42C487.18,84.54,487,83.83,486.41,83.27ZM465.93,72.41a6.48,6.48,0,0,1,6.48-6.48,7,7,0,0,1,6.77,6.77,6.48,6.48,0,0,1-6.48,6.48A7,7,0,0,1,465.93,72.41Z"/><path class="cls-2" d="M631.19,73.38H634V66.53a.78.78,0,0,0-.78-.78H616.8a.78.78,0,0,0-.78.78v6.85h2.8A6.45,6.45,0,0,1,625,78,6.45,6.45,0,0,1,631.19,73.38Z"/><path class="cls-2" d="M629.49,76.37A5.68,5.68,0,0,0,625,78.56a5.68,5.68,0,0,0-4.48-2.19H616v7.11a.78.78,0,0,0,.78.78h16.41a.78.78,0,0,0,.78-.78V76.37Z"/><path class="cls-2" d="M61.86,65.64h1.36a2.74,2.74,0,0,1,2.93,3.09v0a2.82,2.82,0,0,1-2.81,3.15h-.16V75H61.86Zm1.5,5.05c.88,0,1.47-.65,1.47-1.9v0c0-1.3-.56-1.91-1.44-1.91h-.2v3.84Z"/><path class="cls-2" d="M68.54,65.62h1.4L71.8,75H70.48l-.37-2.08H68.34L68,75H66.68Zm1.36,6.11L69.22,68l-.68,3.76Z"/><path class="cls-2" d="M72.51,70.47v-.29c0-3,1.3-4.6,3-4.6a2.72,2.72,0,0,1,1.21.27v1.39a2.26,2.26,0,0,0-1.18-.4c-1,0-1.74,1.07-1.74,3.29v.4c0,2.53.8,3.34,1.64,3.34a.87.87,0,0,0,.31-.05V71h-1V69.85H77v4.84a3.51,3.51,0,0,1-1.56.39C73.83,75.08,72.51,73.68,72.51,70.47Z"/><path class="cls-2" d="M78.25,65.64h3.46v1.24H79.58v2.78h1.91v1.24H79.58v2.85h2.18V75h-3.5Z"/><path class="cls-2" d="M82.61,74.66V73.27a3,3,0,0,0,1.52.55.9.9,0,0,0,1-1v0c0-.54-.17-.92-1-2-1.15-1.37-1.56-2-1.56-3v0a2.13,2.13,0,0,1,2.14-2.29,2.87,2.87,0,0,1,1.44.33v1.39a2.42,2.42,0,0,0-1.3-.46.91.91,0,0,0-1,.95v0c0,.52.17.8,1,1.82,1.24,1.47,1.56,2.1,1.56,3.15v0a2.18,2.18,0,0,1-2.19,2.3A3.53,3.53,0,0,1,82.61,74.66Z"/><g class="cls-5"><path class="cls-2" d="M80.35,85.56h-13a1.09,1.09,0,0,0,0,2.17h13a1.09,1.09,0,1,0,0-2.17m-13-6.51h13a1.08,1.08,0,1,0,0-2.17h-13a1.08,1.08,0,0,0,0,2.17m13,2.17h-13a1.08,1.08,0,0,0,0,2.17h13a1.08,1.08,0,1,0,0-2.17"/></g></svg>