<svg xmlns="http://www.w3.org/2000/svg" xmlns:xlink="http://www.w3.org/1999/xlink" viewBox="0 0 650 50"><defs><style>.cls-1,.cls-2{fill:none;}.cls-2{clip-rule:evenodd;}.cls-3{fill:#3e5193;}.cls-4{fill:#dd4b39;}.cls-5{fill:#0680ab;}.cls-6{clip-path:url(#clip-path);}.cls-7{opacity:0.1;}.cls-8{fill:#f4f4f4;}.cls-9{fill:#25d366;isolation:isolate;}.cls-10{clip-path:url(#clip-path-2);}.cls-11{opacity:0.09;}.cls-12{fill:#005a5f;}.cls-13,.cls-15{fill:#fff;}.cls-13{fill-rule:evenodd;}.cls-14{clip-path:url(#clip-path-3);}.cls-16{clip-path:url(#clip-path-4);}.cls-17{fill:#1da1f2;}.cls-18{clip-path:url(#clip-path-5);}.cls-19{fill:#00abc8;}.cls-20{clip-path:url(#clip-path-6);}.cls-21{clip-path:url(#clip-path-7);}.cls-22{clip-path:url(#clip-path-8);}.cls-23{clip-path:url(#clip-path-9);}.cls-24{clip-path:url(#clip-path-10);}</style><clipPath id="clip-path"><path class="cls-1" d="M175,40a15,15,0,1,0-15-15,15,15,0,0,0,15,15"/></clipPath><clipPath id="clip-path-2"><path class="cls-1" d="M275,40a15,15,0,1,0-15-15,15,15,0,0,0,15,15"/></clipPath><clipPath id="clip-path-3"><path class="cls-1" d="M325,40a15,15,0,1,0-15-15,15,15,0,0,0,15,15"/></clipPath><clipPath id="clip-path-4"><path class="cls-1" d="M75,40A15,15,0,1,0,60,25,15,15,0,0,0,75,40"/></clipPath><clipPath id="clip-path-5"><path class="cls-1" d="M25,40A15,15,0,1,0,10,25,15,15,0,0,0,25,40"/></clipPath><clipPath id="clip-path-6"><path class="cls-1" d="M125,40a15,15,0,1,0-15-15,15,15,0,0,0,15,15"/></clipPath><clipPath id="clip-path-7"><path class="cls-1" d="M225.06,40.21a15,15,0,1,0-15-15,15,15,0,0,0,15,15"/></clipPath><clipPath id="clip-path-8"><path class="cls-2" d="M127.24,26.18a5.41,5.41,0,0,1-5.68,4.75,5.93,5.93,0,1,1,0-11.86,5.71,5.71,0,0,1,4,1.55l-1.72,1.7a3.17,3.17,0,0,0-2.3-.89A3.58,3.58,0,0,0,118,25a3.54,3.54,0,0,0,3.52,3.53,3,3,0,0,0,3.22-2.35h-3.22V23.8h5.66a6.9,6.9,0,0,1,.1,1.2A7.76,7.76,0,0,1,127.24,26.18Z"/></clipPath><clipPath id="clip-path-9"><rect class="cls-1" x="106.18" y="6.69" width="36.67" height="36.67"/></clipPath><clipPath id="clip-path-10"><polygon class="cls-2" points="134.42 25.44 132.33 25.44 132.33 27.52 130.84 27.52 130.84 25.44 128.74 25.44 128.74 23.96 130.84 23.96 130.84 21.89 132.33 21.89 132.33 23.96 134.42 23.96 134.42 25.44"/></clipPath></defs><title>-</title><g id="layer-set-7"><path class="cls-3" d="M25,40A15,15,0,1,0,10,25,15,15,0,0,0,25,40"/><path class="cls-4" d="M125,40a15,15,0,1,0-15-15,15,15,0,0,0,15,15"/><path class="cls-5" d="M175,40a15,15,0,1,0-15-15,15,15,0,0,0,15,15"/><g class="cls-6"><path class="cls-7" d="M188.25,34.92l2.3-2.3-9.24-9.24-3.6,1-1.85-1.85-.65.76-4.84-4.84-2.69,2.1L170.15,23l-.9,6.32.34.53-1.72,2,9.62,9.62,8.18-3,1,1,3-1.82-.46-.46,1-.38Z"/></g><path class="cls-8" d="M170.8,31.89h-2.93V22.53h2.93Zm-1.54-10.53h0a1.62,1.62,0,0,1-1.74-1.62,1.78,1.78,0,1,1,1.76,1.62Zm13.24,10.53h-3.32V27c0-1.27-.52-2.13-1.66-2.13a1.67,1.67,0,0,0-1.58,1.15,2.14,2.14,0,0,0-.07.76v5.06h-3.28s0-8.58,0-9.36h3.28V24a3,3,0,0,1,2.92-1.56c2.08,0,3.71,1.35,3.71,4.24v5.2Z"/><path class="cls-9" d="M275,40a15,15,0,1,0-15-15,15,15,0,0,0,15,15"/><g class="cls-10"><path class="cls-11" d="M280.66,19.09,294.27,32.7,277.73,44.12l-10.9-10.9s1.2-1.37,1.2-1.46.41-2.94.41-2.94L267.53,26l.88-4.66,2.25-2.37s2.06-1,2.16-1,3.47-.16,3.47-.16Z"/></g><path class="cls-12" d="M325,40a15,15,0,1,0-15-15,15,15,0,0,0,15,15"/><path class="cls-13" d="M280.79,19.17A8.14,8.14,0,0,0,268,29l-1.15,4.22,4.31-1.13a8.13,8.13,0,0,0,3.89,1h0a8.14,8.14,0,0,0,5.76-13.9M275,31.7h0a6.75,6.75,0,0,1-3.44-.94l-.25-.15-2.56.67.68-2.5-.16-.26A6.76,6.76,0,1,1,275,31.7m3.71-5.07c-.2-.1-1.2-.59-1.39-.66s-.32-.1-.46.1-.52.66-.64.8-.24.15-.44.05a5.6,5.6,0,0,1-1.64-1A6.13,6.13,0,0,1,273,24.5c-.12-.2,0-.31.09-.41s.2-.24.3-.36a1.42,1.42,0,0,0,.2-.34.37.37,0,0,0,0-.36c-.05-.1-.46-1.1-.63-1.51s-.33-.34-.46-.35h-.39a.75.75,0,0,0-.54.25,2.28,2.28,0,0,0-.71,1.7,4,4,0,0,0,.83,2.1,9.07,9.07,0,0,0,3.47,3.07,11.93,11.93,0,0,0,1.16.43,2.81,2.81,0,0,0,1.28.08,2.1,2.1,0,0,0,1.37-1,1.7,1.7,0,0,0,.12-1c-.05-.09-.19-.14-.39-.24"/><g class="cls-14"><polygon class="cls-7" points="343.45 28.47 331.89 16.91 331.64 16.77 326.15 24.29 322 20.14 321.72 24.48 318.05 28.14 331.2 41.29 333.28 39.42 334.08 40.22 343.45 28.47"/></g><path id="path19359" class="cls-15" d="M319.27,20a.36.36,0,0,0-.32.15.37.37,0,0,0,0,.36l1.6,2.78a0,0,0,0,1,0,0L318,27.77a.37.37,0,0,0,0,.36.35.35,0,0,0,.31.16h2.37a.73.73,0,0,0,.65-.46l2.56-4.53-1.63-2.84a.73.73,0,0,0-.66-.44Z"/><path id="path19375" class="cls-15" d="M329.24,16.77a.7.7,0,0,0-.64.45l-5.28,9.36,3.37,6.18a.74.74,0,0,0,.66.45h2.37a.35.35,0,0,0,.31-.15.37.37,0,0,0,0-.37L326.7,26.6a0,0,0,0,1,0,0l5.25-9.29a.37.37,0,0,0,0-.37.35.35,0,0,0-.32-.15Z"/><g class="cls-16"><path class="cls-17" d="M75,40A15,15,0,1,0,60,25,15,15,0,0,0,75,40"/><polygon class="cls-7" points="67.48 29.72 82.15 44.39 94.07 31.1 82.09 19.12 70.59 30.34 67.48 29.72"/><polygon class="cls-7" points="69.72 27.41 72.11 29.8 74.41 27.5 72.06 26.59 69.72 27.41"/><polygon class="cls-7" points="68.82 25.24 71.21 27.63 73.51 25.33 71.17 24.43 68.82 25.24"/><path class="cls-8" d="M82.51,20.34a6.08,6.08,0,0,1-1.77.49,3.09,3.09,0,0,0,1.36-1.7,6.18,6.18,0,0,1-2,.75A3.08,3.08,0,0,0,74.8,22a3,3,0,0,0,.08.7,8.75,8.75,0,0,1-6.35-3.22,3.09,3.09,0,0,0,1,4.12,3.08,3.08,0,0,1-1.4-.38v0a3.08,3.08,0,0,0,2.47,3,3,3,0,0,1-.81.11,3.13,3.13,0,0,1-.58-.05A3.08,3.08,0,0,0,72,28.44a6.17,6.17,0,0,1-3.83,1.32,6.53,6.53,0,0,1-.74,0A8.77,8.77,0,0,0,81,22.34c0-.13,0-.27,0-.4a6.19,6.19,0,0,0,1.54-1.59"/></g><g class="cls-18"><polygon class="cls-7" points="43.35 32.52 28.61 17.78 25.17 19.75 24.81 22.96 21.38 24.7 24.05 27.38 22.93 32.5 31.27 40.85 34.4 37.73 36.04 39.37 43.35 32.52"/></g><path class="cls-19" d="M225.06,40.21a15,15,0,1,0-15-15,15,15,0,0,0,15,15"/><path class="cls-8" d="M21.37,22.46h1.55V21a4,4,0,0,1,.5-2.32,2.76,2.76,0,0,1,2.41-1.13,9.74,9.74,0,0,1,2.78.28l-.39,2.3A5.21,5.21,0,0,0,27,19.89c-.6,0-1.14.22-1.14.82v1.75H28.3l-.17,2.25h-2.3v7.8H22.92V24.7H21.38V22.46Z"/><line x1="125.58" y1="20.62" x2="117.38" y2="29.29"/><g class="cls-20"><path class="cls-7" d="M139,34l3.2-2.28-9.87-9.87-.73,3.28-1.34.13-4.68-4.68-1,1.05L122.25,20s-3.37.71-3.46.83S117.46,23,117.46,23s-1,1.42-.79,1.71,1,3.29,1.08,3.38l.44.3-.82.87L133.58,45.5l8.88-8Z"/><path class="cls-1" d="M125,40a15,15,0,1,0-15-15,15,15,0,0,0,15,15"/></g><g class="cls-21"><polygon class="cls-7" points="233.38 19.53 227.17 23.52 220.25 20.38 216.58 19.96 222.9 26.27 216.73 30.24 229.85 43.36 244.56 30.72 233.38 19.53"/></g><path class="cls-15" d="M217.06,20.41l7.08,3.92a1.81,1.81,0,0,0,.85.19,1.77,1.77,0,0,0,.85-.2l7.08-3.92c.46-.26.9-1.06.05-1.06H217C216.16,19.35,216.6,20.15,217.06,20.41Zm16.07,1.95-7.28,3.92a2,2,0,0,1-1.71,0l-7.28-3.92c-.37-.2-.37,0-.37.21v7.14a.88.88,0,0,0,.23.53,1,1,0,0,0,.71.41h15.13a1.12,1.12,0,0,0,.94-.93V22.57C233.5,22.39,233.5,22.16,233.13,22.36Z"/><g class="cls-22"><g class="cls-23"><rect class="cls-15" x="110.99" y="14.49" width="20.92" height="21.03"/></g></g><g class="cls-24"><g class="cls-23"><rect class="cls-15" x="124.16" y="17.3" width="14.85" height="14.8"/></g></g></g></svg>