<?xml version="1.0" encoding="UTF-8"?>
<svg xmlns="http://www.w3.org/2000/svg" xmlns:xlink="http://www.w3.org/1999/xlink" version="1.2" >
<font id="Kievit-Regular">
<font-face  font-family="Kievit-Regular" units-per-em="1000" ascent="943.115" descent="-239.99" font-style="normal" font-weight="400" font-stretch="normal" cap-height="750" x-height="500" underline-position="-123" underline-thickness="20" />
<missing-glyph  horiz-adv-x="500" d="" />
<glyph glyph-name="NULL" d="" />
<glyph glyph-name="CR" unicode="&#xd;" horiz-adv-x="250" d="" />
<glyph glyph-name="space" unicode="&#x20;" horiz-adv-x="225" d="" />
<glyph glyph-name="exclam" unicode="&#x21;" horiz-adv-x="275" d="M182 666 L92 666 L108 199 L166 199 L182 666 Z M194 49 C194 80 168 105 137 105 C106 105 80 80 80 49 C80 17 106 -8 137 -8 C168 -8 194 17 194 49 L194 49 Z " />
<glyph glyph-name="quotedbl" unicode="&#x22;" horiz-adv-x="327" d="M284 666 L192 666 L203 444 L261 444 L284 666 Z M135 666 L43 666 L66 444 L124 444 L135 666 Z " />
<glyph glyph-name="numbersign" unicode="&#x23;" horiz-adv-x="494" d="M374 479 L394 610 L335 610 L315 479 L214 479 L234 610 L175 610 L155 479 L59 479 L50 420 L147 420 L130 309 L33 309 L23 250 L121 250 L99 106 L158 106 L180 250 L281 250 L260 106 L319 106 L340 250 L435 250 L445 309 L349 309 L365 420 L461 420 L471 479 L374 479 Z M307 420 L290 309 L189 309 L205 420 L307 420 Z " />
<glyph glyph-name="dollar" unicode="&#x24;" horiz-adv-x="408" d="M178 489 C100 478 52 427 52 361 C52 197 310 221 310 119 C310 75 271 50 202 50 C151 50 105 70 73 93 L41 36 C72 13 117 -7 178 -12 L178 -123 L249 -123 L249 -10 C336 3 384 54 384 129 C384 278 123 263 123 364 C123 406 158 429 213 429 C261 429 304 411 332 390 L367 444 C341 464 300 484 249 490 L249 593 L178 593 L178 489 Z " />
<glyph glyph-name="percent" unicode="&#x25;" horiz-adv-x="746" d="M317 354 C317 418 277 492 177 492 C77 492 34 416 34 352 C34 288 75 213 175 213 C275 213 317 290 317 354 L317 354 Z M712 129 C712 193 672 267 572 267 C472 267 429 191 429 127 C429 63 470 -12 570 -12 C670 -12 712 65 712 129 L712 129 Z M551 480 L488 480 L201 0 L264 0 L551 480 Z M651 127 C651 76 627 36 572 36 C517 36 490 78 490 129 C490 180 515 219 570 219 C625 219 651 178 651 127 L651 127 Z M256 352 C256 301 232 261 177 261 C122 261 95 303 95 354 C95 405 120 444 175 444 C230 444 256 403 256 352 L256 352 Z " />
<glyph glyph-name="ampersand" unicode="&#x26;" horiz-adv-x="625" d="M177 358 C80 304 38 253 38 170 C38 71 121 -12 261 -12 C335 -12 402 16 456 64 L516 0 L614 0 L504 117 C543 169 571 234 583 306 L513 318 C503 261 484 209 458 167 L283 353 C386 412 433 463 433 537 C433 620 364 678 269 678 C167 678 93 617 93 524 C93 465 121 419 177 358 L177 358 Z M411 111 C371 75 322 54 263 54 C168 54 116 106 116 173 C116 235 153 279 217 315 L411 111 Z M244 394 C190 453 172 488 172 528 C172 580 209 617 268 617 C324 617 359 579 359 535 C359 482 326 440 244 394 L244 394 Z " />
<glyph glyph-name="quotesingle" unicode="&#x27;" horiz-adv-x="187" d="M141 666 L46 666 L64 444 L123 444 L141 666 Z " />
<glyph glyph-name="parenleft" unicode="&#x28;" horiz-adv-x="309" d="M306 -177 C196 -52 131 95 131 281 C131 481 222 634 306 720 L236 720 C127 610 55 448 55 280 C55 109 121 -52 236 -177 L306 -177 Z " />
<glyph glyph-name="parenright" unicode="&#x29;" horiz-adv-x="309" d="M4 720 C114 595 179 448 179 262 C179 62 88 -91 4 -177 L74 -177 C184 -67 255 93 255 263 C255 434 189 595 74 720 L4 720 Z " />
<glyph glyph-name="asterisk" unicode="&#x2a;" horiz-adv-x="454" d="M271 475 L408 517 L389 571 L255 524 L259 666 L195 666 L199 524 L65 571 L47 517 L183 475 L98 361 L144 327 L227 446 L310 327 L356 361 L271 475 Z " />
<glyph glyph-name="plus" unicode="&#x2b;" horiz-adv-x="574" d="M532 235 L532 296 L324 296 L324 500 L255 500 L255 296 L42 296 L42 235 L255 235 L255 20 L324 20 L324 235 L532 235 Z " />
<glyph glyph-name="comma" unicode="&#x2c;" horiz-adv-x="220" d="M173 34 C173 84 143 112 107 112 C75 112 51 88 51 58 C51 11 95 4 95 -32 C95 -60 80 -99 54 -135 L105 -135 C148 -82 173 -19 173 34 L173 34 Z " />
<glyph glyph-name="hyphen" unicode="&#x2d;" horiz-adv-x="309" d="M255 255 L255 319 L54 319 L54 255 L255 255 Z " />
<glyph glyph-name="period" unicode="&#x2e;" horiz-adv-x="220" d="M171 52 C171 86 144 112 110 112 C76 112 49 86 49 52 C49 18 76 -9 110 -9 C144 -9 171 18 171 52 L171 52 Z " />
<glyph glyph-name="slash" unicode="&#x2f;" horiz-adv-x="402" d="M376 666 L306 666 L65 0 L135 0 L376 666 Z " />
<glyph glyph-name="zero" unicode="0" horiz-adv-x="570" d="M530 241 C530 357 454 492 285 492 C116 492 40 353 40 239 C40 125 114 -12 283 -12 C452 -12 530 127 530 241 L530 241 Z M452 239 C452 135 396 51 285 51 C174 51 118 137 118 241 C118 345 172 429 283 429 C394 429 452 343 452 239 L452 239 Z " />
<glyph glyph-name="one" unicode="1" horiz-adv-x="323" d="M233 0 L233 480 L173 480 L34 435 L49 374 L160 412 L160 0 L233 0 Z " />
<glyph glyph-name="two" unicode="2" horiz-adv-x="480" d="M438 0 L438 62 L208 62 C183 62 153 59 153 59 C226 121 390 246 390 356 C390 449 313 492 223 492 C165 492 94 463 51 417 L93 370 C128 409 178 428 218 428 C283 428 312 395 312 349 C312 250 105 94 27 28 L27 0 L438 0 Z " />
<glyph glyph-name="three" unicode="3" horiz-adv-x="428" d="M386 23 C386 115 313 179 231 191 L231 192 C292 207 365 272 365 351 C365 424 306 492 196 492 C135 492 75 464 37 424 L75 376 C112 410 149 428 193 428 C254 428 288 396 288 345 C288 261 189 208 115 207 L115 152 C229 152 308 115 308 14 C308 -76 220 -127 121 -127 C91 -127 69 -124 60 -122 L49 -184 C64 -186 84 -188 132 -188 C266 -188 386 -111 386 23 L386 23 Z " />
<glyph glyph-name="four" unicode="4" horiz-adv-x="560" d="M525 0 L525 62 L414 62 L414 480 L354 480 L30 48 L30 0 L341 0 L341 -177 L414 -177 L414 0 L525 0 Z M341 62 L113 62 L339 362 L341 362 L341 62 Z " />
<glyph glyph-name="five" unicode="5" horiz-adv-x="420" d="M380 40 C380 149 309 246 145 246 L156 421 L369 421 L369 480 L89 480 L69 184 C87 186 112 186 125 186 C227 186 303 145 303 36 C303 -70 210 -125 112 -125 C79 -125 65 -122 58 -121 L45 -182 C58 -185 81 -188 105 -188 C281 -188 380 -84 380 40 L380 40 Z " />
<glyph glyph-name="six" unicode="6" horiz-adv-x="509" d="M468 198 C468 314 394 395 271 395 C215 395 161 374 127 343 C145 522 267 617 448 617 L433 678 C186 678 44 509 44 269 C44 136 106 -12 263 -12 C390 -12 468 85 468 198 L468 198 Z M391 188 C391 121 349 51 267 51 C167 51 117 136 122 259 L123 284 C153 308 196 333 262 333 C349 333 391 278 391 188 L391 188 Z " />
<glyph glyph-name="seven" unicode="7" horiz-adv-x="446" d="M406 428 L406 480 L16 480 L16 415 L325 415 L51 -167 L114 -198 L406 428 Z " />
<glyph glyph-name="eight" unicode="8" horiz-adv-x="511" d="M455 167 C455 239 409 300 310 356 C397 406 440 456 440 519 C440 604 376 678 253 678 C159 678 73 611 73 515 C73 456 104 404 193 350 C103 298 55 230 55 162 C55 76 118 -12 254 -12 C371 -12 455 59 455 167 L455 167 Z M379 168 C379 105 336 52 257 52 C180 52 130 101 130 167 C130 222 165 268 244 319 C346 264 379 216 379 168 L379 168 Z M365 514 C365 474 333 432 258 388 C175 436 149 473 149 515 C149 573 193 615 258 615 C327 615 365 569 365 514 L365 514 Z " />
<glyph glyph-name="nine" unicode="9" horiz-adv-x="511" d="M464 210 C464 340 412 492 251 492 C130 492 42 399 42 286 C42 172 116 86 237 86 C286 86 332 100 381 136 C362 -43 219 -126 49 -126 L63 -186 C318 -186 464 -29 464 210 L464 210 Z M387 219 L386 194 C348 163 297 148 247 148 C160 148 120 208 120 288 C120 374 179 429 247 429 C343 429 392 340 387 219 L387 219 Z " />
<glyph glyph-name="colon" unicode="&#x3a;" horiz-adv-x="225" d="M173 427 C173 461 146 488 112 488 C78 488 51 461 51 427 C51 393 78 366 112 366 C146 366 173 393 173 427 L173 427 Z M173 53 C173 87 146 113 112 113 C78 113 51 87 51 53 C51 19 78 -9 112 -9 C146 -9 173 19 173 53 L173 53 Z " />
<glyph glyph-name="semicolon" unicode="&#x3b;" horiz-adv-x="225" d="M176 34 C176 84 146 112 110 112 C78 112 54 88 54 58 C54 11 98 4 98 -32 C98 -62 82 -101 57 -135 L108 -135 C148 -85 176 -22 176 34 L176 34 Z M173 427 C173 461 146 488 112 488 C78 488 51 461 51 427 C51 393 78 366 112 366 C146 366 173 393 173 427 L173 427 Z " />
<glyph glyph-name="less" unicode="&#x3c;" horiz-adv-x="361" d="M318 73 L118 249 L318 426 L277 468 L27 246 L277 27 L318 73 Z " />
<glyph glyph-name="equal" unicode="&#x3d;" horiz-adv-x="459" d="M424 316 L424 379 L35 379 L35 316 L424 316 Z M424 153 L424 216 L35 216 L35 153 L424 153 Z " />
<glyph glyph-name="greater" unicode="&#x3e;" horiz-adv-x="361" d="M43 422 L243 246 L43 69 L84 27 L334 249 L84 468 L43 422 Z " />
<glyph glyph-name="question" unicode="&#x3f;" horiz-adv-x="405" d="M355 508 C355 606 288 678 159 678 C122 678 81 669 45 651 L72 593 C98 606 129 614 154 614 C229 614 277 580 277 504 C277 435 235 409 182 377 C122 341 108 308 108 256 L108 193 L179 193 L179 248 C179 287 189 305 229 329 C277 357 355 403 355 508 L355 508 Z M202 49 C202 80 176 105 145 105 C114 105 88 80 88 49 C88 17 114 -8 145 -8 C176 -8 202 17 202 49 L202 49 Z " />
<glyph glyph-name="at" unicode="&#x40;" horiz-adv-x="765" d="M729 319 C729 451 615 619 403 619 C193 619 40 437 40 240 C40 58 163 -91 369 -91 C445 -91 515 -72 552 -57 L529 -6 C497 -20 438 -35 380 -35 C207 -35 106 84 106 243 C106 420 251 564 403 564 C552 564 672 458 672 312 C672 219 625 139 558 139 C527 139 505 171 505 209 C505 231 512 264 519 304 L544 443 C515 450 469 464 427 464 C285 464 215 326 215 198 C215 141 248 83 309 83 C370 83 421 130 448 195 L450 195 C450 130 488 83 555 83 C657 83 729 193 729 319 L729 319 Z M476 403 L472 383 C454 291 406 145 327 145 C299 145 288 180 288 209 C288 313 340 413 421 413 C435 413 465 407 476 403 L476 403 Z " />
<glyph glyph-name="A" unicode="A" horiz-adv-x="627" d="M159 165 L462 165 L523 0 L608 0 L352 666 L276 666 L21 0 L98 0 L159 165 Z M437 231 L184 231 L269 459 C288 510 299 541 310 574 L312 574 C323 543 332 515 353 459 L437 231 Z " />
<glyph glyph-name="B" unicode="B" horiz-adv-x="572" d="M519 187 C519 279 453 337 371 351 L371 353 C444 372 490 422 490 500 C490 620 396 666 272 666 L96 666 L96 0 L269 0 C418 0 519 51 519 187 L519 187 Z M438 185 C438 101 385 65 267 65 L173 65 L173 316 L273 316 C395 316 438 265 438 185 L438 185 Z M410 495 C410 417 366 380 264 380 L173 380 L173 601 L266 601 C360 601 410 569 410 495 L410 495 Z " />
<glyph glyph-name="C" unicode="C" horiz-adv-x="615" d="M579 55 L543 111 C504 78 452 54 380 54 C214 54 135 191 135 337 C135 481 217 613 377 613 C440 613 488 596 527 569 L566 628 C517 659 464 678 379 678 C174 678 53 515 53 335 C53 155 170 -12 378 -12 C471 -12 544 23 579 55 L579 55 Z " />
<glyph glyph-name="D" unicode="D" horiz-adv-x="679" d="M629 341 C629 533 514 666 252 666 L96 666 L96 0 L247 0 C513 0 629 149 629 341 L629 341 Z M547 339 C547 159 446 64 254 64 L174 64 L174 602 L249 602 C452 602 547 520 547 339 L547 339 Z " />
<glyph glyph-name="E" unicode="E" horiz-adv-x="503" d="M445 0 L445 66 L174 66 L174 320 L406 320 L406 386 L174 386 L174 600 L438 600 L438 666 L96 666 L96 0 L445 0 Z " />
<glyph glyph-name="F" unicode="F" horiz-adv-x="490" d="M445 600 L445 666 L96 666 L96 0 L174 0 L174 320 L410 320 L410 386 L174 386 L174 600 L445 600 Z " />
<glyph glyph-name="G" unicode="G" horiz-adv-x="707" d="M629 57 L629 348 L408 348 L408 282 L551 282 L551 95 C517 70 459 54 386 54 C213 54 135 193 135 337 C135 480 212 613 386 613 C456 613 505 599 557 558 L598 615 C544 657 476 678 388 678 C175 678 53 516 53 335 C53 157 173 -12 384 -12 C493 -12 579 15 629 57 L629 57 Z " />
<glyph glyph-name="H" unicode="H" horiz-adv-x="725" d="M629 0 L629 666 L551 666 L551 384 L174 384 L174 666 L96 666 L96 0 L174 0 L174 318 L551 318 L551 0 L629 0 Z " />
<glyph glyph-name="I" unicode="I" horiz-adv-x="282" d="M180 0 L180 666 L102 666 L102 0 L180 0 Z " />
<glyph glyph-name="J" unicode="J" horiz-adv-x="283" d="M187 -14 L187 666 L109 666 L109 -2 C109 -83 84 -120 30 -120 C12 -120 -2 -116 -9 -113 L-21 -180 C-13 -184 8 -190 36 -190 C136 -190 187 -126 187 -14 L187 -14 Z " />
<glyph glyph-name="K" unicode="K" horiz-adv-x="569" d="M444 666 L176 347 L456 0 L553 0 L267 352 L535 666 L444 666 Z M173 0 L173 666 L96 666 L96 0 L173 0 Z " />
<glyph glyph-name="L" unicode="L" horiz-adv-x="473" d="M436 0 L436 66 L174 66 L174 666 L96 666 L96 0 L436 0 Z " />
<glyph glyph-name="M" unicode="M" horiz-adv-x="852" d="M461 0 L619 437 C634 479 642 506 649 529 L651 529 C653 509 656 484 662 436 L719 0 L798 0 L708 666 L634 666 L469 213 C449 158 438 126 427 90 L425 90 C413 128 403 157 383 213 L218 666 L145 666 L54 0 L127 0 L180 434 C185 479 188 505 190 529 L192 529 C200 506 208 480 224 437 L386 0 L461 0 Z " />
<glyph glyph-name="N" unicode="N" horiz-adv-x="711" d="M617 0 L617 666 L545 666 L545 207 C545 158 548 130 549 117 L547 117 C535 137 516 170 485 215 L171 666 L94 666 L94 0 L166 0 L166 488 C166 520 163 548 162 561 L164 561 C176 540 196 503 216 475 L545 0 L617 0 Z " />
<glyph glyph-name="O" unicode="O" horiz-adv-x="760" d="M707 334 C707 517 584 678 379 678 C174 678 53 515 53 332 C53 149 176 -12 381 -12 C586 -12 707 151 707 334 L707 334 Z M625 332 C625 182 538 53 379 53 C220 53 135 184 135 334 C135 484 222 613 381 613 C540 613 625 482 625 332 L625 332 Z " />
<glyph glyph-name="P" unicode="P" horiz-adv-x="542" d="M497 474 C497 602 397 666 263 666 L96 666 L96 0 L174 0 L174 269 L252 269 C407 269 497 343 497 474 L497 474 Z M417 471 C417 383 369 335 252 335 L174 335 L174 600 L255 600 C373 600 417 547 417 471 L417 471 Z " />
<glyph glyph-name="Q" unicode="Q" horiz-adv-x="760" d="M456 -4 C615 30 707 175 707 334 C707 517 584 678 379 678 C174 678 53 515 53 332 C53 152 172 -6 370 -12 C460 -125 534 -162 624 -162 C675 -162 714 -146 735 -128 L706 -70 C694 -80 664 -98 625 -98 C549 -98 506 -67 456 -4 L456 -4 Z M625 332 C625 182 538 53 379 53 C220 53 135 184 135 334 C135 484 222 613 381 613 C540 613 625 482 625 332 L625 332 Z " />
<glyph glyph-name="R" unicode="R" horiz-adv-x="570" d="M546 0 L381 230 C342 284 324 304 311 313 L311 315 C417 321 498 378 498 489 C498 601 416 666 277 666 L96 666 L96 0 L174 0 L174 307 L185 307 C230 307 242 299 320 189 L454 0 L546 0 Z M418 487 C418 413 373 371 274 371 L174 371 L174 600 L268 600 C370 600 418 561 418 487 L418 487 Z " />
<glyph glyph-name="S" unicode="S" horiz-adv-x="499" d="M451 167 C451 297 349 342 261 384 C195 415 141 446 141 512 C141 573 191 613 257 613 C327 613 372 585 395 567 L433 625 C411 642 357 678 258 678 C156 678 64 617 64 508 C64 402 138 359 219 319 C296 281 372 247 372 166 C372 107 318 53 236 53 C147 53 99 98 84 112 L44 56 C68 33 131 -12 233 -12 C362 -12 451 62 451 167 L451 167 Z " />
<glyph glyph-name="T" unicode="T" horiz-adv-x="497" d="M477 600 L477 666 L20 666 L20 600 L209 600 L209 0 L288 0 L288 600 L477 600 Z " />
<glyph glyph-name="U" unicode="U" horiz-adv-x="690" d="M600 253 L600 666 L527 666 L527 245 C527 133 470 55 350 55 C225 55 168 121 168 259 L168 666 L90 666 L90 249 C90 93 166 -12 348 -12 C521 -12 600 90 600 253 L600 253 Z " />
<glyph glyph-name="V" unicode="V" horiz-adv-x="616" d="M598 666 L521 666 L354 207 C335 154 322 112 315 90 L313 90 C306 111 293 154 273 207 L102 666 L18 666 L274 0 L350 0 L598 666 Z " />
<glyph glyph-name="W" unicode="W" horiz-adv-x="875" d="M853 666 L776 666 L661 224 C647 170 639 112 638 107 L636 107 C635 112 623 172 608 224 L482 666 L402 666 L274 221 C260 172 246 110 245 105 L243 105 C242 110 231 172 219 221 L106 666 L21 666 L203 0 L274 0 L406 450 C422 505 438 573 439 578 L441 578 C442 573 455 503 470 450 L599 0 L670 0 L853 666 Z " />
<glyph glyph-name="X" unicode="X" horiz-adv-x="565" d="M286 408 L125 666 L36 666 L236 345 L25 0 L107 0 L275 282 L451 0 L540 0 L325 345 L520 666 L438 666 L286 408 Z " />
<glyph glyph-name="Y" unicode="Y" horiz-adv-x="555" d="M537 666 L462 666 L284 326 L283 326 L105 666 L18 666 L241 252 L241 0 L319 0 L319 252 L537 666 Z " />
<glyph glyph-name="Z" unicode="Z" horiz-adv-x="561" d="M514 0 L514 64 L133 64 L502 615 L502 666 L63 666 L63 602 L410 602 L46 55 L46 0 L514 0 Z " />
<glyph glyph-name="bracketleft" unicode="&#x5b;" horiz-adv-x="306" d="M281 -161 L281 -104 L151 -104 L151 663 L281 663 L281 720 L80 720 L80 -161 L281 -161 Z " />
<glyph glyph-name="backslash" unicode="&#x5c;" horiz-adv-x="402" d="M7 720 L325 -161 L395 -161 L77 720 L7 720 Z " />
<glyph glyph-name="bracketright" unicode="&#x5d;" horiz-adv-x="306" d="M25 720 L25 663 L155 663 L155 -104 L25 -104 L25 -161 L226 -161 L226 720 L25 720 Z " />
<glyph glyph-name="asciicircum" unicode="&#x5e;" horiz-adv-x="584" d="M522 288 L317 666 L266 666 L61 288 L128 288 L292 589 L456 288 L522 288 Z " />
<glyph glyph-name="underscore" unicode="&#x5f;" horiz-adv-x="395" d="M396 -159 L396 -98 L-1 -98 L-1 -159 L396 -159 Z " />
<glyph glyph-name="grave" unicode="&#x60;" horiz-adv-x="500" d="M350 540 L258 666 L149 666 L284 540 L350 540 Z " />
<glyph glyph-name="a" unicode="a" horiz-adv-x="472" d="M405 0 C399 23 394 61 394 109 L394 333 C394 442 335 492 230 492 C163 492 108 470 61 426 L100 375 C143 413 181 427 225 427 C291 427 321 398 321 327 L321 282 L300 282 C184 282 44 244 44 117 C44 39 101 -12 181 -12 C240 -12 293 18 325 58 C326 43 329 13 332 0 L405 0 Z M321 120 C290 79 247 51 193 51 C164 51 122 69 122 119 C122 200 197 228 300 228 L321 228 L321 120 Z " />
<glyph glyph-name="b" unicode="b" horiz-adv-x="519" d="M79 720 L79 25 C111 5 171 -12 237 -12 C377 -12 479 96 479 242 C479 391 403 492 272 492 C226 492 180 471 152 442 L152 720 L79 720 Z M152 379 C174 403 218 426 258 426 C362 426 401 341 401 240 C401 143 347 51 238 51 C201 51 171 57 152 66 L152 379 Z " />
<glyph glyph-name="c" unicode="c" horiz-adv-x="440" d="M409 36 L379 91 C365 80 322 51 262 51 C162 51 118 140 118 242 C118 347 161 429 260 429 C316 429 348 408 373 389 L408 444 C385 462 340 492 261 492 C142 492 40 404 40 240 C40 108 116 -12 258 -12 C342 -12 390 20 409 36 L409 36 Z " />
<glyph glyph-name="d" unicode="d" horiz-adv-x="523" d="M40 239 C40 79 123 -12 238 -12 C296 -12 344 14 377 55 C378 37 383 10 386 0 L459 0 C453 25 447 65 447 98 L447 720 L374 720 L374 450 C343 478 302 492 252 492 C131 492 40 391 40 239 L40 239 Z M118 241 C118 349 168 429 259 429 C308 429 344 413 374 385 L374 120 C343 78 296 54 253 54 C157 54 118 132 118 241 L118 241 Z " />
<glyph glyph-name="e" unicode="e" horiz-adv-x="490" d="M118 242 L443 242 C456 392 385 492 256 492 C128 492 40 384 40 243 C40 101 116 -12 267 -12 C354 -12 408 21 432 37 L402 94 C381 81 336 51 269 51 C161 51 120 140 118 242 L118 242 Z M122 300 C135 375 177 429 254 429 C337 429 368 368 370 300 L122 300 Z " />
<glyph glyph-name="f" unicode="f" horiz-adv-x="317" d="M355 719 C347 723 322 732 275 732 C164 732 100 661 100 551 L100 480 L20 480 L20 422 L100 422 L100 0 L173 0 L173 422 L295 422 L295 480 L173 480 L173 546 C173 625 209 668 273 668 C307 668 330 659 336 656 L355 719 Z " />
<glyph glyph-name="g" unicode="g" horiz-adv-x="505" d="M317 480 C294 488 269 492 242 492 C125 492 50 417 50 316 C50 252 81 197 135 167 C108 151 86 124 86 92 C86 55 103 34 129 21 C81 -6 47 -49 47 -103 C47 -198 132 -237 239 -237 C363 -237 475 -177 475 -78 C475 71 330 62 225 68 C187 70 157 80 157 106 C157 122 167 135 189 146 C206 142 223 140 242 140 C359 140 434 215 434 316 C434 356 422 393 399 422 L473 422 L473 480 L317 480 Z M359 316 C359 249 316 200 242 200 C168 200 125 249 125 316 C125 383 168 432 242 432 C316 432 359 383 359 316 L359 316 Z M184 6 C213 2 246 1 277 -1 C333 -4 401 -5 401 -81 C401 -140 337 -179 242 -179 C156 -179 119 -141 119 -95 C119 -54 140 -20 184 6 L184 6 Z " />
<glyph glyph-name="h" unicode="h" horiz-adv-x="527" d="M449 0 L449 342 C449 425 409 492 308 492 C224 492 173 438 152 411 L152 720 L79 720 L79 0 L152 0 L152 338 C162 352 217 426 291 426 C355 426 376 388 376 328 L376 0 L449 0 Z " />
<glyph glyph-name="i" unicode="i" horiz-adv-x="250" d="M162 0 L162 480 L88 480 L88 0 L162 0 Z M125 678 C95 678 71 654 71 624 C71 594 95 570 125 570 C155 570 179 594 179 624 C179 654 155 678 125 678 L125 678 Z " />
<glyph glyph-name="j" unicode="j" horiz-adv-x="239" d="M157 -64 L157 480 L84 480 L84 -51 C84 -124 67 -167 14 -167 C-6 -167 -15 -164 -20 -162 L-32 -223 C-28 -225 -13 -230 20 -230 C118 -230 157 -163 157 -64 L157 -64 Z M119 678 C89 678 65 654 65 624 C65 594 89 570 119 570 C149 570 173 594 173 624 C173 654 149 678 119 678 L119 678 Z " />
<glyph glyph-name="k" unicode="k" horiz-adv-x="468" d="M152 0 L152 720 L79 720 L79 0 L152 0 Z M157 268 L362 0 L451 0 L242 268 L442 480 L355 480 L157 268 Z " />
<glyph glyph-name="l" unicode="l" horiz-adv-x="241" d="M157 0 L157 720 L84 720 L84 0 L157 0 Z " />
<glyph glyph-name="m" unicode="m" horiz-adv-x="793" d="M425 411 C409 456 372 492 302 492 C220 492 176 438 155 412 L155 480 L82 480 L82 0 L155 0 L155 339 C165 353 215 426 285 426 C341 426 362 388 362 328 L362 0 L435 0 L435 351 C458 380 504 426 563 426 C624 426 642 386 642 328 L642 0 L715 0 L715 342 C715 427 677 492 580 492 C510 492 462 452 425 411 L425 411 Z " />
<glyph glyph-name="n" unicode="n" horiz-adv-x="530" d="M452 0 L452 342 C452 425 412 492 311 492 C252 492 198 465 155 411 L155 480 L82 480 L82 0 L155 0 L155 338 C189 385 240 426 294 426 C358 426 379 388 379 328 L379 0 L452 0 Z " />
<glyph glyph-name="o" unicode="o" horiz-adv-x="528" d="M488 241 C488 353 421 492 259 492 C97 492 40 351 40 239 C40 127 100 -12 262 -12 C424 -12 488 129 488 241 L488 241 Z M410 239 C410 136 363 51 263 51 C163 51 118 138 118 241 C118 344 158 429 258 429 C358 429 410 342 410 239 L410 239 Z " />
<glyph glyph-name="p" unicode="p" horiz-adv-x="529" d="M489 241 C489 400 411 492 294 492 C225 492 180 458 155 428 L155 480 L82 480 L82 -219 L155 -219 L155 30 C173 14 209 -12 277 -12 C401 -12 489 90 489 241 L489 241 Z M411 239 C411 131 362 51 270 51 C211 51 177 75 155 95 L155 359 C168 377 212 426 279 426 C370 426 411 346 411 239 L411 239 Z " />
<glyph glyph-name="q" unicode="q" horiz-adv-x="522" d="M440 -217 L440 455 C431 461 377 492 282 492 C145 492 40 384 40 238 C40 91 116 -12 247 -12 C301 -12 346 16 367 38 L367 -217 L440 -217 Z M367 101 C360 92 315 54 261 54 C157 54 118 139 118 240 C118 337 172 429 281 429 C332 429 358 416 367 412 L367 101 Z " />
<glyph glyph-name="r" unicode="r" horiz-adv-x="345" d="M333 482 C327 485 312 492 283 492 C216 492 174 437 155 405 L155 480 L82 480 L82 0 L155 0 L155 322 C161 337 201 420 273 420 C298 420 310 415 315 412 L333 482 Z " />
<glyph glyph-name="s" unicode="s" horiz-adv-x="408" d="M364 129 C364 210 293 244 215 277 C162 299 123 318 123 363 C123 404 152 429 203 429 C257 429 293 406 310 393 L346 446 C331 458 283 492 204 492 C108 492 52 434 52 360 C52 278 109 244 184 212 C254 182 290 163 290 119 C290 75 252 50 192 50 C134 50 91 76 73 89 L41 33 C71 12 124 -13 193 -13 C298 -13 364 42 364 129 L364 129 Z " />
<glyph glyph-name="t" unicode="t" horiz-adv-x="348" d="M325 17 L298 72 C290 66 263 51 233 51 C191 51 177 74 177 122 L177 422 L298 422 L298 480 L177 480 L177 617 L104 617 L104 480 L25 480 L25 422 L104 422 L104 115 C104 35 144 -12 224 -12 C276 -12 311 8 325 17 L325 17 Z " />
<glyph glyph-name="u" unicode="u" horiz-adv-x="528" d="M76 480 L76 138 C76 55 116 -12 218 -12 C301 -12 352 41 374 71 C375 47 379 12 381 0 L455 0 C451 19 446 60 446 101 L446 480 L373 480 L373 142 C363 128 308 54 235 54 C170 54 149 92 149 152 L149 480 L76 480 Z " />
<glyph glyph-name="v" unicode="v" horiz-adv-x="462" d="M233 96 L96 480 L16 480 L199 0 L267 0 L444 480 L369 480 L235 96 L233 96 Z " />
<glyph glyph-name="w" unicode="w" horiz-adv-x="698" d="M677 480 L603 480 L500 116 L498 116 L385 480 L314 480 L201 117 L199 117 L97 480 L17 480 L160 0 L226 0 L346 373 L348 373 L467 0 L533 0 L677 480 Z " />
<glyph glyph-name="x" unicode="x" horiz-adv-x="462" d="M188 251 L22 0 L98 0 L223 199 L358 0 L441 0 L267 256 L417 480 L340 480 L231 308 C225 317 115 480 115 480 L32 480 L188 251 Z " />
<glyph glyph-name="y" unicode="y" horiz-adv-x="469" d="M453 480 L375 480 L242 97 L240 97 L103 480 L21 480 L202 3 L179 -60 C153 -131 125 -169 58 -169 C34 -169 28 -167 21 -166 L11 -227 C20 -229 32 -232 57 -232 C175 -232 216 -153 249 -64 L453 480 Z " />
<glyph glyph-name="z" unicode="z" horiz-adv-x="423" d="M379 0 L379 59 L130 59 L375 431 L375 480 L56 480 L56 421 L286 421 L42 46 L42 0 L379 0 Z " />
<glyph glyph-name="braceleft" unicode="&#x7b;" horiz-adv-x="358" d="M333 -161 L333 -104 L266 -104 C220 -104 210 -78 210 -29 L210 158 C210 233 169 269 110 286 L110 288 C168 303 210 336 210 409 L210 584 C210 632 220 663 267 663 L333 663 L333 720 L246 720 C193 720 139 688 139 613 L139 422 C139 354 95 314 28 313 L28 257 C97 256 139 213 139 148 L139 -53 C139 -128 194 -161 247 -161 L333 -161 Z " />
<glyph glyph-name="bar" unicode="&#x7c;" horiz-adv-x="284" d="M172 -250 L172 750 L112 750 L112 -250 L172 -250 Z " />
<glyph glyph-name="braceright" unicode="&#x7d;" horiz-adv-x="358" d="M25 720 L25 663 L92 663 C138 663 148 637 148 588 L148 412 C148 337 189 301 248 284 L248 282 C190 267 148 234 148 161 L148 -25 C148 -73 138 -104 91 -104 L25 -104 L25 -161 L112 -161 C165 -161 219 -129 219 -54 L219 148 C219 216 263 256 330 257 L330 313 C261 314 219 357 219 422 L219 612 C219 687 164 720 111 720 L25 720 Z " />
<glyph glyph-name="asciitilde" unicode="&#x7e;" horiz-adv-x="588" d="M533 239 L499 284 C470 260 436 243 404 243 C311 243 277 312 186 312 C133 312 85 280 55 253 L91 208 C113 228 140 248 180 248 C254 248 290 178 398 178 C446 178 497 204 533 239 L533 239 Z " />
<glyph glyph-name="nbspace" unicode="&#xa0;" horiz-adv-x="225" d="" />
<glyph glyph-name="exclamdown" unicode="&#xa1;" horiz-adv-x="275" d="M93 -182 L183 -182 L167 285 L109 285 L93 -182 Z M81 435 C81 404 107 379 138 379 C169 379 195 404 195 435 C195 467 169 492 138 492 C107 492 81 467 81 435 L81 435 Z " />
<glyph glyph-name="cent" unicode="&#xa2;" horiz-adv-x="440" d="M284 491 L284 593 L213 593 L213 487 C116 466 40 381 40 240 C40 123 98 15 213 -8 L213 -123 L284 -123 L284 -11 C352 -5 392 22 409 36 L379 91 C365 80 322 51 262 51 C162 51 118 140 118 242 C118 347 161 429 260 429 C316 429 348 408 373 389 L408 444 C387 460 349 486 284 491 L284 491 Z " />
<glyph glyph-name="sterling" unicode="&#xa3;" horiz-adv-x="468" d="M224 356 C219 402 213 449 213 492 C213 564 240 614 307 614 C358 614 385 600 404 588 L437 644 C413 659 377 678 317 678 C191 678 137 600 137 494 C137 445 143 399 149 356 L61 356 L61 297 L157 297 C160 279 161 261 161 245 C161 180 132 92 54 49 L54 0 L416 0 L416 62 L158 62 C187 85 233 148 233 248 C233 264 232 280 231 297 L375 297 L375 356 L224 356 Z " />
<glyph glyph-name="currency" unicode="&#xa4;" horiz-adv-x="583" d="M108 365 C107 355 107 345 107 335 C107 318 108 301 109 284 L39 284 L39 225 L119 225 C149 92 237 -12 389 -12 C479 -12 522 17 553 37 L517 93 C492 76 450 54 391 54 C285 54 225 128 201 225 L374 225 L374 284 L190 284 C189 301 188 319 188 337 C188 346 188 356 189 365 L374 365 L374 424 L196 424 C216 530 277 613 387 613 C453 613 490 589 511 577 L545 638 C513 658 473 678 389 678 C231 678 141 566 115 424 L39 424 L39 365 L108 365 Z " />
<glyph glyph-name="yen" unicode="&#xa5;" horiz-adv-x="520" d="M302 95 L463 95 L463 154 L302 154 L302 225 L463 225 L463 284 L319 284 L521 666 L446 666 L268 326 L266 326 L89 666 L2 666 L208 284 L65 284 L65 225 L226 225 L226 154 L65 154 L65 95 L226 95 L226 0 L302 0 L302 95 Z " />
<glyph glyph-name="brokenbar" unicode="&#xa6;" horiz-adv-x="177" d="M117 128 L57 128 L57 -250 L117 -250 L117 128 Z M117 382 L117 750 L57 750 L57 382 L117 382 Z " />
<glyph glyph-name="section" unicode="&#xa7;" horiz-adv-x="468" d="M398 216 C398 366 175 477 175 586 C175 625 200 669 258 669 C305 669 324 652 340 641 L375 697 C353 714 317 732 258 732 C185 732 104 680 104 581 C104 542 120 511 136 488 C106 468 68 426 68 364 C68 215 290 102 290 -5 C290 -51 264 -88 205 -88 C167 -88 140 -74 122 -63 L90 -119 C112 -134 152 -152 205 -152 C282 -152 361 -107 361 0 C361 31 347 64 331 90 C355 112 398 154 398 216 L398 216 Z M327 216 C327 182 313 159 293 141 C251 192 140 298 140 364 C140 404 152 425 172 439 C216 388 327 285 327 216 L327 216 Z " />
<glyph glyph-name="dieresis" unicode="&#xa8;" horiz-adv-x="500" d="M397 592 C397 621 373 645 343 645 C314 645 290 621 290 592 C290 562 314 538 343 538 C373 538 397 562 397 592 L397 592 Z M210 592 C210 621 186 645 156 645 C127 645 103 621 103 592 C103 562 127 538 156 538 C186 538 210 562 210 592 L210 592 Z " />
<glyph glyph-name="copyright" unicode="&#xa9;" horiz-adv-x="865" d="M805 359 C805 565 638 732 432 732 C227 732 60 565 60 359 C60 153 227 -14 432 -14 C638 -14 805 153 805 359 L805 359 Z M749 359 C749 172 614 38 432 38 C251 38 116 172 116 359 C116 545 251 680 432 680 C614 680 749 545 749 359 L749 359 Z M591 179 L560 230 C538 212 503 186 444 186 C353 186 283 264 283 361 C283 441 333 532 439 532 C493 532 522 511 543 493 L581 541 C548 567 510 591 440 591 C311 591 211 489 211 359 C211 233 307 127 440 127 C513 127 558 153 591 179 L591 179 Z " />
<glyph glyph-name="ordfeminine" unicode="&#xaa;" horiz-adv-x="361" d="M238 323 L300 323 C295 344 291 372 291 405 L291 562 C291 641 246 678 169 678 C105 678 65 648 46 632 L79 590 C96 603 123 625 166 625 C215 625 231 600 231 557 L231 530 C168 530 107 521 70 490 C49 472 34 446 34 411 C34 355 80 315 139 315 C182 315 214 338 233 358 C234 347 236 333 238 323 L238 323 Z M231 484 L231 411 C219 397 192 367 147 367 C119 367 97 384 97 413 C97 430 101 442 111 453 C135 479 175 484 231 484 L231 484 Z " />
<glyph glyph-name="guillemotleft" unicode="&#xab;" horiz-adv-x="476" d="M433 56 L301 245 L433 435 L356 435 L223 245 L356 56 L433 56 Z M255 56 L123 245 L255 435 L178 435 L45 245 L178 56 L255 56 Z " />
<glyph glyph-name="logicalnot" unicode="&#xac;" horiz-adv-x="588" d="M538 33 L538 301 L40 301 L40 237 L470 237 L470 33 L538 33 Z " />
<glyph glyph-name="registered" unicode="&#xae;" horiz-adv-x="865" d="M805 359 C805 565 638 732 432 732 C227 732 60 565 60 359 C60 153 227 -14 432 -14 C638 -14 805 153 805 359 L805 359 Z M749 359 C749 172 614 38 432 38 C251 38 116 172 116 359 C116 545 251 680 432 680 C614 680 749 545 749 359 L749 359 Z M621 136 L516 285 C497 311 483 329 463 344 C538 354 583 395 583 461 C583 528 536 588 444 588 L297 588 L297 136 L362 136 L362 339 C397 339 410 328 433 295 L542 136 L621 136 Z M513 461 C513 396 459 390 408 390 L362 390 L362 532 L429 532 C491 532 513 503 513 461 L513 461 Z " />
<glyph glyph-name="macron" unicode="&#xaf;" horiz-adv-x="500" d="M385 574 L385 635 L114 635 L114 574 L385 574 Z " />
<glyph glyph-name="degree" unicode="&#xb0;" horiz-adv-x="346" d="M304 548 C304 619 245 678 173 678 C101 678 42 619 42 548 C42 477 101 418 173 418 C246 418 304 477 304 548 L304 548 Z M249 548 C249 504 217 469 173 469 C129 469 97 504 97 548 C97 591 129 627 173 627 C217 627 249 591 249 548 L249 548 Z " />
<glyph glyph-name="plusminus" unicode="&#xb1;" horiz-adv-x="574" d="M532 235 L532 296 L324 296 L324 500 L255 500 L255 296 L42 296 L42 235 L255 235 L255 20 L324 20 L324 235 L532 235 Z M507 -115 L507 -51 L72 -51 L72 -115 L507 -115 Z " />
<glyph glyph-name="twosuperior" unicode="&#xb2;" horiz-adv-x="370" d="M321 342 L321 393 L181 393 C168 393 150 393 138 391 C216 451 289 516 289 577 C289 647 235 677 172 677 C111 677 65 641 46 621 L82 581 C99 598 127 621 169 621 C203 621 224 609 224 576 C224 522 115 435 30 370 L30 342 L321 342 Z " />
<glyph glyph-name="threesuperior" unicode="&#xb3;" horiz-adv-x="299" d="M53 336 C68 333 93 330 117 330 C195 330 257 368 257 438 C257 476 228 510 174 518 L174 520 C219 533 244 561 244 593 C244 638 210 675 135 675 C99 675 60 658 41 645 L64 605 C84 616 108 624 133 624 C170 624 185 614 185 589 C185 552 147 536 87 535 L87 493 C160 493 194 480 194 436 C194 399 164 379 117 379 C95 379 76 383 62 387 L53 336 Z " />
<glyph glyph-name="acute" unicode="&#xb4;" horiz-adv-x="500" d="M149 540 L215 540 L350 666 L241 666 L149 540 Z " />
<glyph glyph-name="mu" unicode="&#xb5;" horiz-adv-x="547" d="M455 0 C452 17 448 64 448 96 L448 480 L375 480 L375 141 C347 107 292 54 224 54 C161 54 151 98 151 144 L151 480 L78 480 L78 -207 L151 -207 L151 -106 C151 -71 150 -18 148 5 L150 5 C167 -6 192 -12 217 -12 C299 -12 351 43 375 69 C376 46 380 10 382 0 L455 0 Z " />
<glyph glyph-name="paragraph" unicode="&#xb6;" horiz-adv-x="644" d="M579 603 L579 666 L260 666 C152 666 65 588 65 469 C65 350 153 274 260 274 L260 -177 L328 -177 L328 603 L432 603 L432 -177 L499 -177 L499 603 L579 603 Z " />
<glyph glyph-name="periodcentered" unicode="&#xb7;" horiz-adv-x="220" d="M171 291 C171 325 144 351 110 351 C76 351 49 325 49 291 C49 257 76 230 110 230 C144 230 171 257 171 291 L171 291 Z " />
<glyph glyph-name="cedilla" unicode="&#xb8;" horiz-adv-x="500" d="M336 -136 C336 -98 307 -72 266 -66 L291 0 L240 0 L204 -96 C239 -95 275 -100 275 -137 C275 -163 255 -176 225 -176 C199 -176 181 -170 172 -165 L160 -207 C171 -212 190 -219 226 -219 C286 -219 336 -190 336 -136 L336 -136 Z " />
<glyph glyph-name="onesuperior" unicode="&#xb9;" horiz-adv-x="253" d="M191 342 L191 666 L146 666 L43 635 L53 586 L130 609 L130 342 L191 342 Z " />
<glyph glyph-name="ordmasculine" unicode="&#xba;" horiz-adv-x="393" d="M195 315 C309 315 358 409 358 498 C358 586 307 679 193 679 C79 679 35 585 35 496 C35 408 81 315 195 315 L195 315 Z M192 626 C259 626 290 572 290 496 C290 420 263 367 196 367 C129 367 102 422 102 498 C102 574 125 626 192 626 L192 626 Z " />
<glyph glyph-name="guillemotright" unicode="&#xbb;" horiz-adv-x="476" d="M431 245 L297 435 L221 435 L353 245 L221 56 L297 56 L431 245 Z M253 245 L119 435 L43 435 L175 245 L43 56 L119 56 L253 245 Z " />
<glyph glyph-name="onequarter" unicode="&#xbc;" horiz-adv-x="698" d="M644 67 L644 113 L596 113 L596 332 L540 332 L365 108 L365 67 L535 67 L535 0 L596 0 L596 67 L644 67 Z M572 666 L511 666 L94 0 L155 0 L572 666 Z M191 342 L191 666 L146 666 L43 635 L53 586 L130 609 L130 342 L191 342 Z M534 113 L465 113 C450 113 435 112 427 111 L533 248 L534 248 L534 113 Z " />
<glyph glyph-name="onehalf" unicode="&#xbd;" horiz-adv-x="718" d="M673 0 L673 51 L533 51 C520 51 502 51 490 49 C568 109 641 174 641 235 C641 305 587 335 524 335 C463 335 417 299 398 279 L434 239 C451 256 479 279 521 279 C555 279 576 267 576 234 C576 180 467 93 382 28 L382 0 L673 0 Z M556 666 L495 666 L78 0 L139 0 L556 666 Z M191 342 L191 666 L146 666 L43 635 L53 586 L130 609 L130 342 L191 342 Z " />
<glyph glyph-name="threequarters" unicode="&#xbe;" horiz-adv-x="708" d="M607 68 L656 68 L656 113 L607 113 L607 340 L552 340 L371 109 L371 68 L546 68 L546 0 L607 0 L607 68 Z M597 666 L536 666 L119 0 L180 0 L597 666 Z M53 336 C68 333 93 330 117 330 C195 330 257 368 257 438 C257 476 228 510 174 518 L174 520 C219 533 244 561 244 593 C244 638 210 675 135 675 C99 675 60 658 41 645 L64 605 C84 616 108 624 133 624 C170 624 185 614 185 589 C185 552 147 536 87 535 L87 493 C160 493 194 480 194 436 C194 399 164 379 117 379 C95 379 76 383 62 387 L53 336 Z M545 113 L473 113 C459 113 441 112 432 111 L543 258 L545 258 L545 113 Z " />
<glyph glyph-name="questiondown" unicode="&#xbf;" horiz-adv-x="400" d="M50 -24 C50 -122 117 -194 246 -194 C295 -194 336 -179 360 -167 L333 -109 C315 -118 283 -130 251 -130 C176 -130 128 -96 128 -20 C128 49 170 75 223 107 C283 143 297 176 297 228 L297 291 L226 291 L226 236 C226 197 216 179 176 155 C128 127 50 81 50 -24 L50 -24 Z M203 435 C203 404 229 379 260 379 C291 379 317 404 317 435 C317 467 291 492 260 492 C229 492 203 467 203 435 L203 435 Z " />
<glyph glyph-name="Agrave" unicode="&#xc0;" horiz-adv-x="627" d="M159 165 L462 165 L523 0 L608 0 L352 666 L276 666 L21 0 L98 0 L159 165 Z M437 231 L184 231 L269 459 C290 514 310 574 310 574 L312 574 C312 574 332 515 353 459 L437 231 Z M369 720 L277 846 L168 846 L303 720 L369 720 Z " />
<glyph glyph-name="Aacute" unicode="&#xc1;" horiz-adv-x="627" d="M159 165 L462 165 L523 0 L608 0 L352 666 L276 666 L21 0 L98 0 L159 165 Z M437 231 L184 231 L269 459 C290 514 310 574 310 574 L312 574 C312 574 332 515 353 459 L437 231 Z M249 720 L315 720 L450 846 L341 846 L249 720 Z " />
<glyph glyph-name="Acircumflex" unicode="&#xc2;" horiz-adv-x="627" d="M159 165 L462 165 L523 0 L608 0 L352 666 L276 666 L21 0 L98 0 L159 165 Z M437 231 L184 231 L269 459 C290 514 310 574 310 574 L312 574 C312 574 332 515 353 459 L437 231 Z M457 721 L336 874 L282 874 L159 721 L228 721 L307 806 L388 721 L457 721 Z " />
<glyph glyph-name="Atilde" unicode="&#xc3;" horiz-adv-x="627" d="M159 165 L462 165 L523 0 L608 0 L352 666 L276 666 L21 0 L98 0 L159 165 Z M437 231 L184 231 L269 459 C290 514 310 574 310 574 L312 574 C312 574 332 515 353 459 C353 459 438 231 437 231 L437 231 Z M453 781 L414 819 C406 809 390 788 363 788 C325 788 307 827 257 827 C211 827 181 792 163 767 L202 730 C211 739 228 762 251 762 C290 762 309 723 357 723 C404 723 432 754 453 781 L453 781 Z " />
<glyph glyph-name="Adieresis" unicode="&#xc4;" horiz-adv-x="627" d="M159 165 L462 165 L523 0 L608 0 L352 666 L276 666 L21 0 L98 0 L159 165 Z M437 231 L184 231 L269 459 C290 514 310 574 310 574 L312 574 C312 574 332 515 353 459 L437 231 Z M455 772 C455 801 431 825 401 825 C372 825 348 801 348 772 C348 742 372 718 401 718 C431 718 455 742 455 772 L455 772 Z M268 772 C268 801 244 825 214 825 C185 825 161 801 161 772 C161 742 185 718 214 718 C244 718 268 742 268 772 L268 772 Z " />
<glyph glyph-name="Aring" unicode="&#xc5;" horiz-adv-x="627" d="M159 165 L462 165 L523 0 L608 0 L352 666 L276 666 L21 0 L98 0 L159 165 Z M437 231 L184 231 L269 459 C290 514 310 574 310 574 L312 574 C312 574 332 515 353 459 L437 231 Z M403 798 C403 851 358 893 308 893 C258 893 213 851 213 798 C213 745 258 703 308 703 C358 703 403 745 403 798 L403 798 Z M358 798 C358 769 339 743 308 743 C277 743 258 769 258 798 C258 828 277 853 308 853 C339 853 358 828 358 798 L358 798 Z " />
<glyph glyph-name="AE" unicode="&#xc6;" horiz-adv-x="815" d="M172 182 L408 182 L408 0 L757 0 L757 66 L486 66 L486 320 L718 320 L718 386 L486 386 L486 600 L750 600 L750 666 L368 666 L-15 0 L70 0 L172 182 Z M408 247 L209 247 L408 602 L408 247 Z " />
<glyph glyph-name="Ccedilla" unicode="&#xc7;" horiz-adv-x="615" d="M325 -8 L292 -96 C327 -95 363 -100 363 -137 C363 -163 343 -176 313 -176 C287 -176 269 -170 260 -165 L248 -207 C259 -212 278 -219 314 -219 C374 -219 424 -190 424 -136 C424 -98 395 -72 354 -66 L374 -12 L378 -12 C471 -12 544 23 579 55 L543 111 C504 78 452 54 380 54 C214 54 135 191 135 337 C135 481 217 613 377 613 C440 613 488 596 527 569 L566 628 C517 659 464 678 379 678 C174 678 53 515 53 335 C53 171 150 18 325 -8 L325 -8 Z " />
<glyph glyph-name="Egrave" unicode="&#xc8;" horiz-adv-x="503" d="M445 0 L445 66 L174 66 L174 320 L406 320 L406 386 L174 386 L174 600 L438 600 L438 666 L96 666 L96 0 L445 0 Z M328 720 L236 846 L127 846 L262 720 L328 720 Z " />
<glyph glyph-name="Eacute" unicode="&#xc9;" horiz-adv-x="503" d="M445 0 L445 66 L174 66 L174 320 L406 320 L406 386 L174 386 L174 600 L438 600 L438 666 L96 666 L96 0 L445 0 Z M221 720 L287 720 L422 846 L313 846 L221 720 Z " />
<glyph glyph-name="Ecircumflex" unicode="&#xca;" horiz-adv-x="503" d="M445 0 L445 66 L174 66 L174 320 L406 320 L406 386 L174 386 L174 600 L438 600 L438 666 L96 666 L96 0 L445 0 Z M422 721 L301 874 L247 874 L124 721 L193 721 L272 806 L353 721 L422 721 Z " />
<glyph glyph-name="Edieresis" unicode="&#xcb;" horiz-adv-x="503" d="M445 0 L445 66 L174 66 L174 320 L406 320 L406 386 L174 386 L174 600 L438 600 L438 666 L96 666 L96 0 L445 0 Z M227 772 C227 801 203 825 173 825 C144 825 120 801 120 772 C120 742 144 718 173 718 C203 718 227 742 227 772 L227 772 Z M414 772 C414 801 390 825 360 825 C331 825 307 801 307 772 C307 742 331 718 360 718 C390 718 414 742 414 772 L414 772 Z " />
<glyph glyph-name="Igrave" unicode="&#xcc;" horiz-adv-x="282" d="M180 0 L180 666 L102 666 L102 0 L180 0 Z M202 720 L110 846 L1 846 L136 720 L202 720 Z " />
<glyph glyph-name="Iacute" unicode="&#xcd;" horiz-adv-x="282" d="M180 0 L180 666 L102 666 L102 0 L180 0 Z M91 720 L157 720 L292 846 L183 846 L91 720 Z " />
<glyph glyph-name="Icircumflex" unicode="&#xce;" horiz-adv-x="282" d="M180 0 L180 666 L102 666 L102 0 L180 0 Z M290 721 L169 874 L115 874 L-8 721 L61 721 L140 806 L221 721 L290 721 Z " />
<glyph glyph-name="Idieresis" unicode="&#xcf;" horiz-adv-x="282" d="M180 0 L180 666 L102 666 L102 0 L180 0 Z M101 772 C101 801 77 825 47 825 C18 825 -6 801 -6 772 C-6 742 18 718 47 718 C77 718 101 742 101 772 L101 772 Z M288 772 C288 801 264 825 234 825 C205 825 181 801 181 772 C181 742 205 718 234 718 C264 718 288 742 288 772 L288 772 Z " />
<glyph glyph-name="Eth" unicode="&#xd0;" horiz-adv-x="657" d="M96 314 L96 0 L247 0 C513 0 629 149 629 341 C629 533 514 666 252 666 L96 666 L96 372 L26 372 L26 314 L96 314 Z M174 372 L174 602 L249 602 C452 602 547 520 547 339 C547 159 446 64 254 64 L174 64 L174 314 L285 314 L285 372 L174 372 Z " />
<glyph glyph-name="Ntilde" unicode="&#xd1;" horiz-adv-x="711" d="M617 0 L617 666 L545 666 L545 207 C545 156 549 117 549 117 L547 117 C547 117 516 170 485 215 L171 666 L94 666 L94 0 L166 0 L166 488 C166 521 162 561 162 561 L164 561 C164 561 193 508 216 475 L545 0 L617 0 Z M500 781 L461 819 C453 809 437 788 410 788 C372 788 354 827 304 827 C258 827 228 792 210 767 L249 730 C258 739 275 762 298 762 C337 762 356 723 404 723 C451 723 479 754 500 781 L500 781 Z " />
<glyph glyph-name="Ograve" unicode="&#xd2;" horiz-adv-x="760" d="M707 334 C707 517 584 678 379 678 C174 678 53 515 53 332 C53 149 176 -12 381 -12 C586 -12 707 151 707 334 L707 334 Z M625 332 C625 182 538 53 379 53 C220 53 135 184 135 334 C135 484 222 613 381 613 C540 613 625 482 625 332 L625 332 Z M427 720 L335 846 L226 846 L361 720 L427 720 Z " />
<glyph glyph-name="Oacute" unicode="&#xd3;" horiz-adv-x="760" d="M707 334 C707 517 584 678 379 678 C174 678 53 515 53 332 C53 149 176 -12 381 -12 C586 -12 707 151 707 334 L707 334 Z M625 332 C625 182 538 53 379 53 C220 53 135 184 135 334 C135 484 222 613 381 613 C540 613 625 482 625 332 L625 332 Z M324 720 L390 720 L525 846 L416 846 L324 720 Z " />
<glyph glyph-name="Ocircumflex" unicode="&#xd4;" horiz-adv-x="760" d="M707 334 C707 517 584 678 379 678 C174 678 53 515 53 332 C53 149 176 -12 381 -12 C586 -12 707 151 707 334 L707 334 Z M625 332 C625 182 538 53 379 53 C220 53 135 184 135 334 C135 484 222 613 381 613 C540 613 625 482 625 332 L625 332 Z M529 721 L408 874 L354 874 L231 721 L300 721 L379 806 L460 721 L529 721 Z " />
<glyph glyph-name="Otilde" unicode="&#xd5;" horiz-adv-x="760" d="M707 334 C707 517 584 678 379 678 C174 678 53 515 53 332 C53 149 176 -12 381 -12 C586 -12 707 151 707 334 L707 334 Z M625 332 C625 182 538 53 379 53 C220 53 135 184 135 334 C135 484 222 613 381 613 C540 613 625 482 625 332 L625 332 Z M525 781 L486 819 C478 809 462 788 435 788 C397 788 379 827 329 827 C283 827 253 792 235 767 L274 730 C283 739 300 762 323 762 C362 762 381 723 429 723 C476 723 504 754 525 781 L525 781 Z " />
<glyph glyph-name="Odieresis" unicode="&#xd6;" horiz-adv-x="760" d="M707 334 C707 517 584 678 379 678 C174 678 53 515 53 332 C53 149 176 -12 381 -12 C586 -12 707 151 707 334 L707 334 Z M625 332 C625 182 538 53 379 53 C220 53 135 184 135 334 C135 484 222 613 381 613 C540 613 625 482 625 332 L625 332 Z M527 772 C527 801 503 825 473 825 C444 825 420 801 420 772 C420 742 444 718 473 718 C503 718 527 742 527 772 L527 772 Z M340 772 C340 801 316 825 286 825 C257 825 233 801 233 772 C233 742 257 718 286 718 C316 718 340 742 340 772 L340 772 Z " />
<glyph glyph-name="multiply" unicode="&#xd7;" horiz-adv-x="511" d="M428 398 L383 443 L254 314 L124 443 L76 395 L205 265 L76 136 L121 91 L250 220 L387 84 L436 132 L299 269 L428 398 Z " />
<glyph glyph-name="Oslash" unicode="&#xd8;" horiz-adv-x="760" d="M177 56 L117 -34 L160 -65 L222 27 C267 2 320 -12 381 -12 C586 -12 707 151 707 334 C707 434 670 528 603 592 L668 688 L624 721 L560 626 C511 659 450 678 379 678 C174 678 53 515 53 332 C53 222 97 120 177 56 L177 56 Z M217 112 C162 164 133 244 133 334 C133 485 221 614 381 614 C438 614 486 598 524 570 L217 112 Z M562 534 C605 483 627 411 627 332 C627 181 539 52 379 52 C332 52 292 63 258 82 L562 534 Z " />
<glyph glyph-name="Ugrave" unicode="&#xd9;" horiz-adv-x="690" d="M600 253 L600 666 L527 666 L527 245 C527 133 470 55 350 55 C225 55 168 121 168 259 L168 666 L90 666 L90 249 C90 93 166 -12 348 -12 C521 -12 600 90 600 253 L600 253 Z M399 720 L307 846 L198 846 L333 720 L399 720 Z " />
<glyph glyph-name="Uacute" unicode="&#xda;" horiz-adv-x="690" d="M600 253 L600 666 L527 666 L527 245 C527 133 470 55 350 55 C225 55 168 121 168 259 L168 666 L90 666 L90 249 C90 93 166 -12 348 -12 C521 -12 600 90 600 253 L600 253 Z M285 720 L351 720 L486 846 L377 846 L285 720 Z " />
<glyph glyph-name="Ucircumflex" unicode="&#xdb;" horiz-adv-x="690" d="M600 253 L600 666 L527 666 L527 245 C527 133 470 55 350 55 C225 55 168 121 168 259 L168 666 L90 666 L90 249 C90 93 166 -12 348 -12 C521 -12 600 90 600 253 L600 253 Z M505 721 L384 874 L330 874 L207 721 L276 721 L355 806 L436 721 L505 721 Z " />
<glyph glyph-name="Udieresis" unicode="&#xdc;" horiz-adv-x="690" d="M600 253 L600 666 L527 666 L527 245 C527 133 470 55 350 55 C225 55 168 121 168 259 L168 666 L90 666 L90 249 C90 93 166 -12 348 -12 C521 -12 600 90 600 253 L600 253 Z M307 772 C307 801 283 825 253 825 C224 825 200 801 200 772 C200 742 224 718 253 718 C283 718 307 742 307 772 L307 772 Z M494 772 C494 801 470 825 440 825 C411 825 387 801 387 772 C387 742 411 718 440 718 C470 718 494 742 494 772 L494 772 Z " />
<glyph glyph-name="Yacute" unicode="&#xdd;" horiz-adv-x="558" d="M537 666 L462 666 L284 326 L283 326 L105 666 L18 666 L241 252 L241 0 L319 0 L319 252 L537 666 Z M216 720 L282 720 L417 846 L308 846 L216 720 Z " />
<glyph glyph-name="Thorn" unicode="&#xde;" horiz-adv-x="530" d="M497 359 C497 487 397 551 263 551 L174 551 L174 666 L96 666 L96 0 L174 0 L174 154 L252 154 C407 154 497 228 497 359 L497 359 Z M417 356 C417 268 369 220 252 220 L174 220 L174 485 L255 485 C373 485 417 432 417 356 L417 356 Z " />
<glyph glyph-name="germandbls" unicode="&#xdf;" horiz-adv-x="547" d="M507 130 C507 207 443 244 384 277 C323 311 303 321 303 353 C303 384 330 401 370 429 C414 460 461 498 461 577 C461 661 403 732 285 732 C173 732 86 655 86 496 L86 0 L159 0 L159 494 C159 614 212 667 283 667 C356 667 387 629 387 571 C387 526 367 502 334 477 C289 443 233 415 233 345 C233 283 282 254 331 227 C391 194 433 173 433 122 C433 74 395 51 341 51 C295 51 265 70 247 81 L216 22 C236 8 273 -12 338 -12 C448 -12 507 44 507 130 L507 130 Z " />
<glyph glyph-name="agrave" unicode="&#xe0;" horiz-adv-x="472" d="M405 0 C399 23 394 61 394 109 L394 333 C394 442 335 492 230 492 C136 492 85 448 61 426 L100 375 C118 390 157 427 225 427 C300 427 321 388 321 327 L321 282 L300 282 C184 282 44 244 44 117 C44 39 101 -12 181 -12 C253 -12 303 30 325 58 C326 43 329 13 332 0 L405 0 Z M321 120 C305 99 264 51 193 51 C164 51 122 69 122 119 C122 200 197 228 300 228 L321 228 L321 120 Z M273 540 L181 666 L72 666 L207 540 L273 540 Z " />
<glyph glyph-name="aacute" unicode="&#xe1;" horiz-adv-x="472" d="M405 0 C399 23 394 61 394 109 L394 333 C394 442 335 492 230 492 C136 492 85 448 61 426 L100 375 C118 390 157 427 225 427 C300 427 321 388 321 327 L321 282 L300 282 C184 282 44 244 44 117 C44 39 101 -12 181 -12 C253 -12 303 30 325 58 C326 43 329 13 332 0 L405 0 Z M321 120 C305 99 264 51 193 51 C164 51 122 69 122 119 C122 200 197 228 300 228 L321 228 L321 120 Z M186 540 L252 540 L387 666 L278 666 L186 540 Z " />
<glyph glyph-name="acircumflex" unicode="&#xe2;" horiz-adv-x="472" d="M405 0 C399 23 394 61 394 109 L394 333 C394 442 335 492 230 492 C136 492 85 448 61 426 L100 375 C118 390 157 427 225 427 C300 427 321 388 321 327 L321 282 L300 282 C184 282 44 244 44 117 C44 39 101 -12 181 -12 C253 -12 303 30 325 58 C326 43 329 13 332 0 L405 0 Z M321 120 C305 99 264 51 193 51 C164 51 122 69 122 119 C122 200 197 228 300 228 L321 228 L321 120 Z M385 541 L264 694 L210 694 L87 541 L156 541 L235 626 L316 541 L385 541 Z " />
<glyph glyph-name="atilde" unicode="&#xe3;" horiz-adv-x="472" d="M405 0 C399 23 394 61 394 109 L394 333 C394 442 335 492 230 492 C136 492 85 448 61 426 L100 375 C118 390 157 427 225 427 C300 427 321 388 321 327 L321 282 L300 282 C184 282 44 244 44 117 C44 39 101 -12 181 -12 C253 -12 303 30 325 58 C326 43 329 13 332 0 L405 0 Z M321 120 C305 99 264 51 193 51 C164 51 122 69 122 119 C122 200 197 228 300 228 L321 228 L321 120 Z M369 601 L330 639 C322 629 306 608 279 608 C241 608 223 647 173 647 C127 647 97 612 79 587 L118 550 C127 559 144 582 167 582 C206 582 225 543 273 543 C320 543 348 574 369 601 L369 601 Z " />
<glyph glyph-name="adieresis" unicode="&#xe4;" horiz-adv-x="472" d="M405 0 C399 23 394 61 394 109 L394 333 C394 442 335 492 230 492 C136 492 85 448 61 426 L100 375 C118 390 157 427 225 427 C300 427 321 388 321 327 L321 282 L300 282 C184 282 44 244 44 117 C44 39 101 -12 181 -12 C253 -12 303 30 325 58 C326 43 329 13 332 0 L405 0 Z M321 120 C305 99 264 51 193 51 C164 51 122 69 122 119 C122 200 197 228 300 228 L321 228 L321 120 Z M377 592 C377 621 353 645 323 645 C294 645 270 621 270 592 C270 562 294 538 323 538 C353 538 377 562 377 592 L377 592 Z M190 592 C190 621 166 645 136 645 C107 645 83 621 83 592 C83 562 107 538 136 538 C166 538 190 562 190 592 L190 592 Z " />
<glyph glyph-name="aring" unicode="&#xe5;" horiz-adv-x="472" d="M405 0 C399 23 394 61 394 109 L394 333 C394 442 335 492 230 492 C136 492 85 448 61 426 L100 375 C118 390 157 427 225 427 C300 427 321 388 321 327 L321 282 L300 282 C184 282 44 244 44 117 C44 39 101 -12 181 -12 C253 -12 303 30 325 58 C326 43 329 13 332 0 L405 0 Z M321 120 C305 99 264 51 193 51 C164 51 122 69 122 119 C122 200 197 228 300 228 L321 228 L321 120 Z M328 640 C328 693 283 735 233 735 C183 735 138 693 138 640 C138 587 183 545 233 545 C283 545 328 587 328 640 L328 640 Z M283 640 C283 611 264 585 233 585 C202 585 183 611 183 640 C183 670 202 695 233 695 C264 695 283 670 283 640 L283 640 Z " />
<glyph glyph-name="ae" unicode="&#xe6;" horiz-adv-x="770" d="M376 414 C351 468 302 492 230 492 C136 492 85 448 61 426 L100 375 C118 390 157 427 225 427 C300 427 322 388 322 327 L322 282 L300 282 C184 282 44 244 44 117 C44 39 101 -12 181 -12 C263 -12 323 34 364 84 C402 26 464 -12 547 -12 C634 -12 688 21 712 37 L682 94 C661 81 616 51 549 51 C441 51 400 140 398 242 L723 242 C736 390 665 492 536 492 C470 492 414 462 376 414 L376 414 Z M320 228 C322 196 328 166 338 136 C309 91 263 51 193 51 C164 51 122 69 122 119 C122 200 197 228 300 228 L320 228 Z M402 300 C415 375 457 429 534 429 C617 429 648 368 650 300 L402 300 Z " />
<glyph glyph-name="ccedilla" unicode="&#xe7;" horiz-adv-x="440" d="M210 -7 L177 -96 C212 -95 248 -100 248 -137 C248 -163 228 -176 198 -176 C172 -176 154 -170 145 -165 L133 -207 C144 -212 163 -219 199 -219 C259 -219 309 -190 309 -136 C309 -98 280 -72 239 -66 L259 -12 C342 -12 390 20 409 36 L379 91 C365 80 322 51 262 51 C162 51 118 140 118 242 C118 347 161 429 260 429 C316 429 348 408 373 389 L408 444 C385 462 340 492 261 492 C142 492 40 404 40 240 C40 124 99 17 210 -7 L210 -7 Z " />
<glyph glyph-name="egrave" unicode="&#xe8;" horiz-adv-x="490" d="M118 242 L443 242 C456 392 385 492 256 492 C128 492 40 384 40 243 C40 101 116 -12 267 -12 C354 -12 408 21 432 37 L402 94 C381 81 336 51 269 51 C161 51 120 140 118 242 L118 242 Z M122 300 C135 375 177 429 254 429 C337 429 368 368 370 300 L122 300 Z M315 540 L223 666 L114 666 L249 540 L315 540 Z " />
<glyph glyph-name="eacute" unicode="&#xe9;" horiz-adv-x="490" d="M118 242 L443 242 C456 392 385 492 256 492 C128 492 40 384 40 243 C40 101 116 -12 267 -12 C354 -12 408 21 432 37 L402 94 C381 81 336 51 269 51 C161 51 120 140 118 242 L118 242 Z M122 300 C135 375 177 429 254 429 C337 429 368 368 370 300 L122 300 Z M213 540 L279 540 L414 666 L305 666 L213 540 Z " />
<glyph glyph-name="ecircumflex" unicode="&#xea;" horiz-adv-x="490" d="M118 242 L443 242 C456 392 385 492 256 492 C128 492 40 384 40 243 C40 101 116 -12 267 -12 C354 -12 408 21 432 37 L402 94 C381 81 336 51 269 51 C161 51 120 140 118 242 L118 242 Z M122 300 C135 375 177 429 254 429 C337 429 368 368 370 300 L122 300 Z M403 541 L282 694 L228 694 L105 541 L174 541 L253 626 L334 541 L403 541 Z " />
<glyph glyph-name="edieresis" unicode="&#xeb;" horiz-adv-x="490" d="M118 242 L443 242 C456 392 385 492 256 492 C128 492 40 384 40 243 C40 101 116 -12 267 -12 C354 -12 408 21 432 37 L402 94 C381 81 336 51 269 51 C161 51 120 140 118 242 L118 242 Z M122 300 C135 375 177 429 254 429 C337 429 368 368 370 300 L122 300 Z M398 592 C398 621 374 645 344 645 C315 645 291 621 291 592 C291 562 315 538 344 538 C374 538 398 562 398 592 L398 592 Z M211 592 C211 621 187 645 157 645 C128 645 104 621 104 592 C104 562 128 538 157 538 C187 538 211 562 211 592 L211 592 Z " />
<glyph glyph-name="igrave" unicode="&#xec;" horiz-adv-x="250" d="M162 0 L162 480 L88 480 L88 0 L162 0 Z M175 540 L83 666 L-26 666 L109 540 L175 540 Z " />
<glyph glyph-name="iacute" unicode="&#xed;" horiz-adv-x="250" d="M162 0 L162 480 L88 480 L88 0 L162 0 Z M82 540 L148 540 L283 666 L174 666 L82 540 Z " />
<glyph glyph-name="icircumflex" unicode="&#xee;" horiz-adv-x="250" d="M162 0 L162 480 L88 480 L88 0 L162 0 Z M275 541 L154 694 L100 694 L-23 541 L46 541 L125 626 L206 541 L275 541 Z " />
<glyph glyph-name="idieresis" unicode="&#xef;" horiz-adv-x="250" d="M162 0 L162 480 L88 480 L88 0 L162 0 Z M86 592 C86 621 62 645 32 645 C3 645 -21 621 -21 592 C-21 562 3 538 32 538 C62 538 86 562 86 592 L86 592 Z M273 592 C273 621 249 645 219 645 C190 645 166 621 166 592 C166 562 190 538 219 538 C249 538 273 562 273 592 L273 592 Z " />
<glyph glyph-name="eth" unicode="&#xf0;" horiz-adv-x="538" d="M297 610 C354 568 392 503 409 416 C377 459 324 485 257 485 C134 485 40 395 40 239 C40 85 139 -12 261 -12 C422 -12 496 134 496 300 C496 460 445 583 351 656 L410 706 L372 750 L300 689 C245 717 179 732 103 732 L88 671 C147 671 200 661 244 641 L180 587 L218 543 L297 610 Z M419 323 L419 307 C419 134 359 51 264 51 C177 51 118 121 118 241 C118 351 169 422 252 422 C333 422 386 382 419 323 L419 323 Z " />
<glyph glyph-name="ntilde" unicode="&#xf1;" horiz-adv-x="530" d="M452 0 L452 342 C452 425 412 492 311 492 C227 492 176 438 155 411 L155 480 L82 480 L82 0 L155 0 L155 338 C165 352 220 426 294 426 C358 426 379 388 379 328 L379 0 L452 0 Z M402 601 L363 639 C355 629 339 608 312 608 C274 608 256 647 206 647 C160 647 130 612 112 587 L151 550 C160 559 177 582 200 582 C239 582 258 543 306 543 C353 543 381 574 402 601 L402 601 Z " />
<glyph glyph-name="ograve" unicode="&#xf2;" horiz-adv-x="528" d="M488 241 C488 353 421 492 259 492 C97 492 40 351 40 239 C40 127 100 -12 262 -12 C424 -12 488 129 488 241 L488 241 Z M410 239 C410 136 363 51 263 51 C163 51 118 138 118 241 C118 344 158 429 258 429 C358 429 410 342 410 239 L410 239 Z M311 540 L219 666 L110 666 L245 540 L311 540 Z " />
<glyph glyph-name="oacute" unicode="&#xf3;" horiz-adv-x="528" d="M488 241 C488 353 421 492 259 492 C97 492 40 351 40 239 C40 127 100 -12 262 -12 C424 -12 488 129 488 241 L488 241 Z M410 239 C410 136 363 51 263 51 C163 51 118 138 118 241 C118 344 158 429 258 429 C358 429 410 342 410 239 L410 239 Z M226 540 L292 540 L427 666 L318 666 L226 540 Z " />
<glyph glyph-name="ocircumflex" unicode="&#xf4;" horiz-adv-x="528" d="M488 241 C488 353 421 492 259 492 C97 492 40 351 40 239 C40 127 100 -12 262 -12 C424 -12 488 129 488 241 L488 241 Z M410 239 C410 136 363 51 263 51 C163 51 118 138 118 241 C118 344 158 429 258 429 C358 429 410 342 410 239 L410 239 Z M411 541 L290 694 L236 694 L113 541 L182 541 L261 626 L342 541 L411 541 Z " />
<glyph glyph-name="otilde" unicode="&#xf5;" horiz-adv-x="528" d="M488 241 C488 353 421 492 259 492 C97 492 40 351 40 239 C40 127 100 -12 262 -12 C424 -12 488 129 488 241 L488 241 Z M410 239 C410 136 363 51 263 51 C163 51 118 138 118 241 C118 344 158 429 258 429 C358 429 410 342 410 239 L410 239 Z M403 601 L364 639 C356 629 340 608 313 608 C275 608 257 647 207 647 C161 647 131 612 113 587 L152 550 C161 559 178 582 201 582 C240 582 259 543 307 543 C354 543 382 574 403 601 L403 601 Z " />
<glyph glyph-name="odieresis" unicode="&#xf6;" horiz-adv-x="528" d="M488 241 C488 353 421 492 259 492 C97 492 40 351 40 239 C40 127 100 -12 262 -12 C424 -12 488 129 488 241 L488 241 Z M410 239 C410 136 363 51 263 51 C163 51 118 138 118 241 C118 344 158 429 258 429 C358 429 410 342 410 239 L410 239 Z M406 592 C406 621 382 645 352 645 C323 645 299 621 299 592 C299 562 323 538 352 538 C382 538 406 562 406 592 L406 592 Z M219 592 C219 621 195 645 165 645 C136 645 112 621 112 592 C112 562 136 538 165 538 C195 538 219 562 219 592 L219 592 Z " />
<glyph glyph-name="divide" unicode="&#xf7;" horiz-adv-x="572" d="M536 210 L536 270 L36 270 L36 210 L536 210 Z M339 409 C339 438 314 463 284 463 C253 463 228 438 228 409 C228 379 253 354 284 354 C314 354 339 379 339 409 L339 409 Z M339 71 C339 101 314 125 284 125 C253 125 228 101 228 71 C228 41 253 17 284 17 C314 17 339 41 339 71 L339 71 Z " />
<glyph glyph-name="oslash" unicode="&#xf8;" horiz-adv-x="528" d="M104 55 L49 -28 L88 -55 L140 23 C172 1 212 -12 262 -12 C424 -12 488 129 488 241 C488 307 465 382 413 432 L473 522 L431 551 L373 463 C342 481 304 492 259 492 C97 492 40 351 40 239 C40 177 59 105 104 55 L104 55 Z M374 375 C400 340 412 292 412 239 C412 135 364 49 263 49 C226 49 197 59 175 78 L374 375 Z M144 114 C125 148 116 192 116 241 C116 345 157 431 258 431 C290 431 317 423 338 409 L144 114 Z " />
<glyph glyph-name="ugrave" unicode="&#xf9;" horiz-adv-x="528" d="M76 480 L76 138 C76 55 116 -12 218 -12 C301 -12 352 41 374 71 C375 47 379 12 381 0 L455 0 C451 19 446 60 446 101 L446 480 L373 480 L373 142 C363 128 308 54 235 54 C170 54 149 92 149 152 L149 480 L76 480 Z M320 540 L228 666 L119 666 L254 540 L320 540 Z " />
<glyph glyph-name="uacute" unicode="&#xfa;" horiz-adv-x="528" d="M76 480 L76 138 C76 55 116 -12 218 -12 C301 -12 352 41 374 71 C375 47 379 12 381 0 L455 0 C451 19 446 60 446 101 L446 480 L373 480 L373 142 C363 128 308 54 235 54 C170 54 149 92 149 152 L149 480 L76 480 Z M206 540 L272 540 L407 666 L298 666 L206 540 Z " />
<glyph glyph-name="ucircumflex" unicode="&#xfb;" horiz-adv-x="528" d="M76 480 L76 138 C76 55 116 -12 218 -12 C301 -12 352 41 374 71 C375 47 379 12 381 0 L455 0 C451 19 446 60 446 101 L446 480 L373 480 L373 142 C363 128 308 54 235 54 C170 54 149 92 149 152 L149 480 L76 480 Z M414 541 L293 694 L239 694 L116 541 L185 541 L264 626 L345 541 L414 541 Z " />
<glyph glyph-name="udieresis" unicode="&#xfc;" horiz-adv-x="528" d="M76 480 L76 138 C76 55 116 -12 218 -12 C301 -12 352 41 374 71 C375 47 379 12 381 0 L455 0 C451 19 446 60 446 101 L446 480 L373 480 L373 142 C363 128 308 54 235 54 C170 54 149 92 149 152 L149 480 L76 480 Z M225 592 C225 621 201 645 171 645 C142 645 118 621 118 592 C118 562 142 538 171 538 C201 538 225 562 225 592 L225 592 Z M412 592 C412 621 388 645 358 645 C329 645 305 621 305 592 C305 562 329 538 358 538 C388 538 412 562 412 592 L412 592 Z " />
<glyph glyph-name="yacute" unicode="&#xfd;" horiz-adv-x="477" d="M453 480 L375 480 L242 97 L240 97 L103 480 L21 480 L202 3 L179 -60 C147 -148 112 -169 58 -169 C34 -169 29 -167 21 -166 L11 -227 C23 -230 35 -232 57 -232 C147 -232 200 -194 249 -64 L453 480 Z M196 540 L262 540 L397 666 L288 666 L196 540 Z " />
<glyph glyph-name="thorn" unicode="&#xfe;" horiz-adv-x="530" d="M489 241 C489 400 411 492 294 492 C231 492 187 467 155 428 L155 720 L82 720 L82 -219 L155 -219 L155 30 C183 5 222 -12 277 -12 C401 -12 489 90 489 241 L489 241 Z M411 239 C411 131 362 51 270 51 C219 51 185 68 155 95 L155 359 C185 400 235 426 279 426 C370 426 411 346 411 239 L411 239 Z " />
<glyph glyph-name="ydieresis" unicode="&#xff;" horiz-adv-x="469" d="M453 480 L375 480 L242 97 L240 97 L103 480 L21 480 L202 3 L179 -60 C153 -131 125 -169 58 -169 C34 -169 28 -167 21 -166 L11 -227 C20 -229 32 -232 57 -232 C175 -232 216 -153 249 -64 L453 480 Z M200 592 C200 621 176 645 146 645 C117 645 93 621 93 592 C93 562 117 538 146 538 C176 538 200 562 200 592 L200 592 Z M387 592 C387 621 363 645 333 645 C304 645 280 621 280 592 C280 562 304 538 333 538 C363 538 387 562 387 592 L387 592 Z " />
<glyph glyph-name="dotlessi" unicode="&#x131;" horiz-adv-x="250" d="M162 0 L162 480 L88 480 L88 0 L162 0 Z " />
<glyph glyph-name="Lslash" unicode="&#x141;" horiz-adv-x="479" d="M436 0 L436 66 L174 66 L174 341 L314 451 L280 494 L174 410 L174 666 L96 666 L96 349 L-9 265 L23 223 L96 280 L96 0 L436 0 Z " />
<glyph glyph-name="lslash" unicode="&#x142;" horiz-adv-x="270" d="M91 346 L24 292 L24 224 L91 278 L91 0 L164 0 L164 337 L245 403 L245 472 L164 406 L164 720 L91 720 L91 346 Z " />
<glyph glyph-name="OE" unicode="&#x152;" horiz-adv-x="885" d="M478 666 C447 674 414 678 379 678 C174 678 53 515 53 332 C53 149 176 -12 381 -12 C416 -12 449 -8 478 0 L827 0 L827 66 L556 66 L556 320 L788 320 L788 386 L556 386 L556 600 L820 600 L820 666 L478 666 Z M478 71 C449 59 416 53 379 53 C220 53 135 184 135 334 C135 484 222 613 381 613 C417 613 450 606 478 594 L478 71 Z " />
<glyph glyph-name="oe" unicode="&#x153;" horiz-adv-x="859" d="M448 93 C482 30 548 -12 636 -12 C723 -12 777 21 801 37 L771 94 C750 81 705 51 638 51 C529 51 488 139 487 242 L812 242 C825 390 754 492 625 492 C547 492 484 453 447 386 C412 448 350 492 259 492 C97 492 40 351 40 239 C40 127 100 -12 262 -12 C352 -12 410 30 448 93 L448 93 Z M410 239 C410 136 363 51 263 51 C163 51 118 138 118 241 C118 344 158 429 258 429 C358 429 410 342 410 239 L410 239 Z M491 300 C504 375 546 429 623 429 C706 429 737 368 739 300 L491 300 Z " />
<glyph glyph-name="Scaron" unicode="&#x160;" horiz-adv-x="481" d="M451 167 C451 297 349 342 261 384 C176 424 141 456 141 512 C141 573 191 613 257 613 C310 613 356 597 395 567 L433 625 C390 658 332 678 258 678 C156 678 64 617 64 508 C64 420 108 374 219 319 C296 281 372 247 372 166 C372 107 318 53 236 53 C173 53 124 75 84 112 L44 56 C81 20 147 -12 233 -12 C362 -12 451 62 451 167 L451 167 Z M97 872 L218 719 L272 719 L395 872 L326 872 L247 787 L166 872 L97 872 Z " />
<glyph glyph-name="scaron" unicode="&#x161;" horiz-adv-x="393" d="M364 129 C364 210 293 244 215 277 C143 307 123 328 123 363 C123 404 152 429 203 429 C245 429 281 415 310 393 L346 446 C313 472 264 492 204 492 C108 492 52 434 52 360 C52 278 109 244 184 212 C254 182 290 163 290 119 C290 75 252 50 192 50 C134 50 91 76 73 89 L41 33 C71 12 124 -13 193 -13 C298 -13 364 42 364 129 L364 129 Z M52 692 L173 539 L227 539 L350 692 L281 692 L202 607 L121 692 L52 692 Z " />
<glyph glyph-name="Ydieresis" unicode="&#x178;" horiz-adv-x="555" d="M537 666 L462 666 L284 326 L283 326 L105 666 L18 666 L241 252 L241 0 L319 0 L319 252 L537 666 Z M220 772 C220 801 196 825 166 825 C137 825 113 801 113 772 C113 742 137 718 166 718 C196 718 220 742 220 772 L220 772 Z M407 772 C407 801 383 825 353 825 C324 825 300 801 300 772 C300 742 324 718 353 718 C383 718 407 742 407 772 L407 772 Z " />
<glyph glyph-name="Zcaron" unicode="&#x17d;" horiz-adv-x="554" d="M514 0 L514 64 L133 64 L502 615 L502 666 L63 666 L63 602 L410 602 L46 55 L46 0 L514 0 Z M140 872 L261 719 L315 719 L438 872 L369 872 L290 787 L209 872 L140 872 Z " />
<glyph glyph-name="zcaron" unicode="&#x17e;" horiz-adv-x="423" d="M379 0 L379 59 L130 59 L375 431 L375 480 L56 480 L56 421 L286 421 L42 46 L42 0 L379 0 Z M66 692 L187 539 L241 539 L364 692 L295 692 L216 607 L135 692 L66 692 Z " />
<glyph glyph-name="florin" unicode="&#x192;" horiz-adv-x="435" d="M180 426 L78 426 L70 368 L173 368 L133 9 C125 -61 97 -124 16 -124 C-14 -124 -32 -114 -42 -109 L-65 -168 C-48 -178 -23 -188 23 -188 C138 -188 191 -107 203 0 L244 368 L352 368 L362 426 L250 426 L262 535 C271 616 297 668 374 668 C414 668 448 654 462 644 L491 703 C468 717 435 732 383 732 C270 732 206 667 194 555 L180 426 Z " />
<glyph glyph-name="circumflex" unicode="&#x2c6;" horiz-adv-x="500" d="M399 541 L278 694 L224 694 L101 541 L170 541 L249 626 L330 541 L399 541 Z " />
<glyph glyph-name="caron" unicode="&#x2c7;" horiz-adv-x="500" d="M101 692 L222 539 L276 539 L399 692 L330 692 L251 607 L170 692 L101 692 Z " />
<glyph glyph-name="breve" unicode="&#x2d8;" horiz-adv-x="500" d="M393 678 L328 678 C324 628 296 594 250 594 C203 594 175 628 171 678 L106 678 C115 579 180 536 250 536 C320 536 384 579 393 678 L393 678 Z " />
<glyph glyph-name="dotaccent" unicode="&#x2d9;" horiz-adv-x="500" d="M307 621 C307 653 282 678 250 678 C218 678 193 652 193 620 C193 588 218 563 250 563 C282 563 307 589 307 621 L307 621 Z " />
<glyph glyph-name="ring" unicode="&#x2da;" horiz-adv-x="500" d="M345 640 C345 693 300 735 250 735 C200 735 155 693 155 640 C155 587 200 545 250 545 C300 545 345 587 345 640 L345 640 Z M300 640 C300 611 281 585 250 585 C219 585 200 611 200 640 C200 670 219 695 250 695 C281 695 300 670 300 640 L300 640 Z " />
<glyph glyph-name="ogonek" unicode="&#x2db;" horiz-adv-x="500" d="M331 -202 L320 -159 C307 -164 293 -167 277 -167 C244 -167 227 -150 227 -119 C227 -67 256 -29 279 0 L229 0 C204 -25 165 -73 165 -127 C165 -178 199 -219 263 -219 C294 -219 316 -210 331 -202 L331 -202 Z " />
<glyph glyph-name="tilde" unicode="&#x2dc;" horiz-adv-x="500" d="M395 601 L356 639 C348 629 332 608 305 608 C267 608 249 647 199 647 C153 647 123 612 105 587 L144 550 C153 559 170 582 193 582 C232 582 251 543 299 543 C346 543 374 574 395 601 L395 601 Z " />
<glyph glyph-name="hungarumlaut" unicode="&#x2dd;" horiz-adv-x="500" d="M244 540 L309 540 L442 666 L337 666 L244 540 Z M80 540 L145 540 L278 666 L173 666 L80 540 Z " />
<glyph glyph-name="endash" unicode="&#x2013;" horiz-adv-x="525" d="M471 244 L471 305 L54 305 L54 244 L471 244 Z " />
<glyph glyph-name="emdash" unicode="&#x2014;" horiz-adv-x="832" d="M778 244 L778 305 L54 305 L54 244 L778 244 Z " />
<glyph glyph-name="quoteleft" unicode="&#x2018;" horiz-adv-x="203" d="M43 508 C43 463 74 437 108 437 C139 437 162 458 162 486 C162 528 123 535 123 573 C123 610 146 647 160 666 L106 666 C87 643 43 574 43 508 L43 508 Z " />
<glyph glyph-name="quoteright" unicode="&#x2019;" horiz-adv-x="203" d="M160 607 C160 652 129 678 95 678 C64 678 41 657 41 629 C41 587 80 580 80 542 C80 505 57 468 43 449 L97 449 C116 472 160 541 160 607 L160 607 Z " />
<glyph glyph-name="quotesinglbase" unicode="&#x201a;" horiz-adv-x="203" d="M160 39 C160 84 129 110 95 110 C64 110 41 89 41 61 C41 19 80 12 80 -26 C80 -63 57 -100 43 -119 L97 -119 C116 -96 160 -27 160 39 L160 39 Z " />
<glyph glyph-name="quotedblleft" unicode="&#x201c;" horiz-adv-x="364" d="M204 508 C204 463 235 437 269 437 C300 437 323 458 323 486 C323 528 284 535 284 573 C284 610 307 647 321 666 L267 666 C248 643 204 574 204 508 L204 508 Z M33 508 C33 463 64 437 98 437 C129 437 152 458 152 486 C152 528 113 535 113 573 C113 610 136 647 150 666 L96 666 C77 643 33 574 33 508 L33 508 Z " />
<glyph glyph-name="quotedblright" unicode="&#x201d;" horiz-adv-x="364" d="M331 607 C331 652 300 678 266 678 C235 678 212 657 212 629 C212 587 251 580 251 542 C251 505 228 468 214 449 L268 449 C287 472 331 541 331 607 L331 607 Z M160 607 C160 652 129 678 95 678 C64 678 41 657 41 629 C41 587 80 580 80 542 C80 505 57 468 43 449 L97 449 C116 472 160 541 160 607 L160 607 Z " />
<glyph glyph-name="quotedblbase" unicode="&#x201e;" horiz-adv-x="374" d="M331 39 C331 84 300 110 266 110 C235 110 212 89 212 61 C212 19 251 12 251 -26 C251 -63 228 -100 214 -119 L268 -119 C287 -96 331 -27 331 39 L331 39 Z M160 39 C160 84 129 110 95 110 C64 110 41 89 41 61 C41 19 80 12 80 -26 C80 -63 57 -100 43 -119 L97 -119 C116 -96 160 -27 160 39 L160 39 Z " />
<glyph glyph-name="dagger" unicode="&#x2020;" horiz-adv-x="543" d="M491 480 L381 480 L299 472 L312 583 L312 720 L231 720 L231 583 L244 472 L162 480 L52 480 L52 410 L162 410 L244 418 L228 276 L247 -170 L296 -170 L314 276 L299 418 L381 410 L491 410 L491 480 Z " />
<glyph glyph-name="daggerdbl" unicode="&#x2021;" horiz-adv-x="543" d="M491 72 L491 142 L381 142 L299 134 L314 276 L299 418 L381 410 L491 410 L491 480 L381 480 L299 472 L312 583 L312 720 L231 720 L231 583 L244 472 L162 480 L52 480 L52 410 L162 410 L244 418 L228 276 L244 134 L162 142 L52 142 L52 72 L162 72 L244 80 L231 -31 L231 -168 L312 -168 L312 -31 L299 80 L381 72 L491 72 Z " />
<glyph glyph-name="bullet" unicode="&#x2022;" horiz-adv-x="362" d="M306 286 C306 355 250 411 181 411 C112 411 56 355 56 286 C56 217 112 162 181 162 C250 162 306 217 306 286 L306 286 Z " />
<glyph glyph-name="ellipsis" unicode="&#x2026;" horiz-adv-x="621" d="M170 51 C170 84 143 110 110 110 C76 110 50 84 50 51 C50 18 76 -9 110 -9 C143 -9 170 18 170 51 L170 51 Z M571 51 C571 84 544 110 511 110 C478 110 451 84 451 51 C451 18 478 -9 511 -9 C544 -9 571 18 571 51 L571 51 Z M370 51 C370 84 344 110 310 110 C277 110 251 84 251 51 C251 18 277 -9 310 -9 C344 -9 370 18 370 51 L370 51 Z " />
<glyph glyph-name="perthousand" unicode="&#x2030;" horiz-adv-x="1076" d="M317 354 C317 418 277 492 177 492 C77 492 34 416 34 352 C34 288 75 213 175 213 C275 213 317 290 317 354 L317 354 Z M712 129 C712 193 672 267 572 267 C472 267 429 191 429 127 C429 63 470 -12 570 -12 C670 -12 712 65 712 129 L712 129 Z M1042 129 C1042 193 1002 267 902 267 C802 267 759 191 759 127 C759 63 800 -12 900 -12 C1000 -12 1042 65 1042 129 L1042 129 Z M551 480 L488 480 L201 0 L264 0 L551 480 Z M651 127 C651 76 627 36 572 36 C517 36 490 78 490 129 C490 180 515 219 570 219 C625 219 651 178 651 127 L651 127 Z M981 127 C981 76 957 36 902 36 C847 36 820 78 820 129 C820 180 845 219 900 219 C955 219 981 178 981 127 L981 127 Z M256 352 C256 301 232 261 177 261 C122 261 95 303 95 354 C95 405 120 444 175 444 C230 444 256 403 256 352 L256 352 Z " />
<glyph glyph-name="guilsinglleft" unicode="&#x2039;" horiz-adv-x="298" d="M255 56 L123 245 L255 435 L178 435 L45 245 L178 56 L255 56 Z " />
<glyph glyph-name="guilsinglright" unicode="&#x203a;" horiz-adv-x="298" d="M253 245 L119 435 L43 435 L175 245 L43 56 L119 56 L253 245 Z " />
<glyph glyph-name="fraction" unicode="&#x2044;" horiz-adv-x="402" d="M480 720 L411 720 L0 -113 L70 -113 L480 720 Z " />
<glyph glyph-name="eurocurrency" unicode="&#x20ac;" horiz-adv-x="542" d="M483 26 L411 119 C448 156 464 206 464 252 C464 298 446 351 407 388 L483 483 L433 521 L356 421 C333 431 305 437 272 437 C236 437 206 429 180 417 L103 521 L52 483 L132 382 C97 345 81 296 81 252 C81 209 96 161 128 125 L50 26 L101 -12 L176 88 C202 74 234 66 272 66 C307 66 336 73 361 84 L432 -12 L483 26 Z M396 252 C396 180 348 123 272 123 C198 123 148 180 148 252 C148 323 198 381 272 381 C348 381 396 323 396 252 L396 252 Z " />
<glyph glyph-name="Euro" unicode="&#x20ac;" horiz-adv-x="583" d="M108 365 C107 355 107 345 107 335 C107 318 108 301 109 284 L39 284 L39 225 L119 225 C149 92 237 -12 389 -12 C479 -12 522 17 553 37 L517 93 C492 76 450 54 391 54 C285 54 225 128 201 225 L374 225 L374 284 L190 284 C189 301 188 319 188 337 C188 346 188 356 189 365 L374 365 L374 424 L196 424 C216 530 277 613 387 613 C453 613 490 589 511 577 L545 638 C513 658 473 678 389 678 C231 678 141 566 115 424 L39 424 L39 365 L108 365 Z " />
<glyph glyph-name="trademark" unicode="&#x2122;" horiz-adv-x="714" d="M498 496 C485 463 479 439 479 439 L477 439 C477 439 470 465 458 495 L391 666 L331 666 L300 375 L349 375 L363 538 C366 575 367 603 367 603 L369 603 C369 603 380 559 393 525 L452 375 L498 375 L562 533 C577 571 583 603 583 603 L585 603 C585 603 586 567 589 540 L605 375 L658 375 L626 666 L565 666 L498 496 Z M180 621 L264 621 L264 666 L43 666 L43 621 L126 621 L126 375 L180 375 L180 621 Z " />
<glyph glyph-name="minus" unicode="&#x2212;" horiz-adv-x="550" d="M455 245 L455 308 L86 308 L86 245 L455 245 Z " />
<glyph glyph-name="fi" unicode="&#xfb01;" horiz-adv-x="537" d="M449 0 L449 480 L173 480 L173 541 C173 624 213 668 285 668 C345 668 382 644 405 628 L442 686 C412 706 370 732 288 732 C167 732 100 656 100 548 L100 480 L20 480 L20 422 L100 422 L100 0 L173 0 L173 422 L376 422 L376 0 L449 0 Z " />
<glyph glyph-name="fl" unicode="&#xfb02;" horiz-adv-x="544" d="M458 0 L458 708 C426 718 369 732 287 732 C175 732 100 669 100 552 L100 480 L20 480 L20 422 L100 422 L100 0 L173 0 L173 422 L286 422 L286 480 L173 480 L173 542 C173 622 206 668 283 668 C333 668 370 660 385 655 L385 0 L458 0 Z " />
</font>
</svg>
