<svg xmlns="http://www.w3.org/2000/svg" viewBox="0 0 650 150"><defs><style>.a{fill:#fff;}.b{opacity:0.5;}.c{opacity:0.2;}</style></defs><title>icon-set-3</title><path class="a" d="M25,16a9,9,0,1,0,9,9,9,9,0,0,0-9-9Zm0,16.8A7.8,7.8,0,1,1,32.8,25,7.81,7.81,0,0,1,25,32.8Z"/><path class="a" d="M26.92,20.68a.61.61,0,0,0-.85,0l-3.89,3.89A.61.61,0,0,0,22,25a.6.6,0,0,0,.18.43l3.89,3.89a.61.61,0,0,0,.85,0,.59.59,0,0,0,0-.85L23.45,25l3.47-3.47a.59.59,0,0,0,0-.85Z"/><path class="a" d="M25,116a9,9,0,1,0,9,9,9,9,0,0,0-9-9Zm0,16.8a7.8,7.8,0,1,1,7.8-7.8,7.81,7.81,0,0,1-7.8,7.8Z"/><path class="a" d="M26.92,120.68a.61.61,0,0,0-.85,0l-3.89,3.89a.6.6,0,0,0,0,.86l3.89,3.89a.61.61,0,0,0,.85,0,.59.59,0,0,0,0-.85L23.45,125l3.47-3.47a.59.59,0,0,0,0-.85Z"/><path class="a" d="M84,125a9,9,0,1,0-9,9,9,9,0,0,0,9-9Zm-16.8,0a7.8,7.8,0,1,1,7.8,7.8,7.81,7.81,0,0,1-7.8-7.8Z"/><path class="a" d="M79.32,126.92a.61.61,0,0,0,0-.85l-3.89-3.89a.6.6,0,0,0-.86,0l-3.89,3.89a.61.61,0,0,0,0,.85.59.59,0,0,0,.85,0L75,123.45l3.47,3.47a.59.59,0,0,0,.85,0Z"/><path class="a" d="M125,134a9,9,0,1,0-9-9,9,9,0,0,0,9,9Zm0-16.8a7.8,7.8,0,1,1-7.8,7.8,7.81,7.81,0,0,1,7.8-7.8Z"/><path class="a" d="M123.08,129.32a.61.61,0,0,0,.85,0l3.89-3.89a.63.63,0,0,0,0-.86l-3.89-3.89a.61.61,0,0,0-.85,0,.59.59,0,0,0,0,.85l3.47,3.47-3.47,3.47a.59.59,0,0,0,0,.85Z"/><path class="a" d="M225,132.2a7.2,7.2,0,1,0-7.2-7.2,7.21,7.21,0,0,0,7.2,7.2Zm0-13.44a6.24,6.24,0,1,1-6.24,6.24,6.25,6.25,0,0,1,6.24-6.24Z"/><path class="a" d="M223.46,128.46a.5.5,0,0,0,.68,0l3.11-3.12a.46.46,0,0,0,0-.68l-3.11-3.11a.48.48,0,0,0-.68.68l2.78,2.77-2.78,2.77a.49.49,0,0,0,0,.69Z"/><path d="M275,132.2a7.2,7.2,0,1,0-7.2-7.2,7.21,7.21,0,0,0,7.2,7.2Zm0-13.44a6.24,6.24,0,1,1-6.24,6.24,6.25,6.25,0,0,1,6.24-6.24Z"/><path d="M273.46,128.46a.5.5,0,0,0,.68,0l3.12-3.12a.48.48,0,0,0,0-.68l-3.12-3.11a.48.48,0,0,0-.68,0,.5.5,0,0,0,0,.68l2.78,2.77-2.78,2.77a.51.51,0,0,0,0,.69Z"/><g class="b"><path d="M325,132.2a7.2,7.2,0,1,0-7.2-7.2,7.21,7.21,0,0,0,7.2,7.2Zm0-13.44a6.24,6.24,0,1,1-6.24,6.24,6.25,6.25,0,0,1,6.24-6.24Z"/><path d="M323.46,128.46a.5.5,0,0,0,.68,0l3.11-3.12a.46.46,0,0,0,0-.68l-3.11-3.11a.48.48,0,1,0-.68.68l2.78,2.77-2.78,2.77a.49.49,0,0,0,0,.69Z"/></g><g class="c"><path d="M375,132.2a7.2,7.2,0,1,0-7.2-7.2,7.21,7.21,0,0,0,7.2,7.2Zm0-13.44a6.24,6.24,0,1,1-6.24,6.24,6.25,6.25,0,0,1,6.24-6.24Z"/><path d="M373.46,128.46a.5.5,0,0,0,.68,0l3.11-3.12a.46.46,0,0,0,0-.68l-3.11-3.11a.48.48,0,1,0-.68.68l2.78,2.77-2.78,2.77a.49.49,0,0,0,0,.69Z"/></g><path class="a" d="M417.8,125a7.2,7.2,0,1,0,7.2-7.2,7.21,7.21,0,0,0-7.2,7.2Zm13.44,0a6.24,6.24,0,1,1-6.24-6.24,6.25,6.25,0,0,1,6.24,6.24Z"/><path class="a" d="M421.54,123.46a.5.5,0,0,0,0,.68l3.12,3.11a.46.46,0,0,0,.68,0l3.11-3.11a.48.48,0,1,0-.68-.68L425,126.24l-2.78-2.78a.48.48,0,0,0-.68,0Z"/><path d="M467.8,125a7.2,7.2,0,1,0,7.2-7.2,7.21,7.21,0,0,0-7.2,7.2Zm13.44,0a6.24,6.24,0,1,1-6.24-6.24,6.25,6.25,0,0,1,6.24,6.24Z"/><path d="M471.54,123.46a.5.5,0,0,0,0,.68l3.12,3.11a.46.46,0,0,0,.68,0l3.11-3.11a.48.48,0,1,0-.68-.68L475,126.24l-2.78-2.78a.48.48,0,0,0-.68,0Z"/><path class="a" d="M582.2,125a7.2,7.2,0,1,0-7.2,7.2,7.21,7.21,0,0,0,7.2-7.2Zm-13.44,0a6.24,6.24,0,1,1,6.24,6.24,6.25,6.25,0,0,1-6.24-6.24Z"/><path class="a" d="M578.46,126.54a.5.5,0,0,0,0-.68l-3.12-3.11a.46.46,0,0,0-.68,0l-3.11,3.11a.48.48,0,0,0,.68.68l2.77-2.78,2.78,2.78a.48.48,0,0,0,.68,0Z"/><path d="M532.2,125a7.2,7.2,0,1,0-7.2,7.2,7.21,7.21,0,0,0,7.2-7.2Zm-13.44,0a6.24,6.24,0,1,1,6.24,6.24,6.25,6.25,0,0,1-6.24-6.24Z"/><path d="M528.46,126.54a.5.5,0,0,0,0-.68l-3.12-3.11a.46.46,0,0,0-.68,0l-3.11,3.11a.48.48,0,0,0,.68.68l2.77-2.78,2.78,2.78a.48.48,0,0,0,.68,0Z"/><path class="a" d="M166,125a9,9,0,1,0,9-9,9,9,0,0,0-9,9Zm16.8,0a7.8,7.8,0,1,1-7.8-7.8,7.81,7.81,0,0,1,7.8,7.8Z"/><path class="a" d="M170.68,123.08a.61.61,0,0,0,0,.85l3.89,3.89a.6.6,0,0,0,.86,0l3.89-3.89a.61.61,0,0,0,0-.85.59.59,0,0,0-.85,0L175,126.55l-3.47-3.47a.59.59,0,0,0-.85,0Z"/><path class="a" d="M365.28,19.67a1.36,1.36,0,0,0,0,1.91L374,30.33a1.35,1.35,0,0,0,1.92,0l8.76-8.75a1.35,1.35,0,0,0-1.92-1.91l-7.8,7.8-7.8-7.8a1.36,1.36,0,0,0-1.92,0Z"/><path class="a" d="M434.72,30.33a1.36,1.36,0,0,0,0-1.91L426,19.67a1.35,1.35,0,0,0-1.92,0l-8.76,8.75a1.35,1.35,0,0,0,1.92,1.91l7.8-7.8,7.8,7.8a1.36,1.36,0,0,0,1.92,0Z"/><path class="a" d="M480.33,15.28a1.36,1.36,0,0,0-1.91,0L469.67,24a1.35,1.35,0,0,0,0,1.92l8.75,8.76a1.35,1.35,0,1,0,1.91-1.92l-7.8-7.8,7.8-7.8a1.36,1.36,0,0,0,0-1.92Z"/><path class="a" d="M519.67,34.72a1.36,1.36,0,0,0,1.91,0L530.33,26a1.35,1.35,0,0,0,0-1.92l-8.75-8.76a1.35,1.35,0,1,0-1.91,1.92l7.8,7.8-7.8,7.8a1.36,1.36,0,0,0,0,1.92Z"/><path class="a" d="M368.52,71.45a.9.9,0,0,0,0,1.27l5.84,5.84a.92.92,0,0,0,1.28,0l5.84-5.84a.9.9,0,1,0-1.28-1.27l-5.2,5.2-5.2-5.2a.89.89,0,0,0-1.28,0Z"/><path class="a" d="M431.48,78.55a.9.9,0,0,0,0-1.27l-5.84-5.84a.92.92,0,0,0-1.28,0l-5.84,5.84a.9.9,0,1,0,1.28,1.27l5.2-5.2,5.2,5.2a.89.89,0,0,0,1.28,0Z"/><path class="a" d="M211.5,75A13.5,13.5,0,1,0,225,61.5,13.51,13.51,0,0,0,211.5,75Zm25.2,0A11.7,11.7,0,1,1,225,63.3,11.72,11.72,0,0,1,236.7,75Z"/><path class="a" d="M218.52,72.12a.9.9,0,0,0,0,1.27l5.84,5.84a.92.92,0,0,0,1.28,0l5.84-5.84a.9.9,0,0,0-1.28-1.27l-5.2,5.2-5.2-5.2a.89.89,0,0,0-1.28,0Z"/><path class="a" d="M288.5,75A13.5,13.5,0,1,0,275,88.5,13.51,13.51,0,0,0,288.5,75Zm-25.2,0A11.7,11.7,0,1,1,275,86.7,11.72,11.72,0,0,1,263.3,75Z"/><path class="a" d="M281.48,77.88a.9.9,0,0,0,0-1.27l-5.84-5.84a.92.92,0,0,0-.64-.26.93.93,0,0,0-.64.26l-5.84,5.84a.9.9,0,1,0,1.28,1.27l5.2-5.2,5.2,5.2a.89.89,0,0,0,1.28,0Z"/><path class="a" d="M175,66a9,9,0,1,0,9,9,9,9,0,0,0-9-9Zm0,16.72A7.76,7.76,0,1,1,182.76,75,7.77,7.77,0,0,1,175,82.76Z"/><path class="a" d="M175.39,72.14A.6.6,0,0,0,175,72a.58.58,0,0,0-.42.18L170.64,76a.6.6,0,0,0,.85.85L175,73.41l3.48,3.47a.6.6,0,0,0,.84,0,.61.61,0,0,0,0-.85Z"/><path class="a" d="M75,16a9,9,0,1,0,9,9,9,9,0,0,0-9-9Zm0,16.71A7.76,7.76,0,1,1,82.76,25,7.76,7.76,0,0,1,75,32.75Z"/><path class="a" d="M73.88,20.64a.58.58,0,0,0-.84,0,.61.61,0,0,0,0,.85L76.51,25,73,28.42a.61.61,0,0,0,0,.85.58.58,0,0,0,.84,0l3.9-3.89A.54.54,0,0,0,78,25a.58.58,0,0,0-.17-.42Z"/><path class="a" d="M325,16a9,9,0,1,0,9,9,9,9,0,0,0-9-9Zm0,16.8a7.8,7.8,0,1,1,7.8-7.8,7.81,7.81,0,0,1-7.8,7.8Z"/><path class="a" d="M328.32,20.83l-3.3,3.3-3-3.3a.59.59,0,0,0-.85,0,.61.61,0,0,0,0,.85l3,3.3-3.34,3.34a.61.61,0,0,0,0,.85.59.59,0,0,0,.85,0l3.29-3.3,3,3.3a.58.58,0,0,0,.84,0,.59.59,0,0,0,0-.85L325.83,25l3.34-3.34a.6.6,0,0,0-.85-.85Z"/><path class="a" d="M125,66a9,9,0,1,0,9,9,9,9,0,0,0-9-9Zm0,16.72A7.76,7.76,0,1,1,132.76,75,7.77,7.77,0,0,1,125,82.76Z"/><path class="a" d="M128.42,73,125,76.51,121.49,73a.61.61,0,0,0-.85,0,.59.59,0,0,0,0,.85l3.89,3.89a.59.59,0,0,0,.85,0l3.89-3.89a.59.59,0,0,0,0-.85.61.61,0,0,0-.85,0Z"/><path class="a" d="M75,66a9,9,0,1,0,9,9,9,9,0,0,0-9-9Zm0,16.8A7.8,7.8,0,1,1,82.8,75,7.81,7.81,0,0,1,75,82.8Z"/><path class="a" d="M79.8,74.4H70.2a.6.6,0,0,0-.6.6.6.6,0,0,0,.6.6h9.6a.6.6,0,0,0,.6-.6.6.6,0,0,0-.6-.6Z"/><path class="a" d="M79.8,70.8H70.2a.6.6,0,1,0,0,1.2h9.6a.6.6,0,0,0,0-1.2Z"/><path class="a" d="M79.8,78H70.2a.6.6,0,0,0,0,1.2h9.6a.6.6,0,0,0,0-1.2Z"/><path class="a" d="M175.18,19.88h0a.67.67,0,0,0-.37.12s-2.67,2.32-2.78,2.44h-1.47a.64.64,0,0,0-.64.64V27a.64.64,0,0,0,.64.64H172c.11.12,2.78,2.36,2.78,2.36a.67.67,0,0,0,.37.12h0a.54.54,0,0,0,.46-.43V20.31a.54.54,0,0,0-.46-.43ZM175,29.36l-2.56-2.17A.64.64,0,0,0,172,27h-1.47V23.08H172a.65.65,0,0,0,.44-.18L175,20.65Z"/><path class="a" d="M178.9,25l1.1-1.1a.39.39,0,0,0,0-.56.39.39,0,0,0-.55,0l-1.1,1.11-1.11-1.11a.39.39,0,0,0-.55,0,.4.4,0,0,0,0,.56L177.8,25l-1.11,1.1a.4.4,0,0,0,0,.56.39.39,0,0,0,.55,0l1.11-1.11,1.1,1.11a.39.39,0,0,0,.55,0,.39.39,0,0,0,0-.56Z"/><path class="a" d="M275,16a9,9,0,1,0,9,9,9,9,0,0,0-9-9Zm0,16.8a7.8,7.8,0,1,1,7.8-7.8,7.81,7.81,0,0,1-7.8,7.8Z"/><path class="a" d="M279.8,24.4h-4.2V20.2a.6.6,0,1,0-1.2,0v4.2h-4.2a.6.6,0,0,0-.6.6.6.6,0,0,0,.6.6h4.2v4.2a.6.6,0,0,0,1.2,0V25.6h4.2a.6.6,0,0,0,.6-.6.6.6,0,0,0-.6-.6Z"/><path class="a" d="M325,66a9,9,0,1,0,9,9,9,9,0,0,0-9-9Zm0,16.8a7.8,7.8,0,1,1,7.8-7.8,7.81,7.81,0,0,1-7.8,7.8Z"/><path class="a" d="M329.8,74.4h-9.6a.6.6,0,0,0-.6.6.6.6,0,0,0,.6.6h9.6a.6.6,0,0,0,.6-.6.6.6,0,0,0-.6-.6Z"/><path class="a" d="M125.34,19.88h0a.67.67,0,0,0-.37.12s-2.67,2.32-2.78,2.44h-1.47a.64.64,0,0,0-.64.64V27a.64.64,0,0,0,.64.64h1.47c.11.12,2.78,2.36,2.78,2.36a.67.67,0,0,0,.37.12h0a.54.54,0,0,0,.46-.43V20.31a.54.54,0,0,0-.46-.43Zm-.18,9.48-2.56-2.17a.64.64,0,0,0-.45-.19h-1.47V23.08h1.47a.65.65,0,0,0,.44-.18l2.57-2.25Z"/><path class="a" d="M126.79,26.12a.33.33,0,0,0-.15.43.32.32,0,0,0,.29.17.4.4,0,0,0,.15,0,1.89,1.89,0,0,0,0-3.38.32.32,0,1,0-.29.57,1.25,1.25,0,0,1,0,2.24Z"/><path class="a" d="M126.72,21.07a.32.32,0,0,0-.37.26.3.3,0,0,0,.25.37,3.36,3.36,0,0,1,0,6.6.3.3,0,0,0-.25.37.31.31,0,0,0,.31.26h.06a4,4,0,0,0,0-7.85Z"/><path class="a" d="M525,66a9,9,0,1,0,9,9,9,9,0,0,0-9-9Zm0,16.72A7.76,7.76,0,1,1,532.76,75,7.77,7.77,0,0,1,525,82.76Z"/><path class="a" d="M175,16a9,9,0,1,0,9,9,9,9,0,0,0-9-9Zm0,16.72A7.76,7.76,0,1,1,182.76,25,7.77,7.77,0,0,1,175,32.76Z"/><path class="a" d="M225,16a9,9,0,1,0,9,9,9,9,0,0,0-9-9Zm0,16.72A7.76,7.76,0,1,1,232.76,25,7.77,7.77,0,0,1,225,32.76Z"/><path class="a" d="M125,16a9,9,0,1,0,9,9,9,9,0,0,0-9-9Zm0,16.72A7.76,7.76,0,1,1,132.76,25,7.77,7.77,0,0,1,125,32.76Z"/><path class="a" d="M25,66a9,9,0,1,0,9,9,9,9,0,0,0-9-9Zm0,16.72A7.76,7.76,0,1,1,32.76,75,7.77,7.77,0,0,1,25,82.76Z"/><path class="a" d="M578.52,20.84h-.64V20.2a.64.64,0,0,0-.64-.64h-6.4a.64.64,0,0,0-.64.64v7.68a.64.64,0,0,0,.64.64h.64v.64a.64.64,0,0,0,.64.64h6.4a.64.64,0,0,0,.64-.64V21.48a.64.64,0,0,0-.64-.64Zm-7.68,7V20.2h6.4v7.68Zm7.68,1.28h-6.4v-.64h5.12a.64.64,0,0,0,.64-.64v-6.4h.64Z"/><path class="a" d="M576.28,21.48h-3.2a.32.32,0,0,0,0,.64h3.2a.32.32,0,0,0,.32-.32.32.32,0,0,0-.32-.32Z"/><path class="a" d="M576.28,23.4H571.8a.32.32,0,0,0,0,.64h4.48a.32.32,0,1,0,0-.64Z"/><path class="a" d="M576.28,24.68H571.8a.32.32,0,0,0,0,.64h4.48a.32.32,0,1,0,0-.64Z"/><path class="a" d="M576.28,26H571.8a.32.32,0,0,0,0,.64h4.48a.32.32,0,1,0,0-.64Z"/><path class="a" d="M575,16a9,9,0,1,0,9,9,9,9,0,0,0-9-9Zm0,16.72A7.76,7.76,0,1,1,582.76,25,7.77,7.77,0,0,1,575,32.76Z"/><path class="a" d="M25,73.62A1.38,1.38,0,1,0,26.38,75,1.38,1.38,0,0,0,25,73.62Zm4.53.42-1-.06a3.39,3.39,0,0,0-.34-.81l.64-.7a.47.47,0,0,0,0-.66l-.69-.69a.47.47,0,0,0-.66,0l-.7.64a3.39,3.39,0,0,0-.81-.34l-.06-1a.47.47,0,0,0-.47-.47h-1a.47.47,0,0,0-.47.47l-.06,1a3.39,3.39,0,0,0-.81.34l-.7-.64a.47.47,0,0,0-.66,0l-.69.69a.47.47,0,0,0,0,.66l.64.7a3.39,3.39,0,0,0-.34.81l-1,.06a.47.47,0,0,0-.47.47v1a.47.47,0,0,0,.47.47l1,.06a3.23,3.23,0,0,0,.34.81l-.64.7a.47.47,0,0,0,0,.66l.69.69a.47.47,0,0,0,.66,0l.7-.64a3.39,3.39,0,0,0,.81.34l.06,1a.47.47,0,0,0,.47.47h1a.47.47,0,0,0,.47-.47l.06-1a3.39,3.39,0,0,0,.81-.34l.7.64a.47.47,0,0,0,.66,0l.69-.69a.47.47,0,0,0,0-.66l-.64-.7a3.39,3.39,0,0,0,.34-.81l1-.06a.47.47,0,0,0,.47-.47v-1A.47.47,0,0,0,29.53,74ZM25,77.23A2.23,2.23,0,1,1,27.23,75,2.23,2.23,0,0,1,25,77.23Z"/><circle class="a" cx="220.15" cy="25" r="1.42"/><circle class="a" cx="225.15" cy="25" r="1.42"/><circle class="a" cx="229.85" cy="25" r="1.42"/><path class="a" d="M530,74.43l-4.8-3.84a.33.33,0,0,0-.4,0L523.08,72v-.81a.64.64,0,1,0-1.28,0V73L520,74.43a.32.32,0,0,0,.4.5l.76-.61v4.52a.64.64,0,0,0,.64.64h1.92a.64.64,0,0,0,.64-.64V76.28h1.28v2.56a.64.64,0,0,0,.64.64h1.92a.64.64,0,0,0,.64-.64V74.32l.76.61a.31.31,0,0,0,.2.07.32.32,0,0,0,.2-.57Zm-1.8,4.41h-1.92v-3.2h-2.56v3.2H521.8v-5l3.2-2.56,3.2,2.56Z"/><path class="a" d="M576.78,76.67a1.69,1.69,0,0,0-1,.34l-2.89-1.74a1.83,1.83,0,0,0,0-.54L575.76,73a1.63,1.63,0,0,0,1,.35,1.67,1.67,0,1,0-1.67-1.67,2.45,2.45,0,0,0,0,.27l-2.89,1.74a1.63,1.63,0,0,0-1-.34,1.67,1.67,0,0,0,0,3.33,1.63,1.63,0,0,0,1-.35l2.89,1.74a2.45,2.45,0,0,0,0,.27,1.67,1.67,0,1,0,3.33,0A1.66,1.66,0,0,0,576.78,76.67Z"/><path class="a" d="M575,66a9,9,0,1,0,9,9,9,9,0,0,0-9-9Zm0,16.72A7.76,7.76,0,1,1,582.76,75,7.77,7.77,0,0,1,575,82.76Z"/><path class="a" d="M476.67,71.16a3.9,3.9,0,1,0-.53,6,.75.75,0,0,0,.22.41l2.21,2.21a.82.82,0,0,0,1.16-1.16l-2.21-2.21a.75.75,0,0,0-.41-.22,3.9,3.9,0,0,0-.44-5ZM476,76a2.91,2.91,0,1,1,0-4.11A2.9,2.9,0,0,1,476,76Z"/><path class="a" d="M475,66a9,9,0,1,0,9,9,9,9,0,0,0-9-9Zm0,16.72A7.76,7.76,0,1,1,482.76,75,7.77,7.77,0,0,1,475,82.76Z"/><path class="a" d="M625,16a9,9,0,1,0,9,9,9,9,0,0,0-9-9Zm0,16.72A7.76,7.76,0,1,1,632.76,25,7.77,7.77,0,0,1,625,32.76Z"/><polygon class="a" points="625 19.79 626.69 23.22 630.48 23.77 627.74 26.44 628.39 30.21 625 28.43 621.61 30.21 622.26 26.44 619.52 23.77 623.31 23.22 625 19.79"/><path class="a" d="M638.5,75A13.5,13.5,0,1,0,625,88.5,13.51,13.51,0,0,0,638.5,75Zm-25.2,0A11.7,11.7,0,1,1,625,86.7,11.72,11.72,0,0,1,613.3,75Z"/><path class="a" d="M638.5,124.64a13.5,13.5,0,1,0-13.5,13.5,13.51,13.51,0,0,0,13.5-13.5Zm-25.2,0a11.7,11.7,0,1,1,11.7,11.7,11.72,11.72,0,0,1-11.7-11.7Z"/><path class="a" d="M629.09,117.23a7.17,7.17,0,0,0-4.3-1.23,6,6,0,0,0-3.32.87,5.32,5.32,0,0,0-2.27,4.61h3.3a3.41,3.41,0,0,1,.56-1.83,2,2,0,0,1,1.88-.87,2.12,2.12,0,0,1,1.85.71,2.66,2.66,0,0,1,.51,1.58,2.39,2.39,0,0,1-.56,1.38,2.82,2.82,0,0,1-.66.68,15.19,15.19,0,0,0-2.58,2.07,4,4,0,0,0-.54,2.49c0,.08,0,.25.32.25h2.57a.28.28,0,0,0,.31-.27,3.27,3.27,0,0,1,.14-.87,2.71,2.71,0,0,1,1-1.2l.91-.63a10.07,10.07,0,0,0,1.77-1.58,4.51,4.51,0,0,0-.87-6.16Zm-4.35,12.69a2,2,0,0,0-2.12,2,2.07,2.07,0,1,0,2.12-2Z"/><path class="a" d="M619,69.21V80.79a.21.21,0,0,0,.21.21h11.58a.21.21,0,0,0,.21-.21V69.21a.21.21,0,0,0-.21-.21H619.21A.21.21,0,0,0,619,69.21Zm9.9,2.06-7.65,7.65a.11.11,0,0,1-.19-.08V71.33a.25.25,0,0,1,.25-.25h7.51A.11.11,0,0,1,628.9,71.27Z"/></svg>