<svg xmlns="http://www.w3.org/2000/svg" viewBox="0 0 650 150"><defs><style>.a,.b{fill:#fff;}.b{opacity:0.4;}.b,.c,.d{isolation:isolate;}.c{opacity:0.2;}.d{opacity:0.5;}</style></defs><title>icon-set-2</title><rect class="a" x="61.5" y="73" width="4" height="4"/><rect class="a" x="67.5" y="73" width="21" height="4"/><rect class="a" x="61.5" y="81" width="4" height="4"/><rect class="a" x="67.5" y="81" width="21" height="4"/><rect class="a" x="61.5" y="65" width="4" height="4"/><rect class="a" x="67.5" y="65" width="21" height="4"/><circle class="a" cx="210.88" cy="25" r="4.02"/><circle class="a" cx="225" cy="25" r="4.02" transform="translate(197.43 249.7) rotate(-89.35)"/><circle class="a" cx="239.12" cy="25" r="4.02"/><polygon class="a" points="24.52 25 33.86 15.66 29.67 11.47 16.14 25 29.67 38.52 33.86 34.33 24.52 25"/><polygon class="a" points="125 75.48 115.66 66.14 111.47 70.33 125 83.86 138.53 70.33 134.33 66.14 125 75.48"/><polygon class="a" points="225 66.46 213.75 55.21 208.7 60.26 225 76.56 241.3 60.26 236.25 55.21 225 66.46"/><polygon class="b" points="225 84.69 213.75 73.44 208.7 78.49 225 94.79 241.3 78.49 236.25 73.44 225 84.69"/><polygon class="a" points="275 83.89 286.72 95.62 291.99 90.35 275 73.37 258.01 90.35 263.28 95.62 275 83.89"/><polygon class="b" points="275 64.91 286.72 76.63 291.99 71.37 275 54.38 258.01 71.37 263.28 76.63 275 64.91"/><polygon class="a" points="75.48 25 66.14 34.34 70.33 38.52 83.86 25 70.33 11.47 66.14 15.67 75.48 25"/><path class="a" d="M222,119.5h2l4,5.5-4,5.5h-2l3.69-5.5Z"/><path d="M272,119.5h2l4,5.5-4,5.5h-2l3.69-5.5Z"/><path class="c" d="M372,119.5h2l4,5.5-4,5.5h-2l3.69-5.5Z"/><path class="d" d="M322,119.5h2l4,5.5-4,5.5h-2l3.69-5.5Z"/><polygon class="a" points="175 74.52 184.33 83.86 188.53 79.67 175 66.14 161.47 79.67 165.67 83.86 175 74.52"/><rect class="a" x="323.82" y="19.11" width="2.36" height="11.78" transform="translate(77.5 237.12) rotate(-45)"/><rect class="a" x="319.11" y="23.82" width="11.78" height="2.36" transform="translate(77.51 237.13) rotate(-45)"/><rect class="a" x="273.5" y="17.5" width="3" height="15"/><rect class="a" x="267.5" y="23.5" width="15" height="3"/><polygon class="a" points="119 117 119 133 131 125 119 117"/><polygon class="a" points="31 117 31 133 19 125 31 117"/><polygon class="a" points="83 131 67 131 75 119 83 131"/><polygon class="a" points="167 119 183 119 175 131 167 119"/><path class="a" d="M117,21v8h3.52L126,32V18l-5.51,3Zm11.2.68L126.88,23a2.59,2.59,0,0,1,.9,2,2.63,2.63,0,0,1-.9,2l1.34,1.33a4.9,4.9,0,0,0,0-6.66Zm2.55-2.54-1.41,1.41a6.73,6.73,0,0,1,0,8.9l1.41,1.41a8.7,8.7,0,0,0,0-11.72Z"/><polygon class="a" points="171 21 167.49 21 167.49 29 171.02 29 176.51 32 176.51 18 171 21"/><path class="a" d="M25,71.68A3.32,3.32,0,1,0,28.32,75,3.32,3.32,0,0,0,25,71.68Zm12,4.49V73.82l-3.4-1.26a8.65,8.65,0,0,0-.82-2l1.53-3.27-1.66-1.65-3.26,1.53a8.21,8.21,0,0,0-1.95-.82L26.17,63H23.83l-1.27,3.4a8.21,8.21,0,0,0-1.95.82l-3.26-1.53-1.66,1.65,1.53,3.27a8.65,8.65,0,0,0-.82,2L13,73.82v2.35l3.4,1.27a8.65,8.65,0,0,0,.82,2l-1.53,3.27,1.66,1.65,3.26-1.53a8.21,8.21,0,0,0,1.95.82L23.83,87h2.34l1.27-3.4a8.21,8.21,0,0,0,1.95-.82l3.26,1.53,1.66-1.65-1.53-3.27a8.65,8.65,0,0,0,.82-2ZM25,80.36A5.36,5.36,0,1,1,30.36,75,5.36,5.36,0,0,1,25,80.36Z"/><rect class="a" x="320" y="74" width="10" height="2"/><polygon class="a" points="424.68 129.5 416 121.97 416.44 120.51 424.69 127.68 433.59 120.5 434 121.98 424.68 129.5"/><polygon points="474.68 129.5 466 121.97 466.44 120.51 474.69 127.68 483.59 120.5 484 121.98 474.68 129.5"/><polygon class="a" points="575.32 120.5 584 128.03 583.57 129.49 575.31 122.32 566.41 129.5 566 128.02 575.32 120.5"/><polygon points="525.32 120.5 534 128.03 533.57 129.49 525.31 122.32 516.41 129.5 516 128.02 525.32 120.5"/><path class="a" d="M537.75,76.14a1.66,1.66,0,0,1-1.22.5,1.6,1.6,0,0,1-1.2-.49l-.39-.39V86.61a1.62,1.62,0,0,1-.48,1.16,1.57,1.57,0,0,1-1.18.49h-5V80.81a.78.78,0,0,0-.24-.58.79.79,0,0,0-.59-.25h-5a.79.79,0,0,0-.59.25.78.78,0,0,0-.24.58v7.45h-5a1.57,1.57,0,0,1-1.18-.49,1.62,1.62,0,0,1-.48-1.16V75.76l-.39.39a1.6,1.6,0,0,1-1.2.49,1.66,1.66,0,0,1-1.22-.5,1.68,1.68,0,0,1-.5-1.22,1.63,1.63,0,0,1,.49-1.2l11.49-11.49a1.89,1.89,0,0,1,2.54,0l11.49,11.49a1.73,1.73,0,0,1,0,2.42Z"/><path class="a" d="M580.07,78a3,3,0,0,0-1.85.63l-5.29-3.17a3.14,3.14,0,0,0,0-1l5.29-3.17A3,3,0,1,0,577,68.92a3.89,3.89,0,0,0,0,.49l-5.29,3.18a3,3,0,0,0-1.85-.63,3,3,0,1,0,0,6.08,3,3,0,0,0,1.85-.63l5.29,3.18a3.89,3.89,0,0,0,0,.49,3,3,0,1,0,3-3Z"/><polygon class="a" points="385.45 67.82 375 78.27 364.55 67.83 362.6 69.78 375 82.18 387.4 69.78 385.45 67.82"/><polygon class="a" points="437.4 80.22 425 67.83 412.6 80.22 414.55 82.17 425 71.73 435.45 82.17 437.4 80.22"/><polygon class="a" points="441.5 31.95 425 15.45 408.5 31.95 411.1 34.55 425 20.65 438.9 34.55 441.5 31.95"/><polygon class="a" points="388.9 15.45 375 29.35 361.1 15.45 358.5 18.05 375 34.55 375 34.55 391.5 18.05 388.9 15.45"/><polygon class="a" points="518.05 41.5 534.55 25 518.05 8.5 515.45 11.1 529.35 25 515.45 38.9 518.05 41.5"/><polygon class="a" points="484.55 38.9 470.65 25 484.55 11.1 481.95 8.5 465.45 25 465.45 25 481.95 41.5 484.55 38.9"/><path class="a" d="M565.5,13.5v20h16v-20Zm14.57,18.65H566.93V14.85h13.14Z"/><path class="a" d="M568.5,33.5v3h16v-20h-3v1.35h1.57v17.3H569.93V33.5Z"/><rect class="a" x="569.08" y="16.83" width="9.08" height="1.42"/><rect class="a" x="569.08" y="19.83" width="9.08" height="1.42"/><rect class="a" x="569.08" y="22.83" width="9.08" height="1.42"/><rect class="a" x="569.08" y="25.83" width="9.08" height="1.42"/><rect class="a" x="569.08" y="28.83" width="9.08" height="1.42"/><polygon class="a" points="625 14.99 628.25 21.58 635.52 22.64 630.26 27.77 631.5 35.01 625 31.59 618.5 35.01 619.74 27.77 614.48 22.64 621.75 21.58 625 14.99"/><path class="a" d="M477.85,68.46a6.64,6.64,0,1,0-.91,10.14,1.39,1.39,0,0,0,.38.7l3.76,3.76a1.4,1.4,0,0,0,2-2l-3.76-3.76a1.39,1.39,0,0,0-.7-.38,6.66,6.66,0,0,0-.75-8.48Zm-1.2,8.2a5,5,0,1,1,0-7,5,5,0,0,1,0,7Z"/><path class="a" d="M629.09,117.23a7.17,7.17,0,0,0-4.3-1.23,6,6,0,0,0-3.32.87,5.32,5.32,0,0,0-2.27,4.61h3.3a3.41,3.41,0,0,1,.56-1.83,2,2,0,0,1,1.88-.87,2.12,2.12,0,0,1,1.85.71,2.66,2.66,0,0,1,.51,1.58,2.39,2.39,0,0,1-.56,1.38,2.82,2.82,0,0,1-.66.68,15.19,15.19,0,0,0-2.58,2.07,4,4,0,0,0-.54,2.49c0,.08,0,.25.32.25h2.57a.28.28,0,0,0,.31-.27,3.27,3.27,0,0,1,.14-.87,2.71,2.71,0,0,1,1-1.2l.91-.63a10.07,10.07,0,0,0,1.77-1.58,4.51,4.51,0,0,0-.87-6.16Zm-4.35,12.69a2,2,0,0,0-2.12,2,2.07,2.07,0,1,0,2.12-2Z"/><path class="a" d="M616,66.31V83.69a.31.31,0,0,0,.31.31h17.38a.31.31,0,0,0,.31-.31V66.31a.31.31,0,0,0-.31-.31H616.31A.31.31,0,0,0,616,66.31Zm14.85,3.1L619.38,80.88a.16.16,0,0,1-.28-.11V69.49a.37.37,0,0,1,.36-.37h11.28A.17.17,0,0,1,630.85,69.41Z"/></svg>