<svg xmlns="http://www.w3.org/2000/svg" xmlns:xlink="http://www.w3.org/1999/xlink" viewBox="0 0 650 150"><defs><style>.a,.i{fill:#fcfcfc;}.b,.e,.f,.g,.l{fill:none;}.c{fill:#f49c00;}.d{fill:#fff;}.e{stroke:#fff;}.e,.f,.g,.i,.l{stroke-linecap:round;}.e,.l{stroke-linejoin:round;}.e,.f,.g,.i{stroke-width:2px;}.f,.i,.l{stroke:#000;}.f,.g,.i{stroke-miterlimit:10;}.g{stroke:#f49c00;}.h{clip-path:url(#a);}.j{clip-path:url(#b);}.k{clip-path:url(#c);}.l{stroke-width:4.36px;}</style><clipPath id="a"><rect class="a" x="321.94" y="116.51" width="6.12" height="16.97"/></clipPath><clipPath id="b"><rect class="b" x="371.94" y="116.51" width="6.12" height="16.97"/></clipPath><clipPath id="c"><rect class="b" x="512.69" y="61.28" width="24.61" height="27.44"/></clipPath></defs><title>icon-set-13</title><path class="c" d="M37.64,25A12.64,12.64,0,1,1,25,12.36,12.64,12.64,0,0,1,37.64,25"/><path class="c" d="M37.64,75A12.64,12.64,0,1,1,25,62.36,12.64,12.64,0,0,1,37.64,75"/><path class="c" d="M87.64,75A12.64,12.64,0,1,1,75,62.36,12.64,12.64,0,0,1,87.64,75"/><path class="c" d="M125,87.64A12.64,12.64,0,1,1,137.64,75,12.64,12.64,0,0,1,125,87.64"/><path class="c" d="M175,87.64A12.64,12.64,0,1,1,187.64,75,12.64,12.64,0,0,1,175,87.64"/><path class="c" d="M225,87.64A12.64,12.64,0,1,1,237.64,75,12.64,12.64,0,0,1,225,87.64"/><path class="c" d="M87.64,25A12.64,12.64,0,1,1,75,12.36,12.64,12.64,0,0,1,87.64,25"/><path class="c" d="M137.64,25A12.64,12.64,0,1,1,125,12.36,12.64,12.64,0,0,1,137.64,25"/><path class="c" d="M187.64,25A12.64,12.64,0,1,1,175,12.36,12.64,12.64,0,0,1,187.64,25"/><path class="c" d="M284.91,25A9.91,9.91,0,1,1,275,15.09,9.91,9.91,0,0,1,284.91,25"/><path class="c" d="M34.91,125A9.91,9.91,0,1,1,25,115.09,9.91,9.91,0,0,1,34.91,125"/><path class="c" d="M84.91,125A9.91,9.91,0,1,1,75,115.09,9.91,9.91,0,0,1,84.91,125"/><path class="c" d="M134.91,125a9.91,9.91,0,1,1-9.91-9.91,9.91,9.91,0,0,1,9.91,9.91"/><path class="c" d="M184.91,125a9.91,9.91,0,1,1-9.91-9.91,9.91,9.91,0,0,1,9.91,9.91"/><path class="c" d="M334.91,25A9.91,9.91,0,1,1,325,15.09,9.91,9.91,0,0,1,334.91,25"/><path class="c" d="M334.91,75A9.91,9.91,0,1,1,325,65.09,9.91,9.91,0,0,1,334.91,75"/><path class="d" d="M67.49,70.5h15v-3h-15Zm0,6h15v-3h-15Zm0,6h15v-3h-15Z"/><path class="d" d="M125.38,17.08A1,1,0,0,0,125,17a1,1,0,0,0-.71.29L120.49,21H118a1,1,0,0,0-1,1v6a1,1,0,0,0,1,1h2.52l3.78,3.71A1,1,0,0,0,125,33a1,1,0,0,0,1-1V18a1,1,0,0,0-.62-.92m2.82,4.6L126.88,23a2.59,2.59,0,0,1,.9,2,2.63,2.63,0,0,1-.9,2l1.34,1.33a4.91,4.91,0,0,0,0-6.66m2.54-2.54-1.41,1.41a6.73,6.73,0,0,1,0,8.9l1.41,1.41a8.7,8.7,0,0,0,0-11.72"/><path class="d" d="M178.89,17.08a1.08,1.08,0,0,0-.38-.08,1,1,0,0,0-.71.29L174,21h-2.5a1,1,0,0,0-1,1v6a1,1,0,0,0,1,1H174l3.78,3.71a1,1,0,0,0,.71.29,1.08,1.08,0,0,0,.38-.08,1,1,0,0,0,.62-.92V18a1,1,0,0,0-.62-.92"/><path class="d" d="M32.89,73.33l-1.65-.1a6.35,6.35,0,0,0-.59-1.42l1.11-1.21a.82.82,0,0,0,0-1.16l-1.21-1.2a.81.81,0,0,0-1.15,0l-1.21,1.11a6.35,6.35,0,0,0-1.42-.59l-.1-1.65a.82.82,0,0,0-.82-.82h-1.7a.82.82,0,0,0-.82.82l-.1,1.65a6.35,6.35,0,0,0-1.42.59L20.6,68.24a.81.81,0,0,0-1.15,0l-1.21,1.2a.82.82,0,0,0,0,1.16l1.11,1.21a6.35,6.35,0,0,0-.59,1.42l-1.65.1a.81.81,0,0,0-.82.82v1.7a.82.82,0,0,0,.82.82l1.65.1a6.35,6.35,0,0,0,.59,1.42L18.24,79.4a.82.82,0,0,0,0,1.16l1.21,1.2a.81.81,0,0,0,1.15,0l1.21-1.11a6.35,6.35,0,0,0,1.42.59l.1,1.65a.82.82,0,0,0,.82.82h1.7a.82.82,0,0,0,.82-.82l.1-1.65a6.35,6.35,0,0,0,1.42-.59l1.21,1.11a.81.81,0,0,0,1.15,0l1.21-1.2a.82.82,0,0,0,0-1.16l-1.11-1.21a6.35,6.35,0,0,0,.59-1.42l1.65-.1a.82.82,0,0,0,.82-.82v-1.7a.82.82,0,0,0-.82-.82M25,78.89A3.89,3.89,0,1,1,28.89,75,3.89,3.89,0,0,1,25,78.89m0-6.3A2.41,2.41,0,1,0,27.41,75,2.41,2.41,0,0,0,25,72.59"/><path class="d" d="M24.24,25l5.58-5.55a1.42,1.42,0,0,0,0-2l-.51-.51a1.45,1.45,0,0,0-2,0l-6.56,6.54,0,0-.5.5a1.45,1.45,0,0,0,0,2l.5.5,0,0,6.56,6.54a1.44,1.44,0,0,0,2,0l.51-.5a1.44,1.44,0,0,0,0-2Z"/><path class="d" d="M75.76,25l-5.58,5.55a1.42,1.42,0,0,0,0,2l.51.51a1.44,1.44,0,0,0,2,0l6.56-6.54,0,0,.5-.5a1.45,1.45,0,0,0,0-2l-.5-.5,0,0-6.56-6.54a1.46,1.46,0,0,0-2,0l-.51.51a1.42,1.42,0,0,0,0,2Z"/><path class="d" d="M125.58,125l-4.27,4.25a1.08,1.08,0,0,0,0,1.54l.39.39a1.11,1.11,0,0,0,1.55,0l5-5,0,0,.39-.38a1.11,1.11,0,0,0,0-1.56l-.39-.38,0,0-5-5a1.11,1.11,0,0,0-1.55,0l-.39.39a1.09,1.09,0,0,0,0,1.55Z"/><path class="d" d="M24.42,125l4.27-4.24a1.09,1.09,0,0,0,0-1.55l-.39-.39a1.11,1.11,0,0,0-1.55,0l-5,5,0,0-.39.38a1.11,1.11,0,0,0,0,1.56l.39.38,0,0,5,5a1.11,1.11,0,0,0,1.55,0l.39-.39a1.09,1.09,0,0,0,0-1.55Z"/><path class="d" d="M125,75.76l-5.55-5.58a1.42,1.42,0,0,0-2,0l-.51.51a1.44,1.44,0,0,0,0,2l6.54,6.56s0,0,0,0l.5.5a1.45,1.45,0,0,0,2,0l.5-.5s0,0,0,0l6.54-6.56a1.45,1.45,0,0,0,0-2l-.51-.51a1.42,1.42,0,0,0-2,0Z"/><path d="M425,71.71l9.67,9.69a1.08,1.08,0,0,0,1.54,0l.39-.39a1.09,1.09,0,0,0,0-1.55L426.18,69a0,0,0,0,1,0,0l-.39-.39a1.08,1.08,0,0,0-.78-.31,1,1,0,0,0-.78.32l-.38.38,0,0L413.4,79.46a1.09,1.09,0,0,0,0,1.55l.38.39a1.09,1.09,0,0,0,1.55,0Z"/><path d="M375,78.29l-9.67-9.69a1.08,1.08,0,0,0-1.54,0l-.39.39a1.09,1.09,0,0,0,0,1.55L373.82,81a0,0,0,0,1,0,0l.39.39a1.11,1.11,0,0,0,1.56,0l.38-.39s0,0,0,0L386.6,70.54a1.09,1.09,0,0,0,0-1.55l-.38-.39a1.09,1.09,0,0,0-1.55,0Z"/><path class="d" d="M175,74.24l5.55,5.58a1.42,1.42,0,0,0,2,0l.51-.51a1.44,1.44,0,0,0,0-2l-6.54-6.56s0,0,0,0l-.5-.5a1.45,1.45,0,0,0-2,0l-.5.5s0,0,0,0l-6.54,6.56a1.44,1.44,0,0,0,0,2l.51.51a1.42,1.42,0,0,0,2,0Z"/><path class="d" d="M225,72.67l-4.91-4.93a1.26,1.26,0,0,0-1.79,0l-.44.45a1.27,1.27,0,0,0,0,1.79l5.78,5.81v0l.45.44a1.23,1.23,0,0,0,.9.37,1.22,1.22,0,0,0,.9-.37l.44-.44,0,0L232.14,70a1.27,1.27,0,0,0,0-1.79l-.44-.45a1.26,1.26,0,0,0-1.79,0Z"/><path class="d" d="M225,81.21l-4.91-4.93a1.26,1.26,0,0,0-1.79,0l-.44.45a1.29,1.29,0,0,0,0,1.8l5.78,5.8s0,0,0,0l.45.45a1.27,1.27,0,0,0,.9.37,1.26,1.26,0,0,0,.9-.37l.44-.45,0,0,5.77-5.8a1.29,1.29,0,0,0,0-1.8l-.44-.45a1.26,1.26,0,0,0-1.79,0Z"/><path class="c" d="M275,62.36A12.64,12.64,0,1,1,262.36,75,12.64,12.64,0,0,1,275,62.36"/><path class="d" d="M275,78.64l4.91,4.93a1.26,1.26,0,0,0,1.78,0l.45-.45a1.29,1.29,0,0,0,0-1.8l-5.78-5.8,0,0-.45-.45a1.23,1.23,0,0,0-.89-.37,1.26,1.26,0,0,0-.9.37l-.44.45s0,0,0,0l-5.77,5.8a1.29,1.29,0,0,0,0,1.8l.44.45a1.27,1.27,0,0,0,1.79,0Z"/><path class="d" d="M275,70.33l4.91,4.93a1.24,1.24,0,0,0,1.78,0l.45-.45a1.27,1.27,0,0,0,0-1.79l-5.78-5.81,0,0-.45-.45a1.22,1.22,0,0,0-.89-.36,1.25,1.25,0,0,0-.9.36l-.44.45s0,0,0,0L267.86,73a1.27,1.27,0,0,0,0,1.79l.44.45a1.26,1.26,0,0,0,1.79,0Z"/><path class="c" d="M227.6,25a2.6,2.6,0,1,1-2.6-2.6,2.59,2.59,0,0,1,2.6,2.6"/><path class="c" d="M237.6,25a2.6,2.6,0,1,1-2.6-2.6,2.59,2.59,0,0,1,2.6,2.6"/><path class="c" d="M217.6,25a2.6,2.6,0,1,1-2.6-2.6,2.59,2.59,0,0,1,2.6,2.6"/><path class="d" d="M327.48,25l2.69-2.69a1.46,1.46,0,0,0,0-2l-.43-.43a1.46,1.46,0,0,0-2.05,0L325,22.52l-2.69-2.69a1.46,1.46,0,0,0-2.05,0l-.43.43a1.46,1.46,0,0,0,0,2L322.52,25l-2.69,2.69a1.46,1.46,0,0,0,0,2l.43.43a1.46,1.46,0,0,0,2.05,0L325,27.48l2.69,2.69a1.46,1.46,0,0,0,2.05,0l.43-.43a1.46,1.46,0,0,0,0-2Z"/><rect class="d" x="318.5" y="73.25" width="13" height="3.5" rx="1.7" ry="1.7"/><path class="d" d="M279.94,27H277v2.92a2,2,0,1,1-4,0V27h-2.93a2,2,0,0,1,0-4H273V20.06a2,2,0,1,1,4,0V23h2.93a2,2,0,0,1,0,4"/><path class="c" d="M580.07,78a3,3,0,0,0-1.85.63l-5.29-3.17a4,4,0,0,0,0-.5,4.21,4.21,0,0,0,0-.5l5.29-3.17A3,3,0,1,0,577,68.92a2.81,2.81,0,0,0,0,.5l-5.29,3.17A3,3,0,1,0,569.93,78a3,3,0,0,0,1.85-.63l5.29,3.18a2.63,2.63,0,0,0,0,.49,3,3,0,1,0,3-3"/><path class="d" d="M75,124.42l4.24,4.27a1.09,1.09,0,0,0,1.55,0l.38-.39a1.09,1.09,0,0,0,0-1.55l-5-5,0,0-.39-.39A1.05,1.05,0,0,0,75,121a1.09,1.09,0,0,0-.78.32l-.38.39,0,0-5,5a1.11,1.11,0,0,0,0,1.55l.39.39a1.08,1.08,0,0,0,1.54,0Z"/><path class="d" d="M175,125.58l-4.25-4.27a1.08,1.08,0,0,0-1.54,0l-.39.39a1.11,1.11,0,0,0,0,1.55l5,5,0,0,.38.39a1.11,1.11,0,0,0,1.56,0l.38-.39,0,0,5-5a1.09,1.09,0,0,0,0-1.55l-.38-.39a1.09,1.09,0,0,0-1.55,0Z"/><path d="M425,20.45l13.38,13.41a1.51,1.51,0,0,0,2.14,0l.53-.54a1.51,1.51,0,0,0,0-2.15L426.63,16.71s0,0,0,0l-.53-.54a1.55,1.55,0,0,0-2.16,0l-.53.54,0,0L408.94,31.17a1.53,1.53,0,0,0,0,2.15l.54.54a1.51,1.51,0,0,0,2.14,0Z"/><path d="M375,29.55,361.62,16.14a1.51,1.51,0,0,0-2.14,0l-.54.54a1.53,1.53,0,0,0,0,2.15l14.43,14.46,0,0,.53.54a1.52,1.52,0,0,0,2.16,0l.53-.54s0,0,0,0l14.42-14.46a1.53,1.53,0,0,0,0-2.15l-.54-.54a1.51,1.51,0,0,0-2.14,0Z"/><path d="M529.55,25,516.14,38.38a1.51,1.51,0,0,0,0,2.14l.54.54a1.53,1.53,0,0,0,2.15,0l14.46-14.43,0,0,.54-.53a1.55,1.55,0,0,0,0-2.16l-.54-.53s0,0,0,0L518.83,8.94a1.55,1.55,0,0,0-2.15,0l-.54.54a1.51,1.51,0,0,0,0,2.14Z"/><path d="M470.45,25l13.41-13.38a1.51,1.51,0,0,0,0-2.14L483.32,9a1.51,1.51,0,0,0-2.15,0L466.71,23.37l0,0-.54.53a1.55,1.55,0,0,0,0,2.16l.54.53,0,0,14.46,14.42a1.53,1.53,0,0,0,2.15,0l.54-.54a1.51,1.51,0,0,0,0-2.14Z"/><path d="M624.56,15.81c.24-.5.64-.5.88,0l2.37,4.79a2.15,2.15,0,0,0,1.43,1l5.29.77c.55.08.67.46.28.84L631,27a2.08,2.08,0,0,0-.55,1.68l.9,5.27c.1.54-.23.77-.71.52L625.89,32a2.13,2.13,0,0,0-1.78,0l-4.73,2.49c-.48.25-.81,0-.71-.52l.9-5.27A2.12,2.12,0,0,0,619,27l-3.83-3.74c-.39-.38-.27-.76.28-.84l5.29-.77a2.15,2.15,0,0,0,1.43-1Z"/><path class="e" d="M624.56,15.81c.24-.5.64-.5.88,0l2.37,4.79a2.15,2.15,0,0,0,1.43,1l5.29.77c.55.08.67.46.28.84L631,27a2.08,2.08,0,0,0-.55,1.68l.9,5.27c.1.54-.23.77-.71.52L625.89,32a2.13,2.13,0,0,0-1.78,0l-4.73,2.49c-.48.25-.81,0-.71-.52l.9-5.27A2.12,2.12,0,0,0,619,27l-3.83-3.74c-.39-.38-.27-.76.28-.84l5.29-.77a2.15,2.15,0,0,0,1.43-1Z"/><polyline class="f" points="416.11 121.38 424.49 128.62 433.89 121.38"/><polyline class="g" points="466.11 121.38 474.48 128.62 483.89 121.38"/><polyline class="f" points="583.89 128.62 575.52 121.38 566.11 128.62"/><polyline class="g" points="533.89 128.62 525.51 121.38 516.11 128.62"/><polyline class="g" points="223.01 132.48 226.99 125.43 223.01 117.52"/><polyline class="g" points="273.01 132.48 276.99 125.43 273.01 117.52"/><path class="c" d="M587.7,25.9a12.64,12.64,0,1,1-12.64-12.64A12.64,12.64,0,0,1,587.7,25.9"/><rect class="a" x="321.94" y="116.51" width="6.12" height="16.97"/><g class="h"><polyline class="i" points="322.94 132.48 326.93 125.43 322.94 117.52"/></g><g class="j"><polyline class="f" points="372.94 132.48 376.93 125.43 372.94 117.52"/></g><g class="k"><path class="c" d="M534.53,88.72H526.1V80.78a2.42,2.42,0,0,0-4.84,0v7.94h-5.79a2.79,2.79,0,0,1-2.78-2.78V72.85a2.76,2.76,0,0,1,.9-2L523.12,62a2.76,2.76,0,0,1,3.76,0l9.53,8.79a2.79,2.79,0,0,1,.89,2V85.94a2.77,2.77,0,0,1-2.77,2.78m-6.91-1.52h6.91a1.26,1.26,0,0,0,1.25-1.26V72.85a1.24,1.24,0,0,0-.4-.92l-9.53-8.79a1.28,1.28,0,0,0-1.7,0l-9.53,8.79a1.28,1.28,0,0,0-.4.92V85.94a1.26,1.26,0,0,0,1.25,1.26h4.26V80.78a4,4,0,0,1,7.9,0V87.2Z"/></g><path class="d" d="M580.31,20.85h-2.65a.5.5,0,0,1-.51-.5V17.74a.5.5,0,0,1,.86-.36L580.67,20a.5.5,0,0,1-.36.86m-2.15-1.23h.92l-.92-.9Z"/><path class="d" d="M579.41,32.75h-8.77a1.41,1.41,0,0,1-1.46-1.43V18.66a1.51,1.51,0,0,1,1.49-1.42h7a.5.5,0,0,1,.5.51.5.5,0,0,1-.5.5h-7a.49.49,0,0,0-.48.48V31.32a.39.39,0,0,0,.45.42h8.77a.43.43,0,0,0,.31-.09.46.46,0,0,0,.09-.24v-11a.51.51,0,1,1,1,0v11a1.42,1.42,0,0,1-.37,1,1.41,1.41,0,0,1-1,.4"/><path class="d" d="M578.47,26.07h-6.7a.5.5,0,0,1-.5-.51.5.5,0,0,1,.5-.5h6.7a.5.5,0,0,1,.51.5.51.51,0,0,1-.51.51"/><path class="d" d="M578.47,24h-6.7a.5.5,0,0,1-.5-.51.5.5,0,0,1,.5-.5h6.7a.5.5,0,0,1,.51.5.51.51,0,0,1-.51.51"/><path class="d" d="M578.47,28.1h-6.7a.5.5,0,0,1-.5-.51.5.5,0,0,1,.5-.5h6.7a.5.5,0,0,1,.51.5.51.51,0,0,1-.51.51"/><path d="M630.86,114.05a10.34,10.34,0,0,0-6.16-1.77,8.59,8.59,0,0,0-4.75,1.25q-3.06,1.95-3.26,6.61h4.73a4.84,4.84,0,0,1,.8-2.62,2.92,2.92,0,0,1,2.69-1.26,3.08,3.08,0,0,1,2.66,1,3.88,3.88,0,0,1,.72,2.27,3.5,3.5,0,0,1-.79,2,4.34,4.34,0,0,1-1,1,21.15,21.15,0,0,0-3.7,3c-.65.76-.71,1.91-.77,3.57,0,.11,0,.35.45.35h3.69a.4.4,0,0,0,.44-.38,4.47,4.47,0,0,1,.21-1.26,4,4,0,0,1,1.4-1.72l1.3-.9a13.62,13.62,0,0,0,2.53-2.26,5.89,5.89,0,0,0,1.21-3.58,6,6,0,0,0-2.45-5.24m-6.23,18.18a2.86,2.86,0,0,0-3,2.86,3,3,0,1,0,3-2.86"/><circle class="l" cx="471.57" cy="71.14" r="7.29"/><path class="l" d="M476.29,76.71c4.54,4.65,5.35,4.66,9.43,9.43"/><path class="c" d="M614.5,64.86V85.14a.36.36,0,0,0,.36.36h20.28a.36.36,0,0,0,.36-.36V64.86a.36.36,0,0,0-.36-.36H614.86A.36.36,0,0,0,614.5,64.86Zm17.33,3.62L618.44,81.86a.19.19,0,0,1-.33-.13V68.57a.42.42,0,0,1,.43-.42h13.15A.19.19,0,0,1,631.83,68.48Z"/></svg>