<svg xmlns="http://www.w3.org/2000/svg" xmlns:xlink="http://www.w3.org/1999/xlink" viewBox="0 0 650 150"><defs><style>.a{fill:none;}.b{fill:#fff;}.c{opacity:0.5;}.d{opacity:0.2;}.e{clip-path:url(#a);}</style><clipPath id="a"><rect class="a" x="57.05" y="62.27" width="35.89" height="25.46"/></clipPath></defs><title>icon-set-12</title><path class="b" d="M119.4,20.26c-1.12,1.12-6,8.12-1.79,12.35s11.23-.67,12.35-1.79-.33-4.39-3.25-7.31S120.52,19.14,119.4,20.26Zm9.26,9.59c-.33.33-2.89-.46-5.36-2.93s-3.26-5-2.93-5.36,2.9.46,5.36,2.93S129,29.52,128.66,29.85Zm.15-7.88a1,1,0,0,0,.71-.29l1.9-1.91A1,1,0,0,0,130,18.36l-1.9,1.9a1,1,0,0,0,0,1.42A1,1,0,0,0,128.81,22Zm-3.6-2.48a1,1,0,0,0,.49.13,1,1,0,0,0,.87-.51l1.08-1.93a1,1,0,1,0-1.74-1l-1.08,1.92A1,1,0,0,0,125.21,19.49Zm8.75,3a1,1,0,0,0-1.36-.39l-1.93,1.09a1,1,0,1,0,1,1.74l1.93-1.08A1,1,0,0,0,134,22.51Z"/><path class="b" d="M27.15,16.77c-.62.62-6.75,7.05-6.75,7.05A1.66,1.66,0,0,0,19.9,25a1.64,1.64,0,0,0,.5,1.18s6.13,6.44,6.75,7a1.8,1.8,0,0,0,2.43,0,1.61,1.61,0,0,0,0-2.37L24,25l5.62-5.86a1.59,1.59,0,0,0,0-2.36A1.79,1.79,0,0,0,27.15,16.77Z"/><path class="b" d="M72.85,33.23c.62-.62,6.75-7,6.75-7A1.64,1.64,0,0,0,80.1,25a1.66,1.66,0,0,0-.5-1.18s-6.13-6.43-6.75-7a1.8,1.8,0,0,0-2.43,0,1.61,1.61,0,0,0,0,2.37L76,25l-5.62,5.86a1.61,1.61,0,0,0,0,2.37A1.8,1.8,0,0,0,72.85,33.23Z"/><path class="b" d="M181.52,18.48a1,1,0,0,0-1.41,0L164.48,34.11a1,1,0,0,0,0,1.41,1,1,0,0,0,1.41,0l15.63-15.63A1,1,0,0,0,181.52,18.48Zm-4.32,7.71c1.39,1.89,1.82,3.52,1.56,3.78s-1.89-.17-3.78-1.56l-5.53,5.53c4.19,1.84,9.63-2,10.61-3s.1-3.31-1.86-5.76Zm-5.53-1.25c-1.1-1.66-1.43-3-1.2-3.26s1.6.1,3.26,1.2l1-1c-2.26-1.68-4.39-2.34-5.25-1.47s-4.45,5.87-3.24,10Z"/><path class="b" d="M214.5,21.7a3.3,3.3,0,1,0,3.3,3.3A3.3,3.3,0,0,0,214.5,21.7Zm10.5,0a3.3,3.3,0,1,0,3.3,3.3A3.3,3.3,0,0,0,225,21.7Zm10.5,0a3.3,3.3,0,1,0,3.3,3.3A3.3,3.3,0,0,0,235.5,21.7Z"/><path class="b" d="M280.2,24H276V19.8c0-.55-.45-.6-1-.6s-1,.05-1,.6V24h-4.2c-.55,0-.6.45-.6,1s.05,1,.6,1H274v4.2c0,.55.45.6,1,.6s1-.05,1-.6V26h4.2c.55,0,.6-.45.6-1S280.75,24,280.2,24Z"/><path class="b" d="M329.35,28.15,326.59,25l2.76-3.15a1.2,1.2,0,0,0-1.7-1.7l-2.65,3-2.65-3a1.2,1.2,0,1,0-1.7,1.7L323.41,25l-2.76,3.15a1.2,1.2,0,0,0,1.7,1.7l2.65-3,2.65,3a1.2,1.2,0,0,0,1.7-1.7Z"/><path class="b" d="M35.18,75a4.27,4.27,0,0,1,2.42-3.66,12.88,12.88,0,0,0-1-2.51A4,4,0,0,1,32.5,67.5a3.89,3.89,0,0,1-1-4.06,12.88,12.88,0,0,0-2.51-1,4.73,4.73,0,0,1-4,2.42,4.73,4.73,0,0,1-4-2.42,12.88,12.88,0,0,0-2.51,1,3.89,3.89,0,0,1-1,4.06,4,4,0,0,1-4.06,1.33,12.88,12.88,0,0,0-1,2.51A4.28,4.28,0,0,1,14.83,75a4.74,4.74,0,0,1-2.43,4,12.88,12.88,0,0,0,1,2.51,3.89,3.89,0,0,1,4.06,1,3.89,3.89,0,0,1,1,4.06,12.88,12.88,0,0,0,2.51,1,4.73,4.73,0,0,1,4-2.42,4.73,4.73,0,0,1,4,2.42,12.88,12.88,0,0,0,2.51-1,3.89,3.89,0,0,1,1-4.06,4,4,0,0,1,4.06-1.33,12.88,12.88,0,0,0,1-2.51A4.27,4.27,0,0,1,35.18,75ZM25,80.48A5.48,5.48,0,1,1,30.48,75,5.48,5.48,0,0,1,25,80.48Z"/><path class="b" d="M133.22,72.84c-.61.63-7,6.76-7,6.76a1.64,1.64,0,0,1-2.36,0s-6.44-6.13-7-6.76a1.79,1.79,0,0,1,0-2.42,1.61,1.61,0,0,1,2.37,0L125,76l5.86-5.62a1.59,1.59,0,0,1,2.36,0A1.76,1.76,0,0,1,133.22,72.84Z"/><path class="b" d="M166.77,77.15c.61-.62,7-6.75,7-6.75a1.64,1.64,0,0,1,1.18-.5,1.66,1.66,0,0,1,1.18.5s6.43,6.13,7,6.75a1.8,1.8,0,0,1,0,2.43,1.61,1.61,0,0,1-2.37,0L175,74l-5.86,5.62a1.61,1.61,0,0,1-2.37,0A1.8,1.8,0,0,1,166.77,77.15Z"/><path class="b" d="M233.23,72.84c-.62.63-7,6.76-7,6.76a1.64,1.64,0,0,1-1.18.5,1.66,1.66,0,0,1-1.18-.5s-6.43-6.13-7-6.76a1.79,1.79,0,0,1,0-2.42,1.61,1.61,0,0,1,2.37,0L225,76l5.86-5.62a1.61,1.61,0,0,1,2.37,0A1.79,1.79,0,0,1,233.23,72.84Z"/><path class="b" d="M233.23,72.84c-.62.63-7,6.76-7,6.76a1.64,1.64,0,0,1-1.18.5,1.66,1.66,0,0,1-1.18-.5s-6.43-6.13-7-6.76a1.79,1.79,0,0,1,0-2.42,1.61,1.61,0,0,1,2.37,0L225,76l5.86-5.62a1.61,1.61,0,0,1,2.37,0A1.79,1.79,0,0,1,233.23,72.84Z"/><path class="b" d="M266.78,77.15c.6-.62,7-6.75,7-6.75a1.64,1.64,0,0,1,2.36,0s6.44,6.13,7.05,6.75a1.8,1.8,0,0,1,0,2.43,1.61,1.61,0,0,1-2.37,0L275,74l-5.86,5.62a1.59,1.59,0,0,1-2.36,0A1.78,1.78,0,0,1,266.78,77.15Z"/><path class="b" d="M266.78,77.16c.6-.63,7-6.76,7-6.76a1.64,1.64,0,0,1,2.36,0s6.44,6.13,7.05,6.76a1.79,1.79,0,0,1,0,2.42,1.61,1.61,0,0,1-2.37,0L275,74l-5.86,5.62a1.59,1.59,0,0,1-2.36,0A1.76,1.76,0,0,1,266.78,77.16Z"/><path class="b" d="M580,78a2.94,2.94,0,0,0-1.82.62L573,75.49a3,3,0,0,0,0-1l5.22-3.13A2.94,2.94,0,0,0,580,72a3,3,0,1,0-3-3,3.89,3.89,0,0,0,0,.49l-5.21,3.13a3,3,0,1,0,0,4.76L577,80.51a3.89,3.89,0,0,0,0,.49,3,3,0,1,0,3-3Z"/><path class="b" d="M535,75.34l-9.15-9.15a1.17,1.17,0,0,0-1.7,0L515,75.34c-.46.49-.29.88.39.88h1.91v7c0,.51,0,.92.94.92h4.44v-7h4.64v7H532c.7,0,.72-.41.72-.92v-7h1.91C535.29,76.22,535.46,75.83,535,75.34Z"/><polygon class="b" points="31 118.1 31 131.9 19 125 31 118.1"/><polygon class="b" points="119 118.1 119 131.9 131 125 119 118.1"/><polygon class="b" points="68.1 131 81.9 131 75 119 68.1 131"/><polygon class="b" points="181.9 119 168.1 119 175 131 181.9 119"/><polygon class="b" points="625 11.8 628.58 21.88 638.2 21.88 630.35 27.8 633.16 38.2 625 31.97 616.84 38.2 619.65 27.8 611.8 21.88 621.42 21.88 625 11.8"/><path class="b" d="M589.1,21.12l-11.17-3-2-7.3a1.17,1.17,0,0,0-1.45-.79L560.9,13.69a1.18,1.18,0,0,0-.86,1.42l4.84,18.07a1.18,1.18,0,0,0,1.46.8l5.42-1.46L571,35.28a1.18,1.18,0,0,0,.86,1.42L584.05,40a1.19,1.19,0,0,0,1.46-.79L590,22.54A1.17,1.17,0,0,0,589.1,21.12Zm-26.65-5.67,11.74-3.15,4.35,16.23L566.8,31.67ZM583.52,37.7l-10.23-2.8.81-3L580,30.33a1.18,1.18,0,0,0,.87-1.42l-2.26-8.44,8.92,2.45Z"/><path class="b" d="M629.09,117.23a7.17,7.17,0,0,0-4.3-1.23,6,6,0,0,0-3.32.87,5.32,5.32,0,0,0-2.27,4.61h3.3a3.41,3.41,0,0,1,.56-1.83,2,2,0,0,1,1.88-.87,2.12,2.12,0,0,1,1.85.71,2.66,2.66,0,0,1,.51,1.58,2.39,2.39,0,0,1-.56,1.38,2.82,2.82,0,0,1-.66.68,15.19,15.19,0,0,0-2.58,2.07,4,4,0,0,0-.54,2.49c0,.08,0,.25.32.25h2.57a.28.28,0,0,0,.31-.27,3.43,3.43,0,0,1,.14-.88,2.75,2.75,0,0,1,1-1.19l.91-.63a10.07,10.07,0,0,0,1.77-1.58,4.51,4.51,0,0,0-.87-6.16Zm-4.35,12.69a2,2,0,0,0-2.12,2,2.07,2.07,0,1,0,2.12-2Z"/><path class="b" d="M330.2,74H319.8c-.55,0-.6.45-.6,1s.05,1,.6,1h10.4c.55,0,.6-.45.6-1S330.75,74,330.2,74Z"/><path class="b" d="M481.6,36.13a1.05,1.05,0,0,1,0,1.47,1,1,0,0,1-1.45,0L468.4,25.73a1,1,0,0,1,0-1.46L480.15,12.4a1,1,0,0,1,1.45,0,1.05,1.05,0,0,1,0,1.47L470.89,25Z"/><path class="b" d="M518.4,13.87a1.05,1.05,0,0,1,0-1.47,1,1,0,0,1,1.45,0L531.6,24.27a1,1,0,0,1,0,1.46L519.85,37.6a1,1,0,0,1-1.45,0,1.05,1.05,0,0,1,0-1.47L529.11,25Z"/><path class="b" d="M386.13,18.4a1.05,1.05,0,0,1,1.47,0,1,1,0,0,1,0,1.46L375.73,31.6a1,1,0,0,1-1.46,0L362.4,19.86a1,1,0,0,1,0-1.46,1.05,1.05,0,0,1,1.47,0L375,29.11Z"/><path class="b" d="M413.87,31.6a1.05,1.05,0,0,1-1.47,0,1,1,0,0,1,0-1.45L424.27,18.4a1,1,0,0,1,1.46,0L437.6,30.15a1,1,0,0,1,0,1.45,1.05,1.05,0,0,1-1.47,0L425,20.89Z"/><path class="b" d="M381.84,70.2a1.39,1.39,0,0,1,2,0,1.36,1.36,0,0,1,0,1.94L376,79.8a1.41,1.41,0,0,1-2,0l-7.81-7.66a1.36,1.36,0,0,1,0-1.94,1.39,1.39,0,0,1,2,0L375,76.48Z"/><path class="b" d="M418.16,79.8a1.39,1.39,0,0,1-2,0,1.36,1.36,0,0,1,0-1.94L424,70.2a1.41,1.41,0,0,1,2,0l7.81,7.66a1.36,1.36,0,0,1,0,1.94,1.39,1.39,0,0,1-2,0L425,73.52Z"/><path class="b" d="M215.8,125a9.2,9.2,0,1,0,9.2-9.2A9.2,9.2,0,0,0,215.8,125Zm16.4,0a7.2,7.2,0,1,1-7.2-7.2A7.2,7.2,0,0,1,232.2,125Zm-11-1.8v3.6h4.09v2.25l3.81-4.05-3.81-4v2.25Z"/><g class="c"><path d="M315.8,125a9.2,9.2,0,1,0,9.2-9.2A9.2,9.2,0,0,0,315.8,125Zm16.4,0a7.2,7.2,0,1,1-7.2-7.2A7.2,7.2,0,0,1,332.2,125Zm-11.05-1.8v3.6h4.09v2.25l3.81-4.05-3.81-4v2.25Z"/></g><path d="M265.8,125a9.2,9.2,0,1,0,9.2-9.2A9.2,9.2,0,0,0,265.8,125Zm16.4,0a7.2,7.2,0,1,1-7.2-7.2A7.2,7.2,0,0,1,282.2,125Zm-11.05-1.8v3.6h4.09v2.25l3.81-4.05-3.81-4v2.25Z"/><g class="d"><path d="M365.8,125a9.2,9.2,0,1,0,9.2-9.2A9.2,9.2,0,0,0,365.8,125Zm16.4,0a7.2,7.2,0,1,1-7.2-7.2A7.2,7.2,0,0,1,382.2,125Zm-11.05-1.8v3.6h4.09v2.25l3.81-4.05-3.81-4v2.25Z"/></g><path class="b" d="M425,115.8a9.2,9.2,0,1,0,9.2,9.2A9.2,9.2,0,0,0,425,115.8Zm0,16.4a7.2,7.2,0,1,1,7.2-7.2A7.2,7.2,0,0,1,425,132.2Zm1.8-11h-3.6v4.09H421l4.05,3.81,4.05-3.81H426.8Z"/><path d="M475,134.2a9.2,9.2,0,1,0-9.2-9.2A9.2,9.2,0,0,0,475,134.2Zm0-16.4a7.2,7.2,0,1,1-7.2,7.2A7.2,7.2,0,0,1,475,117.8Zm-1.8,11h3.6v-4.09h2.25L475,121,471,124.76h2.25Z"/><path class="b" d="M575,134.2a9.2,9.2,0,1,0-9.2-9.2A9.2,9.2,0,0,0,575,134.2Zm0-16.4a7.2,7.2,0,1,1-7.2,7.2A7.2,7.2,0,0,1,575,117.8Zm-1.8,11h3.6v-4.09h2.25L575,121l-4,3.81h2.25Z"/><path d="M525,115.8a9.2,9.2,0,1,0,9.2,9.2A9.2,9.2,0,0,0,525,115.8Zm0,16.4a7.2,7.2,0,1,1,7.2-7.2A7.2,7.2,0,0,1,525,132.2Zm1.8-11h-3.6v4.09H521l4,3.81,4-3.81H526.8Z"/><path class="b" d="M486.41,83.27l-5.71-5.72a9.31,9.31,0,0,0,1.36-4.85,9.86,9.86,0,0,0-9.65-9.65,9.36,9.36,0,0,0-9.36,9.36,9.85,9.85,0,0,0,9.64,9.64,9.34,9.34,0,0,0,4.72-1.27l5.74,5.75a1.45,1.45,0,0,0,2,0l1.43-1.43C487.18,84.54,487,83.83,486.41,83.27ZM465.93,72.41a6.48,6.48,0,0,1,6.48-6.48,7,7,0,0,1,6.76,6.76,6.48,6.48,0,0,1-6.47,6.48A7,7,0,0,1,465.93,72.41Z"/><path class="b" d="M61.86,65.64h1.36a2.74,2.74,0,0,1,2.93,3.09v0a2.82,2.82,0,0,1-2.81,3.15h-.16V75H61.86Zm1.5,5c.88,0,1.46-.65,1.46-1.89v0c0-1.3-.56-1.91-1.44-1.91h-.2v3.83Z"/><path class="b" d="M68.54,65.62h1.4L71.8,75H70.48l-.38-2.09H68.34L68,75H66.68Zm1.36,6.1L69.22,68l-.68,3.75Z"/><path class="b" d="M72.51,70.47v-.3c0-3,1.29-4.59,3-4.59a2.75,2.75,0,0,1,1.22.26v1.39a2.26,2.26,0,0,0-1.18-.4c-1,0-1.74,1.07-1.74,3.29v.4c0,2.53.81,3.34,1.65,3.34a.91.91,0,0,0,.31,0V71h-1V69.85H77v4.84a3.43,3.43,0,0,1-1.56.39C73.83,75.08,72.51,73.68,72.51,70.47Z"/><path class="b" d="M78.25,65.64h3.47v1.24H79.58v2.79h1.91v1.24H79.58v2.85h2.18V75H78.25Z"/><path class="b" d="M82.61,74.66V73.27a3,3,0,0,0,1.52.55.9.9,0,0,0,1-1v0c0-.53-.17-.92-1-2-1.14-1.37-1.56-2-1.56-3v0a2.14,2.14,0,0,1,2.14-2.28,2.89,2.89,0,0,1,1.44.33v1.39a2.36,2.36,0,0,0-1.29-.45.91.91,0,0,0-1,1v0c0,.52.17.81,1,1.82,1.25,1.47,1.57,2.1,1.57,3.16v0a2.18,2.18,0,0,1-2.19,2.3A3.49,3.49,0,0,1,82.61,74.66Z"/><g class="e"><path class="b" d="M80.35,85.56h-13a1.09,1.09,0,1,0,0,2.17h13a1.09,1.09,0,1,0,0-2.17m-13-6.51h13a1.09,1.09,0,1,0,0-2.17h-13a1.09,1.09,0,1,0,0,2.17m13,2.17h-13a1.09,1.09,0,1,0,0,2.17h13a1.09,1.09,0,1,0,0-2.17"/></g><path class="b" d="M616,66.31V83.69a.31.31,0,0,0,.31.31h17.38a.31.31,0,0,0,.31-.31V66.31a.31.31,0,0,0-.31-.31H616.31A.31.31,0,0,0,616,66.31Zm14.85,3.1L619.38,80.88a.16.16,0,0,1-.28-.11V69.49a.37.37,0,0,1,.36-.37h11.28A.17.17,0,0,1,630.85,69.41Z"/></svg>