<svg xmlns="http://www.w3.org/2000/svg" viewBox="0 0 650 150"><defs><style>.a{fill:#f4f4f4;}.b,.g{opacity:0.5;}.c{opacity:0.2;}.d,.k{fill:#4b4b4b;}.d{opacity:0.15;}.d,.e,.f,.g,.l,.p{isolation:isolate;}.e{opacity:0.05;}.f,.g,.m,.t{fill:none;}.f,.g{stroke:#ecf0f1;stroke-width:1.14px;}.f,.g,.t{stroke-miterlimit:10;}.f,.l{opacity:0.75;}.h{fill:#dfc325;}.i{fill:#d0d3d6;}.j,.l{fill:#ecf0f1;}.n{fill:#a5a5a5;}.o,.p{fill:#e8bc43;}.p{opacity:0.08;}.q{fill:#dcdee0;}.r{fill:#e56053;}.s{fill:#bdc3c7;}.t{stroke:#d0d3d6;stroke-width:2.63px;}.u{fill:#f1f1f1;}.v{fill:#fff;}</style></defs><title>icon-set-7</title><polygon class="a" points="281.68 23.9 281.68 26.1 276.1 26.1 276.1 31.68 273.9 31.68 273.9 26.1 268.32 26.1 268.32 23.9 273.9 23.9 273.9 18.32 276.1 18.32 276.1 23.9 281.68 23.9"/><rect class="a" x="318.32" y="73.9" width="13.36" height="2.19"/><polygon class="a" points="330.5 28.95 328.95 30.5 325 26.55 321.05 30.5 319.5 28.95 323.45 25 319.5 21.05 321.05 19.5 325 23.45 328.95 19.5 330.5 21.05 326.55 25 330.5 28.95"/><path class="a" d="M220.92,120l5,5-5,5.05,1.56,1.55,6.6-6.6-6.6-6.6Z"/><path d="M270.92,120l5,5-5,5.05,1.56,1.55,6.6-6.6-6.6-6.6Z"/><path class="a" d="M430.05,120.92,425,126l-5.05-5-1.55,1.56,6.6,6.6,6.6-6.6Z"/><path d="M480.05,120.92,475,126l-5.05-5-1.55,1.56,6.6,6.6,6.6-6.6Z"/><path class="b" d="M320.92,120l5,5-5,5.05,1.55,1.55,6.61-6.6-6.61-6.6Z"/><path class="c" d="M370.92,130.05l5-5.05-5-5,1.55-1.55,6.61,6.6-6.61,6.6Z"/><path d="M520,129.08l5-5,5,5,1.55-1.56-6.6-6.6-6.6,6.6Z"/><path class="a" d="M570,129.08l5-5,5,5,1.55-1.56-6.6-6.6-6.6,6.6Z"/><path class="d" d="M225,44a19,19,0,1,0-19-19,19,19,0,0,0,19,19"/><path class="a" d="M215.7,22.34a2.93,2.93,0,1,0,2.93,2.93A2.93,2.93,0,0,0,215.7,22.34Zm9.3,0a2.93,2.93,0,1,0,2.92,2.93A2.93,2.93,0,0,0,225,22.34Zm9.3,0a2.93,2.93,0,1,0,2.92,2.93A2.92,2.92,0,0,0,234.3,22.34Z"/><path class="d" d="M75,44A19,19,0,1,0,56,25,19,19,0,0,0,75,44"/><path class="e" d="M91.21,31.09l-.31-.31-1.23-1.23L88.52,28.4l-.32-.32L88.13,28,88,27.86l-.93-.93-1.32-1.32-.85-.85-.62-.62L78.4,18.28,78,17.89l-.15-.15-.93-.93-.46-.46L76.08,16l-.15-.15-.16-.16-.38-.38L75.08,15h0L75,14.88l-1.78,1.78.07.08,5.52,5.53,1.46,1.46H64.88v2.53H65v.08H65v.08h.08v.08h.08v.07h.07v.08h.08v.07h.08v.08h.07v.08h.08V27h.08V27h.08v.07h.07v.08h.08v.08H66v.07H66v.08h.07v.08h.08v.07h.08v.08h.07v.08h.08v.07h.08v.08h.07V28h.08V28h.08v.07h.08v.08h.07v.08H67v.07H67v.08h.07v.08h.08v.08h.08v.07h.07v.08h.08v.07h.08v.08h.08V29h.07V29h.08v.07h.08v.08h.07v.08H68v.08H68v.07h.08v.08h.07v.08h.08v.07h.08v.08h.07v.08h.08v.07h.08V30h.07V30h.08v.08h.08v.07h.08v.08H69v.08H69v.07h.08v.08h.07v.08h.08v.07h.08v.08h.08v.08h.07v.08h.08V31h.08V31h.07v.08h.08v.07h.08v.08H70v.08H70v.08h.08v.07h.08v.08h.07v.08h.08v.07h.08v.08h.07v.08h.08V32h.08V32h.08v.08h.07v.08h.08v.07H71v.08H71v.08h.08v.07h.08v.08h.07v.08h.08v.08h.08v.07h.08v.08h.07V33h.08V33h.08v.08h.07v.08h.08v.08H72v.07H72v.08h.08v.08h.08v.07h.08v.08h.07v.08h.08v.07h.08v.08h.08V34h.07V34h.08v.08h.08v.08h.07v.08H73v.07h.08v.08h.07v.08h.08v.08h.08v.07h.07v.08h.08v.08h.08v.07h.08V35h.07v.08h.08v.07h.08v.08h.07v.08H74v.08h.08v.07h.07v.08h.08v.08h.08v.07h.08v.08h.07v.08h.08v.07h.08V36h.08v.08h.07v.08h.08v.07h.08v.08H75v.08h.08v.08h.08v.07h.07v.08h.08v.08h.08v.07h.08v.08h.07v.08h.08V37h.08v.08h.07v.08h.08v.08h.08v.07H76v.08h.08v.08h.08v.07h.08v.08h.07v.08h.08v.07h.08v.08h.07v.08h.08V38h.08v.08h.08v.08h.07v.08h.08v.07H77v.08h.07v.08h.08v.07h.08v.08h.07v.08h.08v.08h.08v.07h.08v.08h.07V39h.08v.1h.08v.08h.07v.07h.08v.08H78v.08h.08v.07h.07v.08h.08v.08h.08v.08h.07v.07h.08v.08h.08v.08h.07V40h.11v.07h.07v.08h.08v.07h.08v.08H79v.08h.07v.08h.08v.07h.08v.08h.07v.08h.08v.08h.08v.07h.07v.08h.08V41h.08v.07h.08v.08h.07v.08h.08v.07H80v.08h.08v.08h.07v.07h.08v.08h.08v.08h.07v.08h.08v.07h.08v.08h.07V42h.08v.08h.08v.07h.07v.08h.08v.08H81v.07h.08v.08h.07v.08h.08v.07h.08v.08h.07v.08h.08v0a19,19,0,0,0,11-10.45Z"/><path class="a" d="M75,14.88l-1.78,1.78,7,7.07H64.88v2.53H80.27l-7,7.08L75,35.12,85.12,25Z"/><path class="d" d="M125,44a19,19,0,1,0-19-19,19,19,0,0,0,19,19"/><path class="e" d="M143,31s0,0,0,0l-.08-.08a.6.6,0,0,0-.08-.08l-.07-.07-.08-.08-.08-.08-.07-.07a.6.6,0,0,0-.08-.08l-.08-.08-.08-.08-.07-.07a.6.6,0,0,0-.08-.08l-.08-.08A.46.46,0,0,0,142,30l-.08-.08-.08-.08-.08-.07a.27.27,0,0,0-.07-.08.6.6,0,0,0-.08-.08l-.08-.08-.07-.07-.08-.08a.6.6,0,0,0-.08-.08l-.08-.07a.27.27,0,0,0-.07-.08l-.08-.08a.8.8,0,0,1-.15-.15.6.6,0,0,0-.08-.08l-.08-.08-.07-.07a.6.6,0,0,0-.08-.08l-.08-.08-.07-.07-.08-.08-.08-.08-.08-.08a.46.46,0,0,0-.07-.07l-.08-.08A.6.6,0,0,0,140,28l-.07-.07a.6.6,0,0,0-.08-.08l-.08-.08a.6.6,0,0,0-.08-.08.46.46,0,0,0-.07-.07l-.08-.08a.8.8,0,0,1-.15-.15.6.6,0,0,0-.08-.08l-.08-.08a.46.46,0,0,0-.07-.07l-.08-.08L139,27l-.08-.08a.46.46,0,0,0-.07-.07l-.08-.08a.6.6,0,0,0-.08-.08l-.07-.07-.08-.08-.08-.08-.07-.07a.6.6,0,0,0-.08-.08l-.08-.08-.08-.08-.07-.07A.6.6,0,0,0,138,26l-.08-.08-.07-.07-.08-.08-.08-.08a.8.8,0,0,1-.15-.15l-.08-.08a.6.6,0,0,0-.08-.08.46.46,0,0,0-.07-.07l-.08-.08-.08-.08-.07-.07A.6.6,0,0,0,137,25l-.08-.08a.8.8,0,0,1-.15-.15l-.08-.08-.08-.08-.07-.07-.08-.08a.3.3,0,0,0-.08-.08l-.08-.08a.46.46,0,0,0-.07-.07l-.08-.08-.07-.08L136,24l-.08-.08a.6.6,0,0,0-.08-.08l-.07-.07a.6.6,0,0,0-.08-.08l-.08-.08-.08-.07a.27.27,0,0,0-.07-.08.6.6,0,0,0-.08-.08l-.08-.08-.07-.07-.08-.08-.08-.08L135,23l-.08-.08-.08-.08-.07-.07a.6.6,0,0,0-.08-.08l-.08-.08a.6.6,0,0,0-.08-.08l-.07-.07a.6.6,0,0,0-.08-.08l-.08-.08-.08-.08-.07-.07-.08-.08L134,22l-.07-.07a.6.6,0,0,0-.08-.08l-.08-.08-.07-.07-.08-.08a.6.6,0,0,0-.08-.08l-.08-.07a.27.27,0,0,0-.07-.08l-.08-.08a.6.6,0,0,0-.08-.08l-.07-.07-.08-.08L133,21l-.07-.07a.6.6,0,0,0-.08-.08l-.08-.08-.08-.08-.07-.07a.6.6,0,0,0-.08-.08l-.08-.08-.07-.07-.08-.08a.6.6,0,0,0-.08-.08l-.08-.08a.46.46,0,0,0-.07-.07L132,20a.6.6,0,0,0-.08-.08.46.46,0,0,0-.07-.07l-.08-.08-.08-.08a.46.46,0,0,0-.07-.07.6.6,0,0,0-.08-.08l-.08-.08-.08-.08-.07-.07a.6.6,0,0,0-.08-.08l-.08-.08a.46.46,0,0,0-.07-.07L131,19l-.08-.08-.08-.07a.27.27,0,0,0-.07-.08l-.08-.08a.6.6,0,0,0-.08-.08.46.46,0,0,0-.07-.07l-.08-.08-.08-.08-.07-.07a.6.6,0,0,0-.08-.08l-.08-.08a.6.6,0,0,0-.08-.08L130,18l-.08-.08-.08-.08-.07-.07-.08-.08-.08-.08a.8.8,0,0,1-.15-.15.6.6,0,0,0-.08-.08l-.08-.07a.27.27,0,0,0-.07-.08l-.08-.08-.08-.08-.08-.07a.27.27,0,0,0-.07-.08l-.08-.08a.6.6,0,0,0-.08-.08l-.07-.07-.08-.08-.08-.08a.46.46,0,0,0-.07-.07.6.6,0,0,0-.08-.08l-.08-.08-.07-.07-.08-.08-.08-.08-.08-.08a.46.46,0,0,0-.07-.07l-.08-.08-.08-.08-.07-.07a.6.6,0,0,0-.08-.08l-.08-.08a.8.8,0,0,1-.15-.15l-.08-.08-.08-.07a.27.27,0,0,0-.07-.08.9.9,0,0,0-.65-.29.87.87,0,0,0-.71.37c-1.28.92-4.55,3.74-6.23,5.34H114a.86.86,0,0,0-.83.89v7.64a.88.88,0,0,0,.3.66l.07.08.08.08.08.07a.3.3,0,0,0,.08.08l.07.08.08.08.08.08.07.07.08.08a.27.27,0,0,0,.08.07.3.3,0,0,0,.08.08l.07.08.08.08.08.07.07.08.08.08a.27.27,0,0,0,.08.07l.07.08a.6.6,0,0,1,.08.08l.08.08.07.07.08.08.08.08.08.07.07.08.08.08a.27.27,0,0,0,.08.07.3.3,0,0,0,.08.08l.07.08.08.07.08.08.07.08.08.08.08.07.07.08.08.08a.27.27,0,0,0,.08.07l.08.08.07.08.08.08a.27.27,0,0,0,.08.07l.07.08.08.08a.27.27,0,0,0,.08.07l.07.08a.6.6,0,0,1,.08.08l.08.08.07.07a.6.6,0,0,1,.08.08l.08.08.08.07.07.08.08.08.08.07a.3.3,0,0,0,.08.08l.07.08.08.07.08.08.07.08.08.08.08.07.07.08a.6.6,0,0,1,.08.08l.08.08.08.07.07.08.08.08a.27.27,0,0,0,.08.07l.07.08.08.08a.27.27,0,0,0,.08.07l.07.08.08.08.08.08.08.07.07.08.08.08a.27.27,0,0,0,.08.07l.07.08.08.08a.27.27,0,0,0,.08.07.3.3,0,0,0,.08.08l.07.08.08.07a.3.3,0,0,0,.08.08.3.3,0,0,0,.08.08l.07.08.08.07.08.08.07.08.08.08a.27.27,0,0,0,.08.07l.07.08.08.08a.27.27,0,0,0,.08.07l.07.08.08.08.08.07a.3.3,0,0,0,.08.08l.07.08.08.08.08.07.07.08.08.08a.27.27,0,0,0,.08.07l.07.08a.6.6,0,0,1,.08.08l.08.07a.3.3,0,0,0,.08.08l.07.08.08.08a.27.27,0,0,0,.08.07l.07.08.08.08.08.07.07.08a.6.6,0,0,1,.08.08l.08.08.08.07.07.08.08.08a.27.27,0,0,0,.08.07l.07.08.08.08.08.08.08.07.07.08.08.08.08.07.07.08.08.08.08.07.07.08a.6.6,0,0,1,.08.08l.08.07a.3.3,0,0,0,.08.08l.07.08.08.08.08.07.08.08.07.08.08.07a.3.3,0,0,0,.08.08l.07.08.08.08a.27.27,0,0,0,.08.07l.07.08a.6.6,0,0,1,.08.08.27.27,0,0,0,.08.07l.07.08.08.08.08.08.08.07.07.08.08.08.08.07.07.08.08.08.08.08.07.07a.6.6,0,0,1,.08.08l.08.08.08.07.07.08.08.08.08.07a.3.3,0,0,0,.08.08l.07.08.08.07.07.08a.6.6,0,0,1,.08.08l.08.07a.3.3,0,0,0,.08.08l.07.08.08.08a.27.27,0,0,0,.08.07l.07.08a.6.6,0,0,1,.08.08l.08.08.08.07.07.08.08.08,0,0A19,19,0,0,0,143,31Z"/><path class="f" d="M132.12,15.57s4.81,4.38,4.81,9.79-4.81,9.81-4.81,9.81"/><path class="g" d="M129.22,20a8.13,8.13,0,0,1,2.58,5.41s.43,2.73-2.42,5.58"/><path class="h" d="M120.61,20.52h-5.33a.86.86,0,0,0-.82.89v7.64a.86.86,0,0,0,.82.89h5.33Z"/><path class="i" d="M117.77,20.52h-3.84a.86.86,0,0,0-.83.89v7.64a.86.86,0,0,0,.83.89h3.84Z"/><path class="i" d="M126.22,14.86c-.34,0-4.72,3.73-6.75,5.67V29.9c2,2,6.41,5.79,6.75,5.79a.8.8,0,0,0,.81-.8V15.67A.81.81,0,0,0,126.22,14.86Z"/><path class="j" d="M127,25V15.67a.8.8,0,0,0-.8-.81c-.34,0-4.73,3.73-6.75,5.67V25Z"/><path class="j" d="M113.1,25V21.41a.86.86,0,0,1,.83-.89h3.84V25Z"/><path class="k" d="M127.28,34.94a.83.83,0,0,1-.86.81h0a.84.84,0,0,1-.87-.81V15.62a.84.84,0,0,1,.87-.81h0a.83.83,0,0,1,.86.81Z"/><path class="d" d="M175,44a19,19,0,1,0-19-19,19,19,0,0,0,19,19"/><path class="e" d="M193,31s0,0,0,0l-.08-.08a.6.6,0,0,0-.08-.08l-.07-.07-.08-.08-.08-.08-.07-.07a.6.6,0,0,0-.08-.08l-.08-.08-.08-.08-.07-.07a.6.6,0,0,0-.08-.08l-.08-.08A.46.46,0,0,0,192,30l-.08-.08-.08-.08-.08-.07a.27.27,0,0,0-.07-.08.6.6,0,0,0-.08-.08l-.08-.08-.07-.07-.08-.08a.6.6,0,0,0-.08-.08l-.08-.07a.27.27,0,0,0-.07-.08l-.08-.08a.8.8,0,0,1-.15-.15.6.6,0,0,0-.08-.08l-.08-.08-.07-.07a.6.6,0,0,0-.08-.08l-.08-.08-.07-.07-.08-.08-.08-.08-.08-.08a.46.46,0,0,0-.07-.07l-.08-.08A.6.6,0,0,0,190,28l-.07-.07a.6.6,0,0,0-.08-.08l-.08-.08a.6.6,0,0,0-.08-.08.46.46,0,0,0-.07-.07l-.08-.08a.8.8,0,0,1-.15-.15.6.6,0,0,0-.08-.08l-.08-.08a.46.46,0,0,0-.07-.07l-.08-.08L189,27l-.08-.08a.46.46,0,0,0-.07-.07l-.08-.08a.6.6,0,0,0-.08-.08l-.07-.07-.08-.08-.08-.08-.07-.07a.6.6,0,0,0-.08-.08l-.08-.08-.08-.08-.07-.07A.6.6,0,0,0,188,26l-.08-.08-.07-.07-.08-.08-.08-.08a.8.8,0,0,1-.15-.15l-.08-.08a.6.6,0,0,0-.08-.08.46.46,0,0,0-.07-.07l-.08-.08-.08-.08-.07-.07A.6.6,0,0,0,187,25l-.08-.08a.8.8,0,0,1-.15-.15l-.08-.08-.08-.08-.07-.07-.08-.08a.3.3,0,0,0-.08-.08l-.08-.08a.46.46,0,0,0-.07-.07l-.08-.08-.07-.08L186,24l-.08-.08a.6.6,0,0,0-.08-.08l-.07-.07a.6.6,0,0,0-.08-.08l-.08-.08-.08-.07a.27.27,0,0,0-.07-.08.6.6,0,0,0-.08-.08l-.08-.08-.07-.07-.08-.08-.08-.08L185,23l-.08-.08-.08-.08-.07-.07a.6.6,0,0,0-.08-.08l-.08-.08a.6.6,0,0,0-.08-.08l-.07-.07a.6.6,0,0,0-.08-.08l-.08-.08-.08-.08-.07-.07-.08-.08L184,22l-.07-.07a.6.6,0,0,0-.08-.08l-.08-.08-.07-.07-.08-.08a.6.6,0,0,0-.08-.08l-.08-.07a.27.27,0,0,0-.07-.08l-.08-.08a.6.6,0,0,0-.08-.08l-.07-.07-.08-.08L183,21l-.07-.07a.6.6,0,0,0-.08-.08l-.08-.08-.08-.08-.07-.07a.6.6,0,0,0-.08-.08l-.08-.08-.07-.07-.08-.08a.6.6,0,0,0-.08-.08l-.08-.08a.46.46,0,0,0-.07-.07L182,20a.6.6,0,0,0-.08-.08.46.46,0,0,0-.07-.07l-.08-.08-.08-.08a.46.46,0,0,0-.07-.07.6.6,0,0,0-.08-.08l-.08-.08-.08-.08-.07-.07a.6.6,0,0,0-.08-.08l-.08-.08a.46.46,0,0,0-.07-.07L181,19l-.08-.08-.08-.07a.27.27,0,0,0-.07-.08l-.08-.08a.6.6,0,0,0-.08-.08.46.46,0,0,0-.07-.07l-.08-.08-.08-.08-.07-.07a.6.6,0,0,0-.08-.08l-.08-.08a.6.6,0,0,0-.08-.08L180,18l-.08-.08-.08-.08-.07-.07-.08-.08-.08-.08a.8.8,0,0,1-.15-.15.6.6,0,0,0-.08-.08l-.08-.07a.27.27,0,0,0-.07-.08l-.08-.08-.08-.08-.08-.07a.27.27,0,0,0-.07-.08l-.08-.08a.6.6,0,0,0-.08-.08l-.07-.07-.08-.08-.08-.08a.46.46,0,0,0-.07-.07.6.6,0,0,0-.08-.08l-.08-.08-.07-.07-.08-.08-.08-.08-.08-.08a.46.46,0,0,0-.07-.07l-.08-.08a.6.6,0,0,0-.08-.08l-.07-.07a.6.6,0,0,0-.08-.08l-.08-.08a.8.8,0,0,1-.15-.15l-.08-.08-.08-.07a.27.27,0,0,0-.07-.08.9.9,0,0,0-.65-.29.87.87,0,0,0-.71.37c-1.28.92-4.55,3.74-6.23,5.34H164a.86.86,0,0,0-.83.89v7.64a.88.88,0,0,0,.3.66l.07.08.08.08.08.07.07.08.08.08.08.08.08.08.07.07.08.08.08.07.08.08.07.08.08.08.08.07.07.08.08.08a.27.27,0,0,0,.08.07l.07.08a.6.6,0,0,1,.08.08l.08.08.07.07.08.08.08.08.08.07.07.08.08.08a.27.27,0,0,0,.08.07l.08.08.07.08.08.07.07.08.08.08.08.08.08.07.07.08.08.08.08.07.08.08.07.08.08.08a.27.27,0,0,0,.08.07l.07.08.08.08a.27.27,0,0,0,.08.07l.08.08.07.08.08.08.07.07a.6.6,0,0,1,.08.08l.08.08.08.07.07.08.08.08.08.07a.3.3,0,0,0,.08.08l.07.08.08.07.08.08.07.08.08.08.08.07.07.08.08.08.08.08.08.07.07.08.08.08a.27.27,0,0,0,.08.07l.07.08.08.08a.27.27,0,0,0,.08.07.3.3,0,0,0,.08.08l.07.08a.6.6,0,0,0,.08.08l.08.07.07.08.08.08a.27.27,0,0,0,.08.07l.07.08.08.08a.27.27,0,0,0,.08.07l.08.08.07.08.08.07a.3.3,0,0,0,.08.08l.07.08.08.08.08.07a.3.3,0,0,0,.08.08l.07.08a.6.6,0,0,0,.08.08.27.27,0,0,0,.08.07l.07.08.08.08a.27.27,0,0,0,.08.07l.07.08.08.08.08.07.08.08.07.08.08.08.08.07.07.08.08.08a.27.27,0,0,0,.08.07l.07.08a.6.6,0,0,1,.08.08l.08.07.08.08.07.08.08.08a.27.27,0,0,0,.08.07l.07.08.08.08.08.07.07.08.08.08.08.08.08.07.07.08.08.08a.27.27,0,0,0,.08.07l.07.08.08.08.08.08.08.07.07.08a.6.6,0,0,0,.08.08l.08.07.07.08.08.08.08.07.07.08.08.08.08.07.07.08.08.08.08.08.08.07.07.08.08.08.08.07a.3.3,0,0,0,.08.08l.07.08.08.08a.27.27,0,0,0,.08.07l.07.08.08.08a.27.27,0,0,0,.08.07l.07.08.08.08.08.08.08.07.07.08.08.08.08.07.07.08.08.08.08.08.07.07.08.08.08.08.08.07.07.08.08.08.08.07.07.08.08.08.08.07.07.08a.6.6,0,0,1,.08.08l.08.07a.3.3,0,0,0,.08.08l.07.08.08.08a.27.27,0,0,0,.08.07l.07.08a.6.6,0,0,1,.08.08l.08.08.08.07.07.08.08.08,0,0A19,19,0,0,0,193,31Z"/><path class="l" d="M188.88,21.48l-.93-.94-3.71,3.7-3.7-3.7-.93.94,3.7,3.7-3.7,3.7.93.94,3.7-3.71L188,29.82l.93-.94-3.7-3.7Z"/><path class="h" d="M170.51,20.52h-5.33a.86.86,0,0,0-.82.89v7.64a.86.86,0,0,0,.82.89h5.33Z"/><path class="i" d="M167.67,20.52h-3.84a.86.86,0,0,0-.83.89v7.64a.86.86,0,0,0,.83.89h3.84Z"/><path class="i" d="M176.12,14.86c-.34,0-4.72,3.73-6.75,5.67V29.9c2,2,6.41,5.79,6.75,5.79a.81.81,0,0,0,.81-.8V15.67A.81.81,0,0,0,176.12,14.86Z"/><path class="j" d="M176.93,25V15.67a.81.81,0,0,0-.81-.81c-.34,0-4.72,3.73-6.75,5.67V25Z"/><path class="j" d="M163,25V21.41a.86.86,0,0,1,.83-.89h3.84V25Z"/><path class="k" d="M177.18,34.94a.83.83,0,0,1-.86.81h0a.84.84,0,0,1-.87-.81V15.62a.84.84,0,0,1,.87-.81h0a.83.83,0,0,1,.86.81Z"/><path class="d" d="M24.6,44a19,19,0,1,0-19-19,19,19,0,0,0,19,19"/><path class="e" d="M42.43,31.46h0V31.4h-.06v-.07h-.07v-.07h-.07v-.07h-.07v-.06h-.06v-.07H42V31h-.07v-.06h-.06v-.07h-.07v-.07h-.07v-.07h-.06v-.06h-.07v-.07h-.07v-.07h-.06v-.07h-.08v-.06h-.06v-.07h-.07v-.07h-.07v-.06h-.07v-.07h-.06v-.07H41V30h-.07v-.06h-.06v-.07h-.07v-.07h-.07v-.07h-.07v-.06h-.06v-.07h-.07v-.07h-.07v-.06h-.07v-.07h-.06v-.07h-.07v-.06h-.07v-.07h-.06v-.07H40v-.06H40V29H39.9v-.07h-.06v-.07h-.07v-.07H39.7v-.06h-.06v-.07h-.07v-.07H39.5v-.06h-.07v-.07h-.06v-.07H39.3V28.3h-.07v-.06h-.06v-.07H39.1V28.1H39V28H39V28H38.9V27.9h-.07v-.07h-.06v-.06H38.7V27.7h-.07v-.07h-.07v-.06H38.5V27.5h-.07v-.07h-.07v-.06H38.3v-.08h-.07v-.06h-.07v-.07H38.1v-.07H38V27H38V27h-.06v-.07h-.07v-.06h-.07v-.07h-.06v-.07h-.07v-.06h-.07v-.07h-.07v-.07h-.06v-.06h-.07v-.08h-.06v-.06h-.08v-.07h-.06v-.07h-.07v-.07H37V26H37V26h-.07v-.06h-.07v-.08h-.06v-.06h-.07v-.07h-.07v-.07h-.06v-.06h-.08v-.07h-.06v-.07h-.07v-.06h-.07v-.07h-.06v-.07h-.07v-.07h-.07v-.06H36V25h-.07v-.07h-.07v-.07h-.06v-.06h-.08v-.07h-.06v-.07H35.6v-.06h-.07v-.07h-.06v-.07H35.4V24.4h-.07v-.06h-.06v-.07H35.2v-.06h-.07v-.08h-.07v-.06H35V24h-.07v-.07h-.07v-.06H34.8V23.8h-.07v-.07H33.47L33,23.21,32.72,23l-.34-.33L32,22.28l-1-1-.1-.1-.34-.34-1-1-.3-.3L27.77,18l0,0v0L26,16.22,25.68,16l-.2-.2h0L24.74,15h0l-.07-.07-.06-.06L14.49,25l.06.06.2.2h0l.07.07.47.47.47.47.41.41.47.47,8.94,8.94,1.18,1.18,0,0,1.08,1.08.67.67,2.3,2.3L32,42.48A19,19,0,0,0,42.43,31.46Z"/><path class="a" d="M24.6,35.12l1.79-1.79-7.06-7.07h15.4V23.73H19.33l7.06-7.07-1.78-1.78L14.49,25Z"/><rect class="m" x="-2.68" y="-2.68" width="55.37" height="55.37"/><path class="d" d="M24.62,94.13a19,19,0,1,0-19-19,19,19,0,0,0,19,19"/><path class="e" d="M43.35,78.08l-.15-.14h0l-.08-.08h0l-.07-.08L43,77.71h0l-.08-.07h0l-.08-.08h0l-.08-.08-.07-.08-.08-.08h0l-.16-.15h0l-.07-.08L42.27,77h0l-.08-.07h0l-.08-.07L42,76.77,42,76.69h0l-.08-.08h0l-.08-.07h0l-.08-.07h0l-.08-.08h0l-.08-.08h0l-.07-.08h0l-.08-.08h0l-.08-.07h0l-.16-.15h0l-.07-.08L41,75.75h0l-.08-.07h0l-.08-.08-.08-.08h0l-.07-.08h0l-.08-.07h0l-.08-.07-.08-.08-.07-.08h0l-.08-.08h0L40.24,75h0l-.08-.07-.08-.08h0L40,74.74h0l-.08-.08-.08-.08-.08-.07h0l-.08-.07h0l-.07-.08h0l-.08-.08h0l-.08-.08h0l-.08-.07h0L39.3,74,39.22,74h0l-.08-.08h0l-.07-.08L39,73.72h0l-.08-.07h0l-.08-.08h0l-.08-.08-.07-.08h0l-.08-.08h0l-.08-.07h0l-.08-.07h0l-.08-.08L38.29,73h0L38.21,73h0l-.08-.07-.08-.08h0L38,72.71h0l-.08-.08h0l-.08-.08h0l-.08-.07h0l-.08-.08h0l-.07-.08h0l-.08-.08h0l-.08-.07h0l-.08-.08L37.27,72h0l-.07-.08-.08-.07h0L37,71.78,37,71.7h0l-.08-.08h0l-.07-.08h0l-.08-.08h0l-.08-.07-.08-.08h0l-.07-.08h0l-.08-.08h0l-.08-.07h0L36.26,71h0l-.08-.08h0l-.08-.08L36,70.76h0L36,70.69l-.08-.08h0l-.08-.08h0l-.08-.08h0l-.08-.08-.08-.08-.08-.07h0l-.08-.08-.07-.08h0L35.25,70l-.08-.07h0l-.08-.08h0L35,69.75h0l-.07-.07-.08-.08h0l-.08-.08h0l-.08-.08-.08-.08h0l-.07-.07-.08-.08h0l-.08-.08h0L34.31,69h0L34.23,69l-.07-.07h0l-.08-.07h0L34,68.73l-.08-.08h0l-.07-.07h0l-.08-.07h0l-.08-.08-.08-.08h0l-.08-.08h0l-1.1-1.09-1.1-1.09a8,8,0,0,1-2.43.68.23.23,0,0,0,0,0h-.05a.44.44,0,0,1,0-.08h0l0-.07h-.05a.24.24,0,0,0,0-.08h0l0-.08h0a.44.44,0,0,1,0-.08h-.05a.44.44,0,0,1,0-.08h-.05l0-.07h-.05a.24.24,0,0,0,0-.08h-.05l0-.08h-.05a.44.44,0,0,1,0-.08h-.05a.44.44,0,0,1,0-.08H28l0-.07H27.9a.24.24,0,0,0,0-.08h-.05l0-.08h-.05l0-.08h0a.44.44,0,0,1,0-.08h-.05a.25.25,0,0,0,0-.07h0a.45.45,0,0,0,0-.08h0a.44.44,0,0,1,0-.08h-.05a.44.44,0,0,1,0-.08h0l0-.08H27.2a.25.25,0,0,0,0-.07h-.05l0-.08H27l0-.08H27a.44.44,0,0,1,0-.08h-.05l0-.07h-.05a.44.44,0,0,1,0-.08h-.05l0-.08h-.05a.44.44,0,0,1,0-.08h-.05l0-.08H26.5l0-.07h0a.24.24,0,0,0,0-.08h-.05l0-.08h-.05l0-.08h0a.44.44,0,0,1,0-.08h-.05l0-.07h0a.45.45,0,0,0,0-.08H22.92s-.77,2.24-2,2.88l-.11.06-.06,0a6.67,6.67,0,0,1-3.08-.65l-1.09,1.09-1.1,1.09a6.57,6.57,0,0,1,.65,3.11c-.05.12-.06.25-.11.37a6.38,6.38,0,0,1-2.67,1.79v3.09l.08,0v0l.07,0v0l.08,0v0l.08,0v0l.08,0v0l.07,0v0l.08,0v0l.08,0v0l.08,0v0l.08,0v0l.08,0v0l.07,0v0l.08,0v0l.08,0v0l.08,0v0l.07,0v0l.08,0v0l.08,0v0l.08,0v0l.08,0v0l.07,0v0l.08,0v0l.08,0v0l.08,0v0l.07,0v0l.08,0v0l.08,0v0l.08,0v.05l.08,0v0l.07,0v0l.08,0v0l.08,0v0l.08,0v.05l.08,0v0l.08,0v0l.07,0a7.68,7.68,0,0,1-.7,2.56l1.08,1.09,1.07,1.12h0l.07.08h0l.07.09h0l.08.07h0l.08.08h0l.07.08h0l.07.08h0l.08.08h0l.08.08h0l.08.08h0l.07.08h0l.07.08h0l.07.07h0l.08.08h0l.08.08h0l.07.08h0l.07.07h0l.07.08h0l.08.08h0l.08.08h0l.08.08h0l.07.08h0l.08.07h0l.08.08h0l.08.08h0l.07.08h0l.07.08h0l.08.08h0l.08.08h0l.08.08h0l.07.08h0l.07.07h0l.08.08h0l.08.08h0l.07.08h0l.07.08h0l.07.08h0l.08.08h0l.08.08h0l.08.08h0l.07.08h0l.07.08h0l.08.08h0l.08.08h0l.07.08h0l.07.08h0l.07.08h0l.08.08h0l.08.08h0l.07.08h0l.07.08h0l.07.08h0l.08.08h0l.08.08h0l.07.08h0l.07.08h0l.08.08h0l.08.08h0l.08.08h0l.07.08h0l.07.08h0l.08.08h0l.08.08h0l.08.08h0l.07.08h0l.07.07h0l.08.08h0l.08.08h0l.08.08h0l.07.08h0l.07.08h0l.08.08h0l.08.08h0l.07.08h0l.07.08h0l.08.07h0l.08.08h0l.08.08h0l.07.08h0l.07.08h0l.07.07h0l.08.08h0l.08.08h0l.07.08h0l.07.07h0l.08.08h0l.08.08h0l.07.08h0l.07.08h0l.07.08h0l.08.08h0l.08.08h0l.08.08h0l.07.08h0l.07.08h0l.08.08h0l.08.08h0l.07.08h0l.07.08h0l.07.07h0l.08.08h0l.08.08h0l.07.08h0l.07.08h0l.08.08h0l.08.08h0l.08.08h0l.08.09h0l.08.08h0l.08.08h0l.07.08h0l.07.08h0l.08.08h0l.08.08h0l.08.07h0l.07.08h0l.07.08h0l.08.08h0l.08.08h0l.08.08h0l.07.08h0l.07.08h0l.08.08h0l.08.08h0l.08.07h0l0,0A19,19,0,0,0,43.35,78.08Z"/><path class="i" d="M28.26,75A3.64,3.64,0,0,1,21,75a.12.12,0,0,1,0,0H13.32v1.54s2.17.75,2.86,2c.37,1.34-.65,3.42-.65,3.42L16.62,83l1.09,1.09a6.38,6.38,0,0,1,3.36-.61c1.25.65,2,3,2,3h3.09s.85-2.55,2.21-3a6.8,6.8,0,0,1,3.11.65L32.59,83l1.09-1.1A6.37,6.37,0,0,1,33,78.54a.08.08,0,0,0,0,0c.67-1.23,2.87-2,2.87-2V75H28.25a.06.06,0,0,1,0,0"/><path class="j" d="M33,71.41l0-.11s0,0,0-.06a6.53,6.53,0,0,1,.65-3.08l-1.09-1.09L31.43,66a6.48,6.48,0,0,1-3.11.64c-.12-.05-.24-.06-.37-.11a6.43,6.43,0,0,1-1.79-2.67H23.07a6.36,6.36,0,0,1-1.81,2.69L21,66.6A6.37,6.37,0,0,1,17.75,66L16.66,67l-1.12,1.06s1,2.06.63,3.4c-.69,1.21-2.85,2-2.85,2V75H21a3.63,3.63,0,0,1,7.25,0h7.67V73.43s-2.23-.77-2.88-2"/><path class="n" d="M24.62,70.13a4.76,4.76,0,1,0,4.75,4.76,4.76,4.76,0,0,0-4.75-4.76m0,8.17A3.41,3.41,0,1,1,28,74.89a3.41,3.41,0,0,1-3.4,3.41"/><path class="d" d="M144,75a19,19,0,1,0-19,19,19,19,0,0,0,19-19"/><path class="e" d="M142.82,81.46h0V81.4h-.06v-.07h-.07v-.06h-.06V81.2h-.07v-.06h-.06v-.07h-.07V81h-.06V81h-.07v-.07h-.06v-.07h-.06v-.06h-.07v-.06H142v-.07h-.06v-.06h-.06v-.08h-.07v-.06h-.06v-.07h-.07v-.06h-.06v-.07h-.07v-.06h-.06v-.07h-.07V80h-.06V80h-.07V79.9h-.06v-.07h-.07v-.06h-.06V79.7H141v-.06H141v-.07h-.07v-.06h-.06v-.06h-.07v-.07h-.06v-.06h-.07v-.08h-.06v-.06h-.07v-.07h-.06v-.06h-.07V79h-.06v-.06h-.07v-.07h-.08v-.06h-.06v-.07H140v-.06H140v-.07h-.07v-.06h-.06v-.07h-.07V78.4h-.06v-.07h-.07v-.06h-.06v-.06h-.07v-.08h-.06v-.06h-.07V78h-.06v-.06h-.07v-.07h-.06v-.06h-.07v-.07h-.06v-.06H139v-.06h-.06v-.07h-.06v-.07h-.07v-.06h-.07v-.06h-.06v-.07h-.06v-.07h-.07v-.07h-.06v-.06h-.07V77h-.06V77h-.07v-.07h-.06v-.06h-.07v-.06h-.06V76.7H138v-.07H138v-.06h-.07v-.06h-.06v-.07h-.07v-.06h-.06v-.07h-.07v-.06h-.06v-.08h-.07v-.06h-.06V76h-.07V76h-.06v-.06h-.07v-.07h-.06v-.07h-.07v-.06h-.06v-.07H137v-.06h-.06v-.06h-.07v-.07h-.06v-.07h-.07v-.06h-.06v-.07h-.06V75.2h-.07v-.07h-.06v-.06h-.07V75h-.06v-.07h-.07v-.06h-.06V74.8h-.07v-.06h-.06v-.07H136v-.06H136v-.07h-.07v-.06h-.06v-.07h-.07v-.06h-.06v-.06h-.07v-.07h-.06v-.07h-.1v-.06h-.06V74h-.07V74h-.06v-.07h-.07v-.07h-.06v-.06h-.07v-.07H135v-.06H135v-.07h-.06V73.5h-.07v-.07h-.06v-.06h-.07V73.3h-.06v-.06h-.07v-.06h-.06v-.07h-.07V73h-.06V73h-.07v-.06h-.06v-.07h-.07v-.06h-.06v-.07h-.06v-.06H134v-.08h-.06v-.06h-.07v-.06h-.06v-.07h-.07v-.07h-.06v-.06h-.07v-.07h-.06v-.06h-.07v-.07h-.06V72h-.07v-.07h-.06v-.06h-.07V71.8h-.06v-.06h-.07v-.07H133v-.06h-.07v-.07h-.06v-.06h-.07v-.07h-.06v-.07h-.07v-.06h-.06v-.07h-.07v-.06h-.06v-.07h-.07V71h-.06V71h-.07v-.06h-.06v-.07h-.07v-.06h-.06V70.7H132v-.07H132v-.06h-.07V70.5h-.06v-.07h-.07v-.06h-.06V70.3h-.07v-.06h-.06v-.06h-.06V70.1h-.07V70h-.06V70h-.07v-.06h-.06v-.07h-.07v-.06h-.06v-.07h-.07v-.06H131v-.07h-.07v-.06h-.06v-.07h-.07v-.06h-.06v-.07h-.07v-.06h-.06V69.2h-.07v-.08h-.06v-.06h-.07V69h-.06v-.06h-.07v-.07h-.06V68.8h-.07v-.07h-.06v-.06H130V68.6H130v-.06h-.07v-.07h-.06v-.06h-.07v-.07h-.06v-.06h-.07v-.07h-.06v-.06h-.07v-.06h-.06V68h-.06V68h-.07v-.07h-.06v-.06h-.07v-.07h-.06v-.06h-.07v-.07H129v-.06h-.07v-.07h-.06v-.06h-.07v-.06h-.06V67.3h-.07v-.06h-.06v-.07h-.07v-.06h-.06V67h-.07V67h-.06V66.9h-.07v-.06h-.06v-.07h-.07v-.06h-.06v-.07H128v-.06H128v-.07h-.07v-.06h-.06v-.07h-.07v-.06h-.06v-.07h-.12v-.06h-.06v-.07h-.07v-.06h-.06V66h-.07v-.07h-.06v-.06h-.07v-.07h-.06v-.06h-.07v-.06H127V65.6h-.07v-.07h-.06v-.06h-.07V65.4h-.06v-.06h-.07v-.07h-.06v-.06h-.07v-.07h-.06v-.06h-.07V65h-.06V65h-.06v-.07h-2.54v15.4l-7-7-.07-.07L114.89,75l.07.06.19.2.2.19.91.92.91.91,1.77,1.76,1.24,1.24.32.33.59.59.59.58,2,2,.06.07.59.59.33.32.45.46.4.39h0l.06.07.33.32.06.07.46.45.39.4.52.52.26.26.07.06.85.85.59.59,1.24,1.24.32.33.59.59.39.39.2.19.58.58A19,19,0,0,0,142.82,81.46Z"/><path class="a" d="M135.12,75l-1.78-1.78-7.07,7.06V64.88h-2.53v15.4l-7.07-7.06L114.88,75,125,85.12Z"/><path class="d" d="M156,75a19,19,0,1,0,19-19,19,19,0,0,0-19,19"/><path class="e" d="M192.49,82.37l-.09-.09-.2-.2,0,0-.19-.2,0,0-.13-.13-.33-.33-.27-.27L190,79.84l-.56-.56,0,0-.07-.07-.29-.29-.43-.43-.53-.53,0,0,0,0-1.62-1.62-.56-.56-.33-.33-.59-.59-.2-.2-.4-.4-.33-.32-.19-.2-.07-.07-1-1-.6-.6-.19-.19-2.57-2.57-.4-.4-1-1-1.65-1.65-.19-.19-.07-.07-.13-.13-.2-.2-.06-.06-.07-.07-.06-.06-.07-.07-.07-.07-.06-.06-.07-.07-.13-.13-.06-.06L164.89,75l.13.13.13.13.53.53.13.13.5.5.09.09.07.07.16.16.17.17h0l.19.2.66.65.46.47.53.52.14.14.65.65h0l.46.46.53.53.79.79.06.06.19.2h0l.06.06.07.07.16.17.17.16.1.1,0,0,.13.13.4.4.19.19.53.53.42.42v1.26h.06v.07h.07v.07h.07v.06H174v.07h.07v.06h.06v.07h.07v.06h.06v.07h.07v.06h.07v.07h.06v.07h.07v.06h.06V86h.07V86h.06v.07h.07v.06h.06v.07h.07v.06H175v.07h.07v.06h.07v.07h.06v.07h.07v.06h.06v.07h.07v.06h.06v.07h.07v.06h.06V87h.07V87h.06v.07h.07v.07h.06v.06h.07v.07H176v.06H176v.07h.07v.06h.06v.07h.07v.06h.06v.07h.07v.07h.06v.06h.07v.07h.07v.06h.06V88h.07v.06h.06v.07h.07v.06h.06v.07H177v.06H177v.09h.06v.06h.07v.07h.06v.06h.07v.07h.06v.06h.07v.07h.06v.06h.07v.07h.06V89h.07v.07h.06v.07h.07v.06h.07v.07h.06v.06H178v.07h.06v.06h.07v.07h.06v.06h.07v.07h.06v.07h.07v.06h.07v.07h.06v.06h.07V90h.06v.06h.07v.07h.06v.06h.07v.07h.06v.07H179v.06H179v.07h.07v.06h.06v.07h.07v.06h.07v.07h.06v.06h.07v.07h.06v.07h.07V91h.06V91h.07v.06h.07v.07h.06v.06h.07v.09H180v.06H180v.07h.06v.06h.07v.07h.06v.06h.07v.07h.06v.06h.07v.07h.06v.07h.07V92h.07V92h.06v.06h.07v.07h.06v.06h.07v.07h.06v.06H181v.07h.06v.06h.07v.07h.07v.07h.06v.06h.07v.07h.06v.06A19,19,0,0,0,192.49,82.37Z"/><path class="a" d="M164.88,75l1.78,1.78,7.07-7.06v15.4h2.53V69.72l7.07,7.06L185.12,75,175,64.88Z"/><path class="d" d="M75,94A19,19,0,1,0,56,75,19,19,0,0,0,75,94"/><path class="e" d="M93.91,76.22h-.06v-.08h-.07v-.07H93.7V76h-.08v-.08h-.08v-.08h-.08v-.08h-.07v-.07h-.08V75.6h-.08v-.08h-.08v-.08h-.08v-.08H93v-.07h-.08v-.08h-.08v-.08h-.08v-.08h-.07V75h-.08V74.9h-.08v-.08h-.08v-.08h-.08v-.08H92.3v-.08h-.08v-.07h-.08v-.08h-.08v-.08H92v-.08H91.9V74.2h-.07v-.08h-.08V74h-.08V74h-.08v-.08h-.07v-.07h-.08v-.08h-.08v-.08h-.08v-.08H91.2v-.08h-.08v-.07h-.07v-.08H91v-.08h-.08v-.08h-.08V73.1h-.08V73h-.07V73h-.08v-.08H90.5v-.08h-.08v-.08h-.07v-.07h-.08v-.08h-.08v-.08h-.08V72.4H90v-.08H90v-.08h-.08v-.07H89.8v-.08h-.08V72h-.08v-.08h-.08v-.07h-.07v-.08h-.08V71.7h-.08v-.08h-.08v-.08h-.07v-.07H89.1v-.08H89v-.08h-.08v-.08h-.08v-.08h-.07v-.07h-.08V71h-.08v-.08h-.08v-.08h-.08v-.08H88.4v-.08h-.08v-.07h-.08v-.08h-.08v-.08h-.08v-.08H88V70.3h-.07v-.08h-.08v-.08h-.08v-.08h-.08V70h-.07v-.07h-.08v-.08h-.08v-.08h-.08v-.08H87.3v-.08h-.07v-.08h-.08v-.07h-.08v-.08H87v-.08h-.08V69.2h-.07v-.07h-.08v-.08h-.08V69H86.6v-.08h-.08v-.08h-.07v-.07h-.08v-.08h-.08v-.08h-.08V68.5h-.08v-.08h-.07v-.07H86v-.08H85.9v-.08h-.08v-.08h-.08V68h-.08V68h-.07v-.08h-.08V67.8h-.08v-.08h-.08v-.08h-.07v-.07H85.2v-.08h-.08v-.08H64.88v2.53H65V70H65v.07h.07v.08h.08v.08h.08v.08h.08v.08h.07v.08h.08v.07h.08v.08h.08v.08h.08v.08h.07v.07h.08V71H66V71h.08v.08h.08v.08h.07v.07h.08v.08h.08v.08h.08v.08h.08v.07h.07v.08h.08v.08h.08v.08h.08v.08h.07V72H67V72h.08v.08h.08v.08h.08v.08h.07v.08h.08v.08h.08v.07h.08v.08h.07v.08h.08v.08h.08v.07h.08v.08h.08V73H68v.08h.08v.08h.08v.07h.08v.08h.08v.08h.07v.08h.08v.08h.08v.07h.08v.08h.07v0H64.87v2.53H65v.08H65v.08h.08v.08h.07v.07h.08v.08h.08v.08h.08v.08h.08v.07h.07V77h.08V77h.08v.08h.08v.08h.08v.08H66v.08H66v.08h.08v.07h.08v.08h.08v.08h.07v.08h.08v.07h.08v.08h.08V78h.07v.08h.08v.08h.08v.07h.08v.08H67v.08h.07v.08h.08v.07h.08v.08h.08v.08h.07v.08h.08v.08h.08v.08h.08V79h.08v.08h.07v.08h.08v.08h.08v.07H68v.08h.08v.08h.07v.08h.08v.08h.08v.07h.08v.08h.08v.08h.07v.08h.08V80h.08v.06H64.87v2.52h.07v.08H65v.08h.08v.08h.08v.08h.08V83h.08v.08h.07v.08h.08v.07h.08v.08h.08v.08h.07v.08h.08v.08h.08v.07H66v.08H66v.08h.07v.08h.08v.07h.08V84h.08v.08h.07v.08h.08v.08h.08v.07h.08v.08h.08v.08h.07v.08h.08v.08H67v.07h.08v.08h.08v.08h.07v.08h.08V85h.08v.08h.08v.08h.07v.08h.08v.08h.08v.07h.08v.08h.08v.08h.07v.08H68v.08h.08v.07h.08v.08h.08v.08h.07V86h.08v.07h.08v.08h.08v.08h.08v.08h.07v.08h.08v.07h.08v.08h.08v.08H69v.08h.07v.07h.08v.08h.08V87h.08V87h.07v.08h.08v.07h.08v.08h.08v.08h.08v.08h.07v.08h.08v.07h.08v.08H70v.08h.08v.08h.07v.08h.08V88h.08V88h.07v.08h.08v.08h.08v.07h.08v.08h.08v.08h.08v.08h.07v.07h.08v.08H71v.08h.08v.08h.07v.08h.08V89h.08v.08h.08v.08h.08v.08h.07v.08h.08v.08h.08v.07h.08v.08h.08v.08H72v.08H72v.07h.08v.08h.08v.08h.07V90h.11v.07h.07v.08h.08v.08h.08v.08h.08v.08h.07v.08h.08v.07h.08v.08H73v.08h.08v.08h.08v.07h.07v.08h.08V91h.08v.08h.08v.08h.07v.07h.08v.08h.08v.08h.08v.08h.08v.07h.07v.08H74v.08h.08v.08h.08v.08h.08v.07h.07V92h.08v.08h.08v.08h.08v.08h.08v.07h.07v.08h.08v.08h.08v.08h.08v.07H75v.08h.08v.08h.08v.08h.08V93h.08V93h.07v.08h.08v.08h.08v.08h.08v.08h.07v.07h.08v.08h.08v.08H76v.08H76v.07h.08v.08h.07v.08h.08A18.9,18.9,0,0,0,93.91,76.22Z"/><path class="a" d="M64.88,82.59H85.12V80.06H64.88Zm0-6.33H85.12V73.73H64.88Zm0-8.85v2.53H85.12V67.41Z"/><path class="d" d="M275,94.07A19.07,19.07,0,1,0,255.93,75,19.07,19.07,0,0,0,275,94.07Z"/><path class="e" d="M291.57,84.41l-.39-.4-.31-.3-.42-.42-.13-.14-.33-.32-.46-.47-.78-.77-.39-.39-.62-.62-.13-.13-.59-.6-.18-.17-.55-.55-1.06-1.06-.86-.86-.06-.06-.26-.27-.73-.73-.33-.32-.6-.6-.66-.66-.13-.13-.26-.27-.66-.66-.07-.06-.13-.13-.2-.2-.86-.86-2.11-2.11-.39-.4-1.52-1.52-.27-.26-.13-.13L263.56,79.28l.06.07.53.53.26.26.2.2.53.53.26.26.27.27.13.13.56.56.23.23,0,0,0,0,.07.07.06.06.21.21h0l.79.79,1.65,1.65.25.25h0l.77.78.41.41,1.06,1.06.18.18.08.08.19.18.67.68.2.2.13.13.18.18.15.15.14.13.33.33.26.27.18.18.15.15.12.11.85.86.2.2,0,0,.11.11.33.33.13.13.33.33.27.27.28.28.05,0,.28.28.32.32A19.06,19.06,0,0,0,291.57,84.41Z"/><path class="a" d="M266.25,82,275,73.24,283.75,82l2.69-2.68L275,67.84,263.56,79.29Z"/><path class="d" d="M225,55.93A19.07,19.07,0,1,0,244.07,75,19.07,19.07,0,0,0,225,55.93Z"/><path class="e" d="M243.8,78.07l-.15-.15-.08-.08-.08-.08-.08-.08,0,0-.48-.48-.2-.2-.9-.9h0l-.08-.08-.08-.08-.07-.08-.19-.19-.21-.21L240.7,75l-.11-.1-.08-.08-.29-.3-.24-.24-.18-.18-.14-.14-1-1-.8-.79-.07-.08-.72-.72-.56-.56-.7-.7-1.22-1.22-.8-.79-.08-.08L225,76.76,219.18,71l-2.7-2.69-.23-.23-2.7,2.68.09.08.08.09.08.07h0l.07.07.64.64,2.24,2.24.47.48.08.08,1.28,1.27.08.08,2.55,2.56L225,82.12l1,1,2.23,2.23.48.48.08.08L229.83,87l.2.2.07.07,2.56,2.56,1.75,1.75A19.06,19.06,0,0,0,243.8,78.07Z"/><path class="a" d="M233.75,68,225,76.76,216.25,68l-2.7,2.69L225,82.16l11.44-11.44Z"/><path class="d" d="M35,125a10,10,0,1,0-10,10A10,10,0,0,0,35,125Z"/><path class="e" d="M34.86,126.61h0l-.08-.07-.07-.08-.34-.34-.36-.35-.71-.72-.08-.07-.18-.19-.06,0-.11-.12-.49-.49-.52-.52-.4-.4-.49-.48-.52-.53-.15-.15-.35-.35-.9-.9-.08-.08-.43-.43-.91-.9-.07-.08-.22-.22,0,0,0,0-6,6,.11.11.15.15,0,0,.15.15.22.22.23.23.6.6.41.41,1,1,.16.15.15.15.14.15,0,0,.11.11.15.15.23.22.15.15,0,0,.26.26,0,0,.07.08,0,0,0,0,0,0,0,0,.07.07,0,0,.15.15,0,0,0,0,.11.11.08.07.07.08.12.11.22.22,0,0,.07.08.08.07.19.19.07.07.15.16.12.11.07.07.19.19.07.08.19.18.08.08,0,0,.12.12h0l1.27,1.27.4.4A10,10,0,0,0,34.86,126.61Z"/><path class="a" d="M28.66,129.59,24.08,125l4.58-4.59L27.25,119l-6,6,6,6Z"/><path class="d" d="M75,133a10,10,0,1,0-10-10A10,10,0,0,0,75,133Z"/><path class="e" d="M83.69,127.89l-.21-.21-.16-.16-.22-.22-.07-.07-.17-.18-.24-.24-.41-.4L82,126.2l-.32-.32-.07-.07-.31-.31-.09-.1-.29-.28-.55-.56-.46-.45,0,0-.14-.14-.38-.38-.17-.18-.31-.31-.35-.34-.07-.07-.14-.14-.34-.35,0,0-.07-.07-.1-.11-.45-.44-1.11-1.11L76,120.2l-.79-.8-.14-.13L75,119.2l-6,6,0,0,.28.28.14.14.1.1.28.28.14.14.14.14.07.07.29.29.12.12,0,0h0l0,0,0,0,.1.11h0l.41.41.87.87.13.13h0l.4.4.22.22.56.55.09.1,0,0,.1.1.35.35.11.11.07.07.09.09.08.08.07.07.17.17.14.14.1.09.07.08.06.06.46.45.1.11h0l.06.06.17.17.07.07.17.17.14.14.15.15,0,0,.15.15.17.17A10,10,0,0,0,83.69,127.89Z"/><path class="a" d="M70.41,126.61,75,122l4.59,4.58L81,125.2l-6-6-6,6Z"/><path class="d" d="M175,115a10,10,0,1,0,10,10A10,10,0,0,0,175,115Z"/><path class="e" d="M184.86,126.61l-.08-.08-.05,0,0,0,0,0v0l-.25-.25-.11-.1-.47-.47h0l0,0,0,0,0,0-.1-.09-.11-.12-.25-.25-.06,0,0,0-.15-.16-.13-.12-.09-.1-.08-.07-.5-.5-.42-.42,0,0-.37-.38-.3-.29-.36-.37-.64-.64-.42-.42,0,0L175,125.92l-3.05-3-1.41-1.41-.13-.13L169,122.75l0,0,0,0,0,0h0l0,0,.33.34,1.17,1.17.25.25,0,0,.67.67.05,0,1.34,1.34,2,2,.52.52,1.17,1.17.25.25.05,0,.56.57.1.1.05,0,1.34,1.34.92.92A10,10,0,0,0,184.86,126.61Z"/><path class="a" d="M179.59,121.34,175,125.92l-4.59-4.58L169,122.75l6,6,6-6Z"/><path class="d" d="M115,125a10,10,0,1,0,10-10A10,10,0,0,0,115,125Z"/><path class="e" d="M133.69,129.93l-.94-.94-.21-.2,0,0-.49-.5-.21-.2-.15-.16-.5-.49-.71-.71-.2-.21-.16-.15-1-1-.25-.25,0,0-.21-.2-.29-.29-.2-.21L126.75,123l-.21-.21,0,0-.49-.5-.21-.2-1.36-1.36-.2-.21-.33-.32-1.07-1.07-.08-.09-1.41,1.41.86.87,3.72,3.72-4.58,4.59,0,0,.49.5.08.08.09.08.08.09.16.16.09.08.27.28.27.27,0,0,.09.09.16.16h0l.1.1.11.1,0,.06.26.26h0l0,0,0,0,0,0,.11.11.09.09.07.07.09.09.82.82.51.5.08.09.4.4.42.42.2.19A10,10,0,0,0,133.69,129.93Z"/><path class="a" d="M121.34,120.41l4.58,4.59-4.58,4.59,1.41,1.41,6-6-6-6Z"/><path class="d" d="M394,24.28a19,19,0,1,0-19,19,19,19,0,0,0,19-19"/><path class="e" d="M392.82,30.75h0v-.07h-.06v-.06h-.07v-.07h-.06v-.07h-.07v-.06h-.06v-.06h-.07v-.07h-.06v-.07h-.07v-.06h-.07v-.07h-.06V30h-.06V30H392V29.9h-.07v-.06h-.06v-.07h-.06V29.7h-.07v-.06h-.06v-.07h-.07V29.5h-.06v-.06h-.07v-.06h-.06v-.07h-.07v-.06h-.06v-.07h-.07v-.06h-.07v-.07h-.07V29H391v-.07H391v-.06h-.06v-.07h-.06v-.06h-.07v-.07h-.07V28.6h-.06v-.07h-.06v-.06h-.07V28.4h-.07v-.06h-.06v-.07h-.06v-.06h-.07v-.07h-.06v-.06h-.07V28h-.06V28H390v-.07h-.06v-.06h-.07v-.07h-.06v-.06h-.07v-.07h-.06v-.06h-.07V27.5h-.06v-.07h-.07v-.06h-.06V27.3h-.07v-.06h-.06v-.07h-.07v-.06h-.06V27h-.07V27H389v-.07h-.07v-.06h-.06v-.07h-.07v-.06h-.07v-.07h-.07v-.06h-.07v-.07h-.06v-.06h-.06v-.07h-.07v-.06h-.07v-.07h-.06V26.2h-.06v-.07h-.07v-.06h-.07V26H388v-.06H388v-.07h-.07v-.06h-.06v-.07h-.08v-.06h-.06v-.07h-.07v-.06h-.06v-.07h-.06v-.06h-.07v-.07h-.07v-.06h-.06v-.07h-.07v-.06h-.06v-.07h-.07V25H387V25H387V24.9h-.07v-.06h-.06v-.07h-.07v-.06h-.06v-.07h-.07v-.06h-.07v-.07h-.07v-.06h-.06v-.07h-.06v-.06h-.07v-.07h-.07v-.06h-.06v-.07h-.06v-.06h-.07V24H386v-.06h-.07v-.07h-.06V23.8h-.07v-.07h-.06v-.06h-.07V23.6h-.06v-.06h-.07v-.07h-.06v-.06h-.07v-.07h-.06v-.06h-.07v-.07h-.06v-.06h-.07v-.07h-.06V23H385V23H385v-.06h-.07v-.07h-.06v-.06h-.07V22.7h-.06v-.07h-.06v-.06h-.07V22.5h-.07v-.06h-.06v-.07h-.07v-.06h-.08v-.07h-.06v-.06h-.06v-.07h-.07v-.06H384V22H384v-.06h-.07V21.8h-.06v-.06h-.07v-.07h-.06v-.06h-.06v-.07h-.07v-.06h-.06v-.07h-.07v-.06h-.06v-.07h-.07v-.06h-.06v-.07h-.07v-.06h-.06V21h-.07V21H383v-.07h-.07v-.06h-.06v-.07h-.07V20.7h-.06v-.07h-.07v-.06h-.06V20.5h-.07v-.06h-.06v-.07h-.07v-.06h-.06v-.07h-.07v-.06h-.08v-.07h-.06v-.06h-.06V20H382v-.06h-.07v-.06h-.06v-.07h-.06v-.07h-.07v-.06h-.07v-.07h-.06v-.06h-.06v-.07h-.07V19.4h-.06v-.07h-.07v-.06h-.07v-.06h-.06v-.07h-.06v-.06h-.07V19H381V19H381v-.07h-.07v-.06h-.07v-.07h-.06v-.06h-.07v-.07h-.06v-.06h-.06v-.07h-.07v-.06h-.07v-.07h-.06V18.3h-.06v-.07h-.07v-.06h-.06V18.1h-.07V18h-.06V18H380v-.06h-.06v-.07h-.07v-.06h-.06v-.07h-.07v-.06h-.06v-.07h-.07v-.06h-.06v-.06h-.07v-.07h-.06v-.06h-.07v-.07h-.06V17.2h-.07v-.1h-.06V17h-.07V17H379v-.06H379v-.07h-.08v-.06h-.06v-.07h-.06v-.07h-.07v-.06h-.06v-.06h-.07v-.07h-.06v-.06h-.07v-.07h-.07v-.06h-.06v-.07h-.06v-.06h-.07v-.07h-.06V16H378v-.07H378v-.06h-.07V15.8h-.07v-.06h-.06v-.07h-.06v-.06h-.07v-.07h-.07v-.06h-.06v-.07h-.07v-.06h-.07v-.07h-.06v-.06h-.06v-.07h-.07v-.06h-.07V15h-.06V15H377v-.07h-.07v-.06h-.07v-.06h-.06V14.7h-.06v-.06h-.07v-.07h-.06V14.5h-.07v-.06h-.06v-.06h-.07v-.07h-.07v-.06h-.06v-.07h-2.53v15.4l-7-7-.06-.06-1.79,1.78.06.07.2.19.19.2.92.91.91.92,1.77,1.76,1.24,1.24.32.33.59.58.59.59,2,2,.06.07.59.58.33.33.45.46.4.39h0l.06.06.33.33.06.06.46.46.39.39.52.53.26.26.07.06.85.85.59.59,1.24,1.24.32.32.59.59.39.39.2.2.58.58A19.09,19.09,0,0,0,392.82,30.75Z"/><path class="a" d="M385.12,24.28l-1.79-1.78-7.07,7.06V14.16h-2.52v15.4l-7.07-7.06-1.79,1.78L375,34.4Z"/><path class="d" d="M406,25A19,19,0,1,0,425,6a19,19,0,0,0-19,19"/><path class="e" d="M442.49,32.37l-.09-.09-.2-.2,0,0-.19-.2,0,0-.13-.13-.33-.33-.27-.27L440,29.84l-.56-.56,0,0-.07-.07-.29-.29-.43-.43-.53-.53,0,0,0,0-1.62-1.62-.56-.56-.33-.33-.59-.59-.2-.2-.4-.4-.32-.33-.2-.19-.07-.07-1.05-1-.6-.6-.19-.19-2.57-2.58-.4-.39-1-1-1.64-1.65-.2-.19-.07-.07-.13-.13-.2-.2-.06-.07-.07-.06-.06-.07-.07-.06-.07-.07-.06-.06-.07-.07-.13-.13-.06-.07L414.89,25l.13.13.13.13.53.53.13.13.5.49.09.1.07.07.16.16.17.17h0l.2.2.65.65.47.46.52.53.14.14.65.65h0l.46.46.53.52.79.8.06.06.2.19h0l.06.06.07.07.16.16.17.17.1.1,0,0,.13.13.4.39.19.2.53.53.42.42v1.26h.07v.07h.06v.07h.07v.06H424v.07h.07v.06h.06v.07h.07v.06h.06v.07h.07v.06h.06v.07h.07v.06h.07v.07h.06V36h.07V36h.06v.07h.07v.06h.06v.07h.07v.06H425v.07h.07v.06h.07v.07h.06v.06h.07v.07h.06v.07h.07v.06h.06v.07h.07v.06h.06V37h.07V37h.07v.07h.06v.07h.07v.06h.06v.07H426v.06H426v.07h.07v.06h.06v.07h.07v.06h.06v.07h.07v.06h.06v.07h.07v.07h.07v.06h.06V38h.07v.06h.06v.07h.07v.06h.06v.07H427v.06H427v.07h.06v.06h.07v.07h.06v.07h.07v.06h.06v.07h.07v.06h.06v.07h.07v.06h.06V39h.07v.06h.06v.07h.07v.06h.07v.07h.06v.06H428v.07h.06v.07h.07v.06h.06v.07h.07v.06h.06v.07h.07v.06h.07v.07h.06v.07h.07V40h.06V40h.07v.06h.06v.07h.07v.06h.06v.07H429v.06H429v.07h.07v.07h.07v.06h.06v.06h.07v.07h.06v.07h.07v.06h.06v.07h.07V41h.06V41h.07v.06h.07v.07h.06v.06h.07v.07H430v.07H430v.06h.06v.07h.07v.06h.06v.07h.07v.06h.07v.07h.06v.06h.07v.07h.06v.06h.07V42h.06v.07h.07v.06h.06v.07h.07v.06H431v.07H431v.06h.06v.07h.07v.06h.07v.07h.06v.07h.07v.06h.06v.06A18.77,18.77,0,0,0,442.49,32.37Z"/><path class="a" d="M414.88,25l1.78,1.78,7.07-7.06v15.4h2.53V19.72l7.08,7.06L435.12,25,425,14.88Z"/><path class="d" d="M625,44a19,19,0,1,0-19-19,19,19,0,0,0,19,19"/><path class="e" d="M643.63,28.56h0a.43.43,0,0,1,0-.05l-.09,0,.06-.05-.13,0,.06-.05-.13,0,.05-.05-.12,0,0-.06-.12,0,.05-.05-.12,0,0-.05-.13,0,.06-.05-.13,0,.06-.06H643l.06-.06-.13,0,.06,0-.13,0,0-.05-.12,0,.05-.05-.12,0,0-.06-.12,0,0-.05-.13,0,.06,0-.13,0,.06,0-.13,0,.06-.06-.13,0,0-.05-.12,0,.05-.05-.12,0,0-.05-.13,0,.06-.06h-.13l.06-.06-.13,0,.06-.05-.13,0,.06-.05-.13,0,.06-.05-.13,0,.05-.06-.12,0,0-.05-.12,0,0-.05-.13,0,.06-.05-.13,0,.06-.06-.13,0,.06,0-.13,0,.06,0-.13,0,.05-.05-.12,0,0-.06h-.12l0-.06-.12,0,.05-.05-.13,0,.06-.05-.13,0,.06-.06h-.13l.06-.06-.13,0,.06-.05-.13,0,0-.05-.12,0,0-.05-.12,0,.05-.06-.13,0,.06-.05-.13,0,.06-.05-.13,0,.06-.05-.13,0,.06-.06-.13,0,0,0-.12,0,0-.05-.12,0,.05-.05-.12,0,0-.05-.13,0,.06-.06-.13,0,.06,0-.13,0,.06,0-.13,0,0,0-.12,0,0-.06-.12,0,.05-.05-.12,0,0-.05-.13,0,.06-.05-.13,0,.06-.06h-.13l.06-.06-.13,0,0-.05-.12,0,0-.05-.12,0,.05-.05-.12,0,0-.05-.12,0,.05-.05-.13,0,.06-.05-.13,0,.06-.06h-.13l0-.06-.12,0,0,0-.12,0,.05-.05-.12,0,0-.05-.12,0,.05-.06-.13,0,.06-.05-.13,0,.06-.05-.13,0,.06,0-.13,0,0-.06-.12,0,.05-.05-.12,0,0-.05-.12,0,.05-.05-.13,0,.06-.05-.13,0,.06-.05-.13,0,.06-.05-.13,0,0-.05-.12,0,.05-.05-.12,0,0-.06-.12,0,.05-.05-.13,0,.06-.05-.13,0,.06-.05-.13,0,.06-.06h-.13l.06-.06-.13,0,.05,0-.12,0,0,0-.12,0,.05-.06-.12,0,0-.05-.13,0,.06-.05-.13,0,.06-.05-.13,0,.06,0-.13,0,.06-.06-.13,0,0-.05-.12,0,.05-.05-.12,0,0-.05-3.63-.53v0h0l0-.08,0,0,0-.11,0,0-.06-.11v0l-.06-.11,0,0-.05-.11,0,0,0-.1,0,0,0-.11,0,0-.06-.1v0l-.06-.11,0,0-.05-.11,0,0,0-.11,0,0-.06-.11v0l-.06-.11,0,0,0-.11,0,0-.05-.1,0,0-.06-.11v0l-.06-.11,0,0,0-.11,0,0-.05-.11,0,0,0-.11,0,0-.06-.11v0l-.06-.1,0,0,0-.1,0,0-.05-.11,0,0-.06-.11,0,0,0-.11,0,0-.05-.11,0,0,0-.11,0,0-.06-.11v0l-.06-.1,0,0-.05-.1,0,0,0-.11,0,0,0-.11,0,0-.06-.11,0,0,0-.11,0,0-.05-.11,0,0,0-.11,0,0-.06-.1v0l-.06-.11,0,0,0-.11,0,0-.05-.11,0,0-.06-.11v0l-.06-.11,0,0,0-.1,0,0,0-.1,0,0-.06-.11v0l-.06-.11,0,0-.05-.11,0,0,0-.11,0,0-.05-.11,0,0-.06-.11,0,0,0-.11,0,0-.05-.1,0,0,0-.11,0,0-.06-.11v0l-.06-.11,0,0-.05-.11,0,0,0-.11,0,0-.06-.11v0l-.06-.1,0,0,0-.1,0,0-.05-.11,0,0,0-.11,0,0-.06-.11,0,0-.05-.11,0,0,0-.11,0,0-.05-.11,0,0-.06-.1v0l-.06-.11,0,0,0-.11,0,0,0-.11,0,0-.05-.11,0,0-.06-.11,0,0-.05-.11,0,0,0-.11,0,0-.06-.1v0l-.06-.11,0,0,0-.11,0,0-.05-.11,0,0,0-.11,0,0-.06-.11,0,0,0-.1,0,0,0-.1,0,0,0-.11,0,0-.06-.11,0,0-.05-.11,0,0,0-.11,0,0-.05-.11,0,0,0-.11,0,0-.06-.11,0,0-.05-.1,0,0,0-.11,0,0-.05-.11,0,0-.06-.11,0,0-.05-.11,0,0,0-.11,0,0,0-.11,0,0-.06-.1v0l-.06-.11,0,0-.05-.11,0,0,0-.11,0,0-.05-.11,0,0-.06-.11,0,0,0-.11,0,0-.05-.11,0,0-.06-.1v0L625,13,621.53,20l-7.81,1.14.07.07h0l.08.07h0l.08.07h0l.08.07h0l.07.07h0l.07.07h0l.07.08h0l.07.07h0l.07.07h0l.08.07h0l.08.07h0l.07.07h0l.07.07h0l.07.08h0l.07.07h0l.07.07h0l.07.07h0l.08.07h0l.08.07h0l.07.07h0l.07.08h0l.07.07h0l.07.07h0l.07.07h0l.08.07h0l.08.07h0l.07.07h0l.07.07h0l.07.08h0l.07.07h0l.07.07h0l.07.07h0l.08.07h0l.07.07h0l.07.07h0l.07.08h0l.07.07h0l.07.07h0l.07.07h0l.08.07h0l.08.07h0l.08.07h0l.07.07h0l.07.08h0l.07.07h0l.07.07h0l.08.07h0l.08.07h0l.08.07h0l.07.07h0l.07.08h0l.07.07h0l.07.07h0l.07.07h0l.08.07h0l.08.07h0l.08.07h0l.07.07h0l.07.08h0l.07.07h0l.07.07h0l.08.07h0l.08.07h0l.08.07h.06l.08.07h0l.08.07h0l.07.08h0l.07.07h0l.07.07h0l.07.07h0l.07.07h0l.07.07h0l.08.07h0l.07.08h0l.07.07h0l.07.07h0l.07.07h0l.07.07h0l0,0-1.32,7.66.1-.05,0,.12.09-.05,0,.12.09-.05,0,.12.09-.05,0,.13.09-.05,0,.12.09-.05,0,.12.1-.05,0,.12.1-.05,0,.12.09-.05,0,.12.09-.05,0,.12.09-.05,0,.13.09-.05,0,.12.09-.05,0,.12.1-.05,0,.12.1-.05,0,.12.09-.05,0,.12.09-.05,0,.12.09-.05,0,.12.09,0,0,.12.09-.05,0,.12.09-.05,0,.12.1-.05,0,.12.09-.05,0,.12.09-.05,0,.12.09-.05,0,.12.09-.05,0,.13.09-.05,0,.12.1-.05,0,.12.1-.05,0,.12.09-.05,0,.12.09-.05,0,.12.09-.05,0,.12.09-.05,0,.12.09,0,0,.11.1,0,0,.12.1-.05,0,.12.09-.05,0,.12.09-.05,0,.12.09-.05,0,.12.09-.05,0,.12.09-.05,0,.12.09,0,0,.12.1-.05,0,.12.09-.05,0,.12.09-.05,0,.12.09-.05,0,.12.09-.05,0,.12.09-.05,0,.12.1,0,0,.12.1-.05,0,.12.09-.05,0,.12.09-.05,0,.12.09-.05,0,.12.09-.05,0,.12.09-.05,0,.12.1-.05,0,.13.09-.05,0,.12.09-.05,0,.12.09-.05,0,.12.09-.05,0,.12.09-.05,0,.12.09-.05,0,.12.09-.05,0,.12.1,0,0,.11.09,0,0,.12.09-.05,0,.12.09-.05,0,.12.09-.05,0,.12.09-.05,0,.12.1-.05,0,.12.1,0,0,.13.09-.05,0,.11.09,0,0,.12.09-.05,0,.12.09-.05,0,.12.1-.05,0,.12.1-.05,0,.12.09,0,0,.12.09,0,0,.11.09,0,0,.13.09-.05,0,.12.09-.05,0,.12.1-.05,0,.12.1-.05,0,.12.09,0,0,.12.09,0,0,.12.09,0,0,.13.09-.05,0,.12.09-.05,0,.12.09-.05,0,.12.1-.05,0,.12.1,0,0,.12.09,0,0,.12.09,0,0,.13.09-.05,0,.12.09-.05,0,.12.09-.05,0,.12.09-.05,0,.12.1,0,0,.12.09,0,0,.12.09,0,0,.12.09,0,0,.12.09-.05,0,.12.09-.05,0,.12.1-.05,0,.12.1,0,0,.12.09,0,0,.12.09,0,0,.12.09,0,0,.11.09,0,0,.12.1-.05,0,.12.1-.05,0,.12.09,0,0,.12.09,0,0,.12.09,0,0,.12.09,0,0,.12.09,0,0,.12.1-.05,0,.12.1-.05,0,.12.09,0,0,.12.09,0,0,.12.09,0,0,.12.09,0,0,.12.1,0,0,.11.1,0,0,.12.09-.05,0,.12.09,0,0,.12.09,0,0,.12.09,0,0,.12.09,0,0,.12.1,0v0A18.73,18.73,0,0,0,643.63,28.56Z"/><polygon class="o" points="625.07 12.99 628.56 20.06 636.37 21.2 633.77 23.74 630.72 26.71 632.06 34.48 625.07 30.81 618.09 34.48 619.42 26.71 616.38 23.74 613.77 21.2 621.58 20.06 625.07 12.99"/><polyline class="p" points="625.07 12.99 628.56 20.06 636.37 21.2 633.77 23.74 630.72 26.71 632.06 34.48 625.07 30.81"/><path class="d" d="M493.83,25A18.83,18.83,0,1,0,475,43.83,18.84,18.84,0,0,0,493.83,25Z"/><path class="e" d="M493.57,28l0,0-.14-.14-.14-.14-.64-.64-.67-.68-1.35-1.34-.14-.14-.36-.36-.1-.1-.21-.21-.92-.92-1-1-.74-.74-.92-.92-1-1-.28-.28-.67-.67-1.7-1.7-.14-.14-.82-.82-1.69-1.69-.15-.15-.42-.42-.07-.07-.07-.07L467.93,25l.21.21.28.29.07.06.29.29.42.42.42.43,1.14,1.13.77.78,1.91,1.9.28.28.29.29.28.28.07.07.21.21.28.28.43.43.28.28.07.07.5.5.07.07.14.14.07.07.07.07.07.07.07.07.14.14.07.07.29.29.07.07.06.07.22.21.14.14.14.14L478,35l.43.43.07.07.14.14.14.14.36.36.14.14.28.28.21.21.14.15.36.35.14.14.35.35.15.15.06.06.22.22h0l2.4,2.4.74.75A18.87,18.87,0,0,0,493.57,28Z"/><path class="a" d="M481.89,33.64,473.26,25l8.63-8.64-2.66-2.66L467.93,25l11.3,11.3Z"/><path class="d" d="M506.17,25A18.83,18.83,0,1,0,525,6.17,18.84,18.84,0,0,0,506.17,25Z"/><path class="e" d="M541.36,34.29l-1.77-1.77-.39-.39-.07-.07-.93-.94-.39-.38-.29-.29-.93-.93-1.34-1.34-.39-.39-.29-.29-1.86-1.86-.46-.47-.08-.07-.39-.39-.54-.54-.39-.39-2.56-2.56-.39-.39-.07-.08-.94-.93-.38-.39L524,16.88l-.39-.39-.62-.62-2-2-.15-.15-2.66,2.65L519.73,18l7,7-8.63,8.64.08.08.93.93.15.15.16.16.15.15.31.31.16.16.51.51.52.52.06.06.16.16.3.3h0l.19.19.2.2.1.1.5.5h0l.06.06,0,.05,0,0,.21.22.16.16.15.15.15.15L525,40.54l1,1,.16.16.76.75.79.8.36.36A18.79,18.79,0,0,0,541.36,34.29Z"/><path class="a" d="M518.11,16.36,526.74,25l-8.63,8.65,2.66,2.65L532.07,25l-11.3-11.3Z"/><path class="d" d="M575,44a19,19,0,1,0-19-19,19,19,0,0,0,19,19"/><path class="e" d="M593.88,26.94h0l-.09-.09a203556338973.89,203556338973.89,0,0,1-.18-.18.38.38,0,0,0-.09-.09l-.08-.09-.09-.09-.1-.09-.08-.09-.09-.09L593,26l-.09-.09-.09-.09-.09-.09-.09-.09-.09-.09-.09-.08a.43.43,0,0,0-.09-.1l-.09-.08a203556338974,203556338974,0,0,1-.18-.18l-.09-.09a.38.38,0,0,0-.09-.09.38.38,0,0,0-.09-.09.26.26,0,0,0-.09-.09s-.05-.07-.09-.09,0-.07-.09-.09,0-.07-.09-.09-.05-.07-.09-.09-.05-.07-.09-.09,0-.07-.09-.09,0-.07-.09-.09l-.09-.09a.38.38,0,0,0-.09-.09.38.38,0,0,0-.09-.09l-.09-.09a.38.38,0,0,0-.09-.09,203556338974.21,203556338974.21,0,0,1-.18-.18l-.08-.09-.09-.09-.09-.09-.1-.09a.38.38,0,0,0-.09-.09l-.08-.09-.09-.09-.09-.09-.09-.09-.09-.09-.09-.08-.09-.1-.09-.08-.09-.1-.09-.09a.34.34,0,0,0-.09-.08,203556338973.89,203556338973.89,0,0,1-.18-.18.26.26,0,0,0-.09-.09s0-.07-.09-.09,0-.07-.09-.09a.53.53,0,0,0-.26-.18l-3-.85-.06-.05-.09-.09s-.06-.06-.09-.09-.06-.06-.09-.09-.06-.06-.09-.09a.76.76,0,0,0-.09-.09,203556338973.77,203556338973.77,0,0,1-.18-.18l-.09-.09a.76.76,0,0,0-.09-.09,203556338974,203556338974,0,0,1-.18-.18.38.38,0,0,0-.09-.09.38.38,0,0,0-.09-.09L584,19.3l-.1-.09-.08-.09-.1-.09-.08-.09-.09-.09-.09-.09-.09-.09-.09-.08-.09-.1-.09-.08a.38.38,0,0,0-.09-.09l-.09-.09a.38.38,0,0,0-.09-.09l-.09-.09s-.06-.06-.09-.09a.76.76,0,0,0-.09-.09s-.06-.06-.09-.09-.06-.06-.09-.09-.06-.06-.09-.09-.06-.06-.09-.09-.06-.06-.09-.09-.06-.06-.09-.09-.06-.06-.09-.09a.38.38,0,0,0-.09-.09l-.09-.09-.09-.09a.26.26,0,0,0-.09-.09.38.38,0,0,0-.09-.09l-.09-.09a.38.38,0,0,0-.09-.09,203556338973.84,203556338973.84,0,0,1-.18-.18l-.08-.09-.1-.09-.08-.09-.09-.09-.1-.09-.08-.09-.09-.08-.09-.1-.09-.09-.09-.08-.09-.09-.09-.09a.38.38,0,0,0-.09-.09l-.09-.09-.09-.09a.38.38,0,0,0-.09-.09,203556338974,203556338974,0,0,1-.18-.18l-.09-.09a.76.76,0,0,0-.09-.09s-.06-.06-.09-.09-.06-.06-.09-.09-.06-.06-.09-.09a.76.76,0,0,0-.09-.09s-.06-.06-.09-.09l-.09-.09a.76.76,0,0,0-.09-.09.76.76,0,0,0-.09-.09l-.09-.09a.38.38,0,0,0-.09-.09,203556338973.9,203556338973.9,0,0,1-.18-.18l-.08-.09-.1-.09a.38.38,0,0,0-.09-.09l-.09-.09a.38.38,0,0,0-.09-.09l-.08-.09-.09-.09-.09-.09-.09-.08a.38.38,0,0,0-.09-.09l-.09-.09a.38.38,0,0,0-.09-.09,203556338973.9,203556338973.9,0,0,1-.18-.18l-.09-.09a.76.76,0,0,0-.09-.09.76.76,0,0,0-.09-.09l-.09-.09s-.06-.06-.09-.09-.06-.06-.09-.09-.06-.06-.09-.09-.06-.06-.09-.09a.76.76,0,0,0-.09-.09s-.06-.06-.09-.09-.06-.06-.09-.09-.06-.06-.09-.09a.56.56,0,0,0-.6-.22L562,14.58a.55.55,0,0,0-.4.68L566,31.72a.56.56,0,0,0,.18.27.38.38,0,0,0,.09.09l.09.09.09.09a.38.38,0,0,0,.09.09.38.38,0,0,0,.09.09l.09.09.08.09.09.09.09.09.09.09.09.09.09.08.09.1.09.09.09.08.09.09.09.09a.38.38,0,0,0,.09.09.38.38,0,0,0,.09.09l.09.09.09.09a.76.76,0,0,0,.09.09.76.76,0,0,0,.09.09s.06.06.09.09a.76.76,0,0,0,.09.09s.06.06.09.09a.76.76,0,0,0,.09.09s.06.06.09.09.06.06.09.09.06.06.09.09.06.06.09.09a.76.76,0,0,0,.09.09.26.26,0,0,0,.09.09s.06.06.09.09a.26.26,0,0,0,.09.09.38.38,0,0,0,.09.09,203556339008.52,203556339008.52,0,0,1,.18.18l.08.09.1.09.08.09.09.09.09.09.09.08.09.1.09.09.09.08a.38.38,0,0,0,.09.09l.09.09a.38.38,0,0,0,.09.09,203556339008.46,203556339008.46,0,0,1,.18.18l.09.09s.06.06.09.09l.09.09a.26.26,0,0,0,.09.09s.06.06.09.09.06.06.09.09.06.06.09.09.06.06.09.09.06.06.09.09.06.06.09.09l.09.09a.38.38,0,0,0,.09.09,203556339008.78,203556339008.78,0,0,1,.18.18l.09.09a.38.38,0,0,0,.09.09.38.38,0,0,0,.09.09l.09.09a.38.38,0,0,0,.09.09l.08.09.1.09.08.09.09.09.09.09.09.09.09.09.09.09.09.08.09.09a.38.38,0,0,0,.09.09.38.38,0,0,0,.09.09l.09.09.09.09a.76.76,0,0,0,.09.09l.09.09.09.09s.06.06.09.09.06.06.09.09l.09.09s.06.06.09.09.06.06.09.09.06.06.09.09.06.06.09.09a.76.76,0,0,0,.09.09.26.26,0,0,0,.09.09l.09.09.08.09.1.09a.38.38,0,0,0,.09.09l.08.09.1.09a.38.38,0,0,0,.09.09l.08.09.1.09.08.09.09.09.09.09.09.08.09.1.09.09.09.09.09.09.09.08.09.1.09.08a.38.38,0,0,0,.09.09l.09.09.09.09a.38.38,0,0,0,.09.09s.06.06.09.09.06.06.09.09.06.06.09.09.06.06.09.09.06.06.09.09.06.06.09.09.06.06.09.09.06.06.09.09a.38.38,0,0,0,.09.09.6.6,0,0,0,.08.08A19,19,0,0,0,593.88,26.94Z"/><path class="j" d="M575,17.77l13.3,3.7a.56.56,0,0,1,.39.69l-4.57,16.41a.55.55,0,0,1-.69.39l-13.29-3.69a.57.57,0,0,1-.39-.7l4.56-16.41a.56.56,0,0,1,.69-.39"/><path class="q" d="M586.76,24.18l-3-.85a.28.28,0,0,0-.35.19l-3.62,13a.28.28,0,0,0,.19.35l3.05.85a.29.29,0,0,0,.35-.2l3.62-13a.26.26,0,0,0-.19-.34M582.35,23,575,20.89a.29.29,0,0,0-.35.2l-3.62,13a.29.29,0,0,0,.19.35l7.4,2a.26.26,0,0,0,.34-.19l3.63-13a.29.29,0,0,0-.2-.35"/><path class="j" d="M562,14.6,575.3,11a.57.57,0,0,1,.69.4l4.4,16.45a.57.57,0,0,1-.4.69l-13.33,3.56a.57.57,0,0,1-.69-.39l-4.4-16.46a.57.57,0,0,1,.4-.69"/><path class="q" d="M577.26,21.37l-11.83,3.16a.29.29,0,0,0-.2.35l1.56,5.85a.28.28,0,0,0,.35.19L579,27.76a.28.28,0,0,0,.2-.34l-1.57-5.85a.27.27,0,0,0-.34-.2m-1.93-7.21L563.5,17.33a.28.28,0,0,0-.2.34l1.56,5.85a.29.29,0,0,0,.35.2L577,20.55a.28.28,0,0,0,.2-.34l-1.56-5.85a.29.29,0,0,0-.35-.2"/><path class="d" d="M625,144a19,19,0,1,0-19-19,19,19,0,0,0,19,19"/><path class="e" d="M643.21,130.28a.08.08,0,0,0,0,0s0,0,0,0l-.07-.07h0s0,0-.06-.06,0,0,0,0l-.07-.06v0l-.07-.06,0,0-.06-.06v0l-.06-.06,0,0-.06-.06,0,0-.07-.06,0,0a.34.34,0,0,0-.06-.06,0,0,0,0,0,0,0l-.06-.07,0,0a.34.34,0,0,0-.06-.06s0,0,0,0l-.06-.06,0,0-.06-.06,0,0a.34.34,0,0,0-.06-.06h0A.2.2,0,0,0,642,129l0,0-.06-.06h0l-.06-.07h0s0-.05-.06-.07,0,0,0,0l-.06-.06h0l-.06-.07h0l-.06-.07h0l-.06-.07,0,0-.06-.06h0l-.06-.07h0l-.06-.07h0l-.06-.07h0l-.06-.07h0l-.06-.07,0,0-.06-.06h0l-.06-.07h0l-.06-.07h0l-.06-.07h0l-.06-.07h0l-.06-.07h0l-.06-.07h0l-.06-.07h0l-.06-.07h0l-.06-.07h0l-.06-.07h0s0,0-.06-.07,0,0,0,0,0,0-.07-.07h0s0,0-.06-.07h0s0-.05-.07-.07h0s0-.05-.06-.07a0,0,0,0,1,0,0s0,0-.07-.07h0s0,0-.06-.06l0,0s0,0-.06-.07h0l-.06-.07h0s0,0-.06-.06l0,0-.06-.06,0,0-.06-.06s0,0,0,0,0-.05-.06-.06,0,0,0,0l-.06-.06,0,0-.06-.06,0,0-.06-.06,0,0-.06-.06h0l-.06-.07,0,0-.06-.06,0,0-.06-.06,0,0-.06-.06,0,0-.06-.06h0l-.06-.07s0,0,0,0l-.06-.06h0l-.06-.07s0,0,0,0l-.06-.06s0,0,0,0l-.06-.06h0s0,0-.07-.07a0,0,0,0,0,0,0s0,0-.07-.07h0s0,0-.07-.07,0,0,0,0l-.07-.06s0,0,0,0l-.06-.06h0s0,0-.07-.07l0,0a.34.34,0,0,0-.06-.06h0s0-.05-.06-.07h0s0,0-.06-.07h0l-.06-.07h0l-.06-.07h0l-.06-.07h0l-.06-.07h0l-.06-.07h0l-.06-.07h0l-.06-.07h0l-.06-.07h0l-.06-.07h0l-.06-.07h0l-.06-.07h0s0,0-.07-.07a0,0,0,0,1,0,0s0,0-.07-.07h0s0,0-.06-.07h0s0-.05-.06-.07h0s0-.05-.07-.07a0,0,0,0,1,0,0l-.07-.07h0s0,0-.06-.07,0,0,0,0,0,0-.07-.07a0,0,0,0,1,0,0s0,0-.07-.07h0s0,0-.06-.07h0l-.06-.06s0,0,0,0a.34.34,0,0,0-.06-.06l0,0a.34.34,0,0,0-.06-.06s0,0,0,0,0,0-.06-.06,0,0,0,0l-.06-.06,0,0-.06-.07h0l-.06-.06,0,0-.06-.06s0,0,0,0l-.06-.06,0,0-.06-.06,0,0-.06-.06,0,0-.06-.06h0l-.06-.07s0,0,0,0l-.07-.06s0,0,0,0l-.07-.06s0,0,0,0l-.07-.06s0,0,0,0l-.07-.06,0,0-.06-.06a0,0,0,0,0,0,0s0,0-.07-.07,0,0,0,0l-.07-.06s0,0,0,0l-.06-.06s0,0,0,0l-.06-.06h0s0,0-.06-.07h0l-.07-.07,0,0a.34.34,0,0,0-.06-.06h0a.2.2,0,0,0-.06-.07h0s0,0-.06-.07h0l-.06-.07s0,0,0,0,0,0-.06-.07h0l-.06-.07h0l-.06-.07h0l-.06-.07h0l-.06-.07h0l-.06-.07h0l-.06-.07h0l-.06-.07h0l-.06-.07h0l-.06-.07h0l-.06-.07h0l-.06-.07h0s0-.05-.06-.07h0l-.06-.07h0l-.07-.07a0,0,0,0,1,0,0,.46.46,0,0,0-.07-.07,0,0,0,0,1,0,0l-.06-.07h0s0,0-.07-.07h0s0,0-.06-.06v0a.46.46,0,0,1-.07-.07h0s0,0-.07-.07h0s0-.05-.06-.07h0l-.06-.06s0,0,0,0,0,0-.06-.07a0,0,0,0,1,0,0l-.07-.06a0,0,0,0,0,0,0s0,0-.06-.06,0,0,0,0l-.07-.06v0a.34.34,0,0,1-.06-.06l0,0s0,0-.06-.06,0,0,0,0l-.06-.06h0a.46.46,0,0,0-.07-.07s0,0,0,0l-.07-.06s0,0,0,0,0,0-.06-.06l0,0-.06-.06h0l-.06-.07s0,0,0,0l-.07-.06s0,0,0,0l-.07-.06s0,0,0,0a.2.2,0,0,0-.06-.07,0,0,0,0,0,0,0,.46.46,0,0,0-.07-.07s0,0,0,0l-.06-.06h0s0,0-.07-.07l0,0-.06-.06,0,0-.06-.06h0l-.06-.07,0,0-.06-.06h0l-.06-.07,0,0-.06-.06h0l-.06-.07h0l-.06-.07h0l-.06-.07a6,6,0,0,0-4-1.35,6.19,6.19,0,0,0-4.14,1.41,5.68,5.68,0,0,0-1.93,3.88h.09s0,0,0,.08h.09s0,0,0,.08h.09s0,0,0,.08h.09s0,0,0,.08h.09s0,0,0,.08h.09s0,0,0,.08h.09s0,0,0,.08h.09s0,.05,0,.08h.09s0,0,0,.08h.09a.24.24,0,0,1,0,.08h.1a.24.24,0,0,1,0,.08h.1a.24.24,0,0,1,0,.08h.1a.24.24,0,0,1,0,.08h.1a.24.24,0,0,1,0,.08h.1a.24.24,0,0,1,0,.08h.1a.24.24,0,0,1,0,.08h.1a.24.24,0,0,1,0,.08h.1a.24.24,0,0,1,0,.08h.1a.24.24,0,0,1,0,.08h.1s0,0,0,.08h.1a.24.24,0,0,0,0,.08h.1s0,0,0,.08h.1a.24.24,0,0,0,0,.08h.1s0,.05,0,.08h.1a.19.19,0,0,0,0,.08h.1s0,0,0,.08h.1s0,0,0,.08h.1a.19.19,0,0,0,0,.08h.1a.19.19,0,0,0,0,.08h.1a.19.19,0,0,0,0,.08h.1a.19.19,0,0,0,0,.08h.1a.19.19,0,0,0,0,.08h.1a.19.19,0,0,0,0,.08h.1a.19.19,0,0,0,0,.08h.1a.19.19,0,0,0,0,.07h.1a.29.29,0,0,0,0,.09h.09s0,0,0,.07h.1a.31.31,0,0,0,0,.08h.09s0,.06,0,.08h.09s0,.06,0,.08h.09s0,.06,0,.08h.09s0,.06,0,.08h.09s0,.06,0,.08h.09s0,.06,0,.08h.09s0,.06,0,.08h.09s0,.06,0,.08h.09s0,.06,0,.08h.09s0,0,0,.08H623s0,0,0,.08h.09s0,0,0,.08h.09s0,0,0,.08h.09s0,0,0,.08h.09s0,0,0,.08h.09s0,0,0,.08h.09s0,.05,0,.08h.09s0,0,0,.08h.09s0,0,0,.08h.09s0,0,0,.08h.09a.24.24,0,0,1,0,.08h.1s0,0,0,0a4,4,0,0,0-.27.43,3.9,3.9,0,0,0-.27,1.66v1.7h.08v.08h.08V129h.08v.08h.08v.08h.08v.08h.08v.08h.08v.08H624v.08h.08v.08h.08v.08h.08v.08h.08v.08h.08v.08h.08V130h.08V130h.08v.08h.08v.07h.08v.09h.08v.07h.08v.09H625v.07h.08v.08h.08v.08h.08v.08h.08v.08h.08v.08h.08V131a2.52,2.52,0,0,0-.56-.07,2.07,2.07,0,0,0-1.5.61,2,2,0,0,0-.63,1.46,1.9,1.9,0,0,0,.64,1.45l0,0,0,.06,0,0,.05.06,0,0,.05.06,0,0,0,.06,0,0,.05.06,0,0,0,.06,0,0,0,.06,0,0,.05.06,0,0,0,.06,0,0,0,.06,0,0,.05.06,0,0,0,.06,0,0,0,.06,0,0,.05.06,0,0,0,.06,0,0,.05.06,0,0,0,.06,0,0,0,.06,0,0,.05.06,0,0,0,.06,0,0,0,.06,0,0,.05.06,0,0,0,.06,0,0,0,.06s0,0,0,0l.06.06,0,0,0,.06s0,0,0,0l.06.06,0,0,.05.06s0,0,0,0l.06.06,0,0,.05.06,0,0,0,.06,0,0,0,.06s0,0,0,0l.05.06,0,0,0,.06,0,0,0,.06,0,0,.06.06,0,0,0,.06,0,0,.06.06,0,0a.34.34,0,0,0,.06.06l0,0,0,.06,0,0,.05.06,0,0,0,.06s0,0,0,0l0,.06,0,0,.05.06,0,0,0,.06,0,0,0,.06,0,0a.21.21,0,0,0,0,.06l0,0,0,.06,0,0,.05.06,0,0,.05.06,0,0,0,.06,0,0,.05.06,0,0,0,.06,0,0,0,.06,0,0,.05.06,0,0,0,.06,0,0,0,.06,0,0,.05.06,0,0,0,.06,0,0,0,.06,0,0,.05.06,0,0,0,.06,0,0,.05.06,0,0,.06.06,0,0,0,.06,0,0,.05.06,0,0,0,.06,0,0,0,.06,0,0,.05.06,0,0,0,.06,0,0,0,.06,0,0,.05.06,0,0,.06.06,0,0,.05.06a0,0,0,0,1,0,0l.06.06,0,0,0,.06,0,0,.05.06,0,0,0,.06,0,0,.06.06,0,0,.05.06,0,0,0,.06,0,0,0,.06,0,0a.34.34,0,0,0,.06.06l0,0,0,.06,0,0,.06.06,0,0,0,0,0,0a.34.34,0,0,0,.06.06s0,0,0,0a.34.34,0,0,1,.06.06l0,0a.34.34,0,0,0,.06.06l0,0,0,.06,0,0,.05.06,0,0,0,.06,0,0,0,.06,0,0,.05.06,0,0,0,.06,0,0,.05.06,0,0,.05.06,0,0,0,.06,0,0s0,0,.05.05l0,0,0,.06,0,0,0,.06,0,0,.05,0,0,0,0,.06,0,0,0,0A18.92,18.92,0,0,0,643.21,130.28Zm-17.55.71Z"/><path class="a" d="M626.57,128.83h-3.14v-1.7a3.93,3.93,0,0,1,.26-1.66,6.07,6.07,0,0,1,1.16-1.43l2-2a2.45,2.45,0,0,0,.64-1.73,2.31,2.31,0,0,0-.67-1.71,2.28,2.28,0,0,0-1.72-.69,2.49,2.49,0,0,0-1.77.66,2.56,2.56,0,0,0-.82,1.74h-3.37a5.7,5.7,0,0,1,1.93-3.89,6.17,6.17,0,0,1,4.14-1.41,5.91,5.91,0,0,1,4,1.36,4.71,4.71,0,0,1,1.56,3.77,4.28,4.28,0,0,1-.92,2.79c-.36.44-.63.76-.81.94l-.74.71-.78.75-.51.55a2.61,2.61,0,0,0-.5,1.72v1.26ZM625.06,135a2.13,2.13,0,0,1-1.52-.6,1.88,1.88,0,0,1-.64-1.45,2,2,0,0,1,.62-1.46,2.19,2.19,0,0,1,3,0,1.91,1.91,0,0,1,.65,1.45,2,2,0,0,1-.63,1.46A2.07,2.07,0,0,1,625.06,135Z"/><path class="d" d="M394,75a19,19,0,1,0-19,19,19,19,0,0,0,19-19"/><path class="e" d="M392.82,81.46h0V81.4h-.06v-.07h-.06v-.06h-.07V81.2h-.07v-.06h-.06v-.07h-.06V81h-.07v-.07h-.06v-.06h-.07v-.07h-.06v-.06h-.07v-.06H392v-.07h-.07v-.06h-.06v-.07h-.07v-.06h-.06v-.07h-.07V80.3h-.06v-.07h-.07v-.06h-.06V80.1h-.07V80h-.06V80h-.07v-.06h-.06v-.07h-.07v-.06h-.06v-.07H391v-.06H391v-.07h-.07v-.06h-.06v-.07h-.07v-.06h-.06v-.07h-.07v-.06h-.06v-.07h-.07v-.06h-.06v-.07h-.06V79h-.07v-.07h-.07v-.06h-.06V78.8h-.06v-.06h-.07v-.07H390v-.06h-.07v-.07h-.06v-.06h-.07v-.06h-.06v-.07h-.07v-.06h-.06v-.07h-.07v-.06h-.06v-.07h-.07V78h-.06v-.06h-.07v-.07h-.06v-.06h-.07v-.07h-.06v-.06H389v-.07H389v-.06h-.07v-.07h-.06v-.06h-.07v-.07h-.06v-.06h-.07v-.06h-.06v-.07h-.07V77.1h-.06V77h-.07V77h-.06V76.9h-.1v-.07h-.06v-.06h-.07v-.06H388v-.07H388v-.06h-.07v-.07h-.06v-.06h-.07v-.07h-.06v-.06h-.07v-.07h-.06v-.06h-.07v-.07h-.06v-.06h-.07V76h-.06v-.06h-.07v-.07h-.06V75.8h-.07v-.07h-.06v-.06H387V75.6h-.06v-.06h-.07v-.07h-.06v-.06h-.07v-.07h-.06v-.06h-.07v-.07h-.06v-.06h-.07v-.07h-.06V75h-.07V75h-.06v-.06h-.07V74.8h-.06v-.06h-.07v-.07H386v-.06H386v-.07h-.07v-.06h-.07v-.07h-.06v-.06h-.07v-.07h-.06v-.06h-.06v-.07h-.07v-.06h-.06V74h-.07V74h-.06v-.07h-.07v-.06h-.06v-.06h-.07V73.7H385v-.07H385v-.06h-.06v-.06h-.07v-.07h-.06v-.06h-.07v-.07h-.06v-.06h-.07v-.07h-.06v-.06h-.07v-.07h-.06V73h-.07v-.07h-.06v-.06h-.07v-.07h-.06v-.06h-.07v-.07H384V72.6h-.07v-.07h-.06v-.06h-.07V72.4h-.06v-.06h-.07v-.07h-.06v-.06h-.06v-.07h-.07v-.06h-.06V72h-.07V72h-.06v-.07h-.07v-.06h-.06v-.07h-.07v-.06H383v-.06H383v-.07h-.06V71.5h-.07v-.07h-.06v-.06h-.07V71.3h-.06v-.06h-.07v-.07h-.06v-.06h-.07V71h-.06V71h-.07v-.07h-.06v-.06h-.07v-.07h-.06v-.06h-.07v-.07H382v-.06h-.07v-.07h-.06v-.06h-.07v-.07h-.06v-.06h-.07v-.07h-.06V70.2h-.07v-.07h-.06v-.06h-.07V70h-.06v-.06h-.07v-.07h-.06v-.06h-.06v-.06h-.07v-.07H381v-.07H381v-.06h-.06v-.06h-.07v-.07h-.06v-.07h-.07v-.06h-.06v-.06h-.07v-.07h-.06v-.07h-.07V69h-.12V69h-.06V68.9h-.07v-.06h-.06v-.07h-.06v-.06H380v-.07h-.07v-.06h-.06v-.07h-.06v-.06h-.07v-.07h-.06v-.06h-.07v-.07h-.06v-.06h-.07v-.07h-.06v-.06h-.07V68h-.06v-.06h-.07v-.07h-.06V67.8h-.07v-.07H379v-.06H379V67.6h-.06v-.06h-.07v-.07h-.06v-.06h-.07v-.07h-.06v-.06h-.07v-.06h-.06v-.07h-.07v-.07h-.06V67h-.07V67h-.06v-.06h-.07v-.06h-.06v-.07H378V66.7H378v-.07h-.06v-.06h-.07V66.5h-.07v-.06h-.06v-.07h-.06v-.06h-.07v-.07h-.06v-.06h-.07v-.07h-.06v-.06h-.07V66h-.06v-.06h-.07v-.07h-.06v-.06h-.07v-.07H377v-.06h-.07v-.07h-.06v-.06h-.07v-.07h-.06V65.4h-.07v-.07h-.06v-.06h-.07V65.2h-.06v-.06h-.07v-.07h-.06V65h-.07v-.07h-2.53v15.4l-7-7-.07-.07-1.78,1.79.06.06.2.2.19.19.92.92.91.91L369,79.11l1.23,1.24.33.33.59.59.59.59,2,2,.06.07.59.59.33.32.45.46.39.39h0l.06.07.33.32.06.07.46.45.39.4.52.52.26.26.07.06.85.85.58.59,1.25,1.24.32.33.59.59.39.39.2.19.58.58A19.34,19.34,0,0,0,392.82,81.46Z"/><path class="a" d="M385.12,75l-1.78-1.78-7.07,7V64.88h-2.53V80.27l-7.07-7L364.88,75,375,85.12Z"/><path class="d" d="M406,75a19,19,0,1,0,19-19,19,19,0,0,0-19,19"/><path class="e" d="M442.49,82.37l-.09-.09-.2-.2,0,0-.19-.2,0,0-.13-.13-.33-.33-.27-.27L440,79.84l-.56-.56,0,0-.07-.07-.29-.29-.43-.43-.53-.53,0,0,0,0-1.62-1.61-.56-.56-.33-.33-.59-.59-.2-.2-.4-.4-.32-.33-.2-.19-.07-.07-1.05-1-.6-.6-.2-.19-2.56-2.57-.4-.4-1-1-1.65-1.65-.19-.19-.07-.07-.13-.13-.2-.2-.06-.06-.07-.07-.06-.06-.07-.07-.07-.07-.06-.06-.07-.07-.13-.13-.07-.06L414.89,75l.13.13.13.13.53.53.13.13.49.49.1.1.07.07.16.16.17.17h0l.19.19.66.66.46.47.53.52.14.14.65.65h0l.46.46.52.53.8.79.06.06.2.2h0l.06.06.07.07.16.16.17.17.1.1,0,0,.13.13.4.4.19.2.53.52.42.42v1.26h.06v.07h.07v.07h.07v.06H424v.07h.07v.06h.06v.07h.07v.06h.06v.07h.07v.06h.06v.07h.07v.06h.07v.07h.06V86h.07V86h.06v.07h.07v.06h.06v.07h.07v.06H425v.07h.07v.06h.06v.07h.07v.07h.07v.06h.06v.07h.07v.06h.06v.07h.07v.06h.06V87h.07V87h.06v.07h.07v.07h.06v.06h.07v.07H426v.06H426v.07h.07v.06h.06v.07h.07v.06h.06v.07h.07v.07h.06v.06h.07v.06h.07v.07h.06V88h.07v.06h.06v.07h.07v.06h.06v.07H427v.06H427v.07h.07v.06h.07v.07h.06v.07h.07v.06h.06v.07h.07v.06h.06v.07h.07v.06h.06V89h.07v.06h.06v.07h.07v.06h.07v.07h.06v.07H428v.06h.06v.07h.07v.06h.06v.07h.07v.06h.06v.07h.07v.06h.06v.07h.07v.07h.07V90h.06V90h.07v.06h.06v.07h.07v.06h.06v.07H429v.06H429v.07h.07v.07h.06v.06h.07v.07h.07v.06h.06v.07h.07v.06h.06v.07h.07V91h.06V91h.07v.06h.06v.07h.07v.06h.07v.07H430v.07H430v.06h.06v.07h.07v.06h.06v.07h.07v.06h.06v.07h.07v.06h.07v.07h.06v.06h.07V92h.06v.07h.07v.06h.06v.07h.07v.06h.06v.07H431v.06h.07v.07h.06v.06h.07v.07h.06v.07h.07v.06h.06v.06A18.77,18.77,0,0,0,442.49,82.37Z"/><path class="a" d="M414.88,75l1.78,1.78,7.08-7.06v15.4h2.52V69.72l7.07,7.06L435.12,75,425,64.88Z"/><path class="d" d="M525,94a19,19,0,1,0-19-19,19,19,0,0,0,19,19"/><path class="e" d="M543.69,78.18l-.07,0v0l-.07-.06v0l-.08-.05v0l-.07,0v0l-.08,0v0l-.07,0v0l-.08-.06v0l-.07,0v0l-.08-.06v0l-.07-.05v0l-.07-.06v0l-.08,0v0l-.07-.06v0l-.08,0v0l-.07-.06v0L542.5,77v0l-.07,0v0l-.08,0v0l-.07,0v0l-.08-.06v0l-.07-.05v0l-.07-.06v0l-.08,0v0l-.07-.06v0l-.08,0v0l-.07-.06v0l-.08,0v0l-.07-.05v0l-.08,0v0l-.07,0v0l-.08-.06v0l-.07,0v0l-.08-.06v0l-.07,0v0l-.08-.06v0l-.07,0v0l-.07-.06v0l-.08-.05v0l-.07-.06v0l-.08,0v0l-.07,0v0l-.08-.06v0l-.07,0v0l-.08-.06v0l-.07-.05v0l-.08-.06v0l-.07,0v0l-.08-.06v0l-.07,0v0l-.07-.06v0l-.08,0v0l-.07-.06v0l-.08-.06v0l-.07,0v0l-.08-.06v0l-.07-.05v0l-.08-.06v0l-.07-.06v0l-.08,0v0l-.07,0v0l-.08,0v0l-.07-.06v0l-.07-.05v0l-.08-.06v0l-.08,0v0l-.07-.06v0l-.07,0v0l-.08-.06v0l-.07-.06v0l-.08,0v0l-.07,0v0l-.08,0v0l-.07-.06v0l-.08-.05v0l-.07-.06v0l-.08,0v0L538,72.4v0l-.07,0v0l-.08-.06v0l-.07,0v0l-.08-.06v0l-.07,0v0L537.5,72v0l-.07-.05v0l-.08,0v0l-.07-.06v0l-.08,0v0l-.07-.06v0l-.08,0v0l-.07-.06v0l-.07-.05v0l-.08-.06v0l-.08,0v0l-.07-.06v0l-.07-.06h0l-.08-.06v0l-.07,0v0l-.08-.05v0l-.07-.06v0l-.08,0v0l-.07-.06v0l-.08,0v0l-.07-.06v0l-.08,0v0l-.07-.06v0l-.07-.06h0L525,62.38h0l-10.61,7.7v8.31l.08,0v.12l.07,0v.13l.08-.06v.13l.07,0v.13l.07-.06v.13l.08-.05v.13l.07-.06v.13l.08,0V79l.07-.06v.13l.08,0v.13l.07-.06v.13l.08,0v.13l.07-.06v.13l.08,0v.13l.07-.06v.13l.08-.05v.12l.07,0v.13l.08-.06v.13l.07,0v.13l.08-.06v.13l0,0v3.6a1.53,1.53,0,0,0,.49,1.1l.08.07.07.08.08.07.07.08.08.07.07.08a.46.46,0,0,1,.07.07l.08.08.07.07.08.07.07.08.08.07.07.08.08.07.07.08.08.07.07.08.08.07.07.08.08.07a.46.46,0,0,0,.07.07.3.3,0,0,0,.08.08l.07.07.07.08.08.07.07.08.08.07.07.08.08.07.07.08.08.07.07.08.08.07.07.08.08.07.07.08.07.07.08.07.07.08.08.07.07.08.08.07.07.08.08.07.07.08.08.07.07.08.08.07a.23.23,0,0,0,.07.07l.07.08.08.07.07.08.08.07.07.08.08.07.07.08.08.07.07.08.08.07.07.08.08.07.07.08.08.07a.23.23,0,0,0,.07.07l.07.08.08.07a.6.6,0,0,0,.08.08l.07.07.07.08.08.07.07.08.08.07.07.08.08.07.07.08.07.07.08.07.07.08.08.08.07.07.08.07.07.08.08.07.07.08.08.07.07.08.08.07.07.08.08.07.07.07a.6.6,0,0,0,.08.08.23.23,0,0,0,.07.07.6.6,0,0,0,.08.08.46.46,0,0,0,.07.07l.07.08.08.07.07.08.08.07.07.08.08.07.07.08.07.07a.6.6,0,0,1,.08.08.23.23,0,0,1,.07.07l.08.07a.6.6,0,0,0,.08.08.23.23,0,0,0,.07.07l.07.08.08.07.07.08.08.07.07.08.08.07.07.08.08.07a.23.23,0,0,0,.07.07.3.3,0,0,0,.08.08.23.23,0,0,0,.07.07l.07.08.08.07.07.08.08.07.07.08.08.07,0,0A18.8,18.8,0,0,0,543.69,78.18Z"/><path class="j" d="M534.14,83.53A1.52,1.52,0,0,1,532.63,85H517.42a1.52,1.52,0,0,1-1.51-1.51v-13A1.52,1.52,0,0,1,517.42,69h15.21a1.52,1.52,0,0,1,1.51,1.51Z"/><polygon class="r" points="514.38 78.45 525 70.74 535.76 78.56 535.76 70.26 525.01 62.44 525 62.43 525 62.44 524.99 62.43 524.99 62.44 514.38 70.15 514.38 78.45"/><rect class="s" x="523.5" y="79.38" width="3.05" height="5.65"/><path class="d" d="M575,94a19,19,0,1,0-19-19,19,19,0,0,0,19,19"/><path class="e" d="M593.92,76.14l0,0-.07-.07-.08-.07a.23.23,0,0,0-.07-.07l-.07-.08-.07-.07-.07-.07-.07-.07-.07-.07a.6.6,0,0,1-.08-.08l-.07-.07a108846097915.4,108846097915.4,0,0,0-.14-.14l-.07-.07-.07-.07-.08-.07-.07-.08-.07-.07-.07-.07-.07-.07-.07-.07-.08-.07-.07-.08a.46.46,0,0,1-.07-.07l-.07-.07-.07-.07-.08-.07-.07-.08-.07-.07-.07-.07-.07-.07-.07-.07-.08-.07-.07-.08-.07-.07-.07-.07-.07-.07a.46.46,0,0,1-.07-.07l-.08-.07a.23.23,0,0,0-.07-.07l-.07-.08-.07-.07-.07-.07-.07-.07-.07-.07-.08-.08a.46.46,0,0,1-.07-.07l-.07-.07a.46.46,0,0,1-.07-.07l-.07-.07-.08-.07-.07-.08-.07-.07-.07-.07-.07-.07-.07-.07-.08-.08-.07-.06-.07-.08-.07-.07-.07-.07-.08-.07-.07-.08-.07-.07-.07-.07-.07-.07-.07-.07-.08-.07a.23.23,0,0,0-.07-.07l-.07-.08-.07-.07-.07-.07-.07-.07-.07-.07-.08-.08a.46.46,0,0,1-.07-.07l-.07-.07a.46.46,0,0,1-.07-.07l-.07-.07-.08-.07-.07-.08a.46.46,0,0,1-.07-.07l-.07-.07-.07-.07-.07-.07L587.8,70l-.07-.08a.46.46,0,0,1-.07-.07l-.07-.07-.07-.07-.08-.07-.07-.07-.07-.08a.46.46,0,0,1-.07-.07l-.07-.07-.07-.07-.08-.07-.07-.07-.07-.08a.46.46,0,0,0-.07-.07l-.07-.07-.07-.07-.08-.07-.07-.08-.07-.07-.07-.07-.07-.07a.46.46,0,0,1-.07-.07l-.08-.07a.23.23,0,0,0-.07-.07l-.07-.08-.07-.07-.07-.07L585.8,68l-.08-.08-.07-.06-.07-.08a.46.46,0,0,1-.07-.07l-.07-.07a.27.27,0,0,0-.08-.07.23.23,0,0,0-.07-.07l-.07-.08a.46.46,0,0,1-.07-.07l-.07-.07a.46.46,0,0,1-.07-.07l-.07-.07-.08-.07-.07-.08a.46.46,0,0,0-.07-.07l-.07-.07-.07-.07-.07-.07-.08-.08-.07-.07a.46.46,0,0,1-.07-.07l-.07-.07-.07-.07-.08-.08-.07-.06-.07-.08a.46.46,0,0,1-.07-.07l-.07-.07-.07-.07-.07-.07-.08-.08-.07-.07-.07-.07-.07-.07-.07-.07-.08-.07-.07-.08-.07-.07a3.68,3.68,0,0,0-6.31,2.56,4.48,4.48,0,0,0,.06.64l-6.18,3.71a3.6,3.6,0,0,0-2.25-.79,3.68,3.68,0,0,0-3.68,3.68,3.64,3.64,0,0,0,1.12,2.63.46.46,0,0,0,.07.07l.07.08a.46.46,0,0,1,.07.07l.08.07.06.07a.6.6,0,0,1,.08.08l.07.07a.46.46,0,0,1,.07.07l.07.07.08.07.07.07a.46.46,0,0,0,.07.07l.07.08.07.07a.46.46,0,0,1,.07.07l.07.07.08.07.07.08.07.07a.46.46,0,0,1,.07.07l.07.07.08.07.07.08a108846097922.73,108846097922.73,0,0,0,.14.14l.07.07.08.07.06.07.08.07.07.08a.46.46,0,0,1,.07.07l.07.07.07.07.08.07a.23.23,0,0,0,.07.07l.07.08a.46.46,0,0,1,.07.07l.07.07a.46.46,0,0,1,.07.07l.08.07.07.08a.46.46,0,0,1,.07.07l.07.07.07.07.07.07.08.07.07.08a108846097922.77,108846097922.77,0,0,0,.14.14l.07.07a.46.46,0,0,1,.07.07l.08.07.07.08.07.07.07.07.07.07.08.07.07.07.07.08a.46.46,0,0,1,.07.07l.07.07.07.07.08.07a.23.23,0,0,0,.07.07l.07.07.07.08.07.07.08.07a.46.46,0,0,0,.07.07.23.23,0,0,0,.07.07l.07.08a.46.46,0,0,1,.07.07l.07.07.08.07a.23.23,0,0,0,.07.07l.07.08a.46.46,0,0,1,.07.07l.07.07.07.07.08.07a108846097922.63,108846097922.63,0,0,0,.14.14l.07.08a522461270069.88,522461270069.88,0,0,0,.21.21l.08.07.07.08a.46.46,0,0,1,.07.07l.07.07.07.07.08.07.07.07.07.08a.46.46,0,0,1,.07.07l.07.07a.46.46,0,0,1,.07.07l.07.07.08.07.07.08.07.07.07.07.08.07a108846097922.77,108846097922.77,0,0,0,.14.14l.07.08.07.07.07.07a.46.46,0,0,1,.07.07l.08.07.07.08a145128130524.91,145128130524.91,0,0,1,.14.14l.07.07.08.07a.23.23,0,0,0,.07.07l.07.08a145128130592.83,145128130592.83,0,0,0,.14.14l.08.07.06.07.08.07.07.08a435384391710.63,435384391710.63,0,0,0,.21.21l.08.07.07.08.07.06.07.08a145128130524.85,145128130524.85,0,0,1,.14.14l.08.07a.23.23,0,0,0,.07.07l.07.08.07.07.07.07.08.07a.46.46,0,0,0,.07.07l.07.07.07.08a.46.46,0,0,1,.07.07l.07.07.08.07.07.07a.23.23,0,0,0,.07.07l.07.08.07.07a.46.46,0,0,1,.07.07l.07.07.08.07a.23.23,0,0,0,.07.07l.07.08a.46.46,0,0,1,.07.07l.07.07a.46.46,0,0,1,.07.07l.08.07.07.08a.46.46,0,0,1,.07.07l.07.07a.46.46,0,0,1,.07.07l.08.07a.23.23,0,0,0,.07.07l.07.08a.46.46,0,0,1,.07.07l.07.07.07.07.08.07a.23.23,0,0,0,.07.07l.07.08a.46.46,0,0,1,.07.07l.07.07a.46.46,0,0,1,.07.07l.08.07.07.07.07.08a.46.46,0,0,1,.07.07l.07.07.08.07.07.07.07.08a.46.46,0,0,1,.07.07l.07.07.07.07.08.07a.23.23,0,0,0,.07.07l.07.08.07.07a.46.46,0,0,1,.07.07l.07.07.08.07a108846097915.36,108846097915.36,0,0,1,.14.14l.07.08.07.07a.46.46,0,0,1,.07.07l.08.07a.23.23,0,0,0,.07.07l.07.08.07.07.07.07a.46.46,0,0,1,.07.07l.08.07.07.08.07.06.07.08.07.07a.46.46,0,0,1,.07.07l.08.07a.23.23,0,0,0,.07.07l.07.08a.46.46,0,0,1,.07.07l0,0A18.91,18.91,0,0,0,593.92,76.14Z"/><polyline class="t" points="580.4 67.81 568.35 75.05 580.4 82.28"/><path class="u" d="M580.4,64.14a3.68,3.68,0,1,1-3.68,3.67A3.67,3.67,0,0,1,580.4,64.14Z"/><path class="u" d="M568.35,71.37a3.68,3.68,0,1,1-3.68,3.68A3.68,3.68,0,0,1,568.35,71.37Z"/><path class="u" d="M580.4,78.61a3.68,3.68,0,1,1-3.68,3.68A3.68,3.68,0,0,1,580.4,78.61Z"/><path class="d" d="M625,94a19,19,0,1,0-19-19,19,19,0,0,0,19,19"/><path class="e" d="M643.91,76.22h-.06v-.08h-.07v-.07h-.08V76h-.08v-.08h-.08v-.08h-.08v-.08h-.07v-.07h-.08V75.6h-.08v-.08h-.08v-.08h-.08v-.08H643v-.07h-.08v-.08h-.08v-.08h-.08v-.08h-.07V75h-.08V74.9h-.08v-.08h-.08v-.08h-.08v-.08h-.07v-.08h-.08v-.07h-.08v-.08h-.08v-.08H642v-.08h-.08V74.2h-.07v-.08h-.08V74h-.08V74h-.08v-.08h-.07v-.07h-.08v-.08h-.08v-.08h-.08v-.08h-.08v-.08h-.08v-.07h-.07v-.08H641v-.08h-.08v-.08h-.08V73.1h-.08V73h-.07V73h-.08v-.08h-.08v-.08h-.08v-.08h-.07v-.07h-.08v-.08h-.08v-.08h-.08V72.4H640v-.08H640v-.08h-.08v-.07h-.08v-.08h-.08V72h-.08v-.08h-.08v-.07h-.07v-.08h-.08V71.7h-.08v-.08h-.08v-.08h-.07v-.07h-.08v-.08H639v-.08h-.08v-.08h-.08v-.08h-.07v-.07h-.08V71h-.08v-.08h-.08v-.08h-.08v-.08h-.07v-.08h-.08v-.07h-.08v-.08h-.08v-.08h-.08v-.08H638V70.3h-.07v-.08h-.08v-.08h-.08v-.08h-.08V70h-.07v-.07h-.08v-.08h-.08v-.08h-.08v-.08h-.08v-.08h-.07v-.08h-.08v-.07h-.08v-.08H637v-.08h-.08V69.2h-.08v-.07h-.07v-.08h-.08V69h-.08v-.08h-.08v-.08h-.07v-.07h-.08v-.08h-.08v-.08h-.08V68.5h-.08v-.08h-.07v-.07H636v-.08h-.08v-.08h-.08v-.08h-.08V68h-.07V68h-.08v-.08h-.08V67.8h-.08v-.08h-.08v-.08h-.07v-.07h-.08v-.08h-.08v-.08H614.88v2.53H615V70H615v.07h.07v.08h.08v.08h.08v.08h.08v.08h.07v.08h.08v.07h.08v.08h.08v.08h.08v.08h.07v.07h.08V71H616V71h.08v.08h.08v.08h.07v.07h.08v.08h.08v.08h.08v.08h.08v.07h.07v.08h.08v.08h.08v.08h.08v.08h.07V72H617V72h.08v.08h.08v.08h.08v.08h.07v.08h.08v.08h.08v.07h.08v.08h.07v.08h.08v.08h.08v.07h.08v.08h.08V73H618v.08h.08v.08h.08v.07h.08v.08h.08v.08h.07v.08h.08v.08h.08v.07h.08v.08h.07v0h-3.82v2.53H615v.08H615v.08h.08v.08h.07v.07h.08v.08h.08v.08h.08v.08h.08v.07h.07V77h.08V77h.08v.08h.08v.08h.08v.08H616v.08H616v.08h.08v.07h.08v.08h.08v.08h.07v.08h.08v.07h.08v.08h.08V78h.08v.08h.07v.08h.08v.07h.08v.08H617v.08h.07v.08h.08v.07h.08v.08h.08v.08h.07v.08h.08v.08h.08v.08h.08V79h.08v.08h.07v.08h.08v.08h.08v.07H618v.08h.08v.08h.07v.08h.08v.08h.08v.07h.08v.08h.08v.08h.07v.08h.08V80h.08v.06h-3.82v2.52h.07v.08H615v.08h.08v.08h.08v.08h.08V83h.07v.08h.08v.08h.08v.07h.08v.08h.08v.08h.07v.08h.08v.08h.08v.07H616v.08H616v.08h.07v.08h.08v.07h.08V84h.08v.08h.07v.08h.08v.08h.08v.07h.08v.08h.08v.08h.07v.08h.08v.08H617v.07h.08v.08h.08v.08h.07v.08h.08V85h.08v.08h.08v.08h.07v.08h.08v.08h.08v.07h.08v.08h.08v.08h.07v.08H618v.08h.08v.07h.08v.08h.08v.08h.07V86h.08v.07h.08v.08h.08v.08h.08v.08h.07v.08h.08v.07h.08v.08h.08v.08H619v.08h.07v.07h.08v.08h.08V87h.08V87h.07v.08h.08v.07h.08v.08h.08v.08h.08v.08h.07v.08h.08v.07h.08v.08H620v.08h.08v.08h.07v.08h.08V88h.08V88h.07v.08h.08v.08h.08v.07h.08v.08h.08v.08h.08v.08h.07v.07h.08v.08H621v.08h.08v.08h.07v.08h.08V89h.08v.08h.08v.08h.08v.08h.07v.08h.08v.08h.08v.07h.08v.08h.08v.08H622v.08H622v.07h.08v.08h.08v.08h.07V90h.11v.07h.07v.08h.08v.08h.08v.08h.08v.08h.07v.08h.08v.07h.08v.08H623v.08h.08v.08h.08v.07h.07v.08h.08V91h.08v.08h.08v.08h.07v.07h.08v.08h.08v.08h.08v.08h.08v.07h.07v.08H624v.08h.08v.08h.08v.08h.08v.07h.07V92h.08v.08h.08v.08h.08v.08h.08v.07h.07v.08h.08v.08h.08v.08h.08v.07H625v.08h.08v.08h.08v.08h.08V93h.08V93h.07v.08h.08v.08h.08v.08h.08v.08h.07v.07h.08v.08h.08v.08H626v.08H626v.07h.08v.08h.07v.08h.08A18.9,18.9,0,0,0,643.91,76.22Z"/><path class="d" d="M494,75a19,19,0,1,0-19,19,19,19,0,0,0,19-19"/><path class="e" d="M493.31,80.58h0l-.05,0s0,0-.05-.05l0,0s0,0-.05,0l0,0L493,80.3l0,0,0-.05-.05,0,0,0-.05,0,0,0-.05,0,0,0-.05,0a.12.12,0,0,0-.05-.05l0,0s0,0,0,0l0,0-.05,0,0,0-.05-.05-.05,0,0,0a.1.1,0,0,0,0,0l0,0,0,0-.05-.06,0,0a.1.1,0,0,1,0,0l-.05,0,0,0-.05,0-.05,0s0,0,0,0,0,0,0,0,0,0,0,0l-.05,0s0,0-.05,0,0,0,0,0l0,0s0,0-.05,0l-.05,0,0,0a.1.1,0,0,1-.05,0l0,0,0,0,0-.06-.05,0,0,0,0,0-.05,0s0,0-.05,0,0,0,0,0l0,0-.05-.06a.1.1,0,0,1-.05,0l0,0,0,0-.05-.06-.05,0s0,0,0-.05l0,0-.05,0a.29.29,0,0,1-.09-.09l-.05,0,0,0s0,0,0,0l-.05-.06-.05,0,0,0,0,0,0,0-.05,0,0-.05,0,0-.05,0s0,0,0,0,0,0-.05,0l0,0-.05,0s0,0,0,0l0-.06-.05,0,0,0,0,0,0,0-.05,0,0-.05-.05,0,0,0s0,0-.05-.05l-.05,0,0,0-.05-.06-.05,0,0,0,0,0-.05-.06-.05,0,0,0,0,0-.05,0a.08.08,0,0,0,0,0s0,0-.05,0l0,0s0,0-.05-.05l0,0-.05-.06,0,0,0,0,0,0s0,0,0,0l-.05,0,0,0-.05,0s0,0,0,0l0,0-.05-.06,0,0s0,0,0-.05,0,0,0,0l-.05,0-.05,0,0,0s0,0,0,0l-.05,0,0,0s0,0,0,0l-.05,0,0,0s0,0,0-.05,0,0-.05,0l0,0-.05-.06,0,0,0,0-.05,0,0,0s0,0,0,0l-.05,0s0,0-.05,0l0,0,0,0-.05-.06,0,0s0,0,0,0,0,0,0,0l-.05-.05,0,0-.05,0s0,0,0,0l-.05,0,0,0,0,0s0,0-.05,0a.1.1,0,0,1,0,0l0,0-.05-.06s0,0,0,0l-.05,0s0,0,0,0l-.05-.05a.29.29,0,0,1-.09-.09s0,0,0,0l-.05,0-.05,0s0,0,0,0l0,0-.05-.06-.05,0s0,0,0,0a.1.1,0,0,0-.05,0l0,0,0,0s0,0-.05,0l-.05,0a.1.1,0,0,0,0,0l0,0-.05,0s0,0-.05,0l0,0,0,0-.05-.06s0,0,0,0l-.05,0s0,0,0,0l-.05-.05s0,0,0,0l-.05,0,0-.05,0,0-.05,0a.1.1,0,0,0,0,0l-.05,0,0,0-.05,0,0,0-.05,0,0,0-.05,0s0,0,0-.05l0,0-.05,0a.08.08,0,0,0,0,0l-.05,0,0,0-.05-.05,0,0s0,0-.05,0l-.05,0,0,0,0,0,0,0-.05,0,0-.05s0,0-.05,0l-.05,0a.08.08,0,0,0,0,0l0,0,0,0-.05-.05,0,0,0,0a.08.08,0,0,1,0,0l-.05,0-.05,0,0,0-.05,0,0-.05s0,0,0,0l-.05,0s0,0,0,0l-.05-.06,0,0s0,0-.05,0,0,0,0,0l-.05,0,0,0a.1.1,0,0,0,0,0l-.05,0a.1.1,0,0,0,0,0l0,0-.05-.06-.05,0,0,0-.05,0-.05-.05,0,0,0,0,0,0s0,0-.05,0,0,0-.05,0l0,0s0,0-.05,0l0,0,0,0,0,0a.08.08,0,0,1,0,0l-.05,0,0,0,0-.05-.05,0-.05,0s0,0,0,0l-.05,0,0,0s0,0,0-.05l0,0-.05-.06-.05,0,0,0-.05,0,0,0-.05,0,0-.05-.05,0,0,0,0,0,0,0s0,0-.05,0l-.05-.05,0,0-.05-.06s0,0,0,0l-.05,0,0,0a.1.1,0,0,0,0,0l0,0s0,0,0-.05l-.05,0,0,0-.05,0,0-.06a.1.1,0,0,1-.05,0l0,0a.1.1,0,0,1-.05,0l0,0s0,0,0,0l-.05,0s0,0,0,0l-.05,0s0,0,0,0l-.05-.06-.05,0,0,0-.05,0,0-.05,0,0-.05-.06-.05,0-.05,0,0,0,0,0-.05,0s0,0-.05,0l0,0-.05,0s0,0,0,0l0-.06-.05,0,0-.05-.05,0a.21.21,0,0,0,0-.06l-.05,0,0,0-.05,0,0,0-.05,0s0,0-.05-.05,0,0,0,0l-.05,0,0-.05-.05,0,0,0,0-.05a8.92,8.92,0,0,0-12.61,12.61.1.1,0,0,1,.05,0l.05,0,.05,0,0,0,.05,0,0,0,0,0s0,0,0,0,0,0,.05.05l0,0,0,0,0,0,.06,0a.08.08,0,0,0,0,0l0,0,0,0,0,0s0,0,0,0,0,0,.05,0l0,0,.05,0,0,0,.05,0,0,0,.06,0a.08.08,0,0,0,0,0l0,0,0,.06.06,0,0,0,.05,0,0,0,0,0,0,.05s0,0,.05,0l0,0s0,0,0,.05,0,0,0,0,0,0,.05,0l.05,0,0,0,0,0,.05,0,0,0s0,0,0,0l.05,0s0,0,.05,0a.08.08,0,0,1,0,0l.05,0,0,0,.05.05s0,0,0,0l.06,0,0,0s0,0,.05,0l0,0,.05,0,0,0a.1.1,0,0,1,.05,0l0,0a.1.1,0,0,1,.05,0l.05.05.05,0,0,0a.1.1,0,0,0,.05,0l0,0,0,0,0,0s0,0,.05,0l0,0,0,0,.05,0s0,0,.05.05,0,0,0,0l0,0,0,.05.05,0,0,0,.05,0,0,0,.05,0,0,0,.05,0,0,0s0,0,.05,0l0,0,.05.05,0,0,.05,0a.29.29,0,0,0,.09.09l.05,0,.05,0,0,0,.05,0,0,0,.05,0,0,.05.05,0,0,0,0,0,.05,0s0,0,.05,0,0,0,0,0l0,0,.05,0s0,0,.05,0l0,0,0,0,0,0,.05,0,0,0,.05,0,0,0,.06,0,0,0s0,0,.05,0l.05,0s0,0,0,0,0,0,0,.05l.05,0,0,0,.05,0a.08.08,0,0,1,0,0l.05,0,0,0,0,0,0,0,.05,0s0,0,.05,0l0,0,.05,0s0,0,.05,0,0,0,0,0l0,.05,0,0,.05,0,0,0,.05,0,0,0a.1.1,0,0,1,.05,0l0,0,0,0,.05,0s0,0,.05,0l0,0a.1.1,0,0,0,.05,0l0,0s0,0,.05.05l0,0,.06,0,0,0,0,0,0,0,.06.05,0,0,0,0,.05,0s0,0,0,0l.05.06,0,0,0,0,.05,0,0,0,.05,0,0,.05.05,0,0,0,.05,0,.05,0s0,0,.05,0l0,0,.05,0,0,0s0,0,.05,0l0,0,.05,0,0,0,.05,0,0,.05.05,0,.05,0s0,0,.05,0l0,0s0,0,0,0,0,0,.05,0l0,0s0,0,0,0l0,0,.05.06.06,0,0,0,.05,0,0,0,.06.05,0,0a.1.1,0,0,1,.05,0l0,0,.06,0,0,0,.05,0,0,0,.05,0,0,0,.05,0,0,.05,0,0,0,0,.06.05s0,0,0,0,0,0,.05,0,0,0,0,0l0,0,0,0,.05,0,0,0,0,.05a.29.29,0,0,0,.09.09l.05.05,0,0,.05,0,.05.05s0,0,0,0a.1.1,0,0,0,.05,0l0,0,.05,0,0,0,.05,0,0,0a.1.1,0,0,1,.05,0l0,0a.1.1,0,0,1,.05,0l.05.05.05,0s0,0,0,0l0,0s0,0,.05,0l.05,0a.1.1,0,0,0,0,0l.06,0,0,0,0,0a.29.29,0,0,0,.09.09l.05,0,0,0a.1.1,0,0,0,0,.05l.05,0a.1.1,0,0,0,0,0s0,0,0,.05,0,0,0,0l.05,0,0,0,.06,0,0,0a.1.1,0,0,1,.05,0s0,0,0,0l.05,0,0,0,.05,0,0,.05s0,0,.05,0l0,0,.05,0,0,0,.06,0,0,0,0,0a.29.29,0,0,0,.09.09l.05,0,0,0s0,0,0,0a.29.29,0,0,1,.09.09l0,.05s0,0,0,0,0,0,.05,0l.05,0,0,0,.05,0s0,0,.05,0l0,0,.05,0,0,0,.05,0,0,.05.05,0,0,0,.05,0,0,0,.05,0,.05,0,.05,0,0,0s0,0,0,0l.05.06.05,0,0,0,.05,0,0,.05.06,0,0,0,.05,0,0,0,.06,0,0,0s0,0,.05,0,0,0,0,0l0,0,0,0,.05.05,0,0,.05,0,0,.05.06,0s0,0,0,0l0,0,.05,0,.05,0s0,0,0,0a.29.29,0,0,1,.09.09s0,0,.05,0l0,0,.05,0,0,0,0,0a.08.08,0,0,1,0,0l.06,0s0,0,0,0l0,0,.05,0,.05,0s0,0,0,0,0,0,0,0l.05.06.05,0,0,0,.05,0,0,0,.06,0a.1.1,0,0,0,0,.05l0,0h0A19,19,0,0,0,493.31,80.58Z"/><path class="u" d="M487,83.9l-5.93-6.13c-.42-.44-1-.61-1.19-.39s-.76.05-1.19-.39l-.08-.09a8.88,8.88,0,1,0-1.53,1.58l0,0c.43.44.59,1,.36,1.2s-.08.76.35,1.2l5.93,6.13a1.12,1.12,0,0,0,1.57,0L487,85.47a1.11,1.11,0,0,0,0-1.57Zm-11.14-8a6.14,6.14,0,1,1,0-8.69,6.14,6.14,0,0,1,0,8.69Z"/><path class="u" d="M477.15,78.52c.43.44.59,1,.36,1.2s-.08.76.35,1.2l5.93,6.13a1.12,1.12,0,0,0,1.57,0L487,85.47a1.12,1.12,0,0,0,0-1.57h0l-5.94-6.13c-.42-.44-1-.61-1.19-.39s-.76.05-1.19-.39"/><path class="q" d="M478,77.71l-.84.81c.43.44.59,1,.36,1.2s-.08.76.35,1.2l5.93,6.13a1.12,1.12,0,0,0,1.57,0l.93-.9Z"/><path class="v" d="M613,63.38V84.62a.38.38,0,0,0,.38.38h21.24a.38.38,0,0,0,.38-.38V63.38a.38.38,0,0,0-.38-.38H613.38A.38.38,0,0,0,613,63.38Zm18.16,3.79-14,14a.2.2,0,0,1-.35-.14V67.27a.45.45,0,0,1,.45-.45H631A.21.21,0,0,1,631.16,67.17Z"/></svg>