<svg xmlns="http://www.w3.org/2000/svg" viewBox="0 0 650 150"><defs><style>.a{fill:#fff;}.b{opacity:0.2;}.b,.c{isolation:isolate;}.c{opacity:0.5;}</style></defs><title>icon-set-4</title><path d="M67.49,67.5v3h15v-3Zm0,9h15v-3h-15Zm0,6h15v-3h-15Z"/><path d="M125.38,17.08A.84.84,0,0,0,125,17a1,1,0,0,0-.71.29L120.49,21H118a1,1,0,0,0-1,1v6a1,1,0,0,0,1,1h2.52l3.78,3.71A1,1,0,0,0,125,33a1,1,0,0,0,1-1V18A1,1,0,0,0,125.38,17.08Zm2.82,4.6L126.88,23a2.59,2.59,0,0,1,.9,2,2.63,2.63,0,0,1-.9,2l1.34,1.33a4.91,4.91,0,0,0,0-6.66Zm2.54-2.54-1.41,1.41a6.73,6.73,0,0,1,0,8.9l1.41,1.41a8.7,8.7,0,0,0,0-11.72Z"/><path d="M175.89,17.08a.9.9,0,0,0-.38-.08,1,1,0,0,0-.71.29L171,21h-2.5a1,1,0,0,0-1,1v6a1,1,0,0,0,1,1H171l3.78,3.71a1,1,0,0,0,.71.29,1.08,1.08,0,0,0,.38-.08,1,1,0,0,0,.62-.92V18A1,1,0,0,0,175.89,17.08Z"/><path d="M35.88,72.7l-2.28-.14a8.84,8.84,0,0,0-.82-2l1.53-1.68a1.11,1.11,0,0,0,0-1.58l-1.66-1.66a1.11,1.11,0,0,0-1.58,0l-1.68,1.53a8.65,8.65,0,0,0-1.95-.82l-.14-2.28A1.12,1.12,0,0,0,26.17,63H23.83a1.12,1.12,0,0,0-1.13,1.12l-.14,2.28a8.65,8.65,0,0,0-1.95.82l-1.68-1.53a1.11,1.11,0,0,0-1.58,0l-1.66,1.66a1.11,1.11,0,0,0,0,1.58l1.53,1.68a8.84,8.84,0,0,0-.82,2l-2.28.14A1.12,1.12,0,0,0,13,73.83v2.35a1.12,1.12,0,0,0,1.12,1.12l2.28.14a8.84,8.84,0,0,0,.82,2l-1.53,1.67a1.12,1.12,0,0,0,0,1.59l1.66,1.66a1.11,1.11,0,0,0,1.58,0l1.68-1.53a8.65,8.65,0,0,0,1.95.82l.14,2.28A1.12,1.12,0,0,0,23.83,87h2.34a1.12,1.12,0,0,0,1.13-1.12l.14-2.28a8.65,8.65,0,0,0,1.95-.82l1.68,1.53a1.11,1.11,0,0,0,1.58,0l1.66-1.66a1.12,1.12,0,0,0,0-1.59l-1.53-1.67a8.84,8.84,0,0,0,.82-2l2.28-.14A1.12,1.12,0,0,0,37,76.17V73.82A1.12,1.12,0,0,0,35.88,72.7ZM25,80.36A5.36,5.36,0,1,1,30.36,75,5.36,5.36,0,0,1,25,80.36Zm0-8.68A3.32,3.32,0,1,0,28.32,75,3.32,3.32,0,0,0,25,71.68Z"/><path d="M75.76,25l-5.58,5.55a1.42,1.42,0,0,0,0,2l.51.51a1.44,1.44,0,0,0,2,0l6.56-6.54s0,0,0,0l.51-.5a1.41,1.41,0,0,0,.42-1,1.4,1.4,0,0,0-.42-1l-.51-.5s0,0,0,0l-6.56-6.54a1.44,1.44,0,0,0-2,0l-.51.51a1.42,1.42,0,0,0,0,2Z"/><path d="M24.24,25l5.58-5.55a1.42,1.42,0,0,0,0-2l-.51-.51a1.44,1.44,0,0,0-2,0l-6.56,6.54s0,0,0,0l-.51.5a1.46,1.46,0,0,0-.42,1,1.44,1.44,0,0,0,.42,1l.51.5s0,0,0,0l6.56,6.54a1.44,1.44,0,0,0,2,0l.51-.51a1.42,1.42,0,0,0,0-2Z"/><path d="M75.76,25l-5.58,5.55a1.42,1.42,0,0,0,0,2l.51.51a1.44,1.44,0,0,0,2,0l6.56-6.54,0,0,.5-.5a1.41,1.41,0,0,0,.42-1,1.4,1.4,0,0,0-.42-1l-.5-.5,0,0-6.56-6.54a1.44,1.44,0,0,0-2,0l-.51.51a1.42,1.42,0,0,0,0,2Z"/><path class="a" d="M125.58,125l-4.27,4.24a1.09,1.09,0,0,0,0,1.55l.39.39a1.11,1.11,0,0,0,1.55,0l5-5,0,0,.39-.38a1.11,1.11,0,0,0,0-1.56l-.39-.38,0,0-5-5a1.11,1.11,0,0,0-1.55,0l-.39.39a1.09,1.09,0,0,0,0,1.55Z"/><path class="a" d="M24.42,125l4.27-4.24a1.09,1.09,0,0,0,0-1.55l-.39-.39a1.11,1.11,0,0,0-1.55,0l-5,5,0,0-.39.38a1.11,1.11,0,0,0,0,1.56l.39.38,0,0,5,5a1.11,1.11,0,0,0,1.55,0l.39-.39a1.09,1.09,0,0,0,0-1.55Z"/><path class="a" d="M125,75.76l-5.55-5.58a1.42,1.42,0,0,0-2,0l-.51.51a1.44,1.44,0,0,0,0,2l6.54,6.56s0,0,0,0l.5.5a1.37,1.37,0,0,0,1,.42,1.36,1.36,0,0,0,1-.42l.5-.5s0,0,0,0l6.54-6.56a1.44,1.44,0,0,0,0-2l-.51-.51a1.42,1.42,0,0,0-2,0Z"/><path class="a" d="M425,71.71l9.67,9.69a1.09,1.09,0,0,0,1.55,0l.38-.39a1.09,1.09,0,0,0,0-1.55L426.18,69s0,0,0,0l-.39-.38a1.11,1.11,0,0,0-1.56,0l-.38.38,0,0L413.4,79.46a1.09,1.09,0,0,0,0,1.55l.39.39a1.08,1.08,0,0,0,1.54,0Z"/><path class="a" d="M375,78.29l-9.67-9.69a1.08,1.08,0,0,0-1.54,0l-.39.39a1.09,1.09,0,0,0,0,1.55L373.82,81l0,0,.38.38a1.11,1.11,0,0,0,1.56,0l.38-.38,0,0L386.6,70.54a1.09,1.09,0,0,0,0-1.55l-.38-.39a1.09,1.09,0,0,0-1.55,0Z"/><path class="a" d="M175,74.24l5.55,5.58a1.42,1.42,0,0,0,2,0l.51-.51a1.44,1.44,0,0,0,0-2l-6.54-6.56s0,0,0,0l-.51-.5a1.38,1.38,0,0,0-1-.42,1.4,1.4,0,0,0-1,.42l-.5.5,0,0-6.53,6.56a1.44,1.44,0,0,0,0,2l.5.51a1.44,1.44,0,0,0,2,0Z"/><path class="a" d="M275,78.74l5.55,5.58a1.42,1.42,0,0,0,2,0l.51-.51a1.44,1.44,0,0,0,0-2l-6.54-6.56s0,0,0,0l-.5-.5a1.41,1.41,0,0,0-1-.42,1.4,1.4,0,0,0-1,.42l-.5.5s0,0,0,0l-6.54,6.56a1.44,1.44,0,0,0,0,2l.51.51a1.42,1.42,0,0,0,2,0Z"/><path class="a" d="M275,69.74l5.55,5.58a1.42,1.42,0,0,0,2,0l.51-.51a1.44,1.44,0,0,0,0-2l-6.54-6.56s0,0,0,0l-.5-.5a1.46,1.46,0,0,0-1-.42,1.44,1.44,0,0,0-1,.42l-.5.5s0,0,0,0l-6.54,6.56a1.44,1.44,0,0,0,0,2l.51.51a1.42,1.42,0,0,0,2,0Z"/><path class="a" d="M225,71.26l-5.55-5.58a1.42,1.42,0,0,0-2,0l-.51.51a1.44,1.44,0,0,0,0,2l6.54,6.56s0,0,0,0l.5.5a1.37,1.37,0,0,0,1,.42,1.36,1.36,0,0,0,1-.42l.5-.5a.08.08,0,0,0,0,0l6.54-6.56a1.44,1.44,0,0,0,0-2l-.5-.51a1.44,1.44,0,0,0-2,0Z"/><path class="a" d="M225,80.26l-5.55-5.58a1.42,1.42,0,0,0-2,0l-.51.51a1.44,1.44,0,0,0,0,2l6.54,6.56s0,0,0,0l.5.5a1.41,1.41,0,0,0,1,.42,1.4,1.4,0,0,0,1-.42l.5-.5a.08.08,0,0,0,0,0l6.54-6.56a1.44,1.44,0,0,0,0-2l-.5-.51a1.44,1.44,0,0,0-2,0Z"/><path d="M216.13,22.4a2.6,2.6,0,1,1-2.61,2.6A2.6,2.6,0,0,1,216.13,22.4Z"/><circle cx="225.27" cy="25" r="2.6"/><path d="M233.87,22.4a2.6,2.6,0,1,1-2.6,2.6A2.6,2.6,0,0,1,233.87,22.4Z"/><path class="a" d="M327.48,25l2.69-2.69a1.46,1.46,0,0,0,0-2l-.43-.43a1.46,1.46,0,0,0-2.05,0L325,22.52l-2.69-2.69a1.46,1.46,0,0,0-2.05,0l-.42.43a1.44,1.44,0,0,0,0,2L322.52,25l-2.68,2.69a1.44,1.44,0,0,0,0,2l.42.43a1.46,1.46,0,0,0,2.05,0L325,27.48l2.69,2.69a1.46,1.46,0,0,0,2.05,0l.43-.43a1.46,1.46,0,0,0,0-2Z"/><path d="M225.43,125l-3.19,5.62a2.29,2.29,0,0,0,0,2l.29.52a.61.61,0,0,0,1.16,0l3.76-6.62,0,0,.29-.51a2.17,2.17,0,0,0,.24-1,2.15,2.15,0,0,0-.24-1l-.29-.51,0,0-3.76-6.62a.61.61,0,0,0-1.16,0l-.29.51a2.31,2.31,0,0,0,0,2Z"/><path class="b" d="M375.43,125l-3.19,5.62a2.29,2.29,0,0,0,0,2l.29.52a.61.61,0,0,0,1.16,0l3.76-6.62,0,0,.29-.51a2.17,2.17,0,0,0,.24-1,2.15,2.15,0,0,0-.24-1l-.29-.51,0,0-3.76-6.62a.61.61,0,0,0-1.16,0l-.29.51a2.31,2.31,0,0,0,0,2Z"/><path d="M275.43,125l-3.19,5.62a2.29,2.29,0,0,0,0,2l.29.52a.61.61,0,0,0,1.16,0l3.76-6.62,0,0,.29-.51a2.17,2.17,0,0,0,.24-1,2.15,2.15,0,0,0-.24-1l-.29-.51,0,0-3.76-6.62a.61.61,0,0,0-1.16,0l-.29.51a2.31,2.31,0,0,0,0,2Z"/><path class="c" d="M325.43,125l-3.19,5.62a2.29,2.29,0,0,0,0,2l.29.52a.61.61,0,0,0,1.16,0l3.76-6.62,0,0,.29-.51a2.17,2.17,0,0,0,.24-1,2.15,2.15,0,0,0-.24-1l-.29-.51s0,0,0,0l-3.76-6.62a.61.61,0,0,0-1.16,0l-.29.51a2.31,2.31,0,0,0,0,2Z"/><path class="a" d="M331.5,75.05a1.71,1.71,0,0,1-1.7,1.7h-9.6a1.71,1.71,0,0,1-1.7-1.7V75a1.71,1.71,0,0,1,1.7-1.7h9.6a1.71,1.71,0,0,1,1.7,1.7Z"/><path class="a" d="M279.94,27H277v2.92a2,2,0,1,1-4,0V27h-2.92a2,2,0,1,1,0-4H273V20.06a2,2,0,1,1,4,0V23h2.92a2,2,0,0,1,0,4Z"/><polygon class="a" points="424.68 129.5 416 121.97 416.44 120.51 424.69 127.68 433.59 120.5 434 121.98 424.68 129.5"/><polygon class="a" points="474.68 129.5 466 121.97 466.44 120.51 474.69 127.68 483.59 120.5 484 121.98 474.68 129.5"/><polygon class="a" points="575.32 120.5 584 128.03 583.56 129.49 575.31 122.32 566.41 129.5 566 128.02 575.32 120.5"/><polygon class="a" points="525.32 120.5 534 128.03 533.56 129.49 525.31 122.32 516.41 129.5 516 128.02 525.32 120.5"/><path d="M537.75,76.14a1.66,1.66,0,0,1-1.22.5,1.63,1.63,0,0,1-1.2-.49l-.39-.39V86.61a1.62,1.62,0,0,1-.48,1.16,1.57,1.57,0,0,1-1.18.49h-5V80.81a.84.84,0,0,0-.82-.83h-5a.79.79,0,0,0-.59.25.78.78,0,0,0-.24.58v7.45h-5a1.57,1.57,0,0,1-1.18-.49,1.62,1.62,0,0,1-.48-1.16V75.76l-.39.39a1.6,1.6,0,0,1-1.2.49,1.62,1.62,0,0,1-1.21-.5,1.71,1.71,0,0,1,0-2.42l11.49-11.49a1.89,1.89,0,0,1,2.54,0l11.49,11.49a1.73,1.73,0,0,1,0,2.42Z"/><path d="M580.07,78a3,3,0,0,0-1.85.63l-5.29-3.17a4.21,4.21,0,0,0,0-.5,4,4,0,0,0,0-.5l5.29-3.17A3,3,0,1,0,577,68.92a4,4,0,0,0,0,.49l-5.29,3.18a3,3,0,0,0-1.85-.63,3,3,0,1,0,0,6.08,3,3,0,0,0,1.85-.63l5.29,3.18a3.89,3.89,0,0,0,0,.49,3,3,0,1,0,3-3Z"/><path class="a" d="M75,124.42l4.24,4.27a1.09,1.09,0,0,0,1.55,0l.39-.39a1.11,1.11,0,0,0,0-1.55l-5-5,0,0-.38-.39a1.11,1.11,0,0,0-1.56,0l-.38.39,0,0-5,5a1.11,1.11,0,0,0,0,1.55l.39.39a1.09,1.09,0,0,0,1.55,0Z"/><path class="a" d="M175,125.58l-4.24-4.27a1.09,1.09,0,0,0-1.55,0l-.39.39a1.11,1.11,0,0,0,0,1.55l5,5s0,0,0,0l.38.39a1.11,1.11,0,0,0,1.56,0l.38-.39s0,0,0,0l5-5a1.11,1.11,0,0,0,0-1.55l-.39-.39a1.09,1.09,0,0,0-1.55,0Z"/><path class="a" d="M425,20.45l13.38,13.41a1.51,1.51,0,0,0,2.14,0l.54-.54a1.53,1.53,0,0,0,0-2.15L426.63,16.71s0,0,0,0l-.53-.54a1.52,1.52,0,0,0-2.16,0l-.53.54,0,0L408.94,31.17a1.53,1.53,0,0,0,0,2.15l.54.54a1.51,1.51,0,0,0,2.14,0Z"/><path class="a" d="M375,29.55,361.62,16.14a1.51,1.51,0,0,0-2.14,0l-.54.54a1.53,1.53,0,0,0,0,2.15l14.43,14.46,0,0,.53.54a1.52,1.52,0,0,0,2.16,0l.53-.54,0,0,14.42-14.46a1.53,1.53,0,0,0,0-2.15l-.54-.54a1.51,1.51,0,0,0-2.14,0Z"/><path class="a" d="M529.55,25,516.14,38.38a1.51,1.51,0,0,0,0,2.14l.54.53a1.51,1.51,0,0,0,2.15,0l14.46-14.42,0,0,.54-.53a1.52,1.52,0,0,0,0-2.16l-.54-.53,0,0L518.83,8.94a1.53,1.53,0,0,0-2.15,0l-.54.54a1.51,1.51,0,0,0,0,2.14Z"/><path class="a" d="M470.45,25l13.41-13.38a1.51,1.51,0,0,0,0-2.14l-.54-.54a1.53,1.53,0,0,0-2.15,0L466.71,23.37l0,0-.54.53a1.52,1.52,0,0,0,0,2.16l.54.53,0,0,14.46,14.42a1.53,1.53,0,0,0,2.15,0l.54-.54a1.51,1.51,0,0,0,0-2.14Z"/><path d="M579.52,18.33A1.31,1.31,0,0,0,578.21,17h-9A1.26,1.26,0,0,0,568,18.28V29.17a1.31,1.31,0,0,0,1.31,1.31h8.92a1.31,1.31,0,0,0,1.31-1.31V18.33Zm-1.3,9.85a1,1,0,0,1-1,1h-7a1,1,0,0,1-1-1v-8.9a1,1,0,0,1,1-1h7a1,1,0,0,1,1,1v8.9Z"/><path d="M580,19.52v1.3a.72.72,0,0,1,.72.72V31a.72.72,0,0,1-.72.72h-7.56a.69.69,0,0,1-.69-.68h-1.26v.64a1.31,1.31,0,0,0,1.3,1.31h8.89A1.31,1.31,0,0,0,582,31.67V20.83a1.31,1.31,0,0,0-1.31-1.31Z"/><path d="M570.93,21.23h5.76a.63.63,0,0,0,.64-.63.64.64,0,0,0-.64-.63h-5.76a.63.63,0,1,0,0,1.26Z"/><path d="M570.93,23.36h5.76a.64.64,0,1,0,0-1.27h-5.76a.64.64,0,1,0,0,1.27Z"/><path d="M570.93,25.48h5.76a.64.64,0,1,0,0-1.27h-5.76a.64.64,0,1,0,0,1.27Z"/><path d="M570.93,27.53h5.76a.63.63,0,1,0,0-1.26h-5.76a.63.63,0,1,0,0,1.26Z"/><path d="M624.56,15.81c.24-.5.64-.5.88,0l2.37,4.79a2.15,2.15,0,0,0,1.43,1l5.29.77c.55.08.67.46.28.84L631,27a2.15,2.15,0,0,0-.55,1.69l.9,5.27c.1.54-.22.78-.71.52L625.89,32a2.18,2.18,0,0,0-1.77,0l-4.74,2.49c-.48.26-.81,0-.71-.52l.9-5.27A2.15,2.15,0,0,0,619,27l-3.83-3.73c-.39-.38-.27-.76.28-.84l5.29-.77a2.12,2.12,0,0,0,1.43-1Z"/><path d="M477.85,68.46a6.64,6.64,0,1,0-.91,10.14,1.39,1.39,0,0,0,.38.7l3.76,3.76a1.4,1.4,0,0,0,2-2l-3.76-3.76a1.39,1.39,0,0,0-.7-.38,6.66,6.66,0,0,0-.75-8.48Zm-1.2,8.2a5,5,0,1,1,0-7,5,5,0,0,1,0,7Z"/><path d="M629.09,117.23a7.17,7.17,0,0,0-4.3-1.23,6,6,0,0,0-3.32.87,5.32,5.32,0,0,0-2.27,4.61h3.3a3.41,3.41,0,0,1,.56-1.83,2,2,0,0,1,1.88-.87,2.12,2.12,0,0,1,1.85.71,2.66,2.66,0,0,1,.51,1.58,2.36,2.36,0,0,1-.56,1.38,2.82,2.82,0,0,1-.66.68,15.19,15.19,0,0,0-2.58,2.07,4,4,0,0,0-.54,2.49c0,.08,0,.25.32.25h2.57a.28.28,0,0,0,.31-.27,3.43,3.43,0,0,1,.14-.88,2.75,2.75,0,0,1,1-1.19l.91-.63a10.07,10.07,0,0,0,1.77-1.58,4.51,4.51,0,0,0-.87-6.16Zm-4.35,12.69a2,2,0,0,0-2.12,2,2.07,2.07,0,1,0,2.12-2Z"/><path d="M616,66.31V83.69a.31.31,0,0,0,.31.31h17.38a.31.31,0,0,0,.31-.31V66.31a.31.31,0,0,0-.31-.31H616.31A.31.31,0,0,0,616,66.31Zm14.85,3.1L619.38,80.88a.16.16,0,0,1-.28-.11V69.49a.37.37,0,0,1,.36-.37h11.28A.17.17,0,0,1,630.85,69.41Z"/></svg>