<?xml version="1.0" encoding="utf-8"?>
<!-- Generator: Adobe Illustrator 15.0.0, SVG Export Plug-In  -->
<!DOCTYPE svg PUBLIC "-//W3C//DTD SVG 1.1//EN" "http://www.w3.org/Graphics/SVG/1.1/DTD/svg11.dtd" [
	<!ENTITY ns_flows "http://ns.adobe.com/Flows/1.0/">
]>
<svg version="1.1"
	 xmlns="http://www.w3.org/2000/svg" xmlns:xlink="http://www.w3.org/1999/xlink" xmlns:a="http://ns.adobe.com/AdobeSVGViewerExtensions/3.0/"
	 x="0px" y="0px" width="650px" height="150px" viewBox="49.675 49.673 650 150"
	 overflow="visible" enable-background="new 49.675 49.673 650 150" xml:space="preserve">
<defs>
</defs>
<path fill="#FFFFFF" d="M117.166,117.173v2.999h15.02v-2.999H117.166z M117.166,126.172h15.02v-2.999h-15.02V126.172z
	 M117.166,132.173h15.02v-3.001h-15.02V132.173z"/>
<path fill="#FFFFFF" d="M175.058,66.749c-0.124-0.051-0.254-0.076-0.383-0.076c-0.261,0-0.517,0.102-0.708,0.293l-3.798,3.707
	h-2.504c-0.554,0-1.001,0.447-1.001,1v6c0,0.553,0.447,1,1.001,1h2.521l3.78,3.707c0.191,0.191,0.447,0.293,0.708,0.293
	c0.129,0,0.259-0.025,0.383-0.076c0.374-0.154,0.618-0.52,0.618-0.924v-14C175.676,67.269,175.432,66.903,175.058,66.749z
	 M177.872,71.355l-1.32,1.318c0.54,0.451,0.904,1.168,0.904,2s-0.359,1.553-0.899,2.006l1.336,1.334
	c0.789-0.822,1.289-2.012,1.289-3.34C179.181,73.343,178.664,72.177,177.872,71.355z M180.416,68.814l-1.413,1.412
	c1.026,1.094,1.682,2.674,1.682,4.447s-0.654,3.354-1.681,4.449l1.412,1.41c1.39-1.457,2.271-3.534,2.271-5.859
	C182.685,72.347,181.804,70.271,180.416,68.814z"/>
<path fill="#FFFFFF" d="M224.564,66.749c-0.125-0.051-0.255-0.076-0.384-0.076c-0.261,0-0.517,0.102-0.708,0.293l-3.798,3.707
	h-2.503c-0.553,0-1.002,0.447-1.002,1v6c0,0.553,0.449,1,1.002,1h2.521l3.78,3.707c0.191,0.191,0.447,0.293,0.708,0.293
	c0.129,0,0.259-0.025,0.384-0.076c0.373-0.154,0.617-0.52,0.617-0.924v-14C225.181,67.269,224.938,66.903,224.564,66.749z"/>
<path fill="#FFFFFF" d="M74.675,121.354c-1.833,0-3.318,1.486-3.318,3.319s1.485,3.319,3.318,3.319s3.318-1.486,3.318-3.319
	S76.508,121.354,74.675,121.354z M85.552,122.375l-2.277-0.142c-0.195-0.689-0.471-1.344-0.817-1.951l1.532-1.675
	c0.438-0.439,0.438-1.149,0-1.589l-1.66-1.658c-0.439-0.439-1.148-0.439-1.588,0l-1.676,1.531c-0.606-0.348-1.261-0.623-1.95-0.816
	l-0.143-2.277c0-0.623-0.501-1.124-1.124-1.124h-2.348c-0.623,0-1.124,0.501-1.124,1.124l-0.144,2.277
	c-0.688,0.193-1.343,0.469-1.949,0.816l-1.676-1.531c-0.439-0.439-1.148-0.439-1.588,0l-1.66,1.658
	c-0.438,0.439-0.438,1.149,0,1.589l1.532,1.675c-0.347,0.607-0.622,1.262-0.817,1.951l-2.277,0.143c-0.623,0-1.123,0.5-1.123,1.123
	v2.35c0,0.623,0.5,1.123,1.123,1.123l2.277,0.141c0.195,0.689,0.471,1.344,0.817,1.951l-1.532,1.674c-0.438,0.439-0.438,1.15,0,1.59
	l1.66,1.658c0.439,0.439,1.148,0.439,1.588,0l1.676-1.531c0.606,0.347,1.261,0.623,1.949,0.816l0.144,2.277
	c0,0.623,0.501,1.124,1.124,1.124h2.348c0.623,0,1.124-0.501,1.124-1.124l0.143-2.277c0.689-0.193,1.344-0.47,1.95-0.816
	l1.676,1.531c0.439,0.439,1.148,0.439,1.588,0l1.66-1.658c0.438-0.439,0.438-1.15,0-1.59l-1.532-1.674
	c0.347-0.607,0.622-1.262,0.817-1.951l2.277-0.143c0.622,0,1.123-0.5,1.123-1.123v-2.35
	C86.675,122.875,86.174,122.375,85.552,122.375z M74.675,130.034c-2.962,0-5.361-2.399-5.361-5.361s2.399-5.362,5.361-5.362
	c2.961,0,5.361,2.4,5.361,5.362S77.636,130.034,74.675,130.034z"/>
<path fill="none" d="M125.432,74.671l-5.578,5.553c-0.561,0.559-0.561,1.463,0,2.021l0.508,0.505c0.561,0.559,1.47,0.559,2.031,0
	l6.564-6.535c0.012-0.009,0.024-0.012,0.034-0.021l0.508-0.506c0.282-0.28,0.421-0.649,0.419-1.017
	c0.002-0.366-0.137-0.734-0.419-1.016l-0.508-0.504c-0.01-0.011-0.024-0.014-0.034-0.023l-6.564-6.533
	c-0.562-0.559-1.471-0.559-2.031,0l-0.508,0.504c-0.561,0.559-0.561,1.463,0,2.021L125.432,74.671z"/>
<path fill="#FFFFFF" d="M73.919,74.673l5.578-5.551c0.562-0.56,0.562-1.464,0-2.021l-0.508-0.505c-0.561-0.559-1.47-0.559-2.03,0
	l-6.565,6.536c-0.012,0.008-0.024,0.011-0.034,0.02l-0.508,0.506c-0.281,0.281-0.421,0.649-0.419,1.016
	c-0.002,0.367,0.138,0.735,0.419,1.017l0.508,0.503c0.01,0.012,0.024,0.014,0.034,0.024l6.565,6.534c0.561,0.557,1.47,0.557,2.03,0
	l0.508-0.504c0.562-0.559,0.562-1.464,0-2.023L73.919,74.673z"/>
<path fill="#FFFFFF" d="M125.432,74.672l-5.578,5.552c-0.562,0.559-0.562,1.463,0,2.021l0.508,0.505c0.561,0.559,1.47,0.559,2.03,0
	l6.565-6.535c0.012-0.009,0.024-0.012,0.034-0.021l0.508-0.506c0.281-0.28,0.421-0.649,0.419-1.016
	c0.002-0.367-0.138-0.735-0.419-1.017l-0.508-0.503c-0.01-0.012-0.024-0.014-0.034-0.024l-6.565-6.533
	c-0.561-0.558-1.47-0.558-2.03,0l-0.508,0.504c-0.562,0.559-0.562,1.463,0,2.022L125.432,74.672z"/>
<path fill="#FFFFFF" d="M175.255,174.672l-4.265,4.245c-0.43,0.427-0.43,1.119,0,1.545l0.388,0.386c0.429,0.427,1.124,0.427,1.552,0
	l5.02-4.997c0.009-0.007,0.019-0.009,0.026-0.016l0.388-0.387c0.215-0.214,0.322-0.496,0.32-0.776
	c0.001-0.281-0.105-0.562-0.32-0.777l-0.388-0.384c-0.007-0.009-0.019-0.011-0.026-0.019l-5.02-4.995
	c-0.429-0.426-1.124-0.426-1.552,0l-0.388,0.385c-0.43,0.427-0.43,1.119,0,1.546L175.255,174.672z"/>
<path fill="#FFFFFF" d="M74.096,174.673l4.265-4.244c0.43-0.428,0.43-1.119,0-1.545l-0.388-0.387c-0.429-0.427-1.124-0.427-1.552,0
	l-5.02,4.997c-0.009,0.007-0.019,0.009-0.026,0.016l-0.388,0.387c-0.215,0.214-0.322,0.496-0.32,0.776
	c-0.001,0.281,0.105,0.562,0.32,0.777l0.388,0.385c0.007,0.009,0.019,0.011,0.026,0.019l5.02,4.995c0.429,0.427,1.124,0.427,1.552,0
	l0.388-0.385c0.43-0.428,0.43-1.119,0-1.547L74.096,174.673z"/>
<path fill="#FFFFFF" d="M174.675,125.43l-5.551-5.578c-0.56-0.562-1.464-0.562-2.021,0l-0.505,0.508c-0.559,0.561-0.559,1.47,0,2.03
	l6.536,6.565c0.008,0.012,0.011,0.024,0.02,0.034l0.506,0.508c0.281,0.281,0.649,0.421,1.016,0.419
	c0.367,0.002,0.735-0.138,1.017-0.419l0.503-0.508c0.012-0.01,0.014-0.024,0.024-0.034l6.534-6.565c0.557-0.561,0.557-1.47,0-2.03
	l-0.504-0.508c-0.559-0.562-1.464-0.562-2.023,0L174.675,125.43z"/>
<path fill="#FFFFFF" d="M474.676,121.386l9.666,9.688c0.43,0.43,1.123,0.431,1.549,0l0.387-0.39c0.428-0.429,0.428-1.125,0-1.555
	l-10.422-10.445c-0.006-0.008-0.008-0.018-0.016-0.026l-0.387-0.39c-0.215-0.214-0.498-0.322-0.779-0.319
	c-0.281-0.002-0.561,0.106-0.777,0.321l-0.385,0.388c-0.008,0.008-0.012,0.019-0.02,0.026l-10.42,10.445
	c-0.426,0.429-0.426,1.125,0,1.554l0.387,0.39c0.428,0.43,1.121,0.43,1.549,0L474.676,121.386z"/>
<path fill="#FFFFFF" d="M424.675,127.96l-9.666-9.688c-0.43-0.43-1.123-0.431-1.549,0l-0.387,0.39c-0.428,0.429-0.428,1.125,0,1.555
	l10.422,10.445c0.006,0.008,0.008,0.018,0.016,0.026l0.387,0.39c0.215,0.214,0.498,0.322,0.779,0.319
	c0.281,0.002,0.561-0.106,0.777-0.321l0.385-0.388c0.008-0.008,0.012-0.019,0.02-0.026l10.42-10.445
	c0.426-0.429,0.426-1.125,0-1.554l-0.387-0.39c-0.428-0.43-1.121-0.43-1.549,0L424.675,127.96z"/>
<path fill="#FFFFFF" d="M224.675,123.916l5.551,5.578c0.56,0.562,1.464,0.562,2.021,0l0.505-0.508c0.559-0.561,0.559-1.47,0-2.03
	l-6.536-6.565c-0.008-0.012-0.011-0.024-0.02-0.034l-0.506-0.508c-0.281-0.281-0.649-0.421-1.016-0.419
	c-0.367-0.002-0.735,0.138-1.017,0.419l-0.503,0.508c-0.012,0.01-0.014,0.024-0.024,0.034l-6.534,6.565
	c-0.557,0.561-0.557,1.47,0,2.03l0.504,0.508c0.559,0.562,1.464,0.562,2.023,0L224.675,123.916z"/>
<path fill="#FFFFFF" d="M324.676,128.416l5.551,5.578c0.561,0.562,1.465,0.562,2.021,0l0.505-0.508c0.559-0.561,0.559-1.47,0-2.03
	l-6.536-6.565c-0.008-0.012-0.012-0.024-0.02-0.034l-0.506-0.508c-0.281-0.281-0.649-0.421-1.017-0.419
	c-0.367-0.002-0.735,0.138-1.017,0.419l-0.504,0.508c-0.012,0.01-0.014,0.024-0.023,0.034l-6.534,6.565
	c-0.557,0.561-0.557,1.47,0,2.03l0.504,0.508c0.56,0.562,1.464,0.562,2.023,0L324.676,128.416z"/>
<path fill="#FFFFFF" d="M324.676,119.417l5.551,5.578c0.561,0.562,1.465,0.562,2.021,0l0.505-0.508c0.559-0.561,0.559-1.47,0-2.03
	l-6.536-6.565c-0.008-0.012-0.012-0.024-0.02-0.034l-0.506-0.508c-0.281-0.281-0.649-0.421-1.017-0.419
	c-0.367-0.002-0.735,0.138-1.017,0.419l-0.504,0.508c-0.012,0.01-0.014,0.024-0.023,0.034l-6.534,6.565
	c-0.557,0.561-0.557,1.47,0,2.03l0.504,0.508c0.56,0.562,1.464,0.562,2.023,0L324.676,119.417z"/>
<path fill="#FFFFFF" d="M274.675,120.93l-5.551-5.578c-0.561-0.562-1.465-0.562-2.021,0l-0.505,0.508c-0.56,0.561-0.56,1.47,0,2.03
	l6.536,6.565c0.008,0.012,0.011,0.024,0.02,0.034l0.506,0.508c0.281,0.281,0.649,0.421,1.017,0.419
	c0.367,0.002,0.734-0.138,1.017-0.419l0.503-0.508c0.013-0.01,0.015-0.024,0.024-0.034l6.534-6.565c0.557-0.561,0.557-1.47,0-2.03
	l-0.504-0.508c-0.56-0.562-1.465-0.562-2.023,0L274.675,120.93z"/>
<path fill="#FFFFFF" d="M274.675,129.929l-5.551-5.578c-0.561-0.562-1.465-0.562-2.021,0l-0.505,0.508c-0.56,0.561-0.56,1.47,0,2.03
	l6.536,6.565c0.008,0.012,0.011,0.024,0.02,0.034l0.506,0.508c0.281,0.281,0.649,0.421,1.017,0.419
	c0.367,0.002,0.734-0.138,1.017-0.419l0.503-0.508c0.013-0.01,0.015-0.024,0.024-0.034l6.534-6.565c0.557-0.561,0.557-1.47,0-2.03
	l-0.504-0.508c-0.56-0.562-1.465-0.562-2.023,0L274.675,129.929z"/>
<circle fill="#FFFFFF" cx="265.801" cy="74.673" r="2.604"/>
<circle fill="#FFFFFF" cx="274.942" cy="74.673" r="2.604"/>
<circle fill="#FFFFFF" cx="283.549" cy="74.673" r="2.604"/>
<path fill="#FFFFFF" d="M377.151,74.673l2.689-2.689c0.566-0.566,0.566-1.486,0-2.053l-0.423-0.424
	c-0.567-0.567-1.486-0.567-2.054,0l-2.688,2.688l-2.688-2.688c-0.567-0.567-1.486-0.567-2.054,0l-0.423,0.424
	c-0.566,0.566-0.566,1.486,0,2.053l2.689,2.689l-2.689,2.688c-0.566,0.567-0.566,1.486,0,2.054l0.423,0.423
	c0.567,0.567,1.486,0.567,2.054,0.001l2.688-2.689l2.688,2.689c0.566,0.566,1.485,0.566,2.054-0.001l0.423-0.423
	c0.566-0.567,0.566-1.486,0-2.054L377.151,74.673z"/>
<path fill="#FFFFFF" d="M275.107,174.671l-3.192,5.621c-0.322,0.565-0.322,1.48,0,2.044l0.292,0.512c0.32,0.566,0.84,0.566,1.16,0
	l3.758-6.615c0.006-0.009,0.014-0.012,0.02-0.021l0.291-0.513c0.161-0.283,0.24-0.657,0.239-1.028
	c0.001-0.371-0.078-0.744-0.239-1.029l-0.291-0.508c-0.006-0.013-0.014-0.014-0.02-0.025l-3.758-6.613
	c-0.32-0.564-0.84-0.564-1.16,0l-0.292,0.509c-0.322,0.566-0.322,1.481,0,2.048L275.107,174.671z"/>
<path opacity="0.2" enable-background="new    " d="M425.109,174.671l-3.191,5.621c-0.322,0.565-0.322,1.48,0,2.044l0.291,0.512
	c0.32,0.566,0.84,0.566,1.16,0l3.758-6.615c0.006-0.009,0.014-0.012,0.02-0.021l0.291-0.513c0.16-0.283,0.24-0.657,0.238-1.028
	c0.001-0.371-0.079-0.744-0.238-1.029l-0.291-0.508c-0.006-0.013-0.015-0.014-0.02-0.025l-3.758-6.613
	c-0.32-0.564-0.84-0.564-1.16,0l-0.291,0.509c-0.322,0.566-0.322,1.481,0,2.048L425.109,174.671z"/>
<path d="M325.109,174.671l-3.192,5.621c-0.322,0.565-0.322,1.48,0,2.044l0.291,0.512c0.32,0.566,0.84,0.566,1.16,0l3.758-6.615
	c0.006-0.009,0.014-0.012,0.019-0.021l0.291-0.513c0.161-0.283,0.241-0.657,0.239-1.028c0.001-0.371-0.079-0.744-0.239-1.029
	l-0.291-0.508c-0.005-0.013-0.014-0.014-0.019-0.025l-3.758-6.613c-0.32-0.564-0.84-0.564-1.16,0l-0.291,0.509
	c-0.322,0.566-0.322,1.481,0,2.048L325.109,174.671z"/>
<path opacity="0.5" enable-background="new    " d="M375.108,174.671l-3.19,5.621c-0.322,0.565-0.322,1.48,0,2.044l0.291,0.512
	c0.319,0.566,0.839,0.566,1.159,0l3.758-6.615c0.006-0.009,0.014-0.012,0.019-0.021l0.291-0.513
	c0.161-0.283,0.241-0.657,0.239-1.028c0.001-0.371-0.079-0.744-0.239-1.029l-0.291-0.508c-0.005-0.013-0.015-0.014-0.019-0.025
	l-3.758-6.613c-0.32-0.564-0.84-0.564-1.159,0l-0.291,0.509c-0.322,0.566-0.322,1.481,0,2.048L375.108,174.671z"/>
<path fill="#FFFFFF" d="M381.175,124.723c0,0.935-0.766,1.7-1.699,1.7h-9.601c-0.935,0-1.7-0.765-1.7-1.7v-0.1
	c0-0.935,0.766-1.7,1.7-1.7h9.601c0.934,0,1.699,0.765,1.699,1.7V124.723z"/>
<path fill="#FFFFFF" d="M329.619,76.688h-2.928v2.928c0,1.113-0.902,2.015-2.016,2.015s-2.016-0.902-2.016-2.015v-2.928h-2.928
	c-1.113,0-2.015-0.902-2.015-2.015s0.901-2.015,2.015-2.015h2.928V69.73c0-1.113,0.902-2.015,2.016-2.015s2.016,0.902,2.016,2.015
	v2.928h2.928c1.113,0,2.015,0.902,2.015,2.015S330.732,76.688,329.619,76.688z"/>
<polygon fill="#FFFFFF" points="474.355,179.173 465.675,171.639 466.111,170.183 474.369,177.353 483.265,170.173 483.675,171.65 
	"/>
<polygon points="524.355,179.173 515.675,171.639 516.111,170.183 524.369,177.353 533.263,170.173 533.675,171.65 "/>
<polygon fill="#FFFFFF" points="624.997,170.173 633.675,177.707 633.239,179.163 624.981,171.993 616.086,179.173 615.675,177.696 
	"/>
<polygon points="574.996,170.173 583.675,177.707 583.24,179.163 574.982,171.993 566.085,179.173 565.675,177.696 "/>
<path fill="#FFFFFF" d="M587.422,125.812c-0.336,0.337-0.742,0.504-1.217,0.504s-0.875-0.163-1.203-0.491l-0.389-0.388v10.842
	c0,0.449-0.16,0.836-0.479,1.165c-0.318,0.328-0.711,0.491-1.178,0.491h-4.969v-7.452c0-0.225-0.082-0.418-0.246-0.583
	c-0.164-0.164-0.357-0.246-0.582-0.246h-4.969c-0.223,0-0.418,0.082-0.582,0.246s-0.246,0.358-0.246,0.583v7.452h-4.969
	c-0.465,0-0.859-0.164-1.178-0.491c-0.318-0.328-0.479-0.716-0.479-1.165v-10.842l-0.389,0.388
	c-0.328,0.328-0.729,0.491-1.203,0.491s-0.879-0.167-1.215-0.504c-0.338-0.336-0.506-0.741-0.506-1.216
	c0-0.474,0.164-0.875,0.492-1.203l11.488-11.488c0.346-0.345,0.77-0.51,1.27-0.492c0.5-0.018,0.922,0.147,1.268,0.492l11.488,11.488
	c0.328,0.328,0.492,0.729,0.492,1.203C587.928,125.069,587.758,125.475,587.422,125.812z"/>
<path fill="#FFFFFF" d="M629.747,127.713c-0.697,0-1.338,0.236-1.85,0.631l-5.293-3.174c0.025-0.162,0.043-0.329,0.043-0.498
	c0-0.17-0.018-0.335-0.043-0.498l5.293-3.174c0.512,0.395,1.15,0.631,1.85,0.631c1.68,0,3.041-1.362,3.041-3.042
	s-1.361-3.042-3.041-3.042s-3.043,1.362-3.043,3.042c0,0.169,0.02,0.336,0.045,0.498l-5.291,3.175
	c-0.514-0.395-1.152-0.631-1.852-0.631c-1.68,0-3.043,1.361-3.043,3.042c0,1.679,1.363,3.042,3.043,3.042
	c0.697,0,1.338-0.236,1.852-0.63l5.291,3.174c-0.025,0.163-0.045,0.328-0.045,0.498c0,1.679,1.363,3.042,3.043,3.042
	s3.041-1.363,3.041-3.042C632.788,129.075,631.426,127.713,629.747,127.713z"/>
<path fill="#FFFFFF" d="M124.675,174.094l4.244,4.265c0.428,0.43,1.119,0.43,1.545,0l0.387-0.389c0.427-0.428,0.427-1.123,0-1.552
	l-4.997-5.021c-0.007-0.008-0.009-0.018-0.016-0.025l-0.387-0.388c-0.214-0.216-0.496-0.322-0.776-0.32
	c-0.281-0.001-0.562,0.104-0.777,0.32l-0.385,0.388c-0.009,0.007-0.011,0.018-0.019,0.025l-4.995,5.021
	c-0.427,0.429-0.427,1.124,0,1.552l0.385,0.389c0.428,0.43,1.119,0.43,1.547,0L124.675,174.094z"/>
<path fill="#FFFFFF" d="M224.675,175.252l-4.244-4.265c-0.428-0.43-1.119-0.43-1.545,0l-0.387,0.388
	c-0.427,0.429-0.427,1.124,0,1.552l4.997,5.021c0.007,0.008,0.009,0.018,0.016,0.025l0.387,0.388
	c0.214,0.215,0.496,0.322,0.776,0.32c0.281,0.001,0.562-0.105,0.777-0.32l0.385-0.388c0.009-0.007,0.011-0.019,0.019-0.025
	l4.995-5.021c0.427-0.429,0.427-1.124,0-1.552l-0.385-0.388c-0.428-0.43-1.119-0.43-1.547,0L224.675,175.252z"/>
<path fill="#FFFFFF" d="M474.676,70.123l13.377,13.408c0.593,0.595,1.553,0.596,2.144,0l0.534-0.54c0.593-0.594,0.592-1.557,0-2.151
	l-14.422-14.455c-0.008-0.011-0.012-0.025-0.021-0.036l-0.535-0.539c-0.298-0.297-0.688-0.446-1.078-0.442
	c-0.389-0.004-0.778,0.146-1.076,0.444l-0.533,0.537c-0.012,0.011-0.016,0.026-0.026,0.036l-14.421,14.456
	c-0.59,0.594-0.59,1.557,0,2.151l0.535,0.54c0.591,0.595,1.55,0.595,2.145,0L474.676,70.123z"/>
<path fill="#FFFFFF" d="M424.675,79.223l-13.379-13.408c-0.592-0.595-1.552-0.596-2.143,0l-0.534,0.54
	c-0.593,0.594-0.592,1.557,0,2.151l14.423,14.455c0.006,0.011,0.01,0.025,0.021,0.036l0.534,0.539
	c0.299,0.297,0.688,0.446,1.078,0.442c0.39,0.004,0.779-0.146,1.078-0.444l0.532-0.537c0.011-0.011,0.015-0.026,0.026-0.036
	l14.421-14.456c0.59-0.594,0.59-1.557,0-2.151l-0.535-0.54c-0.591-0.595-1.55-0.595-2.144,0L424.675,79.223z"/>
<path fill="#FFFFFF" d="M579.225,74.673l-13.408,13.378c-0.596,0.592-0.596,1.552,0,2.143l0.54,0.534
	c0.594,0.594,1.557,0.592,2.151,0l14.455-14.422c0.01-0.007,0.024-0.011,0.035-0.021l0.539-0.535
	c0.297-0.298,0.446-0.688,0.442-1.078c0.004-0.389-0.146-0.779-0.444-1.077l-0.537-0.533c-0.011-0.011-0.025-0.015-0.035-0.026
	l-14.457-14.421c-0.594-0.59-1.557-0.59-2.15,0l-0.54,0.535c-0.595,0.591-0.595,1.55,0,2.144L579.225,74.673z"/>
<path fill="#FFFFFF" d="M520.125,74.672l13.407-13.378c0.595-0.592,0.597-1.552,0-2.143l-0.54-0.534
	c-0.594-0.593-1.557-0.592-2.15,0L516.387,73.04c-0.012,0.007-0.025,0.011-0.036,0.021l-0.539,0.535
	c-0.298,0.298-0.446,0.688-0.442,1.078c-0.004,0.389,0.146,0.779,0.444,1.077l0.537,0.533c0.011,0.011,0.026,0.015,0.036,0.026
	l14.455,14.421c0.595,0.59,1.558,0.59,2.151,0l0.54-0.536c0.596-0.591,0.596-1.55,0-2.144L520.125,74.672z"/>
<path fill="#FFFFFF" d="M629.196,68.003c0-0.722-0.584-1.307-1.306-1.307h-8.979c-0.691,0-1.254,0.562-1.254,1.254v10.895
	c0,0.722,0.586,1.306,1.308,1.306h8.925c0.723,0,1.307-0.584,1.307-1.306V68.003L629.196,68.003z M627.894,77.857
	c0,0.548-0.444,0.993-0.991,0.993h-6.951c-0.549,0-0.992-0.445-0.992-0.993v-8.901c0-0.549,0.443-0.993,0.992-0.993h6.951
	c0.547,0,0.991,0.444,0.991,0.993V77.857L627.894,77.857z"/>
<path fill="#FFFFFF" d="M629.709,69.196v1.301c0.396,0,0.718,0.322,0.718,0.718v9.45c0,0.396-0.321,0.718-0.718,0.718h-7.566
	c-0.378,0-0.685-0.306-0.685-0.685h-1.269v0.645c0,0.722,0.586,1.307,1.307,1.307h8.891c0.721,0,1.307-0.585,1.307-1.307V70.502
	c0-0.722-0.586-1.306-1.307-1.306H629.709z"/>
<path fill="#FFFFFF" d="M620.602,70.907h5.764c0.354,0,0.642-0.279,0.642-0.633s-0.287-0.634-0.642-0.634h-5.764
	c-0.354,0-0.64,0.28-0.64,0.634S620.249,70.907,620.602,70.907z"/>
<path fill="#FFFFFF" d="M620.602,73.029h5.764c0.354,0,0.642-0.28,0.642-0.633c0-0.354-0.287-0.634-0.642-0.634h-5.764
	c-0.354,0-0.64,0.279-0.64,0.634C619.962,72.749,620.249,73.029,620.602,73.029z"/>
<path fill="#FFFFFF" d="M620.602,75.152h5.764c0.354,0,0.642-0.28,0.642-0.633c0-0.354-0.287-0.633-0.642-0.633h-5.764
	c-0.354,0-0.64,0.279-0.64,0.633C619.962,74.872,620.249,75.152,620.602,75.152z"/>
<path fill="#FFFFFF" d="M620.602,77.206h5.764c0.354,0,0.642-0.279,0.642-0.633c0-0.353-0.287-0.634-0.642-0.634h-5.764
	c-0.354,0-0.64,0.281-0.64,0.634C619.962,76.927,620.249,77.206,620.602,77.206z"/>
<path fill="#FFFFFF" d="M674.234,65.479c0.242-0.493,0.642-0.493,0.885,0l2.367,4.795c0.242,0.493,0.888,0.961,1.432,1.041
	l5.291,0.769c0.544,0.079,0.667,0.458,0.273,0.842l-3.83,3.733c-0.394,0.384-0.64,1.141-0.547,1.684l0.904,5.27
	c0.093,0.542-0.229,0.776-0.716,0.521l-4.731-2.488c-0.488-0.256-1.285-0.256-1.771,0l-4.732,2.488
	c-0.486,0.256-0.809,0.022-0.716-0.521l0.903-5.27c0.093-0.542-0.153-1.3-0.547-1.684l-3.83-3.732
	c-0.394-0.384-0.271-0.763,0.274-0.842l5.291-0.769c0.544-0.079,1.189-0.547,1.433-1.041L674.234,65.479z"/>
<path fill="#FFFFFF" d="M680.531,123.138h2.645v-6.485c0-0.404-0.332-0.735-0.734-0.735h-15.529c-0.404,0-0.735,0.331-0.735,0.735
	v6.485h2.646c2.776,0,5.115,1.855,5.854,4.392C675.416,124.994,677.755,123.138,680.531,123.138z"/>
<path fill="#FFFFFF" d="M678.921,125.965c-1.727,0-3.258,0.814-4.246,2.075c-0.986-1.261-2.52-2.075-4.244-2.075h-4.256v6.728
	c0,0.404,0.331,0.735,0.734,0.735h15.529c0.404,0,0.735-0.331,0.735-0.735v-6.728H678.921z"/>
<path fill="#FFFFFF" d="M527.522,118.137c-2.587-2.586-6.796-2.586-9.384,0c-2.584,2.587-2.584,6.794,0,9.382
	c2.306,2.301,5.891,2.547,8.475,0.75c0.057,0.258,0.182,0.504,0.381,0.703l3.764,3.766c0.549,0.549,1.438,0.549,1.98,0
	c0.551-0.547,0.551-1.434,0-1.981l-3.764-3.767c-0.2-0.199-0.446-0.322-0.703-0.377C530.07,124.024,529.824,120.438,527.522,118.137
	L527.522,118.137z M526.331,126.33c-1.93,1.93-5.073,1.93-7.002,0c-1.929-1.933-1.929-5.072,0-7.005c1.931-1.93,5.072-1.93,7.002,0
	C528.261,121.258,528.261,124.397,526.331,126.33L526.331,126.33z"/>
<path fill="#FFFFFF" d="M678.763,166.908c-1.14-0.823-2.572-1.234-4.295-1.234c-1.312,0-2.418,0.29-3.318,0.868
	c-1.426,0.905-2.185,2.444-2.275,4.614h3.306c0-0.633,0.185-1.241,0.554-1.828c0.369-0.586,0.994-0.879,1.877-0.879
	c0.897,0,1.517,0.238,1.854,0.713c0.339,0.478,0.508,1.005,0.508,1.582c0,0.504-0.252,0.964-0.556,1.383
	c-0.167,0.244-0.389,0.468-0.661,0.674c0,0-1.793,1.15-2.58,2.074c-0.457,0.535-0.498,1.338-0.538,2.49
	c-0.003,0.082,0.028,0.25,0.314,0.25c0.287,0,2.316,0,2.572,0c0.254,0,0.308-0.189,0.312-0.271c0.019-0.419,0.065-0.633,0.142-0.875
	c0.146-0.457,0.538-0.855,0.979-1.199l0.909-0.628c0.822-0.64,1.478-1.165,1.767-1.577c0.495-0.677,0.843-1.511,0.843-2.5
	C680.473,168.947,679.904,167.73,678.763,166.908z M674.415,179.596c-1.14-0.034-2.08,0.754-2.116,1.99
	c-0.036,1.235,0.859,2.052,1.998,2.085c1.189,0.035,2.105-0.729,2.141-1.963C676.472,180.473,675.605,179.631,674.415,179.596z"/>
</svg>
