<?xml version="1.0" encoding="utf-8"?>
<!-- Generator: Adobe Illustrator 16.0.4, SVG Export Plug-In . SVG Version: 6.00 Build 0)  -->
<!DOCTYPE svg PUBLIC "-//W3C//DTD SVG 1.1//EN" "http://www.w3.org/Graphics/SVG/1.1/DTD/svg11.dtd">
<svg version="1.1" xmlns="http://www.w3.org/2000/svg" xmlns:xlink="http://www.w3.org/1999/xlink" x="0px" y="0px" width="650px"
	 height="50px" viewBox="0 0 650 50" enable-background="new 0 0 650 50" xml:space="preserve">
<g id="red-bg" display="none">
	<rect x="-1415.187" y="-107.673" display="inline" opacity="0.27" fill="#FF0000" width="2149.996" height="449.673"/>
</g>
<g id="layer-set-12">
</g>
<g id="layer-set-11">
</g>
<g id="layer-set-10">
</g>
<g id="layer-set-9">
</g>
<g id="layer-set-8">
</g>
<g id="layer-set-7">
</g>
<g id="layer-set-6">
	<g>
		<rect x="63.014" y="13.014" fill="#1BB2E7" width="23.973" height="23.973"/>
		<g>
			<g>
				<defs>
					<rect id="SVGID_5_" x="64.857" y="13.014" width="23.973" height="23.973"/>
				</defs>
				<clipPath id="SVGID_1_">
					<use xlink:href="#SVGID_5_"  overflow="visible"/>
				</clipPath>
				<path clip-path="url(#SVGID_1_)" fill="#FFFFFF" d="M82.865,21.865c-0.443,0.196-0.918,0.329-1.418,0.388
					c0.508-0.305,0.902-0.79,1.086-1.367c-0.479,0.283-1.006,0.489-1.57,0.6c-0.451-0.479-1.092-0.779-1.803-0.779
					c-1.367,0-2.473,1.105-2.473,2.471c0,0.193,0.023,0.382,0.064,0.562c-2.053-0.103-3.875-1.086-5.094-2.58
					c-0.213,0.363-0.334,0.788-0.334,1.24c0,0.858,0.436,1.614,1.1,2.058c-0.404-0.014-0.787-0.124-1.121-0.31
					c0,0.011,0,0.021,0,0.032c0,1.197,0.854,2.195,1.982,2.422c-0.207,0.057-0.424,0.088-0.65,0.088
					c-0.158,0-0.312-0.016-0.465-0.044c0.314,0.981,1.229,1.696,2.309,1.716c-0.846,0.662-1.91,1.058-3.068,1.058
					c-0.201,0-0.396-0.013-0.59-0.034c1.094,0.701,2.393,1.11,3.789,1.11c4.545,0,7.029-3.767,7.029-7.03
					c0-0.108-0.002-0.214-0.008-0.32C82.115,22.795,82.535,22.358,82.865,21.865"/>
			</g>
		</g>
	</g>
	<g>
		<rect x="113.021" y="13.021" fill="#D94E37" width="23.957" height="23.958"/>
		<g>
			<g>
				<defs>
					<rect id="SVGID_7_" x="114.732" y="13.021" width="23.957" height="23.958"/>
				</defs>
				<clipPath id="SVGID_2_">
					<use xlink:href="#SVGID_7_"  overflow="visible"/>
				</clipPath>
				<path clip-path="url(#SVGID_2_)" fill="#FFFFFF" d="M127.023,20.938c0.08,0.062,0.174,0.146,0.283,0.25
					c0.107,0.104,0.211,0.229,0.309,0.377c0.1,0.149,0.184,0.322,0.256,0.52c0.072,0.198,0.107,0.424,0.107,0.676
					s-0.029,0.472-0.094,0.66c-0.062,0.189-0.146,0.357-0.256,0.507c-0.107,0.148-0.229,0.282-0.363,0.403
					c-0.135,0.122-0.273,0.236-0.416,0.345c-0.092,0.09-0.178,0.184-0.258,0.283c-0.082,0.1-0.121,0.226-0.121,0.377
					c0,0.152,0.039,0.271,0.121,0.358c0.08,0.085,0.156,0.159,0.23,0.223l0.484,0.377c0.143,0.126,0.285,0.252,0.424,0.379
					c0.139,0.125,0.262,0.259,0.363,0.403c0.105,0.145,0.188,0.307,0.25,0.486s0.096,0.386,0.096,0.62
					c0,0.314-0.078,0.626-0.23,0.932c-0.152,0.305-0.377,0.577-0.674,0.816c-0.295,0.236-0.666,0.431-1.111,0.58
					c-0.443,0.146-0.955,0.223-1.527,0.223c-0.486,0-0.91-0.054-1.275-0.163c-0.363-0.106-0.666-0.25-0.908-0.431
					c-0.244-0.181-0.424-0.384-0.539-0.613c-0.117-0.229-0.176-0.469-0.176-0.721c0-0.243,0.074-0.52,0.223-0.829
					c0.148-0.311,0.42-0.582,0.814-0.815c0.207-0.125,0.43-0.226,0.668-0.303c0.238-0.076,0.473-0.138,0.707-0.182
					c0.234-0.045,0.455-0.077,0.66-0.096c0.207-0.018,0.387-0.03,0.539-0.041c-0.1-0.125-0.191-0.258-0.275-0.396
					c-0.086-0.141-0.127-0.312-0.127-0.52c0-0.116,0.012-0.213,0.039-0.29c0.027-0.076,0.059-0.154,0.096-0.235
					c-0.072,0.009-0.145,0.015-0.217,0.02c-0.072,0.004-0.143,0.007-0.215,0.007c-0.359,0-0.678-0.061-0.957-0.182
					c-0.279-0.122-0.512-0.281-0.701-0.479c-0.188-0.198-0.332-0.426-0.43-0.681c-0.1-0.257-0.15-0.514-0.15-0.774
					c0-0.314,0.072-0.63,0.217-0.95c0.145-0.318,0.359-0.604,0.646-0.855c0.385-0.313,0.793-0.516,1.219-0.606
					c0.428-0.089,0.824-0.134,1.193-0.134h2.775l-0.863,0.472h-0.836V20.938z M127.535,28.712c0-0.171-0.031-0.325-0.088-0.465
					c-0.059-0.14-0.146-0.275-0.262-0.41c-0.117-0.135-0.27-0.274-0.459-0.419c-0.189-0.144-0.408-0.304-0.66-0.484
					c-0.055-0.009-0.102-0.014-0.143-0.014h-0.168c-0.025,0-0.09,0.002-0.188,0.008c-0.1,0.004-0.215,0.013-0.352,0.025
					c-0.135,0.015-0.277,0.036-0.43,0.068c-0.154,0.03-0.301,0.069-0.445,0.114c-0.072,0.026-0.174,0.068-0.303,0.128
					c-0.131,0.058-0.258,0.141-0.385,0.25c-0.125,0.106-0.236,0.241-0.33,0.403s-0.141,0.364-0.141,0.606
					c0,0.485,0.213,0.88,0.639,1.186c0.428,0.306,1.004,0.458,1.73,0.458c0.648,0,1.141-0.137,1.477-0.41
					C127.365,29.482,127.535,29.135,127.535,28.712 M125.541,24.751c0.17,0,0.338-0.035,0.506-0.107
					c0.166-0.072,0.303-0.162,0.41-0.271c0.152-0.152,0.246-0.324,0.283-0.514c0.035-0.188,0.053-0.347,0.053-0.473
					c0-0.244-0.037-0.511-0.107-0.799c-0.072-0.288-0.18-0.558-0.322-0.811c-0.145-0.253-0.322-0.462-0.533-0.629
					s-0.457-0.25-0.734-0.25c-0.182,0-0.355,0.041-0.525,0.122s-0.311,0.188-0.418,0.324c-0.117,0.145-0.195,0.302-0.234,0.474
					c-0.041,0.171-0.061,0.347-0.061,0.527c0,0.226,0.033,0.478,0.1,0.757c0.068,0.28,0.17,0.542,0.311,0.784
					s0.314,0.447,0.525,0.614C125.004,24.667,125.252,24.751,125.541,24.751"/>
			</g>
			<g>
				<defs>
					<rect id="SVGID_9_" x="114.732" y="13.021" width="23.957" height="23.958"/>
				</defs>
				<clipPath id="SVGID_3_">
					<use xlink:href="#SVGID_9_"  overflow="visible"/>
				</clipPath>
				<polygon clip-path="url(#SVGID_3_)" fill="#FFFFFF" points="133.82,22.956 131.914,22.956 131.914,24.871 131.311,24.871 
					131.311,22.956 129.395,22.956 129.395,22.352 131.311,22.352 131.311,20.468 131.914,20.468 131.914,22.352 133.82,22.352 				
					"/>
			</g>
		</g>
	</g>
	<g>
		<rect x="163.021" y="13.021" fill="#1B6298" width="23.957" height="23.958"/>
		<g>
			<g>
				<defs>
					<rect id="SVGID_11_" x="164.732" y="13.021" width="23.957" height="23.958"/>
				</defs>
				<clipPath id="SVGID_4_">
					<use xlink:href="#SVGID_11_"  overflow="visible"/>
				</clipPath>
				<path clip-path="url(#SVGID_4_)" fill="#FFFFFF" d="M181.672,25.474v3.669h-2.127V25.72c0-0.859-0.307-1.446-1.078-1.446
					c-0.588,0-0.936,0.396-1.09,0.778c-0.057,0.137-0.07,0.326-0.07,0.519v3.573h-2.129c0,0,0.029-5.797,0-6.397h2.129v0.907
					c-0.006,0.006-0.012,0.013-0.016,0.021h0.016v-0.021c0.281-0.436,0.785-1.058,1.916-1.058
					C180.623,22.596,181.672,23.51,181.672,25.474 M172.953,19.661c-0.727,0-1.205,0.478-1.205,1.105
					c0,0.613,0.463,1.105,1.176,1.105h0.016c0.742,0,1.203-0.492,1.203-1.105C174.129,20.139,173.682,19.661,172.953,19.661
					 M171.877,29.143h2.125v-6.397h-2.125V29.143z"/>
			</g>
		</g>
	</g>
	<g>
		<rect x="13.021" y="13.021" fill="#39517B" width="23.957" height="23.958"/>
		<path fill="#FFFFFF" d="M28.922,21.483h0.901v-1.824h-1.955c-1.187,0-2.148,0.962-2.148,2.149V22.9h-1.543v1.824h1.543v5.618
			h2.397v-5.618h1.706V22.9h-1.706v-0.613C28.117,21.843,28.477,21.483,28.922,21.483"/>
	</g>
	<g>
		<rect x="213.021" y="13.021" fill="#00ABC8" width="23.957" height="23.958"/>
		<path fill="#FFFFFF" d="M219.551,21.273c0.375,0.208,5.562,3.079,5.754,3.185c0.193,0.107,0.443,0.159,0.695,0.159
			s0.502-0.051,0.693-0.159c0.193-0.106,5.379-2.978,5.754-3.185c0.375-0.208,0.73-0.859,0.041-0.859H219.51
			C218.822,20.414,219.176,21.064,219.551,21.273z M232.607,22.854c-0.428,0.229-5.652,3.045-5.914,3.185
			c-0.26,0.141-0.441,0.159-0.693,0.159s-0.434-0.018-0.695-0.159c-0.26-0.141-5.486-2.958-5.91-3.185
			c-0.301-0.162-0.299,0.027-0.299,0.173s0,5.8,0,5.8c0,0.332,0.43,0.759,0.762,0.759h12.287c0.332,0,0.76-0.428,0.76-0.758
			c0,0,0-5.654,0-5.8C232.904,22.882,232.906,22.693,232.607,22.854z"/>
	</g>
	<g>
		<g>
			<rect x="263.021" y="13.021" fill="#25D366" width="23.957" height="23.958"/>
		</g>
		<path fill-rule="evenodd" clip-rule="evenodd" fill="#FFFFFF" d="M280.81,20.154c-1.189-1.189-2.768-1.845-4.45-1.845
			c-3.467,0-6.288,2.822-6.289,6.289c-0.003,1.109,0.288,2.191,0.838,3.145l-0.891,3.259l3.334-0.875
			c0.918,0.501,1.953,0.766,3.006,0.766h0.002l0,0c3.466,0,6.288-2.822,6.289-6.29C282.65,22.923,281.996,21.343,280.81,20.154
			 M276.359,29.832h-0.002c-0.938,0-1.857-0.253-2.66-0.729l-0.193-0.113l-1.978,0.519l0.528-1.929l-0.124-0.198
			c-0.523-0.832-0.8-1.794-0.8-2.781c0.002-2.883,2.348-5.229,5.23-5.229c1.396,0,2.709,0.545,3.695,1.533
			c0.987,0.989,1.53,2.302,1.53,3.699C281.587,27.486,279.24,29.832,276.359,29.832 M279.228,25.916
			c-0.157-0.079-0.93-0.459-1.074-0.511c-0.145-0.053-0.249-0.079-0.354,0.078c-0.104,0.158-0.405,0.512-0.498,0.617
			c-0.092,0.105-0.182,0.118-0.34,0.039c-0.156-0.08-0.664-0.245-1.265-0.78c-0.466-0.417-0.781-0.932-0.873-1.089
			s-0.01-0.242,0.069-0.32c0.07-0.071,0.156-0.184,0.235-0.275c0.078-0.092,0.104-0.158,0.156-0.263
			c0.053-0.104,0.026-0.197-0.013-0.275c-0.04-0.079-0.354-0.853-0.484-1.167c-0.127-0.307-0.257-0.265-0.354-0.27
			c-0.092-0.004-0.197-0.006-0.301-0.006c-0.105,0-0.275,0.039-0.42,0.197c-0.144,0.157-0.549,0.537-0.549,1.311
			c0,0.774,0.562,1.522,0.641,1.626c0.079,0.105,1.108,1.692,2.686,2.373c0.375,0.162,0.667,0.258,0.896,0.331
			c0.376,0.119,0.72,0.102,0.989,0.062c0.303-0.045,0.93-0.38,1.062-0.747c0.13-0.367,0.13-0.682,0.09-0.747
			C279.488,26.034,279.384,25.994,279.228,25.916"/>
	</g>
</g>
<g id="layer-set-5">
</g>
<g id="layer-set-4">
</g>
<g id="layer-set-3">
</g>
<g id="layer-set-2">
</g>
<g id="layer-set-1">
</g>
</svg>
