<?xml version="1.0" encoding="utf-8"?>
<!-- Generator: Adobe Illustrator 16.0.4, SVG Export Plug-In . SVG Version: 6.00 Build 0)  -->
<!DOCTYPE svg PUBLIC "-//W3C//DTD SVG 1.1//EN" "http://www.w3.org/Graphics/SVG/1.1/DTD/svg11.dtd">
<svg version="1.1" xmlns="http://www.w3.org/2000/svg" xmlns:xlink="http://www.w3.org/1999/xlink" x="0px" y="0px" width="650px"
	 height="50px" viewBox="0 0 650 50" enable-background="new 0 0 650 50" xml:space="preserve">
<g id="red-bg" display="none">
	<rect x="-1415.187" y="-207.673" display="inline" opacity="0.27" fill="#FF0000" width="2149.996" height="449.673"/>
</g>
<g id="layer-set-12">
</g>
<g id="layer-set-11">
</g>
<g id="layer-set-10">
</g>
<g id="layer-set-9">
	<g>
		<rect x="212.6" y="17.6" fill="none" stroke="#000000" stroke-miterlimit="10" width="24.801" height="14.8"/>
		<polyline fill="none" stroke="#000000" stroke-miterlimit="10" points="212.6,17.6 225,25.6 237.4,17.6 		"/>
	</g>
	<path fill="none" stroke="#000000" stroke-miterlimit="10" d="M83.164,19.135c0,0,1.689-0.133,2.368-0.64
		c0,0-0.162,0.584-2.196,2.426c0,0,0.686,9.943-9.745,12.38c0,0-5.29,1.13-9.123-1.752c0,0,4.013,0.714,6.271-1.783
		c0,0-2.912,0.03-3.834-2.94c0,0,1.101,0.236,1.754-0.061c0,0-3.299-0.684-3.239-4.279c0,0,0.892,0.653,1.694,0.535
		c0,0-2.971-2.525-1.129-5.676c0,0,3.981,4.707,8.916,4.428c-0.088-0.336-0.133-0.688-0.133-1.055c0-2.341,1.897-4.238,4.239-4.238
		c1.183,0,2.253,0.484,3.022,1.266c0.563,0.01,1.724-0.092,2.883-0.922C84.912,16.824,84.979,17.732,83.164,19.135z"/>
	<g>
		<path fill="none" stroke="#000000" stroke-miterlimit="10" d="M126.318,26.341l-0.878-0.72c-0.126-0.126-0.257-0.273-0.392-0.441
			c-0.158-0.177-0.236-0.399-0.236-0.67c0-0.276,0.076-0.521,0.23-0.731c0.131-0.201,0.273-0.383,0.428-0.543
			c0.27-0.234,0.523-0.467,0.764-0.693c0.215-0.227,0.42-0.475,0.613-0.744c0.393-0.557,0.597-1.295,0.613-2.221
			c0-0.506,0.017-0.656-0.099-1.034c-0.138-0.378-0.289-0.742-0.483-0.944c-0.203-0.193-0.697-0.686-0.86-0.785h1.596l1.272-1.666
			h-5.174c-0.688,0-1.422,0.082-2.207,0.24c-0.793,0.186-1.559,0.58-2.293,1.186c-1.072,1.037-1.606,2.188-1.606,3.459
			c0,1.052,0.377,1.973,1.133,2.764c0.722,0.85,1.772,1.283,3.149,1.3c0.261,0,0.537-0.017,0.832-0.05
			c-0.049,0.134-0.103,0.283-0.158,0.443c-0.064,0.152-0.098,0.343-0.098,0.572c0,0.381,0.084,0.707,0.256,0.978
			c0.146,0.278,0.312,0.542,0.498,0.786c-0.604,0.018-1.361,0.093-2.275,0.228c-0.922,0.159-1.803,0.479-2.641,0.958
			c-0.746,0.445-1.262,0.961-1.547,1.549c-0.293,0.588-0.439,1.121-0.439,1.6c0,0.984,0.451,1.828,1.354,2.533
			c0.894,0.756,2.246,1.143,4.06,1.16c2.165-0.035,3.821-0.552,4.969-1.554c1.106-0.968,1.66-2.078,1.66-3.332
			c-0.017-0.884-0.218-1.601-0.604-2.146C127.342,27.278,126.863,26.787,126.318,26.341z M123.098,22.487
			c-0.371,0-0.701-0.113-0.989-0.34s-0.522-0.502-0.706-0.826c-0.376-0.695-0.564-1.365-0.564-2.01
			c-0.012-0.486,0.117-0.927,0.387-1.322c0.318-0.375,0.72-0.57,1.203-0.582c0.365,0.012,0.687,0.119,0.968,0.322
			c0.274,0.215,0.495,0.492,0.663,0.834c0.359,0.713,0.539,1.42,0.539,2.123c0,0.162-0.012,0.362-0.039,0.6
			c-0.043,0.236-0.139,0.47-0.289,0.695C123.955,22.301,123.565,22.469,123.098,22.487z M124.889,32.321
			c-0.467,0.379-1.143,0.574-2.027,0.586c-0.986-0.012-1.764-0.23-2.332-0.658c-0.598-0.428-0.896-0.973-0.896-1.631
			c0-0.336,0.069-0.622,0.207-0.86c0.119-0.228,0.267-0.415,0.438-0.569c0.181-0.146,0.356-0.259,0.53-0.338
			c0.173-0.072,0.307-0.129,0.402-0.164c0.407-0.123,0.805-0.211,1.193-0.267c0.395-0.036,0.641-0.048,0.734-0.036
			c0.162,0,0.303,0.005,0.423,0.018c0.698,0.489,1.213,0.9,1.542,1.237c0.311,0.354,0.466,0.769,0.466,1.246
			C125.57,31.469,125.342,31.948,124.889,32.321z"/>
		<line fill="none" stroke="#000000" stroke-miterlimit="10" x1="131.684" y1="16.015" x2="131.684" y2="20.015"/>
		<line fill="none" stroke="#000000" stroke-miterlimit="10" x1="129.684" y1="18.015" x2="133.684" y2="18.015"/>
	</g>
	<path fill="none" stroke="#000000" stroke-miterlimit="10" d="M30.955,14.714h-3.314c0,0-3.727-0.258-4.682,3.5
		c0,0-0.346,0.984-0.299,3.412h-3.615v2.867h3.902V35.29h3.896V24.503h3.914v-2.877h-3.906v-1.73c0-1.122,0.76-2.195,2.479-2.195
		h1.625V14.714L30.955,14.714z"/>
	<path fill="none" stroke="#000000" stroke-miterlimit="10" d="M181.188,35.031v-7.844c0-1.791-0.91-3.012-2.472-3.012
		c-1.194,0-2.187,0.824-2.5,1.619c-0.112,0.285-0.142,0.682-0.142,1.08v8.154h-4.036v-9.604c0-1.732,0.013-3.253-0.043-4.504
		l3.679-0.07l0.2,2.073h0.085c0.568-0.908,1.96-2.245,4.291-2.245c2.841,0,4.902,1.905,4.902,5.996v8.354h-3.965V35.031z
		 M167.093,19.287c-1.364,0-2.245-0.965-2.245-2.158c0-1.223,0.909-2.16,2.301-2.16c1.393,0,2.246,0.938,2.273,2.16
		C169.423,18.322,168.542,19.287,167.093,19.287z M168.998,34.959h-4.036V20.852h4.036V34.959z"/>
	<g>
		<path fill-rule="evenodd" clip-rule="evenodd" d="M282.31,17.649c-1.94-1.942-4.519-3.012-7.267-3.013
			c-5.661,0-10.269,4.608-10.271,10.271c-0.003,1.811,0.471,3.578,1.37,5.135l-1.456,5.323l5.444-1.43
			c1.5,0.818,3.189,1.251,4.908,1.251h0.004l0,0c5.66,0,10.269-4.608,10.271-10.271C285.315,22.17,284.248,19.59,282.31,17.649
			 M275.043,34.541h-0.002c-1.729,0-3.421-0.465-4.899-1.343l-4.392,1.177l1.141-4.346c-0.966-1.531-1.474-3.304-1.474-5.122
			c0.003-5.308,4.321-9.625,9.631-9.625c2.57,0,4.985,1.004,6.805,2.823c1.815,1.82,2.816,4.238,2.815,6.812
			C284.667,30.222,280.348,34.541,275.043,34.541"/>
		<g>
			<path d="M277.712,30.222L277.712,30.222c-0.383,0-0.755-0.057-1.106-0.167c-0.407-0.131-0.891-0.292-1.497-0.554
				c-1.609-0.694-3.205-2.092-4.495-3.935c-0.384-0.518-1.164-1.702-1.164-2.94c0-1.332,0.666-2.042,0.951-2.344
				c0.411-0.45,0.84-0.493,1.007-0.493c0.177,0,0.354,0.002,0.51,0.01c0.452,0,0.712,0.207,0.905,0.67l0.281,0.684
				c0.215,0.524,0.453,1.105,0.499,1.198c0.138,0.275,0.145,0.539,0.021,0.786c-0.104,0.212-0.167,0.342-0.306,0.504l-0.137,0.164
				c-0.093,0.113-0.186,0.226-0.267,0.307c-0.025,0.025-0.068,0.067-0.078,0.085c0.198,0.286,0.684,1.054,1.375,1.671
				c0.771,0.687,1.434,0.976,1.789,1.131c0.082,0.036,0.148,0.064,0.196,0.089c0.078,0.039,0.109,0.042,0.11,0.042
				c0.147-0.196,0.621-0.753,0.775-0.986c0.256-0.385,0.691-0.394,1.02-0.273c0.278,0.101,1.647,0.779,1.794,0.853l0.131,0.064
				c0.224,0.108,0.4,0.194,0.512,0.374c0.179,0.295,0.077,0.999-0.115,1.542c-0.285,0.793-1.491,1.384-2.031,1.465
				C278.186,30.199,277.958,30.222,277.712,30.222z M271.407,20.538c-0.053,0-0.238,0.014-0.408,0.199
				c-0.295,0.315-0.8,0.853-0.8,1.888c0,1.014,0.677,2.034,0.968,2.425l0.061,0.084c1.211,1.731,2.695,3.037,4.178,3.677
				c0.577,0.249,1.021,0.397,1.429,0.528c0.279,0.088,0.567,0.132,0.878,0.132l0,0c0.206,0,0.397-0.02,0.569-0.045
				c0.431-0.065,1.286-0.562,1.436-0.976c0.166-0.47,0.175-0.846,0.158-0.943c-0.001,0.04-0.097-0.007-0.175-0.045l-0.142-0.069
				c-0.359-0.182-1.521-0.749-1.713-0.818c-0.08-0.029-0.129-0.043-0.149-0.044c-0.181,0.315-0.704,0.926-0.833,1.074
				c-0.264,0.299-0.585,0.361-1.004,0.152c-0.041-0.021-0.094-0.043-0.159-0.072c-0.366-0.16-1.128-0.492-1.988-1.258
				c-0.771-0.689-1.308-1.537-1.502-1.869c-0.297-0.511,0.045-0.851,0.174-0.978c0.064-0.065,0.141-0.159,0.218-0.253l0.146-0.176
				c0.075-0.088,0.107-0.153,0.165-0.271c0.05-0.1,0.058-0.117,0.02-0.194c-0.045-0.087-0.297-0.698-0.522-1.25l-0.281-0.68
				c-0.072-0.175-0.123-0.211-0.123-0.211l-0.125,0.001C271.736,20.541,271.57,20.538,271.407,20.538z"/>
		</g>
	</g>
</g>
<g id="layer-set-8">
</g>
<g id="layer-set-7">
</g>
<g id="layer-set-6">
</g>
<g id="layer-set-5">
</g>
<g id="layer-set-4">
</g>
<g id="layer-set-3">
</g>
<g id="layer-set-2">
</g>
<g id="layer-set-1">
</g>
</svg>
