<?xml version="1.0" encoding="utf-8"?>
<!-- Generator: Adobe Illustrator 16.0.4, SVG Export Plug-In . SVG Version: 6.00 Build 0)  -->
<!DOCTYPE svg PUBLIC "-//W3C//DTD SVG 1.1//EN" "http://www.w3.org/Graphics/SVG/1.1/DTD/svg11.dtd">
<svg version="1.1" xmlns="http://www.w3.org/2000/svg" xmlns:xlink="http://www.w3.org/1999/xlink" x="0px" y="0px" width="650px"
	 height="50px" viewBox="0 0 650 50" enable-background="new 0 0 650 50" xml:space="preserve">
<g id="red-bg" display="none">
	<rect x="-15.187" y="-207.673" display="inline" opacity="0.27" fill="#FF0000" width="2149.996" height="449.673"/>
</g>
<g id="layer-set-12">
</g>
<g id="layer-set-11">
</g>
<g id="layer-set-10">
</g>
<g id="layer-set-9">
</g>
<g id="layer-set-8">
</g>
<g id="layer-set-7">
	<g>
		<path fill="#547BBC" d="M25,40c8.284,0,15-6.716,15-15s-6.716-15-15-15s-15,6.716-15,15S16.716,40,25,40"/>
		<path opacity="0.1" enable-background="new    " d="M39.511,28.354c-0.016-0.004-0.018-0.005-0.044-0.012l0.01-0.057
			c0,0-0.036-0.012-0.093-0.027l0.01-0.057c0,0-0.036-0.011-0.093-0.025l0.011-0.057c0,0-0.037-0.012-0.094-0.027l0.011-0.057
			c0,0-0.037-0.011-0.094-0.025l0.011-0.057c0,0-0.037-0.012-0.094-0.027l0.011-0.057c0,0-0.037-0.011-0.093-0.025l0.011-0.057
			c0,0-0.037-0.012-0.094-0.027l0.011-0.057c0,0-0.037-0.011-0.094-0.025l0.011-0.057c0,0-0.037-0.012-0.093-0.027l0.011-0.057
			c0,0-0.037-0.011-0.094-0.025l0.011-0.057c0,0-0.037-0.012-0.094-0.027l0.011-0.057c0,0-0.037-0.011-0.094-0.025l0.011-0.057
			c0,0-0.037-0.012-0.094-0.027l0.011-0.057c0,0-0.037-0.011-0.094-0.025l0.011-0.057c0,0-0.037-0.012-0.094-0.027l0.011-0.057
			c0,0-0.037-0.011-0.094-0.025l0.011-0.057c0,0-0.037-0.012-0.094-0.027l0.011-0.057c0,0-0.037-0.011-0.094-0.025l0.011-0.057
			c0,0-0.037-0.012-0.094-0.027l0.011-0.057c0,0-0.037-0.011-0.093-0.025l0.011-0.057c0,0-0.037-0.012-0.094-0.027l0.011-0.057
			c0,0-0.037-0.011-0.094-0.025l0.011-0.057c0,0-0.037-0.012-0.092-0.027l0.01-0.057c0,0-0.037-0.011-0.093-0.025l0.01-0.057
			c0,0-0.037-0.012-0.093-0.027l0.01-0.057c0,0-0.037-0.011-0.093-0.025l0.01-0.057c0,0-0.037-0.012-0.093-0.027l0.01-0.057
			c0,0-0.037-0.011-0.093-0.025l0.01-0.057c0,0-0.037-0.012-0.093-0.027l0.01-0.057c0,0-0.037-0.011-0.093-0.025l0.01-0.057
			c0,0-0.037-0.012-0.093-0.027l0.01-0.057c0,0-0.037-0.011-0.093-0.025l0.01-0.057c0,0-0.037-0.012-0.092-0.027l0.01-0.057
			c0,0-0.037-0.011-0.093-0.025l0.01-0.057c0,0-0.037-0.012-0.093-0.027l0.01-0.057c0,0-0.037-0.011-0.092-0.025l0.01-0.057
			c0,0-0.037-0.012-0.093-0.027l0.01-0.057c0,0-0.037-0.011-0.093-0.025l0.01-0.057c0,0-0.037-0.012-0.093-0.027l0.01-0.057
			c0,0-0.037-0.011-0.093-0.025l0.01-0.057c0,0-0.037-0.012-0.093-0.027l0.01-0.057c0,0-0.037-0.011-0.093-0.025l0.01-0.057
			c0,0-0.037-0.012-0.093-0.027l0.01-0.057c0,0-0.037-0.011-0.092-0.025l0.01-0.057c0,0-0.037-0.012-0.092-0.027l0.01-0.057
			c0,0-0.038-0.011-0.094-0.025l0.01-0.057c0,0-0.037-0.012-0.093-0.027l0.01-0.057c0,0-0.037-0.011-0.093-0.025l0.01-0.057
			c0,0-0.037-0.012-0.092-0.027l0.01-0.055c0,0-0.037-0.012-0.093-0.027l0.01-0.057c0,0-0.037-0.011-0.093-0.025l0.01-0.057
			c0,0-0.037-0.012-0.092-0.027l0.009-0.055c0,0-0.037-0.012-0.093-0.026l0.01-0.058c0,0-0.037-0.011-0.093-0.025l0.01-0.057
			c0,0-0.037-0.012-0.093-0.026l0.01-0.058c0,0-0.037-0.011-0.093-0.025l0.01-0.057c0,0-0.037-0.012-0.092-0.026l0.01-0.058
			c0,0-0.037-0.011-0.093-0.025l0.01-0.057c0,0-0.037-0.012-0.093-0.026l0.01-0.058c0,0-0.037-0.011-0.092-0.025l0.01-0.057
			c0,0-0.037-0.012-0.093-0.026l0.01-0.058c0,0-0.037-0.011-0.093-0.025l0.01-0.059c0,0-0.037-0.011-0.093-0.025l0.009-0.057
			c0,0-0.037-0.012-0.092-0.026l0.01-0.058c0,0-0.037-0.011-0.093-0.025l0.01-0.057c0,0-0.037-0.012-0.093-0.026l0.01-0.058
			c0,0-0.037-0.011-0.093-0.025l0.01-0.057c0,0-0.037-0.012-0.093-0.026l0.01-0.058c0,0-0.037-0.011-0.092-0.025l0.01-0.057
			c0,0-0.037-0.012-0.093-0.026l0.01-0.058c0,0-0.037-0.011-0.093-0.025l0.01-0.057c0,0-0.037-0.012-0.092-0.026l0.01-0.058
			c0,0-0.037-0.011-0.093-0.025l0.01-0.057c0,0-0.037-0.012-0.093-0.026l0.01-0.058c0,0-0.037-0.011-0.093-0.025l0.01-0.057
			c0,0-0.037-0.012-0.092-0.026l0.01-0.058c0,0-0.037-0.011-0.092-0.025l0.01-0.057c0,0-0.036-0.012-0.093-0.026l0.01-0.058
			c0,0-0.036-0.011-0.093-0.025l0.01-0.057c0,0-0.036-0.012-0.093-0.026l0.01-0.058c0,0-0.036-0.011-0.093-0.025l0.01-0.057
			c0,0-0.036-0.012-0.093-0.026l0.01-0.058c0,0-0.036-0.011-0.093-0.025l0.01-0.057c0,0-0.036-0.012-0.092-0.026l0.01-0.058
			c0,0-0.036-0.011-0.092-0.025l0.01-0.057c0,0-0.037-0.012-0.093-0.026l0.011-0.058c0,0-0.037-0.011-0.094-0.025l0.011-0.057
			c0,0-0.037-0.012-0.093-0.026l0.01-0.056c0,0-0.037-0.012-0.094-0.026l0.011-0.058c0,0-0.037-0.011-0.093-0.025l0.011-0.059
			c0,0-0.037-0.011-0.094-0.025l0.011-0.057c0,0-0.037-0.012-0.094-0.026l0.011-0.058c0,0-0.037-0.011-0.094-0.025l0.011-0.057
			c0,0-0.037-0.012-0.094-0.026l0.011-0.058c0,0-0.037-0.011-0.094-0.025l0.011-0.057c0,0-0.037-0.012-0.093-0.026l0.011-0.058
			c0,0-0.037-0.011-0.094-0.025l0.011-0.057c0,0-0.037-0.012-0.094-0.026l0.011-0.058c0,0-0.037-0.011-0.093-0.025l0.011-0.057
			c0,0-0.037-0.012-0.092-0.026l0.009-0.058c0,0-0.037-0.011-0.092-0.025l0.009-0.057c0,0-0.037-0.012-0.092-0.026l0.01-0.058
			c0,0-0.037-0.011-0.093-0.025l0.01-0.057c0,0-0.037-0.012-0.093-0.026l0.01-0.058c0,0-0.037-0.011-0.093-0.025l0.01-0.057
			c0,0-0.037-0.012-0.093-0.026l0.01-0.058c0,0-0.037-0.011-0.093-0.025l0.01-0.057c0,0-0.037-0.012-0.093-0.026l0.01-0.058
			c0,0-0.037-0.011-0.092-0.025l0.01-0.057c0,0-0.037-0.012-0.092-0.026l0.01-0.058c0,0-0.037-0.011-0.093-0.025l0.01-0.057
			c0,0-0.037-0.012-0.093-0.026l0.01-0.058c0,0-0.037-0.011-0.093-0.025l0.01-0.057c0,0-0.037-0.012-0.093-0.026l0.01-0.058
			c0,0-0.037-0.011-0.092-0.025l0.01-0.057c0,0-0.037-0.011-0.093-0.025l0.01-0.057c0,0-0.037-0.012-0.093-0.026l0.01-0.058
			c0,0-0.037-0.011-0.093-0.025l0.01-0.057c0,0-0.037-0.012-0.093-0.026l0.01-0.058c0,0-0.037-0.011-0.093-0.025l0.01-0.057
			c0,0-0.037-0.012-0.093-0.026l0.01-0.058c0,0-0.037-0.011-0.093-0.025l0.01-0.057c0,0-0.037-0.012-0.092-0.026l0.01-0.058
			c0,0-0.037-0.011-0.093-0.025l0.01-0.057c0,0-0.037-0.012-0.093-0.026l0.01-0.058c0,0-0.037-0.011-0.093-0.025l0.01-0.057
			c0,0-0.037-0.012-0.093-0.026l0.01-0.058c0,0-0.037-0.011-0.092-0.025l0.01-0.057c0,0-0.037-0.012-0.093-0.026l0.01-0.058
			c0,0-0.037-0.011-0.093-0.025l0.01-0.057c0,0-0.037-0.012-0.092-0.026l0.01-0.058c0,0-0.824-0.279-2.78-0.279
			c-1.2,0-1.898,0.459-2.407,1.13c-0.483,0.635-0.5,1.659-0.5,2.323v1.508h-1.551v2.244h0.083v0.084h0.083v0.082h0.083v0.084h0.083
			v0.082h0.083v0.084h0.083v0.082h0.083v0.084h0.083v0.082h0.083v0.084h0.083v0.082h0.083v0.084h0.083v0.082h0.083v0.084h0.083
			v0.082h0.083v0.084h0.083v0.082h0.083v0.084h0.083v0.082h0.058v6.303h0.083v0.084h0.083v0.082h0.083v0.084h0.083v0.082h0.083
			v0.084h0.083v0.082h0.083v0.084h0.063V32.8h0.083v0.084h0.083v0.082h0.083v0.084h0.083v0.082h0.083v0.084h0.083v0.082h0.083v0.084
			h0.083v0.082h0.083v0.084h0.083v0.082h0.083v0.084h0.083v0.082h0.083v0.084h0.082v0.082h0.083v0.083h0.083v0.083h0.083v0.083
			h0.083v0.083h0.083v0.083h0.083v0.083h0.083v0.083h0.083v0.083h0.083v0.083h0.082v0.083h0.083v0.083h0.083v0.083h0.083v0.083
			h0.083v0.083h0.083v0.083h0.083v0.083h0.083v0.083h0.083v0.083h0.083v0.083h0.083v0.083h0.083v0.083h0.083v0.083h0.083v0.083
			h0.083v0.083h0.083v0.083h0.083v0.082h0.082v0.083h0.083v0.083h0.083v0.083h0.083v0.083h0.083v0.083h0.083v0.083h0.083V36.7h0.082
			v0.082h0.083v0.084h0.083v0.082h0.083v0.084H27.9v0.082h0.083v0.084h0.083v0.084h0.083v0.082h0.083v0.082h0.083v0.084h0.083v0.082
			h0.083v0.082h0.083v0.084h0.083v0.082h0.083v0.084h0.083v0.082h0.083v0.084h0.083v0.082h0.083v0.084h0.083v0.082h0.083v0.084
			h0.083v0.082h0.083v0.084h0.082v0.082h0.083v0.084h0.083v0.082h0.083v0.01C34.533,37.269,38.248,33.306,39.511,28.354z"/>
		<path fill="#F4F4F4" d="M21.374,22.46h1.55v-1.507c0-0.664,0.018-1.688,0.5-2.324c0.508-0.672,1.207-1.129,2.408-1.129
			c1.956,0,2.78,0.279,2.78,0.279l-0.389,2.297c0,0-0.646-0.188-1.248-0.188c-0.604,0-1.144,0.217-1.144,0.819v1.751h2.473
			l-0.172,2.245h-2.3V32.5h-2.908v-7.796h-1.55L21.374,22.46L21.374,22.46z"/>
	</g>
	<g>
		<path fill="#71C5E2" d="M75,40c8.283,0,15-6.716,15-15s-6.716-15-15-15s-15,6.716-15,15S66.716,40,75,40"/>
		<path opacity="0.1" enable-background="new    " d="M89.743,26.948c-0.028,0.012-0.055,0.024-0.082,0.04
			c0.028-0.07,0.064-0.137,0.088-0.208c-0.063,0.036-0.135,0.061-0.199,0.096c0.028-0.069,0.065-0.135,0.088-0.207
			c-0.062,0.037-0.134,0.062-0.197,0.097c0.027-0.069,0.064-0.136,0.088-0.207c-0.063,0.037-0.135,0.061-0.199,0.096
			c0.028-0.07,0.064-0.135,0.088-0.207c-0.062,0.037-0.134,0.061-0.199,0.096c0.028-0.07,0.065-0.135,0.088-0.207
			c-0.062,0.038-0.135,0.061-0.199,0.096c0.027-0.07,0.064-0.135,0.088-0.207c-0.063,0.037-0.135,0.061-0.198,0.096
			c0.028-0.069,0.065-0.135,0.088-0.206c-0.062,0.036-0.134,0.061-0.198,0.096c0.028-0.069,0.065-0.135,0.088-0.207
			c-0.062,0.038-0.135,0.062-0.199,0.097c0.027-0.07,0.064-0.136,0.088-0.209c-0.063,0.039-0.134,0.062-0.199,0.096
			c0.028-0.069,0.065-0.135,0.088-0.206c-0.062,0.036-0.134,0.061-0.199,0.096c0.028-0.069,0.065-0.135,0.088-0.207
			c-0.062,0.037-0.134,0.062-0.197,0.097c0.027-0.07,0.064-0.136,0.088-0.207c-0.063,0.037-0.134,0.061-0.199,0.096
			c0.028-0.07,0.065-0.135,0.088-0.207c-0.062,0.037-0.134,0.061-0.199,0.096c0.028-0.07,0.065-0.135,0.088-0.208
			c-0.062,0.037-0.134,0.062-0.197,0.097c0.027-0.07,0.064-0.135,0.088-0.207c-0.063,0.037-0.135,0.062-0.199,0.096
			c0.028-0.069,0.065-0.135,0.088-0.207c-0.062,0.039-0.135,0.062-0.199,0.097c0.028-0.069,0.065-0.135,0.088-0.207
			c-0.062,0.037-0.134,0.062-0.198,0.097c0.027-0.07,0.064-0.136,0.088-0.207c-0.063,0.036-0.134,0.061-0.198,0.096
			c0.028-0.069,0.065-0.135,0.088-0.207c-0.062,0.037-0.134,0.061-0.199,0.096c0.028-0.068,0.065-0.134,0.088-0.206
			c-0.062,0.037-0.135,0.062-0.198,0.097c0.027-0.07,0.064-0.136,0.088-0.209c-0.063,0.037-0.134,0.062-0.199,0.096
			c0.028-0.069,0.065-0.135,0.088-0.207c-0.062,0.037-0.134,0.062-0.199,0.097c0.028-0.069,0.065-0.135,0.088-0.207
			c-0.062,0.037-0.134,0.062-0.198,0.097c0.027-0.07,0.064-0.135,0.088-0.207c-0.063,0.037-0.134,0.062-0.199,0.096
			c0.028-0.069,0.065-0.135,0.088-0.207c-0.062,0.037-0.135,0.062-0.199,0.097c0.028-0.069,0.065-0.135,0.089-0.208
			c-0.063,0.037-0.135,0.061-0.199,0.096c0.027-0.07,0.064-0.135,0.088-0.207c-0.063,0.036-0.134,0.061-0.198,0.096
			c0.028-0.069,0.065-0.135,0.088-0.207c-0.062,0.039-0.135,0.062-0.2,0.098c0.028-0.07,0.065-0.136,0.089-0.208
			c-0.063,0.037-0.136,0.062-0.199,0.097c0.027-0.07,0.064-0.136,0.088-0.207c-0.063,0.036-0.134,0.061-0.198,0.096
			c0.028-0.069,0.065-0.135,0.088-0.207c-0.062,0.037-0.134,0.061-0.199,0.096c0.028-0.07,0.065-0.135,0.089-0.207
			c-0.063,0.037-0.135,0.061-0.199,0.096c0.027-0.07,0.064-0.135,0.088-0.207c-0.063,0.037-0.134,0.062-0.199,0.096
			c0.028-0.069,0.065-0.135,0.088-0.207c-0.062,0.037-0.134,0.061-0.199,0.096c0.028-0.07,0.065-0.135,0.089-0.207
			c-0.063,0.037-0.135,0.061-0.198,0.096c0.027-0.068,0.064-0.134,0.088-0.205c-0.063,0.037-0.135,0.061-0.2,0.096
			c0.028-0.069,0.065-0.135,0.088-0.207c-0.062,0.037-0.134,0.061-0.198,0.096c0.028-0.068,0.065-0.134,0.089-0.206
			c-0.063,0.037-0.135,0.062-0.199,0.097c0.027-0.07,0.064-0.136,0.088-0.207c-0.063,0.037-0.134,0.061-0.199,0.096
			c0.028-0.07,0.065-0.135,0.088-0.209c-0.062,0.037-0.134,0.062-0.197,0.097c0.027-0.069,0.064-0.134,0.088-0.206
			c-0.063,0.038-0.136,0.062-0.2,0.098c0.027-0.07,0.064-0.137,0.088-0.209c-0.063,0.037-0.134,0.062-0.199,0.096
			c0.028-0.069,0.065-0.135,0.088-0.206c-0.062,0.036-0.134,0.061-0.197,0.096c0.027-0.069,0.064-0.135,0.088-0.207
			c-0.063,0.038-0.136,0.062-0.2,0.097c0.027-0.07,0.064-0.136,0.088-0.209c-0.063,0.037-0.134,0.062-0.198,0.096
			c0.028-0.068,0.065-0.133,0.088-0.205c-0.062,0.037-0.134,0.061-0.198,0.096c0.027-0.07,0.064-0.135,0.088-0.207
			c-0.063,0.037-0.135,0.061-0.198,0.096c0.028-0.068,0.064-0.135,0.088-0.207c-0.063,0.037-0.134,0.062-0.199,0.096
			c0.028-0.069,0.065-0.135,0.088-0.207c-0.062,0.039-0.135,0.062-0.199,0.097c0.027-0.069,0.064-0.135,0.088-0.208
			c-0.063,0.037-0.135,0.061-0.198,0.096c0.028-0.068,0.064-0.134,0.088-0.205c-0.063,0.037-0.134,0.061-0.199,0.096
			c0.028-0.07,0.065-0.135,0.088-0.207c-0.062,0.037-0.134,0.061-0.198,0.096c0.027-0.07,0.064-0.135,0.088-0.208
			c-0.063,0.037-0.135,0.062-0.199,0.097c0.028-0.07,0.064-0.135,0.088-0.207c-0.063,0.037-0.135,0.062-0.199,0.096
			c0.028-0.069,0.065-0.135,0.088-0.207c-0.062,0.037-0.134,0.062-0.197,0.097c0.027-0.069,0.064-0.134,0.088-0.207
			c-0.063,0.037-0.135,0.062-0.199,0.097c0.028-0.07,0.064-0.135,0.088-0.207c-0.062,0.037-0.135,0.062-0.199,0.096
			c0.028-0.069,0.065-0.135,0.088-0.207c-0.062,0.037-0.134,0.061-0.198,0.096c0.027-0.07,0.064-0.135,0.088-0.207
			c-0.063,0.037-0.135,0.061-0.199,0.096c0.028-0.07,0.064-0.135,0.088-0.207c-0.062,0.036-0.134,0.061-0.199,0.096
			c0.028-0.07,0.065-0.135,0.088-0.209c-0.062,0.037-0.134,0.062-0.198,0.097c0.027-0.069,0.064-0.135,0.088-0.207
			c-0.063,0.037-0.135,0.062-0.198,0.097c0.028-0.07,0.065-0.136,0.088-0.207c-0.062,0.036-0.134,0.061-0.199,0.096
			c0.028-0.07,0.065-0.135,0.088-0.207c-0.062,0.037-0.134,0.061-0.198,0.096c0.027-0.07,0.064-0.135,0.088-0.207
			c-0.063,0.037-0.134,0.061-0.199,0.096c0.028-0.07,0.065-0.135,0.088-0.207c-0.062,0.036-0.134,0.061-0.199,0.096
			c0.028-0.069,0.065-0.135,0.088-0.207c-0.062,0.037-0.134,0.061-0.197,0.096c0.027-0.069,0.064-0.135,0.088-0.207
			c-0.063,0.038-0.135,0.061-0.2,0.096c0.028-0.07,0.065-0.135,0.088-0.208c-0.062,0.037-0.134,0.062-0.198,0.097
			c0.028-0.069,0.065-0.135,0.088-0.207c-0.597,0.354-1.256,0.609-1.959,0.748c-0.561-0.601-1.362-0.974-2.25-0.974
			c-1.701,0-3.083,1.382-3.083,3.083c0,0.242,0.026,0.477,0.08,0.702c-1.938-0.099-3.71-0.826-5.116-1.983
			c-0.007-0.007-0.013-0.013-0.019-0.02c0,0.001-0.001,0.002-0.001,0.002c-0.014-0.012-0.026-0.025-0.041-0.037
			c-0.021-0.025-0.047-0.049-0.069-0.076c-0.001,0.002-0.002,0.006-0.003,0.008c-0.034-0.041-0.073-0.078-0.106-0.119
			c-0.001,0.002-0.002,0.004-0.003,0.007c-0.035-0.041-0.073-0.077-0.107-0.118c-0.001,0.002-0.002,0.005-0.004,0.008
			c-0.035-0.041-0.074-0.077-0.106-0.119c-0.002,0.002-0.003,0.006-0.005,0.008c-0.033-0.041-0.072-0.078-0.105-0.119
			c-0.001,0.002-0.002,0.006-0.004,0.008c-0.034-0.041-0.073-0.077-0.107-0.118c-0.001,0.002-0.002,0.005-0.004,0.008
			c-0.035-0.041-0.074-0.077-0.106-0.119c-0.001,0.003-0.002,0.005-0.004,0.007c-0.033-0.041-0.072-0.076-0.106-0.117
			c-0.001,0.002-0.002,0.005-0.004,0.008c-0.035-0.041-0.073-0.077-0.107-0.118c-0.001,0.002-0.002,0.005-0.004,0.007
			c-0.034-0.041-0.073-0.076-0.106-0.119c-0.001,0.002-0.002,0.006-0.005,0.008c-0.034-0.041-0.072-0.076-0.106-0.117
			c-0.266,0.457-0.418,0.986-0.418,1.552c0,0.84,0.344,1.595,0.89,2.151c0.035,0.039,0.073,0.072,0.11,0.109
			c0.036,0.04,0.075,0.074,0.112,0.112c0.034,0.039,0.072,0.071,0.108,0.108c0.021,0.023,0.04,0.047,0.062,0.068
			c-0.472-0.027-0.917-0.154-1.309-0.37v0.037c0,0.937,0.418,1.776,1.077,2.341c0.038,0.036,0.072,0.077,0.111,0.111
			c0.039,0.037,0.073,0.078,0.112,0.111c0.037,0.035,0.069,0.076,0.108,0.108c0.038,0.036,0.071,0.077,0.111,0.111
			c0.039,0.036,0.071,0.077,0.111,0.112c0.038,0.035,0.07,0.076,0.109,0.109c0.034,0.032,0.063,0.07,0.099,0.102
			c-0.062,0.002-0.117,0.023-0.181,0.023c-0.198,0-0.392-0.018-0.579-0.054c0.156,0.489,0.436,0.92,0.795,1.269
			c0.037,0.041,0.075,0.077,0.114,0.114c0.036,0.038,0.073,0.074,0.11,0.11c0.034,0.037,0.07,0.072,0.107,0.109
			c0.037,0.039,0.075,0.075,0.113,0.113c0.036,0.038,0.073,0.073,0.11,0.109c0.035,0.039,0.073,0.074,0.111,0.111
			c0.036,0.039,0.073,0.073,0.111,0.11c0.035,0.038,0.071,0.073,0.108,0.108c0.036,0.039,0.074,0.076,0.112,0.113
			c0.036,0.037,0.073,0.073,0.11,0.109c0.036,0.039,0.073,0.075,0.111,0.111c0.035,0.039,0.073,0.074,0.111,0.11
			c0.007,0.009,0.013,0.017,0.02,0.023c-0.913,0.526-1.967,0.836-3.096,0.836c-0.249,0-0.493-0.015-0.735-0.042
			c0.067,0.043,0.144,0.074,0.213,0.115c-0.034-0.002-0.069-0.002-0.104-0.006c0.068,0.045,0.146,0.076,0.215,0.117
			c-0.034-0.003-0.069-0.002-0.104-0.006c0.068,0.043,0.144,0.075,0.213,0.117c-0.034-0.003-0.069-0.002-0.103-0.006
			c0.067,0.043,0.144,0.074,0.213,0.115c-0.034-0.002-0.069-0.002-0.104-0.006c0.068,0.045,0.146,0.076,0.214,0.117
			c-0.033-0.003-0.068-0.002-0.103-0.006c0.068,0.043,0.144,0.075,0.213,0.116c-0.034-0.003-0.069-0.002-0.102-0.006
			c0.067,0.043,0.144,0.075,0.213,0.116c-0.034-0.002-0.069-0.002-0.104-0.006c0.068,0.043,0.145,0.075,0.213,0.117
			c-0.033-0.003-0.068-0.002-0.103-0.006c0.068,0.043,0.144,0.075,0.212,0.116c-0.033-0.003-0.068-0.002-0.102-0.006
			c0.068,0.044,0.146,0.075,0.216,0.118c-0.035-0.004-0.07-0.002-0.104-0.006c0.068,0.043,0.145,0.074,0.214,0.117
			c-0.033-0.004-0.068-0.003-0.104-0.007c0.068,0.043,0.144,0.075,0.213,0.116c-0.034-0.003-0.068-0.002-0.102-0.006
			c0.067,0.044,0.145,0.074,0.214,0.117c-0.034-0.004-0.069-0.002-0.104-0.006c0.068,0.043,0.145,0.074,0.213,0.115
			c-0.033-0.003-0.068-0.002-0.102-0.006c0.068,0.043,0.144,0.075,0.213,0.117c-0.034-0.003-0.069-0.002-0.103-0.006
			c0.067,0.043,0.144,0.074,0.214,0.117c-0.034-0.004-0.069-0.002-0.104-0.006c0.068,0.043,0.145,0.074,0.213,0.115
			c-0.033-0.003-0.068-0.002-0.103-0.006c0.067,0.044,0.145,0.075,0.214,0.117c-0.034-0.003-0.069-0.002-0.104-0.006
			c0.068,0.043,0.145,0.074,0.214,0.115c-0.034-0.002-0.068-0.002-0.103-0.006c0.068,0.043,0.145,0.075,0.213,0.117
			c-0.034-0.003-0.068-0.002-0.103-0.006c0.067,0.044,0.145,0.075,0.214,0.117c-0.034-0.003-0.069-0.002-0.104-0.006
			c0.068,0.043,0.145,0.074,0.214,0.115c-0.034-0.002-0.069-0.002-0.104-0.006c0.068,0.043,0.145,0.075,0.213,0.117
			c-0.034-0.003-0.068-0.002-0.103-0.006c0.067,0.043,0.144,0.075,0.213,0.116c-0.034-0.003-0.069-0.002-0.103-0.007
			c0.068,0.045,0.146,0.076,0.215,0.117c-0.034-0.002-0.07-0.002-0.104-0.006c0.068,0.045,0.146,0.075,0.214,0.117
			c-0.034-0.003-0.068-0.002-0.103-0.006c0.067,0.043,0.144,0.075,0.213,0.116c-0.034-0.003-0.068-0.002-0.103-0.007
			c0.068,0.043,0.145,0.076,0.213,0.117c-0.033-0.002-0.068-0.002-0.103-0.006c0.068,0.043,0.144,0.075,0.213,0.117
			c-0.034-0.003-0.068-0.002-0.102-0.006c0.067,0.043,0.144,0.075,0.214,0.117c-0.034-0.003-0.069-0.002-0.104-0.006
			c0.068,0.043,0.145,0.074,0.213,0.117c-0.033-0.004-0.068-0.002-0.103-0.006c0.068,0.043,0.144,0.074,0.212,0.115
			c-0.033-0.003-0.068-0.002-0.102-0.006c0.067,0.043,0.144,0.075,0.213,0.117c-0.034-0.003-0.069-0.002-0.104-0.006
			c0.068,0.043,0.145,0.074,0.214,0.117c-0.033-0.004-0.068-0.002-0.103-0.006c0.068,0.043,0.144,0.074,0.214,0.116
			c-0.034-0.003-0.069-0.002-0.103-0.006c0.067,0.043,0.144,0.075,0.213,0.117c-0.034-0.003-0.069-0.002-0.104-0.007
			c0.068,0.043,0.145,0.076,0.213,0.117c-0.033-0.002-0.068-0.002-0.103-0.006c0.067,0.043,0.144,0.075,0.213,0.117
			c-0.034-0.003-0.069-0.002-0.104-0.006c0.068,0.044,0.146,0.075,0.215,0.117c-0.034-0.003-0.07-0.002-0.104-0.006
			c0.068,0.043,0.145,0.074,0.213,0.115c-0.034-0.002-0.068-0.002-0.103-0.006c0.067,0.043,0.144,0.075,0.213,0.117
			c-0.034-0.003-0.069-0.002-0.104-0.006c0.068,0.043,0.145,0.075,0.214,0.117c-0.034-0.003-0.068-0.002-0.103-0.006
			c0.068,0.043,0.145,0.074,0.213,0.117c-0.034-0.004-0.068-0.002-0.103-0.006c0.067,0.043,0.144,0.074,0.214,0.116
			c-0.034-0.003-0.069-0.002-0.104-0.006c0.068,0.043,0.145,0.075,0.214,0.117c-0.033-0.003-0.068-0.002-0.103-0.007
			c0.068,0.044,0.144,0.076,0.214,0.117c-0.034-0.002-0.069-0.002-0.104-0.006c0.067,0.043,0.144,0.075,0.213,0.116
			c-0.034-0.003-0.068-0.002-0.103-0.006c0.068,0.043,0.145,0.075,0.213,0.117c-0.033-0.003-0.068-0.002-0.103-0.007
			c0.068,0.043,0.144,0.076,0.213,0.117c-0.034-0.002-0.069-0.002-0.103-0.006c0.067,0.043,0.144,0.075,0.214,0.117
			c-0.034-0.003-0.069-0.002-0.104-0.006c0.068,0.043,0.146,0.075,0.214,0.117c-0.033-0.003-0.068-0.002-0.103-0.006
			c0.068,0.043,0.144,0.074,0.213,0.115c-0.034-0.002-0.068-0.002-0.102-0.006c0.067,0.045,0.145,0.075,0.214,0.117
			c-0.034-0.003-0.069-0.002-0.104-0.006c0.068,0.044,0.146,0.075,0.214,0.117c-0.033-0.003-0.068-0.002-0.104-0.006
			c0.068,0.043,0.144,0.074,0.213,0.115c-0.034-0.002-0.068-0.002-0.102-0.006c0.067,0.043,0.144,0.075,0.213,0.116
			c-0.034-0.003-0.069-0.002-0.103-0.006c0.068,0.044,0.146,0.075,0.214,0.117c-0.033-0.003-0.068-0.002-0.104-0.007
			c0.067,0.043,0.144,0.076,0.213,0.117c-0.034-0.002-0.069-0.002-0.104-0.006c0.068,0.043,0.145,0.075,0.214,0.117
			c-0.034-0.003-0.069-0.002-0.104-0.006c0.068,0.043,0.145,0.075,0.213,0.116c-0.034-0.003-0.068-0.003-0.103-0.007
			c0.067,0.045,0.145,0.076,0.214,0.117c-0.034-0.002-0.069-0.002-0.104-0.006c0.068,0.043,0.145,0.075,0.214,0.116
			c-0.034-0.003-0.068-0.002-0.103-0.006c0.068,0.044,0.146,0.075,0.214,0.117c-0.034-0.003-0.069-0.003-0.104-0.007
			c0.067,0.043,0.144,0.076,0.213,0.117c-0.034-0.004-0.069-0.002-0.104-0.007c0.068,0.044,0.145,0.075,0.213,0.117
			c-0.033-0.003-0.067-0.002-0.102-0.006c0.068,0.044,0.146,0.075,0.214,0.117c-0.034-0.003-0.068-0.003-0.103-0.007
			c0.066,0.043,0.143,0.074,0.212,0.117c-0.034-0.004-0.068-0.002-0.103-0.007c0.068,0.044,0.146,0.075,0.214,0.117
			c-0.033-0.003-0.069-0.002-0.104-0.006c0.068,0.043,0.144,0.075,0.213,0.116c-0.034-0.004-0.068-0.002-0.102-0.006
			c0.067,0.043,0.145,0.074,0.214,0.117c-0.034-0.004-0.069-0.002-0.104-0.007c0.068,0.043,0.145,0.075,0.214,0.117
			c-0.033-0.003-0.069-0.002-0.104-0.006c0.068,0.043,0.144,0.075,0.213,0.116c-0.034-0.004-0.069-0.002-0.103-0.006
			c0.067,0.043,0.144,0.074,0.214,0.117c-0.034-0.004-0.069-0.002-0.104-0.007c0.068,0.044,0.146,0.075,0.214,0.117
			c-0.033-0.003-0.068-0.002-0.103-0.006c0.068,0.043,0.144,0.075,0.213,0.116c-0.034-0.004-0.069-0.002-0.103-0.006
			c0.067,0.043,0.144,0.074,0.213,0.117c-0.034-0.004-0.069-0.002-0.104-0.007c0.068,0.043,0.146,0.075,0.214,0.117
			c-0.033-0.003-0.068-0.002-0.104-0.006c0.067,0.044,0.145,0.075,0.214,0.116c-0.034-0.002-0.069-0.002-0.103-0.006
			c0.067,0.043,0.144,0.076,0.213,0.117c-0.034-0.004-0.069-0.003-0.104-0.007c0.068,0.043,0.145,0.075,0.213,0.116
			c-0.034-0.003-0.067-0.002-0.102-0.006c0.067,0.044,0.145,0.074,0.214,0.117c-0.034-0.004-0.069-0.002-0.104-0.006
			c0.068,0.043,0.145,0.074,0.215,0.117c-0.034-0.004-0.069-0.003-0.104-0.007c0.068,0.043,0.145,0.075,0.213,0.117
			c-0.034-0.003-0.068-0.002-0.103-0.006c0.067,0.043,0.144,0.075,0.213,0.116c-0.034-0.004-0.068-0.002-0.103-0.006
			c0.057,0.035,0.116,0.063,0.175,0.095C83.44,38.282,88.598,33.318,89.743,26.948z"/>
		<path fill="#F4F4F4" d="M82.506,20.341c-0.552,0.246-1.146,0.412-1.77,0.485c0.638-0.382,1.125-0.985,1.355-1.704
			c-0.597,0.353-1.256,0.608-1.959,0.746c-0.561-0.6-1.362-0.973-2.25-0.973c-1.702,0-3.083,1.381-3.083,3.083
			c0,0.241,0.026,0.478,0.08,0.702c-2.562-0.131-4.833-1.355-6.354-3.223c-0.267,0.457-0.418,0.986-0.418,1.553
			c0,1.067,0.544,2.012,1.371,2.563c-0.505-0.015-0.981-0.155-1.396-0.384v0.037c0,1.494,1.062,2.74,2.474,3.023
			c-0.258,0.071-0.53,0.106-0.812,0.106c-0.198,0-0.393-0.019-0.579-0.054c0.392,1.225,1.531,2.117,2.879,2.14
			c-1.055,0.828-2.384,1.319-3.828,1.319c-0.249,0-0.494-0.014-0.735-0.041c1.364,0.873,2.983,1.384,4.725,1.384
			c5.671,0,8.771-4.696,8.771-8.771c0-0.135-0.003-0.269-0.009-0.399C81.571,21.503,82.093,20.96,82.506,20.341"/>
	</g>
	<g>
		<path fill="#4B4B4B" d="M125,40c8.284,0,15-6.717,15-15s-6.716-14.999-15-14.999S110,16.717,110,25S116.716,40,125,40"/>
		<path opacity="0.1" enable-background="new    " d="M139.309,28.827h-0.09l0.113-0.082c0.004-0.01,0.006-0.021,0.008-0.03h-0.231
			l0.153-0.111h-0.266l0.154-0.11h-0.268l0.155-0.112h-0.266l0.153-0.111h-0.266l0.154-0.11h-0.266l0.153-0.111h-0.266l0.153-0.111
			h-0.265l0.154-0.111h-0.267l0.154-0.11h-0.266l0.154-0.11h-0.267l0.154-0.111h-0.265l0.153-0.111h-0.267l0.154-0.111h-0.266
			l0.154-0.111h-0.268l0.155-0.111h-0.265l0.154-0.111h-0.266l0.154-0.111h-0.266l0.153-0.11h-0.267l0.154-0.112h-0.265l0.153-0.111
			h-0.266l0.153-0.11h-0.267l0.154-0.11h-0.266l0.154-0.111h-0.267l0.154-0.111h-0.267l0.154-0.111h-0.266l0.154-0.111h-0.268
			l0.155-0.111h-0.265l0.153-0.111h-0.266l0.153-0.111h-0.267l0.155-0.111h-0.268l0.155-0.111h-0.264l0.153-0.111h-0.267
			l0.154-0.111h-0.267l0.154-0.111h-0.266l0.154-0.111h-0.266l0.154-0.111h-0.266l0.154-0.111h-0.268l0.156-0.111h-0.267
			l0.153-0.111h-0.264l0.153-0.111h-0.267l0.154-0.111h-0.266l0.154-0.11h-0.268l0.155-0.112h-0.265l0.154-0.111h-0.267l0.153-0.11
			h-0.266l0.154-0.11h-0.266l0.154-0.111h-0.266l0.154-0.111h-0.266l0.154-0.111h-0.266l0.154-0.11h-0.267l0.153-0.111h-0.265
			l0.154-0.11h-0.267l0.154-0.111h-0.266l0.154-0.111h-0.268l0.155-0.111h-0.265l0.153-0.111h-0.266l0.153-0.111h-0.267l0.155-0.111
			h-0.266l0.154-0.111h-0.266l0.154-0.111h-0.267l0.154-0.111h-0.265l0.153-0.11h-0.267l0.156-0.112h-0.266l0.154-0.111h-0.266
			l0.153-0.11h-0.267L132,21.376h-0.266l0.154-0.111h-0.266l0.154-0.11h-0.266l0.154-0.111H131.4l0.154-0.11h-0.268l0.155-0.112
			h-0.265l0.154-0.111h-0.267l0.153-0.11h-0.266l0.154-0.111h-0.266l0.154-0.111h-0.267l0.153-0.111h-0.264l0.153-0.11h-0.267
			l0.154-0.111h-0.267l0.155-0.112h-0.267l0.154-0.11h-0.265l0.152-0.111h-0.266l0.154-0.112h-0.266l0.154-0.11h-0.266l0.153-0.111
			h-0.266l0.153-0.11h-0.265l0.154-0.111H129.5l0.154-0.112h-0.265l0.153-0.11h-0.266l0.154-0.111h-0.266l0.153-0.111h-0.266
			l0.153-0.111h-0.266l0.154-0.11h-0.266l0.154-0.11h-0.266l0.154-0.111h-0.267l0.155-0.112h-0.266l0.153-0.11h-0.267l0.154-0.111
			h-0.267l0.155-0.112h-0.266l0.154-0.11h-0.266l0.154-0.111h-0.267l0.153-0.111h-0.266l0.154-0.111h-0.268l0.156-0.111h-0.267
			l0.153-0.111h-0.265l0.154-0.111h-0.267l0.154-0.111h-0.265l0.153-0.111h-4.646c-2.082,0-4.042,1.578-4.042,3.404
			c0,0.96,0.38,1.82,1.032,2.435c0.035,0.038,0.072,0.075,0.11,0.111c0.037,0.038,0.073,0.075,0.111,0.11
			c0.037,0.039,0.073,0.076,0.112,0.112c0.037,0.038,0.072,0.075,0.111,0.111c0.036,0.038,0.073,0.075,0.111,0.11
			c0.036,0.039,0.072,0.074,0.109,0.11c0.036,0.039,0.073,0.076,0.112,0.113c0.036,0.038,0.072,0.075,0.11,0.11
			c0.037,0.039,0.074,0.076,0.112,0.111c0.035,0.038,0.071,0.074,0.109,0.11c0.037,0.038,0.073,0.075,0.112,0.112
			c0.037,0.039,0.074,0.076,0.113,0.112c0.036,0.037,0.071,0.074,0.108,0.109c0.037,0.038,0.073,0.075,0.112,0.112
			c0.036,0.037,0.072,0.074,0.11,0.11c0.037,0.039,0.074,0.077,0.113,0.113c0.035,0.037,0.072,0.073,0.108,0.108
			c0.037,0.039,0.073,0.076,0.112,0.112c0.037,0.038,0.072,0.075,0.111,0.111c0.037,0.038,0.072,0.075,0.111,0.11
			c0.037,0.039,0.074,0.076,0.113,0.113c0.036,0.038,0.072,0.074,0.109,0.11c0.037,0.038,0.074,0.075,0.111,0.11
			c0.036,0.039,0.073,0.076,0.111,0.111c0.036,0.038,0.072,0.076,0.111,0.112c0.037,0.038,0.072,0.075,0.11,0.11
			c0.037,0.039,0.073,0.076,0.111,0.111c0.022,0.023,0.042,0.053,0.065,0.075c-0.178,0.002-0.354,0.005-0.543,0.005
			c-2.58,0-4.565,1.643-4.565,3.348c0,0.633,0.312,1.176,0.838,1.607c0.04,0.037,0.069,0.078,0.111,0.111
			c0.04,0.037,0.069,0.078,0.112,0.113c0.039,0.035,0.069,0.076,0.111,0.11c0.039,0.036,0.067,0.076,0.109,0.11
			c0.04,0.035,0.07,0.076,0.113,0.111c0.039,0.036,0.069,0.077,0.111,0.111c0.039,0.036,0.068,0.077,0.11,0.111
			c0.04,0.035,0.069,0.076,0.111,0.111c0.039,0.035,0.069,0.075,0.11,0.11c0.04,0.036,0.068,0.077,0.111,0.11
			c0.04,0.037,0.069,0.078,0.112,0.113c0.039,0.035,0.069,0.075,0.111,0.11c0.039,0.036,0.068,0.077,0.11,0.112
			c0.04,0.035,0.069,0.076,0.111,0.111c0.039,0.035,0.069,0.075,0.111,0.11c0.04,0.036,0.068,0.077,0.111,0.112
			c0.04,0.035,0.069,0.076,0.111,0.111c0.04,0.035,0.069,0.076,0.112,0.111c0.04,0.037,0.07,0.077,0.113,0.111
			c0.038,0.037,0.067,0.076,0.108,0.111c0.04,0.036,0.07,0.077,0.113,0.112c0.039,0.036,0.069,0.076,0.111,0.11
			c0.038,0.037,0.068,0.076,0.11,0.111c0.039,0.036,0.069,0.077,0.111,0.111c0.039,0.036,0.067,0.076,0.109,0.111
			c0.04,0.035,0.07,0.076,0.112,0.111c0.041,0.036,0.069,0.077,0.112,0.111c0.039,0.036,0.068,0.076,0.11,0.109
			c0.039,0.037,0.07,0.078,0.113,0.113c0.039,0.036,0.068,0.076,0.109,0.111c0.04,0.036,0.07,0.077,0.112,0.111
			c0.038,0.037,0.069,0.076,0.11,0.111c0.041,0.036,0.069,0.076,0.111,0.111c0.04,0.037,0.07,0.078,0.112,0.111
			c0.04,0.037,0.069,0.076,0.11,0.111c0.041,0.036,0.069,0.077,0.111,0.111c0.04,0.036,0.07,0.077,0.112,0.111
			c0.039,0.037,0.069,0.076,0.11,0.111c0.039,0.036,0.068,0.077,0.111,0.111c0.04,0.036,0.069,0.077,0.112,0.111
			c0.039,0.037,0.067,0.076,0.108,0.111c0.041,0.036,0.071,0.077,0.114,0.112c0.04,0.036,0.069,0.076,0.111,0.111
			c0.039,0.036,0.069,0.075,0.11,0.11c0.041,0.037,0.07,0.078,0.112,0.112c0.039,0.036,0.068,0.076,0.109,0.11
			c0.04,0.035,0.069,0.076,0.11,0.111c0.041,0.036,0.07,0.077,0.112,0.112c0.04,0.037,0.07,0.078,0.113,0.112
			c0.039,0.035,0.067,0.076,0.11,0.109c0.039,0.037,0.068,0.077,0.11,0.111c0.039,0.036,0.069,0.077,0.111,0.111
			c0.04,0.037,0.069,0.076,0.112,0.111c0.039,0.037,0.069,0.077,0.111,0.112c0.039,0.036,0.069,0.077,0.111,0.111
			c0.039,0.036,0.068,0.075,0.109,0.11c0.039,0.035,0.069,0.076,0.111,0.111c0.04,0.036,0.069,0.077,0.112,0.112
			c0.04,0.036,0.069,0.077,0.112,0.11c0.039,0.037,0.067,0.076,0.109,0.111c0.04,0.036,0.07,0.077,0.112,0.112
			c0.039,0.036,0.069,0.077,0.11,0.11c0.041,0.037,0.069,0.078,0.113,0.111c0.038,0.036,0.067,0.076,0.109,0.111
			c0.04,0.035,0.07,0.076,0.111,0.111c0.041,0.037,0.069,0.078,0.111,0.111c0.039,0.036,0.069,0.077,0.111,0.111
			c0.039,0.035,0.068,0.076,0.111,0.111c0.039,0.035,0.07,0.076,0.113,0.111c0.039,0.036,0.068,0.077,0.11,0.111
			c0.039,0.035,0.067,0.076,0.11,0.109c0.039,0.036,0.068,0.077,0.111,0.111c0.039,0.037,0.069,0.078,0.112,0.113
			c0.04,0.035,0.069,0.076,0.112,0.111c0.039,0.035,0.066,0.075,0.109,0.108c0.041,0.037,0.07,0.079,0.114,0.114
			c0.011,0.009,0.019,0.019,0.028,0.027C132.877,38.36,137.604,34.27,139.309,28.827z"/>
		<path fill="#F4F4F4" d="M122.547,31.757c-1.784,0-3.072-1.128-3.072-2.483c0-1.33,1.599-2.437,3.382-2.416
			c0.417,0.004,0.804,0.07,1.155,0.185c0.967,0.673,1.662,1.053,1.858,1.821c0.037,0.154,0.058,0.313,0.058,0.478
			C125.928,30.699,125.053,31.757,122.547,31.757 M123.014,23.807c-1.195-0.035-2.333-1.338-2.54-2.91s0.597-2.774,1.792-2.738
			c1.197,0.035,2.336,1.296,2.541,2.867C125.014,22.598,124.213,23.843,123.014,23.807 M125.496,26.134
			c-0.419-0.296-1.223-1.019-1.223-1.444c0-0.498,0.143-0.742,0.893-1.328c0.768-0.601,1.312-1.445,1.312-2.426
			c0-1.168-0.52-2.308-1.498-2.685h1.474l1.04-0.75h-4.646c-2.082,0-4.042,1.578-4.042,3.403c0,1.869,1.419,3.377,3.538,3.377
			c0.148,0,0.291-0.004,0.432-0.014c-0.139,0.262-0.236,0.56-0.236,0.866c0,0.519,0.279,0.94,0.633,1.284
			c-0.268,0-0.524,0.007-0.805,0.007c-2.58,0-4.566,1.644-4.566,3.347c0,1.678,2.179,2.728,4.758,2.728
			c2.939,0,4.564-1.668,4.564-3.347C127.121,27.809,126.723,27.002,125.496,26.134 M132.256,23.943h-1.809v-1.809h-1.456v1.809
			h-1.808v1.455h1.808v1.81h1.456v-1.81h1.809V23.943z"/>
	</g>
	<g>
		<path fill="#1384C7" d="M175,40c8.285,0,15-6.716,15-15c0-8.283-6.715-15-15-15c-8.284,0-15,6.716-15,15
			C160,33.283,166.716,40,175,40"/>
		<path opacity="0.1" enable-background="new    " d="M188.967,30.711c-0.018-0.019-0.035-0.036-0.054-0.054
			c-0.03-0.032-0.062-0.062-0.092-0.094s-0.062-0.062-0.093-0.092c-0.03-0.033-0.063-0.063-0.096-0.096
			c-0.029-0.032-0.061-0.061-0.092-0.092c-0.029-0.032-0.062-0.062-0.093-0.094c-0.03-0.032-0.062-0.062-0.093-0.092
			c-0.03-0.033-0.062-0.062-0.094-0.094c-0.03-0.033-0.062-0.062-0.094-0.095s-0.062-0.062-0.093-0.093
			c-0.03-0.032-0.062-0.062-0.093-0.092c-0.03-0.033-0.062-0.062-0.094-0.094c-0.03-0.033-0.062-0.062-0.094-0.093
			c-0.031-0.033-0.062-0.063-0.095-0.095c-0.03-0.032-0.062-0.062-0.092-0.092c-0.03-0.033-0.062-0.062-0.095-0.095
			c-0.029-0.032-0.062-0.062-0.092-0.092c-0.031-0.033-0.062-0.063-0.095-0.094c-0.03-0.033-0.062-0.062-0.093-0.093
			c-0.03-0.032-0.062-0.062-0.094-0.094c-0.029-0.033-0.062-0.062-0.094-0.094c-0.029-0.032-0.062-0.062-0.093-0.093
			c-0.03-0.033-0.062-0.062-0.093-0.093c-0.03-0.033-0.062-0.062-0.094-0.094c-0.03-0.033-0.062-0.062-0.094-0.094
			c-0.029-0.033-0.062-0.062-0.093-0.093c-0.03-0.033-0.062-0.062-0.093-0.093c-0.029-0.033-0.062-0.062-0.093-0.094
			c-0.03-0.033-0.062-0.062-0.095-0.094c-0.029-0.031-0.062-0.062-0.092-0.093c-0.031-0.033-0.062-0.062-0.094-0.093
			c-0.029-0.033-0.062-0.062-0.093-0.094c-0.03-0.033-0.062-0.062-0.095-0.094c-0.029-0.033-0.062-0.062-0.094-0.094
			c-0.029-0.032-0.061-0.061-0.092-0.092c-0.029-0.032-0.062-0.062-0.094-0.094c-0.03-0.033-0.062-0.062-0.094-0.094
			c-0.029-0.031-0.062-0.061-0.092-0.092c-0.031-0.033-0.062-0.062-0.095-0.096c-0.03-0.032-0.062-0.062-0.094-0.094
			c-0.03-0.031-0.062-0.062-0.093-0.093c-0.03-0.032-0.062-0.062-0.094-0.093c-0.029-0.033-0.062-0.062-0.094-0.094
			c-0.029-0.032-0.062-0.062-0.092-0.094c-0.029-0.033-0.062-0.062-0.094-0.094c-0.03-0.033-0.062-0.062-0.094-0.093
			c-0.029-0.033-0.062-0.062-0.092-0.093c-0.031-0.033-0.063-0.062-0.096-0.096c-0.029-0.031-0.062-0.062-0.092-0.092
			c-0.03-0.033-0.062-0.062-0.094-0.093c-0.029-0.032-0.062-0.063-0.094-0.094c-0.029-0.033-0.062-0.062-0.093-0.093
			c-0.03-0.032-0.062-0.062-0.093-0.094c-0.03-0.033-0.062-0.062-0.094-0.094c-0.03-0.031-0.062-0.062-0.092-0.092
			c-0.031-0.033-0.062-0.062-0.094-0.094c-0.031-0.033-0.062-0.063-0.095-0.096c-0.03-0.031-0.062-0.061-0.093-0.092
			c-0.029-0.033-0.062-0.062-0.092-0.093c-0.031-0.033-0.062-0.062-0.095-0.095c-0.03-0.031-0.062-0.061-0.091-0.092
			c-0.031-0.033-0.062-0.062-0.096-0.095c-0.029-0.032-0.062-0.062-0.092-0.093c-0.03-0.032-0.062-0.062-0.094-0.093
			c-0.029-0.033-0.062-0.062-0.094-0.093c-0.029-0.032-0.062-0.062-0.092-0.094c-0.031-0.033-0.062-0.062-0.094-0.094
			c-0.03-0.032-0.062-0.062-0.094-0.092c-0.029-0.033-0.062-0.062-0.094-0.096c-0.029-0.031-0.062-0.062-0.093-0.092
			c-0.03-0.033-0.062-0.062-0.095-0.093c-0.029-0.032-0.062-0.062-0.092-0.094c-0.031-0.032-0.062-0.062-0.094-0.093
			c-0.029-0.033-0.062-0.062-0.093-0.094c-0.03-0.033-0.062-0.062-0.093-0.093c-0.03-0.032-0.062-0.062-0.094-0.093
			c-0.031-0.033-0.062-0.062-0.094-0.094c-0.029-0.033-0.062-0.062-0.093-0.094c-0.03-0.033-0.062-0.062-0.093-0.093
			c-0.03-0.032-0.062-0.062-0.094-0.093c-0.031-0.032-0.062-0.062-0.094-0.094c-0.67-0.725-1.609-1.077-2.667-1.077
			c-1.013,0-1.792,0.336-2.296,0.743h-0.062v-0.094h-0.092v-0.093h-0.094V22.58h-0.094v-0.093h-0.094v-0.094h-0.094V22.3h-0.093
			v-0.093h-1.356c-0.022-0.022-0.045-0.043-0.068-0.063c-0.03-0.031-0.061-0.063-0.094-0.093c-0.029-0.032-0.059-0.063-0.092-0.094
			c-0.03-0.032-0.062-0.063-0.095-0.094c-0.03-0.032-0.06-0.063-0.092-0.093c-0.03-0.031-0.06-0.063-0.093-0.094
			c-0.031-0.033-0.061-0.063-0.096-0.095c-0.029-0.031-0.06-0.062-0.092-0.092c-0.029-0.032-0.06-0.063-0.093-0.093
			c-0.03-0.032-0.062-0.064-0.094-0.094c-0.03-0.033-0.062-0.064-0.095-0.095c-0.029-0.032-0.059-0.063-0.092-0.092
			c-0.031-0.032-0.061-0.063-0.095-0.095c-0.03-0.031-0.06-0.062-0.092-0.092c-0.03-0.033-0.062-0.064-0.095-0.094
			c-0.029-0.031-0.06-0.064-0.092-0.093c-0.031-0.032-0.061-0.063-0.094-0.093c-0.029-0.033-0.061-0.065-0.095-0.096
			c-0.03-0.031-0.06-0.062-0.093-0.092c-0.029-0.033-0.061-0.064-0.094-0.094c-0.029-0.031-0.059-0.062-0.092-0.092
			c-0.029-0.032-0.061-0.064-0.094-0.094c-0.029-0.032-0.061-0.064-0.094-0.095c-0.03-0.032-0.061-0.062-0.094-0.092
			c-0.029-0.032-0.061-0.063-0.094-0.094c-0.029-0.032-0.06-0.063-0.093-0.093c-0.03-0.032-0.06-0.063-0.092-0.092
			c-0.03-0.033-0.06-0.063-0.093-0.094c-0.03-0.033-0.062-0.064-0.094-0.094c-0.031-0.032-0.061-0.062-0.094-0.094
			c-0.029-0.031-0.061-0.063-0.094-0.094c-0.03-0.031-0.061-0.062-0.094-0.092c-0.03-0.033-0.062-0.064-0.094-0.095
			c-0.031-0.031-0.06-0.062-0.092-0.091c-0.029-0.032-0.061-0.064-0.094-0.094c-0.03-0.033-0.061-0.063-0.094-0.094
			c-0.029-0.031-0.06-0.064-0.092-0.093c-0.031-0.032-0.061-0.063-0.094-0.094c-0.029-0.032-0.061-0.064-0.094-0.093
			c-0.03-0.032-0.061-0.064-0.094-0.095c-0.03-0.03-0.061-0.062-0.094-0.092c-0.033-0.036-0.067-0.069-0.104-0.103
			c-0.306-0.32-0.754-0.52-1.323-0.52c-1.078,0-1.785,0.7-1.785,1.625c0,0.473,0.188,0.889,0.518,1.184
			c0.029,0.033,0.061,0.063,0.094,0.094c0.029,0.031,0.061,0.064,0.093,0.094c0.03,0.032,0.06,0.062,0.093,0.092
			c0.029,0.033,0.061,0.064,0.094,0.094c0.031,0.032,0.061,0.063,0.094,0.094c0.029,0.031,0.061,0.063,0.093,0.093
			c0.03,0.032,0.06,0.063,0.093,0.093c0.03,0.031,0.06,0.062,0.092,0.092c0.031,0.033,0.062,0.065,0.096,0.096
			c0.029,0.031,0.061,0.062,0.093,0.093c0.03,0.032,0.062,0.063,0.095,0.094c0.029,0.032,0.06,0.063,0.092,0.093
			c0.031,0.032,0.061,0.064,0.094,0.094c0.031,0.033,0.062,0.064,0.095,0.095c0.03,0.032,0.06,0.063,0.093,0.092
			c0.03,0.032,0.061,0.063,0.094,0.093c0.029,0.032,0.061,0.064,0.094,0.094c0.006,0.008,0.012,0.016,0.02,0.022h-1.746v9.356h0.094
			v0.094h0.094v0.093h0.093v0.093h0.093v0.094h0.094v0.094h0.094v0.093h0.093v0.093h0.093v0.094h0.094v0.094h0.094v0.093h0.093
			v0.093h0.093v0.094h0.094v0.093h0.094v0.094h0.093v0.093h0.095v0.094h0.092v0.093h0.095v0.093h0.093v0.094h0.093v0.094h0.095
			v0.092h0.092v0.094h0.094v0.093h0.093v0.093h0.093v0.094h0.094v0.093h0.094v0.093h0.093v0.094h0.095v0.094h0.092v0.094h0.095
			v0.093h0.093v0.093h0.094v0.094h0.094v0.094h0.093v0.093h0.093v0.093h0.094v0.094h0.094v0.092h0.093v0.095h0.093v0.093h0.093
			v0.094h0.095v0.094h0.092v0.093h0.094v0.093h0.093v0.094h0.093v0.094h0.094v0.093h0.093v0.093h0.093v0.094h0.094v0.094h0.094
			v0.094h0.093v0.093h0.094v0.095h0.093v0.092h0.094v0.094h0.093v0.093h0.094v0.093h0.095v0.094h0.092v0.094h0.094v0.094h0.094
			v0.094h0.094v0.094h0.094v0.094h0.093v0.093h0.093v0.094h0.094v0.095h0.094v0.092h0.094v0.094h0.093v0.094h0.093v0.094h0.094
			v0.092h0.092v0.094h0.094v0.094h0.094v0.094h0.094v0.094h0.092v0.093h0.094v0.093h0.093v0.094h0.095v0.094h0.092v0.093h0.095
			v0.094h0.093v0.095h0.094v0.092h0.092v0.094h0.094v0.093h0.094v0.094h0.09v0.095h0.093v0.093h0.095v0.094h0.094v0.093h0.093v0.094
			h0.093v0.094h0.094v0.057C182.238,39.622,186.971,35.851,188.967,30.711z"/>
		<path fill="#F4F4F4" d="M170.797,31.887h-2.926V22.53h2.926V31.887z M169.258,21.359h-0.021c-1.06,0-1.744-0.715-1.744-1.621
			c0-0.924,0.707-1.625,1.786-1.625c1.078,0,1.742,0.699,1.764,1.622C171.043,20.643,170.356,21.359,169.258,21.359z
			 M182.493,31.887h-3.315v-4.843c0-1.267-0.518-2.131-1.658-2.131c-0.874,0-1.358,0.583-1.583,1.146
			c-0.085,0.201-0.072,0.483-0.072,0.765v5.063h-3.284c0,0,0.042-8.578,0-9.356h3.284v1.468c0.194-0.642,1.244-1.558,2.918-1.558
			c2.077,0,3.71,1.346,3.71,4.243L182.493,31.887L182.493,31.887z"/>
	</g>
	<g>
		<path opacity="0.15" fill="#4B4B4B" enable-background="new    " d="M225,40.02c8.296,0,15.02-6.725,15.02-15.02
			c0-8.293-6.724-15.02-15.02-15.02c-8.294,0-15.02,6.726-15.02,15.02C209.98,33.295,216.706,40.02,225,40.02"/>
		<path opacity="0.05" enable-background="new    " d="M225,39.941c8.296,0,15.02-6.725,15.02-15.02c0-0.27-0.026-0.533-0.041-0.8
			h-0.018v-0.062h-0.062v-0.062h-0.062v-0.064h-0.062v-0.062h-0.062v-0.062h-0.062v-0.063h-0.062v-0.062h-0.062v-0.063h-0.062
			v-0.062h-0.063v-0.063h-0.062v-0.063h-0.062v-0.062h-0.062v-0.062h-0.062v-0.062h-0.062v-0.063h-0.063v-0.062h-0.062v-0.062H238.9
			v-0.063h-0.063v-0.062h-0.062V22.87h-0.062v-0.063h-0.062v-0.062h-0.063v-0.063h-0.063V22.62h-0.062v-0.063H238.4v-0.062h-0.062
			v-0.062h-0.064v-0.064h-0.062v-0.062h-0.062v-0.062h-0.062v-0.062h-0.062v-0.062h-0.063v-0.062H237.9v-0.062h-0.063v-0.063h-0.062
			v-0.062h-0.063v-0.062h-0.062v-0.062h-0.063v-0.062h-0.062v-0.062h-0.063v-0.062h-0.063v-0.062h-0.062v-0.063h-0.063V21.37h-0.062
			v-0.062h-0.063v-0.062h-0.062v-0.062h-0.062v-0.062h-0.062v-0.062h-0.062v-0.062h-0.062v-0.062h-0.062v-0.062h-0.062v-0.062
			h-0.062v-0.062h-0.062v-0.062h-0.062v-0.062h-0.062v-0.062H236.4v-0.062h-0.064v-0.062h-0.062v-0.062h-0.062v-0.062h-0.063v-0.062
			h-0.062v-0.062h-0.063v-0.062h-0.062v-0.062h-0.062v-0.062h-0.062v-0.062h-0.063v-0.062h-0.062v-0.062h-0.063v-0.063h-0.062
			v-0.062h-0.063v-0.063h-0.062v-0.063h-0.062v-0.062h-0.062v-0.063h-0.062v-0.062h-0.063v-0.063h-0.062v-0.062h-0.062v-0.063
			h-0.062v-0.062h-0.062v-0.062H234.9v-0.062h-0.062v-0.062h-0.062v-0.062h-0.062v-0.062h-0.063v-0.062h-0.062v-0.064h-0.062v-0.062
			h-0.062v-0.063H234.4v-0.062h-0.062v-0.063h-0.062v-0.062h-0.062v-0.062h-0.062v-0.062h-0.062v-0.062h-0.062v-0.062h-0.062v-0.062
			h-17.891v0.019v0.218v13.359v0.019v0.22h0.062v0.062h0.063v0.062h0.062v0.062h0.063v0.062h0.062v0.062h0.063v0.062h0.062v0.062
			h0.062v0.062h0.062v0.062h0.062v0.062h0.062v0.062h0.062v0.062h0.063v0.062h0.062v0.062h0.063v0.063h0.062v0.062h0.063v0.062
			h0.062v0.062h0.062v0.063h0.062v0.062h0.062v0.062h0.063v0.064h0.062v0.062h0.062v0.062h0.062v0.062h0.062v0.062h0.062v0.063
			h0.062v0.063h0.062v0.062h0.062v0.063h0.062v0.062h0.062v0.062h0.062v0.062h0.062v0.062h0.063v0.063h0.062v0.062h0.062v0.062
			h0.062v0.062h0.062v0.062h0.062v0.063h0.062v0.062h0.062v0.062h0.062v0.063h0.062v0.062h0.062v0.062h0.062v0.062H219v0.063h0.062
			v0.062h0.062v0.063h0.062v0.062h0.062v0.062h0.062v0.062h0.062v0.062h0.063v0.062h0.062v0.062h0.062v0.062h0.062v0.062h0.062
			v0.064h0.062v0.062h0.062v0.063h0.063v0.062h0.062v0.063h0.063v0.062h0.062v0.062h0.062v0.062h0.064v0.062h0.062v0.062h0.063
			v0.062h0.062v0.062h0.063v0.062h0.062v0.062h0.062v0.062h0.062v0.062h0.062v0.062h0.063v0.062h0.062v0.062h0.062v0.062h0.062
			v0.063h0.063v0.062h0.062v0.062h0.063v0.062h0.062v0.062h0.063v0.063h0.063v0.062h0.062v0.062h0.063v0.062h0.062v0.062h0.062
			v0.063h0.062v0.062h0.062v0.062h0.062v0.063h0.062v0.063h0.062v0.062h0.062v0.062h0.062v0.062h0.062v0.062h0.062v0.063h0.062
			v0.062h0.062v0.063h0.062v0.062h0.062v0.063h0.062v0.062h0.064v0.062h0.062v0.062h0.062v0.062h0.062v0.062h0.062v0.062h0.062
			v0.062h0.062v0.062h0.062v0.062h0.062v0.068h0.062v0.062h0.062v0.062h0.062v0.062h0.063v0.062h0.062v0.062h0.062v0.062h0.062
			v0.063h0.062v0.062h0.062v0.063h0.062v0.062h0.062v0.063h0.062v0.062h0.062v0.063h0.062v0.062h0.062v0.062h0.062v0.063h0.063v0.06
			C224.383,39.914,224.688,39.941,225,39.941z"/>
		<g>
			<g>
				<rect x="216.055" y="18.32" fill="#BDC3C7" width="17.891" height="13.597"/>
				<rect x="216.055" y="18.083" fill="#ECF0F1" width="17.891" height="13.596"/>
				<polygon fill="#DCDEE0" points="216.055,31.698 225,25.14 216.055,18.103 				"/>
				<polygon fill="#D0D3D6" points="225,25.14 233.945,31.698 233.945,18.103 				"/>
				<polygon fill="#BDC3C7" points="216.055,18.083 225,27.505 233.945,18.083 				"/>
				<polygon fill="#ECF0F1" points="216.055,18.083 225,25.597 233.945,18.083 				"/>
			</g>
		</g>
	</g>
	<g>
		<path fill="#25D366" enable-background="new    " d="M275,40.02c8.296,0,15.02-6.725,15.02-15.02c0-8.293-6.724-15.02-15.02-15.02
			c-8.294,0-15.02,6.726-15.02,15.02C259.98,33.295,266.706,40.02,275,40.02"/>
		<path opacity="0.1" d="M289.693,28.074c-0.863-0.936-1.797-1.961-2.774-2.775c-0.919-0.919-1.801-1.923-2.779-2.779
			c-0.927-0.926-1.852-1.853-2.778-2.779c-0.881-0.807-1.682-1.619-2.796-2.157c-4.32-2.084-9.646,0.15-11.22,4.666
			c-0.371,1.065-0.516,2.206-0.425,3.33c0.053,0.652,0.184,1.298,0.391,1.92c0.102,0.306,0.729,1.275,0.657,1.535
			c-0.347,1.269-0.694,2.537-1.042,3.806c-0.161,0.588,0.279,0.744,0.51,0.978c0.907,0.921,1.82,1.938,2.776,2.776
			c0.978,0.857,1.933,1.802,2.777,2.777c0.127,0.147,0.29,0.292,0.444,0.444c0.159,0.159,0.14,0.107,0.565,0.133
			c0,0.319,3.933-0.175,4.286-0.25c2.914-0.613,5.604-2.123,7.659-4.277c0.988-1.035,1.826-2.212,2.482-3.483
			C288.748,31.321,290.156,28.537,289.693,28.074z"/>
		<path fill-rule="evenodd" clip-rule="evenodd" fill="#FFFFFF" d="M280.792,19.175c-1.537-1.539-3.58-2.387-5.758-2.388
			c-4.486,0-8.137,3.651-8.139,8.139c-0.001,1.435,0.374,2.835,1.086,4.069l-1.155,4.218l4.314-1.133
			c1.189,0.648,2.527,0.991,3.89,0.991h0.003l0,0c4.485,0,8.137-3.651,8.139-8.139C283.174,22.758,282.328,20.713,280.792,19.175
			 M275.035,31.697h-0.003c-1.214,0-2.404-0.327-3.443-0.943l-0.247-0.146l-2.561,0.671l0.684-2.496l-0.161-0.256
			c-0.677-1.076-1.035-2.322-1.034-3.6c0.001-3.73,3.037-6.765,6.768-6.765c1.807,0,3.505,0.705,4.783,1.983
			c1.277,1.279,1.98,2.979,1.979,4.787C281.798,28.662,278.763,31.697,275.035,31.697 M278.745,26.631
			c-0.203-0.103-1.203-0.595-1.389-0.662c-0.187-0.068-0.322-0.102-0.458,0.102c-0.136,0.204-0.525,0.662-0.644,0.798
			c-0.119,0.136-0.237,0.152-0.44,0.051c-0.203-0.103-0.858-0.317-1.636-1.01c-0.604-0.539-1.013-1.205-1.131-1.409
			c-0.118-0.203-0.012-0.313,0.09-0.414c0.091-0.092,0.203-0.238,0.305-0.356c0.102-0.119,0.135-0.204,0.204-0.34
			c0.068-0.136,0.034-0.255-0.017-0.355c-0.051-0.103-0.458-1.104-0.627-1.511c-0.165-0.396-0.333-0.343-0.458-0.349
			c-0.118-0.006-0.253-0.008-0.389-0.008s-0.356,0.051-0.542,0.255c-0.187,0.203-0.712,0.695-0.712,1.696s0.729,1.969,0.83,2.104
			c0.102,0.136,1.434,2.189,3.475,3.07c0.485,0.21,0.864,0.334,1.159,0.429c0.488,0.154,0.931,0.132,1.282,0.08
			c0.391-0.059,1.203-0.492,1.373-0.967c0.169-0.476,0.169-0.883,0.119-0.967C279.083,26.783,278.948,26.732,278.745,26.631"/>
	</g>
	<g>
		<circle fill="none" cx="375" cy="25" r="15.02"/>
	</g>
</g>
<g id="layer-set-6">
</g>
<g id="layer-set-5">
</g>
<g id="layer-set-4">
</g>
<g id="layer-set-3">
</g>
<g id="layer-set-2">
</g>
<g id="layer-set-1">
</g>
</svg>
