<?xml version="1.0" encoding="utf-8"?>
<!-- Generator: Adobe Illustrator 16.0.4, SVG Export Plug-In . SVG Version: 6.00 Build 0)  -->
<!DOCTYPE svg PUBLIC "-//W3C//DTD SVG 1.1//EN" "http://www.w3.org/Graphics/SVG/1.1/DTD/svg11.dtd">
<svg version="1.1" xmlns="http://www.w3.org/2000/svg" xmlns:xlink="http://www.w3.org/1999/xlink" x="0px" y="0px" width="650px"
	 height="50px" viewBox="0 0 650 50" enable-background="new 0 0 650 50" xml:space="preserve">
<g id="red-bg" display="none">
	<rect x="-1415.187" y="-307.673" display="inline" opacity="0.27" fill="#FF0000" width="2149.996" height="449.673"/>
</g>
<g id="layer-set-12">
	<g>
		<path fill="#FFFFFF" d="M214.913,19.343c0.586,0.314,8.698,4.673,9,4.835s0.692,0.24,1.087,0.24s0.785-0.078,1.088-0.24
			s8.413-4.521,8.999-4.835c0.587-0.313,1.142-1.303,0.063-1.303h-20.303C213.771,18.04,214.327,19.027,214.913,19.343z
			 M235.336,21.743c-0.666,0.347-8.841,4.621-9.248,4.834c-0.408,0.213-0.693,0.239-1.088,0.239s-0.68-0.026-1.087-0.239
			c-0.408-0.213-8.583-4.487-9.248-4.834c-0.47-0.245-0.465,0.042-0.465,0.263c0,0.223,0,8.803,0,8.803
			c0,0.504,0.67,1.151,1.19,1.151h19.219c0.521,0,1.189-0.647,1.189-1.151c0,0,0-8.58,0-8.803
			C235.8,21.785,235.805,21.498,235.336,21.743z"/>
	</g>
	<path fill="#FFFFFF" d="M25.001,10.6c-7.953,0-14.4,6.447-14.4,14.4s6.447,14.4,14.4,14.4S39.399,32.953,39.399,25
		S32.954,10.6,25.001,10.6z M28.411,20.551h-2.165c-0.256,0-0.541,0.336-0.541,0.787V22.9h2.706v2.229h-2.706v6.691h-2.556v-6.691
		h-2.317V22.9h2.317v-1.312c0-1.881,1.305-3.411,3.097-3.411h2.165V20.551z"/>
	<path fill="#FFFFFF" d="M75.001,10.6c-7.955,0-14.4,6.447-14.4,14.4s6.445,14.4,14.4,14.4c7.953,0,14.398-6.447,14.398-14.4
		S82.952,10.6,75.001,10.6z M80.856,22.396c0.006,0.121,0.008,0.244,0.008,0.367c0,3.747-2.854,8.069-8.068,8.069
		c-1.603,0-3.092-0.47-4.348-1.274c0.221,0.026,0.447,0.039,0.676,0.039c1.33,0,2.553-0.453,3.522-1.214
		c-1.241-0.022-2.289-0.843-2.649-1.97c0.174,0.033,0.352,0.051,0.534,0.051c0.259,0,0.509-0.035,0.747-0.1
		c-1.297-0.262-2.275-1.407-2.275-2.781c0-0.012,0-0.023,0-0.036c0.383,0.213,0.82,0.341,1.285,0.354
		c-0.761-0.508-1.261-1.375-1.261-2.36c0-0.521,0.14-1.007,0.384-1.426c1.398,1.716,3.488,2.845,5.846,2.963
		c-0.049-0.208-0.072-0.425-0.072-0.646c0-1.566,1.27-2.836,2.836-2.836c0.814,0,1.553,0.344,2.07,0.896
		c0.646-0.127,1.252-0.363,1.801-0.688c-0.212,0.662-0.661,1.219-1.247,1.569c0.573-0.067,1.121-0.222,1.629-0.446
		C81.892,21.497,81.411,21.997,80.856,22.396z"/>
	<path fill="#FFFFFF" d="M123.645,20.928c-0.361-1.273-0.947-1.652-1.857-1.652c-0.098,0-0.197,0.015-0.291,0.041
		c-0.395,0.111-0.707,0.44-0.881,0.929c-0.178,0.496-0.191,1.012-0.035,1.603c0.275,1.049,1.023,1.812,1.777,1.812
		c0.098,0,0.195-0.013,0.291-0.04C123.471,23.389,123.986,22.13,123.645,20.928z M125,10.6c-7.953,0-14.4,6.447-14.4,14.4
		s6.447,14.4,14.4,14.4s14.4-6.447,14.4-14.4S132.953,10.6,125,10.6z M124.17,31.184c-0.904,0.438-1.879,0.486-2.256,0.486
		c-0.07,0-0.113-0.002-0.119-0.002c0,0-0.025,0-0.072,0c-0.588,0-3.514-0.135-3.514-2.801c0-2.62,3.188-2.824,4.162-2.824h0.027
		c-0.564-0.752-0.447-1.514-0.447-1.514c-0.051,0.004-0.123,0.008-0.211,0.008c-0.369,0-1.078-0.059-1.688-0.452
		c-0.746-0.479-1.125-1.297-1.125-2.429c0-3.196,3.49-3.325,3.525-3.326h3.484v0.074c0,0.392-0.699,0.466-1.178,0.531
		c-0.162,0.021-0.486,0.056-0.578,0.104c0.883,0.47,1.025,1.211,1.025,2.316c0,1.256-0.492,1.92-1.016,2.388
		c-0.322,0.289-0.576,0.517-0.576,0.819c0,0.299,0.35,0.604,0.752,0.959c0.662,0.582,1.57,1.377,1.57,2.715
		C125.939,29.623,125.344,30.613,124.17,31.184z M131.791,24.986h-2.271v2.273h-1.441v-2.273h-2.273v-1.439h2.273v-2.273h1.441
		v2.273h2.271V24.986z M122.334,26.729c-0.078,0-0.156,0.002-0.234,0.008c-0.668,0.049-1.279,0.298-1.727,0.703
		c-0.441,0.398-0.666,0.9-0.633,1.412c0.064,1.064,1.211,1.689,2.602,1.588c1.369-0.1,2.281-0.885,2.213-1.953
		C124.492,27.484,123.621,26.729,122.334,26.729z"/>
	<path fill="#FFFFFF" d="M175,10.6c-7.953,0-14.4,6.447-14.4,14.4s6.447,14.4,14.4,14.4s14.4-6.447,14.4-14.4S182.953,10.6,175,10.6
		z M171.477,30.968h-2.918v-9.383h2.918V30.968z M169.998,20.434c-0.921,0-1.516-0.652-1.516-1.459c0-0.824,0.613-1.457,1.554-1.457
		s1.517,0.633,1.534,1.457C171.57,19.781,170.977,20.434,169.998,20.434z M182.124,30.968h-2.916v-5.2
		c0-1.209-0.423-2.033-1.478-2.033c-0.807,0-1.285,0.557-1.498,1.094c-0.076,0.191-0.096,0.46-0.096,0.729v5.411h-2.916v-6.39
		c0-1.17-0.039-2.148-0.078-2.994h2.533l0.135,1.305h0.058c0.384-0.613,1.323-1.516,2.897-1.516c1.918,0,3.356,1.286,3.356,4.048
		v5.547H182.124z"/>
	<g>
		<path fill="#FFFFFF" d="M275.04,17.629c-4.022,0-7.294,3.271-7.297,7.293c0,1.376,0.386,2.719,1.116,3.879l0.173,0.276
			l-0.736,2.69l2.759-0.724l0.269,0.05c1.12,0.664,2.402,0.906,3.712,0.906h0.002c4.019,0,7.291-3.162,7.292-7.182
			c0.001-1.95-0.758-3.727-2.134-5.105C278.818,18.335,276.988,17.629,275.04,17.629z M279.33,28.057
			c-0.184,0.511-1.06,0.979-1.48,1.042c-0.378,0.056-0.856,0.079-1.382-0.086c-0.317-0.103-0.726-0.237-1.248-0.463
			c-2.2-0.95-3.636-3.163-3.747-3.31c-0.108-0.146-0.894-1.189-0.894-2.269c0-1.08,0.566-1.61,0.768-1.829
			c0.2-0.22,0.438-0.274,0.584-0.274c0.146,0,0.292,0.003,0.42,0.009c0.135,0.006,0.315-0.052,0.493,0.376
			c0.183,0.438,0.62,1.518,0.677,1.628c0.054,0.108,0.091,0.237,0.018,0.383c-0.074,0.146-0.109,0.238-0.219,0.366
			c-0.11,0.128-0.23,0.286-0.329,0.385c-0.109,0.108-0.225,0.228-0.097,0.446c0.129,0.221,0.568,0.938,1.219,1.52
			c0.839,0.746,1.546,0.978,1.765,1.088c0.219,0.109,0.346,0.092,0.474-0.055s0.549-0.64,0.694-0.86
			c0.146-0.219,0.293-0.183,0.494-0.109s1.279,0.604,1.498,0.715c0.219,0.108,0.364,0.163,0.42,0.255
			C279.512,27.104,279.512,27.543,279.33,28.057z"/>
		<path fill="#FFFFFF" d="M275,10.6c-7.953,0-14.4,6.447-14.4,14.4s6.447,14.4,14.4,14.4s14.4-6.447,14.4-14.4
			S282.953,10.6,275,10.6z M275.037,34h-0.004c-1.468,0-2.911-0.52-4.192-1.219l-4.65,1.146l1.243-4.585
			c-0.768-1.329-1.172-2.857-1.17-4.404c0.002-4.837,3.938-8.781,8.773-8.781c2.347,0,4.549,0.91,6.207,2.568
			c1.655,1.658,2.567,4.01,2.565,6.354C283.808,29.917,279.871,34,275.037,34z"/>
	</g>
</g>
<g id="layer-set-11">
</g>
<g id="layer-set-10">
</g>
<g id="layer-set-9">
</g>
<g id="layer-set-8">
</g>
<g id="layer-set-7">
</g>
<g id="layer-set-6">
</g>
<g id="layer-set-5">
</g>
<g id="layer-set-4">
</g>
<g id="layer-set-3">
</g>
<g id="layer-set-2">
</g>
<g id="layer-set-1">
</g>
</svg>
