<?xml version="1.0" encoding="utf-8"?>
<!-- Generator: Adobe Illustrator 16.0.4, SVG Export Plug-In . SVG Version: 6.00 Build 0)  -->
<!DOCTYPE svg PUBLIC "-//W3C//DTD SVG 1.1//EN" "http://www.w3.org/Graphics/SVG/1.1/DTD/svg11.dtd">
<svg version="1.1" xmlns="http://www.w3.org/2000/svg" xmlns:xlink="http://www.w3.org/1999/xlink" x="0px" y="0px" width="650px"
	 height="50px" viewBox="0 0 650 50" enable-background="new 0 0 650 50" xml:space="preserve">
<g id="red-bg" display="none">
	<rect x="-715.187" y="-107.673" display="inline" opacity="0.27" fill="#FF0000" width="2149.996" height="449.673"/>
</g>
<g id="layer-set-12">
</g>
<g id="layer-set-11">
</g>
<g id="layer-set-10">
</g>
<g id="layer-set-9">
</g>
<g id="layer-set-8">
</g>
<g id="layer-set-7">
</g>
<g id="layer-set-6">
</g>
<g id="layer-set-5">
	<g>
		<rect x="21.464" y="13.249" fill="#FFFFFF" width="15.289" height="25.751"/>
		<g>
			<path fill="#F173AC" d="M37.954,11h-24.91c-0.854,0-1.545,0.692-1.545,1.545v24.909c0,0.854,0.691,1.545,1.545,1.545h13.41
				V28.157h-3.648v-4.226h3.648v-3.116c0-3.617,2.209-5.586,5.436-5.586c1.545,0,2.875,0.115,3.262,0.166v3.78h-2.238
				c-1.754,0-2.094,0.834-2.094,2.057v2.698h4.186l-0.545,4.226h-3.641v10.843h7.135c0.854,0,1.545-0.692,1.545-1.545V12.545
				C39.499,11.692,38.808,11,37.954,11"/>
		</g>
	</g>
	<g>
		<path fill="#F073AB" d="M112.044,11.5c-0.854,0-1.545,0.692-1.545,1.545v24.909c0,0.854,0.691,1.545,1.545,1.545h24.91
			c0.854,0,1.545-0.692,1.545-1.545V13.045c0-0.854-0.691-1.545-1.545-1.545H112.044z"/>
		<g>
			<path fill="#F073AB" d="M62.044,10.5c-0.854,0-1.545,0.692-1.545,1.545v24.909c0,0.854,0.691,1.545,1.545,1.545h24.91
				c0.854,0,1.545-0.692,1.545-1.545V12.045c0-0.854-0.691-1.545-1.545-1.545H62.044z"/>
			<path fill="#FFFFFF" d="M70.86,32.47c-2.271,0-4.387-0.667-6.168-1.808c0.314,0.038,0.637,0.057,0.961,0.057
				c1.885,0,3.619-0.644,4.996-1.723c-1.76-0.032-3.246-1.195-3.758-2.794c0.246,0.047,0.498,0.073,0.758,0.073
				c0.367,0,0.723-0.049,1.061-0.142c-1.842-0.37-3.229-1.996-3.229-3.945c0-0.017,0-0.034,0-0.051
				c0.543,0.302,1.164,0.482,1.822,0.503c-1.078-0.722-1.789-1.953-1.789-3.349c0-0.737,0.197-1.429,0.545-2.023
				c1.984,2.435,4.949,4.036,8.293,4.204c-0.068-0.294-0.105-0.602-0.105-0.917c0-2.222,1.803-4.024,4.023-4.024
				c1.158,0,2.205,0.489,2.939,1.271c0.916-0.181,1.775-0.516,2.555-0.977c-0.301,0.94-0.938,1.728-1.77,2.227
				c0.812-0.098,1.588-0.314,2.311-0.634c-0.539,0.807-1.223,1.515-2.008,2.083c0.008,0.173,0.012,0.346,0.012,0.521
				C82.31,26.338,78.263,32.47,70.86,32.47"/>
		</g>
	</g>
	<g>
		<g>
			<path fill="#F173AC" d="M162.046,11c-0.855,0-1.545,0.692-1.545,1.545v24.909c0,0.854,0.691,1.545,1.545,1.545h24.91
				c0.852,0,1.545-0.692,1.545-1.545V12.545c0-0.854-0.693-1.545-1.545-1.545H162.046z"/>
			<path fill="#FFFFFF" d="M169.925,21.982h-4.23v12.727h4.23V21.982z M167.81,20.245c1.477,0,2.395-0.978,2.395-2.199
				c-0.027-1.248-0.918-2.198-2.365-2.198s-2.395,0.95-2.395,2.198c0,1.222,0.918,2.199,2.34,2.199H167.81z"/>
			<path fill="#FFFFFF" d="M172.267,34.709h4.23v-7.107c0-0.38,0.025-0.761,0.139-1.032c0.305-0.761,1-1.547,2.17-1.547
				c1.529,0,2.143,1.167,2.143,2.878v6.809h4.229v-7.297c0-3.91-2.086-5.728-4.869-5.728c-2.283,0-3.285,1.275-3.84,2.144h0.027
				v-1.845h-4.23C172.321,23.176,172.267,34.709,172.267,34.709"/>
		</g>
	</g>
	<g id="g_x2B_">
		<g id="g_x2B__1_">
			<g id="_x2B_">
				<g>
					<rect x="130.581" y="21.936" fill="#FFFFFF" width="1.26" height="6.129"/>
					<g id="_x2B__9_">
						<g>
							<rect x="128.146" y="24.371" fill="#FFFFFF" width="6.129" height="1.259"/>
						</g>
					</g>
				</g>
			</g>
		</g>
	</g>
	<path fill="#FFFFFF" d="M125.497,26.277l-0.896-0.685c-0.271-0.222-0.645-0.516-0.645-1.054c0-0.54,0.373-0.884,0.695-1.202
		c1.045-0.808,2.09-1.667,2.09-3.479c0-1.863-1.133-2.763-1.705-3.229h1.475l1.611-0.985l-5.188-0.001
		c-1.344,0-3.156,0.139-4.574,1.291c-1.068,0.906-1.42,2.238-1.42,3.365c0,1.91,1.494,3.847,4.129,3.847
		c0.25,0,0.521-0.024,0.797-0.048c-0.123,0.294-0.25,0.54-0.25,0.956c0,0.759,0.398,1.225,0.746,1.666
		c-1.117,0.074-3.209,0.196-4.75,1.127c-1.469,0.859-1.916,2.107-1.916,2.99c0,1.814,1.67,3.522,5.277,3.522
		c4.279,0,6.613-2.346,6.613-4.649C127.585,28.019,126.591,27.185,125.497,26.277z M122.237,23.522
		c-2.139,0-3.109-2.721-3.109-4.362c0-0.638,0.125-1.36,0.547-1.875c0.398-0.491,1.094-0.748,1.742-0.748
		c2.062,0,3.133,2.745,3.133,4.509c0,0.441-0.049,1.163-0.621,1.728C123.53,23.167,122.858,23.522,122.237,23.522z M122.261,33.313
		c-2.662,0-4.379-1.25-4.379-2.991c0-1.741,1.592-2.328,2.139-2.524c1.045-0.343,2.389-0.393,2.613-0.393
		c0.248,0,0.373,0,0.57,0.025c1.893,1.324,2.713,1.983,2.713,3.235C125.917,32.184,124.647,33.313,122.261,33.313z"/>
	<g>
		<path fill="#F173AC" d="M212.545,11c-0.855,0-1.545,0.692-1.545,1.545v24.909c0,0.854,0.691,1.545,1.545,1.545h24.91
			c0.852,0,1.545-0.692,1.545-1.545V12.545c0-0.854-0.693-1.545-1.545-1.545H212.545z"/>
		<path fill="#FFFFFF" d="M215.076,19.264c0.576,0.32,8.559,4.739,8.855,4.902c0.295,0.165,0.682,0.244,1.067,0.244
			c0.388,0,0.772-0.079,1.069-0.245c0.298-0.164,8.277-4.583,8.854-4.902c0.577-0.319,1.123-1.321,0.064-1.321h-19.975
			C213.955,17.942,214.499,18.943,215.076,19.264z M235.168,21.698c-0.656,0.352-8.697,4.686-9.1,4.902
			c-0.4,0.216-0.68,0.244-1.068,0.244c-0.387,0-0.667-0.028-1.068-0.244c-0.4-0.217-8.443-4.552-9.098-4.902
			c-0.462-0.249-0.458,0.042-0.458,0.266c0,0.224,0,8.926,0,8.926c0,0.511,0.66,1.168,1.171,1.168h18.909
			c0.512,0,1.169-0.658,1.169-1.167c0,0,0-8.701,0-8.925C235.625,21.74,235.63,21.449,235.168,21.698z"/>
	</g>
</g>
<g id="layer-set-4">
	<g>
		<path fill="#F173AC" d="M262.545,11c-0.855,0-1.545,0.692-1.545,1.545v24.909c0,0.854,0.691,1.545,1.545,1.545h24.91
			c0.852,0,1.545-0.692,1.545-1.545V12.545c0-0.854-0.693-1.545-1.545-1.545H262.545z"/>
		<path fill-rule="evenodd" clip-rule="evenodd" fill="#FFFFFF" d="M282.31,17.649c-1.94-1.942-4.519-3.012-7.267-3.013
			c-5.661,0-10.269,4.608-10.271,10.271c-0.003,1.811,0.471,3.578,1.37,5.135l-1.456,5.323l5.444-1.43
			c1.5,0.818,3.189,1.251,4.908,1.251h0.004l0,0c5.66,0,10.269-4.608,10.271-10.271C285.315,22.17,284.248,19.59,282.31,17.649
			 M275.043,33.452h-0.002c-1.533,0-3.034-0.413-4.346-1.19l-0.313-0.185l-3.23,0.847l0.862-3.15l-0.202-0.323
			c-0.855-1.358-1.307-2.931-1.307-4.542c0.003-4.708,3.833-8.537,8.542-8.537c2.28,0,4.423,0.89,6.035,2.503
			c1.611,1.614,2.499,3.759,2.498,6.041C283.579,29.622,279.748,33.452,275.043,33.452 M279.727,27.058
			c-0.257-0.129-1.519-0.75-1.754-0.835c-0.235-0.086-0.407-0.128-0.578,0.128c-0.171,0.258-0.663,0.835-0.813,1.007
			c-0.149,0.171-0.298,0.192-0.555,0.064c-0.256-0.13-1.084-0.401-2.065-1.274c-0.762-0.68-1.276-1.521-1.427-1.778
			c-0.149-0.256-0.015-0.396,0.113-0.522c0.115-0.116,0.256-0.301,0.385-0.45c0.128-0.15,0.17-0.257,0.256-0.429
			s0.043-0.322-0.021-0.449c-0.065-0.129-0.578-1.393-0.792-1.906c-0.208-0.5-0.42-0.433-0.577-0.44
			c-0.149-0.007-0.321-0.01-0.491-0.01c-0.172,0-0.449,0.064-0.685,0.321c-0.235,0.256-0.898,0.877-0.898,2.141
			s0.92,2.485,1.047,2.656c0.13,0.171,1.811,2.763,4.386,3.875c0.612,0.265,1.09,0.421,1.462,0.541
			c0.615,0.194,1.175,0.166,1.617,0.101c0.493-0.074,1.519-0.621,1.733-1.22c0.213-0.6,0.213-1.114,0.148-1.22
			C280.152,27.25,279.982,27.186,279.727,27.058"/>
	</g>
</g>
<g id="layer-set-3">
</g>
<g id="layer-set-2">
</g>
<g id="layer-set-1">
</g>
</svg>
