<?xml version="1.0" encoding="utf-8"?>
<!-- Generator: Adobe Illustrator 15.0.0, SVG Export Plug-In  -->
<!DOCTYPE svg PUBLIC "-//W3C//DTD SVG 1.1//EN" "http://www.w3.org/Graphics/SVG/1.1/DTD/svg11.dtd" [
	<!ENTITY ns_flows "http://ns.adobe.com/Flows/1.0/">
]>
<svg version="1.1"
	 xmlns="http://www.w3.org/2000/svg" xmlns:xlink="http://www.w3.org/1999/xlink" xmlns:a="http://ns.adobe.com/AdobeSVGViewerExtensions/3.0/"
	 x="0px" y="0px" width="650px" height="150px" viewBox="1449.675 649.673 650 150"
	 overflow="visible" enable-background="new 1449.675 649.673 650 150" xml:space="preserve">
<defs>
</defs>

<path fill="#FFFFFF" d="M1569.074,669.934c-1.123,1.118-6.028,8.114-1.789,12.351c4.236,4.239,11.229-0.667,12.353-1.789
	c1.122-1.119-0.334-4.395-3.252-7.312C1573.468,670.265,1570.197,668.809,1569.074,669.934z M1578.337,679.523
	c-0.331,0.328-2.895-0.457-5.364-2.927c-2.467-2.471-3.255-5.034-2.924-5.365c0.328-0.331,2.896,0.457,5.36,2.927
	C1577.88,676.626,1578.668,679.191,1578.337,679.523z M1578.488,671.642c0.256,0,0.512-0.098,0.707-0.293l1.904-1.905
	c0.391-0.392,0.391-1.024,0-1.414c-0.39-0.391-1.023-0.391-1.414,0l-1.904,1.905c-0.392,0.39-0.392,1.023,0,1.414
	C1577.974,671.544,1578.232,671.642,1578.488,671.642z M1574.886,669.167c0.155,0.088,0.322,0.129,0.488,0.129
	c0.35,0,0.689-0.185,0.874-0.512l1.081-1.93c0.27-0.482,0.098-1.091-0.383-1.361c-0.482-0.27-1.092-0.098-1.361,0.385l-1.081,1.93
	C1574.234,668.288,1574.404,668.898,1574.886,669.167z M1583.634,672.183c-0.27-0.482-0.879-0.654-1.361-0.385l-1.93,1.082
	c-0.482,0.271-0.654,0.879-0.384,1.361c0.184,0.327,0.522,0.512,0.874,0.512c0.166,0,0.333-0.041,0.488-0.127l1.93-1.082
	C1583.732,673.273,1583.904,672.665,1583.634,672.183z"/>
<path fill="#FFFFFF" d="M1476.83,666.447c-0.627,0.612-6.754,7.044-6.754,7.044c-0.334,0.327-0.5,0.753-0.5,1.183
	c0,0.428,0.166,0.854,0.5,1.182c0,0,6.127,6.434,6.754,7.044s1.755,0.653,2.424,0c0.668-0.651,0.722-1.563,0-2.362l-5.621-5.863
	l5.621-5.861c0.722-0.801,0.669-1.711,0-2.364S1477.457,665.836,1476.83,666.447z"/>
<path fill="#FFFFFF" d="M1522.521,682.899c0.627-0.612,6.754-7.044,6.754-7.044c0.334-0.327,0.5-0.753,0.5-1.182
	c0-0.428-0.166-0.855-0.5-1.183c0,0-6.127-6.433-6.754-7.044s-1.754-0.652-2.424,0c-0.668,0.652-0.721,1.562,0,2.363l5.621,5.861
	l-5.621,5.862c-0.721,0.802-0.668,1.712,0,2.364C1520.767,683.551,1521.894,683.51,1522.521,682.899z"/>
<path fill="#FFFFFF" d="M1631.196,668.152c-0.39-0.391-1.023-0.391-1.414,0l-15.629,15.629c-0.391,0.391-0.391,1.023,0,1.414
	c0.195,0.195,0.451,0.293,0.707,0.293s0.512-0.098,0.707-0.293l15.629-15.629C1631.587,669.176,1631.587,668.543,1631.196,668.152z
	 M1626.875,675.867c1.389,1.885,1.818,3.52,1.559,3.779c-0.259,0.258-1.894-0.171-3.777-1.561l-5.527,5.527
	c4.186,1.838,9.627-2.016,10.605-2.994c0.924-0.923,0.097-3.311-1.856-5.755L1626.875,675.867z M1621.341,674.613
	c-1.099-1.658-1.431-3.023-1.194-3.258c0.233-0.236,1.6,0.096,3.258,1.195l1.022-1.022c-2.265-1.674-4.394-2.334-5.256-1.47
	c-0.929,0.926-4.448,5.877-3.231,9.958L1621.341,674.613z"/>
<path fill="#FFFFFF" d="M1664.175,671.374c-1.822,0-3.3,1.478-3.3,3.299c0,1.822,1.478,3.301,3.3,3.301s3.3-1.479,3.3-3.301
	C1667.475,672.852,1665.998,671.374,1664.175,671.374z M1674.675,671.374c-1.822,0-3.299,1.478-3.299,3.299
	c0,1.822,1.479,3.301,3.299,3.301c1.822,0,3.3-1.479,3.3-3.301C1677.975,672.852,1676.498,671.374,1674.675,671.374z
	 M1685.175,671.374c-1.822,0-3.3,1.478-3.3,3.299c0,1.822,1.478,3.301,3.3,3.301s3.3-1.479,3.3-3.301
	C1688.475,672.852,1686.998,671.374,1685.175,671.374z"/>
<path fill="#FFFFFF" d="M1729.875,673.673h-4.199v-4.2c0-0.552-0.449-0.6-1-0.6c-0.553,0-1,0.048-1,0.6v4.2h-4.201
	c-0.551,0-0.6,0.447-0.6,1c0,0.552,0.049,1,0.6,1h4.201v4.2c0,0.552,0.447,0.6,1,0.6c0.551,0,1-0.048,1-0.6v-4.2h4.199
	c0.553,0,0.6-0.448,0.6-1C1730.475,674.12,1730.428,673.673,1729.875,673.673z"/>
<path fill="#FFFFFF" d="M1779.024,677.823l-2.759-3.15l2.759-3.15c0.467-0.471,0.467-1.23,0-1.697c-0.47-0.469-1.229-0.469-1.697,0
	l-2.651,3.029l-2.651-3.029c-0.469-0.469-1.229-0.469-1.697,0c-0.467,0.469-0.469,1.229,0,1.697l2.758,3.15l-2.758,3.15
	c-0.469,0.469-0.469,1.229,0,1.697c0.47,0.469,1.229,0.469,1.699,0l2.65-3.031l2.65,3.031c0.47,0.469,1.229,0.469,1.697,0
	C1779.491,679.052,1779.491,678.292,1779.024,677.823z"/>
<path fill="#FFFFFF" d="M1484.851,724.673c0-1.57,0.967-2.812,2.424-3.664c-0.262-0.877-0.609-1.717-1.037-2.508
	c-1.633,0.427-2.955-0.213-4.066-1.324s-1.451-2.434-1.023-4.066c-0.791-0.429-1.631-0.775-2.508-1.039
	c-0.854,1.457-2.392,2.425-3.964,2.425c-1.571,0-3.11-0.968-3.964-2.425c-0.877,0.263-1.717,0.61-2.508,1.039
	c0.427,1.633,0.087,2.955-1.024,4.066c-1.11,1.111-2.435,1.751-4.065,1.324c-0.428,0.791-0.775,1.631-1.039,2.508
	c1.457,0.854,2.425,2.094,2.425,3.664s-0.968,3.111-2.425,3.964c0.264,0.877,0.611,1.718,1.039,2.509
	c1.633-0.428,2.955-0.088,4.065,1.023c1.111,1.111,1.451,2.434,1.024,4.066c0.791,0.428,1.63,0.774,2.508,1.037
	c0.854-1.457,2.393-2.424,3.963-2.424c1.572,0,3.111,0.969,3.964,2.424c0.877-0.262,1.718-0.609,2.509-1.037
	c-0.428-1.633-0.088-2.955,1.022-4.066s2.435-1.751,4.065-1.324c0.429-0.791,0.776-1.631,1.039-2.508
	C1485.818,727.485,1484.851,726.243,1484.851,724.673z M1474.674,730.151c-3.026,0-5.479-2.453-5.479-5.479s2.453-5.479,5.479-5.479
	s5.479,2.453,5.479,5.479S1477.701,730.151,1474.674,730.151z"/>
<path fill="#FFFFFF" d="M1582.9,722.518c-0.611,0.627-7.043,6.752-7.043,6.752c-0.326,0.336-0.754,0.502-1.182,0.502
	s-0.855-0.166-1.182-0.502c0,0-6.434-6.125-7.045-6.752c-0.611-0.628-0.652-1.755,0-2.424s1.564-0.722,2.363,0l5.863,5.62
	l5.861-5.62c0.801-0.722,1.711-0.669,2.363,0C1583.554,720.763,1583.513,721.89,1582.9,722.518z"/>
<path fill="#FFFFFF" d="M1616.45,726.827c0.61-0.627,7.043-6.752,7.043-6.752c0.326-0.336,0.754-0.502,1.182-0.502
	s0.855,0.166,1.182,0.502c0,0,6.434,6.125,7.045,6.752c0.61,0.628,0.652,1.755,0,2.424s-1.563,0.722-2.363,0l-5.863-5.62
	l-5.861,5.62c-0.802,0.722-1.712,0.669-2.363,0C1615.796,728.582,1615.837,727.455,1616.45,726.827z"/>
<path fill="#FFFFFF" d="M1682.901,722.518c-0.611,0.627-7.043,6.752-7.043,6.752c-0.326,0.336-0.754,0.502-1.182,0.502
	s-0.855-0.166-1.182-0.502c0,0-6.434-6.125-7.045-6.752s-0.652-1.754,0-2.424c0.652-0.669,1.562-0.722,2.363,0l5.861,5.62
	l5.863-5.62c0.801-0.722,1.711-0.669,2.363,0C1683.553,720.764,1683.512,721.891,1682.901,722.518z"/>
<path fill="#FFFFFF" d="M1682.901,722.518c-0.611,0.627-7.043,6.753-7.043,6.753c-0.326,0.335-0.754,0.502-1.182,0.502
	s-0.855-0.167-1.182-0.502c0,0-6.434-6.126-7.045-6.753s-0.652-1.754,0-2.423s1.562-0.723,2.363,0l5.861,5.62l5.863-5.62
	c0.801-0.723,1.711-0.669,2.363,0S1683.512,721.891,1682.901,722.518z"/>
<path fill="#FFFFFF" d="M1716.451,726.827c0.609-0.627,7.043-6.752,7.043-6.752c0.326-0.336,0.754-0.502,1.182-0.502
	s0.855,0.166,1.182,0.502c0,0,6.434,6.125,7.045,6.752c0.609,0.627,0.652,1.754,0,2.424c-0.652,0.668-1.564,0.722-2.363,0
	l-5.863-5.62l-5.861,5.62c-0.803,0.722-1.713,0.668-2.363,0C1715.796,728.581,1715.837,727.454,1716.451,726.827z"/>
<path fill="#FFFFFF" d="M1716.451,726.828c0.609-0.627,7.043-6.753,7.043-6.753c0.326-0.335,0.754-0.502,1.182-0.502
	s0.855,0.167,1.182,0.502c0,0,6.434,6.126,7.045,6.753c0.609,0.627,0.652,1.754,0,2.423s-1.564,0.722-2.363,0l-5.863-5.621
	l-5.861,5.62c-0.803,0.723-1.713,0.669-2.363,0C1715.796,728.581,1715.837,727.455,1716.451,726.828z"/>
<path fill="#FFFFFF" d="M2029.675,727.672c-0.687,0-1.317,0.232-1.824,0.623l-5.219-3.131c0.026-0.16,0.043-0.324,0.043-0.491
	c0-0.168-0.017-0.331-0.043-0.491l5.219-3.131c0.507,0.389,1.138,0.623,1.824,0.623c1.657,0,3-1.343,3-3c0-1.656-1.343-3-3-3
	c-1.656,0-3,1.344-3,3c0,0.167,0.019,0.331,0.044,0.491l-5.219,3.131c-0.506-0.39-1.137-0.623-1.825-0.623c-1.656,0-3,1.343-3,3
	s1.344,3,3,3c0.688,0,1.319-0.233,1.825-0.623l5.219,3.131c-0.025,0.16-0.044,0.323-0.044,0.491c0,1.657,1.344,3,3,3
	c1.657,0,3-1.343,3-3S2031.332,727.672,2029.675,727.672z"/>
<path fill="#FFFFFF" d="M1984.67,725.015l-9.146-9.152c-0.468-0.485-1.232-0.485-1.699,0l-9.146,9.152
	c-0.468,0.484-0.293,0.881,0.388,0.881h1.905v7.03c0,0.508,0.022,0.92,0.938,0.92h4.439v-7.05h4.645v7.05h4.66
	c0.701,0,0.719-0.413,0.719-0.92v-7.03h1.906C1984.962,725.897,1985.137,725.5,1984.67,725.015z"/>
<polygon fill="#FFFFFF" points="1480.675,767.772 1480.675,781.573 1468.675,774.672 "/>
<polygon fill="#FFFFFF" points="1568.675,767.772 1568.675,781.573 1580.675,774.672 "/>
<polygon fill="#FFFFFF" points="1517.775,780.672 1531.576,780.673 1524.673,768.673 "/>
<polygon fill="#FFFFFF" points="1631.576,768.674 1617.775,768.673 1624.675,780.673 "/>
<polygon fill="#FFFFFF" points="2074.675,661.473 2078.257,671.557 2087.875,671.557 2080.029,677.478 2082.833,687.873 
	2074.675,681.641 2066.517,687.873 2069.322,677.478 2061.475,671.557 2071.093,671.557 "/>
<path fill="#FFFFFF" d="M2038.771,670.793l-11.166-2.992l-1.955-7.293c-0.163-0.608-0.815-0.964-1.457-0.792l-13.614,3.648
	c-0.642,0.17-1.028,0.805-0.866,1.414l4.844,18.078c0.164,0.609,0.816,0.965,1.459,0.793l5.418-1.453l-0.738,2.759
	c-0.163,0.61,0.225,1.243,0.865,1.416l12.166,3.259c0.642,0.172,1.293-0.184,1.457-0.792l4.455-16.628
	C2039.8,671.598,2039.413,670.964,2038.771,670.793z M2012.125,665.118l11.744-3.143l4.35,16.228l-11.746,3.143L2012.125,665.118z
	 M2033.193,687.368l-10.223-2.795l0.805-3.006l5.853-1.567c0.642-0.172,1.03-0.806,0.866-1.415l-2.262-8.441l8.92,2.446
	L2033.193,687.368z"/>
<path fill="#FFFFFF" d="M2078.763,766.907c-1.14-0.823-2.572-1.234-4.295-1.234c-1.312,0-2.418,0.29-3.318,0.868
	c-1.426,0.905-2.185,2.444-2.275,4.614h3.306c0-0.633,0.185-1.241,0.554-1.828c0.369-0.586,0.994-0.879,1.877-0.879
	c0.897,0,1.517,0.238,1.854,0.713c0.339,0.478,0.508,1.005,0.508,1.582c0,0.504-0.252,0.964-0.556,1.383
	c-0.167,0.244-0.389,0.468-0.661,0.674c0,0-1.793,1.15-2.58,2.074c-0.457,0.535-0.498,1.338-0.538,2.49
	c-0.003,0.082,0.028,0.25,0.314,0.25c0.287,0,2.316,0,2.572,0c0.254,0,0.308-0.189,0.312-0.271c0.019-0.419,0.065-0.633,0.142-0.875
	c0.146-0.457,0.538-0.855,0.979-1.199l0.909-0.628c0.822-0.64,1.478-1.165,1.767-1.577c0.495-0.677,0.843-1.511,0.843-2.5
	C2080.473,768.946,2079.904,767.729,2078.763,766.907z M2074.415,779.596c-1.14-0.034-2.08,0.754-2.116,1.99
	c-0.036,1.235,0.859,2.052,1.998,2.085c1.189,0.035,2.105-0.729,2.141-1.963C2076.472,780.473,2075.605,779.631,2074.415,779.596z"
	/>
<path fill="#FFFFFF" d="M1779.875,723.673h-10.4c-0.552,0-0.6,0.447-0.6,1c0,0.551,0.048,1,0.6,1h10.4c0.552,0,0.6-0.449,0.6-1
	C1780.475,724.12,1780.427,723.673,1779.875,723.673z"/>
<path fill="#FFFFFF" d="M1931.275,685.801c0.4,0.405,0.4,1.062,0,1.468c-0.4,0.405-1.053,0.405-1.453,0l-11.746-11.861
	c-0.4-0.405-0.4-1.063,0-1.469l11.746-11.861c0.4-0.405,1.053-0.405,1.453,0c0.4,0.406,0.4,1.062,0,1.468l-10.711,11.128
	L1931.275,685.801z"/>
<path fill="#FFFFFF" d="M1968.076,663.545c-0.4-0.405-0.4-1.062,0-1.469c0.401-0.404,1.053-0.404,1.453,0l11.746,11.863
	c0.4,0.404,0.4,1.062,0,1.467l-11.746,11.863c-0.4,0.404-1.052,0.404-1.453,0c-0.4-0.406-0.4-1.062,0-1.469l10.711-11.128
	L1968.076,663.545z"/>
<path fill="#FFFFFF" d="M1835.803,668.075c0.405-0.401,1.062-0.401,1.468,0c0.405,0.4,0.405,1.052,0,1.453l-11.861,11.744
	c-0.405,0.401-1.063,0.401-1.469,0l-11.861-11.744c-0.405-0.401-0.405-1.053,0-1.453c0.406-0.401,1.062-0.401,1.468,0l11.128,10.711
	L1835.803,668.075z"/>
<path fill="#FFFFFF" d="M1863.547,681.273c-0.405,0.4-1.062,0.4-1.468,0c-0.405-0.401-0.405-1.053,0-1.453l11.861-11.746
	c0.405-0.401,1.063-0.401,1.469,0l11.861,11.744c0.405,0.401,0.405,1.053,0,1.453c-0.406,0.401-1.062,0.401-1.468,0l-11.128-10.709
	L1863.547,681.273z"/>
<path fill="#FFFFFF" d="M1831.512,719.874c0.541-0.535,1.416-0.535,1.957,0c0.54,0.535,0.541,1.402,0,1.938l-7.815,7.66
	c-0.541,0.535-1.416,0.535-1.957,0l-7.815-7.66c-0.541-0.535-0.541-1.402,0-1.938c0.54-0.535,1.416-0.535,1.957,0l6.837,6.281
	L1831.512,719.874z"/>
<path fill="#FFFFFF" d="M1867.837,729.471c-0.541,0.535-1.416,0.535-1.957,0c-0.539-0.534-0.541-1.401,0-1.938l7.816-7.659
	c0.541-0.535,1.416-0.535,1.957,0l7.814,7.659c0.541,0.537,0.541,1.402,0,1.938c-0.539,0.535-1.416,0.535-1.957,0l-6.836-6.28
	L1867.837,729.471z"/>
<path fill="#FFFFFF" d="M1665.475,774.673c0,5.081,4.119,9.2,9.2,9.2c5.082,0,9.2-4.119,9.2-9.2c0-5.082-4.119-9.201-9.2-9.201
	S1665.475,769.591,1665.475,774.673z M1681.875,774.673c0,3.976-3.224,7.2-7.2,7.2s-7.2-3.225-7.2-7.2
	c0-3.978,3.224-7.201,7.2-7.201S1681.875,770.695,1681.875,774.673z M1670.826,772.873v3.6h4.09v2.25l3.81-4.05l-3.81-4.05v2.25
	H1670.826z"/>
<path d="M1765.475,774.674c0,5.08,4.119,9.199,9.2,9.199c5.082,0,9.2-4.119,9.2-9.199c0-5.082-4.119-9.201-9.2-9.201
	S1765.475,769.592,1765.475,774.674z M1781.875,774.674c0,3.977-3.224,7.199-7.2,7.199s-7.2-3.223-7.2-7.199s3.224-7.201,7.2-7.201
	S1781.875,770.697,1781.875,774.674z M1770.826,772.873v3.6h4.09v2.25l3.81-4.049l-3.81-4.051v2.25H1770.826z"/>
<path d="M1715.476,774.673c0,5.081,4.117,9.2,9.199,9.2c5.08,0,9.199-4.119,9.199-9.2c0-5.082-4.117-9.201-9.199-9.201
	C1719.595,765.472,1715.476,769.591,1715.476,774.673z M1731.875,774.673c0,3.976-3.223,7.2-7.199,7.2s-7.199-3.225-7.199-7.2
	c0-3.978,3.223-7.201,7.199-7.201S1731.876,770.695,1731.875,774.673z M1720.826,772.873v3.6h4.09v2.25l3.811-4.05l-3.811-4.05v2.25
	H1720.826z"/>
<path d="M1815.476,774.673c0,5.081,4.118,9.2,9.199,9.2s9.2-4.119,9.2-9.2c0-5.082-4.118-9.201-9.2-9.201
	C1819.595,765.472,1815.476,769.591,1815.476,774.673z M1831.875,774.673c0,3.976-3.224,7.2-7.2,7.2s-7.199-3.225-7.199-7.2
	c0-3.978,3.223-7.201,7.199-7.201S1831.876,770.695,1831.875,774.673z M1820.826,772.872v3.6h4.091v2.25l3.81-4.05l-3.81-4.05v2.25
	H1820.826z"/>
<path fill="#FFFFFF" d="M1874.675,765.473c-5.081,0-9.2,4.119-9.2,9.199c0,5.082,4.119,9.2,9.2,9.2s9.2-4.118,9.2-9.2
	C1883.875,769.592,1879.756,765.473,1874.675,765.473z M1874.675,781.872c-3.977,0-7.2-3.224-7.2-7.2s3.224-7.199,7.2-7.199
	s7.2,3.225,7.2,7.199C1881.875,778.65,1878.652,781.872,1874.675,781.872z M1876.475,770.822h-3.6v4.091h-2.25l4.05,3.81l4.05-3.81
	h-2.25V770.822z"/>
<path d="M1924.675,783.873c5.081,0,9.2-4.119,9.2-9.2s-4.119-9.2-9.2-9.2s-9.2,4.119-9.2,9.2S1919.594,783.873,1924.675,783.873z
	 M1924.675,767.473c3.978,0,7.2,3.224,7.2,7.2s-3.225,7.2-7.2,7.2s-7.2-3.224-7.2-7.2S1920.698,767.473,1924.675,767.473z
	 M1922.875,778.522h3.6v-4.09h2.25l-4.05-3.81l-4.05,3.81h2.25V778.522z"/>
<path fill="#FFFFFF" d="M2024.676,783.872c5.081,0,9.199-4.119,9.199-9.199c0-5.082-4.118-9.2-9.199-9.2s-9.2,4.118-9.2,9.2
	C2015.476,779.753,2019.595,783.872,2024.676,783.872z M2024.676,767.473c3.977,0,7.199,3.223,7.199,7.2
	c0,3.976-3.224,7.199-7.199,7.199c-3.977,0-7.2-3.224-7.2-7.199C2017.476,770.695,2020.7,767.473,2024.676,767.473z
	 M2022.875,778.523h3.601v-4.092h2.25l-4.05-3.81l-4.051,3.81h2.25V778.523z"/>
<path d="M1974.675,765.473c-5.082,0-9.201,4.119-9.201,9.2s4.119,9.2,9.201,9.2c5.08,0,9.199-4.119,9.199-9.2
	S1979.755,765.473,1974.675,765.473z M1974.675,781.873c-3.979,0-7.201-3.225-7.201-7.2s3.225-7.2,7.201-7.2
	c3.975,0,7.199,3.225,7.199,7.2S1978.652,781.873,1974.675,781.873z M1976.474,770.822h-3.6v4.091h-2.25l4.051,3.81l4.049-3.81
	h-2.25V770.822z"/>
<path fill="#FFFFFF" d="M1936.087,732.941l-5.716-5.716c0.861-1.417,1.359-3.08,1.359-4.857c0-5.168-4.479-9.646-9.648-9.646
	c-5.167,0-9.358,4.189-9.358,9.359c0,5.168,4.479,9.646,9.646,9.646c1.72,0,3.328-0.465,4.713-1.272l5.746,5.746
	c0.562,0.563,1.475,0.563,2.037,0l1.426-1.425C1936.854,734.212,1936.651,733.503,1936.087,732.941z M1915.604,722.079
	c0-3.578,2.901-6.479,6.479-6.479c3.578,0,6.768,3.188,6.768,6.766s-2.9,6.479-6.479,6.479
	C1918.793,728.847,1915.604,725.657,1915.604,722.079z"/>
<path fill="#FFFFFF" d="M2080.863,723.051h2.794v-6.852c0-0.428-0.351-0.776-0.778-0.776h-16.406c-0.428,0-0.778,0.349-0.778,0.776
	v6.852h2.796c2.933,0,5.404,1.962,6.185,4.642C2075.458,725.013,2077.929,723.051,2080.863,723.051z"/>
<path fill="#FFFFFF" d="M2079.161,726.038c-1.823,0-3.442,0.859-4.485,2.191c-1.043-1.332-2.66-2.191-4.484-2.191h-4.496v7.107
	c0,0.428,0.351,0.777,0.777,0.777h16.408c0.426,0,0.776-0.35,0.776-0.777v-7.107H2079.161z"/>
<path fill="#FFFFFF" d="M1511.533,715.315h1.363c1.75,0,2.928,1.016,2.928,3.086v0.027c0,2.006-1.123,3.061-2.809,3.154h-0.16v3.088
	h-1.322V715.315z M1513.031,720.366c0.881-0.025,1.469-0.654,1.469-1.896v-0.027c0-1.297-0.562-1.912-1.443-1.912h-0.201v3.836
	H1513.031z"/>
<path fill="#FFFFFF" d="M1518.214,715.288h1.404l1.857,9.383h-1.322l-0.375-2.084h-1.764l-0.375,2.084h-1.283L1518.214,715.288z
	 M1519.578,721.397l-0.682-3.756l-0.682,3.756H1519.578z"/>
<path fill="#FFFFFF" d="M1522.183,720.14v-0.293c0-3.049,1.297-4.598,3.035-4.598c0.494,0,0.881,0.105,1.215,0.266v1.391
	c-0.4-0.24-0.762-0.4-1.176-0.4c-1.002,0-1.738,1.068-1.738,3.287v0.4c0,2.527,0.803,3.344,1.645,3.344
	c0.121,0,0.174-0.014,0.309-0.055v-2.779h-0.988v-1.176h2.191v4.838c-0.561,0.254-0.99,0.389-1.562,0.389
	C1523.507,724.753,1522.183,723.349,1522.183,720.14z"/>
<path fill="#FFFFFF" d="M1527.929,715.315h3.463v1.242h-2.139v2.781h1.912v1.242h-1.912v2.848h2.178v1.242h-3.502V715.315z"/>
<path fill="#FFFFFF" d="M1532.287,724.337v-1.391c0.588,0.361,1.068,0.549,1.523,0.549c0.562,0,0.988-0.32,0.988-0.963v-0.025
	c0-0.535-0.174-0.922-1.029-1.953c-1.148-1.375-1.562-1.965-1.562-3.021v-0.025c0-1.377,0.936-2.285,2.139-2.285
	c0.627,0,1.029,0.119,1.443,0.334v1.389c-0.508-0.307-0.869-0.455-1.297-0.455c-0.535,0-0.961,0.361-0.961,0.949v0.027
	c0,0.521,0.174,0.803,1.027,1.818c1.244,1.471,1.564,2.1,1.564,3.154v0.027c0,1.377-0.977,2.299-2.191,2.299
	C1533.316,724.765,1532.781,724.591,1532.287,724.337z"/>
<g>
	<defs>
		<rect id="SVGID_2_" x="1506.73" y="711.942" width="35.891" height="25.461"/>
	</defs>
	<clipPath id="SVGID_4_">
		<use xlink:href="#SVGID_2_"  overflow="visible"/>
	</clipPath>
	<path clip-path="url(#SVGID_4_)" fill="#FFFFFF" d="M1530.029,735.233h-13.016c-0.6,0-1.084,0.486-1.084,1.086
		c0,0.598,0.484,1.084,1.084,1.084h13.016c0.6,0,1.086-0.486,1.086-1.084C1531.115,735.72,1530.628,735.233,1530.029,735.233
		 M1517.013,728.726h13.016c0.6,0,1.086-0.484,1.086-1.086c0-0.598-0.486-1.084-1.086-1.084h-13.016c-0.6,0-1.084,0.486-1.084,1.084
		C1515.927,728.241,1516.414,728.726,1517.013,728.726 M1530.029,730.894h-13.016c-0.6,0-1.084,0.486-1.084,1.086
		s0.484,1.084,1.084,1.084h13.016c0.6,0,1.086-0.484,1.086-1.084S1530.628,730.894,1530.029,730.894"/>
</g>
</svg>
