<?xml version="1.0" encoding="utf-8"?>
<!-- Generator: Adobe Illustrator 21.0.2, SVG Export Plug-In . SVG Version: 6.00 Build 0)  -->
<svg version="1.1" xmlns="http://www.w3.org/2000/svg" xmlns:xlink="http://www.w3.org/1999/xlink" x="0px" y="0px"
	 viewBox="0 0 650 150" style="enable-background:new 0 0 650 150;" xml:space="preserve">
<style type="text/css">
	.st0{display:none;}
	.st1{display:inline;opacity:0.27;fill:#FF0000;}
	.st2{display:inline;}
	.st3{fill:#FFFFFF;}
	.st4{display:inline;fill:#FFFFFF;}
	.st5{display:inline;opacity:0.5;}
	.st6{display:inline;opacity:0.2;}
	.st7{clip-path:url(#SVGID_2_);fill:#FFFFFF;}
	.st8{fill:#F49C00;}
	.st9{fill:#FFFFFF;stroke:#FFFFFF;stroke-width:2;stroke-linecap:round;stroke-linejoin:round;stroke-miterlimit:10;}
	.st10{fill:#FFFFFF;stroke:#FFFFFF;stroke-width:2;stroke-linecap:round;stroke-miterlimit:10;}
	.st11{fill:none;stroke:#F49C00;stroke-width:2;stroke-linecap:round;stroke-miterlimit:10;}
	.st12{fill:none;stroke:#FFFFFF;stroke-width:2;stroke-linecap:round;stroke-miterlimit:10;}
	.st13{clip-path:url(#SVGID_4_);fill:#FFFFFF;stroke:#FFFFFF;stroke-width:2;stroke-linecap:round;stroke-miterlimit:10;}
	.st14{clip-path:url(#SVGID_6_);fill:#FFFFFF;stroke:#FFFFFF;stroke-width:2;stroke-linecap:round;stroke-miterlimit:10;}
	.st15{clip-path:url(#SVGID_8_);fill:#F49C00;}
	.st16{fill:none;}
	.st17{fill:none;stroke:#F49C00;stroke-width:4.36;stroke-linecap:round;stroke-linejoin:round;}
	.st18{opacity:0.4;fill:#FFFFFF;enable-background:new    ;}
	.st19{display:inline;opacity:0.2;enable-background:new    ;}
	.st20{display:inline;opacity:0.5;enable-background:new    ;}
	.st21{clip-path:url(#SVGID_10_);fill:#FFFFFF;}
	.st22{fill:none;stroke:#000000;stroke-miterlimit:10;}
	.st23{display:inline;fill:none;stroke:#000000;stroke-miterlimit:10;}
	.st24{fill:none;stroke:#FFFFFF;stroke-miterlimit:10;}
	.st25{display:inline;fill:none;stroke:#FFFFFF;stroke-miterlimit:10;}
	.st26{display:inline;fill:#F4F4F4;}
	.st27{display:inline;opacity:0.15;fill:#4B4B4B;enable-background:new    ;}
	.st28{fill:#F4F4F4;}
	.st29{opacity:0.15;fill:#4B4B4B;enable-background:new    ;}
	.st30{opacity:5.000000e-02;enable-background:new    ;}
	.st31{opacity:0.75;fill:none;stroke:#ECF0F1;stroke-width:1.1385;stroke-miterlimit:10;enable-background:new    ;}
	.st32{opacity:0.5;fill:none;stroke:#ECF0F1;stroke-width:1.1385;stroke-miterlimit:10;enable-background:new    ;}
	.st33{fill:#DFC325;}
	.st34{fill:#D0D3D6;}
	.st35{fill:#ECF0F1;}
	.st36{fill:#4B4B4B;}
	.st37{opacity:0.75;fill:#ECF0F1;enable-background:new    ;}
	.st38{fill:#A5A5A5;}
	.st39{display:inline;opacity:5.000000e-02;enable-background:new    ;}
	.st40{fill:#E8BC43;}
	.st41{opacity:8.000000e-02;fill:#E8BC43;enable-background:new    ;}
	.st42{fill:#DCDEE0;}
	.st43{fill:#E56053;}
	.st44{fill:#BDC3C7;}
	.st45{fill:none;stroke:#D0D3D6;stroke-width:2.6313;stroke-miterlimit:10;}
	.st46{fill:#F1F1F1;}
	.st47{display:inline;opacity:0.2;fill:#404040;enable-background:new    ;}
	.st48{fill:#404040;}
	.st49{display:inline;fill:none;}
	.st50{clip-path:url(#SVGID_12_);fill:#404040;}
	.st51{display:inline;fill:#404040;}
	.st52{display:inline;opacity:0.5;fill:#404040;enable-background:new    ;}
	.st53{clip-path:url(#SVGID_14_);fill:#404040;}
	.st54{clip-path:url(#SVGID_16_);fill:#404040;}
	.st55{clip-path:url(#SVGID_18_);fill:#404040;}
	.st56{fill:none;stroke:#FFFFFF;stroke-width:3;stroke-linecap:round;stroke-linejoin:round;}
	.st57{fill:none;stroke:#FFFFFF;stroke-width:4.36;stroke-linecap:round;stroke-linejoin:round;}
	.st58{fill:none;stroke:#FFFFFF;stroke-width:2;stroke-linecap:round;stroke-linejoin:round;}
	.st59{fill:none;stroke:#FFFFFF;stroke-linecap:round;stroke-linejoin:round;}
	.st60{display:inline;fill:none;stroke:#FFFFFF;stroke-width:2;stroke-linecap:round;stroke-linejoin:round;}
	.st61{display:inline;fill:none;stroke:#FFFFFF;stroke-width:3;stroke-linecap:round;stroke-linejoin:round;}
</style>
<g id="red-bg" class="st0">
	<rect x="-750.1" y="-649.5" class="st1" width="2150" height="850"/>
</g>
<g id="layer-set-12" class="st0">
</g>
<g id="layer-set-11">
	<path class="st8" d="M37.6,25c0,7-5.7,12.6-12.6,12.6c-7,0-12.6-5.7-12.6-12.6c0-7,5.7-12.6,12.6-12.6C32,12.4,37.6,18,37.6,25"/>
	<path class="st8" d="M37.6,75c0,7-5.7,12.6-12.6,12.6c-7,0-12.6-5.7-12.6-12.6S18,62.4,25,62.4C32,62.4,37.6,68,37.6,75"/>
	<path class="st8" d="M87.6,75c0,7-5.7,12.6-12.6,12.6c-7,0-12.6-5.7-12.6-12.6S68,62.4,75,62.4C82,62.4,87.6,68,87.6,75"/>
	<path class="st8" d="M125,87.6c-7,0-12.6-5.7-12.6-12.6S118,62.4,125,62.4c7,0,12.6,5.7,12.6,12.6S132,87.6,125,87.6"/>
	<path class="st8" d="M175,87.6c-7,0-12.6-5.7-12.6-12.6S168,62.4,175,62.4c7,0,12.6,5.7,12.6,12.6S182,87.6,175,87.6"/>
	<path class="st8" d="M225,87.6c-7,0-12.6-5.7-12.6-12.6S218,62.4,225,62.4c7,0,12.6,5.7,12.6,12.6S232,87.6,225,87.6"/>
	<path class="st8" d="M87.6,25c0,7-5.7,12.6-12.6,12.6c-7,0-12.6-5.7-12.6-12.6c0-7,5.7-12.6,12.6-12.6C82,12.4,87.6,18,87.6,25"/>
	<path class="st8" d="M284.9,25c0,5.5-4.4,9.9-9.9,9.9c-5.5,0-9.9-4.4-9.9-9.9s4.4-9.9,9.9-9.9C280.5,15.1,284.9,19.5,284.9,25"/>
	<path class="st8" d="M84.9,125c0,5.5-4.4,9.9-9.9,9.9c-5.5,0-9.9-4.4-9.9-9.9s4.4-9.9,9.9-9.9C80.5,115.1,84.9,119.5,84.9,125"/>
	<path class="st8" d="M134.9,125c0,5.5-4.4,9.9-9.9,9.9c-5.5,0-9.9-4.4-9.9-9.9s4.4-9.9,9.9-9.9C130.5,115.1,134.9,119.5,134.9,125"
		/>
	<path class="st8" d="M184.9,125c0,5.5-4.4,9.9-9.9,9.9c-5.5,0-9.9-4.4-9.9-9.9s4.4-9.9,9.9-9.9C180.5,115.1,184.9,119.5,184.9,125"
		/>
	<path class="st8" d="M334.9,25c0,5.5-4.4,9.9-9.9,9.9s-9.9-4.4-9.9-9.9s4.4-9.9,9.9-9.9S334.9,19.5,334.9,25"/>
	<path class="st3" d="M67.5,70.5h15v-3h-15V70.5z M67.5,76.5h15v-3h-15V76.5z M67.5,82.5h15v-3h-15V82.5z"/>
	<g>
		<path class="st8" d="M137.6,25c0,7-5.7,12.6-12.6,12.6c-7,0-12.6-5.7-12.6-12.6S118,12.4,125,12.4C132,12.4,137.6,18,137.6,25"/>
		<path class="st3" d="M125.4,17.1c-0.1-0.1-0.3-0.1-0.4-0.1c-0.3,0-0.5,0.1-0.7,0.3l-3.8,3.7H118c-0.6,0-1,0.4-1,1v6
			c0,0.6,0.4,1,1,1h2.5l3.8,3.7c0.2,0.2,0.4,0.3,0.7,0.3c0.1,0,0.3,0,0.4-0.1c0.4-0.2,0.6-0.5,0.6-0.9V18
			C126,17.6,125.8,17.2,125.4,17.1 M128.2,21.7l-1.3,1.3c0.5,0.5,0.9,1.2,0.9,2s-0.4,1.6-0.9,2l1.3,1.3c0.8-0.8,1.3-2,1.3-3.3
			C129.5,23.7,129,22.5,128.2,21.7 M130.7,19.1l-1.4,1.4c1,1.1,1.7,2.7,1.7,4.4s-0.7,3.4-1.7,4.5l1.4,1.4c1.4-1.5,2.3-3.5,2.3-5.9
			S132.1,20.6,130.7,19.1"/>
	</g>
	<g>
		<path class="st8" d="M187.6,25c0,7-5.7,12.6-12.6,12.6c-7,0-12.6-5.7-12.6-12.6S168,12.4,175,12.4C182,12.4,187.6,18,187.6,25"/>
		<path class="st3" d="M178.9,17.1c-0.1-0.1-0.3-0.1-0.4-0.1c-0.3,0-0.5,0.1-0.7,0.3L174,21h-2.5c-0.6,0-1,0.4-1,1v6
			c0,0.6,0.5,1,1,1h2.5l3.8,3.7c0.2,0.2,0.4,0.3,0.7,0.3c0.1,0,0.3,0,0.4-0.1c0.4-0.2,0.6-0.5,0.6-0.9V18
			C179.5,17.6,179.3,17.2,178.9,17.1"/>
	</g>
	<path class="st3" d="M32.9,73.3l-1.7-0.1c-0.1-0.5-0.3-1-0.6-1.4l1.1-1.2c0.3-0.3,0.3-0.8,0-1.2l-1.2-1.2c-0.3-0.3-0.8-0.3-1.2,0
		l-1.2,1.1c-0.4-0.3-0.9-0.5-1.4-0.6l-0.1-1.7c0-0.5-0.4-0.8-0.8-0.8h-1.7c-0.5,0-0.8,0.4-0.8,0.8l-0.1,1.7c-0.5,0.1-1,0.3-1.4,0.6
		l-1.2-1.1c-0.3-0.3-0.8-0.3-1.2,0l-1.2,1.2c-0.3,0.3-0.3,0.8,0,1.2l1.1,1.2c-0.3,0.4-0.5,0.9-0.6,1.4l-1.7,0.1
		c-0.5,0-0.8,0.4-0.8,0.8v1.7c0,0.5,0.4,0.8,0.8,0.8l1.7,0.1c0.1,0.5,0.3,1,0.6,1.4l-1.1,1.2c-0.3,0.3-0.3,0.8,0,1.2l1.2,1.2
		c0.3,0.3,0.8,0.3,1.2,0l1.2-1.1c0.4,0.2,0.9,0.5,1.4,0.6l0.1,1.7c0,0.5,0.4,0.8,0.8,0.8h1.7c0.5,0,0.8-0.4,0.8-0.8l0.1-1.7
		c0.5-0.1,1-0.3,1.4-0.6l1.2,1.1c0.3,0.3,0.8,0.3,1.2,0l1.2-1.2c0.3-0.3,0.3-0.8,0-1.2l-1.1-1.2c0.3-0.4,0.5-0.9,0.6-1.4l1.7-0.1
		c0.5,0,0.8-0.4,0.8-0.8v-1.7C33.7,73.7,33.3,73.3,32.9,73.3 M25,78.9c-2.1,0-3.9-1.7-3.9-3.9c0-2.2,1.7-3.9,3.9-3.9
		c2.1,0,3.9,1.7,3.9,3.9C28.9,77.1,27.1,78.9,25,78.9 M25,72.6c-1.3,0-2.4,1.1-2.4,2.4s1.1,2.4,2.4,2.4c1.3,0,2.4-1.1,2.4-2.4
		S26.3,72.6,25,72.6"/>
	<path class="st3" d="M24.2,25l5.6-5.6c0.6-0.6,0.6-1.5,0-2l-0.5-0.5c-0.6-0.6-1.5-0.6-2,0l-6.6,6.5c0,0,0,0,0,0L20.2,24
		c-0.3,0.3-0.4,0.6-0.4,1c0,0.4,0.1,0.7,0.4,1l0.5,0.5c0,0,0,0,0,0l6.6,6.5c0.6,0.6,1.5,0.6,2,0l0.5-0.5c0.6-0.6,0.6-1.5,0-2
		L24.2,25z"/>
	<path class="st3" d="M75.8,25l-5.6,5.6c-0.6,0.6-0.6,1.5,0,2l0.5,0.5c0.6,0.6,1.5,0.6,2,0l6.6-6.5c0,0,0,0,0,0l0.5-0.5
		c0.3-0.3,0.4-0.7,0.4-1c0-0.4-0.1-0.7-0.4-1l-0.5-0.5c0,0,0,0,0,0l-6.6-6.5c-0.6-0.6-1.5-0.6-2,0l-0.5,0.5c-0.6,0.6-0.6,1.5,0,2
		L75.8,25z"/>
	<path class="st3" d="M125.6,125l-4.3,4.2c-0.4,0.4-0.4,1.1,0,1.5l0.4,0.4c0.4,0.4,1.1,0.4,1.6,0l5-5c0,0,0,0,0,0l0.4-0.4
		c0.2-0.2,0.3-0.5,0.3-0.8c0-0.3-0.1-0.6-0.3-0.8l-0.4-0.4c0,0,0,0,0,0l-5-5c-0.4-0.4-1.1-0.4-1.6,0l-0.4,0.4
		c-0.4,0.4-0.4,1.1,0,1.5L125.6,125z"/>
	<g>
		<path class="st8" d="M34.9,125c0,5.5-4.4,9.9-9.9,9.9c-5.5,0-9.9-4.4-9.9-9.9s4.4-9.9,9.9-9.9C30.5,115.1,34.9,119.5,34.9,125"/>
		<path class="st3" d="M24.4,125l4.3-4.2c0.4-0.4,0.4-1.1,0-1.5l-0.4-0.4c-0.4-0.4-1.1-0.4-1.6,0l-5,5c0,0,0,0,0,0l-0.4,0.4
			c-0.2,0.2-0.3,0.5-0.3,0.8c0,0.3,0.1,0.6,0.3,0.8l0.4,0.4c0,0,0,0,0,0l5,5c0.4,0.4,1.1,0.4,1.6,0l0.4-0.4c0.4-0.4,0.4-1.1,0-1.5
			L24.4,125z"/>
	</g>
	<path class="st3" d="M125,75.8l-5.6-5.6c-0.6-0.6-1.5-0.6-2,0l-0.5,0.5c-0.6,0.6-0.6,1.5,0,2l6.5,6.6c0,0,0,0,0,0l0.5,0.5
		c0.3,0.3,0.6,0.4,1,0.4c0.4,0,0.7-0.1,1-0.4l0.5-0.5c0,0,0,0,0,0l6.5-6.6c0.6-0.6,0.6-1.5,0-2l-0.5-0.5c-0.6-0.6-1.5-0.6-2,0
		L125,75.8z"/>
	<path class="st3" d="M425,71.7l9.7,9.7c0.4,0.4,1.1,0.4,1.5,0l0.4-0.4c0.4-0.4,0.4-1.1,0-1.6L426.2,69c0,0,0,0,0,0l-0.4-0.4
		c-0.2-0.2-0.5-0.3-0.8-0.3c-0.3,0-0.6,0.1-0.8,0.3l-0.4,0.4c0,0,0,0,0,0l-10.4,10.4c-0.4,0.4-0.4,1.1,0,1.6l0.4,0.4
		c0.4,0.4,1.1,0.4,1.5,0L425,71.7z"/>
	<path class="st3" d="M375,78.3l-9.7-9.7c-0.4-0.4-1.1-0.4-1.5,0l-0.4,0.4c-0.4,0.4-0.4,1.1,0,1.6L373.8,81c0,0,0,0,0,0l0.4,0.4
		c0.2,0.2,0.5,0.3,0.8,0.3c0.3,0,0.6-0.1,0.8-0.3l0.4-0.4c0,0,0,0,0,0l10.4-10.4c0.4-0.4,0.4-1.1,0-1.6l-0.4-0.4
		c-0.4-0.4-1.1-0.4-1.5,0L375,78.3z"/>
	<path class="st3" d="M175,74.2l5.6,5.6c0.6,0.6,1.5,0.6,2,0l0.5-0.5c0.6-0.6,0.6-1.5,0-2l-6.5-6.6c0,0,0,0,0,0l-0.5-0.5
		c-0.3-0.3-0.6-0.4-1-0.4c-0.4,0-0.7,0.1-1,0.4l-0.5,0.5c0,0,0,0,0,0l-6.5,6.6c-0.6,0.6-0.6,1.5,0,2l0.5,0.5c0.6,0.6,1.5,0.6,2,0
		L175,74.2z"/>
	<path class="st3" d="M225,72.7l-4.9-4.9c-0.5-0.5-1.3-0.5-1.8,0l-0.4,0.4c-0.5,0.5-0.5,1.3,0,1.8l5.8,5.8c0,0,0,0,0,0l0.4,0.4
		c0.2,0.2,0.6,0.4,0.9,0.4c0.3,0,0.7-0.1,0.9-0.4l0.4-0.4c0,0,0,0,0,0l5.8-5.8c0.5-0.5,0.5-1.3,0-1.8l-0.4-0.4
		c-0.5-0.5-1.3-0.5-1.8,0L225,72.7z"/>
	<path class="st3" d="M225,81.2l-4.9-4.9c-0.5-0.5-1.3-0.5-1.8,0l-0.4,0.4c-0.5,0.5-0.5,1.3,0,1.8l5.8,5.8c0,0,0,0,0,0l0.4,0.4
		c0.2,0.2,0.6,0.4,0.9,0.4c0.3,0,0.7-0.1,0.9-0.4l0.4-0.4c0,0,0,0,0,0l5.8-5.8c0.5-0.5,0.5-1.3,0-1.8l-0.4-0.4
		c-0.5-0.5-1.3-0.5-1.8,0L225,81.2z"/>
	<path class="st8" d="M275,62.4c7,0,12.6,5.7,12.6,12.6c0,7-5.7,12.6-12.6,12.6c-7,0-12.6-5.7-12.6-12.6C262.4,68,268,62.4,275,62.4
		"/>
	<path class="st3" d="M275,78.6l4.9,4.9c0.5,0.5,1.3,0.5,1.8,0l0.4-0.4c0.5-0.5,0.5-1.3,0-1.8l-5.8-5.8c0,0,0,0,0,0l-0.4-0.4
		c-0.2-0.2-0.6-0.4-0.9-0.4c-0.3,0-0.7,0.1-0.9,0.4l-0.4,0.4c0,0,0,0,0,0l-5.8,5.8c-0.5,0.5-0.5,1.3,0,1.8l0.4,0.4
		c0.5,0.5,1.3,0.5,1.8,0L275,78.6z"/>
	<path class="st3" d="M275,70.3l4.9,4.9c0.5,0.5,1.3,0.5,1.8,0l0.4-0.4c0.5-0.5,0.5-1.3,0-1.8l-5.8-5.8c0,0,0,0,0,0l-0.4-0.4
		c-0.2-0.2-0.6-0.4-0.9-0.4c-0.3,0-0.7,0.1-0.9,0.4l-0.4,0.4c0,0,0,0,0,0l-5.8,5.8c-0.5,0.5-0.5,1.3,0,1.8l0.4,0.4
		c0.5,0.5,1.3,0.5,1.8,0L275,70.3z"/>
	<g>
		<path class="st8" d="M227.6,25c0,1.4-1.2,2.6-2.6,2.6c-1.4,0-2.6-1.2-2.6-2.6s1.2-2.6,2.6-2.6C226.4,22.4,227.6,23.6,227.6,25"/>
		<path class="st8" d="M237.6,25c0,1.4-1.2,2.6-2.6,2.6c-1.4,0-2.6-1.2-2.6-2.6s1.2-2.6,2.6-2.6C236.4,22.4,237.6,23.6,237.6,25"/>
		<path class="st8" d="M217.6,25c0,1.4-1.2,2.6-2.6,2.6c-1.4,0-2.6-1.2-2.6-2.6s1.2-2.6,2.6-2.6C216.4,22.4,217.6,23.6,217.6,25"/>
	</g>
	<path class="st3" d="M327.5,25l2.7-2.7c0.6-0.6,0.6-1.5,0-2.1l-0.4-0.4c-0.6-0.6-1.5-0.6-2.1,0l-2.7,2.7l-2.7-2.7
		c-0.6-0.6-1.5-0.6-2.1,0l-0.4,0.4c-0.6,0.6-0.6,1.5,0,2.1l2.7,2.7l-2.7,2.7c-0.6,0.6-0.6,1.5,0,2.1l0.4,0.4c0.6,0.6,1.5,0.6,2.1,0
		l2.7-2.7l2.7,2.7c0.6,0.6,1.5,0.6,2.1,0l0.4-0.4c0.6-0.6,0.6-1.5,0-2.1L327.5,25z"/>
	<g>
		<path class="st8" d="M334.9,75c0,5.5-4.4,9.9-9.9,9.9s-9.9-4.4-9.9-9.9s4.4-9.9,9.9-9.9S334.9,69.5,334.9,75"/>
		<path class="st3" d="M331.5,75c0,0.9-0.8,1.7-1.7,1.7h-9.6c-0.9,0-1.7-0.8-1.7-1.7V75c0-0.9,0.8-1.7,1.7-1.7h9.6
			C330.7,73.2,331.5,74,331.5,75L331.5,75z"/>
	</g>
	<path class="st3" d="M279.9,27H277v2.9c0,1.1-0.9,2-2,2c-1.1,0-2-0.9-2-2V27h-2.9c-1.1,0-2-0.9-2-2s0.9-2,2-2h2.9v-2.9
		c0-1.1,0.9-2,2-2c1.1,0,2,0.9,2,2V23h2.9c1.1,0,2,0.9,2,2S281.1,27,279.9,27"/>
	<path class="st8" d="M580.1,78c-0.7,0-1.3,0.2-1.8,0.6l-5.3-3.2c0-0.2,0-0.3,0-0.5c0-0.2,0-0.3,0-0.5l5.3-3.2
		c0.5,0.4,1.2,0.6,1.8,0.6c1.7,0,3-1.4,3-3s-1.4-3-3-3c-1.7,0-3,1.4-3,3c0,0.2,0,0.3,0,0.5l-5.3,3.2c-0.5-0.4-1.2-0.6-1.9-0.6
		c-1.7,0-3,1.4-3,3s1.4,3,3,3c0.7,0,1.3-0.2,1.9-0.6l5.3,3.2c0,0.2,0,0.3,0,0.5c0,1.7,1.4,3,3,3c1.7,0,3-1.4,3-3S581.7,78,580.1,78"
		/>
	<path class="st3" d="M75,124.4l4.2,4.3c0.4,0.4,1.1,0.4,1.5,0l0.4-0.4c0.4-0.4,0.4-1.1,0-1.6l-5-5c0,0,0,0,0,0l-0.4-0.4
		c-0.2-0.2-0.5-0.3-0.8-0.3c-0.3,0-0.6,0.1-0.8,0.3l-0.4,0.4c0,0,0,0,0,0l-5,5c-0.4,0.4-0.4,1.1,0,1.6l0.4,0.4
		c0.4,0.4,1.1,0.4,1.5,0L75,124.4z"/>
	<path class="st3" d="M175,125.6l-4.2-4.3c-0.4-0.4-1.1-0.4-1.5,0l-0.4,0.4c-0.4,0.4-0.4,1.1,0,1.6l5,5c0,0,0,0,0,0l0.4,0.4
		c0.2,0.2,0.5,0.3,0.8,0.3c0.3,0,0.6-0.1,0.8-0.3l0.4-0.4c0,0,0,0,0,0l5-5c0.4-0.4,0.4-1.1,0-1.6l-0.4-0.4c-0.4-0.4-1.1-0.4-1.5,0
		L175,125.6z"/>
	<path class="st3" d="M425,20.5l13.4,13.4c0.6,0.6,1.6,0.6,2.1,0l0.5-0.5c0.6-0.6,0.6-1.6,0-2.2l-14.4-14.5c0,0,0,0,0,0l-0.5-0.5
		c-0.3-0.3-0.7-0.4-1.1-0.4c-0.4,0-0.8,0.1-1.1,0.4l-0.5,0.5c0,0,0,0,0,0l-14.4,14.5c-0.6,0.6-0.6,1.6,0,2.2l0.5,0.5
		c0.6,0.6,1.5,0.6,2.1,0L425,20.5z"/>
	<path class="st3" d="M375,29.5l-13.4-13.4c-0.6-0.6-1.6-0.6-2.1,0l-0.5,0.5c-0.6,0.6-0.6,1.6,0,2.2l14.4,14.5c0,0,0,0,0,0l0.5,0.5
		c0.3,0.3,0.7,0.4,1.1,0.4c0.4,0,0.8-0.1,1.1-0.4l0.5-0.5c0,0,0,0,0,0l14.4-14.5c0.6-0.6,0.6-1.6,0-2.2l-0.5-0.5
		c-0.6-0.6-1.6-0.6-2.1,0L375,29.5z"/>
	<path class="st3" d="M529.5,25l-13.4,13.4c-0.6,0.6-0.6,1.6,0,2.1l0.5,0.5c0.6,0.6,1.6,0.6,2.2,0l14.5-14.4c0,0,0,0,0,0l0.5-0.5
		c0.3-0.3,0.4-0.7,0.4-1.1c0-0.4-0.1-0.8-0.4-1.1l-0.5-0.5c0,0,0,0,0,0L518.8,8.9c-0.6-0.6-1.6-0.6-2.2,0l-0.5,0.5
		c-0.6,0.6-0.6,1.5,0,2.1L529.5,25z"/>
	<path class="st3" d="M470.5,25l13.4-13.4c0.6-0.6,0.6-1.6,0-2.1l-0.5-0.5c-0.6-0.6-1.6-0.6-2.2,0l-14.5,14.4c0,0,0,0,0,0l-0.5,0.5
		c-0.3,0.3-0.4,0.7-0.4,1.1c0,0.4,0.1,0.8,0.4,1.1l0.5,0.5c0,0,0,0,0,0l14.5,14.4c0.6,0.6,1.6,0.6,2.2,0l0.5-0.5
		c0.6-0.6,0.6-1.5,0-2.1L470.5,25z"/>
	<path class="st9" d="M624.6,15.8c0.2-0.5,0.6-0.5,0.9,0l2.4,4.8c0.2,0.5,0.9,1,1.4,1l5.3,0.8c0.5,0.1,0.7,0.5,0.3,0.8L631,27
		c-0.4,0.4-0.6,1.1-0.5,1.7l0.9,5.3c0.1,0.5-0.2,0.8-0.7,0.5l-4.7-2.5c-0.5-0.3-1.3-0.3-1.8,0l-4.7,2.5c-0.5,0.3-0.8,0-0.7-0.5
		l0.9-5.3c0.1-0.5-0.2-1.3-0.5-1.7l-3.8-3.7c-0.4-0.4-0.3-0.8,0.3-0.8l5.3-0.8c0.5-0.1,1.2-0.5,1.4-1L624.6,15.8z"/>
	<polyline class="st10" points="416.1,121.4 424.5,128.6 433.9,121.4 	"/>
	<polyline class="st11" points="466.1,121.4 474.5,128.6 483.9,121.4 	"/>
	<polyline class="st12" points="583.9,128.6 575.5,121.4 566.1,128.6 	"/>
	<polyline class="st11" points="533.9,128.6 525.5,121.4 516.1,128.6 	"/>
	<polyline class="st11" points="223,132.5 227,125.4 223,117.5 	"/>
	<polyline class="st11" points="273,132.5 277,125.4 273,117.5 	"/>
	<g>
		<g>
			<g>
				<defs>
					<rect id="SVGID_3_" x="321.9" y="116.5" width="6.1" height="17"/>
				</defs>
				<use xlink:href="#SVGID_3_"  style="overflow:visible;fill:#FFFFFF;"/>
				<clipPath id="SVGID_2_">
					<use xlink:href="#SVGID_3_"  style="overflow:visible;"/>
				</clipPath>
				
					<polyline style="clip-path:url(#SVGID_2_);fill:#FFFFFF;stroke:#FFFFFF;stroke-width:2;stroke-linecap:round;stroke-miterlimit:10;" points="
					322.9,132.5 326.9,125.4 322.9,117.5 				"/>
				<use xlink:href="#SVGID_3_"  style="overflow:visible;fill:none;stroke:#FFFFFF;stroke-miterlimit:10;"/>
			</g>
		</g>
	</g>
	<g>
		<g>
			<g>
				<defs>
					<rect id="SVGID_5_" x="371.9" y="116.5" width="6.1" height="17"/>
				</defs>
				<use xlink:href="#SVGID_5_"  style="overflow:visible;fill:#FFFFFF;"/>
				<clipPath id="SVGID_4_">
					<use xlink:href="#SVGID_5_"  style="overflow:visible;"/>
				</clipPath>
				<polyline class="st13" points="372.9,132.5 376.9,125.4 372.9,117.5 				"/>
				<use xlink:href="#SVGID_5_"  style="overflow:visible;fill:none;stroke:#FFFFFF;stroke-miterlimit:10;"/>
			</g>
		</g>
	</g>
	<g>
		<g>
			<defs>
				<rect id="SVGID_7_" x="512.7" y="61.3" width="24.6" height="27.4"/>
			</defs>
			<clipPath id="SVGID_6_">
				<use xlink:href="#SVGID_7_"  style="overflow:visible;"/>
			</clipPath>
			<path style="clip-path:url(#SVGID_6_);fill:#F49C00;" d="M534.5,88.7h-8.4v-7.9c0-1.3-1.1-2.4-2.4-2.4c-1.3,0-2.4,1.1-2.4,2.4
				v7.9h-5.8c-1.5,0-2.8-1.2-2.8-2.8V72.8c0-0.8,0.3-1.5,0.9-2l9.5-8.8c0.5-0.5,1.2-0.7,1.9-0.7c0.7,0,1.4,0.3,1.9,0.7l9.5,8.8
				c0.6,0.5,0.9,1.3,0.9,2v13.1C537.3,87.5,536.1,88.7,534.5,88.7 M527.6,87.2h6.9c0.7,0,1.2-0.6,1.2-1.3V72.8
				c0-0.3-0.1-0.7-0.4-0.9l-9.5-8.8c-0.5-0.4-1.2-0.4-1.7,0l-9.5,8.8c-0.3,0.2-0.4,0.6-0.4,0.9v13.1c0,0.7,0.6,1.3,1.3,1.3h4.3v-6.4
				c0-2.2,1.8-3.9,3.9-3.9c2.2,0,3.9,1.8,3.9,3.9L527.6,87.2L527.6,87.2z"/>
		</g>
	</g>
	<path class="st3" d="M577,19.4h-4c-0.4,0-0.8-0.3-0.8-0.8v-3.9c0-0.3,0.2-0.6,0.5-0.7c0.3-0.1,0.6-0.1,0.8,0.2l4,3.9
		c0.2,0.2,0.3,0.5,0.2,0.8C577.6,19.2,577.3,19.4,577,19.4 M573.8,17.9h1.4l-1.4-1.4V17.9z"/>
	<path class="st3" d="M581.6,36.7h-13.2c-1.6,0-2.2-1.3-2.2-2.2v-19c0,0,0,0,0-0.1c0.1-0.7,0.6-2.1,2.2-2.1H579
		c0.4,0,0.8,0.3,0.8,0.8s-0.3,0.8-0.8,0.8h-10.5c-0.6,0-0.7,0.5-0.7,0.7v19c0,0.4,0.2,0.6,0.7,0.6h13.2c0.2,0,0.4,0,0.5-0.1
		c0.1-0.1,0.1-0.4,0.1-0.4V18c0-0.4,0.3-0.8,0.8-0.8c0.4,0,0.8,0.3,0.8,0.8v16.6c0,0.1,0,0.9-0.6,1.4
		C582.9,36.3,582.4,36.7,581.6,36.7"/>
	<path class="st3" d="M580.2,26.6h-10.1c-0.4,0-0.8-0.3-0.8-0.8c0-0.4,0.3-0.8,0.8-0.8h10.1c0.4,0,0.8,0.3,0.8,0.8
		C581,26.3,580.6,26.6,580.2,26.6"/>
	<path class="st3" d="M580.2,23.6h-10.1c-0.4,0-0.8-0.3-0.8-0.8c0-0.4,0.3-0.8,0.8-0.8h10.1c0.4,0,0.8,0.3,0.8,0.8
		C581,23.2,580.6,23.6,580.2,23.6"/>
	<path class="st3" d="M580.2,29.7h-10.1c-0.4,0-0.8-0.3-0.8-0.8c0-0.4,0.3-0.8,0.8-0.8h10.1c0.4,0,0.8,0.3,0.8,0.8
		C581,29.3,580.6,29.7,580.2,29.7"/>
	<path class="st3" d="M580.2,32.7h-10.1c-0.4,0-0.8-0.3-0.8-0.8c0-0.4,0.3-0.8,0.8-0.8h10.1c0.4,0,0.8,0.3,0.8,0.8
		C581,32.4,580.6,32.7,580.2,32.7"/>
	<g>
		<path class="st8" d="M631.9,73.4h3.1v-7.7c0-0.5-0.4-0.9-0.9-0.9h-18.4c-0.5,0-0.9,0.4-0.9,0.9v7.7h3.1c3.3,0,6.1,2.2,6.9,5.2
			C625.9,75.6,628.7,73.4,631.9,73.4z"/>
		<path class="st8" d="M630,76.7c-2,0-3.9,1-5,2.5c-1.2-1.5-3-2.5-5-2.5h-5v8c0,0.5,0.4,0.9,0.9,0.9h18.4c0.5,0,0.9-0.4,0.9-0.9v-8
			H630z"/>
	</g>
	<g>
		<path class="st3" d="M630.9,114.1c-1.6-1.2-3.7-1.8-6.2-1.8c-1.9,0-3.5,0.4-4.8,1.2c-2,1.3-3.1,3.5-3.3,6.6h4.7
			c0-0.9,0.3-1.8,0.8-2.6c0.5-0.8,1.4-1.3,2.7-1.3c1.3,0,2.2,0.3,2.7,1c0.5,0.7,0.7,1.4,0.7,2.3c0,0.7-0.4,1.4-0.8,2
			c-0.2,0.3-0.6,0.7-0.9,1c0,0-2.6,1.6-3.7,3c-0.7,0.8-0.7,1.9-0.8,3.6c0,0.1,0,0.4,0.5,0.4c0.4,0,3.3,0,3.7,0
			c0.4,0,0.4-0.3,0.4-0.4c0-0.6,0.1-0.9,0.2-1.3c0.2-0.7,0.8-1.2,1.4-1.7l1.3-0.9c1.2-0.9,2.1-1.7,2.5-2.3c0.7-1,1.2-2.2,1.2-3.6
			C633.3,117,632.5,115.2,630.9,114.1z M624.6,132.2c-1.6,0-3,1.1-3,2.9c-0.1,1.8,1.2,2.9,2.9,3c1.7,0.1,3-1,3.1-2.8
			C627.6,133.5,626.3,132.3,624.6,132.2z"/>
	</g>
	<g>
		<circle class="st17" cx="471.6" cy="71.1" r="7.3"/>
		<path class="st17" d="M476.3,76.7c4.5,4.6,5.4,4.7,9.4,9.4"/>
	</g>
</g>
<g id="layer-set-10" class="st0">
</g>
<g id="layer-set-9" class="st0">
</g>
<g id="layer-set-8" class="st0">
</g>
<g id="layer-set-7" class="st0">
</g>
<g id="layer-set-6" class="st0">
</g>
<g id="layer-set-5" class="st0">
</g>
<g id="layer-set-4" class="st0">
</g>
<g id="layer-set-3" class="st0">
</g>
<g id="layer-set-2" class="st0">
</g>
<g id="layer-set-1" class="st0">
</g>
</svg>
