<?xml version="1.0" encoding="utf-8"?>
<!-- Generator: Adobe Illustrator 16.0.4, SVG Export Plug-In . SVG Version: 6.00 Build 0)  -->
<!DOCTYPE svg PUBLIC "-//W3C//DTD SVG 1.1//EN" "http://www.w3.org/Graphics/SVG/1.1/DTD/svg11.dtd">
<svg version="1.1" xmlns="http://www.w3.org/2000/svg" xmlns:xlink="http://www.w3.org/1999/xlink" x="0px" y="0px" width="650px"
	 height="50px" viewBox="0 0 650 50" enable-background="new 0 0 650 50" xml:space="preserve">
<g id="red-bg" display="none">
	<rect x="-715.187" y="-307.673" display="inline" opacity="0.27" fill="#FF0000" width="2149.996" height="449.673"/>
</g>
<g id="layer-set-12">
</g>
<g id="layer-set-11">
	<g>
		<path fill="#E6333F" d="M87.641,25c0,6.98-5.66,12.641-12.641,12.641S62.359,31.98,62.359,25s5.66-12.641,12.643-12.641
			C81.982,12.359,87.641,18.02,87.641,25"/>
		<path fill="#FFFFFF" d="M84.045,19.604c-0.641,0.285-1.328,0.476-2.051,0.562c0.736-0.44,1.305-1.14,1.57-1.974
			c-0.689,0.408-1.455,0.705-2.268,0.865c-0.65-0.693-1.578-1.127-2.605-1.127c-1.971,0-3.57,1.598-3.57,3.57
			c0,0.281,0.031,0.552,0.094,0.812c-2.969-0.149-5.6-1.57-7.359-3.729c-0.307,0.526-0.484,1.14-0.484,1.795
			c0,1.239,0.633,2.331,1.59,2.972c-0.586-0.02-1.137-0.18-1.617-0.447c0,0.016,0,0.029,0,0.045c0,1.729,1.23,3.172,2.863,3.501
			c-0.301,0.081-0.615,0.124-0.941,0.124c-0.229,0-0.453-0.022-0.67-0.063c0.453,1.417,1.771,2.45,3.334,2.478
			c-1.223,0.959-2.76,1.529-4.434,1.529c-0.289,0-0.572-0.018-0.852-0.051c1.58,1.014,3.455,1.605,5.473,1.605
			c6.566,0,10.156-5.439,10.156-10.157c0-0.155-0.004-0.31-0.01-0.463C82.961,20.948,83.566,20.32,84.045,19.604"/>
	</g>
	<g>
		<path fill="#E6333F" d="M175,37.641c-6.98,0-12.641-5.658-12.641-12.64S168.02,12.359,175,12.359s12.641,5.66,12.641,12.642
			S181.98,37.641,175,37.641"/>
		<path fill="#FFFFFF" d="M169.604,19.715c1.254,0,2.037-0.833,2.037-1.871c-0.023-1.062-0.781-1.871-2.014-1.871
			s-2.037,0.809-2.037,1.871c0,1.039,0.782,1.872,1.99,1.872L169.604,19.715L169.604,19.715z M171.402,21.193h-3.601v10.834h3.601
			V21.193z"/>
		<path fill="#FFFFFF" d="M173.396,32.027h3.601v-6.051c0-0.322,0.024-0.648,0.119-0.877c0.26-0.647,0.852-1.318,1.848-1.318
			c1.304,0,1.824,0.994,1.824,2.451v5.795h3.601v-6.213c0-3.328-1.775-4.875-4.146-4.875c-1.943,0-2.795,1.086-3.271,1.826h0.023
			v-1.572h-3.6C173.443,22.21,173.396,32.027,173.396,32.027"/>
	</g>
	<g>
		<path fill="#E6333F" d="M125.001,37.641c-6.981,0-12.641-5.658-12.641-12.64s5.659-12.642,12.641-12.642
			c6.98,0,12.639,5.66,12.639,12.642S131.981,37.641,125.001,37.641"/>
		<polygon fill="#FFFFFF" points="122.921,24.21 120.554,24.21 120.554,21.844 118.976,21.844 118.976,24.21 116.609,24.21 
			116.609,25.786 118.976,25.786 118.976,28.155 120.554,28.155 120.554,25.786 122.921,25.786 		"/>
		<path fill="#FFFFFF" d="M131.677,19.336h-1.352c0,0-3.352,3.021-4.432,2.843l-0.377,2.059c0.699,0.068,3.078-1.354,3.078-1.354
			l-1.527,7.781h2.254L131.677,19.336z"/>
	</g>
	<g>
		<path fill="#E6333F" d="M37.641,25c0,6.98-5.66,12.641-12.641,12.641S12.359,31.98,12.359,25S18.02,12.359,25,12.359
			S37.641,18.02,37.641,25"/>
		<path fill="#FFFFFF" d="M26.992,19.684h1.363v-2.759H25.4c-1.795,0-3.25,1.455-3.25,3.249v1.65h-2.33v2.758h2.33v8.492h3.625
			v-8.492h2.58v-2.758h-2.58v-0.926C25.775,20.227,26.32,19.684,26.992,19.684"/>
	</g>
	<path fill="#E6333F" d="M229.738,27.57c0.401,0,0.93-0.232,1.582-0.695c0.867-0.607,1.553-1.422,2.057-2.444
		c0.506-1.021,0.759-2.075,0.759-3.161c0-1.27-0.325-2.455-0.974-3.557c-0.65-1.102-1.619-1.982-2.906-2.645
		c-1.288-0.659-2.711-0.99-4.268-0.99l-0.19,0.008c-6.019,0-10.914,4.896-10.914,10.914s4.896,10.913,10.914,10.913
		c3.901,0,7.325-2.062,9.256-5.147c0,0,0.491-0.751,1.21-0.4c0.719,0.35,0.381,1.007,0.381,1.007
		c-2.189,3.714-6.23,6.213-10.847,6.213c-6.94,0-12.585-5.646-12.585-12.585s5.645-12.586,12.585-12.586h0.293
		c1.884,0,3.575,0.386,5.077,1.156c1.5,0.771,2.683,1.92,3.549,3.447c0.736,1.314,1.105,2.743,1.105,4.285
		c0,2.203-0.775,4.159-2.324,5.868c-1.383,1.535-2.895,2.302-4.535,2.302c-0.525,0-0.948-0.08-1.271-0.238
		c-0.322-0.16-0.56-0.389-0.712-0.685c-0.099-0.19-0.171-0.517-0.217-0.979c-0.493,0.57-1.046,1.027-1.658,1.373
		c-0.61,0.346-1.226,0.519-1.84,0.519c-0.677,0-1.333-0.198-1.972-0.593s-1.156-1.004-1.555-1.823
		c-0.4-0.821-0.599-1.722-0.599-2.701c0-1.208,0.31-2.417,0.929-3.629s1.389-2.122,2.307-2.729c0.92-0.607,1.812-0.912,2.679-0.912
		c0.661,0,1.292,0.174,1.892,0.52s1.116,0.871,1.549,1.578l0.389-1.766h2.039l-1.641,7.646c-0.228,1.063-0.342,1.652-0.342,1.767
		c0,0.205,0.078,0.381,0.232,0.529C229.328,27.496,229.517,27.57,229.738,27.57 M221.248,24.482c0,1.041,0.246,1.85,0.74,2.427
		c0.493,0.577,1.06,0.866,1.698,0.866c0.425,0,0.873-0.127,1.345-0.381c0.471-0.256,0.92-0.634,1.351-1.135
		c0.429-0.502,0.78-1.138,1.054-1.908c0.273-0.771,0.41-1.545,0.41-2.32c0-1.032-0.256-1.834-0.77-2.403
		c-0.513-0.569-1.138-0.854-1.875-0.854c-0.485,0-0.943,0.123-1.373,0.369c-0.429,0.248-0.845,0.645-1.248,1.191
		c-0.401,0.547-0.725,1.212-0.967,1.994C221.369,23.111,221.248,23.829,221.248,24.482"/>
	<path fill="#E6333F" d="M225.83,37.732c-7.021,0-12.733-5.713-12.733-12.733s5.713-12.731,12.733-12.731h0.293
		c1.899,0,3.63,0.394,5.144,1.172c1.52,0.78,2.734,1.961,3.61,3.506c0.746,1.33,1.125,2.797,1.125,4.357
		c0,2.23-0.796,4.238-2.363,5.967c-1.405,1.56-2.968,2.351-4.644,2.351c-0.545,0-0.994-0.085-1.336-0.254
		c-0.352-0.173-0.613-0.425-0.779-0.749c-0.082-0.158-0.145-0.393-0.191-0.709c-0.447,0.47-0.943,0.861-1.479,1.162
		c-1.325,0.75-2.704,0.703-3.962-0.076c-0.66-0.408-1.201-1.042-1.611-1.885c-0.405-0.836-0.612-1.767-0.612-2.765
		c0-1.226,0.317-2.469,0.944-3.696c0.628-1.229,1.421-2.166,2.358-2.785c1.66-1.098,3.297-1.219,4.724-0.398
		c0.531,0.307,1.003,0.754,1.407,1.332l0.338-1.539h2.341l-1.679,7.824c-0.295,1.375-0.34,1.678-0.34,1.736
		c0,0.164,0.062,0.303,0.188,0.423c0.388,0.368,1.028,0.176,1.962-0.487c0.842-0.591,1.518-1.395,2.01-2.389
		c0.492-0.997,0.742-2.039,0.742-3.098c0-1.235-0.32-2.406-0.955-3.479c-0.632-1.072-1.588-1.943-2.846-2.587
		c-1.259-0.648-2.673-0.977-4.199-0.977l-0.185,0.008c-5.942,0-10.772,4.83-10.772,10.767s4.829,10.767,10.767,10.767
		c3.729,0,7.143-1.898,9.131-5.078c0.017-0.026,0.375-0.563,0.953-0.563c0.149,0,0.3,0.037,0.446,0.108
		c0.26,0.127,0.428,0.304,0.502,0.526c0.115,0.345-0.047,0.666-0.055,0.681C234.519,35.322,230.313,37.732,225.83,37.732
		 M225.83,12.561c-6.859,0-12.438,5.58-12.438,12.438s5.579,12.438,12.438,12.438c4.379,0,8.487-2.354,10.72-6.142
		c0,0,0.107-0.224,0.032-0.446c-0.05-0.144-0.167-0.263-0.351-0.353c-0.106-0.052-0.213-0.078-0.317-0.078
		c-0.421,0-0.702,0.423-0.705,0.427c-2.04,3.264-5.548,5.215-9.379,5.215c-6.099,0-11.062-4.963-11.062-11.062
		s4.963-11.062,11.062-11.062l0.184-0.008h0.001c1.58,0,3.038,0.34,4.34,1.008c1.308,0.672,2.305,1.58,2.967,2.7
		c0.66,1.119,0.994,2.341,0.994,3.63c0,1.104-0.261,2.19-0.773,3.229c-0.514,1.039-1.223,1.88-2.104,2.499
		c-1.088,0.772-1.841,0.929-2.336,0.46c-0.185-0.178-0.279-0.391-0.279-0.637c0-0.088,0.039-0.371,0.347-1.797l1.603-7.469h-1.74
		l-0.439,2.008l-0.191-0.312c-0.418-0.683-0.922-1.196-1.498-1.528c-1.332-0.767-2.849-0.646-4.414,0.389
		c-0.894,0.591-1.653,1.49-2.258,2.674c-0.605,1.185-0.912,2.383-0.912,3.562c0,0.953,0.195,1.841,0.582,2.636
		c0.385,0.791,0.891,1.385,1.502,1.764c1.166,0.722,2.43,0.767,3.662,0.07c0.594-0.336,1.139-0.787,1.619-1.342l0.223-0.259
		l0.035,0.341c0.043,0.443,0.11,0.756,0.201,0.928c0.137,0.27,0.35,0.473,0.646,0.619c0.301,0.148,0.707,0.224,1.206,0.224
		c1.589,0,3.078-0.759,4.425-2.253c1.517-1.674,2.287-3.615,2.287-5.77c0-1.51-0.366-2.927-1.086-4.213
		c-0.849-1.494-2.022-2.634-3.489-3.388c-1.473-0.757-3.158-1.142-5.009-1.142H225.83z M223.719,27.923
		c-0.681,0-1.29-0.31-1.812-0.918c-0.514-0.603-0.775-1.451-0.775-2.522c0-0.666,0.125-1.405,0.372-2.198
		c0.246-0.794,0.58-1.48,0.989-2.038c0.414-0.561,0.849-0.975,1.293-1.23c0.451-0.26,0.938-0.391,1.447-0.391
		c0.777,0,1.444,0.304,1.984,0.902c0.536,0.597,0.807,1.438,0.807,2.504c0,0.787-0.141,1.585-0.418,2.369
		c-0.279,0.785-0.643,1.442-1.082,1.955c-0.438,0.513-0.906,0.905-1.392,1.168C224.644,27.788,224.167,27.923,223.719,27.923
		 M225.233,18.92c-0.457,0-0.895,0.118-1.299,0.352c-0.41,0.235-0.814,0.623-1.203,1.149c-0.391,0.532-0.709,1.188-0.947,1.951
		c-0.236,0.764-0.357,1.474-0.357,2.11c0,1,0.238,1.783,0.705,2.33c0.781,0.914,1.744,1.056,2.861,0.451
		c0.453-0.244,0.893-0.615,1.308-1.101c0.416-0.485,0.761-1.111,1.028-1.861c0.266-0.753,0.402-1.517,0.402-2.271
		c0-0.99-0.246-1.766-0.732-2.305C226.511,19.184,225.933,18.92,225.233,18.92"/>
	<g>
		<path fill="#E6333F" d="M275,37.641c-6.98,0-12.641-5.658-12.641-12.64S268.02,12.359,275,12.359s12.641,5.66,12.641,12.642
			S281.98,37.641,275,37.641"/>
		<path fill-rule="evenodd" clip-rule="evenodd" fill="#FFFFFF" d="M280.975,18.991c-1.586-1.587-3.693-2.462-5.939-2.463
			c-4.627,0-8.394,3.767-8.395,8.396c-0.003,1.479,0.385,2.924,1.119,4.196l-1.189,4.352l4.45-1.169
			c1.226,0.669,2.606,1.022,4.012,1.022h0.003l0,0c4.626,0,8.394-3.766,8.395-8.395C283.432,22.687,282.559,20.578,280.975,18.991
			 M275.035,31.908h-0.002c-1.253,0-2.479-0.337-3.552-0.973l-0.256-0.151l-2.641,0.691l0.704-2.574l-0.165-0.264
			c-0.699-1.11-1.067-2.396-1.067-3.713c0.002-3.849,3.133-6.978,6.981-6.978c1.864,0,3.615,0.727,4.934,2.046
			c1.316,1.319,2.042,3.072,2.041,4.938C282.013,28.777,278.881,31.908,275.035,31.908 M278.863,26.683
			c-0.21-0.106-1.241-0.614-1.434-0.684c-0.192-0.07-0.333-0.105-0.473,0.104c-0.14,0.211-0.542,0.683-0.665,0.823
			c-0.122,0.141-0.243,0.157-0.453,0.053c-0.209-0.106-0.886-0.327-1.688-1.042c-0.622-0.556-1.043-1.242-1.166-1.453
			c-0.122-0.209-0.012-0.323,0.093-0.427c0.094-0.096,0.209-0.246,0.314-0.368c0.104-0.123,0.139-0.211,0.209-0.351
			s0.035-0.263-0.017-0.366c-0.054-0.106-0.473-1.139-0.647-1.559c-0.17-0.409-0.343-0.354-0.472-0.359
			c-0.122-0.006-0.263-0.008-0.401-0.008c-0.141,0-0.367,0.052-0.56,0.262s-0.734,0.717-0.734,1.75s0.752,2.031,0.855,2.171
			c0.106,0.14,1.48,2.259,3.585,3.168c0.5,0.215,0.891,0.344,1.195,0.442c0.503,0.157,0.96,0.135,1.321,0.082
			c0.403-0.061,1.241-0.508,1.417-0.997c0.174-0.491,0.174-0.912,0.121-0.998C279.211,26.839,279.072,26.786,278.863,26.683"/>
	</g>
</g>
<g id="layer-set-10">
</g>
<g id="layer-set-9">
</g>
<g id="layer-set-8">
</g>
<g id="layer-set-7">
</g>
<g id="layer-set-6">
</g>
<g id="layer-set-5">
</g>
<g id="layer-set-4">
</g>
<g id="layer-set-3">
</g>
<g id="layer-set-2">
</g>
<g id="layer-set-1">
</g>
</svg>
