<?xml version="1.0" encoding="utf-8"?>
<!-- Generator: Adobe Illustrator 15.0.0, SVG Export Plug-In  -->
<!DOCTYPE svg PUBLIC "-//W3C//DTD SVG 1.1//EN" "http://www.w3.org/Graphics/SVG/1.1/DTD/svg11.dtd" [
	<!ENTITY ns_flows "http://ns.adobe.com/Flows/1.0/">
]>
<svg version="1.1"
	 xmlns="http://www.w3.org/2000/svg" xmlns:xlink="http://www.w3.org/1999/xlink" xmlns:a="http://ns.adobe.com/AdobeSVGViewerExtensions/3.0/"
	 x="0px" y="0px" width="650px" height="150px" viewBox="749.675 449.673 650 150"
	 overflow="visible" enable-background="new 749.675 449.673 650 150" xml:space="preserve">
<defs>
</defs>
<polyline fill="none" stroke="#FFFFFF" stroke-miterlimit="10" points="779.776,464.472 769.575,474.673 779.776,484.874 "/>
<polyline fill="none" stroke="#FFFFFF" stroke-miterlimit="10" points="819.576,484.874 829.775,474.673 819.576,464.472 "/>
<polyline fill="none" stroke="#FFFFFF" stroke-miterlimit="10" points="864.474,519.572 874.675,529.773 884.875,519.572 "/>
<polyline fill="none" stroke="#FFFFFF" stroke-miterlimit="10" points="934.875,529.773 924.675,519.572 914.475,529.773 "/>
<polygon fill="none" stroke="#FFFFFF" stroke-miterlimit="10" points="910.675,474.673 910.675,468.673 916.675,468.673 
	925.675,459.673 925.675,474.673 925.675,489.673 916.675,480.673 910.675,480.673 "/>
<line fill="none" stroke="#FFFFFF" stroke-miterlimit="10" x1="929.675" y1="470.173" x2="938.675" y2="479.173"/>
<line fill="none" stroke="#FFFFFF" stroke-miterlimit="10" x1="929.675" y1="479.173" x2="938.675" y2="470.173"/>
<polygon fill="none" stroke="#FFFFFF" stroke-miterlimit="10" points="860.175,474.673 860.175,468.673 866.175,468.673 
	875.175,459.673 875.175,474.673 875.175,489.673 866.175,480.673 860.175,480.673 "/>
<path fill="none" stroke="#FFFFFF" stroke-miterlimit="10" d="M879.175,479.673c2.76,0,5-2.24,5-5c0-2.761-2.24-5-5-5"/>
<path fill="none" stroke="#FFFFFF" stroke-miterlimit="10" d="M879.175,464.673c5.521,0,10,4.478,10,10s-4.479,10-10,10"/>
<polygon fill="none" stroke="#FFFFFF" stroke-miterlimit="10" points="774.676,509.173 771.675,509.173 771.675,513.673 
	768.675,514.673 765.675,511.673 761.675,515.673 764.676,518.673 763.675,521.673 759.175,521.673 759.175,527.673 
	763.675,527.673 764.676,530.673 761.675,533.673 765.675,537.673 768.675,534.673 771.675,535.673 771.675,540.173 
	774.676,540.173 777.675,540.173 777.675,535.673 780.675,534.673 783.675,537.673 787.675,533.673 784.676,530.673 
	785.675,527.673 790.175,527.673 790.175,521.673 785.675,521.673 784.676,518.673 787.675,515.673 783.675,511.673 
	780.675,514.673 777.675,513.673 777.675,509.173 "/>
<circle fill="none" stroke="#FFFFFF" stroke-miterlimit="10" cx="774.676" cy="524.673" r="3"/>
<polygon fill="none" stroke="#FFFFFF" stroke-miterlimit="10" points="1274.675,509.673 1259.675,524.673 1264.175,524.673 
	1264.175,539.673 1270.175,539.673 1270.175,531.673 1278.175,531.673 1278.175,539.673 1284.175,539.673 1284.175,524.673 
	1289.675,524.673 "/>
<path fill="none" stroke="#FFFFFF" stroke-miterlimit="10" d="M1385.635,563.715c6.054,6.051,6.054,15.865,0,21.918
	c-6.053,6.055-15.867,6.055-21.92,0c-6.054-6.053-6.054-15.867,0-21.918C1369.768,557.66,1379.582,557.66,1385.635,563.715z"/>
<line fill="none" stroke="#FFFFFF" stroke-miterlimit="10" x1="1373.675" y1="580.172" x2="1373.675" y2="582.174"/>
<path fill="none" stroke="#FFFFFF" stroke-miterlimit="10" d="M1370.675,569.174c0-1.502,1-2.5,4-2.5c2.5,0,4,1.5,4,3.498
	c0,2.002-3,3.502-3,3.502s-2,1-2,3.998v0.502"/>
<circle fill="none" stroke="#FFFFFF" stroke-miterlimit="10" cx="1334.175" cy="515.172" r="6"/>
<circle fill="none" stroke="#FFFFFF" stroke-miterlimit="10" cx="1314.175" cy="529.673" r="5"/>
<circle fill="none" stroke="#FFFFFF" stroke-miterlimit="10" cx="1332.675" cy="536.173" r="4"/>
<line fill="none" stroke="#FFFFFF" stroke-miterlimit="10" x1="1328.675" y1="535.673" x2="1318.675" y2="531.673"/>
<line fill="none" stroke="#FFFFFF" stroke-miterlimit="10" x1="1318.175" y1="526.172" x2="1329.175" y2="519.173"/>
<polygon fill="none" stroke="#FFFFFF" stroke-miterlimit="10" points="1374.675,482.423 1364.675,489.923 1368.675,477.924 
	1359.675,470.923 1370.675,470.923 1374.675,459.424 1378.675,470.923 1389.675,470.923 1380.675,477.924 1384.675,489.923 "/>
<rect x="1309.175" y="466.173" fill="none" stroke="#FFFFFF" stroke-miterlimit="10" width="27" height="21"/>
<polyline fill="none" stroke="#FFFFFF" stroke-miterlimit="10" points="1314.175,464.673 1314.175,462.173 1340.175,462.173 
	1340.175,483.673 1337.675,483.673 "/>
<line fill="none" stroke="#FFFFFF" stroke-miterlimit="10" x1="1309.175" y1="470.173" x2="1336.175" y2="470.173"/>
<line fill="none" stroke="#FFFFFF" stroke-miterlimit="10" x1="1313.675" y1="468.173" x2="1311.675" y2="468.173"/>
<line fill="none" stroke="#FFFFFF" stroke-miterlimit="10" x1="1317.675" y1="468.173" x2="1315.675" y2="468.173"/>
<line fill="none" stroke="#FFFFFF" stroke-miterlimit="10" x1="1321.675" y1="468.173" x2="1319.675" y2="468.173"/>
<line fill="none" stroke="#FFFFFF" stroke-miterlimit="10" x1="812.675" y1="524.841" x2="836.675" y2="524.841"/>
<line fill="none" stroke="#FFFFFF" stroke-miterlimit="10" x1="812.675" y1="516.604" x2="836.675" y2="516.604"/>
<line fill="none" stroke="#FFFFFF" stroke-miterlimit="10" x1="812.675" y1="532.741" x2="836.675" y2="532.741"/>
<line fill="none" stroke="#FFFFFF" stroke-miterlimit="10" x1="1024.675" y1="481.424" x2="1024.675" y2="467.922"/>
<line fill="none" stroke="#FFFFFF" stroke-miterlimit="10" x1="1017.925" y1="474.674" x2="1031.425" y2="474.674"/>
<line fill="none" stroke="#FFFFFF" stroke-miterlimit="10" x1="1067.925" y1="524.673" x2="1081.425" y2="524.673"/>
<polyline fill="none" stroke="#FFFFFF" stroke-miterlimit="10" points="984.875,519.573 974.675,529.772 964.475,519.573 "/>
<polyline fill="none" stroke="#FFFFFF" stroke-miterlimit="10" points="984.875,519.573 974.675,529.772 964.475,519.573 "/>
<polyline fill="none" stroke="#FFFFFF" stroke-miterlimit="10" points="1014.474,529.772 1024.675,519.573 1034.875,529.772 "/>
<polyline fill="none" stroke="#FFFFFF" stroke-miterlimit="10" points="1014.474,529.772 1024.675,519.573 1034.875,529.772 "/>
<polygon fill="none" stroke="#000000" stroke-miterlimit="10" points="1021.316,570.053 1028.035,574.674 1021.316,579.293 "/>
<polygon fill="none" stroke="#FFFFFF" stroke-miterlimit="10" points="971.315,579.293 978.036,574.674 971.315,570.053 "/>
<polygon fill="none" stroke="#000000" stroke-miterlimit="10" points="1279.295,578.032 1274.676,571.313 1270.055,578.032 "/>
<polygon fill="none" stroke="#FFFFFF" stroke-miterlimit="10" points="1170.055,571.314 1174.675,578.033 1179.295,571.314 "/>
<polygon fill="none" stroke="#000000" stroke-miterlimit="10" points="1121.316,570.053 1128.035,574.674 1121.316,579.293 "/>
<polygon fill="none" stroke="#000000" stroke-miterlimit="10" points="1071.315,579.293 1078.036,574.674 1071.315,570.053 "/>
<polygon fill="none" stroke="#FFFFFF" stroke-miterlimit="10" points="1329.295,578.033 1324.675,571.314 1320.055,578.033 "/>
<polygon fill="none" stroke="#000000" stroke-miterlimit="10" points="1220.054,571.314 1224.675,578.033 1229.294,571.314 "/>
<line fill="none" stroke="#FFFFFF" stroke-miterlimit="10" x1="1069.782" y1="469.815" x2="1079.569" y2="479.53"/>
<line fill="none" stroke="#FFFFFF" stroke-miterlimit="10" x1="1069.819" y1="479.565" x2="1079.532" y2="469.78"/>
<polyline fill="none" stroke="#FFFFFF" stroke-miterlimit="10" points="831.05,577.861 824.675,571.486 818.3,577.861 "/>
<polyline fill="none" stroke="#FFFFFF" stroke-miterlimit="10" points="777.863,568.299 771.488,574.674 777.863,581.049 "/>
<polyline fill="none" stroke="#FFFFFF" stroke-miterlimit="10" points="918.3,571.486 924.675,577.861 931.05,571.486 "/>
<polyline fill="none" stroke="#FFFFFF" stroke-miterlimit="10" points="871.488,581.049 877.863,574.674 871.488,568.299 "/>
<path fill="none" stroke="#FFFFFF" stroke-miterlimit="10" d="M960.893,470.342c-2.393,0-4.33,1.938-4.33,4.331
	s1.938,4.331,4.33,4.331s4.331-1.938,4.331-4.331S963.286,470.342,960.893,470.342z M974.674,470.342
	c-2.393,0-4.331,1.938-4.331,4.331s1.938,4.331,4.331,4.331s4.331-1.938,4.331-4.331S977.065,470.342,974.674,470.342z
	 M988.456,470.342c-2.393,0-4.33,1.938-4.33,4.331s1.938,4.331,4.33,4.331c2.392,0,4.332-1.938,4.332-4.331
	S990.846,470.342,988.456,470.342z"/>
<polygon fill="none" stroke="#FFFFFF" stroke-miterlimit="10" points="1133.176,470.423 1124.676,478.923 1116.175,470.423 "/>
<polygon fill="none" stroke="#FFFFFF" stroke-miterlimit="10" points="1166.175,478.923 1174.675,470.423 1183.175,478.923 "/>
<polygon fill="none" stroke="#FFFFFF" stroke-miterlimit="10" points="1228.925,483.174 1220.425,474.673 1228.925,466.173 "/>
<polygon fill="none" stroke="#FFFFFF" stroke-miterlimit="10" points="1270.425,466.173 1278.925,474.673 1270.425,483.174 "/>
<polyline fill="none" stroke="#FFFFFF" stroke-miterlimit="10" points="1116.175,520.423 1124.675,528.923 1133.175,520.423 "/>
<polyline fill="none" stroke="#FFFFFF" stroke-miterlimit="10" points="1183.176,528.923 1174.676,520.423 1166.175,528.923 "/>
<line fill="none" stroke="#FFFFFF" stroke-miterlimit="10" x1="1214.929" y1="519.313" x2="1223.701" y2="519.313"/>
<line fill="none" stroke="#FFFFFF" stroke-miterlimit="10" x1="1219.316" y1="514.928" x2="1219.316" y2="523.699"/>
<circle fill="none" stroke="#FFFFFF" stroke-miterlimit="10" cx="1219.316" cy="519.313" r="9.746"/>
<line fill="none" stroke="#FFFFFF" stroke-miterlimit="10" x1="1226.136" y1="526.136" x2="1229.06" y2="529.06"/>
<rect x="1231.622" y="527.141" transform="matrix(-0.7071 0.7071 -0.7071 -0.7071 2483.4146 38.711)" fill="none" stroke="#FFFFFF" stroke-miterlimit="10" width="4.135" height="13.093"/>
<path fill="none" stroke="#FFFFFF" stroke-miterlimit="10" d="M1382.581,522.601h3.57v-8.755c0-0.546-0.447-0.991-0.994-0.991
	h-20.963c-0.547,0-0.994,0.445-0.994,0.991v8.755h3.572c3.747,0,6.905,2.506,7.902,5.93
	C1375.674,525.106,1378.833,522.601,1382.581,522.601z"/>
<path fill="none" stroke="#FFFFFF" stroke-miterlimit="10" d="M1380.407,526.417c-2.33,0-4.398,1.099-5.731,2.801
	c-1.332-1.702-3.399-2.801-5.729-2.801h-5.744v9.082c0,0.546,0.447,0.992,0.992,0.992h20.965c0.545,0,0.992-0.446,0.992-0.992
	v-9.082H1380.407z"/>
</svg>
