<svg xmlns="http://www.w3.org/2000/svg" xmlns:xlink="http://www.w3.org/1999/xlink" viewBox="0 0 650 50"><defs><style>.cls-1,.cls-2{fill:none;}.cls-1{clip-rule:evenodd;}.cls-3{fill:#e6333f;}.cls-4,.cls-5{fill:#fff;}.cls-5{fill-rule:evenodd;}.cls-6{clip-path:url(#clip-path);}.cls-7{clip-path:url(#clip-path-2);}.cls-8{clip-path:url(#clip-path-3);}</style><clipPath id="clip-path"><path class="cls-1" d="M127.54,26.34a6.15,6.15,0,0,1-6.45,5.4,6.74,6.74,0,1,1,0-13.48A6.48,6.48,0,0,1,125.66,20l-2,1.93a3.61,3.61,0,0,0-2.62-1,4.06,4.06,0,0,0-4,4.06,4,4,0,0,0,4,4,3.41,3.41,0,0,0,3.66-2.66h-3.66V23.63h6.43a7.83,7.83,0,0,1,.12,1.37A8.82,8.82,0,0,1,127.54,26.34Z"/></clipPath><clipPath id="clip-path-2"><rect class="cls-2" x="103.62" y="4.2" width="41.66" height="41.66"/></clipPath><clipPath id="clip-path-3"><polygon class="cls-1" points="135.71 25.5 133.32 25.5 133.32 27.86 131.63 27.86 131.63 25.5 129.25 25.5 129.25 23.82 131.63 23.82 131.63 21.46 133.32 21.46 133.32 23.82 135.71 23.82 135.71 25.5"/></clipPath></defs><title>-</title><g id="layer-set-11"><path class="cls-3" d="M87.64,25A12.64,12.64,0,1,1,75,12.36,12.64,12.64,0,0,1,87.64,25"/><path class="cls-4" d="M84,19.6a7.08,7.08,0,0,1-2.05.56,3.57,3.57,0,0,0,1.57-2,7.17,7.17,0,0,1-2.27.87,3.57,3.57,0,0,0-6.18,2.44,3.47,3.47,0,0,0,.09.81,10.14,10.14,0,0,1-7.36-3.73A3.57,3.57,0,0,0,69,23.35a3.56,3.56,0,0,1-1.62-.45v0a3.57,3.57,0,0,0,2.86,3.5,3.6,3.6,0,0,1-1.61.06A3.57,3.57,0,0,0,71.93,29a7.19,7.19,0,0,1-5.29,1.48,10.15,10.15,0,0,0,15.63-8.55c0-.16,0-.31,0-.46A7.22,7.22,0,0,0,84,19.6"/><path class="cls-3" d="M175,37.64A12.64,12.64,0,1,1,187.64,25,12.64,12.64,0,0,1,175,37.64"/><path class="cls-4" d="M169.6,19.71a1.88,1.88,0,1,0-2-1.87,1.88,1.88,0,0,0,2,1.87Zm1.8,1.48h-3.6V32h3.6Z"/><path class="cls-4" d="M173.4,32H177V26a2.46,2.46,0,0,1,.12-.88A2,2,0,0,1,179,23.78c1.3,0,1.82,1,1.82,2.45V32h3.6V25.81c0-3.33-1.78-4.87-4.15-4.87A3.59,3.59,0,0,0,177,22.77h0V21.19h-3.6c0,1,0,10.83,0,10.83"/><path class="cls-3" d="M125,37.64A12.64,12.64,0,1,1,137.64,25,12.64,12.64,0,0,1,125,37.64"/><path class="cls-3" d="M37.64,25A12.64,12.64,0,1,1,25,12.36,12.64,12.64,0,0,1,37.64,25"/><path class="cls-4" d="M27,19.68h1.36V16.92h-3a3.25,3.25,0,0,0-3.25,3.25v1.65H19.82v2.76h2.33v8.49h3.62V24.58h2.58V21.82H25.78V20.9A1.22,1.22,0,0,1,27,19.68"/><path class="cls-3" d="M275,37.64A12.64,12.64,0,1,1,287.64,25,12.64,12.64,0,0,1,275,37.64"/><path class="cls-3" d="M325,37.64A12.64,12.64,0,1,1,337.64,25,12.64,12.64,0,0,1,325,37.64"/><path class="cls-5" d="M281,19a8.4,8.4,0,0,0-13.21,10.13l-1.19,4.35L271,32.3a8.38,8.38,0,0,0,4,1h0A8.4,8.4,0,0,0,281,19M275,31.91h0a7,7,0,0,1-3.55-1l-.26-.15-2.64.69.7-2.57-.17-.26A7,7,0,1,1,275,31.91m3.83-5.23c-.21-.11-1.24-.61-1.43-.68s-.33-.11-.47.1-.54.68-.67.82-.24.16-.45.05a5.8,5.8,0,0,1-1.69-1A6.34,6.34,0,0,1,273,24.48c-.12-.21,0-.32.09-.43s.21-.25.31-.37a1.48,1.48,0,0,0,.21-.35.38.38,0,0,0,0-.37c-.05-.11-.47-1.14-.65-1.56s-.34-.35-.47-.36h-.4a.77.77,0,0,0-.56.26,2.35,2.35,0,0,0-.73,1.75,4.09,4.09,0,0,0,.86,2.17,9.38,9.38,0,0,0,3.58,3.17c.5.21.89.34,1.2.44a2.93,2.93,0,0,0,1.32.08,2.17,2.17,0,0,0,1.42-1,1.76,1.76,0,0,0,.12-1c-.05-.09-.19-.14-.4-.24"/><path id="path19359" class="cls-4" d="M318.59,19.46a.41.41,0,0,0-.36.17.41.41,0,0,0,0,.41l1.8,3.11a0,0,0,0,1,0,0l-2.82,5a.41.41,0,0,0,0,.41.39.39,0,0,0,.35.18h2.66a.81.81,0,0,0,.72-.51l2.87-5.07L322,20a.82.82,0,0,0-.74-.5Z"/><path id="path19375" class="cls-4" d="M329.75,15.82a.78.78,0,0,0-.71.51l-5.91,10.48,3.77,6.92a.83.83,0,0,0,.74.51h2.65a.39.39,0,0,0,.35-.17.41.41,0,0,0,0-.41l-3.74-6.84a0,0,0,0,1,0,0l5.88-10.4a.42.42,0,0,0,0-.41.39.39,0,0,0-.35-.17Z"/><g class="cls-6"><g class="cls-7"><rect class="cls-4" x="109.08" y="13.05" width="23.77" height="23.89"/></g></g><g class="cls-8"><g class="cls-7"><rect class="cls-4" x="124.04" y="16.25" width="16.87" height="16.82"/></g></g><path class="cls-3" d="M225,37.64A12.64,12.64,0,1,1,237.64,25,12.64,12.64,0,0,1,225,37.64"/><path class="cls-4" d="M217.53,20.68l6.67,3.69a1.85,1.85,0,0,0,1.61,0l6.67-3.69c.43-.24.85-1,0-1h-15C216.68,19.69,217.09,20.44,217.53,20.68Zm15.13,1.83L225.8,26.2a1.86,1.86,0,0,1-1.61,0l-6.85-3.69c-.35-.19-.34,0-.34.2v6.72a1.05,1.05,0,0,0,.88.88h14.24a1.05,1.05,0,0,0,.88-.88V22.72C233,22.55,233,22.33,232.66,22.51Z"/></g></svg>