<svg id="Layer-set-16" xmlns="http://www.w3.org/2000/svg" viewBox="0 0 650 50"><defs><style>.cls-1{fill:#dd4b39;}.cls-2{fill:#1da1f2;}.cls-3,.cls-4{fill:#fff;}.cls-4{fill-rule:evenodd;}.cls-5{fill:#1b6298;}.cls-6{fill:#39517b;}.cls-7{fill:#00abc8;}.cls-8{fill:#25d366;}.cls-9{fill:#005a5f;}</style></defs><title>icon-social-16</title><rect class="cls-1" x="113.02" y="13.02" width="23.96" height="23.96"/><rect class="cls-2" x="63.01" y="13.01" width="23.97" height="23.97"/><path class="cls-3" d="M82.87,21.87a4.9,4.9,0,0,1-1.42.39,2.48,2.48,0,0,0,1.09-1.37,4.94,4.94,0,0,1-1.57.6,2.47,2.47,0,0,0-4.28,1.69,2.52,2.52,0,0,0,.06.56,7,7,0,0,1-5.09-2.58,2.47,2.47,0,0,0,.77,3.3,2.48,2.48,0,0,1-1.12-.31v0a2.47,2.47,0,0,0,2,2.42,2.46,2.46,0,0,1-.65.09,2.53,2.53,0,0,1-.46,0,2.47,2.47,0,0,0,2.31,1.72,5,5,0,0,1-3.07,1.06,5.31,5.31,0,0,1-.59,0,7,7,0,0,0,10.82-5.92c0-.11,0-.21,0-.32a5,5,0,0,0,1.23-1.28"/><path class="cls-4" d="M128.39,25.56a4.08,4.08,0,0,1-4.29,3.59,4.48,4.48,0,1,1,0-9,4.31,4.31,0,0,1,3,1.17l-1.3,1.29A2.4,2.4,0,0,0,124.1,22a2.7,2.7,0,0,0-2.66,2.7,2.67,2.67,0,0,0,2.66,2.66,2.27,2.27,0,0,0,2.43-1.77H124.1v-1.8h4.27a5.2,5.2,0,0,1,.08.91A5.87,5.87,0,0,1,128.39,25.56Z"/><polygon class="cls-4" points="133.81 25.01 132.23 25.01 132.23 26.57 131.1 26.57 131.1 25.01 129.52 25.01 129.52 23.89 131.1 23.89 131.1 22.32 132.23 22.32 132.23 23.89 133.81 23.89 133.81 25.01"/><rect class="cls-5" x="163.02" y="13.02" width="23.96" height="23.96"/><path class="cls-3" d="M181.67,25.47v3.67h-2.13V25.72c0-.86-.31-1.45-1.08-1.45a1.16,1.16,0,0,0-1.09.78,1.44,1.44,0,0,0-.07.52v3.57h-2.13s0-5.8,0-6.4h2.13v.91l0,0h0v0a2.11,2.11,0,0,1,1.92-1.06c1.4,0,2.45.91,2.45,2.88M173,19.66a1.11,1.11,0,1,0,0,2.21h0a1.11,1.11,0,1,0,0-2.21m-1.08,9.48H174v-6.4h-2.12Z"/><rect class="cls-6" x="13.02" y="13.02" width="23.96" height="23.96"/><path class="cls-3" d="M28.92,21.48h.9V19.66h-2a2.15,2.15,0,0,0-2.15,2.15V22.9H24.18v1.82h1.54v5.62h2.4V24.72h1.71V22.9H28.12v-.61a.8.8,0,0,1,.8-.8"/><rect class="cls-7" x="213.02" y="13.02" width="23.96" height="23.96"/><path class="cls-3" d="M219.55,21.27l5.75,3.19a1.46,1.46,0,0,0,.7.16,1.44,1.44,0,0,0,.69-.16l5.75-3.18c.38-.21.73-.86,0-.86h-13C218.82,20.41,219.18,21.06,219.55,21.27Zm13.06,1.58L226.69,26a1.6,1.6,0,0,1-1.39,0l-5.91-3.19c-.3-.16-.3,0-.3.17v5.8a.91.91,0,0,0,.76.76h12.29a.91.91,0,0,0,.76-.76V23C232.9,22.88,232.91,22.69,232.61,22.85Z"/><rect class="cls-8" x="263.02" y="13.02" width="23.96" height="23.96"/><path class="cls-4" d="M280.81,20.15a6.29,6.29,0,0,0-9.9,7.59L270,31l3.33-.88a6.28,6.28,0,0,0,3,.77h0a6.29,6.29,0,0,0,4.45-10.74m-4.45,9.68h0a5.21,5.21,0,0,1-2.66-.73L273.5,29l-2,.52.53-1.93-.12-.2a5.23,5.23,0,1,1,4.43,2.45m2.87-3.92c-.16-.08-.93-.46-1.07-.51s-.25-.08-.35.08-.41.51-.5.62-.18.12-.34,0a4.34,4.34,0,0,1-1.26-.78,4.76,4.76,0,0,1-.87-1.09c-.09-.16,0-.24.07-.32s.16-.18.24-.28a1.11,1.11,0,0,0,.16-.26.29.29,0,0,0,0-.27c0-.08-.35-.85-.48-1.17s-.26-.26-.35-.27h-.3a.58.58,0,0,0-.42.2,1.76,1.76,0,0,0-.55,1.31,3.06,3.06,0,0,0,.64,1.63,7,7,0,0,0,2.69,2.37,9.16,9.16,0,0,0,.9.33,2.17,2.17,0,0,0,1,.06,1.63,1.63,0,0,0,1.06-.75,1.31,1.31,0,0,0,.09-.75c0-.07-.14-.11-.3-.18"/><rect class="cls-9" x="313.02" y="13.02" width="23.96" height="23.96"/><path id="path19359" class="cls-3" d="M322.11,21.13a.28.28,0,0,0-.25.12.29.29,0,0,0,0,.28l1.25,2.16a0,0,0,0,1,0,0l-2,3.46a.29.29,0,0,0,0,.28.27.27,0,0,0,.24.13h1.84a.56.56,0,0,0,.5-.36l2-3.52-1.27-2.21a.57.57,0,0,0-.51-.35Z"/><path id="path19375" class="cls-3" d="M329.86,18.6a.54.54,0,0,0-.49.35l-4.1,7.28L327.88,31a.58.58,0,0,0,.52.35h1.84a.27.27,0,0,0,.24-.12.29.29,0,0,0,0-.29l-2.6-4.75h0L332,19a.29.29,0,0,0,0-.28.27.27,0,0,0-.25-.12Z"/></svg>