<svg xmlns="http://www.w3.org/2000/svg" xmlns:xlink="http://www.w3.org/1999/xlink" viewBox="0 0 650 150"><defs><style>.cls-1,.cls-13,.cls-4,.cls-5,.cls-6,.cls-9{fill:none;}.cls-2{fill:#e6333f;}.cls-3{fill:#fff;}.cls-13,.cls-4,.cls-5{stroke:#fff;}.cls-13,.cls-4,.cls-5,.cls-6,.cls-9{stroke-linecap:round;}.cls-13,.cls-4{stroke-linejoin:round;}.cls-4,.cls-5,.cls-6,.cls-9{stroke-width:2px;}.cls-5,.cls-6,.cls-9{stroke-miterlimit:10;}.cls-6{stroke:#e6333f;}.cls-7{opacity:0.5;}.cls-8{clip-path:url(#clip-path);}.cls-9{stroke:#000;}.cls-10{opacity:0.2;}.cls-11{clip-path:url(#clip-path-2);}.cls-12{clip-path:url(#clip-path-3);}.cls-13{stroke-width:4.36px;}</style><clipPath id="clip-path"><rect id="SVGID" class="cls-1" x="321.94" y="116.52" width="6.12" height="16.97"/></clipPath><clipPath id="clip-path-2"><rect id="SVGID-2" data-name="SVGID" class="cls-1" x="371.94" y="116.52" width="6.12" height="16.97"/></clipPath><clipPath id="clip-path-3"><rect id="SVGID-3" data-name="SVGID" class="cls-1" x="512.69" y="61.28" width="24.61" height="27.44"/></clipPath></defs><title>-</title><g id="layer-set-11"><path class="cls-2" d="M37.64,25A12.64,12.64,0,1,1,25,12.36,12.64,12.64,0,0,1,37.64,25"/><path class="cls-2" d="M37.64,75A12.64,12.64,0,1,1,25,62.36,12.64,12.64,0,0,1,37.64,75"/><path class="cls-2" d="M87.64,75A12.64,12.64,0,1,1,75,62.36,12.64,12.64,0,0,1,87.64,75"/><path class="cls-2" d="M125,87.64A12.64,12.64,0,1,1,137.64,75,12.64,12.64,0,0,1,125,87.64"/><path class="cls-2" d="M175,87.64A12.64,12.64,0,1,1,187.64,75,12.64,12.64,0,0,1,175,87.64"/><path class="cls-2" d="M225,87.64A12.64,12.64,0,1,1,237.64,75,12.64,12.64,0,0,1,225,87.64"/><path class="cls-2" d="M87.64,25A12.64,12.64,0,1,1,75,12.36,12.64,12.64,0,0,1,87.64,25"/><path class="cls-2" d="M137.64,25A12.64,12.64,0,1,1,125,12.36,12.64,12.64,0,0,1,137.64,25"/><path class="cls-2" d="M187.64,25A12.64,12.64,0,1,1,175,12.36,12.64,12.64,0,0,1,187.64,25"/><path class="cls-2" d="M284.91,25A9.91,9.91,0,1,1,275,15.09,9.91,9.91,0,0,1,284.91,25"/><path class="cls-2" d="M34.91,125A9.91,9.91,0,1,1,25,115.09,9.91,9.91,0,0,1,34.91,125"/><path class="cls-2" d="M84.91,125A9.91,9.91,0,1,1,75,115.09,9.91,9.91,0,0,1,84.91,125"/><path class="cls-2" d="M134.91,125a9.91,9.91,0,1,1-9.91-9.91,9.91,9.91,0,0,1,9.91,9.91"/><path class="cls-2" d="M184.91,125a9.91,9.91,0,1,1-9.91-9.91,9.91,9.91,0,0,1,9.91,9.91"/><path class="cls-2" d="M334.91,25A9.91,9.91,0,1,1,325,15.09,9.91,9.91,0,0,1,334.91,25"/><path class="cls-2" d="M334.91,75A9.91,9.91,0,1,1,325,65.09,9.91,9.91,0,0,1,334.91,75"/><path class="cls-3" d="M67.49,70.5h15v-3h-15Zm0,6h15v-3h-15Zm0,6h15v-3h-15Z"/><path class="cls-3" d="M125.38,17.08a1,1,0,0,0-1.09.22L120.49,21H118a1,1,0,0,0-1,1v6a1,1,0,0,0,1,1h2.52l3.78,3.71A1,1,0,0,0,126,32V18a1,1,0,0,0-.62-.92m2.81,4.6L126.88,23a2.68,2.68,0,0,1,0,4l1.34,1.33A4.82,4.82,0,0,0,129.51,25a4.75,4.75,0,0,0-1.31-3.32m2.54-2.54-1.41,1.41a6.73,6.73,0,0,1,0,8.9l1.41,1.41a8.7,8.7,0,0,0,0-11.72"/><path class="cls-3" d="M178.89,17.08a1,1,0,0,0-.38-.08,1,1,0,0,0-.71.29L174,21h-2.5a1,1,0,0,0-1,1v6a1,1,0,0,0,1,1H174l3.78,3.71a1,1,0,0,0,.71.29,1,1,0,0,0,.38-.08,1,1,0,0,0,.62-.92V18a1,1,0,0,0-.62-.92"/><path class="cls-3" d="M32.89,73.33l-1.65-.1a6.24,6.24,0,0,0-.59-1.42l1.11-1.21a.82.82,0,0,0,0-1.15l-1.2-1.2a.81.81,0,0,0-1.15,0l-1.22,1.11a6.19,6.19,0,0,0-1.41-.59l-.1-1.65a.81.81,0,0,0-.82-.81h-1.7a.81.81,0,0,0-.82.81l-.1,1.65a6.19,6.19,0,0,0-1.41.59L20.6,68.24a.81.81,0,0,0-1.15,0l-1.2,1.2a.82.82,0,0,0,0,1.15l1.11,1.21a6.24,6.24,0,0,0-.59,1.42l-1.65.1a.81.81,0,0,0-.82.82v1.71a.81.81,0,0,0,.82.81l1.65.1a6.28,6.28,0,0,0,.59,1.42L18.24,79.4a.82.82,0,0,0,0,1.15l1.2,1.2a.81.81,0,0,0,1.15,0l1.22-1.11a6.33,6.33,0,0,0,1.41.59l.1,1.65a.81.81,0,0,0,.82.82h1.7a.81.81,0,0,0,.82-.82l.1-1.65a6.33,6.33,0,0,0,1.41-.59l1.22,1.11a.81.81,0,0,0,1.15,0l1.2-1.2a.82.82,0,0,0,0-1.15l-1.11-1.21a6.28,6.28,0,0,0,.59-1.42l1.65-.1a.81.81,0,0,0,.82-.81V74.15a.81.81,0,0,0-.82-.82M25,78.89A3.89,3.89,0,1,1,28.89,75,3.89,3.89,0,0,1,25,78.89m0-6.3A2.41,2.41,0,1,0,27.41,75,2.41,2.41,0,0,0,25,72.59"/><path class="cls-3" d="M24.24,25l5.58-5.55a1.42,1.42,0,0,0,0-2l-.51-.5a1.44,1.44,0,0,0-2,0l-6.57,6.54,0,0-.51.51a1.44,1.44,0,0,0,0,2l.51.5,0,0,6.57,6.53a1.44,1.44,0,0,0,2,0l.51-.5a1.43,1.43,0,0,0,0-2Z"/><path class="cls-3" d="M75.76,25l-5.58,5.55a1.42,1.42,0,0,0,0,2l.51.5a1.44,1.44,0,0,0,2,0l6.57-6.54,0,0,.51-.51a1.44,1.44,0,0,0,0-2l-.51-.5,0,0-6.57-6.53a1.44,1.44,0,0,0-2,0l-.51.5a1.42,1.42,0,0,0,0,2Z"/><path class="cls-3" d="M125.58,125l-4.27,4.25a1.09,1.09,0,0,0,0,1.54l.39.39a1.1,1.1,0,0,0,1.55,0l5-5,0,0,.39-.39a1.1,1.1,0,0,0,0-1.55l-.39-.38,0,0-5-5a1.1,1.1,0,0,0-1.55,0l-.39.39a1.09,1.09,0,0,0,0,1.55Z"/><path class="cls-3" d="M24.42,125l4.27-4.24a1.09,1.09,0,0,0,0-1.55l-.39-.39a1.1,1.1,0,0,0-1.55,0l-5,5,0,0-.39.39a1.1,1.1,0,0,0,0,1.55l.39.38,0,0,5,5a1.1,1.1,0,0,0,1.55,0l.39-.38a1.09,1.09,0,0,0,0-1.55Z"/><path class="cls-3" d="M125,75.76l-5.55-5.58a1.42,1.42,0,0,0-2,0l-.5.51a1.44,1.44,0,0,0,0,2l6.54,6.57,0,0,.51.51a1.44,1.44,0,0,0,2,0l.5-.51,0,0,6.53-6.57a1.44,1.44,0,0,0,0-2l-.5-.51a1.42,1.42,0,0,0-2,0Z"/><path class="cls-3" d="M425,71.71l9.67,9.69a1.09,1.09,0,0,0,1.55,0l.39-.39a1.1,1.1,0,0,0,0-1.55L426.18,69v0l-.39-.39a1.11,1.11,0,0,0-1.56,0l-.38.39,0,0L413.4,79.46a1.1,1.1,0,0,0,0,1.55l.39.39a1.09,1.09,0,0,0,1.55,0Z"/><path class="cls-3" d="M375,78.29l-9.67-9.69a1.09,1.09,0,0,0-1.55,0l-.39.39a1.1,1.1,0,0,0,0,1.55L373.82,81v0l.39.39a1.11,1.11,0,0,0,1.56,0l.38-.39,0,0L386.6,70.54a1.1,1.1,0,0,0,0-1.55l-.39-.39a1.09,1.09,0,0,0-1.55,0Z"/><path class="cls-3" d="M175,74.24l5.55,5.58a1.42,1.42,0,0,0,2,0l.51-.51a1.44,1.44,0,0,0,0-2l-6.54-6.57,0,0-.5-.51a1.44,1.44,0,0,0-2,0l-.5.51,0,0-6.53,6.57a1.44,1.44,0,0,0,0,2l.5.51a1.42,1.42,0,0,0,2,0Z"/><path class="cls-3" d="M225,72.67l-4.91-4.93a1.26,1.26,0,0,0-1.79,0l-.45.45a1.27,1.27,0,0,0,0,1.8l5.78,5.8,0,0,.45.45a1.27,1.27,0,0,0,1.8,0l.44-.45,0,0,5.78-5.8a1.28,1.28,0,0,0,0-1.8l-.45-.45a1.26,1.26,0,0,0-1.79,0Z"/><path class="cls-3" d="M225,81.21l-4.91-4.93a1.26,1.26,0,0,0-1.79,0l-.45.45a1.27,1.27,0,0,0,0,1.79l5.78,5.8,0,0,.45.45a1.28,1.28,0,0,0,1.8,0l.44-.45,0,0,5.78-5.8a1.28,1.28,0,0,0,0-1.79l-.45-.45a1.26,1.26,0,0,0-1.79,0Z"/><path class="cls-2" d="M275,62.36A12.64,12.64,0,1,1,262.36,75,12.64,12.64,0,0,1,275,62.36"/><path class="cls-3" d="M275,78.64l4.91,4.93a1.26,1.26,0,0,0,1.79,0l.45-.45a1.27,1.27,0,0,0,0-1.79l-5.78-5.8,0,0-.45-.45a1.27,1.27,0,0,0-1.79,0l-.44.45,0,0-5.78,5.8a1.28,1.28,0,0,0,0,1.79l.45.45a1.26,1.26,0,0,0,1.79,0Z"/><path class="cls-3" d="M275,70.33l4.91,4.93a1.26,1.26,0,0,0,1.79,0l.45-.45a1.27,1.27,0,0,0,0-1.79l-5.78-5.8,0,0-.45-.45a1.28,1.28,0,0,0-1.79,0l-.44.45,0,0L267.86,73a1.28,1.28,0,0,0,0,1.79l.45.45a1.26,1.26,0,0,0,1.79,0Z"/><path class="cls-2" d="M227.6,25a2.6,2.6,0,1,1-2.6-2.6,2.6,2.6,0,0,1,2.6,2.6"/><path class="cls-2" d="M237.6,25a2.6,2.6,0,1,1-2.6-2.6,2.6,2.6,0,0,1,2.6,2.6"/><path class="cls-2" d="M217.6,25a2.6,2.6,0,1,1-2.6-2.6,2.6,2.6,0,0,1,2.6,2.6"/><path class="cls-3" d="M327.48,25l2.69-2.69a1.45,1.45,0,0,0,0-2.05l-.42-.42a1.45,1.45,0,0,0-2.05,0L325,22.52l-2.69-2.69a1.45,1.45,0,0,0-2.05,0l-.42.42a1.45,1.45,0,0,0,0,2.05L322.52,25l-2.69,2.69a1.45,1.45,0,0,0,0,2.05l.42.42a1.45,1.45,0,0,0,2.05,0L325,27.48l2.69,2.69a1.45,1.45,0,0,0,2.05,0l.42-.42a1.45,1.45,0,0,0,0-2.05Z"/><path class="cls-3" d="M331.5,75a1.71,1.71,0,0,1-1.7,1.7h-9.6a1.7,1.7,0,0,1-1.7-1.7V75a1.71,1.71,0,0,1,1.7-1.7h9.6a1.7,1.7,0,0,1,1.7,1.7Z"/><path class="cls-3" d="M279.94,27H277v2.93a2,2,0,0,1-4,0V27h-2.93a2,2,0,0,1,0-4H273V20.06a2,2,0,0,1,4,0V23h2.93a2,2,0,1,1,0,4"/><path class="cls-2" d="M580.07,78a3,3,0,0,0-1.85.63l-5.29-3.17a2.9,2.9,0,0,0,0-1l5.29-3.17a3.11,3.11,0,1,0-1.15-1.91l-5.29,3.17a3,3,0,1,0,0,4.82l5.29,3.17a3,3,0,0,0,0,.5,3,3,0,1,0,3-3"/><path class="cls-3" d="M75,124.42l4.24,4.27a1.09,1.09,0,0,0,1.54,0l.39-.39a1.1,1.1,0,0,0,0-1.55l-5-5,0,0-.39-.39a1.1,1.1,0,0,0-1.55,0l-.38.39,0,0-5,5a1.1,1.1,0,0,0,0,1.55l.38.39a1.09,1.09,0,0,0,1.55,0Z"/><path class="cls-3" d="M175,125.58l-4.24-4.27a1.09,1.09,0,0,0-1.54,0l-.39.39a1.1,1.1,0,0,0,0,1.55l5,5,0,0,.39.39a1.1,1.1,0,0,0,1.55,0l.38-.39,0,0,5-5a1.1,1.1,0,0,0,0-1.55l-.38-.39a1.09,1.09,0,0,0-1.55,0Z"/><path class="cls-3" d="M425,20.45l13.38,13.41a1.51,1.51,0,0,0,2.14,0l.53-.54a1.52,1.52,0,0,0,0-2.15L426.63,16.71l0,0-.53-.54a1.53,1.53,0,0,0-2.16,0l-.53.54,0,0L408.94,31.17a1.53,1.53,0,0,0,0,2.15l.54.54a1.51,1.51,0,0,0,2.14,0Z"/><path class="cls-3" d="M375,29.55,361.62,16.14a1.51,1.51,0,0,0-2.14,0l-.53.54a1.52,1.52,0,0,0,0,2.15l14.42,14.46,0,0,.54.54a1.53,1.53,0,0,0,2.15,0l.53-.54,0,0,14.42-14.46a1.53,1.53,0,0,0,0-2.15l-.54-.54a1.51,1.51,0,0,0-2.14,0Z"/><path class="cls-3" d="M529.55,25,516.14,38.38a1.51,1.51,0,0,0,0,2.14l.54.53a1.52,1.52,0,0,0,2.15,0l14.46-14.42,0,0,.54-.53a1.53,1.53,0,0,0,0-2.16l-.54-.53,0,0L518.83,8.94a1.53,1.53,0,0,0-2.15,0l-.54.54a1.51,1.51,0,0,0,0,2.14Z"/><path class="cls-3" d="M470.45,25l13.41-13.38a1.51,1.51,0,0,0,0-2.14l-.54-.53a1.52,1.52,0,0,0-2.15,0L466.71,23.37l0,0-.54.53a1.53,1.53,0,0,0,0,2.16l.54.53,0,0,14.46,14.42a1.53,1.53,0,0,0,2.15,0l.54-.54a1.51,1.51,0,0,0,0-2.14Z"/><path class="cls-4" d="M624.56,15.81c.24-.49.64-.49.88,0l2.37,4.79a2.14,2.14,0,0,0,1.43,1l5.29.77c.54.08.67.46.27.84L631,27a2.14,2.14,0,0,0-.55,1.68l.9,5.27c.09.54-.23.78-.72.52L625.89,32a2.13,2.13,0,0,0-1.77,0l-4.73,2.49c-.49.25-.81,0-.72-.52l.9-5.27A2.13,2.13,0,0,0,619,27l-3.83-3.73c-.39-.38-.27-.76.27-.84l5.29-.77a2.15,2.15,0,0,0,1.43-1Z"/><polyline class="cls-5" points="416.11 121.38 424.49 128.62 433.89 121.38"/><polyline class="cls-6" points="466.11 121.38 474.48 128.62 483.89 121.38"/><polyline class="cls-5" points="583.89 128.62 575.52 121.38 566.11 128.62"/><polyline class="cls-6" points="533.89 128.62 525.51 121.38 516.11 128.62"/><polyline class="cls-5" points="223.01 132.48 226.99 125.43 223.01 117.52"/><polyline class="cls-6" points="273.01 132.48 276.99 125.43 273.01 117.52"/><g class="cls-7"><g class="cls-8"><polyline class="cls-9" points="322.94 132.48 326.93 125.43 322.94 117.52"/></g></g><g class="cls-10"><g class="cls-11"><polyline class="cls-9" points="372.94 132.48 376.93 125.43 372.94 117.52"/></g></g><g class="cls-12"><path class="cls-2" d="M534.53,88.72H526.1V80.78a2.42,2.42,0,0,0-4.85,0v7.94h-5.79a2.78,2.78,0,0,1-2.78-2.78V72.85a2.77,2.77,0,0,1,.9-2L523.12,62a2.78,2.78,0,0,1,3.77,0l9.53,8.79a2.78,2.78,0,0,1,.89,2v13.1a2.78,2.78,0,0,1-2.77,2.78m-6.91-1.52h6.91a1.25,1.25,0,0,0,1.25-1.25V72.85a1.25,1.25,0,0,0-.4-.92l-9.53-8.79a1.28,1.28,0,0,0-1.7,0l-9.53,8.79a1.25,1.25,0,0,0-.4.92v13.1a1.25,1.25,0,0,0,1.25,1.25h4.26V80.78a3.95,3.95,0,0,1,7.89,0V87.2Z"/></g><path class="cls-3" d="M577,19.43h-4a.76.76,0,0,1-.76-.76V14.74a.76.76,0,0,1,1.29-.54l4,3.93a.76.76,0,0,1-.53,1.3m-3.24-1.52h1.38l-1.38-1.36Z"/><path class="cls-3" d="M581.63,36.67h-13.2a2.11,2.11,0,0,1-2.19-2.16v-19a.58.58,0,0,1,0-.07,2.25,2.25,0,0,1,2.24-2.12H579a.76.76,0,0,1,0,1.52H568.48a.74.74,0,0,0-.72.71v19a.59.59,0,0,0,.67.63h13.2a.65.65,0,0,0,.47-.14.63.63,0,0,0,.14-.37V18a.76.76,0,1,1,1.52,0V34.63a2.13,2.13,0,0,1-.56,1.45,2.08,2.08,0,0,1-1.56.6"/><path class="cls-3" d="M580.23,26.61H570.14a.76.76,0,1,1,0-1.52h10.08a.76.76,0,0,1,0,1.52"/><path class="cls-3" d="M580.23,23.56H570.14a.76.76,0,1,1,0-1.52h10.08a.76.76,0,0,1,0,1.52"/><path class="cls-3" d="M580.23,29.67H570.14a.76.76,0,1,1,0-1.52h10.08a.76.76,0,0,1,0,1.52"/><path class="cls-3" d="M580.23,32.72H570.14a.76.76,0,1,1,0-1.52h10.08a.76.76,0,0,1,0,1.52"/><path class="cls-2" d="M631.94,73.36h3.13V65.67a.87.87,0,0,0-.87-.87H615.8a.87.87,0,0,0-.87.87v7.69h3.13A7.23,7.23,0,0,1,625,78.56,7.23,7.23,0,0,1,631.94,73.36Z"/><path class="cls-2" d="M630,76.71a6.38,6.38,0,0,0-5,2.46,6.37,6.37,0,0,0-5-2.46h-5v8a.88.88,0,0,0,.87.87H634.2a.88.88,0,0,0,.87-.87v-8Z"/><path class="cls-3" d="M630.86,114.05a10.25,10.25,0,0,0-6.15-1.77,8.63,8.63,0,0,0-4.76,1.25q-3.06,1.94-3.26,6.61h4.74a4.85,4.85,0,0,1,.79-2.62,2.93,2.93,0,0,1,2.69-1.26,3.05,3.05,0,0,1,2.66,1,3.84,3.84,0,0,1,.73,2.27,3.46,3.46,0,0,1-.8,2,4.17,4.17,0,0,1-.95,1,21.49,21.49,0,0,0-3.7,3c-.65.77-.71,1.92-.77,3.57,0,.12,0,.36.45.36h3.69a.41.41,0,0,0,.45-.39,4.3,4.3,0,0,1,.2-1.25,3.87,3.87,0,0,1,1.4-1.72l1.3-.9a14.09,14.09,0,0,0,2.53-2.26,6,6,0,0,0,1.21-3.58A6,6,0,0,0,630.86,114.05Zm-6.23,18.18a2.92,2.92,0,1,0-.17,5.84,2.81,2.81,0,0,0,3.07-2.81A2.84,2.84,0,0,0,624.63,132.23Z"/><circle class="cls-13" cx="471.57" cy="71.14" r="7.29"/><path class="cls-13" d="M476.29,76.71c4.54,4.64,5.35,4.66,9.43,9.43"/></g></svg>