<svg xmlns="http://www.w3.org/2000/svg" xmlns:xlink="http://www.w3.org/1999/xlink" viewBox="0 0 650 150"><defs><style>.cls-1{fill:none;}.cls-2{clip-path:url(#clip-path);}.cls-3{opacity:0.27;}.cls-4{fill:#fff;}.cls-5{opacity:0.5;}.cls-6{opacity:0.2;}</style><clipPath id="clip-path"><rect class="cls-1" x="705" width="650" height="150"/></clipPath></defs><title>-</title><g id="layer-set-3"><path class="cls-4" d="M25,16a9,9,0,1,0,9,9,9,9,0,0,0-9-9Zm0,16.8A7.8,7.8,0,1,1,32.8,25,7.81,7.81,0,0,1,25,32.8Z"/><path class="cls-4" d="M26.92,20.68a.6.6,0,0,0-.85,0l-3.89,3.89a.61.61,0,0,0,0,.86l3.89,3.89a.6.6,0,0,0,.85-.85L23.45,25l3.47-3.47a.6.6,0,0,0,0-.85Z"/><path class="cls-4" d="M25,116a9,9,0,1,0,9,9,9,9,0,0,0-9-9Zm0,16.8a7.8,7.8,0,1,1,7.8-7.8,7.81,7.81,0,0,1-7.8,7.8Z"/><path class="cls-4" d="M26.92,120.68a.6.6,0,0,0-.85,0l-3.89,3.89a.61.61,0,0,0,0,.86l3.89,3.89a.6.6,0,0,0,.85-.85L23.45,125l3.47-3.47a.6.6,0,0,0,0-.85Z"/><path class="cls-4" d="M84,125a9,9,0,1,0-9,9,9,9,0,0,0,9-9Zm-16.8,0a7.8,7.8,0,1,1,7.8,7.8,7.81,7.81,0,0,1-7.8-7.8Z"/><path class="cls-4" d="M79.32,126.92a.6.6,0,0,0,0-.85l-3.89-3.89a.61.61,0,0,0-.86,0l-3.89,3.89a.6.6,0,0,0,.85.85L75,123.45l3.47,3.47a.6.6,0,0,0,.85,0Z"/><path class="cls-4" d="M125,134a9,9,0,1,0-9-9,9,9,0,0,0,9,9Zm0-16.8a7.8,7.8,0,1,1-7.8,7.8,7.81,7.81,0,0,1,7.8-7.8Z"/><path class="cls-4" d="M123.08,129.32a.6.6,0,0,0,.85,0l3.89-3.89a.61.61,0,0,0,0-.86l-3.89-3.89a.6.6,0,0,0-.85.85l3.47,3.47-3.47,3.47a.6.6,0,0,0,0,.85Z"/><path class="cls-4" d="M225,132.2a7.2,7.2,0,1,0-7.2-7.2,7.2,7.2,0,0,0,7.2,7.2Zm0-13.44a6.24,6.24,0,1,1-6.24,6.24,6.25,6.25,0,0,1,6.24-6.24Z"/><path class="cls-4" d="M223.46,128.46a.48.48,0,0,0,.68,0l3.11-3.11a.48.48,0,0,0,0-.68l-3.11-3.11a.48.48,0,0,0-.68.68l2.78,2.77-2.78,2.77a.48.48,0,0,0,0,.68Z"/><path d="M275,132.2a7.2,7.2,0,1,0-7.2-7.2,7.2,7.2,0,0,0,7.2,7.2Zm0-13.44a6.24,6.24,0,1,1-6.24,6.24,6.25,6.25,0,0,1,6.24-6.24Z"/><path d="M273.46,128.46a.48.48,0,0,0,.68,0l3.11-3.11a.49.49,0,0,0,0-.68l-3.11-3.11a.48.48,0,0,0-.68.68l2.78,2.77-2.78,2.77a.48.48,0,0,0,0,.68Z"/><g class="cls-5"><path d="M325,132.2a7.2,7.2,0,1,0-7.2-7.2,7.2,7.2,0,0,0,7.2,7.2Zm0-13.44a6.24,6.24,0,1,1-6.24,6.24,6.25,6.25,0,0,1,6.24-6.24Z"/><path d="M323.46,128.46a.48.48,0,0,0,.68,0l3.11-3.11a.48.48,0,0,0,0-.68l-3.11-3.11a.48.48,0,0,0-.68.68l2.78,2.77-2.78,2.77a.48.48,0,0,0,0,.68Z"/></g><g class="cls-6"><path d="M375,132.2a7.2,7.2,0,1,0-7.2-7.2,7.2,7.2,0,0,0,7.2,7.2Zm0-13.44a6.24,6.24,0,1,1-6.24,6.24,6.25,6.25,0,0,1,6.24-6.24Z"/><path d="M373.46,128.46a.48.48,0,0,0,.68,0l3.11-3.11a.48.48,0,0,0,0-.68l-3.11-3.11a.48.48,0,0,0-.68.68l2.78,2.77-2.78,2.77a.48.48,0,0,0,0,.68Z"/></g><path class="cls-4" d="M417.8,125a7.2,7.2,0,1,0,7.2-7.2,7.2,7.2,0,0,0-7.2,7.2Zm13.44,0a6.24,6.24,0,1,1-6.24-6.24,6.25,6.25,0,0,1,6.24,6.24Z"/><path class="cls-4" d="M421.54,123.46a.48.48,0,0,0,0,.68l3.11,3.11a.48.48,0,0,0,.68,0l3.11-3.11a.48.48,0,1,0-.68-.68L425,126.24l-2.77-2.77a.48.48,0,0,0-.68,0Z"/><path d="M467.8,125a7.2,7.2,0,1,0,7.2-7.2,7.2,7.2,0,0,0-7.2,7.2Zm13.44,0a6.24,6.24,0,1,1-6.24-6.24,6.25,6.25,0,0,1,6.24,6.24Z"/><path d="M471.54,123.46a.48.48,0,0,0,0,.68l3.11,3.11a.49.49,0,0,0,.34.14.48.48,0,0,0,.34-.14l3.11-3.11a.48.48,0,1,0-.68-.68L475,126.24l-2.77-2.77a.48.48,0,0,0-.68,0Z"/><path class="cls-4" d="M582.2,125a7.2,7.2,0,1,0-7.2,7.2,7.2,7.2,0,0,0,7.2-7.2Zm-13.44,0a6.24,6.24,0,1,1,6.24,6.24,6.25,6.25,0,0,1-6.24-6.24Z"/><path class="cls-4" d="M578.46,126.54a.48.48,0,0,0,0-.68l-3.11-3.11a.48.48,0,0,0-.68,0l-3.11,3.11a.48.48,0,1,0,.68.68l2.77-2.77,2.77,2.77a.48.48,0,0,0,.68,0Z"/><path d="M532.2,125a7.2,7.2,0,1,0-7.2,7.2,7.2,7.2,0,0,0,7.2-7.2Zm-13.44,0a6.24,6.24,0,1,1,6.24,6.24,6.25,6.25,0,0,1-6.24-6.24Z"/><path d="M528.46,126.54a.48.48,0,0,0,0-.68l-3.11-3.11a.48.48,0,0,0-.68,0l-3.11,3.11a.48.48,0,1,0,.68.68l2.77-2.77,2.77,2.77a.48.48,0,0,0,.68,0Z"/><path class="cls-4" d="M166,125a9,9,0,1,0,9-9,9,9,0,0,0-9,9Zm16.8,0a7.8,7.8,0,1,1-7.8-7.8,7.81,7.81,0,0,1,7.8,7.8Z"/><path class="cls-4" d="M170.68,123.08a.6.6,0,0,0,0,.85l3.89,3.89a.61.61,0,0,0,.86,0l3.89-3.89a.6.6,0,0,0-.85-.85L175,126.55l-3.47-3.47a.6.6,0,0,0-.85,0Z"/><path class="cls-4" d="M365.28,19.67a1.35,1.35,0,0,0,0,1.91L374,30.33a1.37,1.37,0,0,0,1.92,0l8.75-8.75a1.35,1.35,0,1,0-1.91-1.91l-7.8,7.8-7.8-7.8a1.35,1.35,0,0,0-1.91,0Z"/><path class="cls-4" d="M434.72,30.33a1.35,1.35,0,0,0,0-1.91L426,19.67a1.37,1.37,0,0,0-1.92,0l-8.75,8.75a1.35,1.35,0,0,0,1.91,1.91l7.8-7.8,7.8,7.8a1.35,1.35,0,0,0,1.91,0Z"/><path class="cls-4" d="M480.33,15.28a1.35,1.35,0,0,0-1.91,0L469.67,24a1.37,1.37,0,0,0,0,1.92l8.75,8.75a1.35,1.35,0,0,0,1.91-1.91l-7.8-7.8,7.8-7.8a1.35,1.35,0,0,0,0-1.91Z"/><path class="cls-4" d="M519.67,34.72a1.35,1.35,0,0,0,1.91,0L530.33,26a1.37,1.37,0,0,0,0-1.92l-8.75-8.75a1.35,1.35,0,1,0-1.91,1.91l7.8,7.8-7.8,7.8a1.35,1.35,0,0,0,0,1.91Z"/><path class="cls-4" d="M368.52,71.45a.9.9,0,0,0,0,1.27l5.84,5.84a.91.91,0,0,0,1.29,0l5.84-5.84a.9.9,0,0,0-1.28-1.27l-5.2,5.2-5.2-5.2a.9.9,0,0,0-1.28,0Z"/><path class="cls-4" d="M431.48,78.55a.9.9,0,0,0,0-1.27l-5.84-5.84a.91.91,0,0,0-1.29,0l-5.84,5.84a.9.9,0,0,0,1.28,1.27l5.2-5.2,5.2,5.2a.9.9,0,0,0,1.28,0Z"/><path class="cls-4" d="M211.5,75A13.5,13.5,0,1,0,225,61.5,13.5,13.5,0,0,0,211.5,75Zm25.2,0A11.7,11.7,0,1,1,225,63.3,11.71,11.71,0,0,1,236.7,75Z"/><path class="cls-4" d="M218.52,72.12a.9.9,0,0,0,0,1.27l5.84,5.84a.91.91,0,0,0,1.29,0l5.84-5.84a.9.9,0,1,0-1.28-1.27l-5.2,5.2-5.2-5.2a.9.9,0,0,0-1.28,0Z"/><path class="cls-4" d="M288.5,75A13.5,13.5,0,1,0,275,88.5,13.5,13.5,0,0,0,288.5,75Zm-25.2,0A11.7,11.7,0,1,1,275,86.7,11.71,11.71,0,0,1,263.3,75Z"/><path class="cls-4" d="M281.48,77.88a.9.9,0,0,0,0-1.27l-5.84-5.84a.91.91,0,0,0-1.29,0l-5.84,5.84a.9.9,0,0,0,1.28,1.27l5.2-5.2,5.2,5.2a.9.9,0,0,0,1.28,0Z"/><path class="cls-4" d="M175,66a9,9,0,1,0,9,9,9,9,0,0,0-9-9Zm0,16.72A7.76,7.76,0,1,1,182.76,75,7.76,7.76,0,0,1,175,82.76Z"/><path class="cls-4" d="M175.39,72.14a.6.6,0,0,0-.85,0L170.64,76a.6.6,0,0,0,0,.85.6.6,0,0,0,.85,0L175,73.41l3.48,3.47a.59.59,0,0,0,.84,0,.6.6,0,0,0,0-.85Z"/><path class="cls-4" d="M75,16a9,9,0,1,0,9,9,9,9,0,0,0-9-9Zm0,16.71A7.75,7.75,0,1,1,82.76,25,7.76,7.76,0,0,1,75,32.75Z"/><path class="cls-4" d="M73.88,20.64a.59.59,0,0,0-.84,0,.6.6,0,0,0,0,.85L76.51,25,73,28.42a.6.6,0,1,0,.84.85l3.9-3.89a.61.61,0,0,0,0-.85Z"/><path class="cls-4" d="M325,16a9,9,0,1,0,9,9,9,9,0,0,0-9-9Zm0,16.8a7.8,7.8,0,1,1,7.8-7.8,7.81,7.81,0,0,1-7.8,7.8Z"/><path class="cls-4" d="M328.32,20.83l-3.3,3.3-3-3.3a.6.6,0,0,0-.85.85l3,3.3-3.34,3.35a.6.6,0,0,0,0,.85.59.59,0,0,0,.84,0l3.3-3.3,3,3.3a.6.6,0,1,0,.85-.85l-3-3.3,3.35-3.35a.6.6,0,1,0-.85-.85Z"/><path class="cls-4" d="M125,66a9,9,0,1,0,9,9,9,9,0,0,0-9-9Zm0,16.72A7.76,7.76,0,1,1,132.76,75,7.77,7.77,0,0,1,125,82.76Z"/><path class="cls-4" d="M128.42,73,125,76.51,121.49,73a.6.6,0,1,0-.85.85l3.9,3.89A.6.6,0,0,0,125,78a.61.61,0,0,0,.43-.18l3.89-3.89a.6.6,0,1,0-.85-.85Z"/><path class="cls-4" d="M75,66a9,9,0,1,0,9,9,9,9,0,0,0-9-9Zm0,16.8A7.8,7.8,0,1,1,82.8,75,7.81,7.81,0,0,1,75,82.8Z"/><path class="cls-4" d="M79.8,74.4H70.2a.6.6,0,1,0,0,1.19h9.6a.6.6,0,1,0,0-1.19Z"/><path class="cls-4" d="M79.8,70.8H70.2a.6.6,0,1,0,0,1.2h9.6a.6.6,0,1,0,0-1.2Z"/><path class="cls-4" d="M79.8,78H70.2a.6.6,0,1,0,0,1.2h9.6a.6.6,0,1,0,0-1.2Z"/><path class="cls-4" d="M175.18,19.88h0a.71.71,0,0,0-.37.12s-2.67,2.33-2.78,2.44h-1.47a.64.64,0,0,0-.64.64V27a.64.64,0,0,0,.64.64H172c.12.11,2.78,2.36,2.78,2.36a.72.72,0,0,0,.37.12h0a.54.54,0,0,0,.46-.43V20.31a.54.54,0,0,0-.46-.43ZM175,29.36l-2.56-2.17A.63.63,0,0,0,172,27h-1.46V23.08H172a.67.67,0,0,0,.45-.18L175,20.65Z"/><path class="cls-4" d="M178.9,25l1.1-1.1a.39.39,0,0,0-.55-.55l-1.1,1.11-1.11-1.11a.39.39,0,0,0-.55.55l1.1,1.1-1.1,1.11a.39.39,0,0,0,.55.55l1.11-1.11,1.1,1.11a.4.4,0,0,0,.55,0,.39.39,0,0,0,0-.55Z"/><path class="cls-4" d="M275,16a9,9,0,1,0,9,9,9,9,0,0,0-9-9Zm0,16.8a7.8,7.8,0,1,1,7.8-7.8,7.81,7.81,0,0,1-7.8,7.8Z"/><path class="cls-4" d="M279.8,24.4h-4.2V20.2a.6.6,0,1,0-1.2,0v4.2h-4.2a.6.6,0,1,0,0,1.19h4.2v4.2a.6.6,0,1,0,1.2,0V25.6h4.2a.6.6,0,1,0,0-1.19Z"/><path class="cls-4" d="M325,66a9,9,0,1,0,9,9,9,9,0,0,0-9-9Zm0,16.8a7.8,7.8,0,1,1,7.8-7.8,7.81,7.81,0,0,1-7.8,7.8Z"/><path class="cls-4" d="M329.8,74.4h-9.6a.6.6,0,1,0,0,1.19h9.6a.6.6,0,1,0,0-1.19Z"/><path class="cls-4" d="M125.34,19.88h0a.71.71,0,0,0-.37.12s-2.67,2.33-2.78,2.44h-1.47a.64.64,0,0,0-.64.64V27a.64.64,0,0,0,.64.64h1.47c.12.11,2.78,2.36,2.78,2.36a.72.72,0,0,0,.37.12h0a.54.54,0,0,0,.46-.43V20.31a.54.54,0,0,0-.46-.43Zm-.19,9.48-2.56-2.17a.63.63,0,0,0-.45-.19h-1.47V23.08h1.47a.67.67,0,0,0,.45-.18l2.56-2.25Z"/><path class="cls-4" d="M126.79,26.12a.32.32,0,0,0-.14.43.33.33,0,0,0,.29.17.35.35,0,0,0,.14,0,1.89,1.89,0,0,0,0-3.38.32.32,0,0,0-.43.14.32.32,0,0,0,.14.43,1.25,1.25,0,0,1,0,2.24Z"/><path class="cls-4" d="M126.72,21.07a.32.32,0,1,0-.12.63,3.36,3.36,0,0,1,0,6.6.32.32,0,0,0,.06.63h.06a4,4,0,0,0,0-7.85Z"/><path class="cls-4" d="M525,66a9,9,0,1,0,9,9,9,9,0,0,0-9-9Zm0,16.72A7.76,7.76,0,1,1,532.76,75,7.76,7.76,0,0,1,525,82.76Z"/><path class="cls-4" d="M175,16a9,9,0,1,0,9,9,9,9,0,0,0-9-9Zm0,16.72A7.76,7.76,0,1,1,182.76,25,7.76,7.76,0,0,1,175,32.76Z"/><path class="cls-4" d="M225,16a9,9,0,1,0,9,9,9,9,0,0,0-9-9Zm0,16.72A7.76,7.76,0,1,1,232.76,25,7.76,7.76,0,0,1,225,32.76Z"/><path class="cls-4" d="M125,16a9,9,0,1,0,9,9,9,9,0,0,0-9-9Zm0,16.72A7.76,7.76,0,1,1,132.76,25,7.76,7.76,0,0,1,125,32.76Z"/><path class="cls-4" d="M25,66a9,9,0,1,0,9,9,9,9,0,0,0-9-9Zm0,16.72A7.76,7.76,0,1,1,32.76,75,7.76,7.76,0,0,1,25,82.76Z"/><path class="cls-4" d="M578.52,20.84h-.64V20.2a.64.64,0,0,0-.64-.64h-6.4a.64.64,0,0,0-.64.64v7.68a.64.64,0,0,0,.64.64h.64v.64a.64.64,0,0,0,.64.64h6.4a.64.64,0,0,0,.64-.64V21.48a.64.64,0,0,0-.64-.64Zm-7.68,7V20.2h6.4v7.68Zm7.68,1.28h-6.4v-.64h5.12a.64.64,0,0,0,.64-.64v-6.4h.64Z"/><path class="cls-4" d="M576.28,21.48h-3.2a.32.32,0,1,0,0,.64h3.2a.32.32,0,0,0,0-.64Z"/><path class="cls-4" d="M576.28,23.4H571.8a.32.32,0,0,0,0,.64h4.48a.32.32,0,0,0,0-.64Z"/><path class="cls-4" d="M576.28,24.68H571.8a.32.32,0,0,0,0,.64h4.48a.32.32,0,0,0,0-.64Z"/><path class="cls-4" d="M576.28,26H571.8a.32.32,0,0,0,0,.64h4.48a.32.32,0,0,0,0-.64Z"/><path class="cls-4" d="M575,16a9,9,0,1,0,9,9,9,9,0,0,0-9-9Zm0,16.72A7.76,7.76,0,1,1,582.76,25,7.76,7.76,0,0,1,575,32.76Z"/><g id="Cog"><path class="cls-4" d="M25,73.62A1.38,1.38,0,1,0,26.38,75,1.38,1.38,0,0,0,25,73.62Zm4.53.42L28.58,74a3.65,3.65,0,0,0-.34-.81l.64-.7a.47.47,0,0,0,0-.66l-.69-.69a.47.47,0,0,0-.66,0l-.7.64a3.59,3.59,0,0,0-.81-.34L26,70.47a.47.47,0,0,0-.47-.47h-1a.47.47,0,0,0-.47.47l-.06.95a3.57,3.57,0,0,0-.81.34l-.7-.64a.47.47,0,0,0-.66,0l-.69.69a.47.47,0,0,0,0,.66l.64.7a3.62,3.62,0,0,0-.34.81l-.95.06a.47.47,0,0,0-.47.47v1a.47.47,0,0,0,.47.47l.95.06a3.6,3.6,0,0,0,.34.81l-.64.7a.47.47,0,0,0,0,.66l.69.69a.47.47,0,0,0,.66,0l.7-.64a3.61,3.61,0,0,0,.81.34l.06.95a.47.47,0,0,0,.47.47h1a.47.47,0,0,0,.47-.47l.06-.95a3.66,3.66,0,0,0,.81-.34l.7.64a.47.47,0,0,0,.66,0l.69-.69a.47.47,0,0,0,0-.66l-.64-.7a3.58,3.58,0,0,0,.34-.81l.95-.06a.47.47,0,0,0,.47-.47v-1A.47.47,0,0,0,29.53,74ZM25,77.23A2.23,2.23,0,1,1,27.23,75,2.23,2.23,0,0,1,25,77.23Z"/></g><g id="more"><circle class="cls-4" cx="220.15" cy="25" r="1.42"/><circle class="cls-4" cx="225.15" cy="25" r="1.42"/><circle class="cls-4" cx="229.85" cy="25" r="1.42"/></g><path class="cls-4" d="M530,74.43l-4.8-3.84a.33.33,0,0,0-.4,0L523.08,72v-.81a.64.64,0,0,0-1.28,0V73L520,74.43a.32.32,0,0,0,0,.45.32.32,0,0,0,.45,0l.76-.6v4.52a.64.64,0,0,0,.64.64h1.92a.64.64,0,0,0,.64-.64V76.28h1.28v2.56a.64.64,0,0,0,.64.64h1.92a.64.64,0,0,0,.64-.64V74.32l.76.6a.33.33,0,0,0,.2.07.31.31,0,0,0,.25-.12.32.32,0,0,0-.05-.45Zm-1.8,4.41h-1.92v-3.2h-2.56v3.2H521.8v-5l3.2-2.56,3.2,2.56Z"/><path class="cls-4" d="M576.78,76.67a1.65,1.65,0,0,0-1,.35l-2.9-1.74a1.59,1.59,0,0,0,0-.54l2.9-1.74a1.67,1.67,0,1,0-.65-1.32,1.77,1.77,0,0,0,0,.27l-2.9,1.74a1.65,1.65,0,0,0-1-.35,1.67,1.67,0,1,0,1,3l2.9,1.74a1.67,1.67,0,1,0,1.64-1.39Z"/><path class="cls-4" d="M575,66a9,9,0,1,0,9,9,9,9,0,0,0-9-9Zm0,16.72A7.76,7.76,0,1,1,582.76,75,7.76,7.76,0,0,1,575,82.76Z"/><path class="cls-4" d="M476.67,71.16a3.9,3.9,0,1,0-.54,5.95.83.83,0,0,0,.22.41l2.21,2.21a.82.82,0,0,0,1.16-1.16l-2.21-2.21a.83.83,0,0,0-.41-.22,3.9,3.9,0,0,0-.44-5ZM476,76a2.91,2.91,0,1,1,0-4.11A2.91,2.91,0,0,1,476,76Z"/><path class="cls-4" d="M475,66a9,9,0,1,0,9,9,9,9,0,0,0-9-9Zm0,16.72A7.76,7.76,0,1,1,482.76,75,7.76,7.76,0,0,1,475,82.76Z"/><path class="cls-4" d="M625,16a9,9,0,1,0,9,9,9,9,0,0,0-9-9Zm0,16.72A7.76,7.76,0,1,1,632.76,25,7.76,7.76,0,0,1,625,32.76Z"/><g id="Layer_5" data-name="Layer 5"><polygon class="cls-4" points="625 19.79 626.69 23.22 630.48 23.77 627.74 26.44 628.39 30.21 625 28.43 621.61 30.21 622.26 26.44 619.52 23.77 623.31 23.22 625 19.79"/></g><path class="cls-4" d="M638.5,75A13.5,13.5,0,1,0,625,88.5,13.5,13.5,0,0,0,638.5,75Zm-25.2,0A11.7,11.7,0,1,1,625,86.7,11.71,11.71,0,0,1,613.3,75Z"/><path class="cls-4" d="M629.24,73.89h1.91V69.2a.53.53,0,0,0-.53-.53H619.38a.53.53,0,0,0-.53.53v4.69h1.91A4.42,4.42,0,0,1,625,77.07,4.41,4.41,0,0,1,629.24,73.89Z"/><path class="cls-4" d="M628.07,75.93a3.89,3.89,0,0,1-6.14,0h-3.08V80.8a.53.53,0,0,0,.53.53h11.24a.53.53,0,0,0,.53-.53V75.93Z"/><path class="cls-4" d="M638.5,124.64a13.5,13.5,0,1,0-13.5,13.5,13.5,13.5,0,0,0,13.5-13.5Zm-25.2,0a11.7,11.7,0,1,1,11.7,11.7,11.71,11.71,0,0,1-11.7-11.7Z"/><path class="cls-4" d="M629.09,117.23a7.15,7.15,0,0,0-4.29-1.23,6,6,0,0,0-3.32.87,5.32,5.32,0,0,0-2.28,4.61h3.31a3.38,3.38,0,0,1,.55-1.83,2,2,0,0,1,1.88-.88,2.13,2.13,0,0,1,1.85.71,2.67,2.67,0,0,1,.51,1.58,2.42,2.42,0,0,1-.56,1.38,2.93,2.93,0,0,1-.66.67,15,15,0,0,0-2.58,2.07,4,4,0,0,0-.54,2.49c0,.08,0,.25.31.25h2.57a.28.28,0,0,0,.31-.27,3,3,0,0,1,.14-.87,2.71,2.71,0,0,1,1-1.2l.91-.63a9.82,9.82,0,0,0,1.77-1.58,4.18,4.18,0,0,0,.84-2.5A4.22,4.22,0,0,0,629.09,117.23Zm-4.35,12.69a2,2,0,1,0-.12,4.08,2,2,0,0,0,2.14-2A2,2,0,0,0,624.74,129.92Z"/></g></svg>