<svg xmlns="http://www.w3.org/2000/svg" xmlns:xlink="http://www.w3.org/1999/xlink" viewBox="0 0 650 50"><defs><style>.cls-1,.cls-2{fill:none;}.cls-1{clip-rule:evenodd;}.cls-3{fill:#1da1f2;}.cls-4{fill:#0680ab;}.cls-5,.cls-8{fill:#fff;}.cls-6{fill:#00abc8;}.cls-7{fill:#25d366;}.cls-8{fill-rule:evenodd;}.cls-9{fill:#005a5f;}.cls-10{fill:#3e5193;}.cls-11{fill:#dd4b39;}.cls-12{clip-path:url(#clip-path);}.cls-13{clip-path:url(#clip-path-2);}.cls-14{clip-path:url(#clip-path-3);}</style><clipPath id="clip-path"><path class="cls-1" d="M127.8,26.48a6.76,6.76,0,0,1-7.1,5.94,7.41,7.41,0,1,1,0-14.83,7.13,7.13,0,0,1,5,1.93l-2.15,2.13a4,4,0,0,0-2.88-1.11A4.47,4.47,0,0,0,116.3,25a4.42,4.42,0,0,0,4.4,4.41,3.76,3.76,0,0,0,4-2.93h-4v-3h7.08a8.62,8.62,0,0,1,.13,1.5A9.69,9.69,0,0,1,127.8,26.48Z"/></clipPath><clipPath id="clip-path-2"><rect class="cls-2" x="101.47" y="2.12" width="45.83" height="45.83"/></clipPath><clipPath id="clip-path-3"><polygon class="cls-1" points="136.78 25.55 134.16 25.55 134.16 28.15 132.3 28.15 132.3 25.55 129.68 25.55 129.68 23.7 132.3 23.7 132.3 21.11 134.16 21.11 134.16 23.7 136.78 23.7 136.78 25.55"/></clipPath></defs><title>-</title><g id="layer-set-10"><path class="cls-3" d="M89,16.31a11.48,11.48,0,0,1-3.3.9A5.75,5.75,0,0,0,88.23,14a11.51,11.51,0,0,1-3.65,1.39,5.75,5.75,0,0,0-9.79,5.24,16.33,16.33,0,0,1-11.84-6,5.76,5.76,0,0,0,1.78,7.67,5.78,5.78,0,0,1-2.6-.72s0,0,0,.07a5.75,5.75,0,0,0,4.61,5.63,5.85,5.85,0,0,1-1.51.2,6,6,0,0,1-1.08-.1,5.75,5.75,0,0,0,5.37,4,11.53,11.53,0,0,1-7.13,2.46A12.18,12.18,0,0,1,61,33.8a16.26,16.26,0,0,0,8.81,2.58c10.57,0,16.34-8.75,16.34-16.35,0-.25,0-.5,0-.74a11.65,11.65,0,0,0,2.87-3Z"/><path class="cls-4" d="M190,37.52A2.49,2.49,0,0,1,187.52,40h-25A2.49,2.49,0,0,1,160,37.52v-25A2.49,2.49,0,0,1,162.48,10h25A2.49,2.49,0,0,1,190,12.48v25Z"/><path class="cls-5" d="M167,19.64a2.35,2.35,0,1,0-2.52-2.34A2.35,2.35,0,0,0,167,19.64ZM169.27,35V21.49h-4.5V35Z"/><path class="cls-5" d="M171.76,35h4.5V27.47a3.1,3.1,0,0,1,.15-1.1,2.46,2.46,0,0,1,2.31-1.65c1.63,0,2.28,1.24,2.28,3.06V35h4.5V27.27c0-4.16-2.22-6.09-5.18-6.09a4.49,4.49,0,0,0-4.09,2.28h0v-2h-4.5c.06,1.27,0,13.54,0,13.54Z"/><path class="cls-6" d="M240,37.5a2.5,2.5,0,0,1-2.5,2.5h-25a2.5,2.5,0,0,1-2.5-2.5v-25a2.5,2.5,0,0,1,2.5-2.5h25a2.5,2.5,0,0,1,2.5,2.5Z"/><path class="cls-5" d="M215.08,19.26l8.86,4.9a2.45,2.45,0,0,0,2.14,0l8.85-4.9c.58-.32,1.12-1.32.06-1.32H215C214,17.94,214.5,18.94,215.08,19.26Zm20.09,2.43-9.1,4.9a2.46,2.46,0,0,1-2.14,0l-9.1-4.9c-.46-.25-.46,0-.46.27v8.93a1.4,1.4,0,0,0,1.17,1.17h18.91a1.4,1.4,0,0,0,1.17-1.17V22C235.63,21.74,235.63,21.45,235.17,21.7Z"/><path class="cls-7" d="M290,37.52a2.5,2.5,0,0,1-2.5,2.5h-25a2.5,2.5,0,0,1-2.5-2.5v-25a2.5,2.5,0,0,1,2.5-2.5h25a2.5,2.5,0,0,1,2.5,2.5Z"/><path class="cls-8" d="M282.25,17.71a10.19,10.19,0,0,0-16,12.29l-1.45,5.28,5.4-1.42A10.18,10.18,0,0,0,275,35.1h0a10.19,10.19,0,0,0,7.21-17.39M275,33.38h0a8.43,8.43,0,0,1-4.31-1.18l-.31-.18-3.21.84.86-3.12-.2-.32a8.47,8.47,0,1,1,7.17,4M279.69,27c-.25-.13-1.51-.74-1.74-.83s-.4-.13-.57.13-.66.83-.81,1-.3.19-.55.06a7.07,7.07,0,0,1-2-1.26,7.63,7.63,0,0,1-1.42-1.76c-.15-.25,0-.39.11-.52s.25-.3.38-.44a1.79,1.79,0,0,0,.25-.43.46.46,0,0,0,0-.44c-.06-.13-.57-1.38-.78-1.89s-.42-.43-.57-.44h-.49a.94.94,0,0,0-.68.32,2.85,2.85,0,0,0-.89,2.12,5,5,0,0,0,1,2.63,11.34,11.34,0,0,0,4.35,3.84,14.9,14.9,0,0,0,1.45.54,3.53,3.53,0,0,0,1.6.1A2.62,2.62,0,0,0,280,28.55a2.13,2.13,0,0,0,.15-1.21c-.06-.11-.23-.17-.49-.3"/><path class="cls-9" d="M340,37.52a2.5,2.5,0,0,1-2.5,2.5h-25a2.5,2.5,0,0,1-2.5-2.5v-25a2.5,2.5,0,0,1,2.5-2.5h25a2.5,2.5,0,0,1,2.5,2.5Z"/><path id="path19359" class="cls-5" d="M318.25,19.13a.43.43,0,0,0-.38.17.43.43,0,0,0,0,.43L319.78,23a0,0,0,0,1,0,0l-3,5.24a.43.43,0,0,0,0,.43.41.41,0,0,0,.37.19H320a.85.85,0,0,0,.76-.54l3-5.34-1.92-3.35a.86.86,0,0,0-.78-.52Z"/><path id="path19375" class="cls-5" d="M330,15.31a.82.82,0,0,0-.75.53l-6.22,11,4,7.29a.87.87,0,0,0,.78.53h2.79a.41.41,0,0,0,.37-.18.44.44,0,0,0,0-.43L327,26.88a0,0,0,0,1,0,0l6.19-10.95a.44.44,0,0,0,0-.43.41.41,0,0,0-.37-.18Z"/><path class="cls-10" d="M40,37.5A2.5,2.5,0,0,1,37.5,40h-25A2.5,2.5,0,0,1,10,37.5v-25A2.5,2.5,0,0,1,12.5,10h25A2.5,2.5,0,0,1,40,12.5Z"/><path id="f" class="cls-5" d="M30.72,40V28.4h3.89l.58-4.52H30.72V21c0-1.31.36-2.2,2.24-2.2h2.39v-4a32,32,0,0,0-3.49-.18c-3.45,0-5.81,2.11-5.81,6v3.33h-3.9V28.4H26V40Z"/><path class="cls-11" d="M140,37.5a2.5,2.5,0,0,1-2.5,2.5h-25a2.5,2.5,0,0,1-2.5-2.5v-25a2.5,2.5,0,0,1,2.5-2.5h25a2.5,2.5,0,0,1,2.5,2.5Z"/><g class="cls-12"><g class="cls-13"><rect class="cls-5" x="107.49" y="11.86" width="26.15" height="26.29"/></g></g><g class="cls-14"><g class="cls-13"><rect class="cls-5" x="123.95" y="15.38" width="18.56" height="18.5"/></g></g></g></svg>