<svg xmlns="http://www.w3.org/2000/svg" xmlns:xlink="http://www.w3.org/1999/xlink" viewBox="0 0 650 50"><defs><style>.cls-1,.cls-2{fill:none;}.cls-1{clip-rule:evenodd;}.cls-3,.cls-9{fill:#fff;}.cls-4{fill:#f173ac;}.cls-5{fill:#f073ab;}.cls-6{clip-path:url(#clip-path);}.cls-7{clip-path:url(#clip-path-2);}.cls-8{clip-path:url(#clip-path-3);}.cls-9{fill-rule:evenodd;}</style><clipPath id="clip-path"><path class="cls-1" d="M127,26.79a6.31,6.31,0,0,1-6.62,5.54,6.92,6.92,0,1,1,0-13.84,6.66,6.66,0,0,1,4.69,1.8l-2,2a3.7,3.7,0,0,0-2.69-1,4.17,4.17,0,0,0-4.11,4.17,4.13,4.13,0,0,0,4.11,4.11,3.51,3.51,0,0,0,3.76-2.74H120.4V24H127a8,8,0,0,1,.12,1.4A9,9,0,0,1,127,26.79Z"/></clipPath><clipPath id="clip-path-2"><rect class="cls-2" x="102.46" y="4.06" width="42.78" height="42.78"/></clipPath><clipPath id="clip-path-3"><polygon class="cls-1" points="135.41 25.93 132.97 25.93 132.97 28.36 131.23 28.36 131.23 25.93 128.78 25.93 128.78 24.21 131.23 24.21 131.23 21.78 132.97 21.78 132.97 24.21 135.41 24.21 135.41 25.93"/></clipPath></defs><title>-</title><g id="layer-set-5"><rect class="cls-3" x="21.46" y="13.25" width="15.29" height="25.75"/><path class="cls-4" d="M38,11H13a1.54,1.54,0,0,0-1.54,1.54V37.45A1.54,1.54,0,0,0,13,39H26.45V28.16H22.81V23.93h3.65V20.81c0-3.62,2.21-5.59,5.44-5.59a30.08,30.08,0,0,1,3.26.17v3.78H32.91c-1.75,0-2.09.83-2.09,2.06v2.7H35l-.54,4.23H30.82V39H38a1.54,1.54,0,0,0,1.54-1.54V12.54A1.54,1.54,0,0,0,38,11"/><path class="cls-5" d="M112,11.5A1.54,1.54,0,0,0,110.5,13V38A1.54,1.54,0,0,0,112,39.5H137A1.54,1.54,0,0,0,138.5,38V13A1.54,1.54,0,0,0,137,11.5Z"/><path class="cls-5" d="M62,10.5A1.54,1.54,0,0,0,60.5,12V37A1.54,1.54,0,0,0,62,38.5H87A1.54,1.54,0,0,0,88.5,37V12A1.54,1.54,0,0,0,87,10.5Z"/><path class="cls-3" d="M70.86,32.47a11.4,11.4,0,0,1-6.17-1.81,8.12,8.12,0,0,0,6-1.67,4,4,0,0,1-3.76-2.79,4,4,0,0,0,.76.07,4,4,0,0,0,1.06-.14,4,4,0,0,1-3.23-3.94v-.05a4,4,0,0,0,1.82.5,4,4,0,0,1-1.24-5.37,11.42,11.42,0,0,0,8.29,4.2,4,4,0,0,1,6.86-3.67,8.08,8.08,0,0,0,2.55-1A4,4,0,0,1,82,19.05a8.08,8.08,0,0,0,2.31-.63,8.2,8.2,0,0,1-2,2.08q0,.26,0,.52A11.37,11.37,0,0,1,70.86,32.47"/><path class="cls-4" d="M162,11a1.54,1.54,0,0,0-1.54,1.54V37.45A1.54,1.54,0,0,0,162,39H187a1.55,1.55,0,0,0,1.54-1.54V12.55A1.55,1.55,0,0,0,187,11Z"/><path class="cls-3" d="M169.92,22h-4.23V34.71h4.23Zm-2.12-1.74a2.21,2.21,0,1,0-2.37-2.2,2.21,2.21,0,0,0,2.37,2.2Z"/><path class="cls-3" d="M172.27,34.71h4.23V27.6a2.87,2.87,0,0,1,.14-1A2.31,2.31,0,0,1,178.81,25c1.53,0,2.14,1.17,2.14,2.88v6.81h4.23v-7.3c0-3.91-2.09-5.73-4.87-5.73a4.21,4.21,0,0,0-3.84,2.14h0V22h-4.23c.06,1.19,0,12.73,0,12.73"/><path class="cls-4" d="M212.54,11A1.54,1.54,0,0,0,211,12.55V37.45A1.54,1.54,0,0,0,212.54,39h24.91A1.55,1.55,0,0,0,239,37.45V12.55A1.55,1.55,0,0,0,237.46,11Z"/><path class="cls-3" d="M215.08,19.26l8.86,4.9a2.45,2.45,0,0,0,2.14,0l8.85-4.9c.58-.32,1.12-1.32.06-1.32H215C214,17.94,214.5,18.94,215.08,19.26Zm20.09,2.43-9.1,4.9a2.46,2.46,0,0,1-2.14,0l-9.1-4.9c-.46-.25-.46,0-.46.27v8.93a1.4,1.4,0,0,0,1.17,1.17h18.91a1.4,1.4,0,0,0,1.17-1.17V22C235.63,21.74,235.63,21.45,235.17,21.7Z"/><g class="cls-6"><g class="cls-7"><rect class="cls-3" x="108.07" y="13.15" width="24.4" height="24.53"/></g></g><g class="cls-8"><g class="cls-7"><rect class="cls-3" x="123.43" y="16.44" width="17.33" height="17.27"/></g></g><path class="cls-4" d="M262.54,11A1.54,1.54,0,0,0,261,12.55V37.45A1.54,1.54,0,0,0,262.54,39h24.91A1.55,1.55,0,0,0,289,37.45V12.55A1.55,1.55,0,0,0,287.46,11Z"/><path class="cls-9" d="M282.31,17.65A10.27,10.27,0,0,0,266.14,30l-1.46,5.32,5.44-1.43A10.26,10.26,0,0,0,275,35.19h0a10.28,10.28,0,0,0,7.27-17.54M275,33.45h0a8.52,8.52,0,0,1-4.35-1.19l-.31-.19-3.23.85.86-3.15-.2-.32a8.54,8.54,0,1,1,7.23,4m4.68-6.39c-.26-.13-1.52-.75-1.75-.84s-.41-.13-.58.13-.66.84-.81,1-.3.19-.55.06A7.1,7.1,0,0,1,274,26.15a7.76,7.76,0,0,1-1.43-1.78c-.15-.26,0-.4.11-.52s.26-.3.38-.45a1.78,1.78,0,0,0,.26-.43.47.47,0,0,0,0-.45c-.07-.13-.58-1.39-.79-1.91s-.42-.43-.58-.44h-.49a.94.94,0,0,0-.68.32,2.88,2.88,0,0,0-.9,2.14,5,5,0,0,0,1,2.66,11.46,11.46,0,0,0,4.39,3.88,15.16,15.16,0,0,0,1.46.54,3.55,3.55,0,0,0,1.62.1,2.65,2.65,0,0,0,1.73-1.22,2.15,2.15,0,0,0,.15-1.22c-.07-.11-.24-.17-.49-.3"/><path class="cls-4" d="M312.54,11A1.54,1.54,0,0,0,311,12.55V37.45A1.54,1.54,0,0,0,312.54,39h24.91A1.55,1.55,0,0,0,339,37.45V12.55A1.55,1.55,0,0,0,337.46,11Z"/><path id="path19359" class="cls-3" d="M318.59,19.46a.41.41,0,0,0-.36.17.41.41,0,0,0,0,.41l1.8,3.11a0,0,0,0,1,0,0l-2.82,5a.41.41,0,0,0,0,.41.39.39,0,0,0,.35.18h2.66a.81.81,0,0,0,.72-.51l2.87-5.07L322,20a.82.82,0,0,0-.74-.5Z"/><path id="path19375" class="cls-3" d="M329.75,15.82a.78.78,0,0,0-.71.51l-5.91,10.48,3.77,6.92a.83.83,0,0,0,.74.51h2.65a.39.39,0,0,0,.35-.17.41.41,0,0,0,0-.41l-3.74-6.84a0,0,0,0,1,0,0l5.88-10.4a.42.42,0,0,0,0-.41.39.39,0,0,0-.35-.17Z"/></g></svg>