<svg xmlns="http://www.w3.org/2000/svg" viewBox="0 0 650 150"><defs><style>.cls-1,.cls-2{fill:none;stroke-miterlimit:10;}.cls-1{stroke:#fff;}.cls-2{stroke:#000;}.cls-3{opacity:0.2;}.cls-4{opacity:0.5;}</style></defs><title>-</title><g id="layer-set-8"><polyline class="cls-1" points="30.1 14.8 19.9 25 30.1 35.2"/><polyline class="cls-1" points="69.9 35.2 80.1 25 69.9 14.8"/><polyline class="cls-1" points="114.8 69.9 125 80.1 135.2 69.9"/><polyline class="cls-1" points="185.2 80.1 175 69.9 164.8 80.1"/><polygon class="cls-1" points="161 25 161 19 167 19 176 10 176 25 176 40 167 31 161 31 161 25"/><line class="cls-1" x1="180" y1="20.5" x2="189" y2="29.5"/><line class="cls-1" x1="180" y1="29.5" x2="189" y2="20.5"/><polygon class="cls-1" points="110.5 25 110.5 19 116.5 19 125.5 10 125.5 25 125.5 40 116.5 31 110.5 31 110.5 25"/><path class="cls-1" d="M129.5,30a5,5,0,0,0,0-10"/><path class="cls-1" d="M129.5,15a10,10,0,0,1,0,20"/><polygon class="cls-1" points="25 59.5 22 59.5 22 64 19 65 16 62 12 66 15 69 14 72 9.5 72 9.5 78 14 78 15 81 12 84 16 88 19 85 22 86 22 90.5 25 90.5 28 90.5 28 86 31 85 34 88 38 84 35 81 36 78 40.5 78 40.5 72 36 72 35 69 38 66 34 62 31 65 28 64 28 59.5 25 59.5"/><circle class="cls-1" cx="25" cy="75" r="3"/><polygon class="cls-1" points="525 60 510 75 514.5 75 514.5 90 520.5 90 520.5 82 528.5 82 528.5 90 534.5 90 534.5 75 540 75 525 60"/><path class="cls-1" d="M636,114A15.5,15.5,0,1,1,614,114,15.5,15.5,0,0,1,636,114Z"/><line class="cls-1" x1="624" y1="130.5" x2="624" y2="132.5"/><path class="cls-1" d="M621,119.5c0-1.5,1-2.5,4-2.5,2.5,0,4,1.5,4,3.5s-3,3.5-3,3.5a4.33,4.33,0,0,0-2,4v.5"/><circle class="cls-1" cx="584.5" cy="65.5" r="6"/><circle class="cls-1" cx="564.5" cy="80" r="5"/><circle class="cls-1" cx="583" cy="86.5" r="4"/><line class="cls-1" x1="579" y1="86" x2="569" y2="82"/><line class="cls-1" x1="568.5" y1="76.5" x2="579.5" y2="69.5"/><polygon class="cls-1" points="625 32.75 615 40.25 619 28.25 610 21.25 621 21.25 625 9.75 629 21.25 640 21.25 631 28.25 635 40.25 625 32.75"/><rect class="cls-1" x="559.5" y="16.5" width="27" height="21"/><polyline class="cls-1" points="564.5 15 564.5 12.5 590.5 12.5 590.5 34 588 34"/><line class="cls-1" x1="559.5" y1="20.5" x2="586.5" y2="20.5"/><line class="cls-1" x1="564" y1="18.5" x2="562" y2="18.5"/><line class="cls-1" x1="568" y1="18.5" x2="566" y2="18.5"/><line class="cls-1" x1="572" y1="18.5" x2="570" y2="18.5"/><line class="cls-1" x1="63" y1="75.17" x2="87" y2="75.17"/><line class="cls-1" x1="63" y1="66.93" x2="87" y2="66.93"/><line class="cls-1" x1="63" y1="83.07" x2="87" y2="83.07"/><line class="cls-1" x1="275" y1="31.75" x2="275" y2="18.25"/><line class="cls-1" x1="268.25" y1="25" x2="281.75" y2="25"/><line class="cls-1" x1="318.25" y1="75" x2="331.75" y2="75"/><polyline class="cls-1" points="235.2 69.9 225 80.1 214.8 69.9"/><polyline class="cls-1" points="235.2 69.9 225 80.1 214.8 69.9"/><polyline class="cls-1" points="264.8 80.1 275 69.9 285.2 80.1"/><polyline class="cls-1" points="264.8 80.1 275 69.9 285.2 80.1"/><polygon class="cls-2" points="271.64 120.38 278.36 125 271.64 129.62 271.64 120.38"/><polygon class="cls-1" points="221.64 129.62 228.36 125 221.64 120.38 221.64 129.62"/><polygon class="cls-2" points="529.62 128.36 525 121.64 520.38 128.36 529.62 128.36"/><polygon class="cls-1" points="420.38 121.64 425 128.36 429.62 121.64 420.38 121.64"/><g class="cls-3"><polygon class="cls-2" points="371.64 120.38 378.36 125 371.64 129.62 371.64 120.38"/></g><g class="cls-4"><polygon class="cls-2" points="321.64 129.62 328.36 125 321.64 120.38 321.64 129.62"/></g><polygon class="cls-1" points="579.62 128.36 575 121.64 570.38 128.36 579.62 128.36"/><polygon class="cls-2" points="470.38 121.64 475 128.36 479.62 121.64 470.38 121.64"/><line class="cls-1" x1="320.11" y1="20.14" x2="329.89" y2="29.86"/><line class="cls-1" x1="320.14" y1="29.89" x2="329.86" y2="20.11"/><polyline class="cls-1" points="81.38 128.19 75 121.81 68.63 128.19"/><polyline class="cls-1" points="28.19 118.63 21.81 125 28.19 131.38"/><polyline class="cls-1" points="168.63 121.81 175 128.19 181.38 121.81"/><polyline class="cls-1" points="121.81 131.38 128.19 125 121.81 118.63"/><path class="cls-1" d="M211.22,20.67A4.33,4.33,0,1,0,215.55,25,4.33,4.33,0,0,0,211.22,20.67Zm13.78,0A4.33,4.33,0,1,0,229.33,25,4.33,4.33,0,0,0,225,20.67Zm13.78,0A4.33,4.33,0,1,0,243.11,25,4.33,4.33,0,0,0,238.78,20.67Z"/><polygon class="cls-1" points="383.5 20.75 375 29.25 366.5 20.75 383.5 20.75"/><polygon class="cls-1" points="416.5 29.25 425 20.75 433.5 29.25 416.5 29.25"/><polygon class="cls-1" points="479.25 33.5 470.75 25 479.25 16.5 479.25 33.5"/><polygon class="cls-1" points="520.75 16.5 529.25 25 520.75 33.5 520.75 16.5"/><polyline class="cls-1" points="366.5 70.75 375 79.25 383.5 70.75"/><polyline class="cls-1" points="433.5 79.25 425 70.75 416.5 79.25"/><line class="cls-1" x1="465.25" y1="69.64" x2="474.03" y2="69.64"/><line class="cls-1" x1="469.64" y1="65.25" x2="469.64" y2="74.03"/><circle class="cls-1" cx="469.64" cy="69.64" r="9.75"/><line class="cls-1" x1="476.46" y1="76.46" x2="479.38" y2="79.39"/><rect class="cls-1" x="481.95" y="77.47" width="4.14" height="13.09" transform="translate(82.36 366.86) rotate(-45)"/><path class="cls-1" d="M632.91,72.93h3.57V64.17a1,1,0,0,0-1-1h-21a1,1,0,0,0-1,1v8.75h3.57a8.24,8.24,0,0,1,7.9,5.93A8.24,8.24,0,0,1,632.91,72.93Z"/><path class="cls-1" d="M630.73,76.74a7.26,7.26,0,0,0-5.73,2.8,7.26,7.26,0,0,0-5.73-2.8h-5.74v9.08a1,1,0,0,0,1,1h21a1,1,0,0,0,1-1V76.74Z"/></g></svg>