<svg id="layer-set-13" xmlns="http://www.w3.org/2000/svg" viewBox="0 0 650 150"><defs><style>.cls-1,.cls-2,.cls-3,.cls-4{fill:#43b02a;}.cls-2{opacity:0.4;}.cls-2,.cls-3,.cls-4{isolation:isolate;}.cls-3{opacity:0.2;}.cls-4{opacity:0.5;}</style></defs><title>icon-set-16</title><g id="inhoudsopgave"><rect class="cls-1" x="61.5" y="73" width="4" height="4"/><rect class="cls-1" x="67.5" y="73" width="21" height="4"/><rect class="cls-1" x="61.5" y="81" width="4" height="4"/><rect class="cls-1" x="67.5" y="81" width="21" height="4"/><rect class="cls-1" x="61.5" y="65" width="4" height="4"/><rect class="cls-1" x="67.5" y="65" width="21" height="4"/></g><g id="more"><circle class="cls-1" cx="210.88" cy="25" r="4.02"/><circle class="cls-1" cx="225" cy="25" r="4.02"/><circle class="cls-1" cx="239.12" cy="25" r="4.02"/></g><polygon id="prev" class="cls-1" points="24.52 25 33.86 15.66 29.67 11.47 16.14 25 29.67 38.52 33.86 34.33 24.52 25"/><polygon id="prev-2" data-name="prev" class="cls-1" points="125 75.48 115.66 66.14 111.47 70.33 125 83.86 138.53 70.33 134.33 66.14 125 75.48"/><g id="arrow_down_big" data-name="arrow down big"><polygon id="prev-3" data-name="prev" class="cls-1" points="225 66.46 213.75 55.21 208.7 60.26 225 76.56 241.3 60.26 236.25 55.21 225 66.46"/><polygon id="prev-4" data-name="prev" class="cls-2" points="225 84.69 213.75 73.44 208.7 78.49 225 94.79 241.3 78.49 236.25 73.44 225 84.69"/></g><g id="arrow_down_big-2" data-name="arrow down big"><polygon id="prev-5" data-name="prev" class="cls-1" points="275 83.89 286.72 95.62 291.99 90.35 275 73.37 258.01 90.35 263.28 95.62 275 83.89"/><polygon id="prev-6" data-name="prev" class="cls-2" points="275 64.91 286.72 76.63 291.99 71.37 275 54.38 258.01 71.37 263.28 76.63 275 64.91"/></g><polygon id="next" class="cls-1" points="75.48 25 66.14 34.34 70.33 38.52 83.86 25 70.33 11.47 66.14 15.67 75.48 25"/><path class="cls-1" d="M222,119.5h2l4,5.5-4,5.5h-2l3.69-5.5Z"/><path class="cls-1" d="M272,119.5h2l4,5.5-4,5.5h-2l3.69-5.5Z"/><path class="cls-3" d="M372,119.5h2l4,5.5-4,5.5h-2l3.69-5.5Z"/><path class="cls-4" d="M322,119.5h2l4,5.5-4,5.5h-2l3.69-5.5Z"/><polygon id="next-2" data-name="next" class="cls-1" points="175 74.52 184.33 83.86 188.53 79.67 175 66.14 161.47 79.67 165.67 83.86 175 74.52"/><g id="close_White" data-name="close White"><rect class="cls-1" x="323.82" y="19.11" width="2.36" height="11.78" transform="translate(77.5 237.12) rotate(-45)"/><rect class="cls-1" x="319.11" y="23.82" width="11.78" height="2.36" transform="translate(77.51 237.13) rotate(-45)"/></g><g id="plus"><rect class="cls-1" x="273.5" y="17.5" width="3" height="15"/><rect class="cls-1" x="267.5" y="23.5" width="15" height="3"/></g><polygon id="small_right" data-name="small right" class="cls-1" points="119 117 119 133 131 125 119 117"/><polygon id="small_left" data-name="small left" class="cls-1" points="31 117 31 133 19 125 31 117"/><polygon id="small_left-2" data-name="small left" class="cls-1" points="83 131 67 131 75 119 83 131"/><polygon id="small_left-3" data-name="small left" class="cls-1" points="167 119 183 119 175 131 167 119"/><path class="cls-1" d="M117,21v8h3.52L126,32V18l-5.51,3Zm11.2.68L126.88,23a2.68,2.68,0,0,1,0,4l1.34,1.33A4.82,4.82,0,0,0,129.51,25,4.76,4.76,0,0,0,128.19,21.68Zm2.54-2.54-1.41,1.41a6.72,6.72,0,0,1,0,8.9l1.41,1.41a8.69,8.69,0,0,0,0-11.72Z"/><polygon class="cls-1" points="171 21 167.49 21 167.49 29 171.02 29 176.51 32 176.51 18 171 21"/><g id="Cog"><path class="cls-1" d="M25,71.68A3.32,3.32,0,1,0,28.32,75,3.32,3.32,0,0,0,25,71.68Zm12,4.49V73.82l-3.4-1.27a8.78,8.78,0,0,0-.82-2l1.53-3.26-1.66-1.66-3.26,1.53a8.56,8.56,0,0,0-1.95-.82L26.17,63H23.83l-1.27,3.4a8.57,8.57,0,0,0-1.95.82l-3.26-1.53-1.66,1.66,1.53,3.26a8.69,8.69,0,0,0-.82,2L13,73.82v2.35l3.4,1.27a8.78,8.78,0,0,0,.82,2l-1.53,3.26,1.66,1.66,3.26-1.53a8.57,8.57,0,0,0,1.95.82L23.83,87h2.35l1.27-3.4a8.65,8.65,0,0,0,1.95-.82l3.26,1.53,1.66-1.66-1.53-3.26a8.78,8.78,0,0,0,.82-2ZM25,80.36A5.36,5.36,0,1,1,30.36,75,5.36,5.36,0,0,1,25,80.36Z"/></g><rect class="cls-1" x="320" y="74" width="10" height="2"/><polygon class="cls-1" points="424.68 129.5 416 121.97 416.44 120.51 424.69 127.68 433.59 120.5 434 121.98 424.68 129.5"/><polygon class="cls-1" points="474.68 129.5 466 121.97 466.44 120.51 474.69 127.68 483.59 120.5 484 121.98 474.68 129.5"/><polygon class="cls-1" points="575.32 120.5 584 128.03 583.57 129.49 575.31 122.32 566.41 129.5 566 128.02 575.32 120.5"/><polygon class="cls-1" points="525.32 120.5 534 128.03 533.57 129.49 525.31 122.32 516.41 129.5 516 128.02 525.32 120.5"/><path class="cls-1" d="M537.75,76.14a1.66,1.66,0,0,1-1.22.5,1.63,1.63,0,0,1-1.2-.49l-.39-.39V86.61a1.62,1.62,0,0,1-.48,1.16,1.58,1.58,0,0,1-1.18.49h-5V80.81a.84.84,0,0,0-.83-.83h-5a.84.84,0,0,0-.83.83v7.45h-5a1.58,1.58,0,0,1-1.18-.49,1.61,1.61,0,0,1-.48-1.16V75.76l-.39.39a1.63,1.63,0,0,1-1.2.49,1.72,1.72,0,0,1-1.72-1.72,1.64,1.64,0,0,1,.49-1.2l11.49-11.49a1.88,1.88,0,0,1,2.54,0l11.49,11.49a1.72,1.72,0,0,1,0,2.42Z"/><path class="cls-1" d="M580.07,78a3,3,0,0,0-1.85.63l-5.29-3.17a2.91,2.91,0,0,0,0-1l5.29-3.17a3,3,0,0,0,1.85.63,3,3,0,1,0-3-3,3,3,0,0,0,0,.5l-5.29,3.17a3,3,0,1,0,0,4.82l5.29,3.17a3,3,0,0,0,0,.5,3,3,0,1,0,3-3Z"/><polygon class="cls-1" points="385.45 67.82 375 78.27 364.55 67.83 362.6 69.78 375 82.18 387.4 69.78 385.45 67.82"/><polygon class="cls-1" points="437.4 80.22 425 67.83 412.6 80.22 414.55 82.17 425 71.73 435.45 82.17 437.4 80.22"/><polygon class="cls-1" points="441.5 31.95 425 15.45 408.5 31.95 411.1 34.55 425 20.65 438.9 34.55 441.5 31.95"/><polygon class="cls-1" points="388.9 15.45 375 29.35 361.1 15.45 358.5 18.05 375 34.55 375 34.55 391.5 18.05 388.9 15.45"/><polygon class="cls-1" points="518.05 41.5 534.55 25 518.05 8.5 515.45 11.1 529.35 25 515.45 38.9 518.05 41.5"/><polygon class="cls-1" points="484.55 38.9 470.65 25 484.55 11.1 481.95 8.5 465.45 25 465.45 25 481.95 41.5 484.55 38.9"/><path class="cls-1" d="M565.5,13.5v20h16v-20Zm14.57,18.65H566.93V14.85h13.14Z"/><path class="cls-1" d="M568.5,33.5v3h16v-20h-3v1.35h1.57V35.15H569.93V33.5Z"/><rect class="cls-1" x="569.08" y="16.83" width="9.08" height="1.42"/><rect class="cls-1" x="569.08" y="19.83" width="9.08" height="1.42"/><rect class="cls-1" x="569.08" y="22.83" width="9.08" height="1.42"/><rect class="cls-1" x="569.08" y="25.83" width="9.08" height="1.42"/><rect class="cls-1" x="569.08" y="28.83" width="9.08" height="1.42"/><polygon class="cls-1" points="625 14.99 628.25 21.58 635.52 22.64 630.26 27.77 631.5 35.01 625 31.59 618.5 35.01 619.74 27.77 614.48 22.64 621.75 21.58 625 14.99"/><path class="cls-1" d="M477.85,68.46a6.63,6.63,0,1,0-.91,10.13,1.39,1.39,0,0,0,.38.7l3.76,3.77a1.4,1.4,0,1,0,2-2l-3.77-3.77a1.4,1.4,0,0,0-.7-.38,6.64,6.64,0,0,0-.75-8.48Zm-1.19,8.19a5,5,0,1,1,0-7,5,5,0,0,1,0,7Z"/><path class="cls-1" d="M630.86,73.46h2.64V67a.74.74,0,0,0-.73-.73H617.24a.74.74,0,0,0-.73.73v6.48h2.64A6.1,6.1,0,0,1,625,77.86,6.1,6.1,0,0,1,630.86,73.46Z"/><path class="cls-1" d="M629.25,76.29A5.38,5.38,0,0,0,625,78.37a5.38,5.38,0,0,0-4.24-2.08H616.5V83a.74.74,0,0,0,.73.73h15.53a.74.74,0,0,0,.74-.73V76.29Z"/><path class="cls-1" d="M629.09,117.23a7.15,7.15,0,0,0-4.29-1.23,6,6,0,0,0-3.32.87,5.32,5.32,0,0,0-2.28,4.61h3.31a3.38,3.38,0,0,1,.55-1.83,2,2,0,0,1,1.88-.88,2.13,2.13,0,0,1,1.85.71,2.67,2.67,0,0,1,.51,1.58,2.42,2.42,0,0,1-.56,1.38,2.93,2.93,0,0,1-.66.67,15,15,0,0,0-2.58,2.07,4,4,0,0,0-.54,2.49c0,.08,0,.25.31.25h2.57a.28.28,0,0,0,.31-.27,3,3,0,0,1,.14-.87,2.71,2.71,0,0,1,1-1.2l.91-.63a9.82,9.82,0,0,0,1.77-1.58,4.18,4.18,0,0,0,.84-2.5A4.22,4.22,0,0,0,629.09,117.23Zm-4.35,12.69a2,2,0,1,0-.12,4.08,2,2,0,0,0,2.14-2A2,2,0,0,0,624.74,129.92Z"/></svg>